<?xml version="1.0" encoding="UTF-8"?>
<svg width="32px" height="32px" viewBox="0 0 32 32" version="1.1" xmlns="http://www.w3.org/2000/svg" xmlns:xlink="http://www.w3.org/1999/xlink">
    <!-- Generator: Sketch 49.2 (51160) - http://www.bohemiancoding.com/sketch -->
    <title>icone/32x32/SSE/Communication</title>
    <desc>Created with Sketch.</desc>
    <defs></defs>
    <g id="Maquettes" stroke="none" stroke-width="1" fill="none" fill-rule="evenodd">
        <g id="Desktop---SSE" transform="translate(-732.000000, -9216.000000)" stroke="#000066">
            <g id="Materiel" transform="translate(719.000000, 6984.000000)">
                <g id="icone/32x32/Blue/SSE/Communication" transform="translate(13.000000, 2232.000000)">
                    <g id="icone/SSE/Communication/32x32/Blue" transform="translate(1.000000, 1.000000)">
                        <path d="M25,10 C27.7614237,10 30,7.76142375 30,5 C30,2.23857625 27.7614237,0 25,0 C22.2385763,0 20,2.23857625 20,5" id="Oval" stroke-linecap="round"></path>
                        <path d="M5,30 C7.76142375,30 10,27.7614237 10,25 C10,22.2385763 7.76142375,20 5,20 C2.23857625,20 0,22.2385763 0,25" id="Oval-2" stroke-linecap="round" transform="translate(5.000000, 25.000000) rotate(-180.000000) translate(-5.000000, -25.000000) "></path>
                        <path d="M25,5 L5,25" id="Line-6" stroke-linecap="round"></path>
                        <circle id="Oval-3" fill="#FFFFFF" cx="15" cy="15" r="3.75"></circle>
                    </g>
                </g>
            </g>
        </g>
    </g>
</svg>