<?xml version="1.0" encoding="UTF-8"?>
<svg width="728px" height="465px" viewBox="0 0 728 465" version="1.1" xmlns="http://www.w3.org/2000/svg" xmlns:xlink="http://www.w3.org/1999/xlink">
    <!-- Generator: Sketch 49.1 (51147) - http://www.bohemiancoding.com/sketch -->
    <title>Group 12</title>
    <desc>Created with Sketch.</desc>
    <defs>
        <rect id="path-1" x="0" y="0" width="96" height="32"></rect>
        <rect id="path-2" x="0" y="0" width="96" height="32"></rect>
        <rect id="path-3" x="0" y="0" width="96" height="33"></rect>
        <rect id="path-4" x="0" y="0" width="96" height="32"></rect>
        <rect id="path-5" x="0" y="256" width="96" height="32"></rect>
        <rect id="path-6" x="0" y="0" width="96" height="32"></rect>
        <rect id="path-7" x="0" y="0" width="152" height="96"></rect>
        <rect id="path-8" x="0" y="0" width="152" height="48"></rect>
        <rect id="path-9" x="0" y="0" width="152" height="48"></rect>
        <rect id="path-10" x="0" y="0" width="160" height="48"></rect>
        <rect id="path-11" x="0" y="0" width="160" height="48"></rect>
        <rect id="path-12" x="0" y="0" width="225" height="224"></rect>
    </defs>
    <g id="Maquettes" stroke="none" stroke-width="1" fill="none" fill-rule="evenodd">
        <g id="Desktop---Sécurité" transform="translate(-704.000000, -1399.000000)">
            <g id="Les-risques" transform="translate(703.000000, 872.000000)">
                <g id="Group-12" transform="translate(0.000000, 527.000000)">
                    <g id="Schema_Risques">
                        <path d="M1.5,1 L1.5,465" id="Line-6" stroke="#CCCCCC" stroke-linecap="round" stroke-dasharray="2,4"></path>
                        <path d="M241,1 L241,465" id="Line-6" stroke="#CCCCCC" stroke-linecap="round" stroke-dasharray="2,4"></path>
                        <path d="M368.5,1 L369,465" id="Line-6" stroke="#CCCCCC" stroke-linecap="round" stroke-dasharray="2,4"></path>
                        <path d="M728.5,1 L728.5,465" id="Line-6" stroke="#CCCCCC" stroke-linecap="round" stroke-dasharray="2,4"></path>
                        <g id="Group-13" transform="translate(226.000000, 91.000000)" stroke="#000066" stroke-linecap="round">
                            <polyline id="Line-2" stroke-linejoin="round" points="31.5 6 15 6 15 326 31.5 326"></polyline>
                            <polyline id="Line-2" stroke-linejoin="round" transform="translate(134.750000, 106.000000) scale(-1, 1) translate(-134.750000, -106.000000) " points="143 14 127 14 126.687585 128.96877 126.5 198 143 198"></polyline>
                            <path d="M127,6 L335.5,6" id="Line-3" stroke-linejoin="round"></path>
                            <path d="M15.5,134 L31.5,134" id="Line-4" stroke-linejoin="round"></path>
                            <path d="M15.5,198 L31.5,198" id="Line-4" stroke-linejoin="round"></path>
                            <path d="M15.5,262 L31.5,262" id="Line-4" stroke-linejoin="round"></path>
                            <path d="M127,263 L159,263" id="Line-4" stroke-linejoin="round"></path>
                            <path d="M319,106 L335,106" id="Line-4" stroke-linejoin="round"></path>
                            <path d="M127,326 L335,326" id="Line-4" stroke-linejoin="round"></path>
                            <path d="M127,134 L142.508062,134" id="Line-4" stroke-linejoin="round"></path>
                            <path d="M127,70 L142.508062,70" id="Line-4" stroke-linejoin="round"></path>
                            <path d="M0,166 L15,166" id="Line-4" stroke-linejoin="round"></path>
                            <path d="M15.5,70 L31.5,70" id="Line-4" stroke-linejoin="round"></path>
                            <path d="M239,146 L239,239.5" id="Line-5" stroke-dasharray="4,6"></path>
                            <polyline id="Path-3" transform="translate(239.000000, 144.000000) rotate(-45.000000) translate(-239.000000, -144.000000) " points="235 140 243 140 243 148"></polyline>
                            <polyline id="Path-3" transform="translate(338.000000, 6.000000) rotate(45.000000) translate(-338.000000, -6.000000) " points="334 2 342 2 342 10"></polyline>
                            <polyline id="Path-3" transform="translate(338.000000, 106.000000) rotate(45.000000) translate(-338.000000, -106.000000) " points="334 102 342 102 342 110"></polyline>
                            <polyline id="Path-3" transform="translate(338.000000, 326.156854) rotate(45.000000) translate(-338.000000, -326.156854) " points="334 322.156854 342 322.156854 342 330.156854"></polyline>
                            <path d="M143,106 L159,106" id="Line-4" stroke-linejoin="round"></path>
                        </g>
                        <path d="M102.385742,13.2324219 C101.045892,13.2324219 99.9851927,12.7698614 99.2036133,11.8447266 C98.4220339,10.9195917 98.03125,9.66179181 98.03125,8.07128906 C98.03125,6.476229 98.4208945,5.21615046 99.2001953,4.29101562 C99.9794961,3.36588079 101.039056,2.90332031 102.378906,2.90332031 C103.417974,2.90332031 104.306637,3.19954131 105.044922,3.79199219 C105.783207,4.38444307 106.22526,5.15689628 106.371094,6.109375 L105.120117,6.109375 C104.956054,5.47135098 104.627932,4.96663597 104.135742,4.59521484 C103.643552,4.22379372 103.057946,4.03808594 102.378906,4.03808594 C101.430985,4.03808594 100.680179,4.400387 100.126465,5.125 C99.5727511,5.849613 99.2958984,6.83169953 99.2958984,8.07128906 C99.2958984,9.30632128 99.5738904,10.2861292 100.129883,11.0107422 C100.685875,11.7353552 101.437821,12.0976562 102.385742,12.0976562 C103.073897,12.0976562 103.662921,11.9324561 104.152832,11.6020508 C104.642743,11.2716455 104.965168,10.8216174 105.120117,10.2519531 L106.371094,10.2519531 C106.20703,11.1588587 105.763838,11.8823215 105.041504,12.4223633 C104.31917,12.962405 103.433925,13.2324219 102.385742,13.2324219 Z M110.404297,12.0976562 C111.01042,12.0976562 111.512856,11.921063 111.911621,11.5678711 C112.310386,11.2146792 112.509766,10.7760443 112.509766,10.2519531 L112.509766,9.57519531 L110.527344,9.70507812 C109.451818,9.77799516 108.914062,10.1790328 108.914062,10.9082031 C108.914062,11.2819029 109.055337,11.5735667 109.337891,11.7832031 C109.620444,11.9928396 109.975909,12.0976562 110.404297,12.0976562 Z M110.185547,13.1298828 C109.470049,13.1298828 108.876467,12.9327819 108.404785,12.5385742 C107.933103,12.1443665 107.697266,11.6100294 107.697266,10.9355469 C107.697266,9.5865818 108.592764,8.85970104 110.383789,8.75488281 L112.509766,8.625 L112.509766,7.95507812 C112.509766,7.01627135 111.953782,6.546875 110.841797,6.546875 C110.399737,6.546875 110.032879,6.62662681 109.741211,6.78613281 C109.449543,6.94563882 109.262696,7.1712225 109.180664,7.46289062 L107.991211,7.46289062 C108.068685,6.87043975 108.374021,6.39534684 108.907227,6.03759766 C109.440432,5.67984847 110.098954,5.50097656 110.882812,5.50097656 C111.780603,5.50097656 112.472166,5.71858506 112.95752,6.15380859 C113.442874,6.58903212 113.685547,7.1894493 113.685547,7.95507812 L113.685547,13 L112.564453,13 L112.564453,11.9130859 L112.455078,11.9130859 C112.218098,12.305015 111.903648,12.6057932 111.511719,12.8154297 C111.11979,13.0250662 110.677737,13.1298828 110.185547,13.1298828 Z M121.669922,5.63085938 L121.669922,13 L120.548828,13 L120.548828,11.8447266 L120.439453,11.8447266 C120.257161,12.2548849 119.972333,12.5716135 119.584961,12.7949219 C119.197589,13.0182303 118.721357,13.1298828 118.15625,13.1298828 C117.331376,13.1298828 116.705894,12.892906 116.279785,12.4189453 C115.853676,11.9449846 115.640625,11.2727908 115.640625,10.4023438 L115.640625,5.63085938 L116.816406,5.63085938 L116.816406,10.1152344 C116.816406,10.776045 116.947427,11.2648096 117.209473,11.581543 C117.471518,11.8982763 117.896481,12.0566406 118.484375,12.0566406 C119.136071,12.0566406 119.63395,11.8743508 119.978027,11.5097656 C120.322105,11.1451805 120.494141,10.6393262 120.494141,9.9921875 L120.494141,5.63085938 L121.669922,5.63085938 Z M123.563477,7.64746094 C123.563477,7.0367808 123.825518,6.52636924 124.349609,6.11621094 C124.873701,5.70605264 125.527665,5.50097656 126.311523,5.50097656 C127.086267,5.50097656 127.723142,5.67870916 128.222168,6.03417969 C128.721194,6.38965021 129.00944,6.87043968 129.086914,7.4765625 L127.924805,7.4765625 C127.84733,7.18033706 127.669598,6.94336026 127.391602,6.765625 C127.113605,6.58788974 126.751304,6.49902344 126.304688,6.49902344 C125.867185,6.49902344 125.498048,6.60042216 125.197266,6.80322266 C124.896483,7.00602315 124.746094,7.27148273 124.746094,7.59960938 C124.746094,7.85026167 124.85091,8.05875568 125.060547,8.22509766 C125.270183,8.39143963 125.591469,8.52701771 126.024414,8.63183594 L127.15918,8.90527344 C127.851891,9.07389407 128.368,9.31656743 128.70752,9.63330078 C129.047039,9.95003414 129.216797,10.3727187 129.216797,10.9013672 C129.216797,11.5621778 128.934248,12.0987935 128.369141,12.5112305 C127.804034,12.9236674 127.102218,13.1298828 126.263672,13.1298828 C125.443355,13.1298828 124.771161,12.947593 124.24707,12.5830078 C123.722979,12.2184227 123.429037,11.7307973 123.365234,11.1201172 L124.575195,11.1201172 C124.675456,11.4300146 124.871418,11.6772452 125.163086,11.8618164 C125.454754,12.0463876 125.835284,12.1386719 126.304688,12.1386719 C126.801435,12.1386719 127.209308,12.0315766 127.52832,11.8173828 C127.847332,11.603189 128.006836,11.3274756 128.006836,10.9902344 C128.006836,10.7350248 127.909994,10.5219735 127.716309,10.3510742 C127.522623,10.1801749 127.22982,10.0468755 126.837891,9.95117188 L125.573242,9.64355469 C124.885088,9.47493405 124.378094,9.23340001 124.052246,8.91894531 C123.726398,8.60449062 123.563477,8.18066673 123.563477,7.64746094 Z M133.851562,6.54003906 C133.263669,6.54003906 132.780601,6.73827927 132.402344,7.13476562 C132.024087,7.53125198 131.812175,8.05533528 131.766602,8.70703125 L135.827148,8.70703125 C135.813476,8.05533528 135.626629,7.53125198 135.266602,7.13476562 C134.906574,6.73827927 134.434899,6.54003906 133.851562,6.54003906 Z M135.792969,11.0927734 L136.96875,11.0927734 C136.791015,11.7262401 136.430992,12.2241193 135.888672,12.5864258 C135.346351,12.9487323 134.671879,13.1298828 133.865234,13.1298828 C132.844396,13.1298828 132.035485,12.78695 131.438477,12.1010742 C130.841468,11.4151984 130.542969,10.4889381 130.542969,9.32226562 C130.542969,8.16470775 130.843747,7.23844749 131.445312,6.54345703 C132.046878,5.84846658 132.853511,5.50097656 133.865234,5.50097656 C134.858729,5.50097656 135.640297,5.83251622 136.209961,6.49560547 C136.779625,7.15869472 137.064453,8.06216876 137.064453,9.20605469 L137.064453,9.65722656 L131.766602,9.65722656 L131.766602,9.71191406 C131.798503,10.4410844 132.004718,11.0198546 132.385254,11.4482422 C132.76579,11.8766297 133.268226,12.0908203 133.892578,12.0908203 C134.366539,12.0908203 134.763019,12.0053719 135.082031,11.8344727 C135.401043,11.6635734 135.63802,11.4163428 135.792969,11.0927734 Z M138.588867,7.64746094 C138.588867,7.0367808 138.850909,6.52636924 139.375,6.11621094 C139.899091,5.70605264 140.553056,5.50097656 141.336914,5.50097656 C142.111658,5.50097656 142.748533,5.67870916 143.247559,6.03417969 C143.746585,6.38965021 144.03483,6.87043968 144.112305,7.4765625 L142.950195,7.4765625 C142.872721,7.18033706 142.694988,6.94336026 142.416992,6.765625 C142.138996,6.58788974 141.776695,6.49902344 141.330078,6.49902344 C140.892576,6.49902344 140.523439,6.60042216 140.222656,6.80322266 C139.921873,7.00602315 139.771484,7.27148273 139.771484,7.59960938 C139.771484,7.85026167 139.876301,8.05875568 140.085938,8.22509766 C140.295574,8.39143963 140.61686,8.52701771 141.049805,8.63183594 L142.18457,8.90527344 C142.877282,9.07389407 143.39339,9.31656743 143.73291,9.63330078 C144.07243,9.95003414 144.242188,10.3727187 144.242188,10.9013672 C144.242188,11.5621778 143.959638,12.0987935 143.394531,12.5112305 C142.829424,12.9236674 142.127608,13.1298828 141.289062,13.1298828 C140.468746,13.1298828 139.796552,12.947593 139.272461,12.5830078 C138.74837,12.2184227 138.454427,11.7307973 138.390625,11.1201172 L139.600586,11.1201172 C139.700847,11.4300146 139.896808,11.6772452 140.188477,11.8618164 C140.480145,12.0463876 140.860675,12.1386719 141.330078,12.1386719 C141.826825,12.1386719 142.234699,12.0315766 142.553711,11.8173828 C142.872723,11.603189 143.032227,11.3274756 143.032227,10.9902344 C143.032227,10.7350248 142.935385,10.5219735 142.741699,10.3510742 C142.548013,10.1801749 142.25521,10.0468755 141.863281,9.95117188 L140.598633,9.64355469 C139.910478,9.47493405 139.403485,9.23340001 139.077637,8.91894531 C138.751789,8.60449062 138.588867,8.18066673 138.588867,7.64746094 Z" id="Causes" fill="#575757" opacity="0.699999988"></path>
                        <path d="M272.891602,11.8925781 L272.891602,13 L266.780273,13 L266.780273,3.13574219 L272.891602,3.13574219 L272.891602,4.24316406 L268.010742,4.24316406 L268.010742,7.40820312 L272.638672,7.40820312 L272.638672,8.50195312 L268.010742,8.50195312 L268.010742,11.8925781 L272.891602,11.8925781 Z M270.512695,2.23339844 L269.118164,2.23339844 L271.237305,0.196289062 L272.782227,0.196289062 L270.512695,2.23339844 Z M280.834961,5.63085938 L280.558105,6.37597656 C280.373534,6.87272384 280.146811,7.48681275 279.87793,8.21826172 C279.609048,8.94971069 279.339031,9.68114869 279.067871,10.4125977 C278.796711,11.1440466 278.568849,11.7581355 278.384277,12.2548828 L278.107422,13 L276.904297,13 L274.176758,5.63085938 L275.43457,5.63085938 L277.451172,11.7011719 L277.560547,11.7011719 L279.577148,5.63085938 L280.834961,5.63085938 Z M284.922852,6.54003906 C284.334958,6.54003906 283.85189,6.73827927 283.473633,7.13476562 C283.095376,7.53125198 282.883464,8.05533528 282.837891,8.70703125 L286.898438,8.70703125 C286.884766,8.05533528 286.697918,7.53125198 286.337891,7.13476562 C285.977863,6.73827927 285.506188,6.54003906 284.922852,6.54003906 Z M286.864258,11.0927734 L288.040039,11.0927734 C287.862304,11.7262401 287.502281,12.2241193 286.959961,12.5864258 C286.417641,12.9487323 285.743168,13.1298828 284.936523,13.1298828 C283.915685,13.1298828 283.106774,12.78695 282.509766,12.1010742 C281.912757,11.4151984 281.614258,10.4889381 281.614258,9.32226562 C281.614258,8.16470775 281.915036,7.23844749 282.516602,6.54345703 C283.118167,5.84846658 283.9248,5.50097656 284.936523,5.50097656 C285.930018,5.50097656 286.711586,5.83251622 287.28125,6.49560547 C287.850914,7.15869472 288.135742,8.06216876 288.135742,9.20605469 L288.135742,9.65722656 L282.837891,9.65722656 L282.837891,9.71191406 C282.869792,10.4410844 283.076007,11.0198546 283.456543,11.4482422 C283.837079,11.8766297 284.339515,12.0908203 284.963867,12.0908203 C285.437828,12.0908203 285.834308,12.0053719 286.15332,11.8344727 C286.472332,11.6635734 286.709309,11.4163428 286.864258,11.0927734 Z M285.483398,4.36621094 L284.157227,4.36621094 L285.879883,2.05566406 L287.383789,2.05566406 L285.483398,4.36621094 Z M289.831055,13 L289.831055,5.63085938 L290.952148,5.63085938 L290.952148,6.79296875 L291.061523,6.79296875 C291.248373,6.38736776 291.522947,6.07063916 291.885254,5.84277344 C292.24756,5.61490771 292.71126,5.50097656 293.276367,5.50097656 C294.105798,5.50097656 294.742674,5.73681405 295.187012,6.20849609 C295.63135,6.68017814 295.853516,7.35351125 295.853516,8.22851562 L295.853516,13 L294.677734,13 L294.677734,8.515625 C294.677734,7.85025709 294.53532,7.35807451 294.250488,7.0390625 C293.965656,6.72005049 293.5293,6.56054688 292.941406,6.56054688 C292.353513,6.56054688 291.884116,6.74511534 291.533203,7.11425781 C291.18229,7.48340028 291.006836,7.99153322 291.006836,8.63867188 L291.006836,13 L289.831055,13 Z M300.789062,6.54003906 C300.201169,6.54003906 299.718101,6.73827927 299.339844,7.13476562 C298.961587,7.53125198 298.749675,8.05533528 298.704102,8.70703125 L302.764648,8.70703125 C302.750976,8.05533528 302.564129,7.53125198 302.204102,7.13476562 C301.844074,6.73827927 301.372399,6.54003906 300.789062,6.54003906 Z M302.730469,11.0927734 L303.90625,11.0927734 C303.728515,11.7262401 303.368492,12.2241193 302.826172,12.5864258 C302.283851,12.9487323 301.609379,13.1298828 300.802734,13.1298828 C299.781896,13.1298828 298.972985,12.78695 298.375977,12.1010742 C297.778968,11.4151984 297.480469,10.4889381 297.480469,9.32226562 C297.480469,8.16470775 297.781247,7.23844749 298.382812,6.54345703 C298.984378,5.84846658 299.791011,5.50097656 300.802734,5.50097656 C301.796229,5.50097656 302.577797,5.83251622 303.147461,6.49560547 C303.717125,7.15869472 304.001953,8.06216876 304.001953,9.20605469 L304.001953,9.65722656 L298.704102,9.65722656 L298.704102,9.71191406 C298.736003,10.4410844 298.942218,11.0198546 299.322754,11.4482422 C299.70329,11.8766297 300.205726,12.0908203 300.830078,12.0908203 C301.304039,12.0908203 301.700519,12.0053719 302.019531,11.8344727 C302.338543,11.6635734 302.57552,11.4163428 302.730469,11.0927734 Z M305.697266,13 L305.697266,5.63085938 L306.818359,5.63085938 L306.818359,6.79296875 L306.927734,6.79296875 C307.096355,6.38281045 307.358397,6.06494253 307.713867,5.83935547 C308.069338,5.6137684 308.493162,5.50097656 308.985352,5.50097656 C309.486656,5.50097656 309.909341,5.62060427 310.253418,5.85986328 C310.597495,6.09912229 310.85384,6.41015434 311.022461,6.79296875 L311.131836,6.79296875 C311.332358,6.40103971 311.630857,6.08772904 312.027344,5.85302734 C312.42383,5.61832565 312.877276,5.50097656 313.387695,5.50097656 C314.139652,5.50097656 314.718422,5.70833126 315.124023,6.12304688 C315.529624,6.53776249 315.732422,7.13248311 315.732422,7.90722656 L315.732422,13 L314.556641,13 L314.556641,8.18066406 C314.556641,7.63834364 314.427898,7.23274874 314.17041,6.96386719 C313.912922,6.69498563 313.524417,6.56054688 313.004883,6.56054688 C312.494464,6.56054688 312.082033,6.72688636 311.767578,7.05957031 C311.453123,7.39225427 311.295898,7.79329192 311.295898,8.26269531 L311.295898,13 L310.120117,13 L310.120117,7.99609375 C310.120117,7.55859156 309.979982,7.20996224 309.699707,6.95019531 C309.419432,6.69042839 309.046877,6.56054688 308.582031,6.56054688 C308.098956,6.56054688 307.693361,6.74283672 307.365234,7.10742188 C307.037108,7.47200703 306.873047,7.9140599 306.873047,8.43359375 L306.873047,13 L305.697266,13 Z M320.667969,6.54003906 C320.080075,6.54003906 319.597007,6.73827927 319.21875,7.13476562 C318.840493,7.53125198 318.628581,8.05533528 318.583008,8.70703125 L322.643555,8.70703125 C322.629883,8.05533528 322.443036,7.53125198 322.083008,7.13476562 C321.72298,6.73827927 321.251305,6.54003906 320.667969,6.54003906 Z M322.609375,11.0927734 L323.785156,11.0927734 C323.607421,11.7262401 323.247399,12.2241193 322.705078,12.5864258 C322.162758,12.9487323 321.488285,13.1298828 320.681641,13.1298828 C319.660802,13.1298828 318.851891,12.78695 318.254883,12.1010742 C317.657875,11.4151984 317.359375,10.4889381 317.359375,9.32226562 C317.359375,8.16470775 317.660153,7.23844749 318.261719,6.54345703 C318.863284,5.84846658 319.669917,5.50097656 320.681641,5.50097656 C321.675135,5.50097656 322.456703,5.83251622 323.026367,6.49560547 C323.596031,7.15869472 323.880859,8.06216876 323.880859,9.20605469 L323.880859,9.65722656 L318.583008,9.65722656 L318.583008,9.71191406 C318.614909,10.4410844 318.821124,11.0198546 319.20166,11.4482422 C319.582196,11.8766297 320.084632,12.0908203 320.708984,12.0908203 C321.182945,12.0908203 321.579425,12.0053719 321.898438,11.8344727 C322.21745,11.6635734 322.454426,11.4163428 322.609375,11.0927734 Z M325.576172,13 L325.576172,5.63085938 L326.697266,5.63085938 L326.697266,6.79296875 L326.806641,6.79296875 C326.993491,6.38736776 327.268065,6.07063916 327.630371,5.84277344 C327.992678,5.61490771 328.456377,5.50097656 329.021484,5.50097656 C329.850916,5.50097656 330.487791,5.73681405 330.932129,6.20849609 C331.376467,6.68017814 331.598633,7.35351125 331.598633,8.22851562 L331.598633,13 L330.422852,13 L330.422852,8.515625 C330.422852,7.85025709 330.280438,7.35807451 329.995605,7.0390625 C329.710773,6.72005049 329.274417,6.56054688 328.686523,6.56054688 C328.09863,6.56054688 327.629234,6.74511534 327.27832,7.11425781 C326.927407,7.48340028 326.751953,7.99153322 326.751953,8.63867188 L326.751953,13 L325.576172,13 Z M334.086914,3.72363281 L335.262695,3.72363281 L335.262695,5.63085938 L336.90332,5.63085938 L336.90332,6.61523438 L335.262695,6.61523438 L335.262695,10.7851562 C335.262695,11.2181011 335.349283,11.5325511 335.522461,11.7285156 C335.695639,11.9244801 335.973631,12.0224609 336.356445,12.0224609 C336.461264,12.0224609 336.551269,12.0201823 336.626465,12.015625 C336.701661,12.0110677 336.793945,12.0042318 336.90332,11.9951172 L336.90332,12.9863281 C336.789387,13.0091147 336.675456,13.0262044 336.561523,13.0375977 C336.447591,13.0489909 336.331381,13.0546875 336.212891,13.0546875 C335.456376,13.0546875 334.912925,12.9020198 334.58252,12.5966797 C334.252114,12.2913396 334.086914,11.7877639 334.086914,11.0859375 L334.086914,6.61523438 L332.897461,6.61523438 L332.897461,5.63085938 L334.086914,5.63085938 L334.086914,3.72363281 Z M338.222656,7.64746094 C338.222656,7.0367808 338.484698,6.52636924 339.008789,6.11621094 C339.53288,5.70605264 340.186845,5.50097656 340.970703,5.50097656 C341.745447,5.50097656 342.382322,5.67870916 342.881348,6.03417969 C343.380374,6.38965021 343.668619,6.87043968 343.746094,7.4765625 L342.583984,7.4765625 C342.50651,7.18033706 342.328777,6.94336026 342.050781,6.765625 C341.772785,6.58788974 341.410484,6.49902344 340.963867,6.49902344 C340.526365,6.49902344 340.157228,6.60042216 339.856445,6.80322266 C339.555663,7.00602315 339.405273,7.27148273 339.405273,7.59960938 C339.405273,7.85026167 339.51009,8.05875568 339.719727,8.22509766 C339.929363,8.39143963 340.250649,8.52701771 340.683594,8.63183594 L341.818359,8.90527344 C342.511071,9.07389407 343.027179,9.31656743 343.366699,9.63330078 C343.706219,9.95003414 343.875977,10.3727187 343.875977,10.9013672 C343.875977,11.5621778 343.593427,12.0987935 343.02832,12.5112305 C342.463213,12.9236674 341.761397,13.1298828 340.922852,13.1298828 C340.102535,13.1298828 339.430341,12.947593 338.90625,12.5830078 C338.382159,12.2184227 338.088216,11.7307973 338.024414,11.1201172 L339.234375,11.1201172 C339.334636,11.4300146 339.530597,11.6772452 339.822266,11.8618164 C340.113934,12.0463876 340.494464,12.1386719 340.963867,12.1386719 C341.460614,12.1386719 341.868488,12.0315766 342.1875,11.8173828 C342.506512,11.603189 342.666016,11.3274756 342.666016,10.9902344 C342.666016,10.7350248 342.569174,10.5219735 342.375488,10.3510742 C342.181802,10.1801749 341.888999,10.0468755 341.49707,9.95117188 L340.232422,9.64355469 C339.544267,9.47493405 339.037274,9.23340001 338.711426,8.91894531 C338.385578,8.60449062 338.222656,8.18066673 338.222656,7.64746094 Z" id="Événements" fill="#575757" opacity="0.699999988"></path>
                        <path d="M502.213867,13.2324219 C500.874017,13.2324219 499.813318,12.7698614 499.031738,11.8447266 C498.250159,10.9195917 497.859375,9.66179181 497.859375,8.07128906 C497.859375,6.476229 498.24902,5.21615046 499.02832,4.29101562 C499.807621,3.36588079 500.867181,2.90332031 502.207031,2.90332031 C503.246099,2.90332031 504.134762,3.19954131 504.873047,3.79199219 C505.611332,4.38444307 506.053385,5.15689628 506.199219,6.109375 L504.948242,6.109375 C504.784179,5.47135098 504.456057,4.96663597 503.963867,4.59521484 C503.471677,4.22379372 502.886071,4.03808594 502.207031,4.03808594 C501.25911,4.03808594 500.508304,4.400387 499.95459,5.125 C499.400876,5.849613 499.124023,6.83169953 499.124023,8.07128906 C499.124023,9.30632128 499.402015,10.2861292 499.958008,11.0107422 C500.514,11.7353552 501.265946,12.0976562 502.213867,12.0976562 C502.902022,12.0976562 503.491046,11.9324561 503.980957,11.6020508 C504.470868,11.2716455 504.793293,10.8216174 504.948242,10.2519531 L506.199219,10.2519531 C506.035155,11.1588587 505.591963,11.8823215 504.869629,12.4223633 C504.147295,12.962405 503.26205,13.2324219 502.213867,13.2324219 Z M510.991211,13.1298828 C509.943029,13.1298828 509.114749,12.7892287 508.506348,12.1079102 C507.897946,11.4265916 507.59375,10.4957741 507.59375,9.31542969 C507.59375,8.13052793 507.897946,7.1985711 508.506348,6.51953125 C509.114749,5.8404914 509.943029,5.50097656 510.991211,5.50097656 C512.039393,5.50097656 512.867673,5.8404914 513.476074,6.51953125 C514.084476,7.1985711 514.388672,8.13052793 514.388672,9.31542969 C514.388672,10.4957741 514.084476,11.4265916 513.476074,12.1079102 C512.867673,12.7892287 512.039393,13.1298828 510.991211,13.1298828 Z M510.991211,12.0703125 C511.68848,12.0703125 512.226235,11.8287785 512.604492,11.3457031 C512.982749,10.8626278 513.171875,10.1858767 513.171875,9.31542969 C513.171875,8.44042531 512.982749,7.76253496 512.604492,7.28173828 C512.226235,6.80094161 511.68848,6.56054688 510.991211,6.56054688 C510.293942,6.56054688 509.756187,6.80094161 509.37793,7.28173828 C508.999673,7.76253496 508.810547,8.44042531 508.810547,9.31542969 C508.810547,10.1858767 508.999673,10.8626278 509.37793,11.3457031 C509.756187,11.8287785 510.293942,12.0703125 510.991211,12.0703125 Z M516.083984,13 L516.083984,5.63085938 L517.205078,5.63085938 L517.205078,6.79296875 L517.314453,6.79296875 C517.501303,6.38736776 517.775877,6.07063916 518.138184,5.84277344 C518.50049,5.61490771 518.96419,5.50097656 519.529297,5.50097656 C520.358728,5.50097656 520.995603,5.73681405 521.439941,6.20849609 C521.88428,6.68017814 522.106445,7.35351125 522.106445,8.22851562 L522.106445,13 L520.930664,13 L520.930664,8.515625 C520.930664,7.85025709 520.78825,7.35807451 520.503418,7.0390625 C520.218586,6.72005049 519.78223,6.56054688 519.194336,6.56054688 C518.606442,6.56054688 518.137046,6.74511534 517.786133,7.11425781 C517.43522,7.48340028 517.259766,7.99153322 517.259766,8.63867188 L517.259766,13 L516.083984,13 Z M523.931641,7.64746094 C523.931641,7.0367808 524.193682,6.52636924 524.717773,6.11621094 C525.241865,5.70605264 525.895829,5.50097656 526.679688,5.50097656 C527.454431,5.50097656 528.091306,5.67870916 528.590332,6.03417969 C529.089358,6.38965021 529.377604,6.87043968 529.455078,7.4765625 L528.292969,7.4765625 C528.215494,7.18033706 528.037762,6.94336026 527.759766,6.765625 C527.481769,6.58788974 527.119468,6.49902344 526.672852,6.49902344 C526.235349,6.49902344 525.866212,6.60042216 525.56543,6.80322266 C525.264647,7.00602315 525.114258,7.27148273 525.114258,7.59960938 C525.114258,7.85026167 525.219074,8.05875568 525.428711,8.22509766 C525.638347,8.39143963 525.959633,8.52701771 526.392578,8.63183594 L527.527344,8.90527344 C528.220056,9.07389407 528.736164,9.31656743 529.075684,9.63330078 C529.415204,9.95003414 529.584961,10.3727187 529.584961,10.9013672 C529.584961,11.5621778 529.302412,12.0987935 528.737305,12.5112305 C528.172198,12.9236674 527.470382,13.1298828 526.631836,13.1298828 C525.811519,13.1298828 525.139326,12.947593 524.615234,12.5830078 C524.091143,12.2184227 523.797201,11.7307973 523.733398,11.1201172 L524.943359,11.1201172 C525.04362,11.4300146 525.239582,11.6772452 525.53125,11.8618164 C525.822918,12.0463876 526.203448,12.1386719 526.672852,12.1386719 C527.169599,12.1386719 527.577472,12.0315766 527.896484,11.8173828 C528.215496,11.603189 528.375,11.3274756 528.375,10.9902344 C528.375,10.7350248 528.278159,10.5219735 528.084473,10.3510742 C527.890787,10.1801749 527.597984,10.0468755 527.206055,9.95117188 L525.941406,9.64355469 C525.253252,9.47493405 524.746258,9.23340001 524.42041,8.91894531 C524.094562,8.60449062 523.931641,8.18066673 523.931641,7.64746094 Z M534.219727,6.54003906 C533.631833,6.54003906 533.148765,6.73827927 532.770508,7.13476562 C532.392251,7.53125198 532.180339,8.05533528 532.134766,8.70703125 L536.195312,8.70703125 C536.181641,8.05533528 535.994793,7.53125198 535.634766,7.13476562 C535.274738,6.73827927 534.803063,6.54003906 534.219727,6.54003906 Z M536.161133,11.0927734 L537.336914,11.0927734 C537.159179,11.7262401 536.799156,12.2241193 536.256836,12.5864258 C535.714516,12.9487323 535.040043,13.1298828 534.233398,13.1298828 C533.21256,13.1298828 532.403649,12.78695 531.806641,12.1010742 C531.209632,11.4151984 530.911133,10.4889381 530.911133,9.32226562 C530.911133,8.16470775 531.211911,7.23844749 531.813477,6.54345703 C532.415042,5.84846658 533.221675,5.50097656 534.233398,5.50097656 C535.226893,5.50097656 536.008461,5.83251622 536.578125,6.49560547 C537.147789,7.15869472 537.432617,8.06216876 537.432617,9.20605469 L537.432617,9.65722656 L532.134766,9.65722656 L532.134766,9.71191406 C532.166667,10.4410844 532.372882,11.0198546 532.753418,11.4482422 C533.133954,11.8766297 533.63639,12.0908203 534.260742,12.0908203 C534.734703,12.0908203 535.131183,12.0053719 535.450195,11.8344727 C535.769207,11.6635734 536.006184,11.4163428 536.161133,11.0927734 Z M534.780273,4.36621094 L533.454102,4.36621094 L535.176758,2.05566406 L536.680664,2.05566406 L534.780273,4.36621094 Z M541.841797,5.50097656 C542.343101,5.50097656 542.806801,5.62402221 543.23291,5.87011719 C543.659019,6.11621217 543.981444,6.44661251 544.200195,6.86132812 L544.30957,6.86132812 L544.30957,5.63085938 L545.444336,5.63085938 L545.444336,15.4609375 L544.254883,15.4609375 L544.254883,11.8925781 L544.145508,11.8925781 C543.908527,12.2936218 543.595217,12.6000966 543.205566,12.8120117 C542.815916,13.0239268 542.361331,13.1298828 541.841797,13.1298828 C540.90299,13.1298828 540.154462,12.7846714 539.596191,12.0942383 C539.03792,11.4038051 538.758789,10.4775449 538.758789,9.31542969 C538.758789,8.15787182 539.03906,7.23275086 539.599609,6.54003906 C540.160159,5.84732727 540.907547,5.50097656 541.841797,5.50097656 Z M542.108398,12.0703125 C542.782881,12.0703125 543.314939,11.8230819 543.70459,11.3286133 C544.09424,10.8341447 544.289062,10.1630902 544.289062,9.31542969 C544.289062,8.47232651 544.093101,7.80241134 543.701172,7.30566406 C543.309243,6.80891679 542.780602,6.56054688 542.115234,6.56054688 C541.445309,6.56054688 540.921226,6.80435954 540.542969,7.29199219 C540.164712,7.77962483 539.975586,8.45409726 539.975586,9.31542969 C539.975586,10.1813194 540.163572,10.8569312 540.539551,11.3422852 C540.915529,11.8276391 541.438473,12.0703125 542.108398,12.0703125 Z M553.469727,5.63085938 L553.469727,13 L552.348633,13 L552.348633,11.8447266 L552.239258,11.8447266 C552.056965,12.2548849 551.772137,12.5716135 551.384766,12.7949219 C550.997394,13.0182303 550.521162,13.1298828 549.956055,13.1298828 C549.131181,13.1298828 548.505699,12.892906 548.07959,12.4189453 C547.653481,11.9449846 547.44043,11.2727908 547.44043,10.4023438 L547.44043,5.63085938 L548.616211,5.63085938 L548.616211,10.1152344 C548.616211,10.776045 548.747232,11.2648096 549.009277,11.581543 C549.271323,11.8982763 549.696286,12.0566406 550.28418,12.0566406 C550.935876,12.0566406 551.433755,11.8743508 551.777832,11.5097656 C552.121909,11.1451805 552.293945,10.6393262 552.293945,9.9921875 L552.293945,5.63085938 L553.469727,5.63085938 Z M558.473633,6.54003906 C557.885739,6.54003906 557.402671,6.73827927 557.024414,7.13476562 C556.646157,7.53125198 556.434245,8.05533528 556.388672,8.70703125 L560.449219,8.70703125 C560.435547,8.05533528 560.2487,7.53125198 559.888672,7.13476562 C559.528644,6.73827927 559.056969,6.54003906 558.473633,6.54003906 Z M560.415039,11.0927734 L561.59082,11.0927734 C561.413085,11.7262401 561.053063,12.2241193 560.510742,12.5864258 C559.968422,12.9487323 559.293949,13.1298828 558.487305,13.1298828 C557.466466,13.1298828 556.657555,12.78695 556.060547,12.1010742 C555.463539,11.4151984 555.165039,10.4889381 555.165039,9.32226562 C555.165039,8.16470775 555.465817,7.23844749 556.067383,6.54345703 C556.668948,5.84846658 557.475581,5.50097656 558.487305,5.50097656 C559.480799,5.50097656 560.262367,5.83251622 560.832031,6.49560547 C561.401696,7.15869472 561.686523,8.06216876 561.686523,9.20605469 L561.686523,9.65722656 L556.388672,9.65722656 L556.388672,9.71191406 C556.420573,10.4410844 556.626788,11.0198546 557.007324,11.4482422 C557.38786,11.8766297 557.890296,12.0908203 558.514648,12.0908203 C558.988609,12.0908203 559.38509,12.0053719 559.704102,11.8344727 C560.023114,11.6635734 560.26009,11.4163428 560.415039,11.0927734 Z M563.381836,13 L563.381836,5.63085938 L564.50293,5.63085938 L564.50293,6.79296875 L564.612305,6.79296875 C564.799155,6.38736776 565.073729,6.07063916 565.436035,5.84277344 C565.798342,5.61490771 566.262041,5.50097656 566.827148,5.50097656 C567.65658,5.50097656 568.293455,5.73681405 568.737793,6.20849609 C569.182131,6.68017814 569.404297,7.35351125 569.404297,8.22851562 L569.404297,13 L568.228516,13 L568.228516,8.515625 C568.228516,7.85025709 568.086102,7.35807451 567.80127,7.0390625 C567.516437,6.72005049 567.080081,6.56054688 566.492188,6.56054688 C565.904294,6.56054688 565.434898,6.74511534 565.083984,7.11425781 C564.733071,7.48340028 564.557617,7.99153322 564.557617,8.63867188 L564.557617,13 L563.381836,13 Z M577.498047,7.88671875 L576.308594,7.88671875 C576.21289,7.52213359 576.004396,7.20996224 575.683105,6.95019531 C575.361815,6.69042839 574.936852,6.56054688 574.408203,6.56054688 C573.747393,6.56054688 573.22217,6.80663816 572.83252,7.29882812 C572.442869,7.79101809 572.248047,8.45409739 572.248047,9.28808594 C572.248047,10.1403037 572.444008,10.8170548 572.835938,11.3183594 C573.227867,11.819664 573.75195,12.0703125 574.408203,12.0703125 C574.90495,12.0703125 575.31852,11.95866 575.648926,11.7353516 C575.979331,11.5120432 576.199218,11.1930359 576.308594,10.7783203 L577.498047,10.7783203 C577.393229,11.4528029 577.074221,12.0133441 576.541016,12.4599609 C576.00781,12.9065778 575.299158,13.1298828 574.415039,13.1298828 C573.385086,13.1298828 572.563642,12.7823928 571.950684,12.0874023 C571.337725,11.3924119 571.03125,10.4593158 571.03125,9.28808594 C571.03125,8.1396427 571.336585,7.22135761 571.947266,6.53320312 C572.557946,5.84504864 573.37825,5.50097656 574.408203,5.50097656 C575.305994,5.50097656 576.020342,5.73453542 576.55127,6.20166016 C577.082197,6.66878489 577.397786,7.23046547 577.498047,7.88671875 Z M582.023438,6.54003906 C581.435544,6.54003906 580.952476,6.73827927 580.574219,7.13476562 C580.195962,7.53125198 579.98405,8.05533528 579.938477,8.70703125 L583.999023,8.70703125 C583.985351,8.05533528 583.798504,7.53125198 583.438477,7.13476562 C583.078449,6.73827927 582.606774,6.54003906 582.023438,6.54003906 Z M583.964844,11.0927734 L585.140625,11.0927734 C584.96289,11.7262401 584.602867,12.2241193 584.060547,12.5864258 C583.518226,12.9487323 582.843754,13.1298828 582.037109,13.1298828 C581.016271,13.1298828 580.20736,12.78695 579.610352,12.1010742 C579.013343,11.4151984 578.714844,10.4889381 578.714844,9.32226562 C578.714844,8.16470775 579.015622,7.23844749 579.617188,6.54345703 C580.218753,5.84846658 581.025386,5.50097656 582.037109,5.50097656 C583.030604,5.50097656 583.812172,5.83251622 584.381836,6.49560547 C584.9515,7.15869472 585.236328,8.06216876 585.236328,9.20605469 L585.236328,9.65722656 L579.938477,9.65722656 L579.938477,9.71191406 C579.970378,10.4410844 580.176593,11.0198546 580.557129,11.4482422 C580.937665,11.8766297 581.440101,12.0908203 582.064453,12.0908203 C582.538414,12.0908203 582.934894,12.0053719 583.253906,11.8344727 C583.572918,11.6635734 583.809895,11.4163428 583.964844,11.0927734 Z M586.760742,7.64746094 C586.760742,7.0367808 587.022784,6.52636924 587.546875,6.11621094 C588.070966,5.70605264 588.724931,5.50097656 589.508789,5.50097656 C590.283533,5.50097656 590.920408,5.67870916 591.419434,6.03417969 C591.91846,6.38965021 592.206705,6.87043968 592.28418,7.4765625 L591.12207,7.4765625 C591.044596,7.18033706 590.866863,6.94336026 590.588867,6.765625 C590.310871,6.58788974 589.94857,6.49902344 589.501953,6.49902344 C589.064451,6.49902344 588.695314,6.60042216 588.394531,6.80322266 C588.093748,7.00602315 587.943359,7.27148273 587.943359,7.59960938 C587.943359,7.85026167 588.048176,8.05875568 588.257812,8.22509766 C588.467449,8.39143963 588.788735,8.52701771 589.22168,8.63183594 L590.356445,8.90527344 C591.049157,9.07389407 591.565265,9.31656743 591.904785,9.63330078 C592.244305,9.95003414 592.414062,10.3727187 592.414062,10.9013672 C592.414062,11.5621778 592.131513,12.0987935 591.566406,12.5112305 C591.001299,12.9236674 590.299483,13.1298828 589.460938,13.1298828 C588.640621,13.1298828 587.968427,12.947593 587.444336,12.5830078 C586.920245,12.2184227 586.626302,11.7307973 586.5625,11.1201172 L587.772461,11.1201172 C587.872722,11.4300146 588.068683,11.6772452 588.360352,11.8618164 C588.65202,12.0463876 589.03255,12.1386719 589.501953,12.1386719 C589.9987,12.1386719 590.406574,12.0315766 590.725586,11.8173828 C591.044598,11.603189 591.204102,11.3274756 591.204102,10.9902344 C591.204102,10.7350248 591.10726,10.5219735 590.913574,10.3510742 C590.719888,10.1801749 590.427085,10.0468755 590.035156,9.95117188 L588.770508,9.64355469 C588.082353,9.47493405 587.57536,9.23340001 587.249512,8.91894531 C586.923664,8.60449062 586.760742,8.18066673 586.760742,7.64746094 Z" id="Conséquences" fill="#575757" opacity="0.699999988"></path>
                        <g id="Group-7" transform="translate(257.000000, 81.000000)">
                            <g id="Group-2">
                                <g id="Group">
                                    <g id="Rectangle-2">
                                        <use fill="#FFFFFF" fill-rule="evenodd" xlink:href="#path-1"></use>
                                        <rect stroke-opacity="0.6" stroke="#000066" stroke-width="1" x="0.5" y="0.5" width="95" height="31"></rect>
                                    </g>
                                    <text id="CC-externe" font-family="Montserrat-Light, Montserrat" font-size="14" font-weight="300" line-spacing="16" fill="#000066">
                                        <tspan x="8" y="22">CC externe</tspan>
                                    </text>
                                </g>
                                <g id="Group-4" transform="translate(0.000000, 64.000000)">
                                    <g id="Rectangle-2">
                                        <use fill="#FFFFFF" fill-rule="evenodd" xlink:href="#path-2"></use>
                                        <rect stroke-opacity="0.6" stroke="#000066" stroke-width="1" x="0.5" y="0.5" width="95" height="31"></rect>
                                    </g>
                                    <text id="CC-interne" font-family="Montserrat-Light, Montserrat" font-size="14" font-weight="300" line-spacing="16" fill="#000066">
                                        <tspan x="8" y="22">CC interne</tspan>
                                    </text>
                                </g>
                                <g id="Group-5" transform="translate(0.000000, 128.000000)">
                                    <g id="Rectangle-2">
                                        <use fill="#FFFFFF" fill-rule="evenodd" xlink:href="#path-3"></use>
                                        <rect stroke-opacity="0.6" stroke="#000066" stroke-width="1" x="0.5" y="0.5" width="95" height="32"></rect>
                                    </g>
                                    <text id="Surchauffe" font-family="Montserrat-Light, Montserrat" font-size="14" font-weight="300" line-spacing="16" fill="#000066">
                                        <tspan x="8" y="22">Surchauffe</tspan>
                                    </text>
                                </g>
                                <g id="Group-6" transform="translate(0.000000, 192.000000)">
                                    <g id="Rectangle-2">
                                        <use fill="#FFFFFF" fill-rule="evenodd" xlink:href="#path-4"></use>
                                        <rect stroke-opacity="0.6" stroke="#000066" stroke-width="1" x="0.5" y="0.5" width="95" height="31"></rect>
                                    </g>
                                    <text id="Surcharge" font-family="Montserrat-Light, Montserrat" font-size="14" font-weight="300" line-spacing="16" fill="#000066">
                                        <tspan x="8.926" y="22">Surcharge</tspan>
                                    </text>
                                </g>
                                <g id="Rectangle-2">
                                    <use fill="#FFFFFF" fill-rule="evenodd" xlink:href="#path-5"></use>
                                    <rect stroke-opacity="0.6" stroke="#000066" stroke-width="1" x="0.5" y="256.5" width="95" height="31"></rect>
                                </g>
                                <g id="Group-8" transform="translate(0.000000, 320.000000)">
                                    <g id="Rectangle-2">
                                        <use fill="#FFFFFF" fill-rule="evenodd" xlink:href="#path-6"></use>
                                        <rect stroke-opacity="0.6" stroke="#000066" stroke-width="1" x="0.5" y="0.5" width="95" height="31"></rect>
                                    </g>
                                    <text id="Fuite" font-family="Montserrat-Light, Montserrat" font-size="14" font-weight="300" line-spacing="16" fill="#000066">
                                        <tspan x="26.979" y="22">Fuite</tspan>
                                    </text>
                                </g>
                                <text id="Sur-décharge" font-family="Montserrat-Light, Montserrat" font-size="14" font-weight="300" line-spacing="16" letter-spacing="-0.600000024" fill="#000066">
                                    <tspan x="4" y="278">Sur-décharg</tspan>
                                    <tspan x="82.3519997" y="278">e</tspan>
                                </text>
                            </g>
                        </g>
                        <g id="Group-10" transform="translate(577.000000, 149.000000)">
                            <g id="Group-15">
                                <g id="Rectangle-6">
                                    <use fill="#FFFFFF" fill-rule="evenodd" xlink:href="#path-7"></use>
                                    <rect stroke-opacity="0.6" stroke="#000066" stroke-width="1" x="0.5" y="0.5" width="151" height="95"></rect>
                                </g>
                                <text id="Emballement-thermiqu" font-family="Montserrat-Light, Montserrat" font-size="14" font-weight="300" line-spacing="16" fill="#000066">
                                    <tspan x="24.718" y="22">Emballement </tspan>
                                    <tspan x="32.159" y="38">thermique :</tspan>
                                    <tspan x="37.808" y="54">ouverture, </tspan>
                                    <tspan x="31.165" y="70">éclatement, </tspan>
                                    <tspan x="45.893" y="86">feu, gaz</tspan>
                                </text>
                            </g>
                        </g>
                        <g id="Group-11" transform="translate(577.000000, 73.000000)">
                            <g id="Rectangle-6">
                                <use fill="#FFFFFF" fill-rule="evenodd" xlink:href="#path-8"></use>
                                <rect stroke-opacity="0.6" stroke="#000066" stroke-width="1" x="0.5" y="0.5" width="151" height="47"></rect>
                            </g>
                            <text id="Risque-électrique-(c" font-family="Montserrat-Light, Montserrat" font-size="14" font-weight="300" line-spacing="16" fill="#000066">
                                <tspan x="11.985" y="22">Risque électrique</tspan>
                                <tspan x="25.831" y="38">(courant CC…)</tspan>
                            </text>
                        </g>
                        <g id="Group-9" transform="translate(577.000000, 393.000000)">
                            <g id="Group-17">
                                <g id="Rectangle-6">
                                    <use fill="#FFFFFF" fill-rule="evenodd" xlink:href="#path-9"></use>
                                    <rect stroke-opacity="0.6" stroke="#000066" stroke-width="1" x="0.5" y="0.5" width="151" height="47"></rect>
                                </g>
                                <text id="Risque-chimique-(HF…" font-family="Montserrat-Light, Montserrat" font-size="14" font-weight="300" line-spacing="16" fill="#000066">
                                    <tspan x="13.686" y="22">Risque chimique </tspan>
                                    <tspan x="54.328" y="38">(HF…)</tspan>
                                </text>
                            </g>
                        </g>
                        <g id="Group-16" transform="translate(385.000000, 329.000000)">
                            <g id="Rectangle-6">
                                <use fill="#FFFFFF" fill-rule="evenodd" xlink:href="#path-10"></use>
                                <rect stroke-opacity="0.6" stroke="#000066" stroke-width="1" x="0.5" y="0.5" width="159" height="47"></rect>
                            </g>
                            <text id="--Réduction-électrol" font-family="Montserrat-Light, Montserrat" font-size="14" font-weight="300" line-spacing="16" letter-spacing="-0.899999976" fill="#000066">
                                <tspan x="8" y="22">- Réduction électrolyte</tspan>
                                <tspan x="8" y="38">- </tspan>
                                <tspan x="15.118" y="38" letter-spacing="-0.8">Corosion collecteur Cu</tspan>
                            </text>
                        </g>
                        <g id="Group-14" transform="translate(385.000000, 173.000000)">
                            <g id="Rectangle-6">
                                <use fill="#FFFFFF" fill-rule="evenodd" xlink:href="#path-11"></use>
                                <rect stroke-opacity="0.6" stroke="#000066" stroke-width="1" x="0.5" y="0.5" width="159" height="47"></rect>
                            </g>
                            <text id="--Augmentation-T°C--" font-family="Montserrat-Light, Montserrat" font-size="14" font-weight="300" line-spacing="16" fill="#000066">
                                <tspan x="8" y="22">- Augmentation T°C</tspan>
                                <tspan x="8" y="38">- Génération gaz</tspan>
                            </text>
                        </g>
                        <g id="Group-3" transform="translate(1.000000, 145.000000)">
                            <g id="Rectangle-7">
                                <use fill="#FFFFFF" fill-rule="evenodd" xlink:href="#path-12"></use>
                                <rect stroke-opacity="0.6" stroke="#000066" stroke-width="1" x="0.5" y="0.5" width="224" height="223"></rect>
                            </g>
                            <text id="--Charges-basse-T°C," font-family="Montserrat-Light, Montserrat" font-size="14" font-weight="300" line-spacing="20" fill="#000066">
                                <tspan x="8" y="22">- Charges basse T°C, haut SOC </tspan>
                                <tspan x="8" y="42">ou charge trop rapide </tspan>
                                <tspan x="8" y="62" letter-spacing="-1.2">(dendrite)</tspan>
                                <tspan x="63.648" y="62"></tspan>
                                <tspan x="8" y="82" line-spacing="24">- Problème séparateur</tspan>
                                <tspan x="8" y="106" line-spacing="24">- Déformation mécanique</tspan>
                                <tspan x="8" y="130" line-spacing="24">- Pièce conductrice en CC</tspan>
                                <tspan x="8" y="154" line-spacing="24">- Défaut BMS</tspan>
                                <tspan x="8" y="178" line-spacing="24">- Défaut capteur V/I</tspan>
                                <tspan x="8" y="202" line-spacing="24">- Incendie</tspan>
                                <tspan x="8" y="226" line-spacing="24">- Problème de reroidissement</tspan>
                            </text>
                        </g>
                    </g>
                </g>
            </g>
        </g>
    </g>
</svg>