<?xml version="1.0" encoding="UTF-8"?>
<svg width="32px" height="14px" viewBox="0 0 32 14" version="1.1" xmlns="http://www.w3.org/2000/svg" xmlns:xlink="http://www.w3.org/1999/xlink">
    <!-- Generator: Sketch 49.2 (51160) - http://www.bohemiancoding.com/sketch -->
    <title>icone/32x32/SSE/Protection</title>
    <desc>Created with Sketch.</desc>
    <defs></defs>
    <g id="Maquettes" stroke="none" stroke-width="1" fill="none" fill-rule="evenodd" stroke-linecap="round" stroke-linejoin="round">
        <g id="Desktop---SSE" transform="translate(-732.000000, -8105.000000)" stroke="#000066">
            <g id="Materiel" transform="translate(719.000000, 6984.000000)">
                <g id="icone/32x32/Blue/SSE/Protection" transform="translate(13.000000, 1112.000000)">
                    <g id="Protection" transform="translate(1.000000, 10.000000)">
                        <path d="M29.6209756,0.693731707 C29.6209756,0.512268293 29.4746341,0.365926829 29.2931707,0.365926829 L0.693658537,0.365926829 C0.512926829,0.365926829 0.365853659,0.512268293 0.365853659,0.693731707 L0.365853659,6.1127561 C0.365853659,9.3732439 3.0095122,12.0169024 6.27,12.0169024 L8.1102439,12.0169024 C8.29682927,12.0169024 8.48707317,12.0169024 8.67073171,11.990561 C8.7797561,11.990561 8.88731707,11.960561 8.99853659,11.9444634 L9.20634146,11.9151951 C11.5931707,11.463 13.4546341,9.58397561 13.8826829,7.19202439 C13.9192683,7.00763415 13.9456098,6.82397561 13.962439,6.64031707 C13.9865854,6.38934146 14.1036585,6.15519512 14.2902439,5.98470732 C14.6890244,5.6327561 15.287561,5.6327561 15.6870732,5.98470732 C15.8297561,6.1127561 15.9336585,6.27885366 15.9856098,6.4632439 L15.9856098,6.54592683 C15.9943902,6.5825122 16.0009756,6.61982927 16.0053659,6.65714634 C16.2826829,9.69446341 18.8436585,12.0117805 21.8926829,11.9876341 L23.73,11.9876341 C26.9904878,11.9876341 29.6341463,9.34397561 29.6341463,6.0827561 L29.6209756,0.693731707 Z" id="Stroke-1"></path>
                        <path d="M25.0685122,3.67558537 L20.5253415,8.21509756" id="Stroke-3"></path>
                        <path d="M26.0624634,5.69919512 L24.2749024,7.48382927" id="Stroke-5"></path>
                        <path d="M8.74660976,3.67558537 L4.20343902,8.21509756" id="Stroke-7"></path>
                        <path d="M9.73412195,5.69919512 L7.94656098,7.4867561" id="Stroke-9"></path>
                        <path d="M0.365560976,1.76304878 L29.6309268,1.76304878" id="Stroke-11"></path>
                    </g>
                </g>
            </g>
        </g>
    </g>
</svg>