<?xml version="1.0" encoding="UTF-8"?>
<svg width="26px" height="32px" viewBox="0 0 26 32" version="1.1" xmlns="http://www.w3.org/2000/svg" xmlns:xlink="http://www.w3.org/1999/xlink">
    <!-- Generator: Sketch 49.1 (51147) - http://www.bohemiancoding.com/sketch -->
    <title>Ico_Securité</title>
    <desc>Created with Sketch.</desc>
    <defs></defs>
    <g id="Maquettes" stroke="none" stroke-width="1" fill="none" fill-rule="evenodd" stroke-linecap="round" stroke-linejoin="round">
        <g id="Desktop---Home" transform="translate(-543.000000, -1513.000000)" stroke="#FFFFFF">
            <g id="Securité" transform="translate(0.000000, 1480.000000)">
                <g id="Ico_Securité" transform="translate(544.000000, 34.000000)">
                    <path d="M23.670644,3.80162557 L12.1474827,0.0232502583 C12.0525779,-0.00775008611 11.9474221,-0.00775008611 11.8525173,0.0232502583 L0.329356003,3.80162557 C0.133594202,3.86595962 0,4.05129501 0,4.25863065 L0,12.6767242 C0,18.5217891 2.89806829,23.9805165 7.72267078,27.2225525 L11.735457,29.9192491 C11.8958362,30.026917 12.1041638,30.026917 12.264543,29.9192491 L16.2773292,27.2225525 C21.1019317,23.9805165 24,18.5217891 24,12.6767242 L24,4.25863065 C23.9996693,4.05096168 23.8664058,3.86562628 23.670644,3.80162557 Z" id="Stroke-1"></path>
                    <polyline id="Stroke-3" points="12.4285714 8 9 14 13 14 9.85714286 20"></polyline>
                </g>
            </g>
        </g>
    </g>
</svg>