<?xml version="1.0" encoding="UTF-8" standalone="no"?>
<svg width="408px" height="72px" viewBox="0 0 408 72" version="1.1" xmlns="http://www.w3.org/2000/svg" xmlns:xlink="http://www.w3.org/1999/xlink">
    <!-- Generator: Sketch 49.2 (51160) - http://www.bohemiancoding.com/sketch -->
    <title>Logo_Mta_Zodiac</title>
    <desc>Created with Sketch.</desc>
    <defs>
        <radialGradient cx="99.9808131%" cy="100.092355%" fx="99.9808131%" fy="100.092355%" r="140.93175%" id="radialGradient-1">
            <stop stop-color="#6EBCE0" offset="0%"></stop>
            <stop stop-color="#006895" offset="51.62%"></stop>
            <stop stop-color="#00487B" offset="80.67%"></stop>
            <stop stop-color="#00386D" offset="100%"></stop>
        </radialGradient>
        <linearGradient x1="0.286585366%" y1="49.7821429%" x2="100%" y2="49.7821429%" id="linearGradient-2">
            <stop stop-color="#878787" offset="0%"></stop>
            <stop stop-color="#BDBCBC" offset="61.75%"></stop>
            <stop stop-color="#CAC9C9" offset="72.04%"></stop>
            <stop stop-color="#EDEDED" offset="91.21%"></stop>
            <stop stop-color="#FFFFFF" offset="100%"></stop>
        </linearGradient>
        <linearGradient x1="1.64761905%" y1="49.9740741%" x2="100.838095%" y2="49.9740741%" id="linearGradient-3">
            <stop stop-color="#706F6F" offset="0%"></stop>
            <stop stop-color="#767575" offset="13.28%"></stop>
            <stop stop-color="#878787" offset="31.36%"></stop>
            <stop stop-color="#A4A3A3" offset="52.2%"></stop>
            <stop stop-color="#CBCBCB" offset="75.11%"></stop>
            <stop stop-color="#FEFEFE" offset="99.45%"></stop>
            <stop stop-color="#FFFFFF" offset="100%"></stop>
        </linearGradient>
        <linearGradient x1="-0.497053333%" y1="50.3867052%" x2="100.180204%" y2="50.3867052%" id="linearGradient-4">
            <stop stop-color="#FFFFFF" offset="0%"></stop>
            <stop stop-color="#FFFFFF" offset="32.24%"></stop>
            <stop stop-color="#F9F9F9" offset="40.43%"></stop>
            <stop stop-color="#E8E8E8" offset="51.42%"></stop>
            <stop stop-color="#CCCCCC" offset="64%"></stop>
            <stop stop-color="#A5A5A5" offset="77.76%"></stop>
            <stop stop-color="#747473" offset="92.32%"></stop>
            <stop stop-color="#575756" offset="100%"></stop>
        </linearGradient>
        <linearGradient x1="1.03134328%" y1="50.4812834%" x2="98.9049751%" y2="50.4812834%" id="linearGradient-5">
            <stop stop-color="#FFFFFF" offset="0%"></stop>
            <stop stop-color="#F6F6F6" offset="6.520617%"></stop>
            <stop stop-color="#BEBEBD" offset="48.21%"></stop>
            <stop stop-color="#A8A8A7" offset="68.31%"></stop>
            <stop stop-color="#9D9D9C" offset="77.01%"></stop>
            <stop stop-color="#818080" offset="92.18%"></stop>
            <stop stop-color="#706F6F" offset="100%"></stop>
        </linearGradient>
        <linearGradient x1="16.01133%" y1="35.9475936%" x2="108.07931%" y2="88.9080214%" id="linearGradient-6">
            <stop stop-color="#575756" offset="0%"></stop>
            <stop stop-color="#797978" offset="11.83%"></stop>
            <stop stop-color="#989898" offset="25.21%"></stop>
            <stop stop-color="#ABABAB" offset="36.5%"></stop>
            <stop stop-color="#B2B2B2" offset="44.26%"></stop>
            <stop stop-color="#B3B3B3" offset="44.73%"></stop>
            <stop stop-color="#DCDCDC" offset="59.73%"></stop>
            <stop stop-color="#F6F6F6" offset="71.56%"></stop>
            <stop stop-color="#FFFFFF" offset="78.69%"></stop>
            <stop stop-color="#FFFFFF" offset="100%"></stop>
        </linearGradient>
        <polygon id="path-7" points="0.517418611 0.0632195122 3.55390843 0.0632195122 3.55390843 4.35693659 0.517418611 4.35693659"></polygon>
        <polygon id="path-9" points="0.544169831 0.389311518 3.58102041 0.389311518 3.58102041 4.68292683 0.544169831 4.68292683"></polygon>
        <polygon id="path-11" points="0 0.410742392 51.7956656 0.410742392 51.7956656 43.9774829 0 43.9774829"></polygon>
    </defs>
    <g id="Symbols" stroke="none" stroke-width="1" fill="none" fill-rule="evenodd">
        <g id="Desktop/Organisme/Menu" transform="translate(-320.000000, -64.000000)">
            <g id="Logo_Mta_Zodiac" transform="translate(320.000000, 64.000000)">
                <g id="Logo/Zodiac_Color" transform="translate(288.000000, 23.000000)">
                    <g id="Zodiac_Logo_Decomposer">
                        <g id="Texte" transform="translate(0.000000, 7.000000)" fill="#575756" fill-rule="nonzero">
                            <path d="M26.32,22.24 L24.4,20 C25.28,19.68 26.8,19.2 26.8,17.44 C26.8,16.72 26.4,15.84 25.52,15.28 C24.96,14.88 24,14.48 22.08,14.48 C21.12,14.48 20.72,14.48 19.2,14.48 C19.44,14.88 19.6,15.2 19.6,15.92 L19.6,22.08 C19.6,23.44 19.52,23.52 19.2,24.32 L22,24.32 C21.68,23.68 21.68,23.36 21.68,22.08 L21.68,19.76 L21.84,19.76 L25.36,24.32 L28.32,24.32 C27.84,23.92 27.2,23.36 26.32,22.24 M22.4,19.36 C22.16,19.36 21.76,19.36 21.76,19.36 L21.76,15.84 C23.12,15.76 24.56,16.08 24.56,17.6 C24.56,18.56 23.6,19.28 22.4,19.36" id="Shape"></path>
                            <path d="M42.4,16.88 C42.4,16.24 43.12,15.68 44.16,15.68 C45.2,15.68 46,16.16 46.56,16.48 L46.64,14.72 C46.08,14.64 45.12,14.4 44.08,14.4 C41.92,14.4 40.4,15.68 40.4,17.36 C40.4,20.24 45.2,20.08 45.2,21.92 C45.2,22.8 44.32,23.36 43.2,23.36 C41.84,23.36 41.2,22.88 40.4,22.24 L40.32,24.16 C40.8,24.24 42,24.64 43.44,24.64 C45.68,24.64 47.28,23.28 47.28,21.52 C47.28,18.72 42.4,18.64 42.4,16.88" id="Shape"></path>
                            <path d="M51.36,20.4 C53.84,20.4 55.44,19.28 55.44,17.52 C55.44,15.76 53.68,14.64 51.12,14.64 L47.92,14.64 C48.16,15.04 48.32,15.28 48.32,16.4 L48.32,22.64 C48.32,23.84 48.16,24 47.92,24.4 L50.8,24.4 C50.56,24 50.4,23.76 50.4,22.64 L50.4,20.4 C50.72,20.32 51.04,20.4 51.36,20.4 Z M50.48,15.76 L50.96,15.76 C52.48,15.76 53.28,16.64 53.28,17.6 C53.28,18.64 52.48,19.52 50.88,19.52 L50.48,19.52 L50.48,15.76 Z" id="Shape"></path>
                            <path d="M78.24,23.12 C78,23.12 77.2,23.12 76.96,23.12 L76.96,20.08 C77.28,20.08 77.84,20.08 78.16,20.08 C78.8,20.08 79.6,20.16 80.24,20.32 L80.48,18.8 L76.96,18.8 L76.96,15.92 C77.2,15.92 77.84,15.92 78.08,15.92 C79.6,15.92 80.08,16 80.8,16.24 L81.04,14.64 L74.4,14.64 C74.64,15.04 74.8,15.28 74.8,16.4 L74.8,22.64 C74.8,23.84 74.64,24 74.4,24.4 L80.88,24.4 L81.44,22.72 C80.72,22.88 80.08,23.12 78.24,23.12" id="Shape"></path>
                            <path d="M14,23.04 L14,20 C14.32,20 14.88,20 15.2,20 C15.84,20 16.64,20.08 17.28,20.24 L17.52,18.72 L14,18.72 L14,15.84 C14.24,15.84 14.88,15.84 15.12,15.84 C16.64,15.84 17.04,15.92 17.84,16.16 L18.08,14.56 L11.44,14.56 C11.68,14.96 11.84,15.2 11.84,16.32 L11.84,22.56 C11.84,23.76 11.68,23.92 11.44,24.32 L17.92,24.32 L18.48,22.64 C17.68,22.88 17.04,23.04 15.2,23.04 C15.04,23.12 14.24,23.12 14,23.04" id="Shape"></path>
                            <path d="M33.04,10.8 L33.84,8.88 C32.24,9.44 31.28,9.52 28.4,9.52 L33.84,0.96 L26.64,0.96 L25.84,2.88 C26.8,2.4 27.52,2.24 29.44,2.24 C29.84,2.24 30.4,2.24 30.64,2.24 L25.28,10.72 L33.04,10.72 L33.04,10.8 Z" id="Shape"></path>
                            <path d="M45.92,5.92 C45.92,3.04 43.28,0.64 39.92,0.64 C36.4,0.64 33.76,3.04 33.76,5.92 C33.76,8.8 36.48,11.12 39.76,11.12 C43.28,11.12 45.92,8.8 45.92,5.92 M40,9.84 C37.68,9.84 36.24,8.24 36.24,5.84 C36.24,3.6 37.52,2 39.76,2 C42,2 43.52,3.76 43.52,6 C43.52,8.08 42.08,9.84 40,9.84" id="Shape"></path>
                            <path d="M46.96,10.8 L49.76,10.8 C50.8,10.8 52.64,10.8 53.68,10.4 C56.08,9.52 57.04,7.76 57.04,6 C57.04,4.64 56.32,2.88 54.72,1.92 C53.76,1.36 52.64,1.04 50.32,1.04 L46.96,1.04 C47.2,1.44 47.36,1.68 47.36,2.8 L47.36,9.04 C47.36,10.16 47.2,10.4 46.96,10.8 Z M49.44,2.24 L50.72,2.24 C53.68,2.24 54.72,4.24 54.72,5.92 C54.72,8.32 53.2,9.52 50.48,9.52 C50.16,9.52 49.84,9.52 49.44,9.52 L49.44,2.24 Z" id="Shape"></path>
                            <path d="M58.08,10.8 L60.96,10.8 C60.72,10.4 60.56,10.16 60.56,9.04 L60.56,2.8 C60.56,1.6 60.72,1.44 60.96,1.04 L58.08,1.04 C58.32,1.44 58.48,1.68 58.48,2.8 L58.48,9.04 C58.48,10.16 58.32,10.4 58.08,10.8" id="Shape"></path>
                            <path d="M77.44,10.96 C79.52,10.96 80.8,10.32 81.44,10.32 L81.44,8.48 C80.72,9.04 79.84,9.68 77.84,9.68 C75.44,9.68 73.92,8.16 73.92,5.84 C73.92,3.52 75.44,2.08 78,2.08 C79.84,2.08 80.56,2.64 81.04,2.88 L81.2,1.04 C81.2,1.04 81.04,1.04 80.96,1.04 C80.56,1.04 79.68,0.8 78.16,0.8 C74.24,0.8 71.6,2.96 71.6,6.08 C71.52,8.64 73.92,10.96 77.44,10.96" id="Shape"></path>
                            <path d="M63.84,10.32 C63.84,10 64,9.6 64.16,9.28 L64.72,7.92 L68.56,7.92 L69.12,9.28 C69.28,9.6 69.36,9.92 69.36,10.24 C69.36,10.48 69.28,10.64 69.12,10.8 L72.16,10.8 C71.76,10.24 71.52,9.76 71.2,8.96 C71.2,8.96 68.56,2.72 68.32,2.16 C68.08,1.6 67.92,1.12 67.92,0.96 L65.28,0.96 L65.6,1.36 L62.4,8.96 C62.08,9.76 61.68,10.4 61.44,10.8 L63.92,10.8 C63.84,10.64 63.84,10.56 63.84,10.32 Z M66.64,2.88 L68.08,6.56 L65.2,6.56 L66.64,2.88 Z" id="Shape"></path>
                            <path d="M66.16,19.44 C66.16,17.12 67.68,15.68 70.24,15.68 C72.08,15.68 72.8,16.24 73.28,16.48 L73.44,14.64 C73.44,14.64 73.28,14.64 73.2,14.64 C72.8,14.64 71.92,14.4 70.4,14.4 C66.48,14.4 63.84,16.56 63.84,19.68 C63.84,22.32 66.24,24.64 69.76,24.64 C71.84,24.64 73.12,24 73.76,24 L73.76,22.16 C73.04,22.72 72.16,23.36 70.16,23.36 C67.68,23.28 66.16,21.76 66.16,19.44" id="Shape"></path>
                            <path d="M60.56,15.76 C60.32,15.2 60.16,14.72 60.16,14.56 L57.6,14.56 L57.92,14.96 L54.72,22.56 C54.4,23.36 54,24 53.76,24.4 L56.24,24.4 C56.16,24.24 56.16,24.16 56.16,23.92 C56.16,23.6 56.32,23.2 56.48,22.88 L57.04,21.52 L60.8,21.52 L61.36,22.88 C61.52,23.2 61.6,23.52 61.6,23.84 C61.6,24.08 61.52,24.24 61.36,24.4 L64.32,24.4 C63.92,23.84 63.68,23.36 63.36,22.56 C63.44,22.56 60.8,16.32 60.56,15.76 Z M58.88,16.48 L60.32,20.16 L57.44,20.16 L58.88,16.48 Z" id="Shape"></path>
                            <path d="M7.12,15.76 C6.88,15.2 6.72,14.72 6.72,14.56 L4.08,14.56 L4.4,14.96 L1.2,22.56 C0.88,23.36 0.48,24 0.24,24.4 L2.72,24.4 C2.64,24.24 2.64,24.16 2.64,23.92 C2.64,23.6 2.8,23.2 2.96,22.88 L3.52,21.52 L7.36,21.52 L7.92,22.88 C8.08,23.2 8.16,23.52 8.16,23.84 C8.16,24.08 8.08,24.24 7.92,24.4 L10.96,24.4 C10.56,23.84 10.32,23.36 10,22.56 C10,22.56 7.36,16.32 7.12,15.76 Z M5.52,16.48 L6.96,20.16 L4.08,20.16 L5.52,16.48 Z" id="Shape"></path>
                            <path d="M33.76,14.16 C30.24,14.16 27.6,16.56 27.6,19.52 C27.6,22.48 30.32,24.8 33.6,24.8 C37.04,24.8 39.76,22.4 39.76,19.52 C39.76,16.56 37.04,14.16 33.76,14.16 M33.76,23.44 C31.44,23.44 30,21.84 30,19.36 C30,17.04 31.28,15.44 33.52,15.44 C35.76,15.44 37.28,17.2 37.28,19.44 C37.28,21.76 35.84,23.44 33.76,23.44" id="Shape"></path>
                        </g>
                        <rect id="Rectangle-path" fill="url(#radialGradient-1)" fill-rule="nonzero" x="88" y="0" width="32" height="32"></rect>
                        <g id="Z" transform="translate(96.000000, 8.000000)" fill-rule="nonzero">
                            <path d="M17.44,0.08 C19.92,0.32 22.08,1.04 24,2.24 L24,0.8 C22.16,0.16 20.32,0 19.04,0 C18.08,0 17.44,0.08 17.44,0.08 Z" id="Shape" fill="url(#linearGradient-2)"></path>
                            <path d="M1.84,24 L3.36,24 C1.84,22.24 0.64,20.08 1.42108547e-14,17.52 C0.08,17.52 0.16,20.88 1.84,24 Z" id="Shape" fill="url(#linearGradient-3)"></path>
                            <path d="M13.6,5.92 C13.92,5.28 14.88,3.6 14.56,2.48 C14.4,2 13.92,1.44 12.96,1.28 C12.64,1.36 12.32,1.44 12.24,1.44 C11.76,1.6 11.12,1.84 10.32,2.24 C8.88,2.88 6.96,4 5.2,5.68 C5.04,5.84 4.88,6 4.72,6.16 C3.76,7.12 3.04,8.16 2.4,9.12 C2.08,9.68 1.76,10.24 1.52,10.8 C0.88,12.4 0.8,13.76 1.44,14.48 C1.6,14.64 1.76,14.8 1.92,14.8 C2.32,15.04 2.8,15.12 3.12,15.12 L3.68,14.88 C5.52,14.16 7.84,12.88 9.92,10.8 C11.52,9.2 12.8,7.44 13.6,5.92 Z" id="Shape" fill="url(#linearGradient-4)"></path>
                            <path d="M10,11.04 C12.32,8.72 13.84,6.08 14.64,4.4 C15.68,2.24 16.16,0.16 16.16,0.16 L1.28,0.16 C0.48,0.16 0.08,0.72 0.08,1.52 L0.08,8.4 C2.48,2.16 7.44,1.28 11.84,1.2 C11.92,1.2 12,1.2 12.08,1.2 C12.32,1.2 12.56,1.2 12.72,1.2 C12.8,1.2 12.8,1.2 12.88,1.2 C13.84,1.36 14.4,1.92 14.48,2.4 C14.8,3.6 13.92,5.28 13.52,5.84 C12.64,7.36 11.44,9.12 9.76,10.8 C7.68,12.88 5.36,14.08 3.52,14.88 L2.96,15.12 C3.12,15.12 3.36,15.12 3.44,15.12 L3.52,15.12 C5.44,14.48 7.92,13.12 10,11.04 Z" id="Shape" fill="url(#linearGradient-5)"></path>
                            <path d="M16.24,14.88 L16.24,8 C13.84,14.16 8.72,15.36 3.68,15.2 C3.68,15.2 3.68,15.2 3.6,15.2 C3.52,15.2 3.28,15.2 3.12,15.2 C2.8,15.12 2.32,15.04 1.92,14.88 C1.76,14.8 1.6,14.64 1.44,14.56 C0.72,13.84 0.8,12.48 1.52,10.88 C1.76,10.32 2.08,9.76 2.4,9.2 C2.96,8.24 3.76,7.2 4.72,6.24 C4.88,6.08 5.04,5.92 5.2,5.76 C7.04,4.08 8.88,2.96 10.32,2.32 C11.12,1.92 11.76,1.68 12.24,1.52 C12.32,1.52 12.56,1.44 12.96,1.36 C12.88,1.36 12.88,1.36 12.8,1.36 C12.64,1.36 12.48,1.36 12.24,1.36 C12.16,1.36 12.16,1.36 12.08,1.36 C10.8,1.76 8.08,2.88 5.44,5.2 C5.12,5.52 4.8,5.76 4.48,6.08 C2.64,8 1.52,10 0.88,11.68 C0.32,13.04 0.16,14.24 0.08,14.96 C0.08,15.28 8.52651283e-14,15.52 8.52651283e-14,15.6 C8.52651283e-14,15.84 8.52651283e-14,16.08 8.52651283e-14,16.32 L15.04,16.32 C15.68,16.32 16.24,15.68 16.24,14.88 Z" id="Shape" fill="url(#linearGradient-6)"></path>
                        </g>
                    </g>
                </g>
                <path d="M280,24 L264,56" id="/" stroke="#CCCCCC" stroke-linecap="round"></path>
                <g id="Logo/Mta_Color">
                    <path d="M55.1841366,67.4356098 C47.3402341,67.4356098 43.2321366,58.1042927 39.9979902,49.3571707 C39.9517463,49.2319024 40.0155512,49.0925854 40.1408195,49.0463415 C40.2660878,48.9989268 40.4054049,49.0633171 40.4516488,49.1891707 C44.3940878,59.8510244 48.4085268,66.9520976 55.1841366,66.9520976 C64.1244293,66.9520976 69.0175024,55.4660488 70.7068683,50.5273171 C70.7496,50.4002927 70.887161,50.3323902 71.0136,50.3762927 C71.1406244,50.4201951 71.2079415,50.5577561 71.1646244,50.6841951 C69.4418927,55.7206829 64.4370146,67.4356098 55.1841366,67.4356098" id="Fill-1" fill="#000066" opacity="0.5"></path>
                    <path d="M36.327278,38.5874927 C36.2289366,38.5874927 36.1364488,38.5266146 36.1001561,38.4288585 C32.1302049,27.6557854 28.0941073,20.4803707 21.2991805,20.4803707 C18.0509854,20.4803707 11.6763512,22.5373463 5.48025366,36.312761 C5.42522927,36.4351024 5.2806439,36.4883707 5.1606439,36.4339317 C5.03830244,36.3794927 4.98444878,36.236078 5.0388878,36.1137366 C7.74620488,30.0944195 13.4593756,19.9968585 21.2991805,19.9968585 C29.1647415,19.9968585 33.2980098,29.424761 36.5544,38.2614439 C36.6006439,38.3867122 36.5362537,38.5260293 36.4109854,38.5722732 C36.3834732,38.5822244 36.3547902,38.5874927 36.327278,38.5874927" id="Fill-3" fill="#000066" opacity="0.5"></path>
                    <path d="M103.620741,49.3847415 C104.302693,48.8116683 104.643376,48.0138146 104.643376,46.9911805 C104.643376,46.299278 104.405132,45.7730341 103.9304,45.411278 C103.455668,45.0501073 102.773717,44.8692293 101.885717,44.8692293 L98.9893268,44.8692293 L97.9204488,50.2446439 L100.80162,50.2446439 C101.999278,50.2446439 102.93879,49.9578146 103.620741,49.3847415 M104.766888,44.636839 C105.38679,45.1431805 105.696449,45.8555707 105.696449,46.7745951 C105.696449,47.6731317 105.492156,48.4551805 105.084156,49.1213268 C104.676741,49.7868878 104.093132,50.3037659 103.333912,50.6702049 C102.575278,51.0366439 101.679083,51.2204488 100.646498,51.2204488 L97.7190829,51.2204488 L97.0219122,54.7209366 L95.9530341,54.7209366 L98.1218146,43.8782049 L102.118107,43.8782049 C103.264254,43.8782049 104.147571,44.1310829 104.766888,44.636839" id="Fill-5" fill="#000066"></path>
                    <polygon id="Fill-7" fill="#000066" points="109.723883 43.2275707 107.431005 54.7212293 106.393737 54.7212293 108.686029 43.2275707"></polygon>
                    <path d="M116.043727,53.412 C116.570556,53.0865366 116.986166,52.6451707 117.290556,52.0873171 C117.594946,51.5300488 117.747727,50.9206829 117.747727,50.2598049 C117.747727,49.4338537 117.494849,48.7630244 116.988507,48.2461463 C116.482751,47.7298537 115.821873,47.4717073 115.005873,47.4717073 C114.37602,47.4717073 113.797678,47.634439 113.270849,47.9599024 C112.744605,48.2847805 112.326068,48.7261463 112.01641,49.284 C111.706751,49.8412683 111.551629,50.4506341 111.551629,51.1115122 C111.551629,51.9380488 111.807434,52.6094634 112.318459,53.1257561 C112.829483,53.6420488 113.497971,53.9001951 114.324507,53.9001951 C114.943824,53.9001951 115.517483,53.7374634 116.043727,53.412 M112.179141,54.3263415 C111.647044,54.0213659 111.234361,53.5952195 110.939922,53.0479024 C110.645483,52.5005854 110.497971,51.876 110.497971,51.1741463 C110.497971,50.3165854 110.694068,49.5345366 111.086849,48.8268293 C111.479044,48.1197073 112.011141,47.562439 112.682556,47.154439 C113.353385,46.7458537 114.0968,46.5421463 114.9128,46.5421463 C115.7288,46.5421463 116.417776,46.7435122 116.980898,47.1462439 C117.54402,47.5489756 117.918068,48.1068293 118.104215,48.8192195 L118.55319,46.6041951 L119.591044,46.6041951 L117.980117,54.720878 L116.942263,54.720878 L117.267727,53.1561951 C116.874946,53.6730732 116.394946,54.0734634 115.827141,54.3567805 C115.258751,54.6412683 114.649971,54.7829268 113.999044,54.7829268 C113.317678,54.7829268 112.710654,54.6307317 112.179141,54.3263415" id="Fill-9" fill="#000066"></path>
                    <path d="M122.797444,52.3510244 C122.756468,52.547122 122.73598,52.7385366 122.73598,52.9240976 C122.73598,53.2343415 122.805639,53.459122 122.944371,53.5978537 C123.084273,53.7371707 123.297932,53.8068293 123.587688,53.8068293 C124.052468,53.7863415 124.532468,53.6318049 125.028273,53.3420488 L125.244859,54.179122 C124.625541,54.5508293 124.000371,54.7469268 123.370517,54.7674146 C122.844273,54.7674146 122.431005,54.6280976 122.131298,54.3494634 C121.832176,54.0708293 121.682322,53.6622439 121.682322,53.1254634 C121.682322,52.9399024 121.708078,52.7069268 121.75959,52.428878 L122.720176,47.6417561 L121.543005,47.6417561 L121.698127,46.8210732 L122.874712,46.8210732 L123.293249,44.7453659 L124.331102,44.7453659 L123.912566,46.8210732 L126.530322,46.8210732 L126.375785,47.6417561 L123.742224,47.6417561 L122.797444,52.3510244 Z" id="Fill-11" fill="#000066"></path>
                    <path d="M129.156156,48.1997268 C128.541522,48.7054829 128.1464,49.3716293 127.971376,50.1975805 L133.888254,50.1975805 C133.89879,49.3406049 133.679278,48.6668488 133.229717,48.1763122 C132.780741,47.6857756 132.147961,47.4405073 131.332546,47.4405073 C130.496059,47.4405073 129.770205,47.6939707 129.156156,48.1997268 Z M127.878302,51.0188488 L127.878302,51.065678 C127.878302,51.9226537 128.133522,52.6092878 128.644546,53.1255805 C129.156156,53.6418732 129.839863,53.9000195 130.697424,53.9000195 C131.192644,53.9000195 131.662693,53.8174829 132.106985,53.6518244 C132.550693,53.4873366 132.943473,53.249678 133.284156,52.9400195 L133.779961,53.6213854 C133.377229,53.9925073 132.90718,54.2769951 132.3704,54.4730927 C131.833034,54.6697756 131.259961,54.7675317 130.65118,54.7675317 C129.897229,54.7675317 129.233424,54.6124098 128.660351,54.3027512 C128.087278,53.9925073 127.642985,53.5593366 127.328059,53.0014829 C127.013132,52.4442146 126.855668,51.7985561 126.855668,51.065678 C126.855668,50.2186537 127.051766,49.4524098 127.444546,48.7651902 C127.836741,48.0785561 128.375863,47.5388488 129.063083,47.1460683 C129.749717,46.7538732 130.50601,46.5577756 131.332546,46.5577756 C132.406107,46.5577756 133.255473,46.8779707 133.880644,47.518361 C134.505229,48.1587512 134.817815,49.0157268 134.817815,50.0898732 C134.817815,50.3480195 134.792059,50.657678 134.740546,51.0188488 L127.878302,51.0188488 Z" id="Fill-13" fill="#000066"></path>
                    <path d="M139.867649,44.5132098 C139.495941,44.8228683 139.258283,45.2308683 139.155259,45.7366244 L138.938673,46.820722 L141.308234,46.820722 L141.153698,47.6419902 L138.768332,47.6419902 L137.358185,54.7208195 L136.320332,54.7208195 L137.745698,47.6419902 L136.692039,47.6419902 L136.847161,46.820722 L137.90082,46.820722 L138.117405,45.7518439 C138.230966,45.2150634 138.4376,44.7479415 138.736722,44.350478 C139.036429,43.9530146 139.38999,43.648039 139.79799,43.4361366 C140.20599,43.2248195 140.626868,43.1188683 141.060624,43.1188683 C141.617893,43.1188683 142.087941,43.2429659 142.470185,43.4905756 L142.113698,44.3276488 C141.793502,44.1409171 141.458088,44.0484293 141.106868,44.0484293 C140.652624,44.0484293 140.239356,44.2035512 139.867649,44.5132098" id="Fill-15" fill="#000066"></path>
                    <path d="M143.585366,47.928761 C143.069073,48.2337366 142.663415,48.6540293 142.369561,49.1908098 C142.075122,49.7281756 141.92761,50.3316878 141.92761,51.0036878 C141.92761,51.8501268 142.178146,52.536761 142.67922,53.0635902 C143.180293,53.5904195 143.843512,53.8538341 144.670049,53.8538341 C145.299317,53.8538341 145.87239,53.7039805 146.389268,53.4042732 C146.905561,53.1051512 147.310634,52.6866146 147.605073,52.1498341 C147.899512,51.6130537 148.046439,51.0036878 148.046439,50.3217366 C148.046439,49.4752976 147.795902,48.7886634 147.295415,48.2612488 C146.794341,47.7350049 146.131122,47.4715902 145.305171,47.4715902 C144.674732,47.4715902 144.101659,47.6237854 143.585366,47.928761 M147.341659,47.0302244 C147.904195,47.3451512 148.340878,47.7812488 148.650537,48.3391024 C148.96078,48.8963707 149.115317,49.5373463 149.115317,50.2596878 C149.115317,51.1172488 148.916293,51.8864195 148.518829,52.5677854 C148.121366,53.2497366 147.57639,53.7841756 146.885073,54.1711024 C146.193171,54.5580293 145.423415,54.7517854 144.57639,54.7517854 C143.843512,54.7517854 143.197854,54.5949073 142.640585,54.2799805 C142.082732,53.9650537 141.648976,53.5277854 141.339317,52.9705171 C141.029659,52.4126634 140.874537,51.7728585 140.874537,51.0499317 C140.874537,50.1929561 141.072976,49.4237854 141.471024,48.7418341 C141.868488,48.0604683 142.410537,47.5260293 143.097756,47.1385171 C143.783805,46.7510049 144.550634,46.5578341 145.397659,46.5578341 C146.131122,46.5578341 146.779122,46.7152976 147.341659,47.0302244" id="Fill-17" fill="#000066"></path>
                    <path d="M154.226849,47.045561 C154.784702,46.7306341 155.409288,46.5684878 156.10119,46.5579512 L155.977093,47.5647805 C155.130068,47.5542439 154.38958,47.8047805 153.754459,48.3158049 C153.119337,48.8268293 152.672702,49.5163902 152.414556,50.3839024 L151.547044,54.720878 L150.50919,54.720878 L152.120117,46.6041951 L153.173776,46.6041951 L152.801483,48.4164878 C153.194263,47.8176585 153.668995,47.3604878 154.226849,47.045561" id="Fill-19" fill="#000066"></path>
                    <path d="M170.212663,47.2005073 C170.708468,47.6395317 170.956663,48.2565073 170.956663,49.0514341 C170.956663,49.3101659 170.925054,49.5888 170.86359,49.8885073 L169.8872,54.7212878 L168.849346,54.7212878 L169.778907,49.9962146 C169.820468,49.7901659 169.840956,49.5735805 169.840956,49.3458732 C169.840956,48.7569951 169.660078,48.3004098 169.298907,47.9749463 C168.937151,47.6500683 168.431395,47.4867512 167.781054,47.4867512 C166.965054,47.4978732 166.260273,47.7501659 165.666127,48.2459707 C165.072566,48.7417756 164.672176,49.407922 164.466127,50.2444098 L163.58281,54.7212878 L162.529737,54.7212878 L163.474517,49.9962146 C163.515493,49.7901659 163.536566,49.5735805 163.536566,49.3458732 C163.536566,48.7569951 163.355688,48.3004098 162.993932,47.9749463 C162.632761,47.6500683 162.127005,47.4867512 161.476078,47.4867512 C160.629054,47.4978732 159.901444,47.7659707 159.292078,48.2922146 C158.682712,48.8196293 158.290517,49.5267512 158.114907,50.4147512 L157.262615,54.7212878 L156.224761,54.7212878 L157.820468,46.6040195 L158.874127,46.6040195 L158.532859,48.3086049 C158.894615,47.7402146 159.3512,47.3070439 159.904371,47.0067512 C160.456371,46.7076293 161.083883,46.5530927 161.785737,46.5419707 C162.612273,46.5419707 163.267883,46.7251902 163.753151,47.0916293 C164.23842,47.4586537 164.522322,47.9778732 164.605444,48.6492878 C165.420859,47.2648976 166.588078,46.5630439 168.105932,46.5419707 C169.015005,46.5419707 169.716859,46.7614829 170.212663,47.2005073" id="Fill-21" fill="#000066"></path>
                    <path d="M174.960156,48.1997268 C174.345522,48.7054829 173.9504,49.3716293 173.775376,50.1975805 L179.692254,50.1975805 C179.70279,49.3406049 179.483278,48.6668488 179.033717,48.1763122 C178.584741,47.6857756 177.951961,47.4405073 177.136546,47.4405073 C176.300059,47.4405073 175.574205,47.6939707 174.960156,48.1997268 Z M173.682302,51.0188488 L173.682302,51.065678 C173.682302,51.9226537 173.937522,52.6092878 174.448546,53.1255805 C174.960156,53.6418732 175.643863,53.9000195 176.501424,53.9000195 C176.996644,53.9000195 177.466693,53.8174829 177.910985,53.6518244 C178.354693,53.4873366 178.747473,53.249678 179.088156,52.9400195 L179.583961,53.6213854 C179.181229,53.9925073 178.71118,54.2769951 178.1744,54.4730927 C177.637034,54.6697756 177.063961,54.7675317 176.45518,54.7675317 C175.701229,54.7675317 175.037424,54.6124098 174.464351,54.3027512 C173.891278,53.9925073 173.446985,53.5593366 173.132059,53.0014829 C172.817132,52.4442146 172.659668,51.7985561 172.659668,51.065678 C172.659668,50.2186537 172.855766,49.4524098 173.248546,48.7651902 C173.640741,48.0785561 174.179863,47.5388488 174.867083,47.1460683 C175.553717,46.7538732 176.31001,46.5577756 177.136546,46.5577756 C178.210107,46.5577756 179.059473,46.8779707 179.684644,47.518361 C180.309229,48.1587512 180.621815,49.0157268 180.621815,50.0898732 C180.621815,50.3480195 180.596059,50.657678 180.544546,51.0188488 L173.682302,51.0188488 Z" id="Fill-23" fill="#000066"></path>
                    <path d="M191.712859,53.412 C192.239688,53.0865366 192.655298,52.6451707 192.959688,52.0873171 C193.264078,51.5300488 193.416859,50.9206829 193.416859,50.2598049 C193.416859,49.4338537 193.16398,48.7630244 192.657639,48.2461463 C192.151883,47.7298537 191.491005,47.4717073 190.675005,47.4717073 C190.045151,47.4717073 189.46681,47.634439 188.93998,47.9599024 C188.413737,48.2847805 187.9952,48.7261463 187.685541,49.284 C187.375883,49.8412683 187.220761,50.4506341 187.220761,51.1115122 C187.220761,51.9380488 187.476566,52.6094634 187.98759,53.1257561 C188.498615,53.6420488 189.167102,53.9001951 189.993639,53.9001951 C190.612956,53.9001951 191.186615,53.7374634 191.712859,53.412 M187.848273,54.3263415 C187.316176,54.0213659 186.903493,53.5952195 186.609054,53.0479024 C186.314615,52.5005854 186.167102,51.876 186.167102,51.1741463 C186.167102,50.3165854 186.3632,49.5345366 186.75598,48.8268293 C187.148176,48.1197073 187.680273,47.562439 188.351688,47.154439 C189.022517,46.7458537 189.765932,46.5421463 190.581932,46.5421463 C191.397932,46.5421463 192.086907,46.7435122 192.650029,47.1462439 C193.213151,47.5489756 193.5872,48.1068293 193.773346,48.8192195 L194.903688,43.2278049 L195.942127,43.2278049 L193.649249,54.720878 L192.611395,54.720878 L192.936859,53.1561951 C192.544078,53.6730732 192.064078,54.0734634 191.496273,54.3567805 C190.927883,54.6412683 190.319102,54.7829268 189.668176,54.7829268 C188.98681,54.7829268 188.379785,54.6307317 187.848273,54.3263415" id="Fill-25" fill="#000066"></path>
                    <path d="M199.318576,43.3979122 C199.442673,43.5114732 199.504722,43.6554732 199.504722,43.8310829 C199.504722,43.9551805 199.486576,44.0587902 199.450283,44.1413268 C199.41399,44.2238634 199.3496,44.347961 199.256527,44.5130341 L198.327551,46.2012293 L197.707649,46.2012293 L198.466283,44.528839 C198.249698,44.4047415 198.141405,44.2139122 198.141405,43.9551805 C198.141405,43.7590829 198.213405,43.5887415 198.35799,43.4441561 C198.502576,43.2995707 198.678185,43.2275707 198.88482,43.2275707 C199.049893,43.2275707 199.195063,43.2843512 199.318576,43.3979122" id="Fill-27" fill="#000066"></path>
                    <path d="M201.913327,48.1997268 C201.298693,48.7054829 200.903571,49.3716293 200.728546,50.1975805 L206.645424,50.1975805 C206.655961,49.3406049 206.436449,48.6668488 205.986888,48.1763122 C205.537912,47.6857756 204.905132,47.4405073 204.089717,47.4405073 C203.253229,47.4405073 202.527376,47.6939707 201.913327,48.1997268 Z M200.635473,51.0188488 L200.635473,51.065678 C200.635473,51.9226537 200.890693,52.6092878 201.401717,53.1255805 C201.913327,53.6418732 202.597034,53.9000195 203.454595,53.9000195 C203.949815,53.9000195 204.419863,53.8174829 204.864156,53.6518244 C205.307863,53.4873366 205.700644,53.249678 206.041327,52.9400195 L206.537132,53.6213854 C206.1344,53.9925073 205.664351,54.2769951 205.127571,54.4730927 C204.590205,54.6697756 204.017132,54.7675317 203.408351,54.7675317 C202.6544,54.7675317 201.990595,54.6124098 201.417522,54.3027512 C200.844449,53.9925073 200.400156,53.5593366 200.085229,53.0014829 C199.770302,52.4442146 199.612839,51.7985561 199.612839,51.065678 C199.612839,50.2186537 199.808937,49.4524098 200.201717,48.7651902 C200.593912,48.0785561 201.133034,47.5388488 201.820254,47.1460683 C202.506888,46.7538732 203.26318,46.5577756 204.089717,46.5577756 C205.163278,46.5577756 206.012644,46.8779707 206.637815,47.518361 C207.2624,48.1587512 207.574985,49.0157268 207.574985,50.0898732 C207.574985,50.3480195 207.549229,50.657678 207.497717,51.0188488 L200.635473,51.0188488 Z" id="Fill-29" fill="#000066"></path>
                    <path d="M209.511024,54.419239 C208.880585,54.1452878 208.395902,53.7811902 208.054634,53.3269463 L208.581463,52.6297756 C208.901073,53.0225561 209.324878,53.3398244 209.851707,53.5821659 C210.378537,53.8250927 210.925854,53.9462634 211.493659,53.9462634 C212.040976,53.9462634 212.492878,53.8151415 212.849366,53.5517268 C213.205268,53.2877268 213.38322,52.9447024 213.38322,52.5214829 C213.38322,52.1702634 213.238634,51.8892878 212.950049,51.6768 C212.660293,51.4654829 212.227122,51.2407024 211.64878,51.0036293 C211.173463,50.8075317 210.788878,50.6266537 210.494439,50.4609951 C210.2,50.295922 209.950049,50.0793366 209.743415,49.8106537 C209.536195,49.5425561 209.433756,49.2065561 209.433756,48.8038244 C209.433756,48.1125073 209.694244,47.5564098 210.215805,47.1384585 C210.73678,46.7205073 211.405854,46.5109463 212.221854,46.5109463 C212.789659,46.5109463 213.329366,46.6022634 213.84039,46.7819707 C214.352,46.9634341 214.782829,47.2034341 215.133463,47.5031415 L214.60722,48.2459707 C214.276488,47.9884098 213.897171,47.7811902 213.468683,47.6266537 C213.040195,47.4715317 212.614049,47.3942634 212.190829,47.3942634 C211.684488,47.3942634 211.268878,47.5130927 210.944,47.7501659 C210.618537,47.9884098 210.455805,48.3033366 210.455805,48.6955317 C210.455805,49.0362146 210.595122,49.307239 210.874341,49.5086049 C211.152976,49.7099707 211.586732,49.9294829 212.175024,50.1665561 C212.660293,50.363239 213.055415,50.5441171 213.36039,50.7091902 C213.66478,50.8742634 213.922927,51.0961171 214.134829,51.3753366 C214.346146,51.6539707 214.452098,51.999922 214.452098,52.4126049 C214.452098,53.1361171 214.173463,53.7197268 213.61561,54.1634341 C213.058341,54.6071415 212.350634,54.8295805 211.493659,54.8295805 C210.801756,54.8295805 210.140878,54.6926049 209.511024,54.419239" id="Fill-31" fill="#000066"></path>
                    <path d="M216.69838,54.419239 C216.067941,54.1452878 215.583259,53.7811902 215.24199,53.3269463 L215.76882,52.6297756 C216.088429,53.0225561 216.512234,53.3398244 217.039063,53.5821659 C217.565893,53.8250927 218.11321,53.9462634 218.681015,53.9462634 C219.228332,53.9462634 219.680234,53.8151415 220.036722,53.5517268 C220.392624,53.2877268 220.570576,52.9447024 220.570576,52.5214829 C220.570576,52.1702634 220.42599,51.8892878 220.137405,51.6768 C219.847649,51.4654829 219.414478,51.2407024 218.836137,51.0036293 C218.36082,50.8075317 217.976234,50.6266537 217.681795,50.4609951 C217.387356,50.295922 217.137405,50.0793366 216.930771,49.8106537 C216.723551,49.5425561 216.621112,49.2065561 216.621112,48.8038244 C216.621112,48.1125073 216.8816,47.5564098 217.403161,47.1384585 C217.924137,46.7205073 218.59321,46.5109463 219.40921,46.5109463 C219.977015,46.5109463 220.516722,46.6022634 221.027746,46.7819707 C221.539356,46.9634341 221.970185,47.2034341 222.32082,47.5031415 L221.794576,48.2459707 C221.463844,47.9884098 221.084527,47.7811902 220.656039,47.6266537 C220.227551,47.4715317 219.801405,47.3942634 219.378185,47.3942634 C218.871844,47.3942634 218.456234,47.5130927 218.131356,47.7501659 C217.805893,47.9884098 217.643161,48.3033366 217.643161,48.6955317 C217.643161,49.0362146 217.782478,49.307239 218.061698,49.5086049 C218.340332,49.7099707 218.774088,49.9294829 219.36238,50.1665561 C219.847649,50.363239 220.242771,50.5441171 220.547746,50.7091902 C220.852137,50.8742634 221.110283,51.0961171 221.322185,51.3753366 C221.533502,51.6539707 221.639454,51.999922 221.639454,52.4126049 C221.639454,53.1361171 221.36082,53.7197268 220.802966,54.1634341 C220.245698,54.6071415 219.53799,54.8295805 218.681015,54.8295805 C217.989112,54.8295805 217.328234,54.6926049 216.69838,54.419239" id="Fill-33" fill="#000066"></path>
                    <path d="M228.78039,53.412 C229.30722,53.0865366 229.722829,52.6451707 230.02722,52.0873171 C230.33161,51.5300488 230.48439,50.9206829 230.48439,50.2598049 C230.48439,49.4338537 230.231512,48.7630244 229.725171,48.2461463 C229.219415,47.7298537 228.558537,47.4717073 227.742537,47.4717073 C227.112683,47.4717073 226.534341,47.634439 226.007512,47.9599024 C225.481268,48.2847805 225.062732,48.7261463 224.753073,49.284 C224.443415,49.8412683 224.288293,50.4506341 224.288293,51.1115122 C224.288293,51.9380488 224.544098,52.6094634 225.055122,53.1257561 C225.566146,53.6420488 226.234634,53.9001951 227.061171,53.9001951 C227.680488,53.9001951 228.254146,53.7374634 228.78039,53.412 M224.915805,54.3263415 C224.383707,54.0213659 223.971024,53.5952195 223.676585,53.0479024 C223.382146,52.5005854 223.234634,51.876 223.234634,51.1741463 C223.234634,50.3165854 223.430732,49.5345366 223.823512,48.8268293 C224.215707,48.1197073 224.747805,47.562439 225.41922,47.154439 C226.090049,46.7458537 226.833463,46.5421463 227.649463,46.5421463 C228.465463,46.5421463 229.154439,46.7435122 229.717561,47.1462439 C230.280683,47.5489756 230.654732,48.1068293 230.840878,48.8192195 L231.289854,46.6041951 L232.327707,46.6041951 L230.71678,54.720878 L229.678927,54.720878 L230.00439,53.1561951 C229.61161,53.6730732 229.13161,54.0734634 228.563805,54.3567805 C227.995415,54.6412683 227.386634,54.7829268 226.735707,54.7829268 C226.054341,54.7829268 225.447317,54.6307317 224.915805,54.3263415" id="Fill-35" fill="#000066"></path>
                    <path d="M236.90521,43.6997268 C237.013502,43.8185561 237.067941,43.9654829 237.067941,44.1410927 C237.067941,44.3787512 236.979551,44.5830439 236.804527,44.7533854 C236.628917,44.9237268 236.422283,45.0086049 236.18521,45.0086049 C236.019551,45.0086049 235.880234,44.9494829 235.766673,44.8306537 C235.652527,44.7118244 235.596332,44.5648976 235.596332,44.3892878 C235.596332,44.1516293 235.684137,43.947922 235.859746,43.7775805 C236.034771,43.6066537 236.241405,43.5211902 236.479063,43.5211902 C236.654673,43.5211902 236.796332,43.5814829 236.90521,43.6997268 Z M236.401795,46.6043122 L234.790868,54.7209951 L233.753015,54.7209951 L235.363941,46.6043122 L236.401795,46.6043122 Z" id="Fill-37" fill="#000066"></path>
                    <path d="M238.430907,54.419239 C237.800468,54.1452878 237.315785,53.7811902 236.974517,53.3269463 L237.501346,52.6297756 C237.820956,53.0225561 238.244761,53.3398244 238.77159,53.5821659 C239.29842,53.8250927 239.845737,53.9462634 240.413541,53.9462634 C240.960859,53.9462634 241.412761,53.8151415 241.769249,53.5517268 C242.125151,53.2877268 242.303102,52.9447024 242.303102,52.5214829 C242.303102,52.1702634 242.158517,51.8892878 241.869932,51.6768 C241.580176,51.4654829 241.147005,51.2407024 240.568663,51.0036293 C240.093346,50.8075317 239.708761,50.6266537 239.414322,50.4609951 C239.119883,50.295922 238.869932,50.0793366 238.663298,49.8106537 C238.456078,49.5425561 238.353639,49.2065561 238.353639,48.8038244 C238.353639,48.1125073 238.614127,47.5564098 239.135688,47.1384585 C239.656663,46.7205073 240.325737,46.5109463 241.141737,46.5109463 C241.709541,46.5109463 242.249249,46.6022634 242.760273,46.7819707 C243.271883,46.9634341 243.702712,47.2034341 244.053346,47.5031415 L243.527102,48.2459707 C243.196371,47.9884098 242.817054,47.7811902 242.388566,47.6266537 C241.960078,47.4715317 241.533932,47.3942634 241.110712,47.3942634 C240.604371,47.3942634 240.188761,47.5130927 239.863883,47.7501659 C239.53842,47.9884098 239.375688,48.3033366 239.375688,48.6955317 C239.375688,49.0362146 239.515005,49.307239 239.794224,49.5086049 C240.072859,49.7099707 240.506615,49.9294829 241.094907,50.1665561 C241.580176,50.363239 241.975298,50.5441171 242.280273,50.7091902 C242.584663,50.8742634 242.84281,51.0961171 243.054712,51.3753366 C243.266029,51.6539707 243.37198,51.999922 243.37198,52.4126049 C243.37198,53.1361171 243.093346,53.7197268 242.535493,54.1634341 C241.978224,54.6071415 241.270517,54.8295805 240.413541,54.8295805 C239.721639,54.8295805 239.060761,54.6926049 238.430907,54.419239" id="Fill-39" fill="#000066"></path>
                    <path d="M131.116605,20.2267902 C132.268605,21.3003512 132.844605,22.7286439 132.844605,24.5134244 C132.844605,25.0783024 132.776702,25.6882537 132.640898,26.3426927 L130.506654,37.0847415 L125.288117,37.0847415 L127.287141,27.0890341 C127.355044,26.7501073 127.388995,26.4223024 127.388995,26.1062049 C127.388995,25.2024 127.106263,24.4853268 126.541971,23.9544 C125.977093,23.4234732 125.209093,23.1583024 124.237971,23.1583024 C123.085971,23.1583024 122.063337,23.5704 121.171239,24.3945951 C120.278556,25.2193756 119.697288,26.2982049 119.426263,27.6304976 L117.494556,37.0847415 L112.310556,37.0847415 L114.275629,27.0890341 C114.343532,26.7501073 114.377483,26.4223024 114.377483,26.1062049 C114.377483,25.2024 114.100605,24.4853268 113.546849,23.9544 C112.993678,23.4234732 112.219824,23.1583024 111.225873,23.1583024 C110.073873,23.1583024 109.051824,23.5704 108.159727,24.3945951 C107.266459,25.2193756 106.68519,26.2982049 106.414166,27.6304976 L104.516995,37.0847415 L99.2984585,37.0847415 L102.890263,18.8541073 L108.142166,18.8541073 L107.634068,21.3618146 C109.124995,19.531961 111.056702,18.6176195 113.428605,18.6176195 C115.031922,18.6176195 116.370654,18.9729366 117.444215,19.6847415 C118.516605,20.3965463 119.234263,21.3852293 119.595434,22.6496195 C121.357971,19.9616195 123.62802,18.6176195 126.406751,18.6176195 C128.394068,18.6176195 129.964605,19.1544 131.116605,20.2267902" id="Fill-41" fill="#000066"></path>
                    <path d="M142.19682,31.0194732 C142.128917,31.3578146 142.094966,31.6411317 142.094966,31.8659122 C142.094966,32.2510829 142.185112,32.521522 142.366576,32.6795707 C142.546868,32.8376195 142.817893,32.9166439 143.179649,32.9166439 C143.992722,32.9166439 144.929893,32.6684488 145.991746,32.1714732 L146.635649,36.1355707 C145.890478,36.5201561 145.099063,36.8134244 144.263746,37.0165463 C143.427844,37.2202537 142.614771,37.3221073 141.823941,37.3221073 C140.310185,37.3221073 139.096722,36.9269854 138.181795,36.1355707 C137.266868,35.3453268 136.809112,34.2501073 136.809112,32.8487415 C136.809112,32.3523512 136.854185,31.8887415 136.944917,31.4596683 L138.605015,23.2938146 L136.097893,23.2938146 L136.775161,19.6674732 L139.31682,19.6674732 L140.333015,14.6526439 L145.483649,14.6526439 L144.466868,19.6674732 L149.448332,19.6674732 L148.770478,23.2938146 L143.755649,23.2938146 L142.19682,31.0194732 Z" id="Fill-43" fill="#000066"></path>
                    <path d="M161.5448,32.4086049 C162.357873,31.8888 163.001776,31.1834341 163.475922,30.2907512 C163.950654,29.3986537 164.187727,28.421678 164.187727,27.3598244 C164.187727,26.0720195 163.825971,25.0447024 163.103629,24.2761171 C162.380117,23.5087024 161.420117,23.1241171 160.223044,23.1241171 C159.274751,23.1241171 158.39319,23.3840195 157.580117,23.9038244 C156.767044,24.4230439 156.123141,25.1289951 155.648995,26.0210927 C155.174263,26.9137756 154.93719,27.8796293 154.93719,28.9180683 C154.93719,30.2287024 155.298361,31.2683122 156.021288,32.0357268 C156.744215,32.8043122 157.704215,33.1877268 158.901873,33.1877268 C159.850166,33.1877268 160.731141,32.9284098 161.5448,32.4086049 M153.158263,36.2714341 C152.062459,35.5935805 151.20958,34.6447024 150.599629,33.4248 C149.989678,32.2048976 149.684702,30.8047024 149.684702,29.2236293 C149.684702,27.2579707 150.108507,25.4685073 150.955532,23.8528976 C151.802556,22.2378732 152.971532,20.9670439 154.462459,20.0404098 C155.953971,19.114361 157.602361,18.6513366 159.409971,18.6513366 C160.855239,18.6513366 162.075141,18.9510439 163.069678,19.5492878 C164.063044,20.1481171 164.819922,21.023239 165.339727,22.1758244 L165.983629,18.8544585 L171.167629,18.8544585 L167.542459,37.0845073 L162.357873,37.0845073 L162.865971,34.7805073 C161.194166,36.4523122 159.217385,37.2882146 156.936215,37.2882146 C155.51319,37.2882146 154.253483,36.9492878 153.158263,36.2714341" id="Fill-45" fill="#000066"></path>
                    <g id="Group-49" stroke-width="1" transform="translate(50.926829, 0.522146)">
                        <mask id="mask-8" fill="white">
                            <use xlink:href="#path-7"></use>
                        </mask>
                        <g id="Clip-48"></g>
                        <path d="M1.07642927,4.26620488 C1.20872195,4.32766829 1.34803902,4.35693659 1.48501463,4.35693659 C1.84969756,4.35693659 2.19857561,4.15030244 2.36306341,3.7979122 L3.46296585,1.44122927 C3.68891707,0.957131707 3.4793561,0.380546341 2.99467317,0.154595122 C2.51057561,-0.0725268293 1.93399024,0.137619512 1.70862439,0.622302439 L0.608721951,2.97957073 C0.382185366,3.46366829 0.591746341,4.03966829 1.07642927,4.26620488" id="Fill-47" fill="#000066" mask="url(#mask-8)"></path>
                    </g>
                    <g id="Group-52" stroke-width="1" transform="translate(28.097561, 67.253854)">
                        <mask id="mask-10" fill="white">
                            <use xlink:href="#path-9"></use>
                        </mask>
                        <g id="Clip-51"></g>
                        <path d="M3.02200976,0.480760976 C2.53674146,0.253639024 1.96132683,0.464370732 1.73537561,0.949053659 L0.635473171,3.30515122 C0.408936585,3.78924878 0.618497561,4.36583415 1.10318049,4.59178537 C1.23547317,4.65383415 1.37479024,4.68310244 1.51176585,4.68310244 C1.87644878,4.68310244 2.22532683,4.47588293 2.38981463,4.12407805 L3.48971707,1.76739512 C3.71625366,1.28329756 3.50669268,0.707297561 3.02200976,0.480760976" id="Fill-50" fill="#000066" mask="url(#mask-10)"></path>
                    </g>
                    <g id="Group-55" stroke-width="1" transform="translate(0.000000, 5.790439)">
                        <mask id="mask-12" fill="white">
                            <use xlink:href="#path-11"></use>
                        </mask>
                        <g id="Clip-54"></g>
                        <path d="M3.87260488,35.2631415 C2.80489756,35.2631415 1.93621463,34.3950439 1.93621463,33.3273366 C1.93621463,32.2596293 2.80489756,31.3915317 3.87260488,31.3915317 C4.9403122,31.3915317 5.80899512,32.2596293 5.80899512,33.3273366 C5.80899512,34.3950439 4.9403122,35.2631415 3.87260488,35.2631415 Z M34.4491902,34.2961171 L30.5869463,42.6007024 C30.3609951,43.0853854 30.5711415,43.6613854 31.0564098,43.8867512 C31.1887024,43.9482146 31.3274341,43.9774829 31.4638244,43.9774829 C31.8290927,43.9774829 32.1779707,43.769678 32.3424585,43.4172878 L51.7051902,1.78723902 C51.9305561,1.30197073 51.7204098,0.726556098 51.2357268,0.500604878 C50.7510439,0.276409756 50.1750439,0.485970732 49.949678,0.970653659 L35.3494829,32.3603122 C35.3453854,32.3603122 35.3412878,32.3591415 35.3371902,32.3591415 L7.61777561,32.3591415 C7.18636098,30.6914341 5.67319024,29.4545561 3.87260488,29.4545561 C1.73719024,29.4545561 -0.000175609756,31.191922 -0.000175609756,33.3273366 C-0.000175609756,35.4627512 1.73719024,37.2001171 3.87260488,37.2001171 C5.67319024,37.2001171 7.18577561,35.963239 7.61777561,34.2961171 L34.4491902,34.2961171 Z" id="Fill-53" fill="#000066" mask="url(#mask-12)"></path>
                    </g>
                    <path d="M72.1266146,49.7672195 C71.0589073,49.7672195 70.1902244,48.899122 70.1902244,47.8308293 C70.1902244,46.763122 71.0589073,45.8950244 72.1266146,45.8950244 C73.194322,45.8950244 74.0630049,46.763122 74.0630049,47.8308293 C74.0630049,48.899122 73.194322,49.7672195 72.1266146,49.7672195 M72.1266146,43.9580488 C70.3260293,43.9580488 68.8128585,45.1949268 68.3814439,46.8626341 L41.9890537,46.8626341 L44.9293463,40.4915122 C45.1535415,40.0056585 44.941639,39.4308293 44.4557854,39.2066341 C43.9716878,38.9818537 43.3951024,39.1943415 43.1714927,39.6801951 L31.5537366,64.8520976 C31.3301268,65.3379512 31.5414439,65.9127805 32.0272976,66.1369756 C32.1584195,66.1972683 32.2965659,66.2259512 32.4323707,66.2259512 C32.7982244,66.2259512 33.1488585,66.017561 33.3115902,65.6634146 L41.0975415,48.7943415 C41.1139317,48.7955122 41.1291512,48.7996098 41.1461268,48.7996098 L68.3814439,48.7996098 C68.8128585,50.4667317 70.3260293,51.7041951 72.1266146,51.7041951 C74.2620293,51.7041951 75.9988098,49.9668293 75.9988098,47.8308293 C75.9988098,45.6954146 74.2620293,43.9580488 72.1266146,43.9580488" id="Fill-56" fill="#000066"></path>
                </g>
            </g>
        </g>
    </g>
</svg>