<?xml version="1.0" encoding="UTF-8"?>
<svg width="32px" height="32px" viewBox="0 0 32 32" version="1.1" xmlns="http://www.w3.org/2000/svg" xmlns:xlink="http://www.w3.org/1999/xlink">
    <!-- Generator: Sketch 49 (51002) - http://www.bohemiancoding.com/sketch -->
    <title>Group</title>
    <desc>Created with Sketch.</desc>
    <defs></defs>
    <g id="Symbols" stroke="none" stroke-width="1" fill="none" fill-rule="evenodd">
        <g id="Desktop/Organisme/Footer" transform="translate(-1388.000000, -288.000000)" fill="#FFFFFF">
            <g id="Group" transform="translate(1388.000000, 288.000000)">
                <g id="icone/32x32/White/Linkedin">
                    <g id="Linked">
                        <path d="M32,31.292 L32,19.46 C32,13.12 28.616,10.17 24.104,10.17 C20.463,10.17 18.831,12.173 17.922,13.579 L17.922,10.655 L11.062,10.655 C11.153,12.592 11.062,31.292 11.062,31.292 L17.922,31.292 L17.922,19.767 C17.922,19.152 17.966,18.535 18.148,18.095 C18.643,16.862 19.772,15.586 21.666,15.586 C24.149,15.586 25.141,17.478 25.141,20.252 L25.141,31.293 L32,31.293 L32,31.292 Z M3.835,7.838 C6.226,7.838 7.717,6.252 7.717,4.271 C7.673,2.247 6.227,0.707 3.881,0.707 C1.535,0.707 0,2.246 0,4.271 C0,6.252 1.489,7.838 3.792,7.838 L3.835,7.838 Z M7.265,31.292 L7.265,10.655 L0.406,10.655 L0.406,31.292 L7.265,31.292 Z" id="Flat_copy" fill-rule="nonzero"></path>
                    </g>
                </g>
            </g>
        </g>
    </g>
</svg>