<?xml version="1.0" encoding="UTF-8"?>
<svg width="145px" height="33px" viewBox="0 0 145 33" version="1.1" xmlns="http://www.w3.org/2000/svg" xmlns:xlink="http://www.w3.org/1999/xlink">
    <!-- Generator: Sketch 49 (51002) - http://www.bohemiancoding.com/sketch -->
    <title>Group</title>
    <desc>Created with Sketch.</desc>
    <defs>
        <radialGradient cx="99.9808131%" cy="100.092355%" fx="99.9808131%" fy="100.092355%" r="140.93175%" id="radialGradient-1">
            <stop stop-color="#6EBCE0" offset="0%"></stop>
            <stop stop-color="#006895" offset="51.62%"></stop>
            <stop stop-color="#00487B" offset="80.67%"></stop>
            <stop stop-color="#00386D" offset="100%"></stop>
        </radialGradient>
        <linearGradient x1="0.286585366%" y1="49.7821429%" x2="100%" y2="49.7821429%" id="linearGradient-2">
            <stop stop-color="#878787" offset="0%"></stop>
            <stop stop-color="#BDBCBC" offset="61.75%"></stop>
            <stop stop-color="#CAC9C9" offset="72.04%"></stop>
            <stop stop-color="#EDEDED" offset="91.21%"></stop>
            <stop stop-color="#FFFFFF" offset="100%"></stop>
        </linearGradient>
        <linearGradient x1="1.64761905%" y1="49.9740741%" x2="100.838095%" y2="49.9740741%" id="linearGradient-3">
            <stop stop-color="#706F6F" offset="0%"></stop>
            <stop stop-color="#767575" offset="13.28%"></stop>
            <stop stop-color="#878787" offset="31.36%"></stop>
            <stop stop-color="#A4A3A3" offset="52.2%"></stop>
            <stop stop-color="#CBCBCB" offset="75.11%"></stop>
            <stop stop-color="#FEFEFE" offset="99.45%"></stop>
            <stop stop-color="#FFFFFF" offset="100%"></stop>
        </linearGradient>
        <linearGradient x1="-0.497053333%" y1="50.3867052%" x2="100.180204%" y2="50.3867052%" id="linearGradient-4">
            <stop stop-color="#FFFFFF" offset="0%"></stop>
            <stop stop-color="#FFFFFF" offset="32.24%"></stop>
            <stop stop-color="#F9F9F9" offset="40.43%"></stop>
            <stop stop-color="#E8E8E8" offset="51.42%"></stop>
            <stop stop-color="#CCCCCC" offset="64%"></stop>
            <stop stop-color="#A5A5A5" offset="77.76%"></stop>
            <stop stop-color="#747473" offset="92.32%"></stop>
            <stop stop-color="#575756" offset="100%"></stop>
        </linearGradient>
        <linearGradient x1="1.03134328%" y1="50.4812834%" x2="98.9049751%" y2="50.4812834%" id="linearGradient-5">
            <stop stop-color="#FFFFFF" offset="0%"></stop>
            <stop stop-color="#F6F6F6" offset="6.520617%"></stop>
            <stop stop-color="#BEBEBD" offset="48.21%"></stop>
            <stop stop-color="#A8A8A7" offset="68.31%"></stop>
            <stop stop-color="#9D9D9C" offset="77.01%"></stop>
            <stop stop-color="#818080" offset="92.18%"></stop>
            <stop stop-color="#706F6F" offset="100%"></stop>
        </linearGradient>
        <linearGradient x1="16.01133%" y1="35.9475936%" x2="108.07931%" y2="88.9080214%" id="linearGradient-6">
            <stop stop-color="#575756" offset="0%"></stop>
            <stop stop-color="#797978" offset="11.83%"></stop>
            <stop stop-color="#989898" offset="25.21%"></stop>
            <stop stop-color="#ABABAB" offset="36.5%"></stop>
            <stop stop-color="#B2B2B2" offset="44.26%"></stop>
            <stop stop-color="#B3B3B3" offset="44.73%"></stop>
            <stop stop-color="#DCDCDC" offset="59.73%"></stop>
            <stop stop-color="#F6F6F6" offset="71.56%"></stop>
            <stop stop-color="#FFFFFF" offset="78.69%"></stop>
            <stop stop-color="#FFFFFF" offset="100%"></stop>
        </linearGradient>
    </defs>
    <g id="Symbols" stroke="none" stroke-width="1" fill="none" fill-rule="evenodd">
        <g id="Desktop/Organisme/Menu" transform="translate(-583.000000, -87.000000)">
            <g id="Group" transform="translate(584.000000, 87.000000)">
                <g id="Logo/Zodiac_Color" transform="translate(24.000000, 0.000000)">
                    <g id="Zodiac_Logo_Decomposer">
                        <g id="Texte" transform="translate(0.000000, 7.000000)" fill="#575756" fill-rule="nonzero">
                            <path d="M26.32,22.24 L24.4,20 C25.28,19.68 26.8,19.2 26.8,17.44 C26.8,16.72 26.4,15.84 25.52,15.28 C24.96,14.88 24,14.48 22.08,14.48 C21.12,14.48 20.72,14.48 19.2,14.48 C19.44,14.88 19.6,15.2 19.6,15.92 L19.6,22.08 C19.6,23.44 19.52,23.52 19.2,24.32 L22,24.32 C21.68,23.68 21.68,23.36 21.68,22.08 L21.68,19.76 L21.84,19.76 L25.36,24.32 L28.32,24.32 C27.84,23.92 27.2,23.36 26.32,22.24 M22.4,19.36 C22.16,19.36 21.76,19.36 21.76,19.36 L21.76,15.84 C23.12,15.76 24.56,16.08 24.56,17.6 C24.56,18.56 23.6,19.28 22.4,19.36" id="Shape"></path>
                            <path d="M42.4,16.88 C42.4,16.24 43.12,15.68 44.16,15.68 C45.2,15.68 46,16.16 46.56,16.48 L46.64,14.72 C46.08,14.64 45.12,14.4 44.08,14.4 C41.92,14.4 40.4,15.68 40.4,17.36 C40.4,20.24 45.2,20.08 45.2,21.92 C45.2,22.8 44.32,23.36 43.2,23.36 C41.84,23.36 41.2,22.88 40.4,22.24 L40.32,24.16 C40.8,24.24 42,24.64 43.44,24.64 C45.68,24.64 47.28,23.28 47.28,21.52 C47.28,18.72 42.4,18.64 42.4,16.88" id="Shape"></path>
                            <path d="M51.36,20.4 C53.84,20.4 55.44,19.28 55.44,17.52 C55.44,15.76 53.68,14.64 51.12,14.64 L47.92,14.64 C48.16,15.04 48.32,15.28 48.32,16.4 L48.32,22.64 C48.32,23.84 48.16,24 47.92,24.4 L50.8,24.4 C50.56,24 50.4,23.76 50.4,22.64 L50.4,20.4 C50.72,20.32 51.04,20.4 51.36,20.4 Z M50.48,15.76 L50.96,15.76 C52.48,15.76 53.28,16.64 53.28,17.6 C53.28,18.64 52.48,19.52 50.88,19.52 L50.48,19.52 L50.48,15.76 Z" id="Shape"></path>
                            <path d="M78.24,23.12 C78,23.12 77.2,23.12 76.96,23.12 L76.96,20.08 C77.28,20.08 77.84,20.08 78.16,20.08 C78.8,20.08 79.6,20.16 80.24,20.32 L80.48,18.8 L76.96,18.8 L76.96,15.92 C77.2,15.92 77.84,15.92 78.08,15.92 C79.6,15.92 80.08,16 80.8,16.24 L81.04,14.64 L74.4,14.64 C74.64,15.04 74.8,15.28 74.8,16.4 L74.8,22.64 C74.8,23.84 74.64,24 74.4,24.4 L80.88,24.4 L81.44,22.72 C80.72,22.88 80.08,23.12 78.24,23.12" id="Shape"></path>
                            <path d="M14,23.04 L14,20 C14.32,20 14.88,20 15.2,20 C15.84,20 16.64,20.08 17.28,20.24 L17.52,18.72 L14,18.72 L14,15.84 C14.24,15.84 14.88,15.84 15.12,15.84 C16.64,15.84 17.04,15.92 17.84,16.16 L18.08,14.56 L11.44,14.56 C11.68,14.96 11.84,15.2 11.84,16.32 L11.84,22.56 C11.84,23.76 11.68,23.92 11.44,24.32 L17.92,24.32 L18.48,22.64 C17.68,22.88 17.04,23.04 15.2,23.04 C15.04,23.12 14.24,23.12 14,23.04" id="Shape"></path>
                            <path d="M33.04,10.8 L33.84,8.88 C32.24,9.44 31.28,9.52 28.4,9.52 L33.84,0.96 L26.64,0.96 L25.84,2.88 C26.8,2.4 27.52,2.24 29.44,2.24 C29.84,2.24 30.4,2.24 30.64,2.24 L25.28,10.72 L33.04,10.72 L33.04,10.8 Z" id="Shape"></path>
                            <path d="M45.92,5.92 C45.92,3.04 43.28,0.64 39.92,0.64 C36.4,0.64 33.76,3.04 33.76,5.92 C33.76,8.8 36.48,11.12 39.76,11.12 C43.28,11.12 45.92,8.8 45.92,5.92 M40,9.84 C37.68,9.84 36.24,8.24 36.24,5.84 C36.24,3.6 37.52,2 39.76,2 C42,2 43.52,3.76 43.52,6 C43.52,8.08 42.08,9.84 40,9.84" id="Shape"></path>
                            <path d="M46.96,10.8 L49.76,10.8 C50.8,10.8 52.64,10.8 53.68,10.4 C56.08,9.52 57.04,7.76 57.04,6 C57.04,4.64 56.32,2.88 54.72,1.92 C53.76,1.36 52.64,1.04 50.32,1.04 L46.96,1.04 C47.2,1.44 47.36,1.68 47.36,2.8 L47.36,9.04 C47.36,10.16 47.2,10.4 46.96,10.8 Z M49.44,2.24 L50.72,2.24 C53.68,2.24 54.72,4.24 54.72,5.92 C54.72,8.32 53.2,9.52 50.48,9.52 C50.16,9.52 49.84,9.52 49.44,9.52 L49.44,2.24 Z" id="Shape"></path>
                            <path d="M58.08,10.8 L60.96,10.8 C60.72,10.4 60.56,10.16 60.56,9.04 L60.56,2.8 C60.56,1.6 60.72,1.44 60.96,1.04 L58.08,1.04 C58.32,1.44 58.48,1.68 58.48,2.8 L58.48,9.04 C58.48,10.16 58.32,10.4 58.08,10.8" id="Shape"></path>
                            <path d="M77.44,10.96 C79.52,10.96 80.8,10.32 81.44,10.32 L81.44,8.48 C80.72,9.04 79.84,9.68 77.84,9.68 C75.44,9.68 73.92,8.16 73.92,5.84 C73.92,3.52 75.44,2.08 78,2.08 C79.84,2.08 80.56,2.64 81.04,2.88 L81.2,1.04 C81.2,1.04 81.04,1.04 80.96,1.04 C80.56,1.04 79.68,0.8 78.16,0.8 C74.24,0.8 71.6,2.96 71.6,6.08 C71.52,8.64 73.92,10.96 77.44,10.96" id="Shape"></path>
                            <path d="M63.84,10.32 C63.84,10 64,9.6 64.16,9.28 L64.72,7.92 L68.56,7.92 L69.12,9.28 C69.28,9.6 69.36,9.92 69.36,10.24 C69.36,10.48 69.28,10.64 69.12,10.8 L72.16,10.8 C71.76,10.24 71.52,9.76 71.2,8.96 C71.2,8.96 68.56,2.72 68.32,2.16 C68.08,1.6 67.92,1.12 67.92,0.96 L65.28,0.96 L65.6,1.36 L62.4,8.96 C62.08,9.76 61.68,10.4 61.44,10.8 L63.92,10.8 C63.84,10.64 63.84,10.56 63.84,10.32 Z M66.64,2.88 L68.08,6.56 L65.2,6.56 L66.64,2.88 Z" id="Shape"></path>
                            <path d="M66.16,19.44 C66.16,17.12 67.68,15.68 70.24,15.68 C72.08,15.68 72.8,16.24 73.28,16.48 L73.44,14.64 C73.44,14.64 73.28,14.64 73.2,14.64 C72.8,14.64 71.92,14.4 70.4,14.4 C66.48,14.4 63.84,16.56 63.84,19.68 C63.84,22.32 66.24,24.64 69.76,24.64 C71.84,24.64 73.12,24 73.76,24 L73.76,22.16 C73.04,22.72 72.16,23.36 70.16,23.36 C67.68,23.28 66.16,21.76 66.16,19.44" id="Shape"></path>
                            <path d="M60.56,15.76 C60.32,15.2 60.16,14.72 60.16,14.56 L57.6,14.56 L57.92,14.96 L54.72,22.56 C54.4,23.36 54,24 53.76,24.4 L56.24,24.4 C56.16,24.24 56.16,24.16 56.16,23.92 C56.16,23.6 56.32,23.2 56.48,22.88 L57.04,21.52 L60.8,21.52 L61.36,22.88 C61.52,23.2 61.6,23.52 61.6,23.84 C61.6,24.08 61.52,24.24 61.36,24.4 L64.32,24.4 C63.92,23.84 63.68,23.36 63.36,22.56 C63.44,22.56 60.8,16.32 60.56,15.76 Z M58.88,16.48 L60.32,20.16 L57.44,20.16 L58.88,16.48 Z" id="Shape"></path>
                            <path d="M7.12,15.76 C6.88,15.2 6.72,14.72 6.72,14.56 L4.08,14.56 L4.4,14.96 L1.2,22.56 C0.88,23.36 0.48,24 0.24,24.4 L2.72,24.4 C2.64,24.24 2.64,24.16 2.64,23.92 C2.64,23.6 2.8,23.2 2.96,22.88 L3.52,21.52 L7.36,21.52 L7.92,22.88 C8.08,23.2 8.16,23.52 8.16,23.84 C8.16,24.08 8.08,24.24 7.92,24.4 L10.96,24.4 C10.56,23.84 10.32,23.36 10,22.56 C10,22.56 7.36,16.32 7.12,15.76 Z M5.52,16.48 L6.96,20.16 L4.08,20.16 L5.52,16.48 Z" id="Shape"></path>
                            <path d="M33.76,14.16 C30.24,14.16 27.6,16.56 27.6,19.52 C27.6,22.48 30.32,24.8 33.6,24.8 C37.04,24.8 39.76,22.4 39.76,19.52 C39.76,16.56 37.04,14.16 33.76,14.16 M33.76,23.44 C31.44,23.44 30,21.84 30,19.36 C30,17.04 31.28,15.44 33.52,15.44 C35.76,15.44 37.28,17.2 37.28,19.44 C37.28,21.76 35.84,23.44 33.76,23.44" id="Shape"></path>
                        </g>
                        <rect id="Rectangle-path" fill="url(#radialGradient-1)" fill-rule="nonzero" x="88" y="0" width="32" height="32"></rect>
                        <g id="Z" transform="translate(96.000000, 8.000000)" fill-rule="nonzero">
                            <path d="M17.44,0.08 C19.92,0.32 22.08,1.04 24,2.24 L24,0.8 C22.16,0.16 20.32,0 19.04,0 C18.08,0 17.44,0.08 17.44,0.08 Z" id="Shape" fill="url(#linearGradient-2)"></path>
                            <path d="M1.84,24 L3.36,24 C1.84,22.24 0.64,20.08 1.42108547e-14,17.52 C0.08,17.52 0.16,20.88 1.84,24 Z" id="Shape" fill="url(#linearGradient-3)"></path>
                            <path d="M13.6,5.92 C13.92,5.28 14.88,3.6 14.56,2.48 C14.4,2 13.92,1.44 12.96,1.28 C12.64,1.36 12.32,1.44 12.24,1.44 C11.76,1.6 11.12,1.84 10.32,2.24 C8.88,2.88 6.96,4 5.2,5.68 C5.04,5.84 4.88,6 4.72,6.16 C3.76,7.12 3.04,8.16 2.4,9.12 C2.08,9.68 1.76,10.24 1.52,10.8 C0.88,12.4 0.8,13.76 1.44,14.48 C1.6,14.64 1.76,14.8 1.92,14.8 C2.32,15.04 2.8,15.12 3.12,15.12 L3.68,14.88 C5.52,14.16 7.84,12.88 9.92,10.8 C11.52,9.2 12.8,7.44 13.6,5.92 Z" id="Shape" fill="url(#linearGradient-4)"></path>
                            <path d="M10,11.04 C12.32,8.72 13.84,6.08 14.64,4.4 C15.68,2.24 16.16,0.16 16.16,0.16 L1.28,0.16 C0.48,0.16 0.08,0.72 0.08,1.52 L0.08,8.4 C2.48,2.16 7.44,1.28 11.84,1.2 C11.92,1.2 12,1.2 12.08,1.2 C12.32,1.2 12.56,1.2 12.72,1.2 C12.8,1.2 12.8,1.2 12.88,1.2 C13.84,1.36 14.4,1.92 14.48,2.4 C14.8,3.6 13.92,5.28 13.52,5.84 C12.64,7.36 11.44,9.12 9.76,10.8 C7.68,12.88 5.36,14.08 3.52,14.88 L2.96,15.12 C3.12,15.12 3.36,15.12 3.44,15.12 L3.52,15.12 C5.44,14.48 7.92,13.12 10,11.04 Z" id="Shape" fill="url(#linearGradient-5)"></path>
                            <path d="M16.24,14.88 L16.24,8 C13.84,14.16 8.72,15.36 3.68,15.2 C3.68,15.2 3.68,15.2 3.6,15.2 C3.52,15.2 3.28,15.2 3.12,15.2 C2.8,15.12 2.32,15.04 1.92,14.88 C1.76,14.8 1.6,14.64 1.44,14.56 C0.72,13.84 0.8,12.48 1.52,10.88 C1.76,10.32 2.08,9.76 2.4,9.2 C2.96,8.24 3.76,7.2 4.72,6.24 C4.88,6.08 5.04,5.92 5.2,5.76 C7.04,4.08 8.88,2.96 10.32,2.32 C11.12,1.92 11.76,1.68 12.24,1.52 C12.32,1.52 12.56,1.44 12.96,1.36 C12.88,1.36 12.88,1.36 12.8,1.36 C12.64,1.36 12.48,1.36 12.24,1.36 C12.16,1.36 12.16,1.36 12.08,1.36 C10.8,1.76 8.08,2.88 5.44,5.2 C5.12,5.52 4.8,5.76 4.48,6.08 C2.64,8 1.52,10 0.88,11.68 C0.32,13.04 0.16,14.24 0.08,14.96 C0.08,15.28 8.52651283e-14,15.52 8.52651283e-14,15.6 C8.52651283e-14,15.84 8.52651283e-14,16.08 8.52651283e-14,16.32 L15.04,16.32 C15.68,16.32 16.24,15.68 16.24,14.88 Z" id="Shape" fill="url(#linearGradient-6)"></path>
                        </g>
                    </g>
                </g>
                <path d="M16,1 L0,33" id="/" stroke="#CCCCCC" stroke-linecap="round"></path>
            </g>
        </g>
    </g>
</svg>