<?xml version="1.0" encoding="UTF-8"?>
<svg width="244px" height="72px" viewBox="0 0 244 72" version="1.1" xmlns="http://www.w3.org/2000/svg" xmlns:xlink="http://www.w3.org/1999/xlink">
    <!-- Generator: Sketch 48.2 (47327) - http://www.bohemiancoding.com/sketch -->
    <title>mta</title>
    <desc>Created with Sketch.</desc>
    <defs>
        <polygon id="path-1" points="0 0.187672131 7.79839324 0.187672131 7.79839324 7.99672131 0 7.99672131"></polygon>
    </defs>
    <g id="Desktop/Logo/mta/Blue" stroke="none" stroke-width="1" fill="none" fill-rule="evenodd">
        <g id="mta">
            <path d="M55.5618058,67.3981967 C47.6789556,67.3981967 43.5598348,58.0547213 40.3171101,49.2960984 C40.2705498,49.1698033 40.3347913,49.0293443 40.4609169,48.9827213 C40.5870425,48.9360984 40.727313,48.9998361 40.7744628,49.1267213 C44.7262019,59.8010164 48.7533807,66.9107213 55.5618058,66.9107213 C66.9349169,66.9107213 71.8485111,48.2491475 71.8968396,48.0602951 C71.9298444,47.9298689 72.0642213,47.8507869 72.1932937,47.8850164 C72.3235449,47.9180656 72.4019314,48.0514426 72.3689266,48.1812787 C72.3194193,48.3742623 67.312115,67.3981967 55.5618058,67.3981967" id="Fill-1" fill="#000066"></path>
            <path d="M3.89910821,39.5804066 C3.87258647,39.5804066 3.84547536,39.5756852 3.81836425,39.5668328 C3.69164928,39.5213902 3.62446087,39.3827016 3.66925314,39.2552262 C3.68634493,39.2062426 5.41909855,34.2931279 8.44434493,29.4461115 C12.476828,22.9855869 16.9725575,19.5708984 21.4453014,19.5708984 C28.8319005,19.5708984 32.9645768,27.8089967 36.3298908,36.7122098 C36.37763,36.8385049 36.3145671,36.9789639 36.1884415,37.0267672 C36.0623159,37.0739803 35.921456,37.0108328 35.8743063,36.8851279 C32.570287,28.1453902 28.5360357,20.0583738 21.4453014,20.0583738 C11.0187217,20.0583738 4.19674106,39.2233574 4.12896329,39.4169311 C4.09419034,39.517259 3.99989082,39.5804066 3.89910821,39.5804066" id="Fill-3" fill="#000066"></path>
            <path d="M102.316214,49.1993705 C103.002832,48.6216 103.345846,47.8172066 103.345846,46.7861902 C103.345846,46.0886164 103.105972,45.558059 102.627991,45.1933377 C102.150011,44.8292066 101.463392,44.6468459 100.569315,44.6468459 L97.6531024,44.6468459 L96.5769092,50.0663213 L99.4777981,50.0663213 C100.683653,50.0663213 101.629595,49.777141 102.316214,49.1993705 M103.470204,44.4125508 C104.094349,44.9230426 104.406127,45.6412721 104.406127,46.5678295 C104.406127,47.4737311 104.200436,48.2621902 103.789643,48.9337967 C103.379441,49.6048131 102.791837,50.1259279 102.027421,50.4953705 C101.263595,50.8648131 100.361267,51.0501246 99.3216145,51.0501246 L96.3741652,51.0501246 L95.6722232,54.5793049 L94.59603,54.5793049 L96.7796531,43.6476984 L100.803296,43.6476984 C101.957286,43.6476984 102.846648,43.9026492 103.470204,44.4125508" id="Fill-5" fill="#000066"></path>
            <polygon id="Fill-7" fill="#000066" points="108.461124 42.9917311 106.152554 54.5796 105.108186 54.5796 107.416167 42.9917311"></polygon>
            <path d="M114.824219,53.2596393 C115.354654,52.9315082 115.773108,52.4865246 116.079582,51.9240984 C116.386055,51.3622623 116.539881,50.7479016 116.539881,50.0816066 C116.539881,49.2488852 116.285272,48.5725574 115.775466,48.0514426 C115.266248,47.530918 114.600847,47.2706557 113.779263,47.2706557 C113.145099,47.2706557 112.562799,47.4347213 112.032364,47.7628525 C111.502519,48.0903934 111.081118,48.535377 110.76934,49.0978033 C110.457562,49.6596393 110.301379,50.274 110.301379,50.9402951 C110.301379,51.7736066 110.558934,52.4505246 111.073456,52.9710492 C111.587978,53.4915738 112.261041,53.7518361 113.093234,53.7518361 C113.716789,53.7518361 114.294374,53.5877705 114.824219,53.2596393 M110.933186,54.1814754 C110.397446,53.874 109.981939,53.4443607 109.685485,52.8925574 C109.389031,52.3407541 109.240509,51.7110492 109.240509,51.0034426 C109.240509,50.1388525 109.437949,49.3503934 109.833417,48.6368852 C110.228297,47.9239672 110.764036,47.3621311 111.440045,46.9507869 C112.115466,46.5388525 112.863968,46.3334754 113.685553,46.3334754 C114.507137,46.3334754 115.200828,46.5364918 115.767804,46.9425246 C116.33478,47.3485574 116.711388,47.9109836 116.898809,48.6292131 L117.350857,46.3960328 L118.395814,46.3960328 L116.773862,54.5792459 L115.728905,54.5792459 L116.056596,53.0017377 C115.661128,53.5228525 115.177843,53.9265246 114.606152,54.2121639 C114.033871,54.4989836 113.420925,54.6418033 112.765543,54.6418033 C112.079514,54.6418033 111.468335,54.4883607 110.933186,54.1814754" id="Fill-9" fill="#000066"></path>
            <path d="M121.624157,52.1899672 C121.582901,52.3876721 121.562273,52.5806557 121.562273,52.7677377 C121.562273,53.0805246 121.632409,53.3071475 121.77209,53.4470164 C121.91295,53.5874754 122.128071,53.6577049 122.41981,53.6577049 C122.887771,53.6370492 123.371056,53.4812459 123.870254,53.1891148 L124.088322,54.0330492 C123.464766,54.4078033 122.835317,54.6055082 122.201153,54.6261639 C121.671307,54.6261639 121.255211,54.4857049 120.953452,54.2047869 C120.652283,53.9238689 120.501404,53.5119344 120.501404,52.9707541 C120.501404,52.7836721 120.527336,52.5487869 120.579201,52.268459 L121.54636,47.4420984 L120.361133,47.4420984 L120.517317,46.6146885 L121.701955,46.6146885 L122.123356,44.5219672 L123.168312,44.5219672 L122.746911,46.6146885 L125.382583,46.6146885 L125.226988,47.4420984 L122.575404,47.4420984 L121.624157,52.1899672 Z" id="Fill-11" fill="#000066"></path>
            <path d="M128.026387,48.0046426 C127.407547,48.5145443 127.009721,49.1861508 126.833499,50.0188721 L132.790871,50.0188721 C132.801479,49.1548721 132.580465,48.4755934 132.127827,47.9810361 C131.675779,47.4864787 131.038668,47.2392 130.217672,47.2392 C129.37546,47.2392 128.644639,47.494741 128.026387,48.0046426 Z M126.739788,50.8468721 L126.739788,50.8940852 C126.739788,51.7580852 126.996755,52.4503475 127.511276,52.9708721 C128.026387,53.4913967 128.714774,53.751659 129.578204,53.751659 C130.076813,53.751659 130.550078,53.6684459 130.997412,53.5014295 C131.444156,53.3355934 131.839624,53.0959869 132.182639,52.7837902 L132.681837,53.470741 C132.276349,53.8449049 131.803083,54.1317246 131.262629,54.3294295 C130.721586,54.5277246 130.14459,54.626282 129.531643,54.626282 C128.772532,54.626282 128.104185,54.4698885 127.527189,54.1576918 C126.950194,53.8449049 126.502861,53.4081836 126.185779,52.8457574 C125.868697,52.2839213 125.710156,51.6329705 125.710156,50.8940852 C125.710156,50.040118 125.907595,49.2675934 126.303064,48.574741 C126.697943,47.8824787 127.240755,47.3383475 127.932677,46.9423475 C128.624011,46.5469377 129.385479,46.3492328 130.217672,46.3492328 C131.298581,46.3492328 132.153759,46.6720525 132.783209,47.3176918 C133.412069,47.9633311 133.726793,48.8273311 133.726793,49.910282 C133.726793,50.1705443 133.700861,50.482741 133.648996,50.8468721 L126.739788,50.8468721 Z" id="Fill-13" fill="#000066"></path>
            <path d="M138.811187,44.2879082 C138.436936,44.6001049 138.197651,45.0114492 138.093922,45.5213508 L137.875854,46.6143344 L140.261632,46.6143344 L140.106038,47.4423344 L137.704347,47.4423344 L136.28455,54.5791869 L135.239593,54.5791869 L136.674714,47.4423344 L135.613844,47.4423344 L135.770028,46.6143344 L136.830898,46.6143344 L137.048965,45.5366951 C137.163303,44.9955148 137.371352,44.5245639 137.672521,44.1238426 C137.974279,43.7231213 138.33026,43.4156459 138.741052,43.2020066 C139.151844,42.9889574 139.575603,42.8821377 140.012328,42.8821377 C140.57341,42.8821377 141.046675,43.0072525 141.431535,43.2568918 L141.072608,44.1008262 C140.750221,43.9125639 140.412511,43.819318 140.058888,43.819318 C139.601535,43.819318 139.185439,43.9757115 138.811187,44.2879082" id="Fill-15" fill="#000066"></path>
            <path d="M142.554348,47.7314557 C142.034522,48.0389311 141.626087,48.4626689 141.330222,49.0038492 C141.033768,49.5456197 140.885246,50.1540787 140.885246,50.8315869 C140.885246,51.6849639 141.137498,52.3772262 141.642,52.9083738 C142.146502,53.4395213 142.814261,53.7050951 143.646454,53.7050951 C144.280029,53.7050951 144.857024,53.5540131 145.37744,53.2518492 C145.897266,52.9502754 146.305111,52.5283082 146.601565,51.9871279 C146.898019,51.4459475 147.045952,50.8315869 147.045952,50.1440459 C147.045952,49.2906689 146.7937,48.5984066 146.289787,48.0666689 C145.785285,47.5361115 145.117527,47.2705377 144.285923,47.2705377 C143.651169,47.2705377 143.074174,47.4239803 142.554348,47.7314557 M146.336348,46.8255541 C146.902734,47.1430623 147.342406,47.5827344 147.654184,48.1451607 C147.966551,48.7069967 148.122145,49.3532262 148.122145,50.0814885 C148.122145,50.9460787 147.921758,51.7215541 147.521575,52.4085049 C147.121391,53.0960459 146.572686,53.6348656 145.876638,54.0249639 C145.18,54.4150623 144.404976,54.6104066 143.552155,54.6104066 C142.814261,54.6104066 142.164184,54.4522426 141.603101,54.1347344 C141.04143,53.8172262 140.604705,53.3763738 140.292928,52.8145377 C139.98115,52.2521115 139.824966,51.6070623 139.824966,50.8782098 C139.824966,50.0142098 140.024763,49.2387344 140.425536,48.5511934 C140.82572,47.8642426 141.371478,47.325423 142.063401,46.9347344 C142.754145,46.5440459 143.526222,46.3492918 144.379043,46.3492918 C145.117527,46.3492918 145.769961,46.5080459 146.336348,46.8255541" id="Fill-17" fill="#000066"></path>
            <path d="M153.268659,46.8410164 C153.83033,46.5235082 154.45919,46.3600328 155.155828,46.3494098 L155.030881,47.3644918 C154.17806,47.3538689 153.432504,47.606459 152.793036,48.1216721 C152.153567,48.6368852 151.703876,49.3320984 151.443963,50.2067213 L150.570514,54.5792459 L149.525557,54.5792459 L151.147509,46.3960328 L152.208379,46.3960328 L151.833538,48.2231803 C152.229007,47.6194426 152.706987,47.1585246 153.268659,46.8410164" id="Fill-19" fill="#000066"></path>
            <path d="M169.363877,46.9972328 C169.863075,47.4398557 170.112969,48.0618885 170.112969,48.8633311 C170.112969,49.1241836 170.081143,49.4051016 170.019259,49.7072656 L169.036186,54.579659 L167.99123,54.579659 L168.927153,49.8158557 C168.968998,49.608118 168.989626,49.3897574 168.989626,49.1601836 C168.989626,48.5664787 168.80751,48.1061508 168.443868,47.7780197 C168.079636,47.4504787 167.570418,47.285823 166.915626,47.285823 C166.094042,47.2970361 165.384438,47.5513967 164.786225,48.0512656 C164.188602,48.5511344 163.785471,49.222741 163.578013,50.0660852 L162.68865,54.579659 L161.62837,54.579659 L162.579616,49.8158557 C162.620872,49.608118 162.64209,49.3897574 162.64209,49.1601836 C162.64209,48.5664787 162.459974,48.1061508 162.095742,47.7780197 C161.7321,47.4504787 161.222882,47.285823 160.5675,47.285823 C159.714679,47.2970361 158.98209,47.5673311 158.368554,48.0978885 C157.755017,48.6296262 157.360138,49.3425443 157.183327,50.237823 L156.325201,54.579659 L155.280244,54.579659 L156.886872,46.3958557 L157.947742,46.3958557 L157.604138,48.1144131 C157.96837,47.5413639 158.42808,47.1046426 158.985037,46.8018885 C159.540814,46.5003148 160.172621,46.3445115 160.879278,46.3332984 C161.711471,46.3332984 162.371568,46.5180197 162.860157,46.8874623 C163.348747,47.2574951 163.634592,47.7809705 163.718283,48.4578885 C164.539278,47.0621508 165.714486,46.3545443 167.242728,46.3332984 C168.158022,46.3332984 168.864679,46.5546098 169.363877,46.9972328" id="Fill-21" fill="#000066"></path>
            <path d="M174.143861,48.0046426 C173.52502,48.5145443 173.127194,49.1861508 172.950972,50.0188721 L178.908344,50.0188721 C178.918953,49.1548721 178.697938,48.4755934 178.2453,47.9810361 C177.793252,47.4864787 177.156141,47.2392 176.335146,47.2392 C175.492933,47.2392 174.762112,47.494741 174.143861,48.0046426 Z M172.857262,50.8468721 L172.857262,50.8940852 C172.857262,51.7580852 173.114228,52.4503475 173.62875,52.9708721 C174.143861,53.4913967 174.832247,53.751659 175.695677,53.751659 C176.194286,53.751659 176.667552,53.6684459 177.114885,53.5014295 C177.561629,53.3355934 177.957098,53.0959869 178.300112,52.7837902 L178.79931,53.470741 C178.393822,53.8449049 177.920557,54.1317246 177.380102,54.3294295 C176.839059,54.5277246 176.262064,54.626282 175.649117,54.626282 C174.890006,54.626282 174.221658,54.4698885 173.644663,54.1576918 C173.067668,53.8449049 172.620334,53.4081836 172.303252,52.8457574 C171.98617,52.2839213 171.827629,51.6329705 171.827629,50.8940852 C171.827629,50.040118 172.025069,49.2675934 172.420537,48.574741 C172.815416,47.8824787 173.358228,47.3383475 174.050151,46.9423475 C174.741484,46.5469377 175.502953,46.3492328 176.335146,46.3492328 C177.416054,46.3492328 178.271233,46.6720525 178.900682,47.3176918 C179.529542,47.9633311 179.844267,48.8273311 179.844267,49.910282 C179.844267,50.1705443 179.818334,50.482741 179.76647,50.8468721 L172.857262,50.8468721 Z" id="Fill-23" fill="#000066"></path>
            <path d="M191.011215,53.2596393 C191.54165,52.9315082 191.960104,52.4865246 192.266578,51.9240984 C192.573051,51.3622623 192.726877,50.7479016 192.726877,50.0816066 C192.726877,49.2488852 192.472269,48.5725574 191.962462,48.0514426 C191.453244,47.530918 190.787843,47.2706557 189.966259,47.2706557 C189.332095,47.2706557 188.749795,47.4347213 188.21936,47.7628525 C187.689515,48.0903934 187.268114,48.535377 186.956336,49.0978033 C186.644558,49.6596393 186.488375,50.274 186.488375,50.9402951 C186.488375,51.7736066 186.74593,52.4505246 187.260452,52.9710492 C187.774974,53.4915738 188.448037,53.7518361 189.28023,53.7518361 C189.903786,53.7518361 190.48137,53.5877705 191.011215,53.2596393 M187.120182,54.1814754 C186.584443,53.874 186.168935,53.4443607 185.872481,52.8925574 C185.576027,52.3407541 185.427505,51.7110492 185.427505,51.0034426 C185.427505,50.1388525 185.624945,49.3503934 186.020414,48.6368852 C186.415293,47.9239672 186.951032,47.3621311 187.627042,46.9507869 C188.302462,46.5388525 189.050964,46.3334754 189.872549,46.3334754 C190.694133,46.3334754 191.387824,46.5364918 191.9548,46.9425246 C192.521776,47.3485574 192.898385,47.9109836 193.085805,48.6292131 L194.223882,42.9919672 L195.269428,42.9919672 L192.960858,54.5792459 L191.915901,54.5792459 L192.243592,53.0017377 C191.848124,53.5228525 191.364839,53.9265246 190.793148,54.2121639 C190.220868,54.4989836 189.607921,54.6418033 188.952539,54.6418033 C188.26651,54.6418033 187.655331,54.4883607 187.120182,54.1814754" id="Fill-25" fill="#000066"></path>
            <path d="M198.668985,43.1634689 C198.793931,43.2779607 198.856405,43.423141 198.856405,43.6001902 C198.856405,43.7253049 198.838134,43.8297639 198.801593,43.912977 C198.765052,43.9961902 198.700221,44.1213049 198.606511,44.2877311 L197.671178,45.9897639 L197.047033,45.9897639 L197.810859,44.3036656 C197.592791,44.1785508 197.483757,43.9861574 197.483757,43.7253049 C197.483757,43.5276 197.55625,43.3558623 197.701825,43.2100918 C197.8474,43.0643213 198.024212,42.9917311 198.23226,42.9917311 C198.398463,42.9917311 198.544627,43.048977 198.668985,43.1634689" id="Fill-27" fill="#000066"></path>
            <path d="M201.281494,48.0046426 C200.662653,48.5145443 200.264827,49.1861508 200.088605,50.0188721 L206.045977,50.0188721 C206.056586,49.1548721 205.835571,48.4755934 205.382933,47.9810361 C204.930885,47.4864787 204.293774,47.2392 203.472779,47.2392 C202.630566,47.2392 201.899745,47.494741 201.281494,48.0046426 Z M199.994895,50.8468721 L199.994895,50.8940852 C199.994895,51.7580852 200.251861,52.4503475 200.766383,52.9708721 C201.281494,53.4913967 201.96988,53.751659 202.83331,53.751659 C203.331919,53.751659 203.805185,53.6684459 204.252518,53.5014295 C204.699262,53.3355934 205.09473,53.0959869 205.437745,52.7837902 L205.936943,53.470741 C205.531455,53.8449049 205.058189,54.1317246 204.517735,54.3294295 C203.976692,54.5277246 203.399697,54.626282 202.78675,54.626282 C202.027639,54.626282 201.359291,54.4698885 200.782296,54.1576918 C200.2053,53.8449049 199.757967,53.4081836 199.440885,52.8457574 C199.123803,52.2839213 198.965262,51.6329705 198.965262,50.8940852 C198.965262,50.040118 199.162701,49.2675934 199.55817,48.574741 C199.953049,47.8824787 200.495861,47.3383475 201.187784,46.9423475 C201.879117,46.5469377 202.640586,46.3492328 203.472779,46.3492328 C204.553687,46.3492328 205.408866,46.6720525 206.038315,47.3176918 C206.667175,47.9633311 206.9819,48.8273311 206.9819,49.910282 C206.9819,50.1705443 206.955967,50.482741 206.904102,50.8468721 L199.994895,50.8468721 Z" id="Fill-29" fill="#000066"></path>
            <path d="M208.931188,54.2751344 C208.296435,53.9989377 207.808435,53.6318557 207.464831,53.1738885 L207.995266,52.4710033 C208.317063,52.8670033 208.743768,53.1868721 209.274203,53.4312 C209.804638,53.676118 210.3557,53.798282 210.927391,53.798282 C211.478454,53.798282 211.933449,53.6660852 212.292377,53.4005115 C212.650715,53.1343475 212.829884,52.7885115 212.829884,52.361823 C212.829884,52.0077246 212.684309,51.7244459 212.393749,51.5102164 C212.10201,51.2971672 211.665874,51.0705443 211.083575,50.8315279 C210.605005,50.633823 210.217787,50.4514623 209.921333,50.2844459 C209.624879,50.1180197 209.373217,49.899659 209.165169,49.6287738 C208.956531,49.3584787 208.853391,49.0197246 208.853391,48.6136918 C208.853391,47.9167082 209.115662,47.3560525 209.640792,46.9346754 C210.165333,46.5132984 210.838986,46.3020197 211.66057,46.3020197 C212.232261,46.3020197 212.775662,46.3940852 213.290184,46.5752656 C213.805295,46.7582164 214.239072,47.0001836 214.592106,47.3023475 L214.062261,48.0512656 C213.729266,47.7915934 213.347353,47.5826754 212.915932,47.4268721 C212.484512,47.2704787 212.055449,47.192577 211.629333,47.192577 C211.119527,47.192577 210.701072,47.3123803 210.373971,47.5513967 C210.04628,47.7915934 209.882435,48.1091016 209.882435,48.5045115 C209.882435,48.8479869 210.022705,49.1212328 210.303836,49.3242492 C210.584377,49.5272656 211.021101,49.748577 211.61342,49.9875934 C212.10201,50.1858885 212.499836,50.3682492 212.806899,50.5346754 C213.113372,50.7011016 213.373285,50.9247738 213.586638,51.206282 C213.799401,51.4872 213.906077,51.8359869 213.906077,52.2520525 C213.906077,52.9814951 213.625536,53.5698885 213.063865,54.0172328 C212.502783,54.464577 211.790232,54.6888393 210.927391,54.6888393 C210.230754,54.6888393 209.565353,54.550741 208.931188,54.2751344" id="Fill-31" fill="#000066"></path>
            <path d="M216.167733,54.2751344 C215.53298,53.9989377 215.04498,53.6318557 214.701376,53.1738885 L215.231811,52.4710033 C215.553608,52.8670033 215.980313,53.1868721 216.510748,53.4312 C217.041183,53.676118 217.592245,53.798282 218.163936,53.798282 C218.714999,53.798282 219.169994,53.6660852 219.528922,53.4005115 C219.88726,53.1343475 220.066429,52.7885115 220.066429,52.361823 C220.066429,52.0077246 219.920854,51.7244459 219.630294,51.5102164 C219.338555,51.2971672 218.902419,51.0705443 218.32012,50.8315279 C217.84155,50.633823 217.454332,50.4514623 217.157878,50.2844459 C216.861424,50.1180197 216.609762,49.899659 216.401714,49.6287738 C216.193076,49.3584787 216.089936,49.0197246 216.089936,48.6136918 C216.089936,47.9167082 216.352207,47.3560525 216.877337,46.9346754 C217.401878,46.5132984 218.07553,46.3020197 218.897115,46.3020197 C219.468806,46.3020197 220.012207,46.3940852 220.526729,46.5752656 C221.04184,46.7582164 221.475617,47.0001836 221.828651,47.3023475 L221.298806,48.0512656 C220.965811,47.7915934 220.583898,47.5826754 220.152477,47.4268721 C219.721057,47.2704787 219.291994,47.192577 218.865878,47.192577 C218.356071,47.192577 217.937617,47.3123803 217.610516,47.5513967 C217.282825,47.7915934 217.11898,48.1091016 217.11898,48.5045115 C217.11898,48.8479869 217.25925,49.1212328 217.540381,49.3242492 C217.820922,49.5272656 218.257646,49.748577 218.849965,49.9875934 C219.338555,50.1858885 219.736381,50.3682492 220.043443,50.5346754 C220.349917,50.7011016 220.60983,50.9247738 220.823183,51.206282 C221.035946,51.4872 221.142622,51.8359869 221.142622,52.2520525 C221.142622,52.9814951 220.862081,53.5698885 220.30041,54.0172328 C219.739328,54.464577 219.026777,54.6888393 218.163936,54.6888393 C217.467299,54.6888393 216.801898,54.550741 216.167733,54.2751344" id="Fill-33" fill="#000066"></path>
            <path d="M228.33243,53.2596393 C228.862865,52.9315082 229.281319,52.4865246 229.587792,51.9240984 C229.894266,51.3622623 230.048092,50.7479016 230.048092,50.0816066 C230.048092,49.2488852 229.793483,48.5725574 229.283676,48.0514426 C228.774459,47.530918 228.109058,47.2706557 227.287473,47.2706557 C226.653309,47.2706557 226.07101,47.4347213 225.540575,47.7628525 C225.010729,48.0903934 224.589329,48.535377 224.277551,49.0978033 C223.965773,49.6596393 223.809589,50.274 223.809589,50.9402951 C223.809589,51.7736066 224.067145,52.4505246 224.581667,52.9710492 C225.096188,53.4915738 225.769251,53.7518361 226.601444,53.7518361 C227.225,53.7518361 227.802585,53.5877705 228.33243,53.2596393 M224.441396,54.1814754 C223.905657,53.874 223.49015,53.4443607 223.193696,52.8925574 C222.897242,52.3407541 222.74872,51.7110492 222.74872,51.0034426 C222.74872,50.1388525 222.946159,49.3503934 223.341628,48.6368852 C223.736507,47.9239672 224.272246,47.3621311 224.948256,46.9507869 C225.623676,46.5388525 226.372179,46.3334754 227.193763,46.3334754 C228.015348,46.3334754 228.709039,46.5364918 229.276014,46.9425246 C229.84299,47.3485574 230.219599,47.9109836 230.407019,48.6292131 L230.859068,46.3960328 L231.904024,46.3960328 L230.282072,54.5792459 L229.237116,54.5792459 L229.564807,53.0017377 C229.169338,53.5228525 228.686053,53.9265246 228.114362,54.2121639 C227.542082,54.4989836 226.929135,54.6418033 226.273754,54.6418033 C225.587725,54.6418033 224.976546,54.4883607 224.441396,54.1814754" id="Fill-35" fill="#000066"></path>
            <path d="M236.512854,43.4677574 C236.621888,43.5875607 236.6767,43.7356918 236.6767,43.912741 C236.6767,44.1523475 236.587704,44.3583148 236.411482,44.5300525 C236.234671,44.7017902 236.026622,44.7873639 235.787927,44.7873639 C235.621134,44.7873639 235.480864,44.7277574 235.366526,44.6079541 C235.251598,44.4881508 235.195018,44.3400197 235.195018,44.1629705 C235.195018,43.9233639 235.283424,43.7179869 235.460236,43.5462492 C235.636458,43.3739213 235.844506,43.2877574 236.083791,43.2877574 C236.260603,43.2877574 236.403231,43.3485443 236.512854,43.4677574 Z M236.005994,46.3961508 L234.384043,54.5793639 L233.339086,54.5793639 L234.961038,46.3961508 L236.005994,46.3961508 Z" id="Fill-37" fill="#000066"></path>
            <path d="M238.048993,54.2751344 C237.41424,53.9989377 236.92624,53.6318557 236.582636,53.1738885 L237.113071,52.4710033 C237.434868,52.8670033 237.861573,53.1868721 238.392008,53.4312 C238.922443,53.676118 239.473505,53.798282 240.045196,53.798282 C240.596259,53.798282 241.051254,53.6660852 241.410182,53.4005115 C241.76852,53.1343475 241.947689,52.7885115 241.947689,52.361823 C241.947689,52.0077246 241.802114,51.7244459 241.511554,51.5102164 C241.219814,51.2971672 240.783679,51.0705443 240.20138,50.8315279 C239.72281,50.633823 239.335592,50.4514623 239.039138,50.2844459 C238.742684,50.1180197 238.491022,49.899659 238.282974,49.6287738 C238.074336,49.3584787 237.971196,49.0197246 237.971196,48.6136918 C237.971196,47.9167082 238.233467,47.3560525 238.758597,46.9346754 C239.283138,46.5132984 239.95679,46.3020197 240.778375,46.3020197 C241.350066,46.3020197 241.893467,46.3940852 242.407988,46.5752656 C242.9231,46.7582164 243.356877,47.0001836 243.709911,47.3023475 L243.180066,48.0512656 C242.847071,47.7915934 242.465157,47.5826754 242.033737,47.4268721 C241.602317,47.2704787 241.173254,47.192577 240.747138,47.192577 C240.237331,47.192577 239.818877,47.3123803 239.491776,47.5513967 C239.164085,47.7915934 239.00024,48.1091016 239.00024,48.5045115 C239.00024,48.8479869 239.14051,49.1212328 239.421641,49.3242492 C239.702182,49.5272656 240.138906,49.748577 240.731225,49.9875934 C241.219814,50.1858885 241.617641,50.3682492 241.924703,50.5346754 C242.231177,50.7011016 242.49109,50.9247738 242.704443,51.206282 C242.917206,51.4872 243.023882,51.8359869 243.023882,52.2520525 C243.023882,52.9814951 242.743341,53.5698885 242.18167,54.0172328 C241.620587,54.464577 240.908037,54.6888393 240.045196,54.6888393 C239.348558,54.6888393 238.683157,54.550741 238.048993,54.2751344" id="Fill-39" fill="#000066"></path>
            <path d="M31.6793333,49.5855148 C31.5420097,49.5855148 31.4017391,49.5560066 31.2691304,49.4946295 C30.7805411,49.2668262 30.5689565,48.6866951 30.7958647,48.1974492 L50.2917005,6.22617049 C50.5186087,5.73751475 51.0985507,5.52682623 51.5859614,5.75285902 C52.0745507,5.98007213 52.2861353,6.56079344 52.0592271,7.04944918 L32.5633913,49.0207279 C32.3983671,49.3765967 32.0471014,49.5855148 31.6793333,49.5855148" id="Fill-41" fill="#000066"></path>
            <path d="M52.770658,4.32908852 C52.6327449,4.32908852 52.4924744,4.29958033 52.3592763,4.23761311 C51.8712763,4.00921967 51.6602812,3.42849836 51.8877787,2.93984262 L52.9952087,0.563842623 C53.2227063,0.0751868852 53.8026483,-0.136091803 54.2906483,0.0917114754 C54.7786483,0.320104918 54.9896435,0.90082623 54.7615565,1.38948197 L53.6547159,3.76548197 C53.4891024,4.12017049 53.1378367,4.32908852 52.770658,4.32908852" id="Fill-43" fill="#000066"></path>
            <path d="M29.8122029,71.9362623 C29.6742899,71.9362623 29.5340193,71.9067541 29.4008213,71.8447869 C28.9128213,71.6163934 28.7018261,71.0356721 28.9293237,70.5470164 L30.0367536,68.1710164 C30.2642512,67.6817705 30.8447826,67.471082 31.3321932,67.6988852 C31.8201932,67.9272787 32.0311884,68.508 31.8031014,68.9966557 L30.6962609,71.3726557 C30.5306473,71.7273443 30.1793816,71.9362623 29.8122029,71.9362623" id="Fill-45" fill="#000066"></path>
            <path d="M32.6543314,66.178682 C32.5175971,66.178682 32.3785053,66.1497639 32.246486,66.088977 C31.7578966,65.8629443 31.544544,65.2828131 31.7702734,64.792977 L43.4669498,39.4147475 C43.6926792,38.9255016 44.2726213,38.7118623 44.7606213,38.9378951 C45.2492106,39.1639279 45.4625633,39.7434689 45.2368338,40.2333049 L33.5395681,65.6115344 C33.3757227,65.9685836 33.0226889,66.178682 32.6543314,66.178682" id="Fill-47" fill="#000066"></path>
            <path d="M35.5790309,39.8247934 L7.31098261,39.8247934 C6.77229662,39.8247934 6.33616135,39.387482 6.33616135,38.8486623 C6.33616135,38.3098426 6.77229662,37.871941 7.31098261,37.871941 L35.5790309,37.871941 C36.1177169,37.871941 36.5538522,38.3098426 36.5538522,38.8486623 C36.5538522,39.387482 36.1177169,39.8247934 35.5790309,39.8247934" id="Fill-49" fill="#000066"></path>
            <path d="M69.69583,48.6092066 L41.4277816,48.6092066 C40.8890957,48.6092066 40.4529604,48.1718951 40.4529604,47.6330754 C40.4529604,47.0942557 40.8890957,46.6563541 41.4277816,46.6563541 L69.69583,46.6563541 C70.2345159,46.6563541 70.6706512,47.0942557 70.6706512,47.6330754 C70.6706512,48.1718951 70.2345159,48.6092066 69.69583,48.6092066" id="Fill-51" fill="#000066"></path>
            <path d="M130.000253,19.8024197 C131.160137,20.8847803 131.740079,22.3247803 131.740079,24.1241902 C131.740079,24.6936984 131.671712,25.3086492 131.534978,25.9684525 L129.386128,36.7985508 L124.131876,36.7985508 L126.144582,26.7209115 C126.212949,26.3792066 126.247132,26.0487148 126.247132,25.7300262 C126.247132,24.8188131 125.962466,24.0958623 125.394311,23.5605836 C124.825567,23.0253049 124.052311,22.7579607 123.074543,22.7579607 C121.914659,22.7579607 120.885026,23.1734361 119.986823,24.0043869 C119.088031,24.8359279 118.502785,25.9236 118.229905,27.2668131 L116.284978,36.7985508 L111.0655,36.7985508 L113.044021,26.7209115 C113.112388,26.3792066 113.146572,26.0487148 113.146572,25.7300262 C113.146572,24.8188131 112.867799,24.0958623 112.310253,23.5605836 C111.753297,23.0253049 110.974147,22.7579607 109.973393,22.7579607 C108.813509,22.7579607 107.784466,23.1734361 106.886263,24.0043869 C105.986881,24.8359279 105.401635,25.9236 105.128756,27.2668131 L103.218601,36.7985508 L97.9643498,36.7985508 L101.580736,18.4184852 L106.868582,18.4184852 L106.357007,20.9467475 C107.858137,19.1018951 109.803065,18.180059 112.1912,18.180059 C113.80549,18.180059 115.153384,18.5382885 116.234292,19.2559279 C117.314021,19.9735672 118.036591,20.9703541 118.400234,22.2451082 C120.174833,19.5350754 122.460417,18.180059 125.258166,18.180059 C127.259084,18.180059 128.840369,18.7212393 130.000253,19.8024197" id="Fill-53" fill="#000066"></path>
            <path d="M141.156299,30.6835672 C141.087931,31.024682 141.053748,31.3103213 141.053748,31.5369443 C141.053748,31.9252721 141.144511,32.1979279 141.327216,32.3572721 C141.508743,32.5166164 141.781622,32.5962885 142.145854,32.5962885 C142.964492,32.5962885 143.908076,32.346059 144.977197,31.8450098 L145.625506,35.8416 C144.875236,36.2293377 144.078405,36.5250098 143.237371,36.7297967 C142.395748,36.9351738 141.57711,37.0378623 140.780869,37.0378623 C139.256753,37.0378623 138.034985,36.6395016 137.113796,35.8416 C136.192608,35.0448787 135.731719,33.940682 135.731719,32.5278295 C135.731719,32.0273705 135.7771,31.5599607 135.868453,31.1273705 L137.539912,22.8945836 L135.015632,22.8945836 L135.697535,19.238518 L138.256588,19.238518 L139.279738,14.1825836 L144.465622,14.1825836 L143.441883,19.238518 L148.457439,19.238518 L147.774946,22.8945836 L142.725796,22.8945836 L141.156299,30.6835672 Z" id="Fill-55" fill="#000066"></path>
            <path d="M160.636693,32.0840852 C161.45533,31.5600197 162.10364,30.8488721 162.581031,29.9488721 C163.059012,29.0494623 163.297707,28.0644787 163.297707,26.9939213 C163.297707,25.6955607 162.933475,24.659823 162.20619,23.8849377 C161.477727,23.1112328 160.511157,22.7234951 159.305891,22.7234951 C158.351108,22.7234951 157.463514,22.9855279 156.644876,23.5095934 C155.826239,24.0330689 155.177929,24.7448066 154.700538,25.6442164 C154.222557,26.5442164 153.983862,27.5179869 153.983862,28.5649377 C153.983862,29.8863148 154.347504,30.9344459 155.075379,31.7081508 C155.803253,32.4830361 156.769823,32.8695934 157.975678,32.8695934 C158.930461,32.8695934 159.817466,32.6081508 160.636693,32.0840852 M152.19276,35.978577 C151.089456,35.2951672 150.230741,34.3385115 149.616615,33.1086098 C149.00249,31.8787082 148.695427,30.4670361 148.695427,28.8730033 C148.695427,26.8912328 149.122132,25.0871016 149.974954,23.4582492 C150.827775,21.8299869 152.004751,20.548741 153.505881,19.6145115 C155.007601,18.6808721 156.667272,18.2140525 158.487253,18.2140525 C159.942413,18.2140525 161.170664,18.5162164 162.172007,19.1193639 C163.172171,19.7231016 163.934229,20.6053967 164.457591,21.7674295 L165.1059,18.4188393 L170.325379,18.4188393 L166.675398,36.7983148 L161.45533,36.7983148 L161.966905,34.4754295 C160.283659,36.1609377 158.29335,37.0036918 155.996567,37.0036918 C154.563804,37.0036918 153.295475,36.6619869 152.19276,35.978577" id="Fill-57" fill="#000066"></path>
            <path d="M6.82351304,38.8484852 C6.82351304,37.2314361 5.5139285,35.9200918 3.89904928,35.9200918 C2.28417005,35.9200918 0.974585507,37.2314361 0.974585507,38.8484852 C0.974585507,40.4655344 2.28417005,41.7762885 3.89904928,41.7762885 C5.5139285,41.7762885 6.82351304,40.4655344 6.82351304,38.8484852" id="Fill-59" fill="#FFFFFF"></path>
            <g id="Group-63" transform="translate(0.000000, 34.755934)">
                <mask id="mask-2" fill="white">
                    <use xlink:href="#path-1"></use>
                </mask>
                <g id="Clip-62"></g>
                <path d="M3.89910821,2.14052459 C2.82409372,2.14052459 1.9494657,3.0157377 1.9494657,4.09278689 C1.9494657,5.16865574 2.82409372,6.04386885 3.89910821,6.04386885 C4.97412271,6.04386885 5.84875072,5.16865574 5.84875072,4.09278689 C5.84875072,3.0157377 4.97412271,2.14052459 3.89910821,2.14052459 M3.89910821,7.99672131 C1.74907923,7.99672131 -0.000176811594,6.24511475 -0.000176811594,4.09278689 C-0.000176811594,1.93927869 1.74907923,0.187672131 3.89910821,0.187672131 C6.0491372,0.187672131 7.79839324,1.93927869 7.79839324,4.09278689 C7.79839324,6.24511475 6.0491372,7.99672131 3.89910821,7.99672131" id="Fill-61" fill="#000066" mask="url(#mask-2)"></path>
            </g>
            <path d="M75.5443449,47.6328984 C75.5443449,46.0158492 74.2353498,44.7045049 72.6204705,44.7045049 C71.0050019,44.7045049 69.6960068,46.0158492 69.6960068,47.6328984 C69.6960068,49.2499475 71.0050019,50.5612918 72.6204705,50.5612918 C74.2353498,50.5612918 75.5443449,49.2499475 75.5443449,47.6328984" id="Fill-64" fill="#FFFFFF"></path>
            <path d="M72.6202348,45.6808721 C71.5452203,45.6808721 70.6705923,46.5560852 70.6705923,47.6331344 C70.6705923,48.7095934 71.5452203,49.5848066 72.6202348,49.5848066 C73.6952493,49.5848066 74.5698773,48.7095934 74.5698773,47.6331344 C74.5698773,46.5560852 73.6952493,45.6808721 72.6202348,45.6808721 M72.6202348,51.537659 C70.4702058,51.537659 68.7209498,49.7860525 68.7209498,47.6331344 C68.7209498,45.4796262 70.4702058,43.7280197 72.6202348,43.7280197 C74.7702638,43.7280197 76.5189304,45.4796262 76.5189304,47.6331344 C76.5189304,49.7860525 74.7702638,51.537659 72.6202348,51.537659" id="Fill-66" fill="#000066"></path>
        </g>
    </g>
</svg>