<?xml version="1.0" encoding="UTF-8" standalone="no"?>
<svg width="406px" height="72px" viewBox="0 0 406 72" version="1.1" xmlns="http://www.w3.org/2000/svg" xmlns:xlink="http://www.w3.org/1999/xlink">
    <!-- Generator: Sketch 49.2 (51160) - http://www.bohemiancoding.com/sketch -->
    <title>Logo_Mta_Zodiac_White</title>
    <desc>Created with Sketch.</desc>
    <defs>
        <polygon id="path-1" points="0.51688464 0.0632195122 3.55024083 0.0632195122 3.55024083 4.3571122 0.51688464 4.3571122"></polygon>
        <polygon id="path-3" points="0.543608252 0.389487127 3.57732483 0.389487127 3.57732483 4.68292683 0.543608252 4.68292683"></polygon>
        <polygon id="path-5" points="0 0.410976539 51.7422129 0.410976539 51.7422129 43.9777171 0 43.9777171"></polygon>
    </defs>
    <g id="Maquettes" stroke="none" stroke-width="1" fill="none" fill-rule="evenodd">
        <g id="Desktop---Navigation" transform="translate(-416.000000, -65.000000)">
            <g id="Logo_Mta_Zodiac_White" transform="translate(416.000000, 65.000000)">
                <g id="Logo/Zodiac_White" transform="translate(286.000000, 23.000000)">
                    <g id="Zodiac_Logo_Decomposer">
                        <g id="Texte" transform="translate(0.000000, 7.000000)" fill="#FFFFFF" fill-rule="nonzero">
                            <path d="M26.32,22.24 L24.4,20 C25.28,19.68 26.8,19.2 26.8,17.44 C26.8,16.72 26.4,15.84 25.52,15.28 C24.96,14.88 24,14.48 22.08,14.48 C21.12,14.48 20.72,14.48 19.2,14.48 C19.44,14.88 19.6,15.2 19.6,15.92 L19.6,22.08 C19.6,23.44 19.52,23.52 19.2,24.32 L22,24.32 C21.68,23.68 21.68,23.36 21.68,22.08 L21.68,19.76 L21.84,19.76 L25.36,24.32 L28.32,24.32 C27.84,23.92 27.2,23.36 26.32,22.24 M22.4,19.36 C22.16,19.36 21.76,19.36 21.76,19.36 L21.76,15.84 C23.12,15.76 24.56,16.08 24.56,17.6 C24.56,18.56 23.6,19.28 22.4,19.36" id="Shape"></path>
                            <path d="M42.4,16.88 C42.4,16.24 43.12,15.68 44.16,15.68 C45.2,15.68 46,16.16 46.56,16.48 L46.64,14.72 C46.08,14.64 45.12,14.4 44.08,14.4 C41.92,14.4 40.4,15.68 40.4,17.36 C40.4,20.24 45.2,20.08 45.2,21.92 C45.2,22.8 44.32,23.36 43.2,23.36 C41.84,23.36 41.2,22.88 40.4,22.24 L40.32,24.16 C40.8,24.24 42,24.64 43.44,24.64 C45.68,24.64 47.28,23.28 47.28,21.52 C47.28,18.72 42.4,18.64 42.4,16.88" id="Shape"></path>
                            <path d="M51.36,20.4 C53.84,20.4 55.44,19.28 55.44,17.52 C55.44,15.76 53.68,14.64 51.12,14.64 L47.92,14.64 C48.16,15.04 48.32,15.28 48.32,16.4 L48.32,22.64 C48.32,23.84 48.16,24 47.92,24.4 L50.8,24.4 C50.56,24 50.4,23.76 50.4,22.64 L50.4,20.4 C50.72,20.32 51.04,20.4 51.36,20.4 Z M50.48,15.76 L50.96,15.76 C52.48,15.76 53.28,16.64 53.28,17.6 C53.28,18.64 52.48,19.52 50.88,19.52 L50.48,19.52 L50.48,15.76 Z" id="Shape"></path>
                            <path d="M78.24,23.12 C78,23.12 77.2,23.12 76.96,23.12 L76.96,20.08 C77.28,20.08 77.84,20.08 78.16,20.08 C78.8,20.08 79.6,20.16 80.24,20.32 L80.48,18.8 L76.96,18.8 L76.96,15.92 C77.2,15.92 77.84,15.92 78.08,15.92 C79.6,15.92 80.08,16 80.8,16.24 L81.04,14.64 L74.4,14.64 C74.64,15.04 74.8,15.28 74.8,16.4 L74.8,22.64 C74.8,23.84 74.64,24 74.4,24.4 L80.88,24.4 L81.44,22.72 C80.72,22.88 80.08,23.12 78.24,23.12" id="Shape"></path>
                            <path d="M14,23.04 L14,20 C14.32,20 14.88,20 15.2,20 C15.84,20 16.64,20.08 17.28,20.24 L17.52,18.72 L14,18.72 L14,15.84 C14.24,15.84 14.88,15.84 15.12,15.84 C16.64,15.84 17.04,15.92 17.84,16.16 L18.08,14.56 L11.44,14.56 C11.68,14.96 11.84,15.2 11.84,16.32 L11.84,22.56 C11.84,23.76 11.68,23.92 11.44,24.32 L17.92,24.32 L18.48,22.64 C17.68,22.88 17.04,23.04 15.2,23.04 C15.04,23.12 14.24,23.12 14,23.04" id="Shape"></path>
                            <path d="M33.04,10.8 L33.84,8.88 C32.24,9.44 31.28,9.52 28.4,9.52 L33.84,0.96 L26.64,0.96 L25.84,2.88 C26.8,2.4 27.52,2.24 29.44,2.24 C29.84,2.24 30.4,2.24 30.64,2.24 L25.28,10.72 L33.04,10.72 L33.04,10.8 Z" id="Shape"></path>
                            <path d="M45.92,5.92 C45.92,3.04 43.28,0.64 39.92,0.64 C36.4,0.64 33.76,3.04 33.76,5.92 C33.76,8.8 36.48,11.12 39.76,11.12 C43.28,11.12 45.92,8.8 45.92,5.92 M40,9.84 C37.68,9.84 36.24,8.24 36.24,5.84 C36.24,3.6 37.52,2 39.76,2 C42,2 43.52,3.76 43.52,6 C43.52,8.08 42.08,9.84 40,9.84" id="Shape"></path>
                            <path d="M46.96,10.8 L49.76,10.8 C50.8,10.8 52.64,10.8 53.68,10.4 C56.08,9.52 57.04,7.76 57.04,6 C57.04,4.64 56.32,2.88 54.72,1.92 C53.76,1.36 52.64,1.04 50.32,1.04 L46.96,1.04 C47.2,1.44 47.36,1.68 47.36,2.8 L47.36,9.04 C47.36,10.16 47.2,10.4 46.96,10.8 Z M49.44,2.24 L50.72,2.24 C53.68,2.24 54.72,4.24 54.72,5.92 C54.72,8.32 53.2,9.52 50.48,9.52 C50.16,9.52 49.84,9.52 49.44,9.52 L49.44,2.24 Z" id="Shape"></path>
                            <path d="M58.08,10.8 L60.96,10.8 C60.72,10.4 60.56,10.16 60.56,9.04 L60.56,2.8 C60.56,1.6 60.72,1.44 60.96,1.04 L58.08,1.04 C58.32,1.44 58.48,1.68 58.48,2.8 L58.48,9.04 C58.48,10.16 58.32,10.4 58.08,10.8" id="Shape"></path>
                            <path d="M77.44,10.96 C79.52,10.96 80.8,10.32 81.44,10.32 L81.44,8.48 C80.72,9.04 79.84,9.68 77.84,9.68 C75.44,9.68 73.92,8.16 73.92,5.84 C73.92,3.52 75.44,2.08 78,2.08 C79.84,2.08 80.56,2.64 81.04,2.88 L81.2,1.04 C81.2,1.04 81.04,1.04 80.96,1.04 C80.56,1.04 79.68,0.8 78.16,0.8 C74.24,0.8 71.6,2.96 71.6,6.08 C71.52,8.64 73.92,10.96 77.44,10.96" id="Shape"></path>
                            <path d="M63.84,10.32 C63.84,10 64,9.6 64.16,9.28 L64.72,7.92 L68.56,7.92 L69.12,9.28 C69.28,9.6 69.36,9.92 69.36,10.24 C69.36,10.48 69.28,10.64 69.12,10.8 L72.16,10.8 C71.76,10.24 71.52,9.76 71.2,8.96 C71.2,8.96 68.56,2.72 68.32,2.16 C68.08,1.6 67.92,1.12 67.92,0.96 L65.28,0.96 L65.6,1.36 L62.4,8.96 C62.08,9.76 61.68,10.4 61.44,10.8 L63.92,10.8 C63.84,10.64 63.84,10.56 63.84,10.32 Z M66.64,2.88 L68.08,6.56 L65.2,6.56 L66.64,2.88 Z" id="Shape"></path>
                            <path d="M66.16,19.44 C66.16,17.12 67.68,15.68 70.24,15.68 C72.08,15.68 72.8,16.24 73.28,16.48 L73.44,14.64 C73.44,14.64 73.28,14.64 73.2,14.64 C72.8,14.64 71.92,14.4 70.4,14.4 C66.48,14.4 63.84,16.56 63.84,19.68 C63.84,22.32 66.24,24.64 69.76,24.64 C71.84,24.64 73.12,24 73.76,24 L73.76,22.16 C73.04,22.72 72.16,23.36 70.16,23.36 C67.68,23.28 66.16,21.76 66.16,19.44" id="Shape"></path>
                            <path d="M60.56,15.76 C60.32,15.2 60.16,14.72 60.16,14.56 L57.6,14.56 L57.92,14.96 L54.72,22.56 C54.4,23.36 54,24 53.76,24.4 L56.24,24.4 C56.16,24.24 56.16,24.16 56.16,23.92 C56.16,23.6 56.32,23.2 56.48,22.88 L57.04,21.52 L60.8,21.52 L61.36,22.88 C61.52,23.2 61.6,23.52 61.6,23.84 C61.6,24.08 61.52,24.24 61.36,24.4 L64.32,24.4 C63.92,23.84 63.68,23.36 63.36,22.56 C63.44,22.56 60.8,16.32 60.56,15.76 Z M58.88,16.48 L60.32,20.16 L57.44,20.16 L58.88,16.48 Z" id="Shape"></path>
                            <path d="M7.12,15.76 C6.88,15.2 6.72,14.72 6.72,14.56 L4.08,14.56 L4.4,14.96 L1.2,22.56 C0.88,23.36 0.48,24 0.24,24.4 L2.72,24.4 C2.64,24.24 2.64,24.16 2.64,23.92 C2.64,23.6 2.8,23.2 2.96,22.88 L3.52,21.52 L7.36,21.52 L7.92,22.88 C8.08,23.2 8.16,23.52 8.16,23.84 C8.16,24.08 8.08,24.24 7.92,24.4 L10.96,24.4 C10.56,23.84 10.32,23.36 10,22.56 C10,22.56 7.36,16.32 7.12,15.76 Z M5.52,16.48 L6.96,20.16 L4.08,20.16 L5.52,16.48 Z" id="Shape"></path>
                            <path d="M33.76,14.16 C30.24,14.16 27.6,16.56 27.6,19.52 C27.6,22.48 30.32,24.8 33.6,24.8 C37.04,24.8 39.76,22.4 39.76,19.52 C39.76,16.56 37.04,14.16 33.76,14.16 M33.76,23.44 C31.44,23.44 30,21.84 30,19.36 C30,17.04 31.28,15.44 33.52,15.44 C35.76,15.44 37.28,17.2 37.28,19.44 C37.28,21.76 35.84,23.44 33.76,23.44" id="Shape"></path>
                        </g>
                        <rect id="Rectangle-path" fill="#FFFFFF" fill-rule="nonzero" x="88" y="0" width="32" height="32"></rect>
                        <g id="Z" transform="translate(96.000000, 8.000000)" fill="#000066" fill-rule="nonzero">
                            <path d="M17.44,0.08 C19.92,0.32 22.08,1.04 24,2.24 L24,0.8 C22.16,0.16 20.32,0 19.04,0 C18.08,0 17.44,0.08 17.44,0.08 Z" id="Shape"></path>
                            <path d="M1.84,24 L3.36,24 C1.84,22.24 0.64,20.08 1.42108547e-14,17.52 C0.08,17.52 0.16,20.88 1.84,24 Z" id="Shape"></path>
                            <path d="M13.6,5.92 C13.92,5.28 14.88,3.6 14.56,2.48 C14.4,2 13.92,1.44 12.96,1.28 C12.64,1.36 12.32,1.44 12.24,1.44 C11.76,1.6 11.12,1.84 10.32,2.24 C8.88,2.88 6.96,4 5.2,5.68 C5.04,5.84 4.88,6 4.72,6.16 C3.76,7.12 3.04,8.16 2.4,9.12 C2.08,9.68 1.76,10.24 1.52,10.8 C0.88,12.4 0.8,13.76 1.44,14.48 C1.6,14.64 1.76,14.8 1.92,14.8 C2.32,15.04 2.8,15.12 3.12,15.12 L3.68,14.88 C5.52,14.16 7.84,12.88 9.92,10.8 C11.52,9.2 12.8,7.44 13.6,5.92 Z" id="Shape"></path>
                            <path d="M10,11.04 C12.32,8.72 13.84,6.08 14.64,4.4 C15.68,2.24 16.16,0.16 16.16,0.16 L1.28,0.16 C0.48,0.16 0.08,0.72 0.08,1.52 L0.08,8.4 C2.48,2.16 7.44,1.28 11.84,1.2 C11.92,1.2 12,1.2 12.08,1.2 C12.32,1.2 12.56,1.2 12.72,1.2 C12.8,1.2 12.8,1.2 12.88,1.2 C13.84,1.36 14.4,1.92 14.48,2.4 C14.8,3.6 13.92,5.28 13.52,5.84 C12.64,7.36 11.44,9.12 9.76,10.8 C7.68,12.88 5.36,14.08 3.52,14.88 L2.96,15.12 C3.12,15.12 3.36,15.12 3.44,15.12 L3.52,15.12 C5.44,14.48 7.92,13.12 10,11.04 Z" id="Shape"></path>
                            <path d="M16.24,14.88 L16.24,8 C13.84,14.16 8.72,15.36 3.68,15.2 C3.68,15.2 3.68,15.2 3.6,15.2 C3.52,15.2 3.28,15.2 3.12,15.2 C2.8,15.12 2.32,15.04 1.92,14.88 C1.76,14.8 1.6,14.64 1.44,14.56 C0.72,13.84 0.8,12.48 1.52,10.88 C1.76,10.32 2.08,9.76 2.4,9.2 C2.96,8.24 3.76,7.2 4.72,6.24 C4.88,6.08 5.04,5.92 5.2,5.76 C7.04,4.08 8.88,2.96 10.32,2.32 C11.12,1.92 11.76,1.68 12.24,1.52 C12.32,1.52 12.56,1.44 12.96,1.36 C12.88,1.36 12.88,1.36 12.8,1.36 C12.64,1.36 12.48,1.36 12.24,1.36 C12.16,1.36 12.16,1.36 12.08,1.36 C10.8,1.76 8.08,2.88 5.44,5.2 C5.12,5.52 4.8,5.76 4.48,6.08 C2.64,8 1.52,10 0.88,11.68 C0.32,13.04 0.16,14.24 0.08,14.96 C0.08,15.28 8.52651283e-14,15.52 8.52651283e-14,15.6 C8.52651283e-14,15.84 8.52651283e-14,16.08 8.52651283e-14,16.32 L15.04,16.32 C15.68,16.32 16.24,15.68 16.24,14.88 Z" id="Shape"></path>
                        </g>
                    </g>
                </g>
                <path d="M278,24 L262,56" id="/" stroke="#FFFFFF" stroke-linecap="round"></path>
                <g id="Logo/Mta_Blanc">
                    <path d="M55.127187,67.4358439 C47.2913794,67.4358439 43.1875214,58.1045268 39.9567126,49.3574049 C39.9105165,49.2321366 39.9742555,49.0928195 40.0993945,49.0465756 C40.2245335,48.999161 40.3637068,49.0635512 40.409903,49.1894049 C44.3482735,59.8512585 48.3585696,66.9523317 55.127187,66.9523317 C64.0582534,66.9523317 68.9462769,55.4662829 70.6338994,50.5275512 C70.676587,50.4005268 70.814006,50.3326244 70.9403146,50.3765268 C71.0672079,50.4204293 71.1344555,50.5579902 71.0911831,50.6844293 C69.3702292,55.7209171 64.3705162,67.4358439 55.127187,67.4358439" id="Fill-1" fill="#FFFFFF" opacity="0.5"></path>
                    <path d="M36.2897886,38.5877268 C36.1915486,38.5877268 36.0991563,38.5268488 36.062901,38.4290927 C32.0970468,27.6560195 28.0651144,20.4806049 21.2771999,20.4806049 C18.0323569,20.4806049 11.6643013,22.5375805 5.47459808,36.3129951 C5.41963048,36.4353366 5.27519432,36.4886049 5.15531816,36.4341659 C5.03310295,36.3797268 4.97930487,36.2363122 5.03368771,36.1139707 C7.73821086,30.0946537 13.4454856,19.9970927 21.2771999,19.9970927 C29.1346437,19.9970927 33.2636465,29.4249951 36.5166762,38.261678 C36.5628723,38.3869463 36.4985485,38.5262634 36.3734095,38.5725073 C36.3459257,38.5824585 36.3172724,38.5877268 36.2897886,38.5877268" id="Fill-3" fill="#FFFFFF" opacity="0.5"></path>
                    <path d="M101.51587,49.3849756 C102.197117,48.8119024 102.537448,48.0140488 102.537448,46.9914146 C102.537448,46.2995122 102.29945,45.7732683 101.825209,45.4115122 C101.350967,45.0503415 100.669719,44.8694634 99.7826358,44.8694634 L96.8892346,44.8694634 L95.8214597,50.244878 L98.6996571,50.244878 C99.8960796,50.244878 100.834622,49.9580488 101.51587,49.3849756 M102.660833,44.6370732 C103.280096,45.1434146 103.589435,45.8558049 103.589435,46.7748293 C103.589435,47.6733659 103.385353,48.4554146 102.977774,49.121561 C102.57078,49.787122 101.987772,50.304 101.229336,50.670439 C100.471485,51.036878 99.5762149,51.2206829 98.5446952,51.2206829 L95.6203016,51.2206829 L94.9238504,54.7211707 L93.8560754,54.7211707 L96.0226177,43.878439 L100.014786,43.878439 C101.15975,43.878439 102.042155,44.1313171 102.660833,44.6370732" id="Fill-5" fill="#FFFFFF"></path>
                    <polygon id="Fill-7" fill="#FFFFFF" points="107.612713 43.2277463 105.322201 54.7214049 104.286003 54.7214049 106.57593 43.2277463"></polygon>
                    <path d="M113.926035,53.4122341 C114.45232,53.0867707 114.867501,52.6454049 115.171577,52.0875512 C115.475653,51.5302829 115.628276,50.9209171 115.628276,50.260039 C115.628276,49.4340878 115.375659,48.7632585 114.86984,48.2463805 C114.364606,47.7300878 113.70441,47.4719415 112.889252,47.4719415 C112.260048,47.4719415 111.682304,47.6346732 111.156018,47.9601366 C110.630317,48.2850146 110.212213,48.7263805 109.902874,49.2842341 C109.593535,49.8415024 109.438573,50.4508683 109.438573,51.1117463 C109.438573,51.9382829 109.694114,52.6096976 110.204611,53.1259902 C110.715108,53.6422829 111.382906,53.9004293 112.208589,53.9004293 C112.827267,53.9004293 113.400334,53.7376976 113.926035,53.4122341 M110.065437,54.3265756 C109.533889,54.0216 109.121632,53.5954537 108.827497,53.0481366 C108.533362,52.5008195 108.386002,51.8762341 108.386002,51.1743805 C108.386002,50.3168195 108.581897,49.5347707 108.974272,48.8270634 C109.366062,48.1199415 109.897611,47.5626732 110.568333,47.1546732 C111.23847,46.7460878 111.981117,46.5423805 112.796275,46.5423805 C113.611433,46.5423805 114.299697,46.7437463 114.862238,47.146478 C115.424779,47.5492098 115.798442,48.1070634 115.984396,48.8194537 L116.432908,46.6044293 L117.469691,46.6044293 L115.860427,54.7211122 L114.823644,54.7211122 L115.148771,53.1564293 C114.756396,53.6733073 114.276892,54.0736976 113.709673,54.3570146 C113.141869,54.6415024 112.533717,54.783161 111.883462,54.783161 C111.202799,54.783161 110.596401,54.6309659 110.065437,54.3265756" id="Fill-9" fill="#FFFFFF"></path>
                    <path d="M120.672782,52.3512585 C120.631849,52.5473561 120.611382,52.7387707 120.611382,52.9243317 C120.611382,53.2345756 120.680969,53.4593561 120.819557,53.5980878 C120.959315,53.7374049 121.172753,53.8070634 121.46221,53.8070634 C121.926511,53.7865756 122.406016,53.632039 122.901309,53.3422829 L123.117671,54.1793561 C122.498993,54.5510634 121.874467,54.747161 121.245264,54.7676488 C120.719563,54.7676488 120.306721,54.6283317 120.007323,54.3496976 C119.70851,54.0710634 119.558811,53.662478 119.558811,53.1256976 C119.558811,52.9401366 119.58454,52.707161 119.635999,52.4291122 L120.595593,47.6419902 L119.419637,47.6419902 L119.574599,46.8213073 L120.74997,46.8213073 L121.168075,44.7456 L122.204858,44.7456 L121.786753,46.8213073 L124.401808,46.8213073 L124.247431,47.6419902 L121.616587,47.6419902 L120.672782,52.3512585 Z" id="Fill-11" fill="#FFFFFF"></path>
                    <path d="M127.024932,48.199961 C126.410932,48.7057171 126.016218,49.3718634 125.841374,50.1978146 L131.752146,50.1978146 C131.762672,49.340839 131.543386,48.6670829 131.094289,48.1765463 C130.645777,47.6860098 130.013649,47.4407415 129.199076,47.4407415 C128.363452,47.4407415 127.638347,47.6942049 127.024932,48.199961 Z M125.748397,51.0190829 L125.748397,51.0659122 C125.748397,51.9228878 126.003353,52.609522 126.51385,53.1258146 C127.024932,53.6421073 127.707934,53.9002537 128.56461,53.9002537 C129.059318,53.9002537 129.528882,53.8177171 129.972716,53.6520585 C130.415965,53.4875707 130.808341,53.2499122 131.148672,52.9402537 L131.643965,53.6216195 C131.241649,53.9927415 130.772085,54.2772293 130.235859,54.4733268 C129.699048,54.6700098 129.126566,54.7677659 128.518414,54.7677659 C127.76524,54.7677659 127.102121,54.6126439 126.529639,54.3029854 C125.957157,53.9927415 125.513323,53.5595707 125.198721,53.0017171 C124.884119,52.4444488 124.726818,51.7987902 124.726818,51.0659122 C124.726818,50.2188878 124.922713,49.4526439 125.315089,48.7654244 C125.706879,48.0787902 126.245445,47.5390829 126.931955,47.1463024 C127.61788,46.7541073 128.373393,46.5580098 129.199076,46.5580098 C130.271529,46.5580098 131.120019,46.8782049 131.744544,47.5185951 C132.368485,48.1589854 132.680748,49.015961 132.680748,50.0901073 C132.680748,50.3482537 132.655018,50.6579122 132.603559,51.0190829 L125.748397,51.0190829 Z" id="Fill-13" fill="#FFFFFF"></path>
                    <path d="M137.725371,44.5133854 C137.354047,44.8230439 137.116634,45.2310439 137.013715,45.7368 L136.797354,46.8208976 L139.164469,46.8208976 L139.010092,47.6421659 L136.627188,47.6421659 L135.218497,54.7209951 L134.181714,54.7209951 L135.605609,47.6421659 L134.553038,47.6421659 L134.708,46.8208976 L135.760571,46.8208976 L135.976933,45.7520195 C136.090377,45.215239 136.296798,44.7481171 136.595611,44.3506537 C136.895009,43.9531902 137.248205,43.6482146 137.655784,43.4363122 C138.063363,43.2249951 138.483807,43.1190439 138.917115,43.1190439 C139.473808,43.1190439 139.943372,43.2431415 140.325221,43.4907512 L139.969101,44.3278244 C139.649237,44.1410927 139.314168,44.0486049 138.963311,44.0486049 C138.509536,44.0486049 138.096694,44.2037268 137.725371,44.5133854" id="Fill-15" fill="#FFFFFF"></path>
                    <path d="M141.439251,47.9289951 C140.923491,48.2339707 140.518251,48.6542634 140.224701,49.1910439 C139.930566,49.7284098 139.783206,50.331922 139.783206,51.003922 C139.783206,51.850361 140.033484,52.5369951 140.53404,53.0638244 C141.034596,53.5906537 141.697131,53.8540683 142.522814,53.8540683 C143.151433,53.8540683 143.723915,53.7042146 144.24026,53.4045073 C144.75602,53.1053854 145.160675,52.6868488 145.45481,52.1500683 C145.748945,51.6132878 145.89572,51.003922 145.89572,50.3219707 C145.89572,49.4755317 145.645442,48.7888976 145.145471,48.2614829 C144.644915,47.735239 143.98238,47.4718244 143.157281,47.4718244 C142.527493,47.4718244 141.955011,47.6240195 141.439251,47.9289951 M145.191667,47.0304585 C145.753623,47.3453854 146.189855,47.7814829 146.499194,48.3393366 C146.809118,48.8966049 146.963495,49.5375805 146.963495,50.259922 C146.963495,51.1174829 146.764676,51.8866537 146.367623,52.5680195 C145.97057,53.2499707 145.426157,53.7844098 144.735553,54.1713366 C144.044365,54.5582634 143.275403,54.7520195 142.429253,54.7520195 C141.697131,54.7520195 141.052139,54.5951415 140.495445,54.2802146 C139.938167,53.9652878 139.504859,53.5280195 139.19552,52.9707512 C138.886181,52.4128976 138.731219,51.7730927 138.731219,51.0501659 C138.731219,50.1931902 138.929453,49.4240195 139.327091,48.7420683 C139.724145,48.0607024 140.265634,47.5262634 140.952144,47.1387512 C141.637485,46.751239 142.403523,46.5580683 143.249673,46.5580683 C143.98238,46.5580683 144.629711,46.7155317 145.191667,47.0304585" id="Fill-17" fill="#FFFFFF"></path>
                    <path d="M152.069752,47.0457951 C152.62703,46.7308683 153.250971,46.568722 153.942159,46.5581854 L153.81819,47.5650146 C152.972039,47.554478 152.232316,47.8050146 151.597849,48.316039 C150.963383,48.8270634 150.517209,49.5166244 150.25933,50.3841366 L149.392713,54.7211122 L148.35593,54.7211122 L149.965194,46.6044293 L151.017766,46.6044293 L150.645857,48.416722 C151.038232,47.8178927 151.512474,47.360722 152.069752,47.0457951" id="Fill-19" fill="#FFFFFF"></path>
                    <path d="M168.039069,47.2006829 C168.534363,47.6397073 168.782302,48.2566829 168.782302,49.0516098 C168.782302,49.3103415 168.750724,49.5889756 168.689324,49.8886829 L167.713942,54.7214634 L166.677159,54.7214634 L167.605761,49.9963902 C167.647279,49.7903415 167.667746,49.5737561 167.667746,49.3460488 C167.667746,48.7571707 167.487054,48.3005854 167.126256,47.975122 C166.764873,47.6502439 166.259639,47.4869268 165.609969,47.4869268 C164.794811,47.4980488 164.090758,47.7503415 163.497225,48.2461463 C162.904276,48.7419512 162.504299,49.4080976 162.298463,50.2445854 L161.416058,54.7214634 L160.364071,54.7214634 L161.307877,49.9963902 C161.34881,49.7903415 161.369861,49.5737561 161.369861,49.3460488 C161.369861,48.7571707 161.18917,48.3005854 160.827787,47.975122 C160.466989,47.6502439 159.961755,47.4869268 159.3115,47.4869268 C158.46535,47.4980488 157.738491,47.7661463 157.129754,48.2923902 C156.521017,48.8198049 156.129227,49.5269268 155.953798,50.4149268 L155.102385,54.7214634 L154.065602,54.7214634 L155.659663,46.6041951 L156.712234,46.6041951 L156.371318,48.3087805 C156.732701,47.7403902 157.188815,47.3072195 157.741415,47.0069268 C158.292845,46.7078049 158.91971,46.5532683 159.620839,46.5421463 C160.446523,46.5421463 161.101456,46.7253659 161.586223,47.0918049 C162.070991,47.4588293 162.3546,47.9780488 162.437636,48.6494634 C163.25221,47.2650732 164.418225,46.5632195 165.934512,46.5421463 C166.842647,46.5421463 167.543776,46.7616585 168.039069,47.2006829" id="Fill-21" fill="#FFFFFF"></path>
                    <path d="M172.781663,48.199961 C172.167663,48.7057171 171.772949,49.3718634 171.598105,50.1978146 L177.508877,50.1978146 C177.519402,49.340839 177.300117,48.6670829 176.85102,48.1765463 C176.402507,47.6860098 175.77038,47.4407415 174.955807,47.4407415 C174.120182,47.4407415 173.395078,47.6942049 172.781663,48.199961 Z M171.505128,51.0190829 L171.505128,51.0659122 C171.505128,51.9228878 171.760084,52.609522 172.270581,53.1258146 C172.781663,53.6421073 173.464664,53.9002537 174.32134,53.9002537 C174.816049,53.9002537 175.285613,53.8177171 175.729447,53.6520585 C176.172696,53.4875707 176.565071,53.2499122 176.905403,52.9402537 L177.400696,53.6216195 C176.99838,53.9927415 176.528816,54.2772293 175.992589,54.4733268 C175.455778,54.6700098 174.883296,54.7677659 174.275144,54.7677659 C173.521971,54.7677659 172.858851,54.6126439 172.286369,54.3029854 C171.713888,53.9927415 171.270053,53.5595707 170.955452,53.0017171 C170.64085,52.4444488 170.483549,51.7987902 170.483549,51.0659122 C170.483549,50.2188878 170.679444,49.4526439 171.071819,48.7654244 C171.46361,48.0787902 172.002175,47.5390829 172.688686,47.1463024 C173.374611,46.7541073 174.130123,46.5580098 174.955807,46.5580098 C176.02826,46.5580098 176.876749,46.8782049 177.501275,47.5185951 C178.125216,48.1589854 178.437478,49.015961 178.437478,50.0901073 C178.437478,50.3482537 178.411749,50.6579122 178.36029,51.0190829 L171.505128,51.0190829 Z" id="Fill-23" fill="#FFFFFF"></path>
                    <path d="M189.517076,53.4122341 C190.043362,53.0867707 190.458543,52.6454049 190.762619,52.0875512 C191.066695,51.5302829 191.219318,50.9209171 191.219318,50.260039 C191.219318,49.4340878 190.966701,48.7632585 190.460882,48.2463805 C189.955648,47.7300878 189.295452,47.4719415 188.480294,47.4719415 C187.85109,47.4719415 187.273346,47.6346732 186.74706,47.9601366 C186.221359,48.2850146 185.803254,48.7263805 185.493916,49.2842341 C185.184577,49.8415024 185.029615,50.4508683 185.029615,51.1117463 C185.029615,51.9382829 185.285156,52.6096976 185.795653,53.1259902 C186.30615,53.6422829 186.973948,53.9004293 187.799631,53.9004293 C188.418309,53.9004293 188.991376,53.7376976 189.517076,53.4122341 M185.656479,54.3265756 C185.124931,54.0216 184.712674,53.5954537 184.418539,53.0481366 C184.124403,52.5008195 183.977044,51.8762341 183.977044,51.1743805 C183.977044,50.3168195 184.172939,49.5347707 184.565314,48.8270634 C184.957104,48.1199415 185.488653,47.5626732 186.159374,47.1546732 C186.829511,46.7460878 187.572159,46.5423805 188.387317,46.5423805 C189.202475,46.5423805 189.890739,46.7437463 190.45328,47.146478 C191.015821,47.5492098 191.389484,48.1070634 191.575438,48.8194537 L192.704613,43.228039 L193.74198,43.228039 L191.451468,54.7211122 L190.414686,54.7211122 L190.739813,53.1564293 C190.347438,53.6733073 189.867933,54.0736976 189.300715,54.3570146 C188.732911,54.6415024 188.124759,54.783161 187.474504,54.783161 C186.793841,54.783161 186.187443,54.6309659 185.656479,54.3265756" id="Fill-25" fill="#FFFFFF"></path>
                    <path d="M197.114944,43.3980878 C197.238914,43.5116488 197.300899,43.6556488 197.300899,43.8312585 C197.300899,43.9553561 197.282771,44.0589659 197.246516,44.1415024 C197.210261,44.224039 197.145937,44.3481366 197.05296,44.5132098 L196.124943,46.2014049 L195.50568,46.2014049 L196.263531,44.5290146 C196.047169,44.4049171 195.938989,44.2140878 195.938989,43.9553561 C195.938989,43.7592585 196.010914,43.5889171 196.15535,43.4443317 C196.299787,43.2997463 196.475215,43.2277463 196.681636,43.2277463 C196.846539,43.2277463 196.99156,43.2845268 197.114944,43.3980878" id="Fill-27" fill="#FFFFFF"></path>
                    <path d="M199.707018,48.199961 C199.093018,48.7057171 198.698304,49.3718634 198.52346,50.1978146 L204.434232,50.1978146 C204.444758,49.340839 204.225472,48.6670829 203.776375,48.1765463 C203.327863,47.6860098 202.695735,47.4407415 201.881162,47.4407415 C201.045538,47.4407415 200.320433,47.6942049 199.707018,48.199961 Z M198.430483,51.0190829 L198.430483,51.0659122 C198.430483,51.9228878 198.685439,52.609522 199.195936,53.1258146 C199.707018,53.6421073 200.39002,53.9002537 201.246696,53.9002537 C201.741404,53.9002537 202.210968,53.8177171 202.654802,53.6520585 C203.098051,53.4875707 203.490427,53.2499122 203.830758,52.9402537 L204.326051,53.6216195 C203.923735,53.9927415 203.454171,54.2772293 202.917945,54.4733268 C202.381133,54.6700098 201.808652,54.7677659 201.200499,54.7677659 C200.447326,54.7677659 199.784206,54.6126439 199.211725,54.3029854 C198.639243,53.9927415 198.195409,53.5595707 197.880807,53.0017171 C197.566205,52.4444488 197.408904,51.7987902 197.408904,51.0659122 C197.408904,50.2188878 197.604799,49.4526439 197.997175,48.7654244 C198.388965,48.0787902 198.92753,47.5390829 199.614041,47.1463024 C200.299966,46.7541073 201.055479,46.5580098 201.881162,46.5580098 C202.953615,46.5580098 203.802105,46.8782049 204.42663,47.5185951 C205.050571,48.1589854 205.362834,49.015961 205.362834,50.0901073 C205.362834,50.3482537 205.337104,50.6579122 205.285645,51.0190829 L198.430483,51.0190829 Z" id="Fill-29" fill="#FFFFFF"></path>
                    <path d="M207.296875,54.4194732 C206.667086,54.145522 206.182904,53.7814244 205.841987,53.3271805 L206.368273,52.6300098 C206.687553,53.0227902 207.11092,53.3400585 207.637206,53.5824 C208.163492,53.8253268 208.710244,53.9464976 209.277463,53.9464976 C209.824215,53.9464976 210.275651,53.8153756 210.631771,53.551961 C210.987306,53.287961 211.165074,52.9449366 211.165074,52.5217171 C211.165074,52.1704976 211.020638,51.889522 210.73235,51.6770341 C210.442893,51.4657171 210.010169,51.2409366 209.432425,51.0038634 C208.957598,50.8077659 208.57341,50.6268878 208.279274,50.4612293 C207.985139,50.2961561 207.735446,50.0795707 207.529025,49.8108878 C207.322019,49.5427902 207.219686,49.2067902 207.219686,48.8040585 C207.219686,48.1127415 207.479905,47.5566439 208.000928,47.1386927 C208.521366,46.7207415 209.189749,46.5111805 210.004906,46.5111805 C210.572125,46.5111805 211.111276,46.6024976 211.621773,46.7822049 C212.132854,46.9636683 212.563239,47.2036683 212.913511,47.5033756 L212.387811,48.2462049 C212.05742,47.9886439 211.678495,47.7814244 211.250449,47.6268878 C210.822403,47.4717659 210.396697,47.3944976 209.973914,47.3944976 C209.468095,47.3944976 209.052914,47.5133268 208.728372,47.7504 C208.403244,47.9886439 208.24068,48.3035707 208.24068,48.6957659 C208.24068,49.0364488 208.379854,49.3074732 208.658785,49.508839 C208.937131,49.7102049 209.37044,49.9297171 209.958126,50.1667902 C210.442893,50.3634732 210.837607,50.5443512 211.142268,50.7094244 C211.446344,50.8744976 211.704224,51.0963512 211.915908,51.3755707 C212.127007,51.6542049 212.232849,52.0001561 212.232849,52.412839 C212.232849,53.1363512 211.954502,53.719961 211.397224,54.1636683 C210.840531,54.6073756 210.133554,54.8298146 209.277463,54.8298146 C208.586274,54.8298146 207.926078,54.692839 207.296875,54.4194732" id="Fill-31" fill="#FFFFFF"></path>
                    <path d="M214.476814,54.4194732 C213.847025,54.145522 213.362842,53.7814244 213.021926,53.3271805 L213.548212,52.6300098 C213.867492,53.0227902 214.290859,53.3400585 214.817145,53.5824 C215.34343,53.8253268 215.890183,53.9464976 216.457402,53.9464976 C217.004154,53.9464976 217.45559,53.8153756 217.81171,53.551961 C218.167245,53.287961 218.345013,52.9449366 218.345013,52.5217171 C218.345013,52.1704976 218.200576,51.889522 217.912289,51.6770341 C217.622832,51.4657171 217.190108,51.2409366 216.612363,51.0038634 C216.137537,50.8077659 215.753348,50.6268878 215.459213,50.4612293 C215.165078,50.2961561 214.915385,50.0795707 214.708964,49.8108878 C214.501958,49.5427902 214.399625,49.2067902 214.399625,48.8040585 C214.399625,48.1127415 214.659844,47.5566439 215.180867,47.1386927 C215.701305,46.7207415 216.369687,46.5111805 217.184845,46.5111805 C217.752064,46.5111805 218.291214,46.6024976 218.801712,46.7822049 C219.312793,46.9636683 219.743178,47.2036683 220.09345,47.5033756 L219.567749,48.2462049 C219.237359,47.9886439 218.858433,47.7814244 218.430388,47.6268878 C218.002342,47.4717659 217.576636,47.3944976 217.153853,47.3944976 C216.648034,47.3944976 216.232853,47.5133268 215.90831,47.7504 C215.583183,47.9886439 215.420619,48.3035707 215.420619,48.6957659 C215.420619,49.0364488 215.559792,49.3074732 215.838724,49.508839 C216.11707,49.7102049 216.550379,49.9297171 217.138064,50.1667902 C217.622832,50.3634732 218.017546,50.5443512 218.322207,50.7094244 C218.626283,50.8744976 218.884163,51.0963512 219.095847,51.3755707 C219.306946,51.6542049 219.412788,52.0001561 219.412788,52.412839 C219.412788,53.1363512 219.134441,53.719961 218.577163,54.1636683 C218.02047,54.6073756 217.313493,54.8298146 216.457402,54.8298146 C215.766213,54.8298146 215.106017,54.692839 214.476814,54.4194732" id="Fill-33" fill="#FFFFFF"></path>
                    <path d="M226.546355,53.4122341 C227.07264,53.0867707 227.487821,52.6454049 227.791897,52.0875512 C228.095973,51.5302829 228.248596,50.9209171 228.248596,50.260039 C228.248596,49.4340878 227.995979,48.7632585 227.49016,48.2463805 C226.984926,47.7300878 226.32473,47.4719415 225.509572,47.4719415 C224.880368,47.4719415 224.302624,47.6346732 223.776338,47.9601366 C223.250637,48.2850146 222.832533,48.7263805 222.523194,49.2842341 C222.213855,49.8415024 222.058893,50.4508683 222.058893,51.1117463 C222.058893,51.9382829 222.314434,52.6096976 222.824931,53.1259902 C223.335428,53.6422829 224.003226,53.9004293 224.828909,53.9004293 C225.447587,53.9004293 226.020654,53.7376976 226.546355,53.4122341 M222.685758,54.3265756 C222.154209,54.0216 221.741952,53.5954537 221.447817,53.0481366 C221.153682,52.5008195 221.006322,51.8762341 221.006322,51.1743805 C221.006322,50.3168195 221.202217,49.5347707 221.594592,48.8270634 C221.986383,48.1199415 222.517931,47.5626732 223.188653,47.1546732 C223.85879,46.7460878 224.601437,46.5423805 225.416595,46.5423805 C226.231753,46.5423805 226.920018,46.7437463 227.482558,47.146478 C228.045099,47.5492098 228.418762,48.1070634 228.604716,48.8194537 L229.053228,46.6044293 L230.090011,46.6044293 L228.480747,54.7211122 L227.443964,54.7211122 L227.769092,53.1564293 C227.376716,53.6733073 226.897212,54.0736976 226.329993,54.3570146 C225.762189,54.6415024 225.154037,54.783161 224.503782,54.783161 C223.823119,54.783161 223.216721,54.6309659 222.685758,54.3265756" id="Fill-35" fill="#FFFFFF"></path>
                    <path d="M234.66279,43.699961 C234.77097,43.8187902 234.825353,43.9657171 234.825353,44.1413268 C234.825353,44.3789854 234.737054,44.583278 234.56221,44.7536195 C234.386782,44.923961 234.180361,45.008839 233.943533,45.008839 C233.778045,45.008839 233.638872,44.9497171 233.525428,44.8308878 C233.411399,44.7120585 233.355262,44.5651317 233.355262,44.389522 C233.355262,44.1518634 233.442976,43.9481561 233.618405,43.7778146 C233.793249,43.6068878 233.99967,43.5214244 234.237083,43.5214244 C234.412511,43.5214244 234.554024,43.5817171 234.66279,43.699961 Z M234.159894,46.6045463 L232.55063,54.7212293 L231.513847,54.7212293 L233.123112,46.6045463 L234.159894,46.6045463 Z" id="Fill-37" fill="#FFFFFF"></path>
                    <path d="M236.186913,54.4194732 C235.557124,54.145522 235.072941,53.7814244 234.732025,53.3271805 L235.258311,52.6300098 C235.577591,53.0227902 236.000958,53.3400585 236.527244,53.5824 C237.05353,53.8253268 237.600282,53.9464976 238.167501,53.9464976 C238.714253,53.9464976 239.165689,53.8153756 239.521809,53.551961 C239.877344,53.287961 240.055112,52.9449366 240.055112,52.5217171 C240.055112,52.1704976 239.910675,51.889522 239.622388,51.6770341 C239.332931,51.4657171 238.900207,51.2409366 238.322463,51.0038634 C237.847636,50.8077659 237.463447,50.6268878 237.169312,50.4612293 C236.875177,50.2961561 236.625484,50.0795707 236.419063,49.8108878 C236.212057,49.5427902 236.109724,49.2067902 236.109724,48.8040585 C236.109724,48.1127415 236.369943,47.5566439 236.890966,47.1386927 C237.411404,46.7207415 238.079786,46.5111805 238.894944,46.5111805 C239.462163,46.5111805 240.001314,46.6024976 240.511811,46.7822049 C241.022892,46.9636683 241.453277,47.2036683 241.803549,47.5033756 L241.277848,48.2462049 C240.947458,47.9886439 240.568532,47.7814244 240.140487,47.6268878 C239.712441,47.4717659 239.286735,47.3944976 238.863952,47.3944976 C238.358133,47.3944976 237.942952,47.5133268 237.618409,47.7504 C237.293282,47.9886439 237.130718,48.3035707 237.130718,48.6957659 C237.130718,49.0364488 237.269891,49.3074732 237.548823,49.508839 C237.827169,49.7102049 238.260478,49.9297171 238.848163,50.1667902 C239.332931,50.3634732 239.727645,50.5443512 240.032306,50.7094244 C240.336382,50.8744976 240.594262,51.0963512 240.805946,51.3755707 C241.017045,51.6542049 241.122887,52.0001561 241.122887,52.412839 C241.122887,53.1363512 240.84454,53.719961 240.287262,54.1636683 C239.730569,54.6073756 239.023592,54.8298146 238.167501,54.8298146 C237.476312,54.8298146 236.816116,54.692839 236.186913,54.4194732" id="Fill-39" fill="#FFFFFF"></path>
                    <path d="M128.983358,20.2270244 C130.134169,21.3005854 130.709574,22.728878 130.709574,24.5136585 C130.709574,25.0785366 130.641742,25.6884878 130.506077,26.3429268 L128.374036,37.0849756 L123.160885,37.0849756 L125.157846,27.0892683 C125.225679,26.7503415 125.259595,26.4225366 125.259595,26.106439 C125.259595,25.2026341 124.977155,24.485561 124.413444,23.9546341 C123.849149,23.4237073 123.081942,23.1585366 122.111822,23.1585366 C120.961011,23.1585366 119.939432,23.5706341 119.048255,24.3948293 C118.156494,25.2196098 117.575825,26.298439 117.30508,27.6307317 L115.375367,37.0849756 L110.196717,37.0849756 L112.159762,27.0892683 C112.227594,26.7503415 112.26151,26.4225366 112.26151,26.106439 C112.26151,25.2026341 111.984918,24.485561 111.431733,23.9546341 C110.879133,23.4237073 110.106078,23.1585366 109.113153,23.1585366 C107.962342,23.1585366 106.941348,23.5706341 106.050171,24.3948293 C105.157824,25.2196098 104.577156,26.298439 104.306411,27.6307317 L102.411198,37.0849756 L97.1980473,37.0849756 L100.786145,18.8543415 L106.032628,18.8543415 L105.525055,21.3620488 C107.014443,19.5321951 108.944157,18.6178537 111.313611,18.6178537 C112.915274,18.6178537 114.252624,18.9731707 115.325077,19.6849756 C116.396361,20.3967805 117.113279,21.3854634 117.474077,22.6498537 C119.234794,19.9618537 121.5025,18.6178537 124.278364,18.6178537 C126.263631,18.6178537 127.832546,19.1546341 128.983358,20.2270244" id="Fill-41" fill="#FFFFFF"></path>
                    <path d="M140.052138,31.0197073 C139.984305,31.3580488 139.950389,31.6413659 139.950389,31.8661463 C139.950389,32.2513171 140.040442,32.5217561 140.221718,32.6798049 C140.401825,32.8378537 140.67257,32.916878 141.033953,32.916878 C141.846187,32.916878 142.78239,32.6686829 143.843148,32.1717073 L144.486386,36.1358049 C143.741984,36.5203902 142.951386,36.8136585 142.116931,37.0167805 C141.281892,37.2204878 140.469657,37.3223415 139.679644,37.3223415 C138.16745,37.3223415 136.955239,36.9272195 136.041257,36.1358049 C135.127274,35.345561 134.66999,34.2503415 134.66999,32.8489756 C134.66999,32.3525854 134.715017,31.8889756 134.805655,31.4599024 L136.464039,23.2940488 L133.959505,23.2940488 L134.636074,19.6677073 L137.17511,19.6677073 L138.190256,14.652878 L143.335575,14.652878 L142.319844,19.6677073 L147.296166,19.6677073 L146.619012,23.2940488 L141.609358,23.2940488 L140.052138,31.0197073 Z" id="Fill-43" fill="#FFFFFF"></path>
                    <path d="M159.380151,32.4087805 C160.192385,31.8889756 160.835623,31.1836098 161.30928,30.2909268 C161.783522,29.3988293 162.02035,28.4218537 162.02035,27.36 C162.02035,26.0721951 161.658968,25.044878 160.937372,24.2762927 C160.214606,23.508878 159.255597,23.1242927 158.059759,23.1242927 C157.112445,23.1242927 156.231794,23.3841951 155.41956,23.904 C154.607326,24.4232195 153.964088,25.1291707 153.490431,26.0212683 C153.016189,26.9139512 152.77936,27.8798049 152.77936,28.9182439 C152.77936,30.228878 153.140158,31.2684878 153.862339,32.0359024 C154.58452,32.8044878 155.543529,33.1879024 156.739952,33.1879024 C157.687266,33.1879024 158.567332,32.9285854 159.380151,32.4087805 M151.002269,36.2716098 C149.907595,35.5937561 149.055597,34.644878 148.446276,33.4249756 C147.836954,32.2050732 147.532293,30.804878 147.532293,29.2238049 C147.532293,27.2581463 147.955661,25.4686829 148.801811,23.8530732 C149.647961,22.2380488 150.81573,20.9672195 152.305119,20.0405854 C153.795092,19.1145366 155.441781,18.6515122 157.247525,18.6515122 C158.691302,18.6515122 159.909945,18.9512195 160.903455,19.5494634 C161.895796,20.1482927 162.651893,21.0234146 163.171162,22.176 L163.8144,18.8546341 L168.99305,18.8546341 L165.37162,37.0846829 L160.192385,37.0846829 L160.699958,34.7806829 C159.029879,36.4524878 157.055138,37.2883902 154.776322,37.2883902 C153.354766,37.2883902 152.096359,36.9494634 151.002269,36.2716098" id="Fill-45" fill="#FFFFFF"></path>
                    <g id="Group-49" stroke-width="1" transform="translate(50.874273, 0.522146)">
                        <mask id="mask-2" fill="white">
                            <use xlink:href="#path-1"></use>
                        </mask>
                        <g id="Clip-48"></g>
                        <path d="M1.0753184,4.26638049 C1.20747456,4.3278439 1.34664786,4.3571122 1.48348211,4.3571122 C1.84778869,4.3571122 2.1963067,4.15047805 2.36062475,3.7980878 L3.4593921,1.44140488 C3.68511014,0.957307317 3.47576543,0.380721951 2.99158269,0.154770732 C2.50798472,-0.0723512195 1.93199438,0.137795122 1.7068611,0.622478049 L0.608093755,2.97974634 C0.381790954,3.4638439 0.591135664,4.0398439 1.0753184,4.26638049" id="Fill-47" fill="#FFFFFF" mask="url(#mask-2)"></path>
                    </g>
                    <g id="Group-52" stroke-width="1" transform="translate(28.068565, 67.253854)">
                        <mask id="mask-4" fill="white">
                            <use xlink:href="#path-3"></use>
                        </mask>
                        <g id="Clip-51"></g>
                        <path d="M3.01889107,0.480936585 C2.53412357,0.253814634 1.95930276,0.464546341 1.73358472,0.949229268 L0.634817368,3.30532683 C0.408514566,3.78942439 0.617859277,4.36600976 1.10204201,4.59196098 C1.23419817,4.65400976 1.37337147,4.68327805 1.51020572,4.68327805 C1.8745123,4.68327805 2.22303031,4.47605854 2.38734837,4.12425366 L3.48611571,1.76757073 C3.71241852,1.28347317 3.50307381,0.707473171 3.01889107,0.480936585" id="Fill-50" fill="#FFFFFF" mask="url(#mask-4)"></path>
                    </g>
                    <g id="Group-55" stroke-width="1" transform="translate(0.000000, 5.790439)">
                        <mask id="mask-6" fill="white">
                            <use xlink:href="#path-5"></use>
                        </mask>
                        <g id="Clip-54"></g>
                        <path d="M3.86860838,35.2633756 C2.80200293,35.2633756 1.93421648,34.395278 1.93421648,33.3275707 C1.93421648,32.2598634 2.80200293,31.3917659 3.86860838,31.3917659 C4.93521383,31.3917659 5.80300029,32.2598634 5.80300029,33.3275707 C5.80300029,34.395278 4.93521383,35.2633756 3.86860838,35.2633756 Z M34.413639,34.2963512 L30.5553809,42.6009366 C30.3296628,43.0856195 30.5395923,43.6616195 31.0243598,43.8869854 C31.156516,43.9484488 31.2951045,43.9777171 31.431354,43.9777171 C31.7962453,43.9777171 32.1447633,43.7699122 32.3090814,43.417522 L51.6518309,1.78747317 C51.8769642,1.30220488 51.6670347,0.726790244 51.182852,0.500839024 C50.6986692,0.276643902 50.1232637,0.486204878 49.8981304,0.970887805 L35.3130026,32.3605463 C35.3089092,32.3605463 35.3048159,32.3593756 35.3007226,32.3593756 L7.60991413,32.3593756 C7.17894471,30.6910829 5.66733556,29.4547902 3.86860838,29.4547902 C1.73539748,29.4547902 -0.000175428528,31.1921561 -0.000175428528,33.3275707 C-0.000175428528,35.4629854 1.73539748,37.2003512 3.86860838,37.2003512 C5.66733556,37.2003512 7.17835995,35.9628878 7.60991413,34.2963512 L34.413639,34.2963512 Z" id="Fill-53" fill="#FFFFFF" mask="url(#mask-6)"></path>
                    </g>
                    <path d="M72.0521806,49.7673951 C70.9855751,49.7673951 70.1177887,48.8992976 70.1177887,47.8310049 C70.1177887,46.7632976 70.9855751,45.8952 72.0521806,45.8952 C73.118786,45.8952 73.9865725,46.7632976 73.9865725,47.8310049 C73.9865725,48.8992976 73.118786,49.7673951 72.0521806,49.7673951 M72.0521806,43.9582244 C70.2534534,43.9582244 68.7418442,45.1945171 68.3108748,46.8628098 L41.9457213,46.8628098 L44.8829796,40.4916878 C45.1069434,40.0058341 44.8952596,39.4310049 44.4099074,39.2068098 C43.9263094,38.9820293 43.3503191,39.1945171 43.1269401,39.6803707 L31.5211734,64.8522732 C31.2977944,65.3381268 31.5088934,65.9129561 31.9942457,66.1371512 C32.1252323,66.1974439 32.2632361,66.2261268 32.3989008,66.2261268 C32.7643769,66.2261268 33.1146492,66.0177366 33.277213,65.6635902 L41.0551291,48.7945171 C41.0715025,48.7956878 41.0867063,48.7997854 41.1036644,48.7997854 L68.3108748,48.7997854 C68.7418442,50.4669073 70.2534534,51.7043707 72.0521806,51.7043707 C74.1853915,51.7043707 75.9203796,49.9670049 75.9203796,47.8310049 C75.9203796,45.6955902 74.1853915,43.9582244 72.0521806,43.9582244" id="Fill-56" fill="#FFFFFF"></path>
                    <g id="Page-1" stroke-width="1" transform="translate(30.718266, 39.000000)"></g>
                </g>
            </g>
        </g>
    </g>
</svg>