<?xml version="1.0" encoding="UTF-8" standalone="no"?>
<svg width="323px" height="96px" viewBox="0 0 323 96" version="1.1" xmlns="http://www.w3.org/2000/svg" xmlns:xlink="http://www.w3.org/1999/xlink">
    <!-- Generator: Sketch 49.2 (51160) - http://www.bohemiancoding.com/sketch -->
    <title>Logo/Mta_Blanc</title>
    <desc>Created with Sketch.</desc>
    <defs>
        <polygon id="path-1" points="0.689891482 0.0842926829 4.73854457 0.0842926829 4.73854457 5.80948293 0.689891482 5.80948293"></polygon>
        <polygon id="path-3" points="0.725559774 0.51931617 4.77469388 0.51931617 4.77469388 6.24390244 0.725559774 6.24390244"></polygon>
        <polygon id="path-5" points="0 0.547968718 69.0608875 0.547968718 69.0608875 58.6369561 0 58.6369561"></polygon>
    </defs>
    <g id="Logo/Mta_Blanc" stroke="none" stroke-width="1" fill="none" fill-rule="evenodd">
        <path d="M73.5788488,89.9144585 C63.1203122,89.9144585 57.6428488,77.4727024 53.3306537,65.8098732 C53.2689951,65.6428488 53.3540683,65.4570927 53.5210927,65.3954341 C53.6881171,65.3322146 53.8738732,65.4180683 53.9355317,65.5858732 C59.1921171,79.801678 64.5447024,89.2697756 73.5788488,89.2697756 C85.499239,89.2697756 92.0233366,73.9550439 94.2758244,67.3700683 C94.3328,67.2007024 94.5162146,67.1101659 94.6848,67.1687024 C94.8541659,67.227239 94.943922,67.4106537 94.8861659,67.579239 C92.5891902,74.2945561 85.9160195,89.9144585 73.5788488,89.9144585" id="Fill-1" fill="#FFFFFF" opacity="0.5"></path>
        <path d="M48.4363707,51.4503024 C48.3052488,51.4503024 48.1819317,51.3691317 48.1335415,51.2387902 C42.8402732,36.8746927 37.4588098,27.3074732 28.3989073,27.3074732 C24.0679805,27.3074732 15.5684683,30.0501073 7.30700488,48.4173268 C7.23363902,48.5804488 7.04085854,48.6514732 6.88085854,48.5788878 C6.71773659,48.5063024 6.64593171,48.3150829 6.71851707,48.151961 C10.3282732,40.1262049 17.9458341,26.6627902 28.3989073,26.6627902 C38.886322,26.6627902 44.3973463,39.2333268 48.7392,51.0155707 C48.8008585,51.1825951 48.7150049,51.3683512 48.5479805,51.4300098 C48.5112976,51.443278 48.4730537,51.4503024 48.4363707,51.4503024" id="Fill-3" fill="#FFFFFF" opacity="0.5"></path>
        <path d="M135.494322,65.8466341 C136.40359,65.0825366 136.857834,64.0187317 136.857834,62.6552195 C136.857834,61.7326829 136.540176,61.0310244 135.9072,60.5486829 C135.274224,60.067122 134.364956,59.8259512 133.180956,59.8259512 L129.319102,59.8259512 L127.893932,66.9931707 L131.735493,66.9931707 C133.332371,66.9931707 134.585054,66.6107317 135.494322,65.8466341 M137.022517,59.5160976 C137.849054,60.1912195 138.261932,61.1410732 138.261932,62.366439 C138.261932,63.5644878 137.989541,64.6072195 137.445541,65.4954146 C136.902322,66.3828293 136.124176,67.072 135.111883,67.5605854 C134.100371,68.0491707 132.905444,68.2942439 131.528663,68.2942439 L127.625444,68.2942439 L126.695883,72.961561 L125.270712,72.961561 L128.16242,58.5045854 L133.49081,58.5045854 C135.019005,58.5045854 136.196761,58.8417561 137.022517,59.5160976" id="Fill-5" fill="#FFFFFF"></path>
        <polygon id="Fill-7" fill="#FFFFFF" points="143.631844 57.6369951 140.574673 72.9618732 139.191649 72.9618732 142.248039 57.6369951"></polygon>
        <path d="M152.058302,71.2163122 C152.760741,70.782361 153.314888,70.1938732 153.720741,69.4500683 C154.126595,68.7070439 154.330302,67.8945561 154.330302,67.0133854 C154.330302,65.9121171 153.993132,65.017678 153.31801,64.3285073 C152.643668,63.6401171 151.762498,63.295922 150.674498,63.295922 C149.834693,63.295922 149.063571,63.5128976 148.361132,63.9468488 C147.659473,64.3800195 147.101424,64.9685073 146.688546,65.7123122 C146.275668,66.4553366 146.068839,67.2678244 146.068839,68.1489951 C146.068839,69.2510439 146.409912,70.1462634 147.091278,70.8346537 C147.772644,71.5230439 148.663961,71.867239 149.76601,71.867239 C150.591766,71.867239 151.356644,71.6502634 152.058302,71.2163122 M146.905522,72.4354341 C146.196059,72.0288 145.645815,71.4606049 145.253229,70.7308488 C144.860644,70.0010927 144.663961,69.1683122 144.663961,68.2325073 C144.663961,67.0890927 144.925424,66.046361 145.449132,65.1027512 C145.972059,64.159922 146.681522,63.4168976 147.576741,62.8728976 C148.47118,62.3281171 149.4624,62.0565073 150.5504,62.0565073 C151.6384,62.0565073 152.557034,62.3249951 153.307863,62.8619707 C154.058693,63.3989463 154.557424,64.1427512 154.80562,65.0926049 L155.404254,62.139239 L156.788059,62.139239 L154.640156,72.9614829 L153.256351,72.9614829 L153.690302,70.875239 C153.166595,71.5644098 152.526595,72.0982634 151.769522,72.4760195 C151.011668,72.8553366 150.199961,73.0442146 149.332059,73.0442146 C148.423571,73.0442146 147.614205,72.8412878 146.905522,72.4354341" id="Fill-9" fill="#FFFFFF"></path>
        <path d="M161.063259,69.801678 C161.008624,70.0631415 160.981307,70.318361 160.981307,70.5657756 C160.981307,70.9794341 161.074185,71.2791415 161.259161,71.4641171 C161.445698,71.6498732 161.730576,71.7427512 162.116917,71.7427512 C162.736624,71.7154341 163.376624,71.5093854 164.037698,71.1230439 L164.326478,72.2391415 C163.500722,72.7347512 162.667161,72.9962146 161.827356,73.0235317 C161.125698,73.0235317 160.574673,72.8377756 160.175063,72.4662634 C159.776234,72.0947512 159.576429,71.5499707 159.576429,70.8342634 C159.576429,70.5868488 159.610771,70.2762146 159.679454,69.9054829 L160.960234,63.5226537 L159.390673,63.5226537 L159.597502,62.4284098 L161.166283,62.4284098 L161.724332,59.6608 L163.108137,59.6608 L162.550088,62.4284098 L166.040429,62.4284098 L165.83438,63.5226537 L162.322966,63.5226537 L161.063259,69.801678 Z" id="Fill-11" fill="#FFFFFF"></path>
        <path d="M169.541541,64.2666146 C168.722029,64.9409561 168.1952,65.8291512 167.961834,66.9304195 L175.851005,66.9304195 C175.865054,65.7877854 175.572371,64.8894439 174.972956,64.2353951 C174.374322,63.5813463 173.530615,63.254322 172.443395,63.254322 C171.328078,63.254322 170.360273,63.5922732 169.541541,64.2666146 Z M167.837737,68.0254439 L167.837737,68.0878829 C167.837737,69.2305171 168.178029,70.1460293 168.859395,70.8344195 C169.541541,71.5228098 170.453151,71.8670049 171.596566,71.8670049 C172.256859,71.8670049 172.88359,71.7569561 173.47598,71.536078 C174.06759,71.316761 174.591298,70.9998829 175.045541,70.5870049 L175.706615,71.4954927 C175.169639,71.990322 174.542907,72.369639 173.8272,72.6311024 C173.110712,72.8933463 172.346615,73.0236878 171.534907,73.0236878 C170.529639,73.0236878 169.644566,72.8168585 168.880468,72.4039805 C168.116371,71.990322 167.52398,71.412761 167.104078,70.6689561 C166.684176,69.9259317 166.474224,69.0650537 166.474224,68.0878829 C166.474224,66.9585171 166.735688,65.9368585 167.259395,65.0205659 C167.782322,64.1050537 168.501151,63.3854439 169.417444,62.8617366 C170.332956,62.3388098 171.341346,62.0773463 172.443395,62.0773463 C173.87481,62.0773463 175.007298,62.5042732 175.840859,63.3581268 C176.673639,64.2119805 177.09042,65.3546146 177.09042,66.7868098 C177.09042,67.1310049 177.056078,67.5438829 176.987395,68.0254439 L167.837737,68.0254439 Z" id="Fill-13" fill="#FFFFFF"></path>
        <path d="M183.823532,59.3511805 C183.327922,59.7640585 183.011044,60.3080585 182.873678,60.9824 L182.584898,62.4278634 L185.744312,62.4278634 L185.538263,63.5228878 L182.357776,63.5228878 L180.47758,72.9613268 L179.093776,72.9613268 L180.994263,63.5228878 L179.589385,63.5228878 L179.796215,62.4278634 L181.201093,62.4278634 L181.489873,61.0026927 C181.641288,60.2869854 181.9168,59.6641561 182.315629,59.1342049 C182.715239,58.6042537 183.186654,58.1976195 183.730654,57.9150829 C184.274654,57.6333268 184.835824,57.4920585 185.414166,57.4920585 C186.15719,57.4920585 186.783922,57.657522 187.29358,57.9876683 L186.818263,59.1037659 C186.391337,58.8547902 185.944117,58.7314732 185.475824,58.7314732 C184.870166,58.7314732 184.319141,58.9383024 183.823532,59.3511805" id="Fill-15" fill="#FFFFFF"></path>
        <path d="M188.780488,63.9053268 C188.092098,64.311961 187.55122,64.8723512 187.159415,65.5880585 C186.766829,66.3045463 186.570146,67.1092293 186.570146,68.0052293 C186.570146,69.1338146 186.904195,70.0493268 187.572293,70.7517659 C188.24039,71.4542049 189.124683,71.8054244 190.226732,71.8054244 C191.065756,71.8054244 191.829854,71.6056195 192.519024,71.2060098 C193.207415,70.8071805 193.747512,70.2491317 194.140098,69.5334244 C194.532683,68.8177171 194.728585,68.0052293 194.728585,67.095961 C194.728585,65.9673756 194.394537,65.0518634 193.72722,64.3486439 C193.059122,63.6469854 192.174829,63.2957659 191.073561,63.2957659 C190.232976,63.2957659 189.468878,63.4986927 188.780488,63.9053268 M193.788878,62.707278 C194.538927,63.1271805 195.121171,63.7086439 195.534049,64.4524488 C195.947707,65.1954732 196.153756,66.0501073 196.153756,67.0132293 C196.153756,68.1566439 195.88839,69.1822049 195.358439,70.0906927 C194.828488,70.999961 194.101854,71.7125463 193.180098,72.2284488 C192.257561,72.7443512 191.23122,73.0026927 190.101854,73.0026927 C189.124683,73.0026927 188.263805,72.793522 187.52078,72.3736195 C186.776976,71.9537171 186.198634,71.3706927 185.785756,70.6276683 C185.372878,69.8838634 185.166049,69.0307902 185.166049,68.0668878 C185.166049,66.9242537 185.430634,65.8986927 185.961366,64.9894244 C186.491317,64.0809366 187.214049,63.3683512 188.130341,62.8516683 C189.045073,62.3349854 190.067512,62.0774244 191.196878,62.0774244 C192.174829,62.0774244 193.038829,62.2873756 193.788878,62.707278" id="Fill-17" fill="#FFFFFF"></path>
        <path d="M202.969132,62.7277268 C203.712937,62.3078244 204.545717,62.0916293 205.468254,62.0775805 L205.30279,63.4200195 C204.173424,63.4059707 203.186107,63.7400195 202.339278,64.4213854 C201.492449,65.1027512 200.896937,66.0221659 200.552741,67.1788488 L199.396059,72.9614829 L198.012254,72.9614829 L200.160156,62.139239 L201.565034,62.139239 L201.068644,64.5556293 C201.592351,63.7571902 202.225327,63.1476293 202.969132,62.7277268" id="Fill-19" fill="#FFFFFF"></path>
        <path d="M224.283551,62.9342439 C224.944624,63.5196098 225.275551,64.3422439 225.275551,65.4021463 C225.275551,65.747122 225.233405,66.1186341 225.151454,66.5182439 L223.8496,72.9619512 L222.465795,72.9619512 L223.70521,66.6618537 C223.760624,66.387122 223.787941,66.0983415 223.787941,65.7947317 C223.787941,65.009561 223.546771,64.4007805 223.06521,63.9668293 C222.582868,63.5336585 221.908527,63.3159024 221.041405,63.3159024 C219.953405,63.3307317 219.013698,63.667122 218.221502,64.3281951 C217.430088,64.9892683 216.896234,65.8774634 216.621502,66.9927805 L215.443746,72.9619512 L214.039649,72.9619512 L215.299356,66.6618537 C215.35399,66.387122 215.382088,66.0983415 215.382088,65.7947317 C215.382088,65.009561 215.140917,64.4007805 214.658576,63.9668293 C214.177015,63.5336585 213.502673,63.3159024 212.634771,63.3159024 C211.505405,63.3307317 210.535259,63.6881951 209.722771,64.3898537 C208.910283,65.0930732 208.387356,66.0359024 208.15321,67.2199024 L207.01682,72.9619512 L205.633015,72.9619512 L207.760624,62.1389268 L209.165502,62.1389268 L208.710478,64.4117073 C209.19282,63.6538537 209.8016,63.0762927 210.539161,62.6759024 C211.275161,62.2770732 212.111844,62.0710244 213.047649,62.0561951 C214.149698,62.0561951 215.023844,62.3004878 215.670868,62.7890732 C216.317893,63.278439 216.696429,63.9707317 216.807259,64.8659512 C217.894478,63.0200976 219.450771,62.0842927 221.474576,62.0561951 C222.686673,62.0561951 223.622478,62.348878 224.283551,62.9342439" id="Fill-21" fill="#FFFFFF"></path>
        <path d="M230.613541,64.2666146 C229.794029,64.9409561 229.2672,65.8291512 229.033834,66.9304195 L236.923005,66.9304195 C236.937054,65.7877854 236.644371,64.8894439 236.044956,64.2353951 C235.446322,63.5813463 234.602615,63.254322 233.515395,63.254322 C232.400078,63.254322 231.432273,63.5922732 230.613541,64.2666146 Z M228.909737,68.0254439 L228.909737,68.0878829 C228.909737,69.2305171 229.250029,70.1460293 229.931395,70.8344195 C230.613541,71.5228098 231.525151,71.8670049 232.668566,71.8670049 C233.328859,71.8670049 233.95559,71.7569561 234.54798,71.536078 C235.13959,71.316761 235.663298,70.9998829 236.117541,70.5870049 L236.778615,71.4954927 C236.241639,71.990322 235.614907,72.369639 234.8992,72.6311024 C234.182712,72.8933463 233.418615,73.0236878 232.606907,73.0236878 C231.601639,73.0236878 230.716566,72.8168585 229.952468,72.4039805 C229.188371,71.990322 228.59598,71.412761 228.176078,70.6689561 C227.756176,69.9259317 227.546224,69.0650537 227.546224,68.0878829 C227.546224,66.9585171 227.807688,65.9368585 228.331395,65.0205659 C228.854322,64.1050537 229.573151,63.3854439 230.489444,62.8617366 C231.404956,62.3388098 232.413346,62.0773463 233.515395,62.0773463 C234.94681,62.0773463 236.079298,62.5042732 236.912859,63.3581268 C237.745639,64.2119805 238.16242,65.3546146 238.16242,66.7868098 C238.16242,67.1310049 238.128078,67.5438829 238.059395,68.0254439 L228.909737,68.0254439 Z" id="Fill-23" fill="#FFFFFF"></path>
        <path d="M252.950478,71.2163122 C253.652917,70.782361 254.207063,70.1938732 254.612917,69.4500683 C255.018771,68.7070439 255.222478,67.8945561 255.222478,67.0133854 C255.222478,65.9121171 254.885307,65.017678 254.210185,64.3285073 C253.535844,63.6401171 252.654673,63.295922 251.566673,63.295922 C250.726868,63.295922 249.955746,63.5128976 249.253307,63.9468488 C248.551649,64.3800195 247.9936,64.9685073 247.580722,65.7123122 C247.167844,66.4553366 246.961015,67.2678244 246.961015,68.1489951 C246.961015,69.2510439 247.302088,70.1462634 247.983454,70.8346537 C248.66482,71.5230439 249.556137,71.867239 250.658185,71.867239 C251.483941,71.867239 252.24882,71.6502634 252.950478,71.2163122 M247.797698,72.4354341 C247.088234,72.0288 246.53799,71.4606049 246.145405,70.7308488 C245.75282,70.0010927 245.556137,69.1683122 245.556137,68.2325073 C245.556137,67.0890927 245.8176,66.046361 246.341307,65.1027512 C246.864234,64.159922 247.573698,63.4168976 248.468917,62.8728976 C249.363356,62.3281171 250.354576,62.0565073 251.442576,62.0565073 C252.530576,62.0565073 253.44921,62.3249951 254.200039,62.8619707 C254.950868,63.3989463 255.4496,64.1427512 255.697795,65.0926049 L257.204917,57.6373854 L258.589502,57.6373854 L255.532332,72.9614829 L254.148527,72.9614829 L254.582478,70.875239 C254.058771,71.5644098 253.418771,72.0982634 252.661698,72.4760195 C251.903844,72.8553366 251.092137,73.0442146 250.224234,73.0442146 C249.315746,73.0442146 248.50638,72.8412878 247.797698,72.4354341" id="Fill-25" fill="#FFFFFF"></path>
        <path d="M263.091434,57.8641171 C263.256898,58.0155317 263.339629,58.2075317 263.339629,58.441678 C263.339629,58.6071415 263.315434,58.7452878 263.267044,58.8553366 C263.218654,58.9653854 263.1328,59.1308488 263.008702,59.3509463 L261.770068,61.6018732 L260.943532,61.6018732 L261.955044,59.3720195 C261.666263,59.2065561 261.521873,58.9521171 261.521873,58.6071415 C261.521873,58.345678 261.617873,58.1185561 261.810654,57.9257756 C262.003434,57.7329951 262.23758,57.6369951 262.513093,57.6369951 C262.73319,57.6369951 262.926751,57.7127024 263.091434,57.8641171" id="Fill-27" fill="#FFFFFF"></path>
        <path d="M266.551102,64.2666146 C265.73159,64.9409561 265.204761,65.8291512 264.971395,66.9304195 L272.860566,66.9304195 C272.874615,65.7877854 272.581932,64.8894439 271.982517,64.2353951 C271.383883,63.5813463 270.540176,63.254322 269.452956,63.254322 C268.337639,63.254322 267.369834,63.5922732 266.551102,64.2666146 Z M264.847298,68.0254439 L264.847298,68.0878829 C264.847298,69.2305171 265.18759,70.1460293 265.868956,70.8344195 C266.551102,71.5228098 267.462712,71.8670049 268.606127,71.8670049 C269.26642,71.8670049 269.893151,71.7569561 270.485541,71.536078 C271.077151,71.316761 271.600859,70.9998829 272.055102,70.5870049 L272.716176,71.4954927 C272.1792,71.990322 271.552468,72.369639 270.836761,72.6311024 C270.120273,72.8933463 269.356176,73.0236878 268.544468,73.0236878 C267.5392,73.0236878 266.654127,72.8168585 265.890029,72.4039805 C265.125932,71.990322 264.533541,71.412761 264.113639,70.6689561 C263.693737,69.9259317 263.483785,69.0650537 263.483785,68.0878829 C263.483785,66.9585171 263.745249,65.9368585 264.268956,65.0205659 C264.791883,64.1050537 265.510712,63.3854439 266.427005,62.8617366 C267.342517,62.3388098 268.350907,62.0773463 269.452956,62.0773463 C270.884371,62.0773463 272.016859,62.5042732 272.85042,63.3581268 C273.6832,64.2119805 274.09998,65.3546146 274.09998,66.7868098 C274.09998,67.1310049 274.065639,67.5438829 273.996956,68.0254439 L264.847298,68.0254439 Z" id="Fill-29" fill="#FFFFFF"></path>
        <path d="M276.681366,72.5592976 C275.84078,72.1940293 275.194537,71.7085659 274.739512,71.1029073 L275.441951,70.1733463 C275.868098,70.6970537 276.433171,71.120078 277.13561,71.4432 C277.838049,71.7671024 278.567805,71.9286634 279.324878,71.9286634 C280.054634,71.9286634 280.657171,71.7538341 281.132488,71.4026146 C281.607024,71.0506146 281.844293,70.5932488 281.844293,70.0289561 C281.844293,69.5606634 281.651512,69.1860293 281.266732,68.9027122 C280.88039,68.6209561 280.302829,68.3212488 279.531707,68.0051512 C278.897951,67.7436878 278.385171,67.5025171 277.992585,67.281639 C277.6,67.0615415 277.266732,66.772761 276.99122,66.4145171 C276.714927,66.0570537 276.578341,65.6090537 276.578341,65.072078 C276.578341,64.150322 276.925659,63.4088585 277.621073,62.8515902 C278.315707,62.294322 279.207805,62.0149073 280.295805,62.0149073 C281.052878,62.0149073 281.772488,62.1366634 282.453854,62.3762732 C283.136,62.6182244 283.710439,62.9382244 284.177951,63.3378341 L283.476293,64.3282732 C283.035317,63.9848585 282.529561,63.7085659 281.958244,63.5025171 C281.386927,63.2956878 280.818732,63.1926634 280.254439,63.1926634 C279.579317,63.1926634 279.025171,63.3511024 278.592,63.6672 C278.158049,63.9848585 277.941073,64.404761 277.941073,64.9276878 C277.941073,65.3819317 278.126829,65.7432976 278.499122,66.0117854 C278.870634,66.2802732 279.448976,66.5729561 280.233366,66.8890537 C280.88039,67.1512976 281.40722,67.3924683 281.813854,67.6125659 C282.219707,67.8326634 282.563902,68.1284683 282.846439,68.500761 C283.128195,68.8722732 283.269463,69.3335415 283.269463,69.8837854 C283.269463,70.8484683 282.897951,71.6266146 282.154146,72.2182244 C281.411122,72.8098341 280.467512,73.1064195 279.324878,73.1064195 C278.402341,73.1064195 277.521171,72.9237854 276.681366,72.5592976" id="Fill-31" fill="#FFFFFF"></path>
        <path d="M286.264507,72.5592976 C285.423922,72.1940293 284.777678,71.7085659 284.322654,71.1029073 L285.025093,70.1733463 C285.451239,70.6970537 286.016312,71.120078 286.718751,71.4432 C287.42119,71.7671024 288.150946,71.9286634 288.90802,71.9286634 C289.637776,71.9286634 290.240312,71.7538341 290.715629,71.4026146 C291.190166,71.0506146 291.427434,70.5932488 291.427434,70.0289561 C291.427434,69.5606634 291.234654,69.1860293 290.849873,68.9027122 C290.463532,68.6209561 289.885971,68.3212488 289.114849,68.0051512 C288.481093,67.7436878 287.968312,67.5025171 287.575727,67.281639 C287.183141,67.0615415 286.849873,66.772761 286.574361,66.4145171 C286.298068,66.0570537 286.161483,65.6090537 286.161483,65.072078 C286.161483,64.150322 286.5088,63.4088585 287.204215,62.8515902 C287.898849,62.294322 288.790946,62.0149073 289.878946,62.0149073 C290.63602,62.0149073 291.355629,62.1366634 292.036995,62.3762732 C292.719141,62.6182244 293.29358,62.9382244 293.761093,63.3378341 L293.059434,64.3282732 C292.618459,63.9848585 292.112702,63.7085659 291.541385,63.5025171 C290.970068,63.2956878 290.401873,63.1926634 289.83758,63.1926634 C289.162459,63.1926634 288.608312,63.3511024 288.175141,63.6672 C287.74119,63.9848585 287.524215,64.404761 287.524215,64.9276878 C287.524215,65.3819317 287.709971,65.7432976 288.082263,66.0117854 C288.453776,66.2802732 289.032117,66.5729561 289.816507,66.8890537 C290.463532,67.1512976 290.990361,67.3924683 291.396995,67.6125659 C291.802849,67.8326634 292.147044,68.1284683 292.42958,68.500761 C292.711337,68.8722732 292.852605,69.3335415 292.852605,69.8837854 C292.852605,70.8484683 292.481093,71.6266146 291.737288,72.2182244 C290.994263,72.8098341 290.050654,73.1064195 288.90802,73.1064195 C287.985483,73.1064195 287.104312,72.9237854 286.264507,72.5592976" id="Fill-33" fill="#FFFFFF"></path>
        <path d="M302.373854,71.2163122 C303.076293,70.782361 303.630439,70.1938732 304.036293,69.4500683 C304.442146,68.7070439 304.645854,67.8945561 304.645854,67.0133854 C304.645854,65.9121171 304.308683,65.017678 303.633561,64.3285073 C302.95922,63.6401171 302.078049,63.295922 300.990049,63.295922 C300.150244,63.295922 299.379122,63.5128976 298.676683,63.9468488 C297.975024,64.3800195 297.416976,64.9685073 297.004098,65.7123122 C296.59122,66.4553366 296.38439,67.2678244 296.38439,68.1489951 C296.38439,69.2510439 296.725463,70.1462634 297.406829,70.8346537 C298.088195,71.5230439 298.979512,71.867239 300.081561,71.867239 C300.907317,71.867239 301.672195,71.6502634 302.373854,71.2163122 M297.221073,72.4354341 C296.51161,72.0288 295.961366,71.4606049 295.56878,70.7308488 C295.176195,70.0010927 294.979512,69.1683122 294.979512,68.2325073 C294.979512,67.0890927 295.240976,66.046361 295.764683,65.1027512 C296.28761,64.159922 296.997073,63.4168976 297.892293,62.8728976 C298.786732,62.3281171 299.777951,62.0565073 300.865951,62.0565073 C301.953951,62.0565073 302.872585,62.3249951 303.623415,62.8619707 C304.374244,63.3989463 304.872976,64.1427512 305.121171,65.0926049 L305.719805,62.139239 L307.10361,62.139239 L304.955707,72.9614829 L303.571902,72.9614829 L304.005854,70.875239 C303.482146,71.5644098 302.842146,72.0982634 302.085073,72.4760195 C301.32722,72.8553366 300.515512,73.0442146 299.64761,73.0442146 C298.739122,73.0442146 297.929756,72.8412878 297.221073,72.4354341" id="Fill-35" fill="#FFFFFF"></path>
        <path d="M313.206946,58.2666146 C313.351337,58.4250537 313.423922,58.6209561 313.423922,58.8551024 C313.423922,59.1719805 313.306068,59.4443707 313.072702,59.6714927 C312.838556,59.8986146 312.563044,60.0117854 312.246946,60.0117854 C312.026068,60.0117854 311.840312,59.9329561 311.688898,59.7745171 C311.536702,59.616078 311.461776,59.4201756 311.461776,59.1860293 C311.461776,58.8691512 311.578849,58.5975415 311.812995,58.3704195 C312.046361,58.1425171 312.321873,58.0285659 312.638751,58.0285659 C312.872898,58.0285659 313.061776,58.1089561 313.206946,58.2666146 Z M312.535727,62.1393951 L310.387824,72.961639 L309.00402,72.961639 L311.151922,62.1393951 L312.535727,62.1393951 Z" id="Fill-37" fill="#FFFFFF"></path>
        <path d="M315.24121,72.5592976 C314.400624,72.1940293 313.75438,71.7085659 313.299356,71.1029073 L314.001795,70.1733463 C314.427941,70.6970537 314.993015,71.120078 315.695454,71.4432 C316.397893,71.7671024 317.127649,71.9286634 317.884722,71.9286634 C318.614478,71.9286634 319.217015,71.7538341 319.692332,71.4026146 C320.166868,71.0506146 320.404137,70.5932488 320.404137,70.0289561 C320.404137,69.5606634 320.211356,69.1860293 319.826576,68.9027122 C319.440234,68.6209561 318.862673,68.3212488 318.091551,68.0051512 C317.457795,67.7436878 316.945015,67.5025171 316.552429,67.281639 C316.159844,67.0615415 315.826576,66.772761 315.551063,66.4145171 C315.274771,66.0570537 315.138185,65.6090537 315.138185,65.072078 C315.138185,64.150322 315.485502,63.4088585 316.180917,62.8515902 C316.875551,62.294322 317.767649,62.0149073 318.855649,62.0149073 C319.612722,62.0149073 320.332332,62.1366634 321.013698,62.3762732 C321.695844,62.6182244 322.270283,62.9382244 322.737795,63.3378341 L322.036137,64.3282732 C321.595161,63.9848585 321.089405,63.7085659 320.518088,63.5025171 C319.946771,63.2956878 319.378576,63.1926634 318.814283,63.1926634 C318.139161,63.1926634 317.585015,63.3511024 317.151844,63.6672 C316.717893,63.9848585 316.500917,64.404761 316.500917,64.9276878 C316.500917,65.3819317 316.686673,65.7432976 317.058966,66.0117854 C317.430478,66.2802732 318.00882,66.5729561 318.79321,66.8890537 C319.440234,67.1512976 319.967063,67.3924683 320.373698,67.6125659 C320.779551,67.8326634 321.123746,68.1284683 321.406283,68.500761 C321.688039,68.8722732 321.829307,69.3335415 321.829307,69.8837854 C321.829307,70.8484683 321.457795,71.6266146 320.71399,72.2182244 C319.970966,72.8098341 319.027356,73.1064195 317.884722,73.1064195 C316.962185,73.1064195 316.081015,72.9237854 315.24121,72.5592976" id="Fill-39" fill="#FFFFFF"></path>
        <path d="M172.155473,26.9693659 C173.691473,28.4007805 174.459473,30.3051707 174.459473,32.684878 C174.459473,33.4380488 174.368937,34.2513171 174.187863,35.1239024 L171.342205,49.4466341 L164.384156,49.4466341 L167.049522,36.1190244 C167.140059,35.667122 167.185327,35.2300488 167.185327,34.8085854 C167.185327,33.6035122 166.808351,32.6474146 166.055961,31.9395122 C165.30279,31.2316098 164.27879,30.8780488 162.983961,30.8780488 C161.447961,30.8780488 160.084449,31.4275122 158.894985,32.526439 C157.704741,33.6261463 156.929717,35.0645854 156.568351,36.8409756 L153.992741,49.4466341 L147.080741,49.4466341 L149.700839,36.1190244 C149.791376,35.667122 149.836644,35.2300488 149.836644,34.8085854 C149.836644,33.6035122 149.467473,32.6474146 148.729132,31.9395122 C147.991571,31.2316098 146.959766,30.8780488 145.634498,30.8780488 C144.098498,30.8780488 142.735766,31.4275122 141.546302,32.526439 C140.355278,33.6261463 139.580254,35.0645854 139.218888,36.8409756 L136.689327,49.4466341 L129.731278,49.4466341 L134.520351,25.139122 L141.522888,25.139122 L140.845424,28.4827317 C142.833327,26.0429268 145.408937,24.8238049 148.571473,24.8238049 C150.709229,24.8238049 152.494205,25.297561 153.92562,26.2466341 C155.355473,27.1957073 156.312351,28.5139512 156.793912,30.1998049 C159.143961,26.6158049 162.170693,24.8238049 165.875668,24.8238049 C168.525424,24.8238049 170.619473,25.5395122 172.155473,26.9693659" id="Fill-41" fill="#FFFFFF"></path>
        <path d="M186.929093,41.3596098 C186.838556,41.8107317 186.793288,42.1884878 186.793288,42.4881951 C186.793288,43.0017561 186.913483,43.3623415 187.155434,43.5730732 C187.395824,43.7838049 187.75719,43.8891707 188.239532,43.8891707 C189.323629,43.8891707 190.57319,43.5582439 191.988995,42.8956098 L192.847532,48.1810732 C191.853971,48.6938537 190.798751,49.084878 189.684995,49.3557073 C188.570459,49.6273171 187.486361,49.763122 186.431922,49.763122 C184.41358,49.763122 182.795629,49.2362927 181.575727,48.1810732 C180.355824,47.1274146 179.745483,45.667122 179.745483,43.7986341 C179.745483,43.1367805 179.80558,42.5186341 179.926556,41.9465366 L182.14002,31.0587317 L178.79719,31.0587317 L179.700215,26.2236098 L183.089093,26.2236098 L184.44402,19.5371707 L191.311532,19.5371707 L189.955824,26.2236098 L196.597776,26.2236098 L195.693971,31.0587317 L189.007532,31.0587317 L186.929093,41.3596098 Z" id="Fill-43" fill="#FFFFFF"></path>
        <path d="M212.7264,43.2117073 C213.810498,42.5186341 214.669034,41.5781463 215.301229,40.3879024 C215.934205,39.198439 216.250302,37.8958049 216.250302,36.48 C216.250302,34.7629268 215.767961,33.3931707 214.804839,32.3683902 C213.840156,31.3451707 212.560156,30.8323902 210.964059,30.8323902 C209.699668,30.8323902 208.524254,31.1789268 207.440156,31.872 C206.356059,32.5642927 205.497522,33.505561 204.865327,34.6950244 C204.232351,35.8852683 203.916254,37.1730732 203.916254,38.5576585 C203.916254,40.3051707 204.397815,41.6913171 205.361717,42.7145366 C206.32562,43.7393171 207.60562,44.2505366 209.202498,44.2505366 C210.466888,44.2505366 211.641522,43.9047805 212.7264,43.2117073 M201.544351,48.3621463 C200.083278,47.4583415 198.946107,46.1931707 198.132839,44.5666341 C197.319571,42.9400976 196.912937,41.0731707 196.912937,38.9650732 C196.912937,36.3441951 197.47801,33.9582439 198.607376,31.8040976 C199.736741,29.6507317 201.295376,27.9562927 203.283278,26.7207805 C205.271961,25.4860488 207.469815,24.8686829 209.879961,24.8686829 C211.806985,24.8686829 213.433522,25.2682927 214.759571,26.0659512 C216.084059,26.8643902 217.093229,28.0312195 217.786302,29.568 L218.644839,25.1395122 L225.556839,25.1395122 L220.723278,49.4462439 L213.810498,49.4462439 L214.487961,46.3742439 C212.258888,48.6033171 209.62318,49.7178537 206.58162,49.7178537 C204.684254,49.7178537 203.004644,49.2659512 201.544351,48.3621463" id="Fill-45" fill="#FFFFFF"></path>
        <g id="Group-49" transform="translate(67.902439, 0.696195)">
            <mask id="mask-2" fill="white">
                <use xlink:href="#path-1"></use>
            </mask>
            <g id="Clip-48"></g>
            <path d="M1.43523902,5.68850732 C1.61162927,5.77045854 1.79738537,5.80948293 1.98001951,5.80948293 C2.46626341,5.80948293 2.93143415,5.53397073 3.15075122,5.06411707 L4.6172878,1.92187317 C4.9185561,1.27640976 4.63914146,0.507629268 3.99289756,0.206360976 C3.34743415,-0.0964682927 2.57865366,0.183726829 2.27816585,0.829970732 L0.811629268,3.97299512 C0.509580488,4.61845854 0.788995122,5.38645854 1.43523902,5.68850732" id="Fill-47" fill="#FFFFFF" mask="url(#mask-2)"></path>
        </g>
        <g id="Group-52" transform="translate(37.463415, 89.671805)">
            <mask id="mask-4" fill="white">
                <use xlink:href="#path-3"></use>
            </mask>
            <g id="Clip-51"></g>
            <path d="M4.02934634,0.64124878 C3.38232195,0.338419512 2.61510244,0.619395122 2.31383415,1.26563902 L0.847297561,4.40710244 C0.54524878,5.05256585 0.824663415,5.82134634 1.47090732,6.12261463 C1.64729756,6.20534634 1.83305366,6.24437073 2.0156878,6.24437073 C2.50193171,6.24437073 2.96710244,5.96807805 3.18641951,5.49900488 L4.6529561,2.35676098 C4.95500488,1.71129756 4.67559024,0.943297561 4.02934634,0.64124878" id="Fill-50" fill="#FFFFFF" mask="url(#mask-4)"></path>
        </g>
        <g id="Group-55" transform="translate(0.000000, 7.720585)">
            <mask id="mask-6" fill="white">
                <use xlink:href="#path-5"></use>
            </mask>
            <g id="Clip-54"></g>
            <path d="M5.16347317,47.0178341 C3.73986341,47.0178341 2.58161951,45.8603707 2.58161951,44.436761 C2.58161951,43.0131512 3.73986341,41.8556878 5.16347317,41.8556878 C6.58708293,41.8556878 7.74532683,43.0131512 7.74532683,44.436761 C7.74532683,45.8603707 6.58708293,47.0178341 5.16347317,47.0178341 Z M45.9322537,45.7284683 L40.7825951,56.8012488 C40.4813268,57.4474927 40.761522,58.2154927 41.4085463,58.5159805 C41.5849366,58.5979317 41.7699122,58.6369561 41.9517659,58.6369561 C42.4387902,58.6369561 42.903961,58.3598829 43.123278,57.8900293 L68.9402537,2.38329756 C69.2407415,1.73627317 68.9605463,0.969053659 68.3143024,0.667785366 C67.6680585,0.368858537 66.9000585,0.648273171 66.5995707,1.29451707 L47.1326439,43.1473951 C47.1271805,43.1473951 47.1217171,43.1458341 47.1162537,43.1458341 L10.1570341,43.1458341 C9.58181463,40.9214439 7.56425366,39.2730537 5.16347317,39.2730537 C2.31625366,39.2730537 -0.000234146341,41.5895415 -0.000234146341,44.436761 C-0.000234146341,47.2839805 2.31625366,49.6004683 5.16347317,49.6004683 C7.56425366,49.6004683 9.58103415,47.9505171 10.1570341,45.7284683 L45.9322537,45.7284683 Z" id="Fill-53" fill="#FFFFFF" mask="url(#mask-6)"></path>
        </g>
        <path d="M96.1688195,66.3565268 C94.7452098,66.3565268 93.5869659,65.1990634 93.5869659,63.7746732 C93.5869659,62.3510634 94.7452098,61.1936 96.1688195,61.1936 C97.5924293,61.1936 98.7506732,62.3510634 98.7506732,63.7746732 C98.7506732,65.1990634 97.5924293,66.3565268 96.1688195,66.3565268 M96.1688195,58.6109659 C93.768039,58.6109659 91.750478,60.2593561 91.1752585,62.4837463 L55.9854049,62.4837463 L59.9057951,53.9889171 C60.204722,53.3411122 59.9221854,52.5746732 59.2743805,52.2757463 C58.6289171,51.976039 57.8601366,52.2593561 57.5619902,52.907161 L42.0716488,86.4696976 C41.7735024,87.1175024 42.0552585,87.8839415 42.7030634,88.1828683 C42.8778927,88.2632585 43.0620878,88.3015024 43.243161,88.3015024 C43.7309659,88.3015024 44.198478,88.0236488 44.4154537,87.5514537 L54.796722,65.0593561 C54.8185756,65.0609171 54.8388683,65.0663805 54.8615024,65.0663805 L91.1752585,65.0663805 C91.750478,67.2892098 93.768039,68.939161 96.1688195,68.939161 C99.016039,68.939161 101.331746,66.6226732 101.331746,63.7746732 C101.331746,60.9274537 99.016039,58.6109659 96.1688195,58.6109659" id="Fill-56" fill="#FFFFFF"></path>
        <g id="Page-1" transform="translate(41.000000, 52.000000)"></g>
    </g>
</svg>