<?xml version="1.0" standalone="no"?>
<!DOCTYPE svg PUBLIC "-//W3C//DTD SVG 20010904//EN"
 "http://www.w3.org/TR/2001/REC-SVG-20010904/DTD/svg10.dtd">
<svg version="1.0" xmlns="http://www.w3.org/2000/svg"
 width="700.000000pt" height="700.000000pt" viewBox="0 0 700.000000 700.000000"
 preserveAspectRatio="xMidYMid meet">
<metadata>
Created by potrace 1.11, written by Peter Selinger 2001-2013
</metadata>
<g transform="translate(0.000000,700.000000) scale(0.100000,-0.100000)"
fill="#000000" stroke="none">
<path d="M0 3500 l0 -3500 1336 2 1336 3 962 2046 c530 1126 973 2061 985
2078 34 47 101 82 170 88 149 14 274 -124 242 -267 -6 -25 -127 -296 -271
-603 -143 -308 -260 -561 -260 -563 0 -2 560 -4 1245 -4 l1245 0 0 -230 0
-230 -1354 0 -1353 0 -543 -1142 c-299 -629 -547 -1151 -552 -1160 -8 -17 86
-18 1902 -18 l1910 0 0 3500 0 3500 -3500 0 -3500 0 0 -3500z m4967 3483 c-3
-5 -564 -1209 -1247 -2678 -683 -1468 -1252 -2683 -1263 -2700 -96 -137 -318
-127 -393 18 -22 42 -33 114 -23 157 5 21 214 478 465 1016 251 539 458 987
461 997 5 16 -70 17 -1476 17 l-1481 0 0 225 0 225 1593 0 1592 0 590 1273
c324 699 608 1314 632 1365 l43 92 256 0 c140 0 253 -3 251 -7z"/>
</g>
</svg>
