<?xml version="1.0" encoding="UTF-8" standalone="no"?>
<svg width="456px" height="440px" viewBox="0 0 456 440" version="1.1" xmlns="http://www.w3.org/2000/svg" xmlns:xlink="http://www.w3.org/1999/xlink">
    <!-- Generator: Sketch 50.2 (55047) - http://www.bohemiancoding.com/sketch -->
    <title>Schema_SSE_EN</title>
    <desc>Created with Sketch.</desc>
    <defs>
        <circle id="path-1" cx="220" cy="68" r="68"></circle>
        <filter x="-10.3%" y="-7.4%" width="120.6%" height="120.6%" filterUnits="objectBoundingBox" id="filter-2">
            <feOffset dx="0" dy="4" in="SourceAlpha" result="shadowOffsetOuter1"></feOffset>
            <feGaussianBlur stdDeviation="4" in="shadowOffsetOuter1" result="shadowBlurOuter1"></feGaussianBlur>
            <feColorMatrix values="0 0 0 0 0   0 0 0 0 0   0 0 0 0 0.4  0 0 0 0.1 0" type="matrix" in="shadowBlurOuter1"></feColorMatrix>
        </filter>
        <circle id="path-3" cx="68" cy="172" r="68"></circle>
        <filter x="-10.3%" y="-7.4%" width="120.6%" height="120.6%" filterUnits="objectBoundingBox" id="filter-4">
            <feOffset dx="0" dy="4" in="SourceAlpha" result="shadowOffsetOuter1"></feOffset>
            <feGaussianBlur stdDeviation="4" in="shadowOffsetOuter1" result="shadowBlurOuter1"></feGaussianBlur>
            <feColorMatrix values="0 0 0 0 0   0 0 0 0 0   0 0 0 0 0.4  0 0 0 0.1 0" type="matrix" in="shadowBlurOuter1"></feColorMatrix>
        </filter>
        <circle id="path-5" cx="372" cy="172" r="68"></circle>
        <filter x="-10.3%" y="-7.4%" width="120.6%" height="120.6%" filterUnits="objectBoundingBox" id="filter-6">
            <feOffset dx="0" dy="4" in="SourceAlpha" result="shadowOffsetOuter1"></feOffset>
            <feGaussianBlur stdDeviation="4" in="shadowOffsetOuter1" result="shadowBlurOuter1"></feGaussianBlur>
            <feColorMatrix values="0 0 0 0 0   0 0 0 0 0   0 0 0 0 0.4  0 0 0 0.1 0" type="matrix" in="shadowBlurOuter1"></feColorMatrix>
        </filter>
        <circle id="path-7" cx="317" cy="356" r="68"></circle>
        <filter x="-10.3%" y="-7.4%" width="120.6%" height="120.6%" filterUnits="objectBoundingBox" id="filter-8">
            <feOffset dx="0" dy="4" in="SourceAlpha" result="shadowOffsetOuter1"></feOffset>
            <feGaussianBlur stdDeviation="4" in="shadowOffsetOuter1" result="shadowBlurOuter1"></feGaussianBlur>
            <feColorMatrix values="0 0 0 0 0   0 0 0 0 0   0 0 0 0 0.4  0 0 0 0.1 0" type="matrix" in="shadowBlurOuter1"></feColorMatrix>
        </filter>
        <circle id="path-9" cx="124" cy="356" r="68"></circle>
        <filter x="-10.3%" y="-7.4%" width="120.6%" height="120.6%" filterUnits="objectBoundingBox" id="filter-10">
            <feOffset dx="0" dy="4" in="SourceAlpha" result="shadowOffsetOuter1"></feOffset>
            <feGaussianBlur stdDeviation="4" in="shadowOffsetOuter1" result="shadowBlurOuter1"></feGaussianBlur>
            <feColorMatrix values="0 0 0 0 0   0 0 0 0 0   0 0 0 0 0.4  0 0 0 0.1 0" type="matrix" in="shadowBlurOuter1"></feColorMatrix>
        </filter>
    </defs>
    <g id="Maquettes" stroke="none" stroke-width="1" fill="none" fill-rule="evenodd">
        <g id="VectorStuff" transform="translate(-2535.000000, -206.000000)">
            <g id="Schema_SSE_EN" transform="translate(2543.000000, 210.000000)">
                <g id="Fond">
                    <polygon id="Path-4" stroke-opacity="0.1" stroke="#000066" stroke-width="52" opacity="0.5" points="375.55 173.460649 220.702149 67.4774347 66.4568182 173.460649 124.298817 356.522565 317.10548 356.522565"></polygon>
                    <path d="M375.55,173.460649 L220.702149,67.4774347 L66.4568182,173.460649 L124.298817,356.522565 L317.10548,356.522565 L375.55,173.460649 Z" id="Path-4" stroke="#000066" stroke-width="2" opacity="0.2" stroke-linecap="round" stroke-dasharray="4,8"></path>
                    <g id="Oval-4">
                        <use fill="black" fill-opacity="1" filter="url(#filter-2)" xlink:href="#path-1"></use>
                        <use fill="#FFFFFF" fill-rule="evenodd" xlink:href="#path-1"></use>
                    </g>
                    <g id="Oval-4">
                        <use fill="black" fill-opacity="1" filter="url(#filter-4)" xlink:href="#path-3"></use>
                        <use fill="#FFFFFF" fill-rule="evenodd" xlink:href="#path-3"></use>
                    </g>
                    <g id="Oval-4">
                        <use fill="black" fill-opacity="1" filter="url(#filter-6)" xlink:href="#path-5"></use>
                        <use fill="#FFFFFF" fill-rule="evenodd" xlink:href="#path-5"></use>
                    </g>
                    <g id="Oval-4">
                        <use fill="black" fill-opacity="1" filter="url(#filter-8)" xlink:href="#path-7"></use>
                        <use fill="#FFFFFF" fill-rule="evenodd" xlink:href="#path-7"></use>
                    </g>
                    <g id="Oval-4">
                        <use fill="black" fill-opacity="1" filter="url(#filter-10)" xlink:href="#path-9"></use>
                        <use fill="#FFFFFF" fill-rule="evenodd" xlink:href="#path-9"></use>
                    </g>
                </g>
                <path d="M202.796,84.392 C202.235997,84.2266658 201.721336,84.144 201.252,84.144 C200.60133,84.144 200.081335,84.2693321 199.692,84.52 C199.302665,84.7706679 199.108,85.1146645 199.108,85.552 C199.108,85.9466686 199.225332,86.2693321 199.46,86.52 C199.694668,86.7706679 199.982665,86.9679993 200.324,87.112 C200.665335,87.2560007 201.139997,87.423999 201.748,87.616 C202.505337,87.8506678 203.118664,88.0746656 203.588,88.288 C204.057336,88.5013344 204.457332,88.8186646 204.788,89.24 C205.118668,89.6613354 205.284,90.2186632 205.284,90.912 C205.284,91.5520032 205.110668,92.1119976 204.764,92.592 C204.417332,93.0720024 203.932003,93.4426654 203.308,93.704 C202.683997,93.9653346 201.966671,94.096 201.156,94.096 C200.334663,94.096 199.534671,93.9360016 198.756,93.616 C197.977329,93.2959984 197.305336,92.869336 196.74,92.336 L197.428,91.008 C197.961336,91.5306693 198.56133,91.9333319 199.228,92.216 C199.89467,92.4986681 200.542664,92.64 201.172,92.64 C201.91867,92.64 202.507998,92.4933348 202.94,92.2 C203.372002,91.9066652 203.588,91.5093358 203.588,91.008 C203.588,90.6133314 203.470668,90.2880013 203.236,90.032 C203.001332,89.7759987 202.705335,89.5733341 202.348,89.424 C201.990665,89.2746659 201.508003,89.1093342 200.9,88.928 C200.15333,88.7039989 199.545336,88.4853344 199.076,88.272 C198.606664,88.0586656 198.209335,87.7440021 197.884,87.328 C197.558665,86.9119979 197.396,86.3626701 197.396,85.68 C197.396,85.0826637 197.561332,84.554669 197.892,84.096 C198.222668,83.637331 198.686664,83.2853346 199.284,83.04 C199.881336,82.7946654 200.574663,82.672 201.364,82.672 C202.036003,82.672 202.694663,82.7706657 203.34,82.968 C203.985337,83.1653343 204.558664,83.4293317 205.06,83.76 L204.42,85.136 C203.897331,84.8053317 203.356003,84.5573342 202.796,84.392 Z M212.756,94 L212.756,92.816 C212.126664,93.6480042 211.140007,94.064 209.796,94.064 C209.20933,94.064 208.694669,93.9520011 208.252,93.728 C207.809331,93.5039989 207.468001,93.1946686 207.228,92.8 C206.987999,92.4053314 206.868,91.9626691 206.868,91.472 C206.868,90.7146629 207.147997,90.1146689 207.708,89.672 C208.268003,89.2293311 209.049328,89.0026667 210.052,88.992 L212.74,88.992 L212.74,88.592 C212.74,87.9946637 212.556002,87.533335 212.188,87.208 C211.819998,86.882665 211.284004,86.72 210.58,86.72 C209.726662,86.72 208.857338,87.023997 207.972,87.632 L207.348,86.608 C207.956003,86.2133314 208.518664,85.9280009 209.036,85.752 C209.553336,85.5759991 210.16933,85.488 210.884,85.488 C211.940005,85.488 212.755997,85.7466641 213.332,86.264 C213.908003,86.7813359 214.201333,87.5039954 214.212,88.432 L214.228,94 L212.756,94 Z M211.868,92.328 C212.353336,91.9919983 212.644,91.5466694 212.74,90.992 L212.74,90.144 L210.26,90.144 C209.587997,90.144 209.089335,90.2453323 208.764,90.448 C208.438665,90.6506677 208.276,90.9706645 208.276,91.408 C208.276,91.8453355 208.441332,92.1919987 208.772,92.448 C209.102668,92.7040013 209.545331,92.832 210.1,92.832 C210.793337,92.832 211.382664,92.6640017 211.868,92.328 Z M219.044,83.712 C218.787999,83.9466678 218.66,84.2826645 218.66,84.72 L218.66,85.824 L220.996,85.824 L220.996,86.96 L218.66,86.96 L218.66,94 L217.172,94 L217.172,86.96 L216.068,86.96 L216.068,85.824 L217.172,85.824 L217.172,84.912 C217.172,84.2933302 217.302665,83.7680022 217.564,83.336 C217.825335,82.9039978 218.169331,82.5786678 218.596,82.36 C219.022669,82.1413322 219.481331,82.032 219.972,82.032 C220.441336,82.032 220.931997,82.1599987 221.444,82.416 L221.092,83.632 C220.707998,83.4506658 220.345335,83.36 220.004,83.36 C219.619998,83.36 219.300001,83.4773322 219.044,83.712 Z M228.564,86.648 C229.236003,87.4213372 229.572,88.4959931 229.572,89.872 C229.572,90.0853344 229.566667,90.2453328 229.556,90.352 L222.868,90.352 C222.985334,91.1093371 223.302664,91.7119978 223.82,92.16 C224.337336,92.6080022 224.974663,92.832 225.732,92.832 C226.233336,92.832 226.699998,92.7413342 227.132,92.56 C227.564002,92.3786658 227.939998,92.1226683 228.26,91.792 L229.076,92.64 C228.659998,93.0880022 228.15867,93.4346654 227.572,93.68 C226.98533,93.9253346 226.33467,94.048 225.62,94.048 C224.787996,94.048 224.049337,93.8693351 223.404,93.512 C222.758663,93.1546649 222.257335,92.6506699 221.9,92 C221.542665,91.3493301 221.364,90.6080042 221.364,89.776 C221.364,88.9439958 221.542665,88.2053366 221.9,87.56 C222.257335,86.9146634 222.755997,86.4080018 223.396,86.04 C224.036003,85.6719982 224.766663,85.488 225.588,85.488 C226.900007,85.488 227.891997,85.8746628 228.564,86.648 Z M228.228,89.2 C228.185333,88.4319962 227.929336,87.8266689 227.46,87.384 C226.990664,86.9413311 226.372004,86.72 225.604,86.72 C224.85733,86.72 224.236002,86.9439978 223.74,87.392 C223.243998,87.8400022 222.948,88.4426629 222.852,89.2 L228.228,89.2 Z M236.148,93.44 C235.49733,93.8560021 234.836003,94.064 234.164,94.064 C233.491997,94.064 232.948002,93.864002 232.532,93.464 C232.115998,93.063998 231.908,92.4586707 231.908,91.648 L231.908,86.96 L230.708,86.96 L230.708,85.824 L231.908,85.824 L231.908,83.552 L233.412,83.552 L233.412,85.824 L236.004,85.824 L236.004,86.96 L233.412,86.96 L233.412,91.376 C233.412,91.8453357 233.497332,92.1813323 233.668,92.384 C233.838668,92.5866677 234.094665,92.688 234.436,92.688 C234.841335,92.688 235.278664,92.554668 235.748,92.288 L236.148,93.44 Z M239.852,96.672 C239.409331,97.0026683 238.889336,97.168 238.292,97.168 C237.929332,97.168 237.598668,97.1146672 237.3,97.008 C237.001332,96.9013328 236.713335,96.7360011 236.436,96.512 L237.076,95.344 C237.449335,95.610668 237.827998,95.744 238.212,95.744 C238.852003,95.744 239.331998,95.381337 239.652,94.656 L239.972,93.904 L236.468,85.536 L238.036,85.536 L240.724,92.32 L243.268,85.536 L244.788,85.536 L240.916,95.2 C240.649332,95.8506699 240.294669,96.3413317 239.852,96.672 Z" id="Safety" fill="#000066"></path>
                <path d="M356.864,199.136 C356.437331,199.520002 355.968003,199.818666 355.456,200.032 C354.943997,200.245334 354.437336,200.352 353.936,200.352 C353.263997,200.352 352.629336,200.160002 352.032,199.776 C351.434664,199.391998 350.896002,198.837337 350.416,198.112 L350.32,198.112 C349.242661,198.112 348.253338,197.858669 347.352,197.352 C346.450662,196.845331 345.738669,196.152004 345.216,195.272 C344.693331,194.391996 344.432,193.429339 344.432,192.384 C344.432,191.338661 344.693331,190.381338 345.216,189.512 C345.738669,188.642662 346.447996,187.957336 347.344,187.456 C348.240004,186.954664 349.231995,186.704 350.32,186.704 C351.397339,186.704 352.386662,186.954664 353.288,187.456 C354.189338,187.957336 354.901331,188.642662 355.424,189.512 C355.946669,190.381338 356.208,191.338661 356.208,192.384 C356.208,193.248004 356.029335,194.05333 355.672,194.8 C355.314665,195.54667 354.821336,196.186664 354.192,196.72 C353.562664,197.253336 352.842671,197.637332 352.032,197.872 C352.736004,198.629337 353.42933,199.008 354.112,199.008 C354.73067,199.008 355.434663,198.68267 356.224,198.032 L356.864,199.136 Z M346.576,194.56 C346.970669,195.221337 347.50133,195.746665 348.168,196.136 C348.83467,196.525335 349.557329,196.72 350.336,196.72 C351.114671,196.72 351.831997,196.525335 352.488,196.136 C353.144003,195.746665 353.666665,195.221337 354.056,194.56 C354.445335,193.898663 354.64,193.173337 354.64,192.384 C354.64,191.594663 354.445335,190.872003 354.056,190.216 C353.666665,189.559997 353.144003,189.040002 352.488,188.656 C351.831997,188.271998 351.114671,188.08 350.336,188.08 C349.557329,188.08 348.83467,188.271998 348.168,188.656 C347.50133,189.040002 346.970669,189.559997 346.576,190.216 C346.181331,190.872003 345.984,191.594663 345.984,192.384 C345.984,193.173337 346.181331,193.898663 346.576,194.56 Z M365.92,189.536 L365.92,198 L364.416,198 L364.416,196.208 C363.861331,197.413339 362.816008,198.026667 361.28,198.048 C360.298662,198.048 359.530669,197.757336 358.976,197.176 C358.421331,196.594664 358.144,195.792005 358.144,194.768 L358.144,189.536 L359.648,189.536 L359.648,194.368 C359.648,195.08267 359.842665,195.639998 360.232,196.04 C360.621335,196.440002 361.15733,196.64 361.84,196.64 C362.629337,196.629333 363.255998,196.349336 363.72,195.8 C364.184002,195.250664 364.416,194.549338 364.416,193.696 L364.416,189.536 L365.92,189.536 Z M373.984,198 L373.984,196.816 C373.354664,197.648004 372.368007,198.064 371.024,198.064 C370.43733,198.064 369.922669,197.952001 369.48,197.728 C369.037331,197.503999 368.696001,197.194669 368.456,196.8 C368.215999,196.405331 368.096,195.962669 368.096,195.472 C368.096,194.714663 368.375997,194.114669 368.936,193.672 C369.496003,193.229331 370.277328,193.002667 371.28,192.992 L373.968,192.992 L373.968,192.592 C373.968,191.994664 373.784002,191.533335 373.416,191.208 C373.047998,190.882665 372.512004,190.72 371.808,190.72 C370.954662,190.72 370.085338,191.023997 369.2,191.632 L368.576,190.608 C369.184003,190.213331 369.746664,189.928001 370.264,189.752 C370.781336,189.575999 371.39733,189.488 372.112,189.488 C373.168005,189.488 373.983997,189.746664 374.56,190.264 C375.136003,190.781336 375.429333,191.503995 375.44,192.432 L375.456,198 L373.984,198 Z M373.096,196.328 C373.581336,195.991998 373.872,195.546669 373.968,194.992 L373.968,194.144 L371.488,194.144 C370.815997,194.144 370.317335,194.245332 369.992,194.448 C369.666665,194.650668 369.504,194.970664 369.504,195.408 C369.504,195.845336 369.669332,196.191999 370,196.448 C370.330668,196.704001 370.773331,196.832 371.328,196.832 C372.021337,196.832 372.610664,196.664002 373.096,196.328 Z M378.192,186.128 L379.68,186.128 L379.68,198 L378.192,198 L378.192,186.128 Z M382.672,189.536 L384.16,189.536 L384.16,198 L382.672,198 L382.672,189.536 Z M384.072,186.432 C384.248001,186.613334 384.336,186.842665 384.336,187.12 C384.336,187.397335 384.248001,187.626666 384.072,187.808 C383.895999,187.989334 383.674668,188.08 383.408,188.08 C383.141332,188.08 382.920001,187.989334 382.744,187.808 C382.567999,187.626666 382.48,187.397335 382.48,187.12 C382.48,186.842665 382.567999,186.613334 382.744,186.432 C382.920001,186.250666 383.141332,186.16 383.408,186.16 C383.674668,186.16 383.895999,186.250666 384.072,186.432 Z M391.6,197.44 C390.94933,197.856002 390.288003,198.064 389.616,198.064 C388.943997,198.064 388.400002,197.864002 387.984,197.464 C387.567998,197.063998 387.36,196.458671 387.36,195.648 L387.36,190.96 L386.16,190.96 L386.16,189.824 L387.36,189.824 L387.36,187.552 L388.864,187.552 L388.864,189.824 L391.456,189.824 L391.456,190.96 L388.864,190.96 L388.864,195.376 C388.864,195.845336 388.949332,196.181332 389.12,196.384 C389.290668,196.586668 389.546665,196.688 389.888,196.688 C390.293335,196.688 390.730664,196.554668 391.2,196.288 L391.6,197.44 Z M395.304,200.672 C394.861331,201.002668 394.341336,201.168 393.744,201.168 C393.381332,201.168 393.050668,201.114667 392.752,201.008 C392.453332,200.901333 392.165335,200.736001 391.888,200.512 L392.528,199.344 C392.901335,199.610668 393.279998,199.744 393.664,199.744 C394.304003,199.744 394.783998,199.381337 395.104,198.656 L395.424,197.904 L391.92,189.536 L393.488,189.536 L396.176,196.32 L398.72,189.536 L400.24,189.536 L396.368,199.2 C396.101332,199.85067 395.746669,200.341332 395.304,200.672 Z" id="Quality" fill="#000066"></path>
                <path d="M275.064,371.792 C275.82667,372.453337 276.208,373.381327 276.208,374.576 C276.208,375.824006 275.824004,376.791997 275.056,377.48 C274.287996,378.168003 273.210674,378.512 271.824,378.512 L269.04,378.512 L269.04,382 L267.504,382 L267.504,370.8 L271.824,370.8 C273.22134,370.8 274.30133,371.130663 275.064,371.792 Z M273.968,376.488 C274.480003,376.066665 274.736,375.445337 274.736,374.624 C274.736,373.823996 274.480003,373.218669 273.968,372.808 C273.455997,372.397331 272.720005,372.192 271.76,372.192 L269.04,372.208 L269.04,377.12 L271.76,377.12 C272.720005,377.12 273.455997,376.909335 273.968,376.488 Z M284.464,374.648 C285.136003,375.421337 285.472,376.495993 285.472,377.872 C285.472,378.085334 285.466667,378.245333 285.456,378.352 L278.768,378.352 C278.885334,379.109337 279.202664,379.711998 279.72,380.16 C280.237336,380.608002 280.874663,380.832 281.632,380.832 C282.133336,380.832 282.599998,380.741334 283.032,380.56 C283.464002,380.378666 283.839998,380.122668 284.16,379.792 L284.976,380.64 C284.559998,381.088002 284.05867,381.434665 283.472,381.68 C282.88533,381.925335 282.23467,382.048 281.52,382.048 C280.687996,382.048 279.949337,381.869335 279.304,381.512 C278.658663,381.154665 278.157335,380.65067 277.8,380 C277.442665,379.34933 277.264,378.608004 277.264,377.776 C277.264,376.943996 277.442665,376.205337 277.8,375.56 C278.157335,374.914663 278.655997,374.408002 279.296,374.04 C279.936003,373.671998 280.666663,373.488 281.488,373.488 C282.800007,373.488 283.791997,373.874663 284.464,374.648 Z M284.128,377.2 C284.085333,376.431996 283.829336,375.826669 283.36,375.384 C282.890664,374.941331 282.272004,374.72 281.504,374.72 C280.75733,374.72 280.136002,374.943998 279.64,375.392 C279.143998,375.840002 278.848,376.442663 278.752,377.2 L284.128,377.2 Z M290.176,373.976 C290.688003,373.661332 291.295996,373.498667 292,373.488 L292,374.928 C291.135996,374.896 290.437336,375.119998 289.904,375.6 C289.370664,376.080002 289.066667,376.725329 288.992,377.536 L288.992,382 L287.504,382 L287.504,373.536 L288.992,373.536 L288.992,375.36 C289.269335,374.751997 289.663997,374.290668 290.176,373.976 Z M295.776,371.712 C295.519999,371.946668 295.392,372.282664 295.392,372.72 L295.392,373.824 L297.728,373.824 L297.728,374.96 L295.392,374.96 L295.392,382 L293.904,382 L293.904,374.96 L292.8,374.96 L292.8,373.824 L293.904,373.824 L293.904,372.912 C293.904,372.29333 294.034665,371.768002 294.296,371.336 C294.557335,370.903998 294.901331,370.578668 295.328,370.36 C295.754669,370.141332 296.213331,370.032 296.704,370.032 C297.173336,370.032 297.663997,370.159999 298.176,370.416 L297.824,371.632 C297.439998,371.450666 297.077335,371.36 296.736,371.36 C296.351998,371.36 296.032001,371.477332 295.776,371.712 Z M304.696,374.032 C305.352003,374.394668 305.863998,374.898663 306.232,375.544 C306.600002,376.189337 306.784,376.927996 306.784,377.76 C306.784,378.592004 306.600002,379.33333 306.232,379.984 C305.863998,380.63467 305.352003,381.141332 304.696,381.504 C304.039997,381.866668 303.290671,382.048 302.448,382.048 C301.594662,382.048 300.840003,381.866668 300.184,381.504 C299.527997,381.141332 299.016002,380.637337 298.648,379.992 C298.279998,379.346663 298.096,378.602671 298.096,377.76 C298.096,376.927996 298.279998,376.189337 298.648,375.544 C299.016002,374.898663 299.527997,374.394668 300.184,374.032 C300.840003,373.669332 301.594662,373.488 302.448,373.488 C303.290671,373.488 304.039997,373.669332 304.696,374.032 Z M300.968,375.168 C300.535998,375.424001 300.200001,375.778664 299.96,376.232 C299.719999,376.685336 299.6,377.199997 299.6,377.776 C299.6,378.36267 299.719999,378.885331 299.96,379.344 C300.200001,379.802669 300.535998,380.157332 300.968,380.408 C301.400002,380.658668 301.893331,380.784 302.448,380.784 C302.992003,380.784 303.479998,380.658668 303.912,380.408 C304.344002,380.157332 304.679999,379.802669 304.92,379.344 C305.160001,378.885331 305.28,378.36267 305.28,377.776 C305.28,377.199997 305.160001,376.685336 304.92,376.232 C304.679999,375.778664 304.344002,375.424001 303.912,375.168 C303.479998,374.911999 302.992003,374.784 302.448,374.784 C301.893331,374.784 301.400002,374.911999 300.968,375.168 Z M311.536,373.976 C312.048003,373.661332 312.655996,373.498667 313.36,373.488 L313.36,374.928 C312.495996,374.896 311.797336,375.119998 311.264,375.6 C310.730664,376.080002 310.426667,376.725329 310.352,377.536 L310.352,382 L308.864,382 L308.864,373.536 L310.352,373.536 L310.352,375.36 C310.629335,374.751997 311.023997,374.290668 311.536,373.976 Z M328.192,374.368 C328.746669,374.95467 329.024,375.754662 329.024,376.768 L329.024,382 L327.52,382 L327.52,377.168 C327.52,376.45333 327.325335,375.893335 326.936,375.488 C326.546665,375.082665 326.01067,374.88 325.328,374.88 C324.527996,374.901333 323.898669,375.183997 323.44,375.728 C322.981331,376.272003 322.752,376.970662 322.752,377.824 L322.752,382 L321.248,382 L321.248,377.168 C321.248,376.45333 321.056002,375.893335 320.672,375.488 C320.287998,375.082665 319.749337,374.88 319.056,374.88 C318.255996,374.901333 317.624002,375.183997 317.16,375.728 C316.695998,376.272003 316.464,376.970662 316.464,377.824 L316.464,382 L314.976,382 L314.976,373.536 L316.464,373.536 L316.464,375.312 C317.018669,374.117327 318.069326,373.509333 319.616,373.488 C320.394671,373.488 321.042664,373.674665 321.56,374.048 C322.077336,374.421335 322.426666,374.943997 322.608,375.616 C323.130669,374.21866 324.229325,373.509333 325.904,373.488 C326.874672,373.488 327.637331,373.78133 328.192,374.368 Z M336.848,382 L336.848,380.816 C336.218664,381.648004 335.232007,382.064 333.888,382.064 C333.30133,382.064 332.786669,381.952001 332.344,381.728 C331.901331,381.503999 331.560001,381.194669 331.32,380.8 C331.079999,380.405331 330.96,379.962669 330.96,379.472 C330.96,378.714663 331.239997,378.114669 331.8,377.672 C332.360003,377.229331 333.141328,377.002667 334.144,376.992 L336.832,376.992 L336.832,376.592 C336.832,375.994664 336.648002,375.533335 336.28,375.208 C335.911998,374.882665 335.376004,374.72 334.672,374.72 C333.818662,374.72 332.949338,375.023997 332.064,375.632 L331.44,374.608 C332.048003,374.213331 332.610664,373.928001 333.128,373.752 C333.645336,373.575999 334.26133,373.488 334.976,373.488 C336.032005,373.488 336.847997,373.746664 337.424,374.264 C338.000003,374.781336 338.293333,375.503995 338.304,376.432 L338.32,382 L336.848,382 Z M335.96,380.328 C336.445336,379.991998 336.736,379.546669 336.832,378.992 L336.832,378.144 L334.352,378.144 C333.679997,378.144 333.181335,378.245332 332.856,378.448 C332.530665,378.650668 332.368,378.970664 332.368,379.408 C332.368,379.845336 332.533332,380.191999 332.864,380.448 C333.194668,380.704001 333.637331,380.832 334.192,380.832 C334.885337,380.832 335.474664,380.664002 335.96,380.328 Z M348.016,374.36 C348.581336,374.941336 348.864,375.743995 348.864,376.768 L348.864,382 L347.376,382 L347.376,377.168 C347.376,376.45333 347.176002,375.896002 346.776,375.496 C346.375998,375.095998 345.824004,374.896 345.12,374.896 C344.362663,374.906667 343.746669,375.149331 343.272,375.624 C342.797331,376.098669 342.528,376.714663 342.464,377.472 L342.464,382 L340.976,382 L340.976,373.536 L342.464,373.536 L342.464,375.328 C343.029336,374.122661 344.101325,373.509333 345.68,373.488 C346.672005,373.488 347.450664,373.778664 348.016,374.36 Z M355.04,374.816 C354.485331,374.816 353.992002,374.938665 353.56,375.184 C353.127998,375.429335 352.789335,375.775998 352.544,376.224 C352.298665,376.672002 352.176,377.18933 352.176,377.776 C352.176,378.36267 352.295999,378.879998 352.536,379.328 C352.776001,379.776002 353.106665,380.125332 353.528,380.376 C353.949335,380.626668 354.431997,380.752 354.976,380.752 C355.520003,380.752 356.010664,380.661334 356.448,380.48 C356.885336,380.298666 357.247999,380.037335 357.536,379.696 L358.384,380.56 C357.999998,381.040002 357.512003,381.407999 356.92,381.664 C356.327997,381.920001 355.65867,382.048 354.912,382.048 C354.090663,382.048 353.360003,381.866668 352.72,381.504 C352.079997,381.141332 351.581335,380.637337 351.224,379.992 C350.866665,379.346663 350.688,378.608004 350.688,377.776 C350.688,376.943996 350.866665,376.20267 351.224,375.552 C351.581335,374.90133 352.079997,374.394668 352.72,374.032 C353.360003,373.669332 354.090663,373.488 354.912,373.488 C355.62667,373.488 356.26933,373.597332 356.84,373.816 C357.41067,374.034668 357.887998,374.351998 358.272,374.768 L357.456,375.792 C356.783997,375.14133 355.978671,374.816 355.04,374.816 Z M366.512,374.648 C367.184003,375.421337 367.52,376.495993 367.52,377.872 C367.52,378.085334 367.514667,378.245333 367.504,378.352 L360.816,378.352 C360.933334,379.109337 361.250664,379.711998 361.768,380.16 C362.285336,380.608002 362.922663,380.832 363.68,380.832 C364.181336,380.832 364.647998,380.741334 365.08,380.56 C365.512002,380.378666 365.887998,380.122668 366.208,379.792 L367.024,380.64 C366.607998,381.088002 366.10667,381.434665 365.52,381.68 C364.93333,381.925335 364.28267,382.048 363.568,382.048 C362.735996,382.048 361.997337,381.869335 361.352,381.512 C360.706663,381.154665 360.205335,380.65067 359.848,380 C359.490665,379.34933 359.312,378.608004 359.312,377.776 C359.312,376.943996 359.490665,376.205337 359.848,375.56 C360.205335,374.914663 360.703997,374.408002 361.344,374.04 C361.984003,373.671998 362.714663,373.488 363.536,373.488 C364.848007,373.488 365.839997,373.874663 366.512,374.648 Z M366.176,377.2 C366.133333,376.431996 365.877336,375.826669 365.408,375.384 C364.938664,374.941331 364.320004,374.72 363.552,374.72 C362.80533,374.72 362.184002,374.943998 361.688,375.392 C361.191998,375.840002 360.896,376.442663 360.8,377.2 L366.176,377.2 Z" id="Performance" fill="#000066"></path>
                <path d="M113.528,371.792 C114.29067,372.453337 114.672,373.381327 114.672,374.576 C114.672,375.824006 114.288004,376.791997 113.52,377.48 C112.751996,378.168003 111.674674,378.512 110.288,378.512 L107.504,378.512 L107.504,382 L105.968,382 L105.968,370.8 L110.288,370.8 C111.68534,370.8 112.76533,371.130663 113.528,371.792 Z M112.432,376.488 C112.944003,376.066665 113.2,375.445337 113.2,374.624 C113.2,373.823996 112.944003,373.218669 112.432,372.808 C111.919997,372.397331 111.184005,372.192 110.224,372.192 L107.504,372.208 L107.504,377.12 L110.224,377.12 C111.184005,377.12 111.919997,376.909335 112.432,376.488 Z M119.232,373.976 C119.744003,373.661332 120.351996,373.498667 121.056,373.488 L121.056,374.928 C120.191996,374.896 119.493336,375.119998 118.96,375.6 C118.426664,376.080002 118.122667,376.725329 118.048,377.536 L118.048,382 L116.56,382 L116.56,373.536 L118.048,373.536 L118.048,375.36 C118.325335,374.751997 118.719997,374.290668 119.232,373.976 Z M122.672,373.536 L124.16,373.536 L124.16,382 L122.672,382 L122.672,373.536 Z M124.072,370.432 C124.248001,370.613334 124.336,370.842665 124.336,371.12 C124.336,371.397335 124.248001,371.626666 124.072,371.808 C123.895999,371.989334 123.674668,372.08 123.408,372.08 C123.141332,372.08 122.920001,371.989334 122.744,371.808 C122.567999,371.626666 122.48,371.397335 122.48,371.12 C122.48,370.842665 122.567999,370.613334 122.744,370.432 C122.920001,370.250666 123.141332,370.16 123.408,370.16 C123.674668,370.16 123.895999,370.250666 124.072,370.432 Z M130.576,374.816 C130.021331,374.816 129.528002,374.938665 129.096,375.184 C128.663998,375.429335 128.325335,375.775998 128.08,376.224 C127.834665,376.672002 127.712,377.18933 127.712,377.776 C127.712,378.36267 127.831999,378.879998 128.072,379.328 C128.312001,379.776002 128.642665,380.125332 129.064,380.376 C129.485335,380.626668 129.967997,380.752 130.512,380.752 C131.056003,380.752 131.546664,380.661334 131.984,380.48 C132.421336,380.298666 132.783999,380.037335 133.072,379.696 L133.92,380.56 C133.535998,381.040002 133.048003,381.407999 132.456,381.664 C131.863997,381.920001 131.19467,382.048 130.448,382.048 C129.626663,382.048 128.896003,381.866668 128.256,381.504 C127.615997,381.141332 127.117335,380.637337 126.76,379.992 C126.402665,379.346663 126.224,378.608004 126.224,377.776 C126.224,376.943996 126.402665,376.20267 126.76,375.552 C127.117335,374.90133 127.615997,374.394668 128.256,374.032 C128.896003,373.669332 129.626663,373.488 130.448,373.488 C131.16267,373.488 131.80533,373.597332 132.376,373.816 C132.94667,374.034668 133.423998,374.351998 133.808,374.768 L132.992,375.792 C132.319997,375.14133 131.514671,374.816 130.576,374.816 Z M142.048,374.648 C142.720003,375.421337 143.056,376.495993 143.056,377.872 C143.056,378.085334 143.050667,378.245333 143.04,378.352 L136.352,378.352 C136.469334,379.109337 136.786664,379.711998 137.304,380.16 C137.821336,380.608002 138.458663,380.832 139.216,380.832 C139.717336,380.832 140.183998,380.741334 140.616,380.56 C141.048002,380.378666 141.423998,380.122668 141.744,379.792 L142.56,380.64 C142.143998,381.088002 141.64267,381.434665 141.056,381.68 C140.46933,381.925335 139.81867,382.048 139.104,382.048 C138.271996,382.048 137.533337,381.869335 136.888,381.512 C136.242663,381.154665 135.741335,380.65067 135.384,380 C135.026665,379.34933 134.848,378.608004 134.848,377.776 C134.848,376.943996 135.026665,376.205337 135.384,375.56 C135.741335,374.914663 136.239997,374.408002 136.88,374.04 C137.520003,373.671998 138.250663,373.488 139.072,373.488 C140.384007,373.488 141.375997,373.874663 142.048,374.648 Z M141.712,377.2 C141.669333,376.431996 141.413336,375.826669 140.944,375.384 C140.474664,374.941331 139.856004,374.72 139.088,374.72 C138.34133,374.72 137.720002,374.943998 137.224,375.392 C136.727998,375.840002 136.432,376.442663 136.336,377.2 L141.712,377.2 Z" id="Price" fill="#000066"></path>
                <path d="M36.932,178.8 L38.468,178.8 L38.468,188.608 L43.364,188.608 L43.364,190 L36.932,190 L36.932,178.8 Z M45.172,181.536 L46.66,181.536 L46.66,190 L45.172,190 L45.172,181.536 Z M46.572,178.432 C46.7480009,178.613334 46.836,178.842665 46.836,179.12 C46.836,179.397335 46.7480009,179.626666 46.572,179.808 C46.3959991,179.989334 46.174668,180.08 45.908,180.08 C45.641332,180.08 45.4200009,179.989334 45.244,179.808 C45.0679991,179.626666 44.98,179.397335 44.98,179.12 C44.98,178.842665 45.0679991,178.613334 45.244,178.432 C45.4200009,178.250666 45.641332,178.16 45.908,178.16 C46.174668,178.16 46.3959991,178.250666 46.572,178.432 Z M51.716,179.712 C51.4599987,179.946668 51.332,180.282664 51.332,180.72 L51.332,181.824 L53.668,181.824 L53.668,182.96 L51.332,182.96 L51.332,190 L49.844,190 L49.844,182.96 L48.74,182.96 L48.74,181.824 L49.844,181.824 L49.844,180.912 C49.844,180.29333 49.9746654,179.768002 50.236,179.336 C50.4973346,178.903998 50.8413312,178.578668 51.268,178.36 C51.6946688,178.141332 52.1533309,178.032 52.644,178.032 C53.1133357,178.032 53.6039974,178.159999 54.116,178.416 L53.764,179.632 C53.3799981,179.450666 53.017335,179.36 52.676,179.36 C52.2919981,179.36 51.9720013,179.477332 51.716,179.712 Z M61.236,182.648 C61.9080034,183.421337 62.244,184.495993 62.244,185.872 C62.244,186.085334 62.2386667,186.245333 62.228,186.352 L55.54,186.352 C55.6573339,187.109337 55.9746641,187.711998 56.492,188.16 C57.0093359,188.608002 57.6466629,188.832 58.404,188.832 C58.9053358,188.832 59.3719978,188.741334 59.804,188.56 C60.2360022,188.378666 60.6119984,188.122668 60.932,187.792 L61.748,188.64 C61.3319979,189.088002 60.8306696,189.434665 60.244,189.68 C59.6573304,189.925335 59.0066702,190.048 58.292,190.048 C57.4599958,190.048 56.7213366,189.869335 56.076,189.512 C55.4306634,189.154665 54.9293351,188.65067 54.572,188 C54.2146649,187.34933 54.036,186.608004 54.036,185.776 C54.036,184.943996 54.2146649,184.205337 54.572,183.56 C54.9293351,182.914663 55.4279968,182.408002 56.068,182.04 C56.7080032,181.671998 57.4386626,181.488 58.26,181.488 C59.5720066,181.488 60.5639966,181.874663 61.236,182.648 Z M60.9,185.2 C60.8573331,184.431996 60.6013357,183.826669 60.132,183.384 C59.6626643,182.941331 59.0440038,182.72 58.276,182.72 C57.5293296,182.72 56.9080025,182.943998 56.412,183.392 C55.9159975,183.840002 55.6200005,184.442663 55.524,185.2 L60.9,185.2 Z M68.82,189.44 C68.1693301,189.856002 67.5080034,190.064 66.836,190.064 C66.1639966,190.064 65.6200021,189.864002 65.204,189.464 C64.7879979,189.063998 64.58,188.458671 64.58,187.648 L64.58,182.96 L63.38,182.96 L63.38,181.824 L64.58,181.824 L64.58,179.552 L66.084,179.552 L66.084,181.824 L68.676,181.824 L68.676,182.96 L66.084,182.96 L66.084,187.376 C66.084,187.845336 66.1693325,188.181332 66.34,188.384 C66.5106675,188.586668 66.766665,188.688 67.108,188.688 C67.5133354,188.688 67.9506643,188.554668 68.42,188.288 L68.82,189.44 Z M70.628,181.536 L72.116,181.536 L72.116,190 L70.628,190 L70.628,181.536 Z M72.028,178.432 C72.2040009,178.613334 72.292,178.842665 72.292,179.12 C72.292,179.397335 72.2040009,179.626666 72.028,179.808 C71.8519991,179.989334 71.630668,180.08 71.364,180.08 C71.097332,180.08 70.8760009,179.989334 70.7,179.808 C70.5239991,179.626666 70.436,179.397335 70.436,179.12 C70.436,178.842665 70.5239991,178.613334 70.7,178.432 C70.8760009,178.250666 71.097332,178.16 71.364,178.16 C71.630668,178.16 71.8519991,178.250666 72.028,178.432 Z M88.228,182.368 C88.7826694,182.95467 89.06,183.754662 89.06,184.768 L89.06,190 L87.556,190 L87.556,185.168 C87.556,184.45333 87.3613353,183.893335 86.972,183.488 C86.5826647,183.082665 86.0466701,182.88 85.364,182.88 C84.563996,182.901333 83.934669,183.183997 83.476,183.728 C83.017331,184.272003 82.788,184.970662 82.788,185.824 L82.788,190 L81.284,190 L81.284,185.168 C81.284,184.45333 81.0920019,183.893335 80.708,183.488 C80.3239981,183.082665 79.7853368,182.88 79.092,182.88 C78.291996,182.901333 77.6600023,183.183997 77.196,183.728 C76.7319977,184.272003 76.5,184.970662 76.5,185.824 L76.5,190 L75.012,190 L75.012,181.536 L76.5,181.536 L76.5,183.312 C77.0546694,182.117327 78.1053256,181.509333 79.652,181.488 C80.4306706,181.488 81.0786641,181.674665 81.596,182.048 C82.1133359,182.421335 82.4626658,182.943997 82.644,183.616 C83.1666693,182.21866 84.265325,181.509333 85.94,181.488 C86.9106715,181.488 87.6733306,181.78133 88.228,182.368 Z M98.084,182.648 C98.7560034,183.421337 99.092,184.495993 99.092,185.872 C99.092,186.085334 99.0866667,186.245333 99.076,186.352 L92.388,186.352 C92.5053339,187.109337 92.8226641,187.711998 93.34,188.16 C93.8573359,188.608002 94.4946629,188.832 95.252,188.832 C95.7533358,188.832 96.2199978,188.741334 96.652,188.56 C97.0840022,188.378666 97.4599984,188.122668 97.78,187.792 L98.596,188.64 C98.1799979,189.088002 97.6786696,189.434665 97.092,189.68 C96.5053304,189.925335 95.8546702,190.048 95.14,190.048 C94.3079958,190.048 93.5693366,189.869335 92.924,189.512 C92.2786634,189.154665 91.7773351,188.65067 91.42,188 C91.0626649,187.34933 90.884,186.608004 90.884,185.776 C90.884,184.943996 91.0626649,184.205337 91.42,183.56 C91.7773351,182.914663 92.2759968,182.408002 92.916,182.04 C93.5560032,181.671998 94.2866626,181.488 95.108,181.488 C96.4200066,181.488 97.4119966,181.874663 98.084,182.648 Z M97.748,185.2 C97.7053331,184.431996 97.4493357,183.826669 96.98,183.384 C96.5106643,182.941331 95.8920038,182.72 95.124,182.72 C94.3773296,182.72 93.7560025,182.943998 93.26,183.392 C92.7639975,183.840002 92.4680005,184.442663 92.372,185.2 L97.748,185.2 Z" id="Lifetime" fill="#000066"></path>
                <path d="M204.835,197.4 L213.583,197.4 L213.583,198.966 L206.563,198.966 L206.563,202.854 L212.845,202.854 L212.845,204.42 L206.563,204.42 L206.563,208.434 L213.799,208.434 L213.799,210 L204.835,210 L204.835,197.4 Z M222.124,199.191 C221.493997,199.004999 220.915003,198.912 220.387,198.912 C219.654996,198.912 219.070002,199.052999 218.632,199.335 C218.193998,199.617001 217.975,200.003998 217.975,200.496 C217.975,200.940002 218.106999,201.302999 218.371,201.585 C218.635001,201.867001 218.958998,202.088999 219.343,202.251 C219.727002,202.413001 220.260997,202.601999 220.945,202.818 C221.797004,203.082001 222.486997,203.333999 223.015,203.574 C223.543003,203.814001 223.992998,204.170998 224.365,204.645 C224.737002,205.119002 224.923,205.745996 224.923,206.526 C224.923,207.246004 224.728002,207.875997 224.338,208.416 C223.947998,208.956003 223.402004,209.372999 222.7,209.667 C221.997996,209.961001 221.191005,210.108 220.279,210.108 C219.354995,210.108 218.455004,209.928002 217.579,209.568 C216.702996,209.207998 215.947003,208.728003 215.311,208.128 L216.085,206.634 C216.685003,207.222003 217.359996,207.674998 218.11,207.993 C218.860004,208.311002 219.588996,208.47 220.297,208.47 C221.137004,208.47 221.799998,208.305002 222.286,207.975 C222.772002,207.644998 223.015,207.198003 223.015,206.634 C223.015,206.189998 222.883001,205.824001 222.619,205.536 C222.354999,205.247999 222.022002,205.020001 221.62,204.852 C221.217998,204.683999 220.675003,204.498001 219.991,204.294 C219.150996,204.041999 218.467003,203.796001 217.939,203.556 C217.410997,203.315999 216.964002,202.962002 216.598,202.494 C216.231998,202.025998 216.049,201.408004 216.049,200.64 C216.049,199.967997 216.234998,199.374003 216.607,198.858 C216.979002,198.341997 217.500997,197.946001 218.173,197.67 C218.845003,197.393999 219.624996,197.256 220.513,197.256 C221.269004,197.256 222.009996,197.366999 222.736,197.589 C223.462004,197.811001 224.106997,198.107998 224.671,198.48 L223.951,200.028 C223.362997,199.655998 222.754003,199.377001 222.124,199.191 Z M233.212,199.191 C232.581997,199.004999 232.003003,198.912 231.475,198.912 C230.742996,198.912 230.158002,199.052999 229.72,199.335 C229.281998,199.617001 229.063,200.003998 229.063,200.496 C229.063,200.940002 229.194999,201.302999 229.459,201.585 C229.723001,201.867001 230.046998,202.088999 230.431,202.251 C230.815002,202.413001 231.348997,202.601999 232.033,202.818 C232.885004,203.082001 233.574997,203.333999 234.103,203.574 C234.631003,203.814001 235.080998,204.170998 235.453,204.645 C235.825002,205.119002 236.011,205.745996 236.011,206.526 C236.011,207.246004 235.816002,207.875997 235.426,208.416 C235.035998,208.956003 234.490004,209.372999 233.788,209.667 C233.085996,209.961001 232.279005,210.108 231.367,210.108 C230.442995,210.108 229.543004,209.928002 228.667,209.568 C227.790996,209.207998 227.035003,208.728003 226.399,208.128 L227.173,206.634 C227.773003,207.222003 228.447996,207.674998 229.198,207.993 C229.948004,208.311002 230.676996,208.47 231.385,208.47 C232.225004,208.47 232.887998,208.305002 233.374,207.975 C233.860002,207.644998 234.103,207.198003 234.103,206.634 C234.103,206.189998 233.971001,205.824001 233.707,205.536 C233.442999,205.247999 233.110002,205.020001 232.708,204.852 C232.305998,204.683999 231.763003,204.498001 231.079,204.294 C230.238996,204.041999 229.555003,203.796001 229.027,203.556 C228.498997,203.315999 228.052002,202.962002 227.686,202.494 C227.319998,202.025998 227.137,201.408004 227.137,200.64 C227.137,199.967997 227.322998,199.374003 227.695,198.858 C228.067002,198.341997 228.588997,197.946001 229.261,197.67 C229.933003,197.393999 230.712996,197.256 231.601,197.256 C232.357004,197.256 233.097996,197.366999 233.824,197.589 C234.550004,197.811001 235.194997,198.107998 235.759,198.48 L235.039,200.028 C234.450997,199.655998 233.842003,199.377001 233.212,199.191 Z M196.096,233.37 C195.363996,233.838002 194.620004,234.072 193.864,234.072 C193.107996,234.072 192.496002,233.847002 192.028,233.397 C191.559998,232.946998 191.326,232.266005 191.326,231.354 L191.326,226.08 L189.976,226.08 L189.976,224.802 L191.326,224.802 L191.326,222.246 L193.018,222.246 L193.018,224.802 L195.934,224.802 L195.934,226.08 L193.018,226.08 L193.018,231.048 C193.018,231.576003 193.113999,231.953999 193.306,232.182 C193.498001,232.410001 193.785998,232.524 194.17,232.524 C194.626002,232.524 195.117997,232.374001 195.646,232.074 L196.096,233.37 Z M205.168,225.729 C205.924004,226.599004 206.302,227.807992 206.302,229.356 C206.302,229.596001 206.296,229.775999 206.284,229.896 L198.76,229.896 C198.892001,230.748004 199.248997,231.425997 199.831,231.93 C200.413003,232.434003 201.129996,232.686 201.982,232.686 C202.546003,232.686 203.070998,232.584001 203.557,232.38 C204.043002,232.175999 204.465998,231.888002 204.826,231.516 L205.744,232.47 C205.275998,232.974003 204.712003,233.363999 204.052,233.64 C203.391997,233.916001 202.660004,234.054 201.856,234.054 C200.919995,234.054 200.089004,233.853002 199.363,233.451 C198.636996,233.048998 198.073002,232.482004 197.671,231.75 C197.268998,231.017996 197.068,230.184005 197.068,229.248 C197.068,228.311995 197.268998,227.481004 197.671,226.755 C198.073002,226.028996 198.633996,225.459002 199.354,225.045 C200.074004,224.630998 200.895995,224.424 201.82,224.424 C203.296007,224.424 204.411996,224.858996 205.168,225.729 Z M204.79,228.6 C204.742,227.735996 204.454003,227.055002 203.926,226.557 C203.397997,226.058998 202.702004,225.81 201.838,225.81 C200.997996,225.81 200.299003,226.061997 199.741,226.566 C199.182997,227.070003 198.850001,227.747996 198.742,228.6 L204.79,228.6 Z M212.485,226.008 C212.010998,225.863999 211.558002,225.792 211.126,225.792 C210.621997,225.792 210.217002,225.884999 209.911,226.071 C209.604998,226.257001 209.452,226.541998 209.452,226.926 C209.452,227.310002 209.622998,227.600999 209.965,227.799 C210.307002,227.997001 210.825997,228.197999 211.522,228.402 C212.182003,228.594001 212.721998,228.785999 213.142,228.978 C213.562002,229.170001 213.918999,229.451998 214.213,229.824 C214.507001,230.196002 214.654,230.687997 214.654,231.3 C214.654,232.200005 214.315003,232.883998 213.637,233.352 C212.958997,233.820002 212.116005,234.054 211.108,234.054 C210.399996,234.054 209.713003,233.940001 209.047,233.712 C208.380997,233.483999 207.820002,233.160002 207.364,232.74 L207.994,231.516 C208.390002,231.876002 208.878997,232.163999 209.461,232.38 C210.043003,232.596001 210.609997,232.704 211.162,232.704 C211.714003,232.704 212.157998,232.602001 212.494,232.398 C212.830002,232.193999 212.998,231.882002 212.998,231.462 C212.998,231.029998 212.821002,230.706001 212.467,230.49 C212.112998,230.273999 211.576004,230.058001 210.856,229.842 C210.219997,229.661999 209.701002,229.479001 209.299,229.293 C208.896998,229.106999 208.555001,228.834002 208.273,228.474 C207.990999,228.113998 207.85,227.646003 207.85,227.07 C207.85,226.181996 208.173997,225.516002 208.822,225.072 C209.470003,224.627998 210.279995,224.406 211.252,224.406 C211.828003,224.406 212.394997,224.486999 212.953,224.649 C213.511003,224.811001 213.993998,225.029999 214.402,225.306 L213.79,226.584 C213.393998,226.343999 212.959002,226.152001 212.485,226.008 Z M221.98,233.37 C221.247996,233.838002 220.504004,234.072 219.748,234.072 C218.991996,234.072 218.380002,233.847002 217.912,233.397 C217.443998,232.946998 217.21,232.266005 217.21,231.354 L217.21,226.08 L215.86,226.08 L215.86,224.802 L217.21,224.802 L217.21,222.246 L218.902,222.246 L218.902,224.802 L221.818,224.802 L221.818,226.08 L218.902,226.08 L218.902,231.048 C218.902,231.576003 218.997999,231.953999 219.19,232.182 C219.382001,232.410001 219.669998,232.524 220.054,232.524 C220.510002,232.524 221.001997,232.374001 221.53,232.074 L221.98,233.37 Z M224.014,224.478 L225.688,224.478 L225.688,234 L224.014,234 L224.014,224.478 Z M225.589,220.986 C225.787001,221.190001 225.886,221.447998 225.886,221.76 C225.886,222.072002 225.787001,222.329999 225.589,222.534 C225.390999,222.738001 225.142001,222.84 224.842,222.84 C224.541998,222.84 224.293001,222.738001 224.095,222.534 C223.896999,222.329999 223.798,222.072002 223.798,221.76 C223.798,221.447998 223.896999,221.190001 224.095,220.986 C224.293001,220.781999 224.541998,220.68 224.842,220.68 C225.142001,220.68 225.390999,220.781999 225.589,220.986 Z M236.866,225.405 C237.502003,226.059003 237.82,226.961994 237.82,228.114 L237.82,234 L236.146,234 L236.146,228.564 C236.146,227.759996 235.921002,227.133002 235.471,226.683 C235.020998,226.232998 234.400004,226.008 233.608,226.008 C232.755996,226.02 232.063003,226.292997 231.529,226.827 C230.994997,227.361003 230.692,228.053996 230.62,228.906 L230.62,234 L228.946,234 L228.946,224.478 L230.62,224.478 L230.62,226.494 C231.256003,225.137993 232.461991,224.448 234.238,224.424 C235.354006,224.424 236.229997,224.750997 236.866,225.405 Z M249.232,224.478 L249.232,233.028 C249.232,233.940005 249.031002,234.737997 248.629,235.422 C248.226998,236.106003 247.660004,236.630998 246.928,236.997 C246.195996,237.363002 245.344005,237.546 244.372,237.546 C242.967993,237.546 241.660006,237.102004 240.448,236.214 L241.186,234.99 C241.654002,235.374002 242.139997,235.658999 242.644,235.845 C243.148003,236.031001 243.699997,236.124 244.3,236.124 C245.284005,236.124 246.069997,235.848003 246.658,235.296 C247.246003,234.743997 247.54,234.006005 247.54,233.082 L247.54,231.75 C247.203998,232.326003 246.748003,232.772998 246.172,233.091 C245.595997,233.409002 244.936004,233.568 244.192,233.568 C243.339996,233.568 242.587003,233.373002 241.933,232.983 C241.278997,232.592998 240.772002,232.050003 240.412,231.354 C240.051998,230.657997 239.872,229.860005 239.872,228.96 C239.872,228.071996 240.051998,227.286003 240.412,226.602 C240.772002,225.917997 241.278997,225.384002 241.933,225 C242.587003,224.615998 243.339996,224.424 244.192,224.424 C244.948004,224.424 245.610997,224.579998 246.181,224.892 C246.751003,225.204002 247.203998,225.647997 247.54,226.224 L247.54,224.478 L249.232,224.478 Z M246.082,231.804 C246.538002,231.527999 246.894999,231.147002 247.153,230.661 C247.411001,230.174998 247.54,229.626003 247.54,229.014 C247.54,228.389997 247.411001,227.835002 247.153,227.349 C246.894999,226.862998 246.538002,226.482001 246.082,226.206 C245.625998,225.929999 245.104003,225.792 244.516,225.792 C243.927997,225.792 243.403002,225.929999 242.941,226.206 C242.478998,226.482001 242.116001,226.862998 241.852,227.349 C241.587999,227.835002 241.456,228.389997 241.456,229.014 C241.468,229.950005 241.755997,230.717997 242.32,231.318 C242.884003,231.918003 243.615995,232.218 244.516,232.218 C245.104003,232.218 245.625998,232.080001 246.082,231.804 Z" id="ESS-testing" fill="#000066"></path>
                <g id="Ico_Prix" transform="translate(106.000000, 328.000000)" stroke="#000066" stroke-linecap="round">
                    <polygon id="Stroke-1" points="0.528571429 19.8058667 36.0316571 19.8058667 36.0316571 0.533333333 0.528571429 0.533333333"></polygon>
                    <path d="M7.98005429,10.1696 L12.5521971,10.1696" id="Stroke-3"></path>
                    <path d="M24.0075029,10.1696 L28.5785886,10.1696" id="Stroke-4"></path>
                    <path d="M18.2800086,13.7815467 C20.2536943,13.7815467 21.8594943,12.16128 21.8594943,10.1687467 C21.8594943,8.17728 20.2536943,6.55808 18.2800086,6.55808 C16.3063229,6.55808 14.6994657,8.17728 14.6994657,10.1698133 C14.6994657,12.1623467 16.3063229,13.7815467 18.2800086,13.7815467 Z" id="Stroke-5"></path>
                    <path d="M5.62939143,14.3789867 C6.15162,14.9080533 6.43810571,15.6088533 6.43704857,16.35552 L6.43599143,16.5688533 L30.0927343,16.62112 L30.0937914,16.40672 C30.09802,14.8685867 31.3422771,13.6173867 32.8666771,13.6173867 L33.0770486,13.6173867 L33.09502,6.78218667 L32.8835914,6.78112 C31.3591914,6.77792 30.1191629,5.52245333 30.1191629,3.98325333 L30.1191629,3.76992 L6.46559143,3.71872 L6.46559143,3.93205333 C6.46347714,4.67765333 6.17382,5.37845333 5.65053429,5.90538667 C5.12619143,6.42912 4.43376286,6.71712 3.69587714,6.71712 L3.68953429,6.71712 L3.47704857,6.71712 L3.46436286,13.5565867 L3.67579143,13.5576533 C4.41473429,13.5597867 5.10822,13.8509867 5.62939143,14.3789867 Z" id="Stroke-7"></path>
                    <path d="M35.6453771,23.3054933 L0.914005714,23.3054933" id="Stroke-9"></path>
                    <path d="M35.6453771,27.0930133 L0.914005714,27.0930133" id="Stroke-11"></path>
                    <path d="M35.6453771,30.8794667 L0.914005714,30.8794667" id="Stroke-13"></path>
                </g>
                <g id="Ico_Securité" transform="translate(207.000000, 40.000000)" stroke="#000066" stroke-linecap="round" stroke-linejoin="round">
                    <path d="M25.6431977,4.05506728 L13.1597729,0.0248002756 C13.0569594,-0.00826675852 12.9430406,-0.00826675852 12.8402271,0.0248002756 L0.356802337,4.05506728 C0.144727052,4.12369026 0,4.32138135 0,4.54253936 L0,13.5218391 C0,19.7565751 3.13957398,25.5792175 8.36622668,29.0373893 L12.7134118,31.9138657 C12.8871559,32.0287114 13.1128441,32.0287114 13.2865882,31.9138657 L17.6337733,29.0373893 C22.860426,25.5792175 26,19.7565751 26,13.5218391 L26,4.54253936 C25.9996418,4.32102579 25.8552729,4.1233347 25.6431977,4.05506728 Z" id="Stroke-1"></path>
                    <polyline id="Stroke-3" points="14.2857143 8 10 14.5 15 14.5 11.0714286 21"></polyline>
                </g>
                <g id="Ico_Performance" transform="translate(300.000000, 327.000000)" stroke="#000066">
                    <path d="M33.2819,13.1022 C31.4329,5.6822 24.7949,0.5002 17.1379,0.5002 C7.9639,0.5002 0.4999,7.9632 0.4999,17.1372 C0.4999,23.8782 4.5209,29.9092 10.7449,32.5002" id="Stroke-1" stroke-linecap="round"></path>
                    <path d="M17.1355,14.5671 C18.5525,14.5671 19.7005,15.7151 19.7005,17.1311 C19.7005,18.5481 18.5525,19.6961 17.1355,19.6961 C15.7195,19.6961 14.5715,18.5481 14.5715,17.1311 C14.5715,15.7151 15.7195,14.5671 17.1355,14.5671 Z" id="Stroke-3" stroke-linecap="round"></path>
                    <path d="M16.5534,0.6471 L16.5534,4.0451" id="Stroke-5" stroke-linecap="round"></path>
                    <path d="M4.6022,6.2272 L7.0042,8.6302" id="Stroke-7" stroke-linecap="round"></path>
                    <path d="M29.5271,6.0148 L26.9641,8.1718" id="Stroke-9" stroke-linecap="round"></path>
                    <path d="M0.5007,17.2384 L3.7927,17.2384" id="Stroke-11" stroke-linecap="round"></path>
                    <path d="M5.1599,28.5461 L7.5629,26.1431" id="Stroke-13" stroke-linecap="round"></path>
                    <path d="M25.8415,9.0397 C25.2795,8.4467 24.5775,8.9617 24.5775,8.9617 L17.8335,14.6657 C18.7645,14.9287 19.4805,15.7027 19.6565,16.6667 L25.9755,10.1797 C26.3795,9.5607 25.8415,9.0397 25.8415,9.0397 Z" id="Stroke-15"></path>
                    <path d="M17.1355,29.2858 C17.1605,29.2098 22.8095,24.2008 22.8095,24.2008 L26.0325,27.2018 L31.6885,21.5528" id="Stroke-17" stroke-linecap="round"></path>
                    <polyline id="Stroke-19" stroke-linecap="round" points="28.8493 21.5529 31.9533 21.2249 31.9533 24.4299"></polyline>
                </g>
                <g id="Ico_Durée-de-vie" transform="translate(57.000000, 135.000000)" stroke="#000066">
                    <path d="M2.185,32.5001 L17.706,32.5001 C18.635,32.5001 19.392,31.7451 19.392,30.8151 L19.392,5.6671 C19.392,4.7381 18.636,3.9831 17.706,3.9831 L14.198,3.9831 L14.198,1.2221 C14.198,0.8231 13.874,0.5001 13.476,0.5001 L6.416,0.5001 C6.018,0.5001 5.695,0.8231 5.695,1.2221 L5.695,3.9831 L2.185,3.9831 C1.256,3.9831 0.5,4.7381 0.5,5.6671 L0.5,30.8161 C0.5,31.7451 1.256,32.5001 2.185,32.5001 Z" id="Stroke-1"></path>
                    <path d="M0.5004,7.0855 L19.3924,7.0855" id="Stroke-3"></path>
                    <path d="M5.5395,3.983 L14.3525,3.983" id="Stroke-5"></path>
                    <polygon id="Stroke-7" stroke-linecap="round" stroke-linejoin="round" points="14.55 17.052 11.498 17.052 11.498 14 9.052 14 9.052 17.052 6 17.052 6 19.498 9.052 19.498 9.052 22.55 11.498 22.55 11.498 19.498 14.55 19.498"></polygon>
                </g>
                <g id="Ico_Qualité" transform="translate(353.000000, 144.000000)" stroke="#000066">
                    <path d="M14.4350118,21.7601882 L10.7211294,21.2218353 L9.06089412,17.8543059 C8.71265882,17.1503059 7.54936471,17.1503059 7.20301176,17.8543059 L5.54277647,21.2218353 L1.82889412,21.7601882 C1.43924706,21.8166588 1.1136,22.0896 0.991247059,22.4660706 C0.868894118,22.8425412 0.972423529,23.2547765 1.25289412,23.5314824 L3.94089412,26.1498353 L3.30465882,29.8448941 C3.23877647,30.2345412 3.39877647,30.6279529 3.71877647,30.8594824 C4.04065882,31.0928941 4.46230588,31.1248941 4.81054118,30.9366588 L8.13289412,29.1936 L11.4533647,30.9366588 C11.6058353,31.0176 11.7696,31.0590118 11.9371294,31.0590118 C12.1517176,31.0590118 12.3663059,30.9931294 12.5470118,30.8594824 C12.8651294,30.6279529 13.0251294,30.2345412 12.9592471,29.8448941 L12.3248941,26.1498353 L15.0110118,23.5314824 C15.2933647,23.2547765 15.3950118,22.8425412 15.2726588,22.4660706 C15.1503059,22.0896 14.8265412,21.8166588 14.4350118,21.7601882 Z" id="Stroke-1"></path>
                    <path d="M36.1374118,22.4670118 C36.0150588,22.0905412 35.6912941,21.8176 35.2997647,21.7611294 L31.5858824,21.2208941 L29.9256471,17.8533647 C29.5774118,17.1493647 28.4141176,17.1493647 28.0677647,17.8533647 L26.4075294,21.2208941 L22.6936471,21.7611294 C22.304,21.8157176 21.9802353,22.0905412 21.8578824,22.4670118 C21.7355294,22.8416 21.8352941,23.2557176 22.1195294,23.5305412 L24.8037647,26.1488941 L24.1712941,29.8458353 C24.1035294,30.2354824 24.2635294,30.6288941 24.5835294,30.8604235 C24.9035294,31.0919529 25.3270588,31.1258353 25.6752941,30.9376 L28.9976471,29.1926588 L32.3181176,30.9376 C32.4705882,31.0185412 32.6362353,31.0580706 32.8018824,31.0580706 C33.0183529,31.0580706 33.2310588,30.9921882 33.4117647,30.8604235 C33.7317647,30.6288941 33.8898824,30.2354824 33.824,29.8458353 L33.1896471,26.1488941 L35.8757647,23.5305412 C36.1562353,23.2557176 36.256,22.8416 36.1374118,22.4670118 Z" id="Stroke-3"></path>
                    <path d="M22.4075294,14.6738824 C22.624,14.6738824 22.8385882,14.608 23.0174118,14.4762353 C23.3374118,14.2447059 23.4974118,13.8512941 23.4315294,13.4616471 L22.7952941,9.76470588 L25.4832941,7.14635294 C25.7637647,6.86964706 25.8672941,6.45741176 25.7430588,6.08282353 C25.6225882,5.70447059 25.2988235,5.43341176 24.9072941,5.37694118 L21.1934118,4.83670588 L19.5331765,1.46917647 C19.1849412,0.765176471 18.0216471,0.765176471 17.6752941,1.46917647 L16.0150588,4.83858824 L12.3011765,5.37882353 C11.9115294,5.43341176 11.5877647,5.70823529 11.4654118,6.08470588 C11.3449412,6.45929412 11.4447059,6.87152941 11.7270588,7.14823529 L14.4131765,9.76658824 L13.7788235,13.4635294 C13.7129412,13.8531765 13.8729412,14.2465882 14.1929412,14.4781176 C14.5167059,14.7115294 14.9364706,14.7454118 15.2847059,14.5571765 L18.6051765,12.8103529 L21.9275294,14.5571765 C22.0762353,14.6362353 22.2418824,14.6738824 22.4075294,14.6738824 Z" id="Stroke-5"></path>
                </g>
            </g>
        </g>
    </g>
</svg>