<?xml version="1.0" encoding="UTF-8" standalone="no"?>
<svg width="456px" height="440px" viewBox="0 0 456 440" version="1.1" xmlns="http://www.w3.org/2000/svg" xmlns:xlink="http://www.w3.org/1999/xlink">
    <!-- Generator: Sketch 49.1 (51147) - http://www.bohemiancoding.com/sketch -->
    <title>SSE_Schema</title>
    <desc>Created with Sketch.</desc>
    <defs>
        <circle id="path-1" cx="220" cy="68" r="68"></circle>
        <filter x="-10.3%" y="-7.4%" width="120.6%" height="120.6%" filterUnits="objectBoundingBox" id="filter-2">
            <feOffset dx="0" dy="4" in="SourceAlpha" result="shadowOffsetOuter1"></feOffset>
            <feGaussianBlur stdDeviation="4" in="shadowOffsetOuter1" result="shadowBlurOuter1"></feGaussianBlur>
            <feColorMatrix values="0 0 0 0 0   0 0 0 0 0   0 0 0 0 0.4  0 0 0 0.1 0" type="matrix" in="shadowBlurOuter1"></feColorMatrix>
        </filter>
        <circle id="path-3" cx="68" cy="172" r="68"></circle>
        <filter x="-10.3%" y="-7.4%" width="120.6%" height="120.6%" filterUnits="objectBoundingBox" id="filter-4">
            <feOffset dx="0" dy="4" in="SourceAlpha" result="shadowOffsetOuter1"></feOffset>
            <feGaussianBlur stdDeviation="4" in="shadowOffsetOuter1" result="shadowBlurOuter1"></feGaussianBlur>
            <feColorMatrix values="0 0 0 0 0   0 0 0 0 0   0 0 0 0 0.4  0 0 0 0.1 0" type="matrix" in="shadowBlurOuter1"></feColorMatrix>
        </filter>
        <circle id="path-5" cx="372" cy="172" r="68"></circle>
        <filter x="-10.3%" y="-7.4%" width="120.6%" height="120.6%" filterUnits="objectBoundingBox" id="filter-6">
            <feOffset dx="0" dy="4" in="SourceAlpha" result="shadowOffsetOuter1"></feOffset>
            <feGaussianBlur stdDeviation="4" in="shadowOffsetOuter1" result="shadowBlurOuter1"></feGaussianBlur>
            <feColorMatrix values="0 0 0 0 0   0 0 0 0 0   0 0 0 0 0.4  0 0 0 0.1 0" type="matrix" in="shadowBlurOuter1"></feColorMatrix>
        </filter>
        <circle id="path-7" cx="317" cy="356" r="68"></circle>
        <filter x="-10.3%" y="-7.4%" width="120.6%" height="120.6%" filterUnits="objectBoundingBox" id="filter-8">
            <feOffset dx="0" dy="4" in="SourceAlpha" result="shadowOffsetOuter1"></feOffset>
            <feGaussianBlur stdDeviation="4" in="shadowOffsetOuter1" result="shadowBlurOuter1"></feGaussianBlur>
            <feColorMatrix values="0 0 0 0 0   0 0 0 0 0   0 0 0 0 0.4  0 0 0 0.1 0" type="matrix" in="shadowBlurOuter1"></feColorMatrix>
        </filter>
        <circle id="path-9" cx="124" cy="356" r="68"></circle>
        <filter x="-10.3%" y="-7.4%" width="120.6%" height="120.6%" filterUnits="objectBoundingBox" id="filter-10">
            <feOffset dx="0" dy="4" in="SourceAlpha" result="shadowOffsetOuter1"></feOffset>
            <feGaussianBlur stdDeviation="4" in="shadowOffsetOuter1" result="shadowBlurOuter1"></feGaussianBlur>
            <feColorMatrix values="0 0 0 0 0   0 0 0 0 0   0 0 0 0 0.4  0 0 0 0.1 0" type="matrix" in="shadowBlurOuter1"></feColorMatrix>
        </filter>
    </defs>
    <g id="Maquettes" stroke="none" stroke-width="1" fill="none" fill-rule="evenodd">
        <g id="VectorStuff" transform="translate(-269.000000, -264.000000)">
            <g id="SSE_Schema" transform="translate(277.000000, 268.000000)">
                <g id="Fond">
                    <polygon id="Path-4" stroke-opacity="0.1" stroke="#000066" stroke-width="52" opacity="0.5" points="375.55 173.460649 220.702149 67.4774347 66.4568182 173.460649 124.298817 356.522565 317.10548 356.522565"></polygon>
                    <path d="M375.55,173.460649 L220.702149,67.4774347 L66.4568182,173.460649 L124.298817,356.522565 L317.10548,356.522565 L375.55,173.460649 Z" id="Path-4" stroke="#000066" stroke-width="2" opacity="0.2" stroke-linecap="round" stroke-dasharray="4,8"></path>
                    <g id="Oval-4">
                        <use fill="black" fill-opacity="1" filter="url(#filter-2)" xlink:href="#path-1"></use>
                        <use fill="#FFFFFF" fill-rule="evenodd" xlink:href="#path-1"></use>
                    </g>
                    <g id="Oval-4">
                        <use fill="black" fill-opacity="1" filter="url(#filter-4)" xlink:href="#path-3"></use>
                        <use fill="#FFFFFF" fill-rule="evenodd" xlink:href="#path-3"></use>
                    </g>
                    <g id="Oval-4">
                        <use fill="black" fill-opacity="1" filter="url(#filter-6)" xlink:href="#path-5"></use>
                        <use fill="#FFFFFF" fill-rule="evenodd" xlink:href="#path-5"></use>
                    </g>
                    <g id="Oval-4">
                        <use fill="black" fill-opacity="1" filter="url(#filter-8)" xlink:href="#path-7"></use>
                        <use fill="#FFFFFF" fill-rule="evenodd" xlink:href="#path-7"></use>
                    </g>
                    <g id="Oval-4">
                        <use fill="black" fill-opacity="1" filter="url(#filter-10)" xlink:href="#path-9"></use>
                        <use fill="#FFFFFF" fill-rule="evenodd" xlink:href="#path-9"></use>
                    </g>
                </g>
                <path d="M194.628,84.392 C194.067997,84.2266658 193.553336,84.144 193.084,84.144 C192.43333,84.144 191.913335,84.2693321 191.524,84.52 C191.134665,84.7706679 190.94,85.1146645 190.94,85.552 C190.94,85.9466686 191.057332,86.2693321 191.292,86.52 C191.526668,86.7706679 191.814665,86.9679993 192.156,87.112 C192.497335,87.2560007 192.971997,87.423999 193.58,87.616 C194.337337,87.8506678 194.950664,88.0746656 195.42,88.288 C195.889336,88.5013344 196.289332,88.8186646 196.62,89.24 C196.950668,89.6613354 197.116,90.2186632 197.116,90.912 C197.116,91.5520032 196.942668,92.1119976 196.596,92.592 C196.249332,93.0720024 195.764003,93.4426654 195.14,93.704 C194.515997,93.9653346 193.798671,94.096 192.988,94.096 C192.166663,94.096 191.366671,93.9360016 190.588,93.616 C189.809329,93.2959984 189.137336,92.869336 188.572,92.336 L189.26,91.008 C189.793336,91.5306693 190.39333,91.9333319 191.06,92.216 C191.72667,92.4986681 192.374664,92.64 193.004,92.64 C193.75067,92.64 194.339998,92.4933348 194.772,92.2 C195.204002,91.9066652 195.42,91.5093358 195.42,91.008 C195.42,90.6133314 195.302668,90.2880013 195.068,90.032 C194.833332,89.7759987 194.537335,89.5733341 194.18,89.424 C193.822665,89.2746659 193.340003,89.1093342 192.732,88.928 C191.98533,88.7039989 191.377336,88.4853344 190.908,88.272 C190.438664,88.0586656 190.041335,87.7440021 189.716,87.328 C189.390665,86.9119979 189.228,86.3626701 189.228,85.68 C189.228,85.0826637 189.393332,84.554669 189.724,84.096 C190.054668,83.637331 190.518664,83.2853346 191.116,83.04 C191.713336,82.7946654 192.406663,82.672 193.196,82.672 C193.868003,82.672 194.526663,82.7706657 195.172,82.968 C195.817337,83.1653343 196.390664,83.4293317 196.892,83.76 L196.252,85.136 C195.729331,84.8053317 195.188003,84.5573342 194.628,84.392 Z M205.788,86.648 C206.460003,87.4213372 206.796,88.4959931 206.796,89.872 C206.796,90.0853344 206.790667,90.2453328 206.78,90.352 L200.092,90.352 C200.209334,91.1093371 200.526664,91.7119978 201.044,92.16 C201.561336,92.6080022 202.198663,92.832 202.956,92.832 C203.457336,92.832 203.923998,92.7413342 204.356,92.56 C204.788002,92.3786658 205.163998,92.1226683 205.484,91.792 L206.3,92.64 C205.883998,93.0880022 205.38267,93.4346654 204.796,93.68 C204.20933,93.9253346 203.55867,94.048 202.844,94.048 C202.011996,94.048 201.273337,93.8693351 200.628,93.512 C199.982663,93.1546649 199.481335,92.6506699 199.124,92 C198.766665,91.3493301 198.588,90.6080042 198.588,89.776 C198.588,88.9439958 198.766665,88.2053366 199.124,87.56 C199.481335,86.9146634 199.979997,86.4080018 200.62,86.04 C201.260003,85.6719982 201.990663,85.488 202.812,85.488 C204.124007,85.488 205.115997,85.8746628 205.788,86.648 Z M205.452,89.2 C205.409333,88.4319962 205.153336,87.8266689 204.684,87.384 C204.214664,86.9413311 203.596004,86.72 202.828,86.72 C202.08133,86.72 201.460002,86.9439978 200.964,87.392 C200.467998,87.8400022 200.172,88.4426629 200.076,89.2 L205.452,89.2 Z M203.612,81.968 L205.148,82.64 L203.164,84.208 L201.9,84.048 L203.612,81.968 Z M212.348,86.816 C211.793331,86.816 211.300002,86.9386654 210.868,87.184 C210.435998,87.4293346 210.097335,87.7759978 209.852,88.224 C209.606665,88.6720022 209.484,89.1893304 209.484,89.776 C209.484,90.3626696 209.603999,90.8799978 209.844,91.328 C210.084001,91.7760022 210.414665,92.1253321 210.836,92.376 C211.257335,92.6266679 211.739997,92.752 212.284,92.752 C212.828003,92.752 213.318664,92.6613342 213.756,92.48 C214.193336,92.2986658 214.555999,92.037335 214.844,91.696 L215.692,92.56 C215.307998,93.0400024 214.820003,93.4079987 214.228,93.664 C213.635997,93.9200013 212.96667,94.048 212.22,94.048 C211.398663,94.048 210.668003,93.8666685 210.028,93.504 C209.387997,93.1413315 208.889335,92.6373366 208.532,91.992 C208.174665,91.3466634 207.996,90.6080042 207.996,89.776 C207.996,88.9439958 208.174665,88.2026699 208.532,87.552 C208.889335,86.9013301 209.387997,86.3946685 210.028,86.032 C210.668003,85.6693315 211.398663,85.488 212.22,85.488 C212.93467,85.488 213.57733,85.5973322 214.148,85.816 C214.71867,86.0346678 215.195998,86.3519979 215.58,86.768 L214.764,87.792 C214.091997,87.1413301 213.286671,86.816 212.348,86.816 Z M225.308,85.536 L225.308,94 L223.804,94 L223.804,92.208 C223.249331,93.4133394 222.204008,94.0266666 220.668,94.048 C219.686662,94.048 218.918669,93.7573362 218.364,93.176 C217.809331,92.5946638 217.532,91.7920051 217.532,90.768 L217.532,85.536 L219.036,85.536 L219.036,90.368 C219.036,91.0826702 219.230665,91.639998 219.62,92.04 C220.009335,92.440002 220.54533,92.64 221.228,92.64 C222.017337,92.6293333 222.643998,92.3493361 223.108,91.8 C223.572002,91.2506639 223.804,90.5493376 223.804,89.696 L223.804,85.536 L225.308,85.536 Z M230.876,85.976 C231.388003,85.6613318 231.995996,85.4986667 232.7,85.488 L232.7,86.928 C231.835996,86.8959998 231.137336,87.1199976 230.604,87.6 C230.070664,88.0800024 229.766667,88.7253293 229.692,89.536 L229.692,94 L228.204,94 L228.204,85.536 L229.692,85.536 L229.692,87.36 C229.969335,86.751997 230.363997,86.2906682 230.876,85.976 Z M234.316,85.536 L235.804,85.536 L235.804,94 L234.316,94 L234.316,85.536 Z M235.716,82.432 C235.892001,82.6133342 235.98,82.8426653 235.98,83.12 C235.98,83.3973347 235.892001,83.6266658 235.716,83.808 C235.539999,83.9893342 235.318668,84.08 235.052,84.08 C234.785332,84.08 234.564001,83.9893342 234.388,83.808 C234.211999,83.6266658 234.124,83.3973347 234.124,83.12 C234.124,82.8426653 234.211999,82.6133342 234.388,82.432 C234.564001,82.2506658 234.785332,82.16 235.052,82.16 C235.318668,82.16 235.539999,82.2506658 235.716,82.432 Z M243.244,93.44 C242.59333,93.8560021 241.932003,94.064 241.26,94.064 C240.587997,94.064 240.044002,93.864002 239.628,93.464 C239.211998,93.063998 239.004,92.4586707 239.004,91.648 L239.004,86.96 L237.804,86.96 L237.804,85.824 L239.004,85.824 L239.004,83.552 L240.508,83.552 L240.508,85.824 L243.1,85.824 L243.1,86.96 L240.508,86.96 L240.508,91.376 C240.508,91.8453357 240.593332,92.1813323 240.764,92.384 C240.934668,92.5866677 241.190665,92.688 241.532,92.688 C241.937335,92.688 242.374664,92.554668 242.844,92.288 L243.244,93.44 Z M251.308,86.648 C251.980003,87.4213372 252.316,88.4959931 252.316,89.872 C252.316,90.0853344 252.310667,90.2453328 252.3,90.352 L245.612,90.352 C245.729334,91.1093371 246.046664,91.7119978 246.564,92.16 C247.081336,92.6080022 247.718663,92.832 248.476,92.832 C248.977336,92.832 249.443998,92.7413342 249.876,92.56 C250.308002,92.3786658 250.683998,92.1226683 251.004,91.792 L251.82,92.64 C251.403998,93.0880022 250.90267,93.4346654 250.316,93.68 C249.72933,93.9253346 249.07867,94.048 248.364,94.048 C247.531996,94.048 246.793337,93.8693351 246.148,93.512 C245.502663,93.1546649 245.001335,92.6506699 244.644,92 C244.286665,91.3493301 244.108,90.6080042 244.108,89.776 C244.108,88.9439958 244.286665,88.2053366 244.644,87.56 C245.001335,86.9146634 245.499997,86.4080018 246.14,86.04 C246.780003,85.6719982 247.510663,85.488 248.332,85.488 C249.644007,85.488 250.635997,85.8746628 251.308,86.648 Z M250.972,89.2 C250.929333,88.4319962 250.673336,87.8266689 250.204,87.384 C249.734664,86.9413311 249.116004,86.72 248.348,86.72 C247.60133,86.72 246.980002,86.9439978 246.484,87.392 C245.987998,87.8400022 245.692,88.4426629 245.596,89.2 L250.972,89.2 Z M249.132,81.968 L250.668,82.64 L248.684,84.208 L247.42,84.048 L249.132,81.968 Z" id="Sécurité" fill="#000066"></path>
                <path d="M356.328,199.136 C355.901331,199.520002 355.432003,199.818666 354.92,200.032 C354.407997,200.245334 353.901336,200.352 353.4,200.352 C352.727997,200.352 352.093336,200.160002 351.496,199.776 C350.898664,199.391998 350.360002,198.837337 349.88,198.112 L349.784,198.112 C348.706661,198.112 347.717338,197.858669 346.816,197.352 C345.914662,196.845331 345.202669,196.152004 344.68,195.272 C344.157331,194.391996 343.896,193.429339 343.896,192.384 C343.896,191.338661 344.157331,190.381338 344.68,189.512 C345.202669,188.642662 345.911996,187.957336 346.808,187.456 C347.704004,186.954664 348.695995,186.704 349.784,186.704 C350.861339,186.704 351.850662,186.954664 352.752,187.456 C353.653338,187.957336 354.365331,188.642662 354.888,189.512 C355.410669,190.381338 355.672,191.338661 355.672,192.384 C355.672,193.248004 355.493335,194.05333 355.136,194.8 C354.778665,195.54667 354.285336,196.186664 353.656,196.72 C353.026664,197.253336 352.306671,197.637332 351.496,197.872 C352.200004,198.629337 352.89333,199.008 353.576,199.008 C354.19467,199.008 354.898663,198.68267 355.688,198.032 L356.328,199.136 Z M346.04,194.56 C346.434669,195.221337 346.96533,195.746665 347.632,196.136 C348.29867,196.525335 349.021329,196.72 349.8,196.72 C350.578671,196.72 351.295997,196.525335 351.952,196.136 C352.608003,195.746665 353.130665,195.221337 353.52,194.56 C353.909335,193.898663 354.104,193.173337 354.104,192.384 C354.104,191.594663 353.909335,190.872003 353.52,190.216 C353.130665,189.559997 352.608003,189.040002 351.952,188.656 C351.295997,188.271998 350.578671,188.08 349.8,188.08 C349.021329,188.08 348.29867,188.271998 347.632,188.656 C346.96533,189.040002 346.434669,189.559997 346.04,190.216 C345.645331,190.872003 345.448,191.594663 345.448,192.384 C345.448,193.173337 345.645331,193.898663 346.04,194.56 Z M365.384,189.536 L365.384,198 L363.88,198 L363.88,196.208 C363.325331,197.413339 362.280008,198.026667 360.744,198.048 C359.762662,198.048 358.994669,197.757336 358.44,197.176 C357.885331,196.594664 357.608,195.792005 357.608,194.768 L357.608,189.536 L359.112,189.536 L359.112,194.368 C359.112,195.08267 359.306665,195.639998 359.696,196.04 C360.085335,196.440002 360.62133,196.64 361.304,196.64 C362.093337,196.629333 362.719998,196.349336 363.184,195.8 C363.648002,195.250664 363.88,194.549338 363.88,193.696 L363.88,189.536 L365.384,189.536 Z M373.448,198 L373.448,196.816 C372.818664,197.648004 371.832007,198.064 370.488,198.064 C369.90133,198.064 369.386669,197.952001 368.944,197.728 C368.501331,197.503999 368.160001,197.194669 367.92,196.8 C367.679999,196.405331 367.56,195.962669 367.56,195.472 C367.56,194.714663 367.839997,194.114669 368.4,193.672 C368.960003,193.229331 369.741328,193.002667 370.744,192.992 L373.432,192.992 L373.432,192.592 C373.432,191.994664 373.248002,191.533335 372.88,191.208 C372.511998,190.882665 371.976004,190.72 371.272,190.72 C370.418662,190.72 369.549338,191.023997 368.664,191.632 L368.04,190.608 C368.648003,190.213331 369.210664,189.928001 369.728,189.752 C370.245336,189.575999 370.86133,189.488 371.576,189.488 C372.632005,189.488 373.447997,189.746664 374.024,190.264 C374.600003,190.781336 374.893333,191.503995 374.904,192.432 L374.92,198 L373.448,198 Z M372.56,196.328 C373.045336,195.991998 373.336,195.546669 373.432,194.992 L373.432,194.144 L370.952,194.144 C370.279997,194.144 369.781335,194.245332 369.456,194.448 C369.130665,194.650668 368.968,194.970664 368.968,195.408 C368.968,195.845336 369.133332,196.191999 369.464,196.448 C369.794668,196.704001 370.237331,196.832 370.792,196.832 C371.485337,196.832 372.074664,196.664002 372.56,196.328 Z M377.656,186.128 L379.144,186.128 L379.144,198 L377.656,198 L377.656,186.128 Z M382.136,189.536 L383.624,189.536 L383.624,198 L382.136,198 L382.136,189.536 Z M383.536,186.432 C383.712001,186.613334 383.8,186.842665 383.8,187.12 C383.8,187.397335 383.712001,187.626666 383.536,187.808 C383.359999,187.989334 383.138668,188.08 382.872,188.08 C382.605332,188.08 382.384001,187.989334 382.208,187.808 C382.031999,187.626666 381.944,187.397335 381.944,187.12 C381.944,186.842665 382.031999,186.613334 382.208,186.432 C382.384001,186.250666 382.605332,186.16 382.872,186.16 C383.138668,186.16 383.359999,186.250666 383.536,186.432 Z M391.064,197.44 C390.41333,197.856002 389.752003,198.064 389.08,198.064 C388.407997,198.064 387.864002,197.864002 387.448,197.464 C387.031998,197.063998 386.824,196.458671 386.824,195.648 L386.824,190.96 L385.624,190.96 L385.624,189.824 L386.824,189.824 L386.824,187.552 L388.328,187.552 L388.328,189.824 L390.92,189.824 L390.92,190.96 L388.328,190.96 L388.328,195.376 C388.328,195.845336 388.413332,196.181332 388.584,196.384 C388.754668,196.586668 389.010665,196.688 389.352,196.688 C389.757335,196.688 390.194664,196.554668 390.664,196.288 L391.064,197.44 Z M399.128,190.648 C399.800003,191.421337 400.136,192.495993 400.136,193.872 C400.136,194.085334 400.130667,194.245333 400.12,194.352 L393.432,194.352 C393.549334,195.109337 393.866664,195.711998 394.384,196.16 C394.901336,196.608002 395.538663,196.832 396.296,196.832 C396.797336,196.832 397.263998,196.741334 397.696,196.56 C398.128002,196.378666 398.503998,196.122668 398.824,195.792 L399.64,196.64 C399.223998,197.088002 398.72267,197.434665 398.136,197.68 C397.54933,197.925335 396.89867,198.048 396.184,198.048 C395.351996,198.048 394.613337,197.869335 393.968,197.512 C393.322663,197.154665 392.821335,196.65067 392.464,196 C392.106665,195.34933 391.928,194.608004 391.928,193.776 C391.928,192.943996 392.106665,192.205337 392.464,191.56 C392.821335,190.914663 393.319997,190.408002 393.96,190.04 C394.600003,189.671998 395.330663,189.488 396.152,189.488 C397.464007,189.488 398.455997,189.874663 399.128,190.648 Z M398.792,193.2 C398.749333,192.431996 398.493336,191.826669 398.024,191.384 C397.554664,190.941331 396.936004,190.72 396.168,190.72 C395.42133,190.72 394.800002,190.943998 394.304,191.392 C393.807998,191.840002 393.512,192.442663 393.416,193.2 L398.792,193.2 Z M396.952,185.968 L398.488,186.64 L396.504,188.208 L395.24,188.048 L396.952,185.968 Z" id="Qualité" fill="#000066"></path>
                <path d="M275.064,371.792 C275.82667,372.453337 276.208,373.381327 276.208,374.576 C276.208,375.824006 275.824004,376.791997 275.056,377.48 C274.287996,378.168003 273.210674,378.512 271.824,378.512 L269.04,378.512 L269.04,382 L267.504,382 L267.504,370.8 L271.824,370.8 C273.22134,370.8 274.30133,371.130663 275.064,371.792 Z M273.968,376.488 C274.480003,376.066665 274.736,375.445337 274.736,374.624 C274.736,373.823996 274.480003,373.218669 273.968,372.808 C273.455997,372.397331 272.720005,372.192 271.76,372.192 L269.04,372.208 L269.04,377.12 L271.76,377.12 C272.720005,377.12 273.455997,376.909335 273.968,376.488 Z M284.464,374.648 C285.136003,375.421337 285.472,376.495993 285.472,377.872 C285.472,378.085334 285.466667,378.245333 285.456,378.352 L278.768,378.352 C278.885334,379.109337 279.202664,379.711998 279.72,380.16 C280.237336,380.608002 280.874663,380.832 281.632,380.832 C282.133336,380.832 282.599998,380.741334 283.032,380.56 C283.464002,380.378666 283.839998,380.122668 284.16,379.792 L284.976,380.64 C284.559998,381.088002 284.05867,381.434665 283.472,381.68 C282.88533,381.925335 282.23467,382.048 281.52,382.048 C280.687996,382.048 279.949337,381.869335 279.304,381.512 C278.658663,381.154665 278.157335,380.65067 277.8,380 C277.442665,379.34933 277.264,378.608004 277.264,377.776 C277.264,376.943996 277.442665,376.205337 277.8,375.56 C278.157335,374.914663 278.655997,374.408002 279.296,374.04 C279.936003,373.671998 280.666663,373.488 281.488,373.488 C282.800007,373.488 283.791997,373.874663 284.464,374.648 Z M284.128,377.2 C284.085333,376.431996 283.829336,375.826669 283.36,375.384 C282.890664,374.941331 282.272004,374.72 281.504,374.72 C280.75733,374.72 280.136002,374.943998 279.64,375.392 C279.143998,375.840002 278.848,376.442663 278.752,377.2 L284.128,377.2 Z M290.176,373.976 C290.688003,373.661332 291.295996,373.498667 292,373.488 L292,374.928 C291.135996,374.896 290.437336,375.119998 289.904,375.6 C289.370664,376.080002 289.066667,376.725329 288.992,377.536 L288.992,382 L287.504,382 L287.504,373.536 L288.992,373.536 L288.992,375.36 C289.269335,374.751997 289.663997,374.290668 290.176,373.976 Z M295.776,371.712 C295.519999,371.946668 295.392,372.282664 295.392,372.72 L295.392,373.824 L297.728,373.824 L297.728,374.96 L295.392,374.96 L295.392,382 L293.904,382 L293.904,374.96 L292.8,374.96 L292.8,373.824 L293.904,373.824 L293.904,372.912 C293.904,372.29333 294.034665,371.768002 294.296,371.336 C294.557335,370.903998 294.901331,370.578668 295.328,370.36 C295.754669,370.141332 296.213331,370.032 296.704,370.032 C297.173336,370.032 297.663997,370.159999 298.176,370.416 L297.824,371.632 C297.439998,371.450666 297.077335,371.36 296.736,371.36 C296.351998,371.36 296.032001,371.477332 295.776,371.712 Z M304.696,374.032 C305.352003,374.394668 305.863998,374.898663 306.232,375.544 C306.600002,376.189337 306.784,376.927996 306.784,377.76 C306.784,378.592004 306.600002,379.33333 306.232,379.984 C305.863998,380.63467 305.352003,381.141332 304.696,381.504 C304.039997,381.866668 303.290671,382.048 302.448,382.048 C301.594662,382.048 300.840003,381.866668 300.184,381.504 C299.527997,381.141332 299.016002,380.637337 298.648,379.992 C298.279998,379.346663 298.096,378.602671 298.096,377.76 C298.096,376.927996 298.279998,376.189337 298.648,375.544 C299.016002,374.898663 299.527997,374.394668 300.184,374.032 C300.840003,373.669332 301.594662,373.488 302.448,373.488 C303.290671,373.488 304.039997,373.669332 304.696,374.032 Z M300.968,375.168 C300.535998,375.424001 300.200001,375.778664 299.96,376.232 C299.719999,376.685336 299.6,377.199997 299.6,377.776 C299.6,378.36267 299.719999,378.885331 299.96,379.344 C300.200001,379.802669 300.535998,380.157332 300.968,380.408 C301.400002,380.658668 301.893331,380.784 302.448,380.784 C302.992003,380.784 303.479998,380.658668 303.912,380.408 C304.344002,380.157332 304.679999,379.802669 304.92,379.344 C305.160001,378.885331 305.28,378.36267 305.28,377.776 C305.28,377.199997 305.160001,376.685336 304.92,376.232 C304.679999,375.778664 304.344002,375.424001 303.912,375.168 C303.479998,374.911999 302.992003,374.784 302.448,374.784 C301.893331,374.784 301.400002,374.911999 300.968,375.168 Z M311.536,373.976 C312.048003,373.661332 312.655996,373.498667 313.36,373.488 L313.36,374.928 C312.495996,374.896 311.797336,375.119998 311.264,375.6 C310.730664,376.080002 310.426667,376.725329 310.352,377.536 L310.352,382 L308.864,382 L308.864,373.536 L310.352,373.536 L310.352,375.36 C310.629335,374.751997 311.023997,374.290668 311.536,373.976 Z M328.192,374.368 C328.746669,374.95467 329.024,375.754662 329.024,376.768 L329.024,382 L327.52,382 L327.52,377.168 C327.52,376.45333 327.325335,375.893335 326.936,375.488 C326.546665,375.082665 326.01067,374.88 325.328,374.88 C324.527996,374.901333 323.898669,375.183997 323.44,375.728 C322.981331,376.272003 322.752,376.970662 322.752,377.824 L322.752,382 L321.248,382 L321.248,377.168 C321.248,376.45333 321.056002,375.893335 320.672,375.488 C320.287998,375.082665 319.749337,374.88 319.056,374.88 C318.255996,374.901333 317.624002,375.183997 317.16,375.728 C316.695998,376.272003 316.464,376.970662 316.464,377.824 L316.464,382 L314.976,382 L314.976,373.536 L316.464,373.536 L316.464,375.312 C317.018669,374.117327 318.069326,373.509333 319.616,373.488 C320.394671,373.488 321.042664,373.674665 321.56,374.048 C322.077336,374.421335 322.426666,374.943997 322.608,375.616 C323.130669,374.21866 324.229325,373.509333 325.904,373.488 C326.874672,373.488 327.637331,373.78133 328.192,374.368 Z M336.848,382 L336.848,380.816 C336.218664,381.648004 335.232007,382.064 333.888,382.064 C333.30133,382.064 332.786669,381.952001 332.344,381.728 C331.901331,381.503999 331.560001,381.194669 331.32,380.8 C331.079999,380.405331 330.96,379.962669 330.96,379.472 C330.96,378.714663 331.239997,378.114669 331.8,377.672 C332.360003,377.229331 333.141328,377.002667 334.144,376.992 L336.832,376.992 L336.832,376.592 C336.832,375.994664 336.648002,375.533335 336.28,375.208 C335.911998,374.882665 335.376004,374.72 334.672,374.72 C333.818662,374.72 332.949338,375.023997 332.064,375.632 L331.44,374.608 C332.048003,374.213331 332.610664,373.928001 333.128,373.752 C333.645336,373.575999 334.26133,373.488 334.976,373.488 C336.032005,373.488 336.847997,373.746664 337.424,374.264 C338.000003,374.781336 338.293333,375.503995 338.304,376.432 L338.32,382 L336.848,382 Z M335.96,380.328 C336.445336,379.991998 336.736,379.546669 336.832,378.992 L336.832,378.144 L334.352,378.144 C333.679997,378.144 333.181335,378.245332 332.856,378.448 C332.530665,378.650668 332.368,378.970664 332.368,379.408 C332.368,379.845336 332.533332,380.191999 332.864,380.448 C333.194668,380.704001 333.637331,380.832 334.192,380.832 C334.885337,380.832 335.474664,380.664002 335.96,380.328 Z M348.016,374.36 C348.581336,374.941336 348.864,375.743995 348.864,376.768 L348.864,382 L347.376,382 L347.376,377.168 C347.376,376.45333 347.176002,375.896002 346.776,375.496 C346.375998,375.095998 345.824004,374.896 345.12,374.896 C344.362663,374.906667 343.746669,375.149331 343.272,375.624 C342.797331,376.098669 342.528,376.714663 342.464,377.472 L342.464,382 L340.976,382 L340.976,373.536 L342.464,373.536 L342.464,375.328 C343.029336,374.122661 344.101325,373.509333 345.68,373.488 C346.672005,373.488 347.450664,373.778664 348.016,374.36 Z M355.04,374.816 C354.485331,374.816 353.992002,374.938665 353.56,375.184 C353.127998,375.429335 352.789335,375.775998 352.544,376.224 C352.298665,376.672002 352.176,377.18933 352.176,377.776 C352.176,378.36267 352.295999,378.879998 352.536,379.328 C352.776001,379.776002 353.106665,380.125332 353.528,380.376 C353.949335,380.626668 354.431997,380.752 354.976,380.752 C355.520003,380.752 356.010664,380.661334 356.448,380.48 C356.885336,380.298666 357.247999,380.037335 357.536,379.696 L358.384,380.56 C357.999998,381.040002 357.512003,381.407999 356.92,381.664 C356.327997,381.920001 355.65867,382.048 354.912,382.048 C354.090663,382.048 353.360003,381.866668 352.72,381.504 C352.079997,381.141332 351.581335,380.637337 351.224,379.992 C350.866665,379.346663 350.688,378.608004 350.688,377.776 C350.688,376.943996 350.866665,376.20267 351.224,375.552 C351.581335,374.90133 352.079997,374.394668 352.72,374.032 C353.360003,373.669332 354.090663,373.488 354.912,373.488 C355.62667,373.488 356.26933,373.597332 356.84,373.816 C357.41067,374.034668 357.887998,374.351998 358.272,374.768 L357.456,375.792 C356.783997,375.14133 355.978671,374.816 355.04,374.816 Z M366.512,374.648 C367.184003,375.421337 367.52,376.495993 367.52,377.872 C367.52,378.085334 367.514667,378.245333 367.504,378.352 L360.816,378.352 C360.933334,379.109337 361.250664,379.711998 361.768,380.16 C362.285336,380.608002 362.922663,380.832 363.68,380.832 C364.181336,380.832 364.647998,380.741334 365.08,380.56 C365.512002,380.378666 365.887998,380.122668 366.208,379.792 L367.024,380.64 C366.607998,381.088002 366.10667,381.434665 365.52,381.68 C364.93333,381.925335 364.28267,382.048 363.568,382.048 C362.735996,382.048 361.997337,381.869335 361.352,381.512 C360.706663,381.154665 360.205335,380.65067 359.848,380 C359.490665,379.34933 359.312,378.608004 359.312,377.776 C359.312,376.943996 359.490665,376.205337 359.848,375.56 C360.205335,374.914663 360.703997,374.408002 361.344,374.04 C361.984003,373.671998 362.714663,373.488 363.536,373.488 C364.848007,373.488 365.839997,373.874663 366.512,374.648 Z M366.176,377.2 C366.133333,376.431996 365.877336,375.826669 365.408,375.384 C364.938664,374.941331 364.320004,374.72 363.552,374.72 C362.80533,374.72 362.184002,374.943998 361.688,375.392 C361.191998,375.840002 360.896,376.442663 360.8,377.2 L366.176,377.2 Z" id="Performance" fill="#000066"></path>
                <path d="M118.224,371.792 C118.98667,372.453337 119.368,373.381327 119.368,374.576 C119.368,375.824006 118.984004,376.791997 118.216,377.48 C117.447996,378.168003 116.370674,378.512 114.984,378.512 L112.2,378.512 L112.2,382 L110.664,382 L110.664,370.8 L114.984,370.8 C116.38134,370.8 117.46133,371.130663 118.224,371.792 Z M117.128,376.488 C117.640003,376.066665 117.896,375.445337 117.896,374.624 C117.896,373.823996 117.640003,373.218669 117.128,372.808 C116.615997,372.397331 115.880005,372.192 114.92,372.192 L112.2,372.208 L112.2,377.12 L114.92,377.12 C115.880005,377.12 116.615997,376.909335 117.128,376.488 Z M123.928,373.976 C124.440003,373.661332 125.047996,373.498667 125.752,373.488 L125.752,374.928 C124.887996,374.896 124.189336,375.119998 123.656,375.6 C123.122664,376.080002 122.818667,376.725329 122.744,377.536 L122.744,382 L121.256,382 L121.256,373.536 L122.744,373.536 L122.744,375.36 C123.021335,374.751997 123.415997,374.290668 123.928,373.976 Z M127.368,373.536 L128.856,373.536 L128.856,382 L127.368,382 L127.368,373.536 Z M128.768,370.432 C128.944001,370.613334 129.032,370.842665 129.032,371.12 C129.032,371.397335 128.944001,371.626666 128.768,371.808 C128.591999,371.989334 128.370668,372.08 128.104,372.08 C127.837332,372.08 127.616001,371.989334 127.44,371.808 C127.263999,371.626666 127.176,371.397335 127.176,371.12 C127.176,370.842665 127.263999,370.613334 127.44,370.432 C127.616001,370.250666 127.837332,370.16 128.104,370.16 C128.370668,370.16 128.591999,370.250666 128.768,370.432 Z M130.792,373.536 L132.52,373.536 L134.616,376.64 L136.744,373.536 L138.392,373.536 L135.608,377.664 L138.6,382 L136.856,382 L134.616,378.672 L132.264,382 L130.584,382 L133.624,377.664 L130.792,373.536 Z" id="Prix" fill="#000066"></path>
                <path d="M52.692,179.528 C53.5720044,180.013336 54.2626642,180.682662 54.764,181.536 C55.2653358,182.389338 55.516,183.343995 55.516,184.4 C55.516,185.456005 55.2626692,186.410662 54.756,187.264 C54.2493308,188.117338 53.5533378,188.786664 52.668,189.272 C51.7826622,189.757336 50.7906722,190 49.692,190 L45.18,190 L45.18,178.8 L49.74,178.8 C50.8280054,178.8 51.8119956,179.042664 52.692,179.528 Z M51.892,188.064 C52.5266698,187.701332 53.0279982,187.200003 53.396,186.56 C53.7640018,185.919997 53.948,185.205337 53.948,184.416 C53.948,183.615996 53.7613352,182.896003 53.388,182.256 C53.0146648,181.615997 52.5053366,181.112002 51.86,180.744 C51.2146634,180.375998 50.4973373,180.192 49.708,180.192 L46.716,180.192 L46.716,188.608 L49.772,188.608 C50.5506706,188.608 51.2573302,188.426668 51.892,188.064 Z M65.052,181.536 L65.052,190 L63.548,190 L63.548,188.208 C62.9933306,189.413339 61.9480077,190.026667 60.412,190.048 C59.4306618,190.048 58.6626694,189.757336 58.108,189.176 C57.5533306,188.594664 57.276,187.792005 57.276,186.768 L57.276,181.536 L58.78,181.536 L58.78,186.368 C58.78,187.08267 58.9746647,187.639998 59.364,188.04 C59.7533353,188.440002 60.2893299,188.64 60.972,188.64 C61.7613373,188.629333 62.3879977,188.349336 62.852,187.8 C63.3160023,187.250664 63.548,186.549338 63.548,185.696 L63.548,181.536 L65.052,181.536 Z M70.62,181.976 C71.1320026,181.661332 71.7399965,181.498667 72.444,181.488 L72.444,182.928 C71.5799957,182.896 70.881336,183.119998 70.348,183.6 C69.814664,184.080002 69.510667,184.725329 69.436,185.536 L69.436,190 L67.948,190 L67.948,181.536 L69.436,181.536 L69.436,183.36 C69.7133347,182.751997 70.1079974,182.290668 70.62,181.976 Z M80.428,182.648 C81.1000034,183.421337 81.436,184.495993 81.436,185.872 C81.436,186.085334 81.4306667,186.245333 81.42,186.352 L74.732,186.352 C74.8493339,187.109337 75.1666641,187.711998 75.684,188.16 C76.2013359,188.608002 76.8386629,188.832 77.596,188.832 C78.0973358,188.832 78.5639978,188.741334 78.996,188.56 C79.4280022,188.378666 79.8039984,188.122668 80.124,187.792 L80.94,188.64 C80.5239979,189.088002 80.0226696,189.434665 79.436,189.68 C78.8493304,189.925335 78.1986702,190.048 77.484,190.048 C76.6519958,190.048 75.9133366,189.869335 75.268,189.512 C74.6226634,189.154665 74.1213351,188.65067 73.764,188 C73.4066649,187.34933 73.228,186.608004 73.228,185.776 C73.228,184.943996 73.4066649,184.205337 73.764,183.56 C74.1213351,182.914663 74.6199968,182.408002 75.26,182.04 C75.9000032,181.671998 76.6306626,181.488 77.452,181.488 C78.7640066,181.488 79.7559966,181.874663 80.428,182.648 Z M80.092,185.2 C80.0493331,184.431996 79.7933357,183.826669 79.324,183.384 C78.8546643,182.941331 78.2360038,182.72 77.468,182.72 C76.7213296,182.72 76.1000025,182.943998 75.604,183.392 C75.1079975,183.840002 74.8120005,184.442663 74.716,185.2 L80.092,185.2 Z M78.252,177.968 L79.788,178.64 L77.804,180.208 L76.54,180.048 L78.252,177.968 Z M89.836,182.648 C90.5080034,183.421337 90.844,184.495993 90.844,185.872 C90.844,186.085334 90.8386667,186.245333 90.828,186.352 L84.14,186.352 C84.2573339,187.109337 84.5746641,187.711998 85.092,188.16 C85.6093359,188.608002 86.2466629,188.832 87.004,188.832 C87.5053358,188.832 87.9719978,188.741334 88.404,188.56 C88.8360022,188.378666 89.2119984,188.122668 89.532,187.792 L90.348,188.64 C89.9319979,189.088002 89.4306696,189.434665 88.844,189.68 C88.2573304,189.925335 87.6066702,190.048 86.892,190.048 C86.0599958,190.048 85.3213366,189.869335 84.676,189.512 C84.0306634,189.154665 83.5293351,188.65067 83.172,188 C82.8146649,187.34933 82.636,186.608004 82.636,185.776 C82.636,184.943996 82.8146649,184.205337 83.172,183.56 C83.5293351,182.914663 84.0279968,182.408002 84.668,182.04 C85.3080032,181.671998 86.0386626,181.488 86.86,181.488 C88.1720066,181.488 89.1639966,181.874663 89.836,182.648 Z M89.5,185.2 C89.4573331,184.431996 89.2013357,183.826669 88.732,183.384 C88.2626643,182.941331 87.6440038,182.72 86.876,182.72 C86.1293296,182.72 85.5080025,182.943998 85.012,183.392 C84.5159975,183.840002 84.2200005,184.442663 84.124,185.2 L89.5,185.2 Z M53.628,194.128 L53.628,206 L52.14,206 L52.14,204.32 C51.8199984,204.885336 51.3906694,205.319998 50.852,205.624 C50.3133306,205.928002 49.6866702,206.08 48.972,206.08 C48.171996,206.08 47.4653364,205.896002 46.852,205.528 C46.2386636,205.159998 45.761335,204.648003 45.42,203.992 C45.078665,203.335997 44.908,202.586671 44.908,201.744 C44.908,200.911996 45.078665,200.173337 45.42,199.528 C45.761335,198.882663 46.2386636,198.378668 46.852,198.016 C47.4653364,197.653332 48.1666627,197.472 48.956,197.472 C49.681337,197.472 50.3159973,197.621332 50.86,197.92 C51.4040027,198.218668 51.8306651,198.650664 52.14,199.216 L52.14,194.128 L53.628,194.128 Z M50.756,204.416 C51.1880022,204.159999 51.5266654,203.802669 51.772,203.344 C52.0173346,202.885331 52.14,202.368003 52.14,201.792 C52.14,201.20533 52.0173346,200.682669 51.772,200.224 C51.5266654,199.765331 51.1880022,199.408001 50.756,199.152 C50.3239978,198.895999 49.8306694,198.768 49.276,198.768 C48.7213306,198.768 48.2280022,198.898665 47.796,199.16 C47.3639978,199.421335 47.0253346,199.781331 46.78,200.24 C46.5346654,200.698669 46.412,201.215997 46.412,201.792 C46.412,202.368003 46.5346654,202.885331 46.78,203.344 C47.0253346,203.802669 47.3639978,204.159999 47.796,204.416 C48.2280022,204.672001 48.7213306,204.8 49.276,204.8 C49.8306694,204.8 50.3239978,204.672001 50.756,204.416 Z M62.988,198.648 C63.6600034,199.421337 63.996,200.495993 63.996,201.872 C63.996,202.085334 63.9906667,202.245333 63.98,202.352 L57.292,202.352 C57.4093339,203.109337 57.7266641,203.711998 58.244,204.16 C58.7613359,204.608002 59.3986629,204.832 60.156,204.832 C60.6573358,204.832 61.1239978,204.741334 61.556,204.56 C61.9880022,204.378666 62.3639984,204.122668 62.684,203.792 L63.5,204.64 C63.0839979,205.088002 62.5826696,205.434665 61.996,205.68 C61.4093304,205.925335 60.7586702,206.048 60.044,206.048 C59.2119958,206.048 58.4733366,205.869335 57.828,205.512 C57.1826634,205.154665 56.6813351,204.65067 56.324,204 C55.9666649,203.34933 55.788,202.608004 55.788,201.776 C55.788,200.943996 55.9666649,200.205337 56.324,199.56 C56.6813351,198.914663 57.1799968,198.408002 57.82,198.04 C58.4600032,197.671998 59.1906626,197.488 60.012,197.488 C61.3240066,197.488 62.3159966,197.874663 62.988,198.648 Z M62.652,201.2 C62.6093331,200.431996 62.3533357,199.826669 61.884,199.384 C61.4146643,198.941331 60.7960038,198.72 60.028,198.72 C59.2813296,198.72 58.6600025,198.943998 58.164,199.392 C57.6679975,199.840002 57.3720005,200.442663 57.276,201.2 L62.652,201.2 Z M68.812,197.536 L70.396,197.536 L72.94,204.528 L75.468,197.536 L76.972,197.536 L73.676,206 L72.124,206 L68.812,197.536 Z M78.38,197.536 L79.868,197.536 L79.868,206 L78.38,206 L78.38,197.536 Z M79.78,194.432 C79.9560009,194.613334 80.044,194.842665 80.044,195.12 C80.044,195.397335 79.9560009,195.626666 79.78,195.808 C79.6039991,195.989334 79.382668,196.08 79.116,196.08 C78.849332,196.08 78.6280009,195.989334 78.452,195.808 C78.2759991,195.626666 78.188,195.397335 78.188,195.12 C78.188,194.842665 78.2759991,194.613334 78.452,194.432 C78.6280009,194.250666 78.849332,194.16 79.116,194.16 C79.382668,194.16 79.6039991,194.250666 79.78,194.432 Z M89.132,198.648 C89.8040034,199.421337 90.14,200.495993 90.14,201.872 C90.14,202.085334 90.1346667,202.245333 90.124,202.352 L83.436,202.352 C83.5533339,203.109337 83.8706641,203.711998 84.388,204.16 C84.9053359,204.608002 85.5426629,204.832 86.3,204.832 C86.8013358,204.832 87.2679978,204.741334 87.7,204.56 C88.1320022,204.378666 88.5079984,204.122668 88.828,203.792 L89.644,204.64 C89.2279979,205.088002 88.7266696,205.434665 88.14,205.68 C87.5533304,205.925335 86.9026702,206.048 86.188,206.048 C85.3559958,206.048 84.6173366,205.869335 83.972,205.512 C83.3266634,205.154665 82.8253351,204.65067 82.468,204 C82.1106649,203.34933 81.932,202.608004 81.932,201.776 C81.932,200.943996 82.1106649,200.205337 82.468,199.56 C82.8253351,198.914663 83.3239968,198.408002 83.964,198.04 C84.6040032,197.671998 85.3346626,197.488 86.156,197.488 C87.4680066,197.488 88.4599966,197.874663 89.132,198.648 Z M88.796,201.2 C88.7533331,200.431996 88.4973357,199.826669 88.028,199.384 C87.5586643,198.941331 86.9400038,198.72 86.172,198.72 C85.4253296,198.72 84.8040025,198.943998 84.308,199.392 C83.8119975,199.840002 83.5160005,200.442663 83.42,201.2 L88.796,201.2 Z" id="Durée-de-vie" fill="#000066"></path>
                <path d="M195.808,197.4 L204.556,197.4 L204.556,198.966 L197.536,198.966 L197.536,202.854 L203.818,202.854 L203.818,204.42 L197.536,204.42 L197.536,208.434 L204.772,208.434 L204.772,210 L195.808,210 L195.808,197.4 Z M211.297,202.008 C210.822998,201.863999 210.370002,201.792 209.938,201.792 C209.433997,201.792 209.029002,201.884999 208.723,202.071 C208.416998,202.257001 208.264,202.541998 208.264,202.926 C208.264,203.310002 208.434998,203.600999 208.777,203.799 C209.119002,203.997001 209.637997,204.197999 210.334,204.402 C210.994003,204.594001 211.533998,204.785999 211.954,204.978 C212.374002,205.170001 212.730999,205.451998 213.025,205.824 C213.319001,206.196002 213.466,206.687997 213.466,207.3 C213.466,208.200005 213.127003,208.883998 212.449,209.352 C211.770997,209.820002 210.928005,210.054 209.92,210.054 C209.211996,210.054 208.525003,209.940001 207.859,209.712 C207.192997,209.483999 206.632002,209.160002 206.176,208.74 L206.806,207.516 C207.202002,207.876002 207.690997,208.163999 208.273,208.38 C208.855003,208.596001 209.421997,208.704 209.974,208.704 C210.526003,208.704 210.969998,208.602001 211.306,208.398 C211.642002,208.193999 211.81,207.882002 211.81,207.462 C211.81,207.029998 211.633002,206.706001 211.279,206.49 C210.924998,206.273999 210.388004,206.058001 209.668,205.842 C209.031997,205.661999 208.513002,205.479001 208.111,205.293 C207.708998,205.106999 207.367001,204.834002 207.085,204.474 C206.802999,204.113998 206.662,203.646003 206.662,203.07 C206.662,202.181996 206.985997,201.516002 207.634,201.072 C208.282003,200.627998 209.091995,200.406 210.064,200.406 C210.640003,200.406 211.206997,200.486999 211.765,200.649 C212.323003,200.811001 212.805998,201.029999 213.214,201.306 L212.602,202.584 C212.205998,202.343999 211.771002,202.152001 211.297,202.008 Z M219.577,202.008 C219.102998,201.863999 218.650002,201.792 218.218,201.792 C217.713997,201.792 217.309002,201.884999 217.003,202.071 C216.696998,202.257001 216.544,202.541998 216.544,202.926 C216.544,203.310002 216.714998,203.600999 217.057,203.799 C217.399002,203.997001 217.917997,204.197999 218.614,204.402 C219.274003,204.594001 219.813998,204.785999 220.234,204.978 C220.654002,205.170001 221.010999,205.451998 221.305,205.824 C221.599001,206.196002 221.746,206.687997 221.746,207.3 C221.746,208.200005 221.407003,208.883998 220.729,209.352 C220.050997,209.820002 219.208005,210.054 218.2,210.054 C217.491996,210.054 216.805003,209.940001 216.139,209.712 C215.472997,209.483999 214.912002,209.160002 214.456,208.74 L215.086,207.516 C215.482002,207.876002 215.970997,208.163999 216.553,208.38 C217.135003,208.596001 217.701997,208.704 218.254,208.704 C218.806003,208.704 219.249998,208.602001 219.586,208.398 C219.922002,208.193999 220.09,207.882002 220.09,207.462 C220.09,207.029998 219.913002,206.706001 219.559,206.49 C219.204998,206.273999 218.668004,206.058001 217.948,205.842 C217.311997,205.661999 216.793002,205.479001 216.391,205.293 C215.988998,205.106999 215.647001,204.834002 215.365,204.474 C215.082999,204.113998 214.942,203.646003 214.942,203.07 C214.942,202.181996 215.265997,201.516002 215.914,201.072 C216.562003,200.627998 217.371995,200.406 218.344,200.406 C218.920003,200.406 219.486997,200.486999 220.045,200.649 C220.603003,200.811001 221.085998,201.029999 221.494,201.306 L220.882,202.584 C220.485998,202.343999 220.051002,202.152001 219.577,202.008 Z M229.774,210 L229.774,208.668 C229.065996,209.604005 227.956008,210.072 226.444,210.072 C225.783997,210.072 225.205002,209.946001 224.707,209.694 C224.208998,209.441999 223.825001,209.094002 223.555,208.65 C223.284999,208.205998 223.15,207.708003 223.15,207.156 C223.15,206.303996 223.464997,205.629002 224.095,205.131 C224.725003,204.632998 225.603994,204.378 226.732,204.366 L229.756,204.366 L229.756,203.916 C229.756,203.243997 229.549002,202.725002 229.135,202.359 C228.720998,201.992998 228.118004,201.81 227.326,201.81 C226.365995,201.81 225.388005,202.151997 224.392,202.836 L223.69,201.684 C224.374003,201.239998 225.006997,200.919001 225.589,200.721 C226.171003,200.522999 226.863996,200.424 227.668,200.424 C228.856006,200.424 229.773997,200.714997 230.422,201.297 C231.070003,201.879003 231.4,202.691995 231.412,203.736 L231.43,210 L229.774,210 Z M228.775,208.119 C229.321003,207.740998 229.647999,207.240003 229.756,206.616 L229.756,205.662 L226.966,205.662 C226.209996,205.662 225.649002,205.775999 225.283,206.004 C224.916998,206.232001 224.734,206.591998 224.734,207.084 C224.734,207.576002 224.919998,207.965999 225.292,208.254 C225.664002,208.542001 226.161997,208.686 226.786,208.686 C227.566004,208.686 228.228997,208.497002 228.775,208.119 Z M234.418,200.478 L236.092,200.478 L236.092,210 L234.418,210 L234.418,200.478 Z M235.993,196.986 C236.191001,197.190001 236.29,197.447998 236.29,197.76 C236.29,198.072002 236.191001,198.329999 235.993,198.534 C235.794999,198.738001 235.546001,198.84 235.246,198.84 C234.945999,198.84 234.697001,198.738001 234.499,198.534 C234.300999,198.329999 234.202,198.072002 234.202,197.76 C234.202,197.447998 234.300999,197.190001 234.499,196.986 C234.697001,196.781999 234.945999,196.68 235.246,196.68 C235.546001,196.68 235.794999,196.781999 235.993,196.986 Z M243.247,202.008 C242.772998,201.863999 242.320002,201.792 241.888,201.792 C241.383997,201.792 240.979002,201.884999 240.673,202.071 C240.366998,202.257001 240.214,202.541998 240.214,202.926 C240.214,203.310002 240.384998,203.600999 240.727,203.799 C241.069002,203.997001 241.587997,204.197999 242.284,204.402 C242.944003,204.594001 243.483998,204.785999 243.904,204.978 C244.324002,205.170001 244.680999,205.451998 244.975,205.824 C245.269001,206.196002 245.416,206.687997 245.416,207.3 C245.416,208.200005 245.077003,208.883998 244.399,209.352 C243.720997,209.820002 242.878005,210.054 241.87,210.054 C241.161996,210.054 240.475003,209.940001 239.809,209.712 C239.142997,209.483999 238.582002,209.160002 238.126,208.74 L238.756,207.516 C239.152002,207.876002 239.640997,208.163999 240.223,208.38 C240.805003,208.596001 241.371997,208.704 241.924,208.704 C242.476003,208.704 242.919998,208.602001 243.256,208.398 C243.592002,208.193999 243.76,207.882002 243.76,207.462 C243.76,207.029998 243.583002,206.706001 243.229,206.49 C242.874998,206.273999 242.338004,206.058001 241.618,205.842 C240.981997,205.661999 240.463002,205.479001 240.061,205.293 C239.658998,205.106999 239.317001,204.834002 239.035,204.474 C238.752999,204.113998 238.612,203.646003 238.612,203.07 C238.612,202.181996 238.935997,201.516002 239.584,201.072 C240.232003,200.627998 241.041995,200.406 242.014,200.406 C242.590003,200.406 243.156997,200.486999 243.715,200.649 C244.273003,200.811001 244.755998,201.029999 245.164,201.306 L244.552,202.584 C244.155998,202.343999 243.721002,202.152001 243.247,202.008 Z M210.37,223.191 C209.739997,223.004999 209.161003,222.912 208.633,222.912 C207.900996,222.912 207.316002,223.052999 206.878,223.335 C206.439998,223.617001 206.221,224.003998 206.221,224.496 C206.221,224.940002 206.352999,225.302999 206.617,225.585 C206.881001,225.867001 207.204998,226.088999 207.589,226.251 C207.973002,226.413001 208.506997,226.601999 209.191,226.818 C210.043004,227.082001 210.732997,227.333999 211.261,227.574 C211.789003,227.814001 212.238998,228.170998 212.611,228.645 C212.983002,229.119002 213.169,229.745996 213.169,230.526 C213.169,231.246004 212.974002,231.875997 212.584,232.416 C212.193998,232.956003 211.648004,233.372999 210.946,233.667 C210.243996,233.961001 209.437005,234.108 208.525,234.108 C207.600995,234.108 206.701004,233.928002 205.825,233.568 C204.948996,233.207998 204.193003,232.728003 203.557,232.128 L204.331,230.634 C204.931003,231.222003 205.605996,231.674998 206.356,231.993 C207.106004,232.311002 207.834996,232.47 208.543,232.47 C209.383004,232.47 210.045998,232.305002 210.532,231.975 C211.018002,231.644998 211.261,231.198003 211.261,230.634 C211.261,230.189998 211.129001,229.824001 210.865,229.536 C210.600999,229.247999 210.268002,229.020001 209.866,228.852 C209.463998,228.683999 208.921003,228.498001 208.237,228.294 C207.396996,228.041999 206.713003,227.796001 206.185,227.556 C205.656997,227.315999 205.210002,226.962002 204.844,226.494 C204.477998,226.025998 204.295,225.408004 204.295,224.64 C204.295,223.967997 204.480998,223.374003 204.853,222.858 C205.225002,222.341997 205.746997,221.946001 206.419,221.67 C207.091003,221.393999 207.870996,221.256 208.759,221.256 C209.515004,221.256 210.255996,221.366999 210.982,221.589 C211.708004,221.811001 212.352997,222.107998 212.917,222.48 L212.197,224.028 C211.608997,223.655998 211.000003,223.377001 210.37,223.191 Z M221.458,223.191 C220.827997,223.004999 220.249003,222.912 219.721,222.912 C218.988996,222.912 218.404002,223.052999 217.966,223.335 C217.527998,223.617001 217.309,224.003998 217.309,224.496 C217.309,224.940002 217.440999,225.302999 217.705,225.585 C217.969001,225.867001 218.292998,226.088999 218.677,226.251 C219.061002,226.413001 219.594997,226.601999 220.279,226.818 C221.131004,227.082001 221.820997,227.333999 222.349,227.574 C222.877003,227.814001 223.326998,228.170998 223.699,228.645 C224.071002,229.119002 224.257,229.745996 224.257,230.526 C224.257,231.246004 224.062002,231.875997 223.672,232.416 C223.281998,232.956003 222.736004,233.372999 222.034,233.667 C221.331996,233.961001 220.525005,234.108 219.613,234.108 C218.688995,234.108 217.789004,233.928002 216.913,233.568 C216.036996,233.207998 215.281003,232.728003 214.645,232.128 L215.419,230.634 C216.019003,231.222003 216.693996,231.674998 217.444,231.993 C218.194004,232.311002 218.922996,232.47 219.631,232.47 C220.471004,232.47 221.133998,232.305002 221.62,231.975 C222.106002,231.644998 222.349,231.198003 222.349,230.634 C222.349,230.189998 222.217001,229.824001 221.953,229.536 C221.688999,229.247999 221.356002,229.020001 220.954,228.852 C220.551998,228.683999 220.009003,228.498001 219.325,228.294 C218.484996,228.041999 217.801003,227.796001 217.273,227.556 C216.744997,227.315999 216.298002,226.962002 215.932,226.494 C215.565998,226.025998 215.383,225.408004 215.383,224.64 C215.383,223.967997 215.568998,223.374003 215.941,222.858 C216.313002,222.341997 216.834997,221.946001 217.507,221.67 C218.179003,221.393999 218.958996,221.256 219.847,221.256 C220.603004,221.256 221.343996,221.366999 222.07,221.589 C222.796004,221.811001 223.440997,222.107998 224.005,222.48 L223.285,224.028 C222.696997,223.655998 222.088003,223.377001 221.458,223.191 Z M227.011,221.4 L235.759,221.4 L235.759,222.966 L228.739,222.966 L228.739,226.854 L235.021,226.854 L235.021,228.42 L228.739,228.42 L228.739,232.434 L235.975,232.434 L235.975,234 L227.011,234 L227.011,221.4 Z" id="Essais-SSE" fill="#000066"></path>
                <g id="Ico_Prix" transform="translate(106.000000, 328.000000)" stroke="#000066" stroke-linecap="round">
                    <polygon id="Stroke-1" points="0.528571429 19.8058667 36.0316571 19.8058667 36.0316571 0.533333333 0.528571429 0.533333333"></polygon>
                    <path d="M7.98005429,10.1696 L12.5521971,10.1696" id="Stroke-3"></path>
                    <path d="M24.0075029,10.1696 L28.5785886,10.1696" id="Stroke-4"></path>
                    <path d="M18.2800086,13.7815467 C20.2536943,13.7815467 21.8594943,12.16128 21.8594943,10.1687467 C21.8594943,8.17728 20.2536943,6.55808 18.2800086,6.55808 C16.3063229,6.55808 14.6994657,8.17728 14.6994657,10.1698133 C14.6994657,12.1623467 16.3063229,13.7815467 18.2800086,13.7815467 Z" id="Stroke-5"></path>
                    <path d="M5.62939143,14.3789867 C6.15162,14.9080533 6.43810571,15.6088533 6.43704857,16.35552 L6.43599143,16.5688533 L30.0927343,16.62112 L30.0937914,16.40672 C30.09802,14.8685867 31.3422771,13.6173867 32.8666771,13.6173867 L33.0770486,13.6173867 L33.09502,6.78218667 L32.8835914,6.78112 C31.3591914,6.77792 30.1191629,5.52245333 30.1191629,3.98325333 L30.1191629,3.76992 L6.46559143,3.71872 L6.46559143,3.93205333 C6.46347714,4.67765333 6.17382,5.37845333 5.65053429,5.90538667 C5.12619143,6.42912 4.43376286,6.71712 3.69587714,6.71712 L3.68953429,6.71712 L3.47704857,6.71712 L3.46436286,13.5565867 L3.67579143,13.5576533 C4.41473429,13.5597867 5.10822,13.8509867 5.62939143,14.3789867 Z" id="Stroke-7"></path>
                    <path d="M35.6453771,23.3054933 L0.914005714,23.3054933" id="Stroke-9"></path>
                    <path d="M35.6453771,27.0930133 L0.914005714,27.0930133" id="Stroke-11"></path>
                    <path d="M35.6453771,30.8794667 L0.914005714,30.8794667" id="Stroke-13"></path>
                </g>
                <g id="Ico_Securité" transform="translate(207.000000, 40.000000)" stroke="#000066" stroke-linecap="round" stroke-linejoin="round">
                    <path d="M25.6431977,4.05506728 L13.1597729,0.0248002756 C13.0569594,-0.00826675852 12.9430406,-0.00826675852 12.8402271,0.0248002756 L0.356802337,4.05506728 C0.144727052,4.12369026 0,4.32138135 0,4.54253936 L0,13.5218391 C0,19.7565751 3.13957398,25.5792175 8.36622668,29.0373893 L12.7134118,31.9138657 C12.8871559,32.0287114 13.1128441,32.0287114 13.2865882,31.9138657 L17.6337733,29.0373893 C22.860426,25.5792175 26,19.7565751 26,13.5218391 L26,4.54253936 C25.9996418,4.32102579 25.8552729,4.1233347 25.6431977,4.05506728 Z" id="Stroke-1"></path>
                    <polyline id="Stroke-3" points="14.2857143 8 10 14.5 15 14.5 11.0714286 21"></polyline>
                </g>
                <g id="Ico_Performance" transform="translate(300.000000, 327.000000)" stroke="#000066">
                    <path d="M33.2819,13.1022 C31.4329,5.6822 24.7949,0.5002 17.1379,0.5002 C7.9639,0.5002 0.4999,7.9632 0.4999,17.1372 C0.4999,23.8782 4.5209,29.9092 10.7449,32.5002" id="Stroke-1" stroke-linecap="round"></path>
                    <path d="M17.1355,14.5671 C18.5525,14.5671 19.7005,15.7151 19.7005,17.1311 C19.7005,18.5481 18.5525,19.6961 17.1355,19.6961 C15.7195,19.6961 14.5715,18.5481 14.5715,17.1311 C14.5715,15.7151 15.7195,14.5671 17.1355,14.5671 Z" id="Stroke-3" stroke-linecap="round"></path>
                    <path d="M16.5534,0.6471 L16.5534,4.0451" id="Stroke-5" stroke-linecap="round"></path>
                    <path d="M4.6022,6.2272 L7.0042,8.6302" id="Stroke-7" stroke-linecap="round"></path>
                    <path d="M29.5271,6.0148 L26.9641,8.1718" id="Stroke-9" stroke-linecap="round"></path>
                    <path d="M0.5007,17.2384 L3.7927,17.2384" id="Stroke-11" stroke-linecap="round"></path>
                    <path d="M5.1599,28.5461 L7.5629,26.1431" id="Stroke-13" stroke-linecap="round"></path>
                    <path d="M25.8415,9.0397 C25.2795,8.4467 24.5775,8.9617 24.5775,8.9617 L17.8335,14.6657 C18.7645,14.9287 19.4805,15.7027 19.6565,16.6667 L25.9755,10.1797 C26.3795,9.5607 25.8415,9.0397 25.8415,9.0397 Z" id="Stroke-15"></path>
                    <path d="M17.1355,29.2858 C17.1605,29.2098 22.8095,24.2008 22.8095,24.2008 L26.0325,27.2018 L31.6885,21.5528" id="Stroke-17" stroke-linecap="round"></path>
                    <polyline id="Stroke-19" stroke-linecap="round" points="28.8493 21.5529 31.9533 21.2249 31.9533 24.4299"></polyline>
                </g>
                <g id="Ico_Durée-de-vie" transform="translate(57.000000, 135.000000)" stroke="#000066">
                    <path d="M2.185,32.5001 L17.706,32.5001 C18.635,32.5001 19.392,31.7451 19.392,30.8151 L19.392,5.6671 C19.392,4.7381 18.636,3.9831 17.706,3.9831 L14.198,3.9831 L14.198,1.2221 C14.198,0.8231 13.874,0.5001 13.476,0.5001 L6.416,0.5001 C6.018,0.5001 5.695,0.8231 5.695,1.2221 L5.695,3.9831 L2.185,3.9831 C1.256,3.9831 0.5,4.7381 0.5,5.6671 L0.5,30.8161 C0.5,31.7451 1.256,32.5001 2.185,32.5001 Z" id="Stroke-1"></path>
                    <path d="M0.5004,7.0855 L19.3924,7.0855" id="Stroke-3"></path>
                    <path d="M5.5395,3.983 L14.3525,3.983" id="Stroke-5"></path>
                    <polygon id="Stroke-7" stroke-linecap="round" stroke-linejoin="round" points="14.55 17.052 11.498 17.052 11.498 14 9.052 14 9.052 17.052 6 17.052 6 19.498 9.052 19.498 9.052 22.55 11.498 22.55 11.498 19.498 14.55 19.498"></polygon>
                </g>
                <g id="Ico_Qualité" transform="translate(353.000000, 144.000000)" stroke="#000066">
                    <path d="M14.4350118,21.7601882 L10.7211294,21.2218353 L9.06089412,17.8543059 C8.71265882,17.1503059 7.54936471,17.1503059 7.20301176,17.8543059 L5.54277647,21.2218353 L1.82889412,21.7601882 C1.43924706,21.8166588 1.1136,22.0896 0.991247059,22.4660706 C0.868894118,22.8425412 0.972423529,23.2547765 1.25289412,23.5314824 L3.94089412,26.1498353 L3.30465882,29.8448941 C3.23877647,30.2345412 3.39877647,30.6279529 3.71877647,30.8594824 C4.04065882,31.0928941 4.46230588,31.1248941 4.81054118,30.9366588 L8.13289412,29.1936 L11.4533647,30.9366588 C11.6058353,31.0176 11.7696,31.0590118 11.9371294,31.0590118 C12.1517176,31.0590118 12.3663059,30.9931294 12.5470118,30.8594824 C12.8651294,30.6279529 13.0251294,30.2345412 12.9592471,29.8448941 L12.3248941,26.1498353 L15.0110118,23.5314824 C15.2933647,23.2547765 15.3950118,22.8425412 15.2726588,22.4660706 C15.1503059,22.0896 14.8265412,21.8166588 14.4350118,21.7601882 Z" id="Stroke-1"></path>
                    <path d="M36.1374118,22.4670118 C36.0150588,22.0905412 35.6912941,21.8176 35.2997647,21.7611294 L31.5858824,21.2208941 L29.9256471,17.8533647 C29.5774118,17.1493647 28.4141176,17.1493647 28.0677647,17.8533647 L26.4075294,21.2208941 L22.6936471,21.7611294 C22.304,21.8157176 21.9802353,22.0905412 21.8578824,22.4670118 C21.7355294,22.8416 21.8352941,23.2557176 22.1195294,23.5305412 L24.8037647,26.1488941 L24.1712941,29.8458353 C24.1035294,30.2354824 24.2635294,30.6288941 24.5835294,30.8604235 C24.9035294,31.0919529 25.3270588,31.1258353 25.6752941,30.9376 L28.9976471,29.1926588 L32.3181176,30.9376 C32.4705882,31.0185412 32.6362353,31.0580706 32.8018824,31.0580706 C33.0183529,31.0580706 33.2310588,30.9921882 33.4117647,30.8604235 C33.7317647,30.6288941 33.8898824,30.2354824 33.824,29.8458353 L33.1896471,26.1488941 L35.8757647,23.5305412 C36.1562353,23.2557176 36.256,22.8416 36.1374118,22.4670118 Z" id="Stroke-3"></path>
                    <path d="M22.4075294,14.6738824 C22.624,14.6738824 22.8385882,14.608 23.0174118,14.4762353 C23.3374118,14.2447059 23.4974118,13.8512941 23.4315294,13.4616471 L22.7952941,9.76470588 L25.4832941,7.14635294 C25.7637647,6.86964706 25.8672941,6.45741176 25.7430588,6.08282353 C25.6225882,5.70447059 25.2988235,5.43341176 24.9072941,5.37694118 L21.1934118,4.83670588 L19.5331765,1.46917647 C19.1849412,0.765176471 18.0216471,0.765176471 17.6752941,1.46917647 L16.0150588,4.83858824 L12.3011765,5.37882353 C11.9115294,5.43341176 11.5877647,5.70823529 11.4654118,6.08470588 C11.3449412,6.45929412 11.4447059,6.87152941 11.7270588,7.14823529 L14.4131765,9.76658824 L13.7788235,13.4635294 C13.7129412,13.8531765 13.8729412,14.2465882 14.1929412,14.4781176 C14.5167059,14.7115294 14.9364706,14.7454118 15.2847059,14.5571765 L18.6051765,12.8103529 L21.9275294,14.5571765 C22.0762353,14.6362353 22.2418824,14.6738824 22.4075294,14.6738824 Z" id="Stroke-5"></path>
                </g>
            </g>
        </g>
    </g>
</svg>