<svg xmlns="http://www.w3.org/2000/svg" xmlns:xlink="http://www.w3.org/1999/xlink" viewBox="0 0 248 248">
  <defs>
    <style>
      .cls-1, .cls-8 {
        fill: none;
      }

      .cls-2 {
        fill: #d9effd;
      }

      .cls-3 {
        fill: #3f7dc0;
      }

      .cls-4 {
        fill: #86b9e5;
      }

      .cls-5 {
        fill: #6099d2;
      }

      .cls-6 {
        fill: #115c94;
      }

      .cls-7 {
        clip-path: url(#clip-path);
      }

      .cls-8 {
        stroke: #86b9e5;
        stroke-miterlimit: 10;
        stroke-width: 0.25px;
      }

      .cls-9 {
        fill: url(#Dégradé_sans_nom_58);
      }
    </style>
    <clipPath id="clip-path">
      <polygon class="cls-1" points="104.32 189.97 44.51 155.44 44.51 86.37 104.32 120.91 104.32 189.97"/>
    </clipPath>
    <linearGradient id="Dégradé_sans_nom_58" data-name="Dégradé sans nom 58" x1="102.4" y1="121.49" x2="46.21" y2="154.99" gradientUnits="userSpaceOnUse">
      <stop offset="0" stop-color="#3f7dc0" stop-opacity="0.2"/>
      <stop offset="0.17" stop-color="#3f7dc0" stop-opacity="0.22"/>
      <stop offset="0.33" stop-color="#3f7dc0" stop-opacity="0.28"/>
      <stop offset="0.49" stop-color="#3f7dc0" stop-opacity="0.38"/>
      <stop offset="0.64" stop-color="#3f7dc0" stop-opacity="0.51"/>
      <stop offset="0.79" stop-color="#3f7dc0" stop-opacity="0.69"/>
      <stop offset="0.94" stop-color="#3f7dc0" stop-opacity="0.91"/>
      <stop offset="1" stop-color="#3f7dc0"/>
    </linearGradient>
  </defs>
  <title>Home_SSE</title>
  <g id="Prestation">
    <g>
      <g id="Enceinte">
        <g>
          <polygon class="cls-2" points="122.28 248 32.62 196.23 32.62 170.35 122.28 222.12 122.28 248"/>
          <polygon class="cls-3" points="211.95 196.23 122.28 248 122.28 222.12 211.95 170.35 211.95 196.23"/>
          <polygon class="cls-4" points="122.28 222.1 32.62 170.33 122.28 118.56 211.95 170.33 122.28 222.1"/>
        </g>
        <polygon class="cls-4" points="122.28 110.54 26.55 55.27 122.28 0 218.01 55.27 122.28 110.54"/>
        <polygon class="cls-3" points="122.28 110.54 26.55 55.27 37.92 48.76 133.65 104.02 122.28 110.54"/>
        <g>
          <polygon class="cls-2" points="122.28 221.07 26.55 165.81 26.55 55.27 122.28 110.54 122.28 221.07"/>
          <polygon class="cls-4" points="104.32 189.97 44.51 155.44 44.51 86.37 104.32 120.91 104.32 189.97"/>
          <polygon class="cls-5" points="104.32 189.97 44.51 155.44 44.55 150.24 104.36 184.77 104.32 189.97"/>
          <ellipse class="cls-3" cx="116.93" cy="113.47" rx="1.22" ry="2.12" transform="translate(-41.07 73.67) rotate(-30)"/>
          <ellipse class="cls-3" cx="116.93" cy="118.92" rx="1.22" ry="2.12" transform="translate(-43.79 74.4) rotate(-30)"/>
          <ellipse class="cls-3" cx="116.93" cy="206.49" rx="1.22" ry="2.12" transform="translate(-87.58 86.13) rotate(-30)"/>
          <ellipse class="cls-3" cx="116.93" cy="211.94" rx="1.22" ry="2.12" transform="translate(-90.3 86.86) rotate(-30)"/>
          <ellipse class="cls-3" cx="31.69" cy="64.25" rx="1.22" ry="2.12" transform="translate(-27.88 24.45) rotate(-30)"/>
          <ellipse class="cls-3" cx="31.69" cy="69.7" rx="1.22" ry="2.12" transform="translate(-30.6 25.18) rotate(-30)"/>
          <ellipse class="cls-3" cx="31.69" cy="157.27" rx="1.22" ry="2.12" transform="translate(-74.39 36.91) rotate(-30)"/>
          <ellipse class="cls-3" cx="31.69" cy="162.72" rx="1.22" ry="2.12" transform="translate(-77.12 37.64) rotate(-30)"/>
          <polygon class="cls-6" points="104.32 120.91 44.51 155.44 44.51 86.37 104.32 120.91"/>
          <polygon class="cls-3" points="49.04 152.82 44.51 155.44 44.51 86.37 48.78 88.84 49.04 152.82"/>
          <g class="cls-7">
            <g>
              <g>
                <polygon class="cls-2" points="80.94 165.46 62.39 154.91 62.39 137.95 80.94 148.5 80.94 165.46"/>
                <polygon class="cls-3" points="139.68 131.55 80.94 165.46 80.94 148.5 139.68 114.59 139.68 131.55"/>
                <polyline class="cls-8" points="139.68 125.75 80.94 159.66 80.54 159.43 62.39 149.11"/>
                <polygon class="cls-4" points="80.94 148.49 62.39 137.94 121.14 104.02 139.68 114.58 80.94 148.49"/>
              </g>
              <g>
                <g>
                  <ellipse class="cls-2" cx="80.94" cy="141.84" rx="2.85" ry="1.55"/>
                  <rect class="cls-2" x="78.08" y="138.21" width="5.71" height="3.63"/>
                  <ellipse class="cls-3" cx="80.94" cy="138.21" rx="2.85" ry="1.55"/>
                </g>
                <g>
                  <ellipse class="cls-2" cx="73.63" cy="137.98" rx="2.85" ry="1.55"/>
                  <rect class="cls-2" x="70.77" y="134.34" width="5.71" height="3.63"/>
                  <ellipse class="cls-3" cx="73.63" cy="134.34" rx="2.85" ry="1.55"/>
                </g>
                <g>
                  <ellipse class="cls-2" cx="89.85" cy="136.54" rx="2.85" ry="1.55"/>
                  <rect class="cls-2" x="87" y="132.91" width="5.71" height="3.63"/>
                  <ellipse class="cls-3" cx="89.85" cy="132.91" rx="2.85" ry="1.55"/>
                </g>
                <g>
                  <ellipse class="cls-2" cx="82.54" cy="132.68" rx="2.85" ry="1.55"/>
                  <rect class="cls-2" x="79.69" y="129.04" width="5.71" height="3.63"/>
                  <ellipse class="cls-3" cx="82.54" cy="129.04" rx="2.85" ry="1.55"/>
                </g>
                <g>
                  <ellipse class="cls-2" cx="99.08" cy="131.25" rx="2.85" ry="1.55"/>
                  <rect class="cls-2" x="96.23" y="127.61" width="5.71" height="3.63"/>
                  <ellipse class="cls-3" cx="99.08" cy="127.61" rx="2.85" ry="1.55"/>
                </g>
                <g>
                  <ellipse class="cls-2" cx="91.77" cy="127.38" rx="2.85" ry="1.55"/>
                  <rect class="cls-2" x="88.92" y="123.74" width="5.71" height="3.63"/>
                  <ellipse class="cls-3" cx="91.77" cy="123.74" rx="2.85" ry="1.55"/>
                </g>
                <g>
                  <ellipse class="cls-2" cx="107.46" cy="125.95" rx="2.85" ry="1.55"/>
                  <rect class="cls-2" x="104.6" y="122.31" width="5.71" height="3.63"/>
                  <ellipse class="cls-3" cx="107.46" cy="122.31" rx="2.85" ry="1.55"/>
                </g>
                <g>
                  <ellipse class="cls-2" cx="100.15" cy="122.08" rx="2.85" ry="1.55"/>
                  <rect class="cls-2" x="97.29" y="118.44" width="5.71" height="3.63"/>
                  <ellipse class="cls-3" cx="100.15" cy="118.44" rx="2.85" ry="1.55"/>
                </g>
              </g>
            </g>
            <g>
              <g>
                <polygon class="cls-2" points="102.18 177.55 83.64 167 83.64 150.04 102.18 160.59 102.18 177.55"/>
                <polygon class="cls-3" points="160.93 143.63 102.18 177.55 102.18 160.59 160.93 126.68 160.93 143.63"/>
                <polyline class="cls-8" points="160.93 137.83 102.18 171.75 101.78 171.52 83.64 161.2"/>
                <polygon class="cls-4" points="102.18 160.58 83.64 150.03 142.38 116.11 160.93 126.67 102.18 160.58"/>
              </g>
              <g>
                <g>
                  <ellipse class="cls-2" cx="102.18" cy="153.93" rx="2.85" ry="1.55"/>
                  <rect class="cls-2" x="99.33" y="150.3" width="5.71" height="3.63"/>
                  <ellipse class="cls-3" cx="102.18" cy="150.3" rx="2.85" ry="1.55"/>
                </g>
                <g>
                  <ellipse class="cls-2" cx="94.87" cy="150.06" rx="2.85" ry="1.55"/>
                  <rect class="cls-2" x="92.02" y="146.43" width="5.71" height="3.63"/>
                  <ellipse class="cls-3" cx="94.87" cy="146.43" rx="2.85" ry="1.55"/>
                </g>
                <g>
                  <ellipse class="cls-2" cx="111.1" cy="148.63" rx="2.85" ry="1.55"/>
                  <rect class="cls-2" x="108.25" y="145" width="5.71" height="3.63"/>
                  <ellipse class="cls-3" cx="111.1" cy="145" rx="2.85" ry="1.55"/>
                </g>
                <g>
                  <ellipse class="cls-2" cx="103.79" cy="144.77" rx="2.85" ry="1.55"/>
                  <rect class="cls-2" x="100.94" y="141.13" width="5.71" height="3.63"/>
                  <ellipse class="cls-3" cx="103.79" cy="141.13" rx="2.85" ry="1.55"/>
                </g>
                <g>
                  <ellipse class="cls-2" cx="120.33" cy="143.33" rx="2.85" ry="1.55"/>
                  <rect class="cls-2" x="117.48" y="139.7" width="5.71" height="3.63"/>
                  <ellipse class="cls-3" cx="120.33" cy="139.7" rx="2.85" ry="1.55"/>
                </g>
                <g>
                  <ellipse class="cls-2" cx="113.02" cy="139.47" rx="2.85" ry="1.55"/>
                  <rect class="cls-2" x="110.17" y="135.83" width="5.71" height="3.63"/>
                  <ellipse class="cls-3" cx="113.02" cy="135.83" rx="2.85" ry="1.55"/>
                </g>
                <g>
                  <ellipse class="cls-2" cx="128.7" cy="138.04" rx="2.85" ry="1.55"/>
                  <rect class="cls-2" x="125.85" y="134.4" width="5.71" height="3.63"/>
                  <ellipse class="cls-3" cx="128.7" cy="134.4" rx="2.85" ry="1.55"/>
                </g>
                <g>
                  <ellipse class="cls-2" cx="121.39" cy="134.17" rx="2.85" ry="1.55"/>
                  <rect class="cls-2" x="118.54" y="130.53" width="5.71" height="3.63"/>
                  <ellipse class="cls-3" cx="121.39" cy="130.53" rx="2.85" ry="1.55"/>
                </g>
              </g>
            </g>
          </g>
          <polygon class="cls-9" points="104.32 189.97 44.51 155.44 44.51 86.37 104.32 120.91 104.32 189.97"/>
        </g>
        <g>
          <polygon class="cls-3" points="218.01 165.81 122.28 221.07 122.28 110.54 218.01 55.27 218.01 165.81"/>
          <polygon class="cls-6" points="133.56 214.56 122.19 221.07 122.19 110.54 133.56 104.02 133.56 214.56"/>
          <ellipse class="cls-4" cx="212.9" cy="64.24" rx="2.12" ry="1.22" transform="translate(50.82 216.5) rotate(-60)"/>
          <ellipse class="cls-4" cx="212.9" cy="69.69" rx="2.12" ry="1.22" transform="translate(46.1 219.22) rotate(-60)"/>
          <ellipse class="cls-4" cx="212.9" cy="157.26" rx="2.12" ry="1.22" transform="translate(-29.74 263.01) rotate(-60)"/>
          <ellipse class="cls-4" cx="212.9" cy="162.71" rx="2.12" ry="1.22" transform="translate(-34.46 265.73) rotate(-60)"/>
          <ellipse class="cls-4" cx="127.65" cy="113.45" rx="2.12" ry="1.22" transform="matrix(0.5, -0.87, 0.87, 0.5, -34.43, 167.28)"/>
          <ellipse class="cls-4" cx="127.65" cy="118.9" rx="2.12" ry="1.22" transform="translate(-39.15 170) rotate(-60)"/>
          <ellipse class="cls-4" cx="127.65" cy="206.48" rx="2.12" ry="1.22" transform="translate(-114.99 213.79) rotate(-60)"/>
          <ellipse class="cls-4" cx="127.65" cy="211.92" rx="2.12" ry="1.22" transform="translate(-119.7 216.51) rotate(-60)"/>
        </g>
      </g>
      <g>
        <g>
          <ellipse class="cls-5" cx="166.73" cy="230.05" rx="10.16" ry="17.62" transform="translate(-63.6 396.38) rotate(-89.9)"/>
          <rect class="cls-5" x="149.11" y="151.75" width="35.24" height="78.3"/>
          <path class="cls-4" d="M179.21,158.93c3.43-2,5.14-4.58,5.14-7.18s-6.39-11-9.83-12.94l-16.17.45c-3.43,2-9.25,9.89-9.24,12.49s1.74,5.2,5.19,7.18C161.19,162.9,172.34,162.9,179.21,158.93Z"/>
          <path class="cls-6" d="M149.11,179.77c0,2.6,1.74,5.2,5.19,7.19,6.89,4,18,4,24.91,0,3.43-2,5.14-4.59,5.14-7.19v-6.34c0,2.6-1.71,5.2-5.14,7.19-6.87,4-18,4-24.91,0-3.45-2-5.18-4.59-5.19-7.19Z"/>
          <ellipse class="cls-2" cx="166.73" cy="142.39" rx="5.75" ry="9.97" transform="translate(24.05 308.87) rotate(-89.9)"/>
        </g>
        <g>
          <ellipse class="cls-5" cx="166.89" cy="140.92" rx="2.55" ry="4.42" transform="translate(25.69 307.56) rotate(-89.9)"/>
          <rect class="cls-5" x="162.46" y="135.81" width="8.85" height="5.11"/>
          <path class="cls-4" d="M170,137.61a2.18,2.18,0,0,0,1.29-1.8c0-.65-1.6-2.75-2.47-3.25l-4.06.11a6.62,6.62,0,0,0-2.32,3.14,2.2,2.2,0,0,0,1.3,1.8A6.91,6.91,0,0,0,170,137.61Z"/>
          <ellipse class="cls-2" cx="166.89" cy="133.46" rx="1.44" ry="2.5" transform="translate(33.14 300.12) rotate(-89.9)"/>
        </g>
      </g>
      <g>
        <g>
          <ellipse class="cls-5" cx="203.83" cy="210.29" rx="10.16" ry="17.62" transform="translate(-6.81 413.76) rotate(-89.9)"/>
          <rect class="cls-5" x="186.21" y="131.99" width="35.24" height="78.3"/>
          <path class="cls-4" d="M216.31,139.18c3.43-2,5.15-4.59,5.14-7.19s-6.39-11-9.83-12.94l-16.17.45c-3.43,2-9.25,9.89-9.24,12.49s1.74,5.2,5.19,7.19C198.29,143.15,209.45,143.15,216.31,139.18Z"/>
          <path class="cls-6" d="M221.38,160c0,2.61-1.7,5.21-5.14,7.19-6.86,4-18,4-24.91,0-3.45-2-5.18-4.58-5.19-7.19v-6.34c0,2.61,1.74,5.21,5.19,7.19,6.89,4,18,4,24.91,0,3.44-2,5.15-4.58,5.14-7.19Z"/>
          <path class="cls-6" d="M149.11,190.56c0,2.6,1.74,5.2,5.19,7.19,6.89,4,18,4,24.91,0,3.43-2,5.14-4.58,5.14-7.18v-6.34c0,2.6-1.71,5.2-5.14,7.19-6.87,4-18,4-24.91,0-3.45-2-5.18-4.59-5.19-7.19Z"/>
          <path class="cls-6" d="M221.38,170.8c0,2.6-1.7,5.2-5.14,7.19-6.86,4-18,4-24.91,0-3.45-2-5.18-4.59-5.19-7.19v-6.34c0,2.61,1.74,5.21,5.19,7.19,6.89,4,18,4,24.91,0,3.44-2,5.15-4.59,5.14-7.19Z"/>
          <ellipse class="cls-2" cx="203.83" cy="122.63" rx="5.75" ry="9.97" transform="translate(80.85 326.25) rotate(-89.9)"/>
        </g>
        <g>
          <ellipse class="cls-5" cx="203.99" cy="121.16" rx="2.55" ry="4.42" transform="translate(82.48 324.94) rotate(-89.9)"/>
          <rect class="cls-5" x="199.56" y="116.05" width="8.85" height="5.11"/>
          <path class="cls-4" d="M207.12,117.86a2.2,2.2,0,0,0,1.29-1.81c0-.65-1.6-2.75-2.47-3.24l-4.06.11a6.6,6.6,0,0,0-2.32,3.13,2.21,2.21,0,0,0,1.3,1.81A6.91,6.91,0,0,0,207.12,117.86Z"/>
          <ellipse class="cls-2" cx="203.99" cy="113.7" rx="1.44" ry="2.5" transform="translate(89.93 317.5) rotate(-89.9)"/>
        </g>
      </g>
    </g>
  </g>
</svg>
