<svg xmlns="http://www.w3.org/2000/svg" viewBox="0 0 152 152">
  <defs>
    <style>
      .cls-1 {
        fill: #d9effd;
      }

      .cls-2 {
        fill: #86b9e5;
      }

      .cls-3 {
        fill: #fff;
      }

      .cls-4 {
        fill: #6099d2;
      }

      .cls-5 {
        fill: none;
        stroke: #86b9e5;
        stroke-linecap: round;
        stroke-miterlimit: 10;
        stroke-width: 1.31px;
      }

      .cls-6 {
        fill: #d3e3f6;
      }

      .cls-7 {
        fill: #86acdc;
      }

      .cls-8 {
        fill: #e1f3fd;
      }

      .cls-9 {
        fill: #3f7dc0;
      }

      .cls-10 {
        fill: #bbd5f0;
      }
    </style>
  </defs>
  <title>Home_Contact</title>
  <g id="Contact">
    <g id="PC">
      <polygon class="cls-1" points="145.3 55.02 54.73 2.72 59.45 0 150.02 52.29 145.3 55.02"/>
      <polygon class="cls-2" points="92.55 152 1.98 99.71 1.98 94.26 92.55 146.55 92.55 152"/>
      <g>
        <polygon class="cls-2" points="145.38 116.05 54.81 63.76 54.81 2.75 145.38 55.04 145.38 116.05"/>
        <polygon class="cls-3" points="141.61 109.51 58.59 61.58 58.59 9.29 141.61 57.22 141.61 109.51"/>
        <g>
          <path class="cls-4" d="M133,63.19l-65.75-38A5.46,5.46,0,0,1,65,20.89h0c0-1.66,1-2.44,2.27-1.72l65.75,38a5.44,5.44,0,0,1,2.27,4.33h0C135.24,63.14,134.22,63.91,133,63.19Z"/>
          <ellipse class="cls-4" cx="69.27" cy="36.51" rx="3.52" ry="6.1" transform="translate(-8.97 39.53) rotate(-30)"/>
          <line class="cls-5" x1="77.29" y1="37.93" x2="109.36" y2="56.45"/>
          <line class="cls-5" x1="77.29" y1="42.76" x2="109.36" y2="61.27"/>
          <line class="cls-5" x1="77.29" y1="47.59" x2="109.36" y2="66.1"/>
          <line class="cls-5" x1="77.29" y1="52.41" x2="109.36" y2="70.92"/>
          <polygon class="cls-2" points="133.49 99.92 113.95 88.64 113.95 58.15 133.49 69.43 133.49 99.92"/>
        </g>
      </g>
      <g>
        <polygon class="cls-1" points="92.55 146.55 1.98 94.26 54.81 63.76 145.38 116.05 92.55 146.55"/>
        <path class="cls-6" d="M103.87,129.12l-71.7-41.4c-1-.6-.91-1.65.29-2.34L52.63,73.73a4.55,4.55,0,0,1,4.07-.17L128.4,115c1,.6.91,1.65-.29,2.35L107.94,129A4.52,4.52,0,0,1,103.87,129.12Z"/>
        <g>
          <polygon class="cls-3" points="88.78 118.23 56.7 99.71 60.47 97.53 92.55 116.05 88.78 118.23"/>
          <polygon class="cls-2" points="56.7 99.71 57.17 99.44 89.25 117.96 88.78 118.23 56.7 99.71"/>
          <polygon class="cls-4" points="88.78 118.23 88.31 117.96 92.08 115.78 92.55 116.05 88.78 118.23"/>
        </g>
        <g>
          <polygon class="cls-3" points="37.83 88.81 34.06 86.64 37.83 84.46 41.6 86.64 37.83 88.81"/>
          <polygon class="cls-2" points="34.06 86.64 34.53 86.36 38.3 88.54 37.83 88.81 34.06 86.64"/>
          <polygon class="cls-4" points="37.83 88.81 37.36 88.54 41.13 86.36 41.6 86.64 37.83 88.81"/>
        </g>
        <g>
          <polygon class="cls-3" points="43.49 92.08 39.72 89.9 43.49 87.72 47.27 89.9 43.49 92.08"/>
          <polygon class="cls-2" points="39.72 89.9 40.19 89.63 43.96 91.81 43.49 92.08 39.72 89.9"/>
          <polygon class="cls-4" points="43.49 92.08 43.02 91.81 46.79 89.63 47.27 89.9 43.49 92.08"/>
        </g>
        <g>
          <polygon class="cls-3" points="49.15 95.35 45.38 93.17 49.15 90.99 52.92 93.17 49.15 95.35"/>
          <polygon class="cls-2" points="45.38 93.17 45.85 92.9 49.62 95.08 49.15 95.35 45.38 93.17"/>
          <polygon class="cls-4" points="49.15 95.35 48.68 95.08 52.45 92.9 52.92 93.17 49.15 95.35"/>
        </g>
        <g>
          <polygon class="cls-3" points="54.81 98.62 51.04 96.44 54.81 94.26 58.59 96.44 54.81 98.62"/>
          <polygon class="cls-2" points="51.04 96.44 51.51 96.17 55.28 98.35 54.81 98.62 51.04 96.44"/>
          <polygon class="cls-4" points="54.81 98.62 54.34 98.35 58.11 96.17 58.59 96.44 54.81 98.62"/>
        </g>
        <g>
          <polygon class="cls-3" points="94.44 121.5 90.66 119.32 94.44 117.14 98.21 119.32 94.44 121.5"/>
          <polygon class="cls-2" points="90.66 119.32 91.14 119.05 94.91 121.22 94.44 121.5 90.66 119.32"/>
          <polygon class="cls-4" points="94.44 121.5 93.97 121.22 97.74 119.05 98.21 119.32 94.44 121.5"/>
        </g>
        <g>
          <polygon class="cls-3" points="100.1 124.77 96.33 122.59 100.1 120.41 103.87 122.59 100.1 124.77"/>
          <polygon class="cls-2" points="96.33 122.59 96.8 122.31 100.57 124.49 100.1 124.77 96.33 122.59"/>
          <polygon class="cls-4" points="100.1 124.77 99.63 124.49 103.4 122.31 103.87 122.59 100.1 124.77"/>
        </g>
        <g>
          <polygon class="cls-3" points="105.76 128.03 101.98 125.85 105.76 123.68 109.53 125.85 105.76 128.03"/>
          <polygon class="cls-2" points="101.98 125.85 102.46 125.58 106.23 127.76 105.76 128.03 101.98 125.85"/>
          <polygon class="cls-4" points="105.76 128.03 105.29 127.76 109.06 125.58 109.53 125.85 105.76 128.03"/>
        </g>
        <g>
          <polygon class="cls-3" points="100.1 118.23 96.33 116.05 100.1 113.87 103.87 116.05 100.1 118.23"/>
          <polygon class="cls-2" points="96.33 116.05 96.8 115.78 100.57 117.96 100.1 118.23 96.33 116.05"/>
          <polygon class="cls-4" points="100.1 118.23 99.63 117.96 103.4 115.78 103.87 116.05 100.1 118.23"/>
        </g>
        <g>
          <polygon class="cls-3" points="105.76 121.5 101.98 119.32 105.76 117.14 109.53 119.32 105.76 121.5"/>
          <polygon class="cls-2" points="101.98 119.32 102.46 119.05 106.23 121.22 105.76 121.5 101.98 119.32"/>
          <polygon class="cls-4" points="105.76 121.5 105.29 121.22 109.06 119.05 109.53 119.32 105.76 121.5"/>
        </g>
        <g>
          <polygon class="cls-3" points="111.42 124.77 107.65 122.59 111.42 120.41 115.19 122.59 111.42 124.77"/>
          <polygon class="cls-2" points="107.65 122.59 108.12 122.31 111.89 124.49 111.42 124.77 107.65 122.59"/>
          <polygon class="cls-4" points="111.42 124.77 110.95 124.49 114.72 122.31 115.19 122.59 111.42 124.77"/>
        </g>
        <g>
          <polygon class="cls-3" points="83.12 108.42 79.34 106.25 83.12 104.07 86.89 106.25 83.12 108.42"/>
          <polygon class="cls-2" points="79.34 106.25 79.81 105.97 83.59 108.15 83.12 108.42 79.34 106.25"/>
          <polygon class="cls-4" points="83.12 108.42 82.64 108.15 86.42 105.97 86.89 106.25 83.12 108.42"/>
        </g>
        <g>
          <polygon class="cls-3" points="88.78 111.69 85 109.51 88.78 107.33 92.55 109.51 88.78 111.69"/>
          <polygon class="cls-2" points="85 109.51 85.47 109.24 89.25 111.42 88.78 111.69 85 109.51"/>
          <polygon class="cls-4" points="88.78 111.69 88.31 111.42 92.08 109.24 92.55 109.51 88.78 111.69"/>
        </g>
        <g>
          <polygon class="cls-3" points="94.44 114.96 90.66 112.78 94.44 110.6 98.21 112.78 94.44 114.96"/>
          <polygon class="cls-2" points="90.66 112.78 91.14 112.51 94.91 114.69 94.44 114.96 90.66 112.78"/>
          <polygon class="cls-4" points="94.44 114.96 93.97 114.69 97.74 112.51 98.21 112.78 94.44 114.96"/>
        </g>
        <g>
          <polygon class="cls-3" points="66.13 98.62 62.36 96.44 66.13 94.26 69.91 96.44 66.13 98.62"/>
          <polygon class="cls-2" points="62.36 96.44 62.83 96.17 66.61 98.35 66.13 98.62 62.36 96.44"/>
          <polygon class="cls-4" points="66.13 98.62 65.66 98.35 69.44 96.17 69.91 96.44 66.13 98.62"/>
        </g>
        <g>
          <polygon class="cls-3" points="71.8 101.89 68.02 99.71 71.8 97.53 75.57 99.71 71.8 101.89"/>
          <polygon class="cls-2" points="68.02 99.71 68.49 99.44 72.27 101.61 71.8 101.89 68.02 99.71"/>
          <polygon class="cls-4" points="71.8 101.89 71.32 101.61 75.1 99.44 75.57 99.71 71.8 101.89"/>
        </g>
        <g>
          <polygon class="cls-3" points="77.45 105.16 73.68 102.98 77.45 100.8 81.23 102.98 77.45 105.16"/>
          <polygon class="cls-2" points="73.68 102.98 74.15 102.7 77.93 104.88 77.45 105.16 73.68 102.98"/>
          <polygon class="cls-4" points="77.45 105.16 76.98 104.88 80.76 102.7 81.23 102.98 77.45 105.16"/>
        </g>
        <g>
          <polygon class="cls-3" points="49.15 88.81 45.38 86.64 49.15 84.46 52.92 86.64 49.15 88.81"/>
          <polygon class="cls-2" points="45.38 86.64 45.85 86.36 49.62 88.54 49.15 88.81 45.38 86.64"/>
          <polygon class="cls-4" points="49.15 88.81 48.68 88.54 52.45 86.36 52.92 86.64 49.15 88.81"/>
        </g>
        <g>
          <polygon class="cls-3" points="43.49 85.55 39.72 83.37 43.49 81.19 47.27 83.37 43.49 85.55"/>
          <polygon class="cls-2" points="39.72 83.37 40.19 83.09 43.96 85.27 43.49 85.55 39.72 83.37"/>
          <polygon class="cls-4" points="43.49 85.55 43.02 85.27 46.79 83.09 47.27 83.37 43.49 85.55"/>
        </g>
        <g>
          <polygon class="cls-3" points="54.81 92.08 51.04 89.9 54.81 87.72 58.59 89.9 54.81 92.08"/>
          <polygon class="cls-2" points="51.04 89.9 51.51 89.63 55.28 91.81 54.81 92.08 51.04 89.9"/>
          <polygon class="cls-4" points="54.81 92.08 54.34 91.81 58.11 89.63 58.59 89.9 54.81 92.08"/>
        </g>
        <g>
          <polygon class="cls-3" points="60.47 95.35 56.7 93.17 60.47 90.99 64.25 93.17 60.47 95.35"/>
          <polygon class="cls-2" points="56.7 93.17 57.17 92.9 60.95 95.08 60.47 95.35 56.7 93.17"/>
          <polygon class="cls-4" points="60.47 95.35 60 95.08 63.77 92.9 64.25 93.17 60.47 95.35"/>
        </g>
        <g>
          <polygon class="cls-3" points="105.76 114.96 101.98 112.78 105.76 110.6 109.53 112.78 105.76 114.96"/>
          <polygon class="cls-2" points="101.98 112.78 102.46 112.51 106.23 114.69 105.76 114.96 101.98 112.78"/>
          <polygon class="cls-4" points="105.76 114.96 105.29 114.69 109.06 112.51 109.53 112.78 105.76 114.96"/>
        </g>
        <g>
          <polygon class="cls-3" points="111.42 118.23 107.65 116.05 111.42 113.87 115.19 116.05 111.42 118.23"/>
          <polygon class="cls-2" points="107.65 116.05 108.12 115.78 111.89 117.96 111.42 118.23 107.65 116.05"/>
          <polygon class="cls-4" points="111.42 118.23 110.95 117.96 114.72 115.78 115.19 116.05 111.42 118.23"/>
        </g>
        <g>
          <polygon class="cls-3" points="117.08 121.5 113.31 119.32 117.08 117.14 120.86 119.32 117.08 121.5"/>
          <polygon class="cls-2" points="113.31 119.32 113.78 119.05 117.55 121.22 117.08 121.5 113.31 119.32"/>
          <polygon class="cls-4" points="117.08 121.5 116.61 121.22 120.38 119.05 120.86 119.32 117.08 121.5"/>
        </g>
        <g>
          <polygon class="cls-3" points="88.78 105.16 85 102.98 88.78 100.8 92.55 102.98 88.78 105.16"/>
          <polygon class="cls-2" points="85 102.98 85.47 102.7 89.25 104.88 88.78 105.16 85 102.98"/>
          <polygon class="cls-4" points="88.78 105.16 88.31 104.88 92.08 102.7 92.55 102.98 88.78 105.16"/>
        </g>
        <g>
          <polygon class="cls-3" points="94.44 108.42 90.66 106.25 94.44 104.07 98.21 106.25 94.44 108.42"/>
          <polygon class="cls-2" points="90.66 106.25 91.14 105.97 94.91 108.15 94.44 108.42 90.66 106.25"/>
          <polygon class="cls-4" points="94.44 108.42 93.97 108.15 97.74 105.97 98.21 106.25 94.44 108.42"/>
        </g>
        <g>
          <polygon class="cls-3" points="100.1 111.69 96.33 109.51 100.1 107.33 103.87 109.51 100.1 111.69"/>
          <polygon class="cls-2" points="96.33 109.51 96.8 109.24 100.57 111.42 100.1 111.69 96.33 109.51"/>
          <polygon class="cls-4" points="100.1 111.69 99.63 111.42 103.4 109.24 103.87 109.51 100.1 111.69"/>
        </g>
        <g>
          <polygon class="cls-3" points="71.8 95.35 68.02 93.17 71.8 90.99 75.57 93.17 71.8 95.35"/>
          <polygon class="cls-2" points="68.02 93.17 68.49 92.9 72.27 95.08 71.8 95.35 68.02 93.17"/>
          <polygon class="cls-4" points="71.8 95.35 71.32 95.08 75.1 92.9 75.57 93.17 71.8 95.35"/>
        </g>
        <g>
          <polygon class="cls-3" points="77.45 98.62 73.68 96.44 77.45 94.26 81.23 96.44 77.45 98.62"/>
          <polygon class="cls-2" points="73.68 96.44 74.15 96.17 77.93 98.35 77.45 98.62 73.68 96.44"/>
          <polygon class="cls-4" points="77.45 98.62 76.98 98.35 80.76 96.17 81.23 96.44 77.45 98.62"/>
        </g>
        <g>
          <polygon class="cls-3" points="83.12 101.89 79.34 99.71 83.12 97.53 86.89 99.71 83.12 101.89"/>
          <polygon class="cls-2" points="79.34 99.71 79.81 99.44 83.59 101.61 83.12 101.89 79.34 99.71"/>
          <polygon class="cls-4" points="83.12 101.89 82.64 101.61 86.42 99.44 86.89 99.71 83.12 101.89"/>
        </g>
        <g>
          <polygon class="cls-3" points="54.81 85.55 51.04 83.37 54.81 81.19 58.59 83.37 54.81 85.55"/>
          <polygon class="cls-2" points="51.04 83.37 51.51 83.09 55.28 85.27 54.81 85.55 51.04 83.37"/>
          <polygon class="cls-4" points="54.81 85.55 54.34 85.27 58.11 83.09 58.59 83.37 54.81 85.55"/>
        </g>
        <g>
          <polygon class="cls-3" points="49.15 82.28 45.38 80.1 49.15 77.92 52.92 80.1 49.15 82.28"/>
          <polygon class="cls-2" points="45.38 80.1 45.85 79.83 49.62 82.01 49.15 82.28 45.38 80.1"/>
          <polygon class="cls-4" points="49.15 82.28 48.68 82.01 52.45 79.83 52.92 80.1 49.15 82.28"/>
        </g>
        <g>
          <polygon class="cls-3" points="60.47 88.81 56.7 86.64 60.47 84.46 64.25 86.64 60.47 88.81"/>
          <polygon class="cls-2" points="56.7 86.64 57.17 86.36 60.95 88.54 60.47 88.81 56.7 86.64"/>
          <polygon class="cls-4" points="60.47 88.81 60 88.54 63.77 86.36 64.25 86.64 60.47 88.81"/>
        </g>
        <g>
          <polygon class="cls-3" points="66.13 92.08 62.36 89.9 66.13 87.72 69.91 89.9 66.13 92.08"/>
          <polygon class="cls-2" points="62.36 89.9 62.83 89.63 66.61 91.81 66.13 92.08 62.36 89.9"/>
          <polygon class="cls-4" points="66.13 92.08 65.66 91.81 69.44 89.63 69.91 89.9 66.13 92.08"/>
        </g>
        <g>
          <polygon class="cls-3" points="111.42 111.69 107.65 109.51 111.42 107.33 115.19 109.51 111.42 111.69"/>
          <polygon class="cls-2" points="107.65 109.51 108.12 109.24 111.89 111.42 111.42 111.69 107.65 109.51"/>
          <polygon class="cls-4" points="111.42 111.69 110.95 111.42 114.72 109.24 115.19 109.51 111.42 111.69"/>
        </g>
        <g>
          <polygon class="cls-3" points="117.08 114.96 113.31 112.78 117.08 110.6 120.86 112.78 117.08 114.96"/>
          <polygon class="cls-2" points="113.31 112.78 113.78 112.51 117.55 114.69 117.08 114.96 113.31 112.78"/>
          <polygon class="cls-4" points="117.08 114.96 116.61 114.69 120.38 112.51 120.86 112.78 117.08 114.96"/>
        </g>
        <g>
          <polygon class="cls-3" points="122.74 118.23 118.97 116.05 122.74 113.87 126.52 116.05 122.74 118.23"/>
          <polygon class="cls-2" points="118.97 116.05 119.44 115.78 123.21 117.96 122.74 118.23 118.97 116.05"/>
          <polygon class="cls-4" points="122.74 118.23 122.27 117.96 126.04 115.78 126.52 116.05 122.74 118.23"/>
        </g>
        <g>
          <polygon class="cls-3" points="94.44 101.89 90.66 99.71 94.44 97.53 98.21 99.71 94.44 101.89"/>
          <polygon class="cls-2" points="90.66 99.71 91.14 99.44 94.91 101.61 94.44 101.89 90.66 99.71"/>
          <polygon class="cls-4" points="94.44 101.89 93.97 101.61 97.74 99.44 98.21 99.71 94.44 101.89"/>
        </g>
        <g>
          <polygon class="cls-3" points="100.1 105.16 96.33 102.98 100.1 100.8 103.87 102.98 100.1 105.16"/>
          <polygon class="cls-2" points="96.33 102.98 96.8 102.7 100.57 104.88 100.1 105.16 96.33 102.98"/>
          <polygon class="cls-4" points="100.1 105.16 99.63 104.88 103.4 102.7 103.87 102.98 100.1 105.16"/>
        </g>
        <g>
          <polygon class="cls-3" points="105.76 108.42 101.98 106.25 105.76 104.07 109.53 106.25 105.76 108.42"/>
          <polygon class="cls-2" points="101.98 106.25 102.46 105.97 106.23 108.15 105.76 108.42 101.98 106.25"/>
          <polygon class="cls-4" points="105.76 108.42 105.29 108.15 109.06 105.97 109.53 106.25 105.76 108.42"/>
        </g>
        <g>
          <polygon class="cls-3" points="77.45 92.08 73.68 89.9 77.45 87.72 81.23 89.9 77.45 92.08"/>
          <polygon class="cls-2" points="73.68 89.9 74.15 89.63 77.93 91.81 77.45 92.08 73.68 89.9"/>
          <polygon class="cls-4" points="77.45 92.08 76.98 91.81 80.76 89.63 81.23 89.9 77.45 92.08"/>
        </g>
        <g>
          <polygon class="cls-3" points="83.12 95.35 79.34 93.17 83.12 90.99 86.89 93.17 83.12 95.35"/>
          <polygon class="cls-2" points="79.34 93.17 79.81 92.9 83.59 95.08 83.12 95.35 79.34 93.17"/>
          <polygon class="cls-4" points="83.12 95.35 82.64 95.08 86.42 92.9 86.89 93.17 83.12 95.35"/>
        </g>
        <g>
          <polygon class="cls-3" points="88.78 98.62 85 96.44 88.78 94.26 92.55 96.44 88.78 98.62"/>
          <polygon class="cls-2" points="85 96.44 85.47 96.17 89.25 98.35 88.78 98.62 85 96.44"/>
          <polygon class="cls-4" points="88.78 98.62 88.31 98.35 92.08 96.17 92.55 96.44 88.78 98.62"/>
        </g>
        <g>
          <polygon class="cls-3" points="60.47 82.28 56.7 80.1 60.47 77.92 64.25 80.1 60.47 82.28"/>
          <polygon class="cls-2" points="56.7 80.1 57.17 79.83 60.95 82.01 60.47 82.28 56.7 80.1"/>
          <polygon class="cls-4" points="60.47 82.28 60 82.01 63.77 79.83 64.25 80.1 60.47 82.28"/>
        </g>
        <g>
          <polygon class="cls-3" points="54.81 79.01 51.04 76.83 54.81 74.65 58.59 76.83 54.81 79.01"/>
          <polygon class="cls-2" points="51.04 76.83 51.51 76.56 55.28 78.74 54.81 79.01 51.04 76.83"/>
          <polygon class="cls-4" points="54.81 79.01 54.34 78.74 58.11 76.56 58.59 76.83 54.81 79.01"/>
        </g>
        <g>
          <polygon class="cls-3" points="66.13 85.55 62.36 83.37 66.13 81.19 69.91 83.37 66.13 85.55"/>
          <polygon class="cls-2" points="62.36 83.37 62.83 83.09 66.61 85.27 66.13 85.55 62.36 83.37"/>
          <polygon class="cls-4" points="66.13 85.55 65.66 85.27 69.44 83.09 69.91 83.37 66.13 85.55"/>
        </g>
        <g>
          <polygon class="cls-3" points="71.8 88.81 68.02 86.64 71.8 84.46 75.57 86.64 71.8 88.81"/>
          <polygon class="cls-2" points="68.02 86.64 68.49 86.36 72.27 88.54 71.8 88.81 68.02 86.64"/>
          <polygon class="cls-4" points="71.8 88.81 71.32 88.54 75.1 86.36 75.57 86.64 71.8 88.81"/>
        </g>
        <ellipse class="cls-7" cx="130.29" cy="111.69" rx="2.67" ry="1.54"/>
        <ellipse class="cls-7" cx="124.63" cy="108.42" rx="1.33" ry="0.77"/>
        <ellipse class="cls-7" cx="120.85" cy="106.25" rx="1.33" ry="0.77"/>
        <ellipse class="cls-8" cx="130.29" cy="111.69" rx="1.33" ry="0.77"/>
        <path class="cls-4" d="M60.94,124,41.13,112.51c-1-.6-.91-1.65.29-2.35l8.85-5.11a4.55,4.55,0,0,1,4.07-.17l19.81,11.44c1,.6.91,1.65-.29,2.35L65,123.78A4.55,4.55,0,0,1,60.94,124Z"/>
        <path class="cls-3" d="M60.89,123.72,41.3,112.41c-1-.6-.91-1.65.29-2.34l8.68-5a4.55,4.55,0,0,1,4.07-.17l19.59,11.31c1,.6.91,1.66-.29,2.35l-8.69,5A4.49,4.49,0,0,1,60.89,123.72Z"/>
      </g>
      <g>
        <polygon class="cls-9" points="145.38 116.05 145.38 121.5 92.55 152 92.55 146.55 145.38 116.05"/>
        <path class="cls-10" d="M124.63,130.76h0c0-.3-.25-.41-.55-.23l-23.44,13.53a1.12,1.12,0,0,0-.54.86h0c0,.3.24.4.54.23l23.44-13.53A1.15,1.15,0,0,0,124.63,130.76Z"/>
        <ellipse class="cls-10" cx="129.35" cy="128.03" rx="0.67" ry="0.39" transform="translate(-46.21 176.03) rotate(-60)"/>
        <ellipse class="cls-10" cx="131.7" cy="126.67" rx="0.67" ry="0.39" transform="translate(-43.85 177.4) rotate(-60)"/>
      </g>
      <path class="cls-9" d="M145.3,121.54h0a9.51,9.51,0,0,0,4.7-7.92V52.32L145.3,55Z"/>
    </g>
  </g>
</svg>
