<svg xmlns="http://www.w3.org/2000/svg" xmlns:xlink="http://www.w3.org/1999/xlink" viewBox="0 0 152 152">
  <defs>
    <style>
      .cls-1 {
        fill: #6099d2;
      }

      .cls-1, .cls-10, .cls-11, .cls-2, .cls-3, .cls-4, .cls-5, .cls-6, .cls-7, .cls-8, .cls-9 {
        fill-rule: evenodd;
      }

      .cls-2 {
        fill: #d9effd;
      }

      .cls-3 {
        fill: #86b9e5;
      }

      .cls-4 {
        fill: #3f7dc0;
      }

      .cls-5 {
        fill: #bbe3f8;
      }

      .cls-6 {
        fill: #758446;
      }

      .cls-7 {
        fill: #115c94;
      }

      .cls-8 {
        fill: url(#GradientFill_7);
      }

      .cls-9 {
        fill: url(#GradientFill_7-2);
      }

      .cls-10 {
        fill: #c8d86b;
      }

      .cls-11 {
        fill: #2a75b8;
      }
    </style>
    <linearGradient id="GradientFill_7" data-name="GradientFill 7" x1="20.29" y1="96.79" x2="22.8" y2="91.15" gradientUnits="userSpaceOnUse">
      <stop offset="0" stop-color="#f9f5ef"/>
      <stop offset="1" stop-color="#d9cbb8"/>
    </linearGradient>
    <linearGradient id="GradientFill_7-2" x1="24.92" y1="99.47" x2="27.43" y2="93.82" xlink:href="#GradientFill_7"/>
  </defs>
  <title>Home_Societe</title>
  <g id="Contact">
    <g>
      <polygon class="cls-1" points="152 52.8 79.56 94.62 0 48.69 72.44 6.87 152 52.8"/>
      <polygon class="cls-2" points="0 48.69 79.56 94.62 79.56 145.13 0 99.2 0 48.69"/>
      <polygon class="cls-3" points="0 48.69 79.56 94.62 79.56 114.86 0 68.93 0 48.69"/>
      <polygon class="cls-1" points="152 52.8 79.56 94.63 79.56 145.13 152 103.31 152 52.8"/>
      <polygon class="cls-3" points="0 78.91 79.56 124.84 79.56 135.15 0 89.22 0 78.91"/>
      <polygon class="cls-4" points="152 83.02 79.56 124.84 79.56 135.15 152 93.32 152 83.02"/>
      <polygon class="cls-4" points="152 52.8 79.56 94.62 79.56 114.86 152 73.03 152 52.8"/>
      <g>
        <polygon class="cls-3" points="144.62 52.8 72.44 11.13 7.38 48.69 79.56 90.36 144.62 52.8"/>
        <polygon class="cls-4" points="144.62 52.8 72.44 11.13 7.38 48.69 8.86 49.54 73.52 12.21 144.22 53.03 144.62 52.8"/>
        <polygon class="cls-5" points="143.68 53.34 72.44 12.21 72.44 11.13 144.62 52.8 143.68 53.34"/>
        <polygon class="cls-6" points="72.98 12.52 72.44 12.21 72.44 11.13 72.98 12.52"/>
      </g>
      <path class="cls-7" d="M22.65,110.35,18.43,108V97.53l4.22,2.33v10.49ZM27.28,113l-4.22-2.25V100.28l4.22,2.25Z"/>
      <polygon class="cls-1" points="14.05 106.28 32.03 116.66 26.82 119.67 8.83 109.29 14.05 106.28"/>
      <polygon class="cls-3" points="8.83 109.29 26.82 119.67 26.82 120.71 8.83 110.33 8.83 109.29"/>
      <polygon class="cls-4" points="32.03 116.66 26.82 119.67 26.82 120.71 32.03 117.7 32.03 116.66"/>
      <polygon class="cls-8" points="23.43 97.98 18.02 94.86 17.29 95.28 22.7 98.4 23.43 97.98"/>
      <polygon class="cls-1" points="21.92 109.92 18.8 108.12 18.07 108.55 21.92 110.77 21.92 109.92"/>
      <polygon class="cls-4" points="18.8 97.05 18.8 108.12 18.07 108.55 18.07 96.62 18.8 97.05"/>
      <polygon class="cls-4" points="28.06 100.65 28.06 114.36 27.33 114.79 27.33 101.07 28.06 100.65"/>
      <polygon class="cls-9" points="28.06 100.65 22.66 97.53 21.92 97.95 27.33 101.07 28.06 100.65"/>
      <polygon class="cls-1" points="26.55 112.6 23.43 110.8 22.7 111.22 26.55 113.44 26.55 112.6"/>
      <polygon class="cls-4" points="23.43 99.72 23.43 110.8 22.7 111.22 22.7 99.3 23.43 99.72"/>
      <path class="cls-3" d="M26.55,114.34l.78.45V101.07L22.7,98.4,21.92,98l-4.63-2.67V109l.78.45h0l8.48,4.9Zm-3.85-3.12V99.29l3.85,2.23v11.93l-3.85-2.23Zm-4.63-2.67V96.62l3.85,2.23v11.92Z"/>
      <polygon class="cls-1" points="11.28 88.2 34.8 101.78 30.59 104.21 7.06 90.63 11.28 88.2"/>
      <polygon class="cls-3" points="7.06 90.63 30.59 104.21 30.59 105.25 7.06 91.67 7.06 90.63"/>
      <polygon class="cls-4" points="34.8 101.78 30.59 104.21 30.59 105.25 34.8 102.81 34.8 101.78"/>
      <g>
        <path class="cls-7" d="M29.22,74.82l-8.13-4.63v2.36l8.13,4.63V74.82Zm-8.74-5L12.14,65v2.3l8.34,4.82v-2.3Zm-8.74-5.19L3.4,59.9v2.44l8.34,4.75Z"/>
        <path class="cls-2" d="M2.3,63.36V58.6l27,15.56v4.76L2.3,63.36ZM28.49,74.6l-8-4.61v3l8,4.61v-3Zm-8.74-5-8-4.6v3l8,4.61v-3Zm-8.74-5L3.06,59.92v3l8,4.59Z"/>
        <polygon class="cls-4" points="29.98 73.74 29.98 78.5 29.25 78.92 29.25 74.16 29.98 73.74"/>
        <g>
          <polygon class="cls-1" points="28.49 76.76 21.24 72.58 20.51 73 28.49 77.61 28.49 76.76"/>
          <polygon class="cls-4" points="21.24 70.42 21.24 72.58 20.51 73 20.51 69.99 21.24 70.42"/>
        </g>
        <g>
          <polygon class="cls-1" points="19.75 71.71 12.5 67.53 11.77 67.95 19.75 72.56 19.75 71.71"/>
          <polygon class="cls-4" points="12.51 65.37 12.51 67.53 11.77 67.95 11.77 64.95 12.51 65.37"/>
        </g>
        <g>
          <polygon class="cls-1" points="11.01 66.67 3.77 62.48 3.03 62.91 11.01 67.52 11.01 66.67"/>
          <polygon class="cls-4" points="3.77 60.33 3.77 62.48 3.03 62.91 3.03 59.9 3.77 60.33"/>
        </g>
        <polygon class="cls-1" points="29.98 73.74 3.03 58.18 2.3 58.6 29.25 74.16 29.98 73.74"/>
      </g>
      <g>
        <path class="cls-7" d="M75.49,101.9l-8.14-4.63v2.36l8.14,4.64V101.9Zm-8.74-5L58.4,92.1v2.3l8.35,4.82v-2.3ZM58,91.73,49.66,87v2.44L58,94.17Z"/>
        <path class="cls-2" d="M48.56,90.45V85.68l27,15.56V106L48.56,90.45Zm26.19,11.23-8-4.6v3l8,4.61v-3Zm-8.74-5L58,92v3l8,4.6v-3Zm-8.74-5-8-4.59v3l8,4.59Z"/>
        <polygon class="cls-4" points="76.25 100.82 76.25 105.58 75.51 106.01 75.51 101.24 76.25 100.82"/>
        <g>
          <polygon class="cls-1" points="74.75 103.84 67.51 99.66 66.78 100.08 74.75 104.69 74.75 103.84"/>
          <polygon class="cls-4" points="67.51 97.5 67.51 99.66 66.78 100.08 66.78 97.08 67.51 97.5"/>
        </g>
        <g>
          <polygon class="cls-1" points="66.01 98.8 58.77 94.61 58.04 95.04 66.01 99.64 66.01 98.8"/>
          <polygon class="cls-4" points="58.77 92.45 58.77 94.61 58.04 95.04 58.03 92.03 58.77 92.45"/>
        </g>
        <g>
          <polygon class="cls-1" points="57.27 93.75 50.03 89.57 49.3 89.99 57.27 94.6 57.27 93.75"/>
          <polygon class="cls-4" points="50.03 87.41 50.03 89.57 49.3 89.99 49.3 86.98 50.03 87.41"/>
        </g>
        <polygon class="cls-1" points="76.25 100.82 49.3 85.26 48.56 85.68 75.51 101.24 76.25 100.82"/>
      </g>
      <g>
        <g>
          <g>
            <polygon class="cls-7" points="82.35 79.14 82.35 82.42 82.19 82.51 82.19 79.46 82.35 79.14"/>
            <polygon class="cls-7" points="81.85 79.05 81.85 82.32 82.19 82.51 82.19 79.46 81.85 79.05"/>
          </g>
          <g>
            <polygon class="cls-7" points="79.51 80.79 79.51 84.06 79.34 84.16 79.34 81.1 79.51 80.79"/>
            <polygon class="cls-7" points="79.01 80.69 79.01 83.96 79.34 84.16 79.34 81.1 79.01 80.69"/>
          </g>
          <polygon class="cls-4" points="77.62 85.23 83.27 78.2 83.42 78.42 77.77 85.44 77.62 85.23"/>
          <polygon class="cls-3" points="73.28 82.72 77.62 85.23 77.77 85.44 73.43 82.94 73.28 82.72"/>
          <polygon class="cls-2" points="77.62 85.23 83.27 78.2 78.93 75.7 73.28 82.72 77.62 85.23"/>
          <path class="cls-4" d="M79,76.12l.73.42-.55.69-.74-.42.56-.69Zm.79.46-.55.69.7.4.55-.68-.7-.41Zm.77.44.7.41-.55.68-.7-.4.55-.69Zm.76.44-.55.69.7.4c.19-.22.37-.45.55-.68l-.7-.41Zm.77.45.73.42-.55.68-.73-.42c.18-.23.36-.46.55-.68Zm.13,1.17-.74-.42-.52.65.73.43.53-.66Zm-.58.72-.53.66L80.35,80l.52-.65.74.42Zm-.58.72-.74-.42c-.17.22-.34.44-.52.65l.73.43.53-.66Zm-.58.72-.53.66-.73-.43c.18-.21.35-.43.53-.65l.73.42Zm-.58.72-.73-.42c-.18.22-.35.44-.53.65l.74.43.52-.66Zm-.58.72-.52.66L78,82.91c.18-.21.35-.43.53-.65l.73.42Zm-.58.72L78,83c-.18.22-.35.44-.53.65l.74.43.52-.66Zm-.58.72-.55.69-.73-.42.55-.69.73.42Zm-1.35.23.56-.69-.7-.4-.56.69.7.4ZM76,83.91l-.7-.41.55-.68.7.4-.55.69Zm-.77-.44.56-.69-.7-.4-.56.68.7.41ZM74.49,83l-.73-.43.55-.68.73.42-.55.69Zm-.13-1.18.74.42.52-.65-.73-.42c-.18.21-.35.43-.53.65Zm.58-.72.53-.65.73.42-.53.65-.73-.42Zm.58-.72.73.42.53-.65L76,79.76l-.52.65Zm.58-.72.52-.66.74.43-.53.65-.73-.42Zm.58-.72.73.42.53-.65-.74-.43-.52.66Zm.58-.72.52-.66.73.43-.52.65-.73-.42Zm.58-.72.73.42.52-.65-.73-.43-.52.66Zm1.32-.2.7.41-.53.65-.7-.4.53-.66Zm-.58.72-.53.66.7.4.53-.65-.7-.41Zm-.58.73.7.4-.52.65-.7-.4.52-.65Zm-.58.72-.52.65.7.4.52-.65-.7-.4Zm-.58.72.7.4-.52.65-.7-.4.52-.65Zm-.58.72-.52.65.7.4.52-.65-.7-.4Zm-.58.72.7.4-.52.65-.7-.4.52-.65Zm4.24-3.88-.52.65.7.4.52-.65-.7-.4Zm-.58.72.7.4-.52.65-.7-.4.52-.65Zm-.58.72-.52.65.7.4c.18-.21.35-.43.53-.65l-.71-.4Zm-.57.72.7.4c-.18.22-.35.44-.53.65l-.7-.4c.18-.22.35-.44.53-.65Zm-.58.72-.53.65.7.4c.18-.21.35-.43.53-.65l-.7-.4Zm-.58.72.7.4c-.18.22-.35.44-.53.65l-.7-.4.53-.65Zm-.58.72-.53.65.71.4.52-.65-.7-.4Zm4.24-3.88.7.4c-.18.22-.35.44-.53.65l-.7-.4.53-.65Zm-.58.72-.53.65.7.4c.18-.21.35-.43.53-.65l-.7-.4Zm-.58.72.7.4-.52.66-.7-.41.52-.65Zm-.58.72-.52.65.7.41.52-.66-.7-.4Zm-.58.72.7.4-.52.66-.7-.41.52-.65Zm-.58.72-.52.65.7.41.52-.66-.7-.4Zm-.58.72.7.4-.52.66-.7-.41Z"/>
        </g>
        <g>
          <g>
            <polygon class="cls-7" points="76.03 75.62 76.03 78.89 75.87 78.99 75.87 75.94 76.03 75.62"/>
            <polygon class="cls-7" points="75.53 75.52 75.53 78.8 75.87 78.99 75.87 75.94 75.53 75.52"/>
          </g>
          <g>
            <polygon class="cls-7" points="73.19 77.26 73.19 80.53 73.02 80.63 73.02 77.58 73.19 77.26"/>
            <polygon class="cls-7" points="72.69 77.16 72.69 80.44 73.02 80.63 73.02 77.58 72.69 77.16"/>
          </g>
          <polygon class="cls-4" points="71.3 81.71 76.95 74.68 77.1 74.89 71.45 81.92 71.3 81.71"/>
          <polygon class="cls-3" points="66.96 79.2 71.3 81.71 71.45 81.92 67.11 79.41 66.96 79.2"/>
          <polygon class="cls-2" points="71.3 81.71 76.95 74.68 72.61 72.17 66.96 79.2 71.3 81.71"/>
          <path class="cls-4" d="M72.65,72.59l.73.43-.55.68-.74-.42.56-.69Zm.79.46-.55.69.7.4c.19-.22.37-.45.55-.68l-.7-.41Zm.77.45.7.4-.55.69-.7-.41.55-.68Zm.76.44c-.18.23-.36.46-.55.68l.7.41.55-.69-.7-.4Zm.77.44.73.42-.55.69-.73-.42.55-.69Zm.13,1.18-.74-.43-.52.66.73.42c.18-.22.35-.44.53-.65Zm-.58.72-.53.65L74,76.51l.52-.66.74.43Zm-.58.72L74,76.57l-.52.66.73.42.53-.65Zm-.58.72-.53.65L72.87,78l.53-.66.73.43Zm-.58.72L72.82,78l-.53.66.74.42.52-.65Zm-.58.72-.52.65-.74-.42.53-.66.73.43Zm-.58.72-.73-.42c-.18.21-.35.43-.53.65l.74.42.52-.65Zm-.58.72-.55.69-.73-.43.55-.68.73.42Zm-1.35.22c.19-.22.37-.45.55-.68l-.7-.41-.55.69.7.4Zm-.76-.44L69,80l.55-.69.7.41-.55.68Zm-.77-.44.55-.69-.7-.4-.55.69.7.4Zm-.76-.44-.74-.42.56-.69.73.42-.55.69ZM68,78.32l.73.42c.18-.21.35-.43.53-.65l-.73-.42-.53.65Zm.58-.72.52-.65.74.42c-.18.22-.35.44-.53.65l-.73-.42Zm.58-.72.73.42c.18-.21.35-.43.53-.65l-.74-.42-.52.65Zm.58-.72.52-.65.74.42c-.18.22-.35.44-.53.65l-.73-.42Zm.58-.72.73.42.52-.65-.73-.42-.52.65Zm.58-.72.52-.65.73.42-.52.65-.73-.42Zm.58-.72.73.42.52-.65L72,73.35l-.52.65Zm1.32-.19.7.4c-.18.22-.35.44-.53.65l-.7-.4.53-.65Zm-.58.72-.53.65.7.41.53-.66-.7-.4Zm-.58.72.7.4-.52.66-.7-.41.52-.65ZM71.1,76l-.52.65.7.41.52-.66-.7-.4Zm-.58.72.7.4-.52.66-.7-.41.52-.65Zm-.58.72-.52.65.7.41.52-.66-.7-.4Zm-.58.72.7.4-.52.66-.7-.41.52-.65Zm4.24-3.88-.52.65.7.41.52-.66-.7-.4ZM73,75l.7.4L73.2,76l-.7-.41L73,75Zm-.58.72-.52.65.7.41.52-.66-.7-.4Zm-.57.72.7.41c-.18.21-.35.43-.53.65l-.7-.41c.18-.21.35-.43.53-.65Zm-.58.72c-.18.22-.35.44-.53.65l.7.41c.18-.22.35-.44.53-.65l-.7-.41Zm-.58.72.7.41c-.18.21-.35.43-.53.65l-.7-.41c.18-.21.35-.43.53-.65Zm-.58.72c-.18.22-.35.44-.53.65l.7.41c.18-.22.35-.44.53-.65l-.7-.41Zm4.24-3.88.7.41c-.18.21-.35.43-.53.65l-.7-.41c.18-.21.35-.43.53-.65Zm-.58.72c-.18.22-.35.44-.53.65l.7.41c.18-.22.35-.44.53-.65l-.7-.41Zm-.58.72.7.41c-.18.21-.35.43-.52.65l-.7-.41.52-.65Zm-.58.72-.52.65.7.41.52-.65-.7-.41Zm-.58.72.7.41-.52.65-.7-.4.52-.66Zm-.58.72L71,79l.7.4.52-.65-.7-.41Zm-.58.72.7.41-.52.65-.7-.4Z"/>
        </g>
        <g>
          <g>
            <polygon class="cls-7" points="69.7 71.84 69.7 75.11 69.53 75.21 69.53 72.15 69.7 71.84"/>
            <polygon class="cls-7" points="69.2 71.74 69.2 75.01 69.53 75.21 69.53 72.15 69.2 71.74"/>
          </g>
          <g>
            <polygon class="cls-7" points="66.85 73.48 66.85 76.75 66.69 76.85 66.69 73.8 66.85 73.48"/>
            <polygon class="cls-7" points="66.35 73.38 66.35 76.66 66.69 76.85 66.69 73.8 66.35 73.38"/>
          </g>
          <polygon class="cls-4" points="64.96 77.92 70.61 70.9 70.76 71.11 65.11 78.13 64.96 77.92"/>
          <polygon class="cls-3" points="60.62 75.42 64.96 77.92 65.11 78.13 60.77 75.63 60.62 75.42"/>
          <polygon class="cls-2" points="64.96 77.92 70.61 70.9 66.27 68.39 60.62 75.42 64.96 77.92"/>
          <path class="cls-4" d="M66.31,68.81l.73.43-.55.68-.73-.42.55-.69Zm.8.46-.55.69.7.4.55-.68-.7-.41Zm.76.45.7.4-.55.69-.7-.41.55-.68Zm.77.44-.55.68.7.41.55-.69-.7-.4Zm.76.44.74.42-.56.69-.73-.43.55-.68Zm.13,1.18-.73-.43c-.18.22-.35.44-.53.65l.74.43c.17-.22.34-.44.52-.65ZM69,72.5l-.52.65-.74-.43c.18-.21.35-.43.53-.65l.73.43Zm-.58.72-.73-.43-.53.66.74.42.52-.65Zm-.58.72-.52.65-.74-.42.53-.66.73.43Zm-.58.72-.73-.43-.52.66.73.42.52-.65Zm-.58.72-.52.65-.73-.42L65.9,75l.73.43Zm-.57.72-.74-.43-.52.66.73.42.53-.65Zm-.58.72c-.19.23-.37.46-.56.68l-.73-.42.55-.69.74.43ZM64.13,77l.55-.68L64,76l-.55.69.7.4Zm-.77-.44-.7-.4.55-.69.7.41-.55.68Zm-.76-.44.55-.69-.7-.4-.55.69.7.4Zm-.77-.44-.73-.43.55-.68.73.42-.55.69Zm-.13-1.18.74.42.52-.65-.73-.42-.53.65Zm.58-.72.53-.65.73.42-.52.65-.74-.42Zm.58-.72.74.42.52-.65-.73-.42-.53.65Zm.58-.72.53-.65.73.42-.52.65-.74-.42Zm.58-.72.73.42.53-.65L64.54,71l-.52.65Zm.58-.72.52-.65.74.42-.53.65-.73-.42Zm.58-.72.73.42.53-.65-.74-.42-.52.65ZM66.5,70l.7.4-.52.65-.7-.4L66.5,70Zm-.58.72-.52.65.7.4.52-.65-.7-.4Zm-.58.72.7.4-.52.65-.7-.4.52-.65Zm-.58.72-.52.65.7.4.52-.65-.7-.4Zm-.57.72.7.4c-.18.22-.35.44-.53.65l-.7-.4.53-.65Zm-.58.72-.53.65.7.41.53-.66-.7-.4Zm-.58.72.7.4-.53.66L62.5,75l.53-.65Zm4.24-3.88-.53.65.7.41.53-.66-.7-.4Zm-.58.72.7.4-.53.66-.7-.41.53-.65Zm-.58.72-.53.65.7.41.53-.66-.7-.4Zm-.58.72.7.4-.52.66L65,73.28l.53-.65Zm-.58.72-.52.65.7.41.52-.66-.7-.4Zm-.58.72.7.4-.52.66-.7-.41.52-.65Zm-.58.72-.52.65.7.41.52-.65-.7-.41ZM68,70.91l.7.4-.52.66-.7-.41.52-.65Zm-.58.72-.52.65.7.41.52-.65-.7-.41Zm-.58.72.7.41-.52.65-.7-.41.52-.65Zm-.58.72-.52.65.7.41.52-.65-.7-.41Zm-.57.72.7.41c-.18.21-.35.43-.53.65l-.7-.41c.18-.21.35-.43.53-.65Zm-.58.72c-.18.22-.35.44-.53.65l.7.41c.18-.22.35-.44.53-.65l-.7-.41Zm-.58.72.7.41c-.18.21-.35.43-.53.65l-.7-.41C64.21,75.67,64.38,75.45,64.56,75.23Z"/>
        </g>
        <g>
          <g>
            <polygon class="cls-7" points="63.38 68.23 63.38 71.51 63.21 71.6 63.21 68.55 63.38 68.23"/>
            <polygon class="cls-7" points="62.88 68.14 62.88 71.41 63.21 71.6 63.21 68.55 62.88 68.14"/>
          </g>
          <g>
            <polygon class="cls-7" points="60.53 69.88 60.53 73.15 60.37 73.25 60.37 70.19 60.53 69.88"/>
            <polygon class="cls-7" points="60.03 69.78 60.03 73.05 60.37 73.25 60.37 70.19 60.03 69.78"/>
          </g>
          <polygon class="cls-4" points="58.64 74.32 64.29 67.3 64.44 67.5 58.79 74.53 58.64 74.32"/>
          <polygon class="cls-3" points="54.3 71.81 58.64 74.32 58.79 74.53 54.45 72.03 54.3 71.81"/>
          <polygon class="cls-2" points="58.64 74.32 64.29 67.3 59.95 64.79 54.3 71.81 58.64 74.32"/>
          <path class="cls-4" d="M60,65.21l.73.42-.55.69-.73-.42.55-.69Zm.8.46-.55.69.7.4c.18-.23.36-.46.55-.68l-.7-.41Zm.76.44.7.41-.55.68-.7-.4.55-.69Zm.77.44-.55.69.7.4L63,67l-.7-.41Zm.76.45.73.42-.55.69-.73-.43.55-.68Zm.13,1.17-.73-.42c-.18.22-.35.44-.53.65l.73.43.53-.66Zm-.58.72-.52.66-.74-.43c.18-.21.35-.43.53-.65l.73.42Zm-.58.72-.73-.42c-.18.22-.35.44-.53.65l.74.43.52-.66Zm-.58.72L61,71l-.74-.43c.18-.21.35-.43.53-.65l.73.42Zm-.58.72-.73-.42-.52.65.73.43.52-.66Zm-.58.72-.52.66L59.06,72l.52-.65.73.42Zm-.58.72L59,72.07l-.52.65.73.43.52-.66Zm-.57.73c-.19.22-.37.45-.56.68l-.73-.42.55-.69.74.43Zm-1.35.22.55-.69-.7-.4-.55.69.7.4ZM57,73l-.7-.4.55-.69.7.4L57,73Zm-.76-.44.55-.69-.7-.4-.55.68.7.41Zm-.77-.44-.73-.43.55-.68.73.42-.55.69Zm-.13-1.18.74.42.52-.65-.73-.42c-.18.21-.35.43-.53.65Zm.58-.72.53-.65.73.42-.52.65L56,70.22Zm.58-.72.74.42.52-.65-.73-.42c-.18.21-.35.43-.53.65Zm.58-.72c.18-.22.35-.44.53-.65l.73.42-.53.65-.73-.42Zm.58-.72.73.42.53-.65-.74-.43-.52.66Zm.58-.72.52-.66.74.43-.53.65-.73-.42Zm.58-.72.73.42.53-.65L59.38,66l-.52.66Zm1.32-.2.7.41-.52.65-.7-.4.52-.66Zm-.58.73-.52.65.7.4.52-.65-.7-.4Zm-.58.72.7.4-.52.65-.7-.4.52-.65Zm-.58.72-.52.65.7.4.52-.65-.7-.4Zm-.58.72.7.4c-.17.22-.34.44-.52.65l-.7-.4.52-.65Zm-.57.72c-.18.21-.35.43-.53.65l.7.4c.18-.21.35-.43.53-.65l-.7-.4Zm-.58.72.7.4c-.18.22-.35.44-.53.65l-.7-.4c.18-.22.35-.44.53-.65ZM61,66.87c-.18.21-.35.43-.53.65l.7.4c.18-.21.35-.43.53-.65l-.7-.4Zm-.58.72.7.4c-.18.22-.35.44-.53.65l-.7-.4c.18-.22.35-.44.53-.65Zm-.58.72-.53.65.7.4c.18-.21.35-.43.53-.65l-.7-.4Zm-.58.72.7.4c-.18.22-.35.44-.53.65l-.7-.4.53-.65Zm-.58.72-.52.65.7.4.52-.65-.7-.4Zm-.58.72.7.4-.52.65-.7-.4.52-.65Zm-.58.72-.52.65.7.4.52-.65-.7-.4Zm4.24-3.88.7.4-.52.65-.7-.4.52-.65Zm-.58.72-.52.65.7.41.52-.66-.7-.4Zm-.58.72.7.4-.52.66L60,69.4l.52-.65Zm-.58.72-.52.65.7.41.52-.66-.7-.4Zm-.58.72.7.4-.52.66-.7-.41.52-.65Zm-.57.72-.53.65L59,72l.53-.66-.7-.4Zm-.58.72.7.4-.53.66-.7-.41C57.89,72.07,58.06,71.85,58.24,71.63Z"/>
        </g>
        <g>
          <g>
            <polygon class="cls-7" points="57.1 64.57 57.1 67.84 56.94 67.94 56.94 64.88 57.1 64.57"/>
            <polygon class="cls-7" points="56.6 64.47 56.6 67.74 56.94 67.94 56.94 64.88 56.6 64.47"/>
          </g>
          <g>
            <polygon class="cls-7" points="54.26 66.21 54.26 69.48 54.09 69.58 54.09 66.53 54.26 66.21"/>
            <polygon class="cls-7" points="53.76 66.11 53.76 69.39 54.09 69.58 54.09 66.53 53.76 66.11"/>
          </g>
          <polygon class="cls-4" points="52.37 70.65 58.02 63.63 58.17 63.84 52.52 70.86 52.37 70.65"/>
          <polygon class="cls-3" points="48.03 68.15 52.37 70.65 52.52 70.86 48.18 68.36 48.03 68.15"/>
          <polygon class="cls-2" points="52.37 70.65 58.02 63.63 53.68 61.12 48.03 68.15 52.37 70.65"/>
          <path class="cls-4" d="M53.72,61.54l.73.43-.55.68-.73-.42.55-.69Zm.79.46-.55.69.7.4.55-.68-.7-.41Zm.77.44.7.41-.55.68-.7-.4.55-.69Zm.76.45-.55.68.7.41.55-.69-.7-.4Zm.77.44.73.42-.55.69L56.26,64l.55-.68Zm.13,1.18-.74-.43-.52.65.73.43c.18-.22.35-.44.53-.65Zm-.58.72-.53.65-.73-.43.52-.65.74.43Zm-.58.72-.73-.43c-.18.22-.35.44-.53.65l.73.43c.18-.22.35-.44.53-.65Zm-.58.72c-.18.21-.35.43-.52.65l-.74-.42.53-.66.73.43Zm-.58.72L53.89,67l-.53.66.74.42.52-.65Zm-.58.72-.52.65-.74-.42.53-.66.73.43Zm-.58.72-.73-.43-.52.66.73.42.52-.65Zm-.58.72c-.18.23-.36.46-.55.68l-.73-.42.55-.69.73.43Zm-1.35.22.56-.68-.7-.41-.56.69.7.4Zm-.76-.44-.7-.4.55-.69.7.4-.55.69ZM50,68.89l.56-.69-.7-.4-.56.69.7.4Zm-.76-.44L48.51,68l.55-.68.73.42-.55.69Zm-.13-1.18.74.42.52-.65-.73-.42-.53.65Zm.58-.72.53-.65.73.42-.52.65-.74-.42Zm.58-.72.73.42c.18-.21.35-.43.53-.65l-.74-.42-.52.65Zm.58-.72.52-.65.74.42c-.18.22-.35.44-.53.65l-.73-.42Zm.58-.72.73.42.53-.65L52,63.74l-.52.65Zm.58-.72.52-.65.74.42-.53.65L52,63.67Zm.58-.72.73.42.52-.65-.73-.42-.52.65Zm1.32-.19.7.4c-.18.22-.35.44-.53.65l-.7-.4c.18-.22.35-.44.53-.65Zm-.58.72c-.18.21-.35.43-.52.65l.7.4.52-.65-.7-.4Zm-.58.72.7.4-.52.65-.7-.4.52-.65Zm-.58.72-.52.65.7.4.52-.65-.7-.4Zm-.58.72.7.4-.52.65-.7-.4.52-.65Zm-.58.72-.52.65.7.4.52-.65-.7-.4Zm-.58.72.7.4c-.17.22-.34.44-.52.65l-.7-.4.52-.65Zm4.24-3.88-.52.65.7.41.52-.66-.7-.4Zm-.58.72.71.4-.53.66-.7-.41.52-.65Zm-.57.72-.53.65.7.41.53-.66-.7-.4Zm-.58.72.7.4-.53.66-.7-.41.53-.65Zm-.58.72-.53.65.7.41.53-.66-.7-.4Zm-.58.72.7.4-.52.66-.71-.41c.18-.21.35-.43.53-.65Zm-.58.72-.52.65.7.41.52-.66-.7-.4Zm4.24-3.88.7.4-.53.66-.7-.41c.18-.21.35-.43.53-.65Zm-.58.72-.52.65.7.41.52-.66-.7-.4Zm-.58.72.7.41-.52.65-.7-.41.52-.65Zm-.58.72-.52.65.7.41.52-.65-.7-.41Zm-.58.72.7.41-.52.65-.7-.41.52-.65Zm-.58.72-.52.65.7.41.52-.65-.7-.41ZM52,68l.7.41-.52.65-.7-.41C51.62,68.4,51.79,68.18,52,68Z"/>
        </g>
        <g>
          <g>
            <polygon class="cls-7" points="50.7 60.77 50.7 64.04 50.53 64.14 50.53 61.09 50.7 60.77"/>
            <polygon class="cls-7" points="50.2 60.67 50.2 63.95 50.53 64.14 50.53 61.09 50.2 60.67"/>
          </g>
          <g>
            <polygon class="cls-7" points="47.86 62.41 47.86 65.69 47.69 65.78 47.69 62.73 47.86 62.41"/>
            <polygon class="cls-7" points="47.36 62.32 47.36 65.59 47.69 65.78 47.69 62.73 47.36 62.32"/>
          </g>
          <polygon class="cls-4" points="45.97 66.86 51.62 59.83 51.77 60.04 46.12 67.07 45.97 66.86"/>
          <polygon class="cls-3" points="41.63 64.35 45.97 66.86 46.12 67.07 41.77 64.56 41.63 64.35"/>
          <polygon class="cls-2" points="45.97 66.86 51.62 59.83 47.27 57.32 41.63 64.35 45.97 66.86"/>
          <path class="cls-4" d="M47.31,57.75l.74.42-.55.68-.74-.42.55-.68Zm.8.46-.55.68.7.41.55-.69-.7-.4Zm.77.44.7.4-.55.69-.71-.41c.19-.22.37-.45.56-.68Zm.76.44-.55.69.7.4.55-.69-.7-.4Zm.77.44.73.42-.55.69-.73-.42.55-.69Zm.12,1.18-.73-.42-.52.65.73.42.52-.65Zm-.58.72-.52.65-.73-.42.52-.65.73.42Zm-.57.72-.74-.42-.52.65.73.42.53-.65Zm-.58.72-.53.65-.73-.42.52-.65.74.42Zm-.58.72-.74-.42-.52.65.73.42.53-.65Zm-.58.72-.53.65-.73-.42c.18-.22.35-.44.53-.65l.73.42Zm-.58.72-.73-.42-.53.65.74.42.52-.65Zm-.58.72-.55.69L45.2,66l.55-.68.73.42ZM45.13,66l.55-.69-.7-.4-.55.68.7.41Zm-.76-.45-.7-.4.55-.69.7.41-.55.68Zm-.77-.44.55-.68-.7-.41-.55.69.7.4Zm-.76-.44-.74-.42.55-.69.74.42-.55.69Zm-.13-1.18.73.43.53-.66-.74-.42-.52.65Zm.58-.72.52-.65.74.42-.53.66-.73-.43Zm.58-.72.73.43.53-.66-.74-.42-.52.65Zm.58-.72.52-.65.73.42-.52.66-.73-.43Zm.58-.72.73.43.52-.66-.73-.42-.52.65Zm.57-.72.53-.65.73.42-.52.66-.74-.43Zm.58-.72.74.42.52-.65-.73-.42-.53.65ZM47.51,59l.7.4-.53.66-.7-.41c.18-.21.35-.43.53-.65Zm-.58.72c-.18.22-.35.44-.53.65l.7.41.53-.66-.7-.4Zm-.58.72.7.41c-.18.21-.35.43-.53.65l-.7-.41c.18-.21.35-.43.53-.65Zm-.58.72c-.18.22-.35.44-.53.65l.7.41c.18-.22.35-.44.53-.65l-.7-.41Zm-.58.72.7.41c-.18.21-.35.43-.52.65l-.7-.41.52-.65Zm-.58.72-.52.65.7.41.52-.65-.7-.41Zm-.58.72.7.41-.52.65-.7-.41.52-.65Zm4.24-3.88-.52.65.7.41.52-.65-.7-.41Zm-.58.72.7.41-.52.65-.7-.41.52-.65Zm-.58.72-.52.65.7.41.52-.65-.7-.41Zm-.58.72.7.41-.52.65-.7-.41.52-.65Zm-.58.72-.52.66.7.4.53-.65L46,62.28Zm-.57.72.7.41-.53.65-.7-.4.53-.66Zm-.58.72-.53.66.7.4.53-.65-.7-.41ZM49,59.84l.7.41-.53.65-.7-.4.53-.66Zm-.58.72-.53.66.7.4.53-.65-.7-.41Zm-.58.72.7.41-.53.65-.7-.4.53-.66ZM47.3,62l-.53.66.7.4.53-.65L47.3,62Zm-.58.72.7.41-.52.65-.7-.4.52-.66Zm-.58.73-.52.65.7.4.52-.65-.7-.4Zm-.58.72.7.4-.52.65-.7-.4Z"/>
        </g>
      </g>
      <g>
        <g>
          <g>
            <polygon class="cls-7" points="91.13 72.26 91.13 75.54 90.97 75.63 90.97 72.58 91.13 72.26"/>
            <polygon class="cls-7" points="90.63 72.17 90.63 75.44 90.97 75.63 90.97 72.58 90.63 72.17"/>
          </g>
          <g>
            <polygon class="cls-7" points="88.29 73.91 88.29 77.18 88.12 77.28 88.12 74.22 88.29 73.91"/>
            <polygon class="cls-7" points="87.79 73.81 87.79 77.08 88.12 77.28 88.12 74.22 87.79 73.81"/>
          </g>
          <polygon class="cls-4" points="86.4 78.35 92.05 71.32 92.2 71.53 86.55 78.56 86.4 78.35"/>
          <polygon class="cls-3" points="82.06 75.84 86.4 78.35 86.55 78.56 82.21 76.05 82.06 75.84"/>
          <polygon class="cls-2" points="86.4 78.35 92.05 71.32 87.71 68.82 82.06 75.84 86.4 78.35"/>
          <path class="cls-4" d="M87.74,69.24l.74.42-.55.69-.74-.43c.19-.22.37-.45.55-.68Zm.8.46-.55.69.7.4.55-.69-.7-.4Zm.77.44.7.41c-.19.22-.37.45-.55.68l-.7-.4.55-.69Zm.76.44-.55.69.7.4.55-.68-.7-.41Zm.77.44.73.43-.55.68-.73-.42.55-.69ZM91,72.2l-.73-.42-.52.65.73.42c.18-.21.35-.43.52-.65Zm-.57.72-.53.65-.73-.42.52-.65.74.42Zm-.58.72-.74-.42-.52.65.73.42c.18-.21.35-.43.53-.65Zm-.58.72L88.7,75,88,74.59l.52-.65.74.42Zm-.58.72-.73-.42-.53.65.73.43.53-.66Zm-.58.72-.52.66L86.81,76c.18-.21.35-.43.53-.65l.73.42Zm-.58.72-.73-.42c-.18.22-.35.44-.53.65l.74.43.52-.66Zm-.58.72-.55.69-.73-.42.55-.69.73.42Zm-1.35.23.55-.69-.7-.4-.55.69.7.4ZM84.8,77l-.7-.41.55-.68.7.4L84.8,77ZM84,76.59l.55-.69-.7-.4-.55.68.7.41Zm-.76-.45-.74-.42.56-.69.73.43-.55.68ZM83.14,75l.73.42.53-.65-.74-.43-.52.66Zm.58-.72.52-.66L85,74l-.53.65-.73-.42Zm.58-.72L85,74l.53-.65-.74-.43-.52.66Zm.58-.72.52-.66.74.43-.53.65-.73-.42Zm.58-.72.73.42.52-.65L86,71.43l-.52.66Zm.58-.72.52-.66.73.43-.52.65L86,71.37Zm.57-.72.74.42.52-.65L87.14,70l-.53.66Zm1.33-.2.7.41-.53.65-.7-.4.53-.66Zm-.58.72-.53.66.7.4.53-.65-.7-.41Zm-.58.72.7.41L87,73l-.7-.4.53-.66Zm-.58.72-.52.66.7.4L86.9,73l-.7-.41Zm-.58.72.7.41-.52.65-.7-.4.52-.66Zm-.58.72-.52.66.7.4.52-.65-.7-.41Zm-.58.73.7.4-.52.65-.7-.4.52-.65ZM88.7,70.9l-.52.65.7.4.52-.65-.7-.4Zm-.58.72.7.4-.52.65-.7-.4.52-.65Zm-.58.72L87,73l.7.4.52-.65-.7-.4Zm-.58.72.71.4c-.18.22-.35.44-.53.65l-.7-.4.52-.65Zm-.57.72c-.18.21-.35.43-.53.65l.7.4c.18-.21.35-.43.53-.65l-.7-.4Zm-.58.72.7.4c-.18.22-.35.44-.53.65l-.7-.4c.18-.22.35-.44.53-.65Zm-.58.72c-.18.21-.35.43-.53.65l.7.4c.18-.21.35-.43.53-.65l-.7-.4Zm4.24-3.88.7.4c-.18.22-.35.44-.53.65l-.7-.4c.18-.22.35-.44.53-.65Zm-.58.72-.53.65.7.4c.18-.21.35-.43.53-.65l-.7-.4Zm-.58.72.7.4c-.18.22-.35.44-.53.65l-.7-.4.53-.65Zm-.58.72-.52.65.7.4.52-.65-.7-.4Zm-.58.72.7.4-.52.65-.7-.4.52-.65Zm-.58.72-.52.65.7.4.52-.65-.7-.4Zm-.58.72.7.4-.52.66-.7-.41Z"/>
        </g>
        <g>
          <g>
            <polygon class="cls-7" points="84.81 68.74 84.81 72.01 84.64 72.11 84.64 69.05 84.81 68.74"/>
            <polygon class="cls-7" points="84.31 68.64 84.31 71.91 84.64 72.11 84.64 69.05 84.31 68.64"/>
          </g>
          <g>
            <polygon class="cls-7" points="81.97 70.38 81.97 73.65 81.8 73.75 81.8 70.7 81.97 70.38"/>
            <polygon class="cls-7" points="81.47 70.28 81.47 73.56 81.8 73.75 81.8 70.7 81.47 70.28"/>
          </g>
          <polygon class="cls-4" points="80.08 74.83 85.73 67.8 85.88 68.01 80.23 75.03 80.08 74.83"/>
          <polygon class="cls-3" points="75.74 72.32 80.08 74.83 80.23 75.03 75.89 72.53 75.74 72.32"/>
          <polygon class="cls-2" points="80.08 74.83 85.73 67.8 81.39 65.29 75.74 72.32 80.08 74.83"/>
          <path class="cls-4" d="M81.42,65.71l.74.43-.55.68-.74-.42.55-.69Zm.8.46-.55.69.7.4.55-.68-.7-.41Zm.77.45.7.4-.55.69-.7-.41c.18-.23.36-.46.55-.68Zm.76.44-.55.68.7.41.55-.69-.7-.4Zm.77.44.73.42-.55.69L84,68.18l.55-.68Zm.12,1.18-.73-.43-.52.65.73.43.52-.65Zm-.57.72-.53.65-.73-.43.52-.65.74.43Zm-.58.72-.74-.43-.52.66.73.42c.18-.22.35-.44.53-.65Zm-.58.72c-.18.21-.35.43-.53.65l-.73-.42.52-.66.74.43Zm-.58.72-.74-.43-.52.66.73.42c.18-.22.35-.44.53-.65Zm-.58.72c-.18.21-.35.43-.52.65l-.74-.42.53-.66.73.43Zm-.58.72-.73-.43-.53.66.74.42.52-.65Zm-.58.72L80,74.4,79.31,74l.55-.69.73.43Zm-1.35.22c.19-.22.37-.45.55-.68l-.7-.41-.55.69.7.4Zm-.76-.44-.7-.4.55-.69.7.41-.55.68Zm-.77-.44.55-.69-.7-.4-.55.69.7.4ZM77,72.62l-.74-.42.56-.69.73.42-.55.69Zm-.13-1.18.73.42c.18-.21.35-.43.53-.65l-.74-.42-.52.65Zm.58-.72.52-.65.74.42c-.18.22-.35.44-.53.65l-.73-.42ZM78,70l.73.42c.18-.21.35-.43.53-.65l-.74-.42L78,70Zm.58-.72.52-.65.73.42-.52.65-.73-.42Zm.58-.72.73.42.52-.65-.73-.42c-.18.21-.35.43-.52.65Zm.57-.72c.18-.22.35-.44.53-.65l.73.42-.52.65-.74-.42Zm.58-.72.74.42.52-.65-.73-.42c-.18.21-.35.43-.53.65Zm1.33-.19.7.4c-.18.22-.35.44-.53.65l-.7-.4.53-.65Zm-.58.72-.53.65.7.4c.18-.21.35-.43.53-.65l-.7-.4Zm-.58.72.7.4c-.18.22-.35.44-.53.65l-.7-.4.53-.65Zm-.58.72-.52.65.69.4c.18-.21.35-.43.53-.65l-.7-.4Zm-.58.72.7.4-.52.65-.7-.4.52-.65Zm-.58.72-.52.65.7.41.52-.66-.7-.4Zm-.58.72.7.4-.52.66-.7-.41.52-.65Zm4.24-3.88-.52.65.7.41.52-.66-.7-.4Zm-.58.72.7.4-.52.66-.7-.41.52-.65Zm-.58.72-.52.65.7.41.52-.66-.7-.4Zm-.58.72.7.4-.52.66-.7-.41.52-.65Zm-.58.72c-.17.22-.34.44-.52.65l.7.41.53-.66-.71-.4Zm-.57.72.7.4-.53.66-.7-.41c.18-.21.35-.43.53-.65Zm-.58.72c-.18.22-.35.44-.53.65l.7.41c.18-.22.35-.44.53-.65l-.7-.41Zm4.24-3.88.7.4-.53.66-.7-.41c.18-.21.35-.43.53-.65Zm-.58.72c-.18.22-.35.44-.53.65l.7.41c.18-.22.35-.44.53-.65l-.7-.41Zm-.58.72.7.41c-.18.21-.35.43-.53.65l-.7-.41c.18-.21.35-.43.53-.65Zm-.58.72-.52.65.7.41c.17-.22.34-.44.52-.65l-.7-.41Zm-.58.72.7.41-.52.65-.7-.41.52-.65Zm-.58.72-.52.65.7.41.52-.65-.7-.41Zm-.58.72.7.41-.52.65-.7-.41Z"/>
        </g>
        <g>
          <g>
            <polygon class="cls-7" points="78.47 64.96 78.47 68.23 78.31 68.33 78.31 65.27 78.47 64.96"/>
            <polygon class="cls-7" points="77.98 64.86 77.98 68.13 78.31 68.33 78.31 65.27 77.98 64.86"/>
          </g>
          <g>
            <polygon class="cls-7" points="75.63 66.6 75.63 69.87 75.46 69.97 75.46 66.92 75.63 66.6"/>
            <polygon class="cls-7" points="75.13 66.5 75.13 69.78 75.46 69.97 75.46 66.92 75.13 66.5"/>
          </g>
          <polygon class="cls-4" points="73.74 71.04 79.39 64.02 79.54 64.23 73.89 71.25 73.74 71.04"/>
          <polygon class="cls-3" points="69.4 68.54 73.74 71.04 73.89 71.25 69.55 68.75 69.4 68.54"/>
          <polygon class="cls-2" points="73.74 71.04 79.39 64.02 75.05 61.51 69.4 68.54 73.74 71.04"/>
          <path class="cls-4" d="M75.09,61.93l.73.42-.55.69-.73-.42.55-.69Zm.8.46-.56.69.7.4.56-.68-.7-.41Zm.76.44.7.41-.55.68-.7-.4.55-.69Zm.77.45c-.19.22-.37.45-.56.68l.7.41.56-.69-.7-.4Zm.76.44.73.42-.55.69-.73-.43.55-.68Zm.13,1.17-.74-.42-.52.65.73.43.53-.66Zm-.58.72-.53.66-.73-.43c.18-.21.35-.43.53-.65l.73.42Zm-.58.73-.73-.43c-.18.22-.35.44-.53.65l.74.43c.17-.22.34-.44.52-.65Zm-.58.72-.52.65-.74-.43c.18-.21.35-.43.53-.65l.73.43Zm-.58.72-.73-.43c-.18.22-.35.44-.53.65l.74.43.52-.65Zm-.58.72-.52.65-.73-.43.52-.65.73.43Zm-.58.72-.73-.43-.52.66.73.42.52-.65Zm-.58.72-.55.68L73,70.2l.55-.69.73.43Zm-1.34.22.55-.68-.7-.41-.55.69.7.4Zm-.77-.44-.7-.4.55-.69.7.4-.55.69Zm-.77-.44.56-.69-.7-.4c-.19.23-.37.46-.56.68l.7.41Zm-.76-.44-.73-.43.55-.68.73.42-.55.69Zm-.13-1.18.74.42.52-.65L71,67l-.53.65Zm.58-.72.53-.65.73.42-.52.65-.74-.42Zm.58-.72.73.42L72.9,66l-.73-.42c-.18.21-.35.43-.53.65Zm.58-.72.52-.65.74.42-.53.65-.73-.42Zm.58-.72.73.42.53-.65-.74-.42-.52.65Zm.58-.72.52-.65.74.42-.53.65-.73-.42Zm.58-.72.73.42.52-.65-.73-.42-.52.65Zm1.32-.19.7.4-.52.65-.7-.4c.17-.22.34-.44.52-.65Zm-.58.72-.52.65.7.4.52-.65-.7-.4Zm-.58.72.7.4-.52.65-.7-.4.52-.65Zm-.58.72L73,66l.7.4.52-.65-.7-.4ZM73,66l.7.4-.52.65-.7-.4L73,66Zm-.58.72-.52.65.7.4c.18-.21.35-.43.52-.65l-.7-.4Zm-.57.72.7.4c-.18.22-.35.44-.53.65l-.7-.4.53-.65ZM76,63.59l-.52.65.7.4c.18-.21.35-.43.53-.65l-.71-.4Zm-.57.72.7.4c-.18.22-.35.44-.53.65l-.7-.4.53-.65Zm-.58.72-.53.65.7.41.53-.66-.7-.4Zm-.58.72.7.4-.53.66-.7-.41.53-.65Zm-.58.72-.53.65.7.41.53-.66-.7-.4Zm-.58.72.7.4-.52.66-.7-.41.52-.65Zm-.58.72-.52.65.7.41.52-.66-.7-.4ZM76.81,64l.7.4-.52.66-.7-.41.52-.65Zm-.58.72-.52.65.7.41.52-.66-.7-.4Zm-.58.72.7.4-.52.66-.7-.41.52-.65Zm-.58.72-.52.65.7.41.52-.66-.7-.4Zm-.58.72.7.41-.52.65-.7-.41.52-.65Zm-.58.72c-.17.22-.34.44-.52.65l.7.41.52-.65-.7-.41Zm-.57.72.7.41c-.18.21-.35.43-.53.65l-.7-.41C73,68.79,73.16,68.57,73.34,68.35Z"/>
        </g>
        <g>
          <g>
            <polygon class="cls-7" points="72.16 61.35 72.16 64.63 71.99 64.72 71.99 61.67 72.16 61.35"/>
            <polygon class="cls-7" points="71.66 61.26 71.66 64.53 71.99 64.72 71.99 61.67 71.66 61.26"/>
          </g>
          <g>
            <polygon class="cls-7" points="69.31 63 69.31 66.27 69.14 66.37 69.14 63.31 69.31 63"/>
            <polygon class="cls-7" points="68.81 62.9 68.81 66.17 69.14 66.37 69.14 63.31 68.81 62.9"/>
          </g>
          <polygon class="cls-4" points="67.42 67.44 73.07 60.41 73.22 60.62 67.57 67.65 67.42 67.44"/>
          <polygon class="cls-3" points="63.08 64.93 67.42 67.44 67.57 67.65 63.23 65.14 63.08 64.93"/>
          <polygon class="cls-2" points="67.42 67.44 73.07 60.41 68.73 57.91 63.08 64.93 67.42 67.44"/>
          <path class="cls-4" d="M68.77,58.33l.73.42-.55.69L68.22,59l.55-.69Zm.8.46-.56.69.7.4.56-.69-.7-.4Zm.76.44.7.41-.55.68-.7-.4.55-.69Zm.77.44-.56.69.7.4c.19-.22.37-.45.56-.68l-.7-.41Zm.76.45.73.42c-.18.23-.36.46-.55.68l-.73-.42.55-.68ZM72,61.29l-.74-.42-.52.65.73.42c.18-.21.35-.43.53-.65Zm-.58.72-.53.65-.73-.42.53-.65.73.42Zm-.58.72-.73-.42-.53.65.74.43.52-.66Zm-.58.72-.52.66L69,63.68l.53-.65.73.42Zm-.58.72-.73-.42c-.18.22-.35.44-.53.65l.74.43.52-.66Zm-.58.72-.52.66-.74-.43c.18-.21.35-.43.53-.65l.73.42Zm-.58.72-.73-.42-.52.65.73.43.52-.66Zm-.58.72-.55.69-.73-.42.55-.69.73.42Zm-1.35.23.56-.69-.7-.4-.56.69.7.4Zm-.76-.44-.7-.41.55-.68.7.4-.55.69Zm-.77-.44.56-.69-.7-.4c-.19.22-.37.45-.56.68l.7.41Zm-.76-.45-.73-.42c.18-.23.36-.46.55-.68l.73.42-.55.68Zm-.13-1.17.74.42.52-.65-.73-.43-.53.66Zm.58-.72.53-.66.73.43-.52.65-.74-.42Zm.58-.72.73.42.53-.65L65.85,62l-.53.66Zm.58-.72.52-.66.74.43-.53.65-.73-.42Zm.58-.72.73.42.53-.65L67,60.52l-.52.66Zm.58-.72.52-.66.74.43c-.18.21-.35.43-.53.65l-.73-.42Zm.58-.72.73.42.52-.65-.73-.43-.52.66Zm1.32-.2.7.41-.52.65-.7-.4.52-.66Zm-.58.72-.52.66.7.4.52-.65-.7-.41ZM67.8,61l.7.41L68,62l-.7-.4L67.8,61Zm-.58.72-.52.66.7.4.52-.65-.7-.41Zm-.58.72.7.41-.52.65-.7-.4.52-.66Zm-.58.73-.52.65.7.4.52-.65-.7-.4Zm-.57.72.7.4-.53.65-.7-.4c.18-.22.35-.44.53-.65ZM69.72,60l-.52.65.7.4c.18-.21.35-.43.52-.65l-.7-.4Zm-.58.72.71.4c-.18.22-.35.44-.53.65l-.7-.4.52-.65Zm-.57.72c-.18.21-.35.43-.53.65l.7.4c.18-.21.35-.43.53-.65l-.7-.4Zm-.58.72.7.4c-.18.22-.35.44-.53.65l-.7-.4c.18-.22.35-.44.53-.65Zm-.58.72c-.18.21-.35.43-.53.65l.7.4c.18-.21.35-.43.53-.65l-.7-.4Zm-.58.72.7.4-.52.65-.71-.4c.18-.22.35-.44.53-.65Zm-.58.72-.52.65.7.4.52-.65-.7-.4Zm4.24-3.88.7.4-.52.65-.7-.4.52-.65Zm-.58.72-.52.65.7.4.52-.65-.7-.4Zm-.58.72.7.4-.52.65-.7-.4.52-.65Zm-.58.72-.52.65.7.4.52-.65-.7-.4Zm-.58.72.7.4-.52.65-.7-.4.52-.65Zm-.58.72-.52.65.7.41.52-.66-.7-.4Zm-.57.72.7.4-.53.66-.7-.41Z"/>
        </g>
        <g>
          <g>
            <polygon class="cls-7" points="65.88 57.69 65.88 60.96 65.72 61.05 65.72 58 65.88 57.69"/>
            <polygon class="cls-7" points="65.38 57.59 65.38 60.86 65.72 61.05 65.72 58 65.38 57.59"/>
          </g>
          <g>
            <polygon class="cls-7" points="63.04 59.33 63.04 62.6 62.87 62.7 62.87 59.65 63.04 59.33"/>
            <polygon class="cls-7" points="62.54 59.23 62.54 62.51 62.87 62.7 62.87 59.65 62.54 59.23"/>
          </g>
          <polygon class="cls-4" points="61.15 63.77 66.8 56.75 66.95 56.96 61.3 63.98 61.15 63.77"/>
          <polygon class="cls-3" points="56.81 61.27 61.15 63.77 61.3 63.98 56.96 61.48 56.81 61.27"/>
          <polygon class="cls-2" points="61.15 63.77 66.8 56.75 62.46 54.24 56.81 61.27 61.15 63.77"/>
          <path class="cls-4" d="M62.5,54.66l.73.42-.55.69-.74-.42.56-.69Zm.79.46-.55.69.7.4.55-.68-.7-.41Zm.77.44.7.41-.55.68-.7-.4.55-.69Zm.76.45-.55.68.7.41.55-.69-.7-.4Zm.77.44.73.42-.55.69L65,57.13l.55-.68Zm.13,1.17L65,57.2l-.52.65.73.43.53-.66Zm-.58.72-.53.66-.73-.43.52-.65.74.42Zm-.58.72-.74-.42-.52.65.73.43.53-.66Zm-.58.73c-.18.21-.35.43-.53.65L62.72,60c.18-.21.35-.43.53-.65l.73.43Zm-.58.72-.73-.43c-.18.22-.35.44-.53.65l.74.43c.17-.22.34-.44.52-.65Zm-.58.72-.52.65-.74-.43c.18-.21.35-.43.53-.65l.73.43Zm-.58.72-.73-.43c-.18.22-.35.44-.53.65l.74.43.52-.65Zm-.58.72-.55.68-.73-.42.55-.69.73.43Zm-1.35.22.55-.68-.7-.41-.55.69.7.4Zm-.76-.44-.7-.4.55-.69.7.4-.55.69ZM58.78,62l.55-.69-.7-.4c-.18.23-.36.46-.55.68l.7.41ZM58,61.57l-.74-.43c.19-.22.37-.45.56-.68l.73.42-.55.69Zm-.13-1.18.73.42c.18-.21.35-.43.53-.65l-.73-.42c-.18.21-.35.43-.53.65Zm.58-.72L59,59l.74.42-.53.65-.73-.42Zm.58-.72.73.42.53-.65-.74-.42-.52.65Zm.58-.72.52-.65.74.42-.53.65-.73-.42Zm.58-.72.73.42.52-.65-.73-.42-.52.65Zm.58-.72.52-.65.73.42-.52.65-.73-.42Zm.58-.72.73.42.52-.65-.73-.42c-.18.21-.35.43-.52.65Zm1.32-.19.7.4c-.18.22-.35.44-.53.65l-.7-.4c.18-.22.35-.44.53-.65Zm-.58.72c-.18.21-.35.43-.53.65l.7.4c.18-.21.35-.43.53-.65l-.7-.4Zm-.58.72.7.4-.52.65L61,58c.17-.22.34-.44.52-.65ZM61,58l-.52.65.7.4.52-.65L61,58Zm-.58.72.7.4-.52.65-.7-.4.52-.65Zm-.58.72-.52.65.7.4.52-.65-.7-.4Zm-.58.72.7.4-.52.65-.7-.4.52-.65Zm4.24-3.88-.52.65.7.4.52-.65-.7-.4Zm-.58.72.7.4-.52.65-.7-.4.52-.65Zm-.58.72-.52.65.7.4.52-.65-.7-.4Zm-.57.72.7.4-.53.66-.7-.41.53-.65Zm-.58.72-.53.65.7.41.53-.66-.7-.4Zm-.58.72.7.4-.53.66-.7-.41.53-.65Zm-.58.72-.53.65.7.41.53-.66-.7-.4Zm4.24-3.88.7.4-.53.66-.7-.41.53-.65Zm-.58.72-.53.65.7.41.53-.66-.7-.4Zm-.58.72.7.4-.52.66-.7-.41.52-.65Zm-.58.72-.52.65.7.41.52-.66-.7-.4Zm-.58.72.7.41-.52.65-.7-.41.52-.65Zm-.58.72L60.8,61l.7.41.52-.65-.7-.41Zm-.58.72.7.41-.52.65-.7-.41Z"/>
        </g>
        <g>
          <g>
            <polygon class="cls-7" points="59.48 53.89 59.48 57.16 59.31 57.26 59.31 54.21 59.48 53.89"/>
            <polygon class="cls-7" points="58.98 53.79 58.98 57.07 59.31 57.26 59.31 54.21 58.98 53.79"/>
          </g>
          <g>
            <polygon class="cls-7" points="56.63 55.53 56.63 58.8 56.47 58.9 56.47 55.85 56.63 55.53"/>
            <polygon class="cls-7" points="56.13 55.44 56.13 58.71 56.47 58.9 56.47 55.85 56.13 55.44"/>
          </g>
          <polygon class="cls-4" points="54.75 59.98 60.4 52.95 60.54 53.16 54.9 60.19 54.75 59.98"/>
          <polygon class="cls-3" points="50.41 57.47 54.75 59.98 54.9 60.19 50.55 57.68 50.41 57.47"/>
          <polygon class="cls-2" points="54.75 59.98 60.4 52.95 56.05 50.44 50.41 57.47 54.75 59.98"/>
          <path class="cls-4" d="M56.09,50.86l.74.43-.56.68-.73-.42.55-.69Zm.8.47-.55.68.7.41.55-.69-.7-.4Zm.76.44.71.4-.56.69-.7-.41.55-.68Zm.77.44-.55.68.7.41.55-.69-.7-.4Zm.76.44.74.42-.55.69-.74-.42.55-.69Zm.13,1.18-.73-.43-.53.66.74.42.52-.65Zm-.58.72-.52.65-.73-.42.52-.66.73.43Zm-.58.72-.73-.42-.52.65.73.42.52-.65Zm-.57.72-.53.65-.73-.42.52-.65.74.42Zm-.58.72-.74-.42-.52.65.73.42.53-.65Zm-.58.72-.53.65-.73-.42.52-.65.74.42Zm-.58.72-.73-.42c-.18.21-.35.43-.53.65l.73.42.53-.65Zm-.58.72-.55.69L54,59.13l.56-.68.73.42Zm-1.35.23.55-.69-.7-.41-.55.69.7.41Zm-.77-.45-.7-.4.56-.69.7.41-.56.68Zm-.76-.44.55-.68-.7-.41-.55.69.7.4Zm-.77-.44-.73-.42.55-.69.74.42-.56.69Zm-.12-1.18.73.43.53-.66L52,55.94l-.52.65Zm.58-.72.52-.65.73.42-.52.66-.73-.43Zm.58-.72.73.43.52-.66-.73-.42-.52.65Zm.57-.72.53-.65.73.42-.52.65-.74-.42Zm.58-.72.74.42.52-.65-.73-.42-.53.65Zm.58-.72.53-.65.73.42-.52.65L54.38,53Zm.58-.72.74.42.52-.65-.73-.42-.53.65Zm1.32-.19.7.4-.52.66-.7-.41.52-.65Zm-.57.72-.53.65.7.41.53-.66-.7-.4Zm-.58.72.7.4-.53.66-.7-.41.53-.65Zm-.58.72-.53.65.7.41.53-.66-.7-.4ZM54,55l.7.4-.53.66-.7-.41c.18-.21.35-.43.53-.65Zm-.58.72-.52.65.7.41c.17-.22.34-.44.52-.65l-.7-.41Zm-.58.72.7.41-.52.65-.7-.41.52-.65Zm4.24-3.88c-.18.22-.35.44-.53.65l.71.41c.17-.22.34-.44.52-.65l-.7-.41Zm-.58.72.7.41-.52.65-.7-.41.52-.65Zm-.58.72-.52.65.7.41.52-.65-.7-.41Zm-.58.72.7.41-.52.65-.7-.41.52-.65Zm-.58.72-.52.65.7.41.52-.65-.7-.41Zm-.58.72.7.41-.52.65-.7-.41.52-.65Zm-.57.72c-.18.22-.35.44-.53.65l.7.41.53-.65-.7-.41ZM57.81,53l.7.41L58,54l-.7-.41.52-.65Zm-.57.72-.53.66.7.4.53-.65-.7-.41Zm-.58.72.7.41-.53.65-.7-.4.53-.66Zm-.58.72-.53.66.7.4.53-.65-.7-.41Zm-.58.72.7.41-.53.65-.7-.4.53-.66Zm-.58.72-.52.66.7.4.52-.65-.7-.41Zm-.58.72.7.41-.52.65-.7-.4Z"/>
        </g>
      </g>
      <polygon class="cls-1" points="117.13 56.49 104.3 63.9 43.17 28.6 55.99 21.2 117.13 56.49"/>
      <polygon class="cls-5" points="43.17 28.6 104.3 63.9 104.3 71.27 43.16 35.98 43.17 28.6"/>
      <polygon class="cls-4" points="117.13 56.49 104.3 63.9 104.3 71.27 117.13 63.87 117.13 56.49"/>
      <polygon class="cls-10" points="19.4 46.43 35 55.44 55.94 43.35 40.33 34.34 19.4 46.43"/>
      <polygon class="cls-1" points="55.94 40.98 35 53.07 19.4 44.06 43.17 30.34 43.16 33.61 55.94 40.98"/>
      <polygon class="cls-5" points="19.4 44.06 35 53.07 35 55.44 19.4 46.43 19.4 44.06"/>
      <polygon class="cls-4" points="55.94 40.98 35 53.07 35 55.44 55.94 43.35 55.94 40.98"/>
      <g>
        <polygon class="cls-3" points="42.86 45.55 35.79 49.63 22.43 41.92 29.5 37.84 42.86 45.55"/>
        <polygon class="cls-2" points="22.43 41.92 35.79 49.63 35.79 51.32 22.43 43.61 22.43 41.92"/>
        <polygon class="cls-11" points="42.86 45.55 35.79 49.63 35.79 51.32 42.86 47.24 42.86 45.55"/>
      </g>
      <g>
        <polygon class="cls-3" points="53.47 39.42 46.4 43.51 33.04 35.79 40.11 31.71 53.47 39.42"/>
        <polygon class="cls-2" points="33.04 35.79 46.4 43.51 46.4 45.19 33.04 37.48 33.04 35.79"/>
        <polygon class="cls-11" points="53.47 39.42 46.4 43.51 46.4 45.19 53.47 41.11 53.47 39.42"/>
      </g>
      <g>
        <polygon class="cls-3" points="63.8 25.3 53.2 31.42 47.59 28.18 58.19 22.07 63.8 25.3"/>
        <polygon class="cls-2" points="47.59 28.18 53.2 31.42 53.2 33.11 47.59 29.87 47.59 28.18"/>
        <polygon class="cls-11" points="63.8 25.3 53.2 31.42 53.2 33.11 63.8 26.99 63.8 25.3"/>
      </g>
      <g>
        <polygon class="cls-3" points="73.58 30.95 62.98 37.07 57.37 33.83 67.97 27.71 73.58 30.95"/>
        <polygon class="cls-2" points="57.37 33.83 62.98 37.07 62.98 38.76 57.37 35.52 57.37 33.83"/>
        <polygon class="cls-11" points="73.58 30.95 62.98 37.07 62.98 38.76 73.58 32.64 73.58 30.95"/>
      </g>
      <g>
        <polygon class="cls-3" points="83.36 36.6 72.76 42.71 67.16 39.48 77.75 33.36 83.36 36.6"/>
        <polygon class="cls-2" points="67.16 39.48 72.76 42.71 72.76 44.4 67.15 41.16 67.16 39.48"/>
        <polygon class="cls-11" points="83.36 36.6 72.76 42.71 72.76 44.4 83.36 38.29 83.36 36.6"/>
      </g>
      <g>
        <polygon class="cls-3" points="93.14 42.24 82.54 48.36 76.94 45.12 87.53 39.01 93.14 42.24"/>
        <polygon class="cls-2" points="76.94 45.12 82.54 48.36 82.54 50.05 76.94 46.81 76.94 45.12"/>
        <polygon class="cls-11" points="93.14 42.24 82.54 48.36 82.54 50.05 93.14 43.93 93.14 42.24"/>
      </g>
      <g>
        <polygon class="cls-3" points="102.92 47.89 92.32 54.01 86.72 50.77 97.31 44.65 102.92 47.89"/>
        <polygon class="cls-2" points="86.72 50.77 92.33 54.01 92.32 55.7 86.72 52.46 86.72 50.77"/>
        <polygon class="cls-11" points="102.92 47.89 92.33 54.01 92.33 55.7 102.92 49.58 102.92 47.89"/>
      </g>
      <g>
        <polygon class="cls-3" points="112.7 53.54 102.11 59.66 96.5 56.42 107.09 50.3 112.7 53.54"/>
        <polygon class="cls-2" points="96.5 56.42 102.11 59.66 102.11 61.34 96.5 58.11 96.5 56.42"/>
        <polygon class="cls-11" points="112.7 53.54 102.11 59.66 102.11 61.34 112.7 55.23 112.7 53.54"/>
      </g>
      <g>
        <g>
          <polygon class="cls-4" points="79.86 14.06 73.79 17.57 73.79 26.45 79.86 22.94 79.86 14.06"/>
          <polygon class="cls-2" points="64.67 12.31 73.79 17.57 73.78 26.45 64.67 21.19 64.67 12.31"/>
          <polygon class="cls-3" points="79.86 14.06 73.79 17.57 64.67 12.31 70.75 8.8 79.86 14.06"/>
          <g>
            <polygon class="cls-4" points="68.78 15.82 68.78 22.42 68.37 22.66 68.37 16.06 68.78 15.82"/>
            <polygon class="cls-5" points="68.37 22.66 65.03 20.73 65.03 14.61 65.03 14.13 68.37 16.06 68.37 16.06 68.37 22.66"/>
            <polygon class="cls-3" points="68.78 15.82 65.44 13.89 65.03 14.13 68.37 16.06 68.78 15.82"/>
          </g>
          <g>
            <polygon class="cls-4" points="73.02 18.27 73.02 24.86 72.6 25.1 72.6 18.51 73.02 18.27"/>
            <polygon class="cls-5" points="72.6 25.1 69.26 23.18 69.26 17.06 69.26 16.58 72.6 18.51 72.6 18.51 72.6 25.1"/>
            <polygon class="cls-3" points="73.02 18.27 69.68 16.34 69.26 16.58 72.6 18.51 73.02 18.27"/>
          </g>
        </g>
        <g>
          <polygon class="cls-4" points="91.43 20.86 85.36 24.36 85.36 33.24 91.43 29.74 91.43 20.86"/>
          <polygon class="cls-2" points="76.25 19.11 85.36 24.36 85.36 33.24 76.25 27.98 76.25 19.11"/>
          <polygon class="cls-3" points="91.43 20.86 85.36 24.36 76.25 19.11 82.32 15.6 91.43 20.86"/>
          <g>
            <polygon class="cls-4" points="80.36 22.62 80.36 29.21 79.94 29.45 79.94 22.86 80.36 22.62"/>
            <polygon class="cls-5" points="79.94 29.45 76.6 27.52 76.6 21.41 76.6 20.93 79.94 22.86 79.94 22.86 79.94 29.45"/>
            <polygon class="cls-3" points="80.36 22.62 77.02 20.69 76.6 20.93 79.94 22.86 80.36 22.62"/>
          </g>
          <g>
            <polygon class="cls-4" points="84.59 25.06 84.59 31.66 84.18 31.9 84.18 25.3 84.59 25.06"/>
            <polygon class="cls-5" points="84.18 31.9 80.84 29.97 80.84 23.85 80.84 23.37 84.18 25.3 84.18 25.3 84.18 31.9"/>
            <polygon class="cls-3" points="84.59 25.06 81.25 23.14 80.84 23.37 84.18 25.3 84.59 25.06"/>
          </g>
        </g>
      </g>
      <g>
        <g>
          <polygon class="cls-4" points="107.28 30.01 101.21 33.52 101.21 42.39 107.28 38.89 107.28 30.01"/>
          <polygon class="cls-2" points="92.1 28.25 101.21 33.52 101.21 42.39 92.1 37.13 92.1 28.25"/>
          <polygon class="cls-3" points="107.28 30.01 101.21 33.52 92.1 28.25 98.17 24.75 107.28 30.01"/>
          <g>
            <polygon class="cls-4" points="96.2 31.77 96.2 38.36 95.79 38.6 95.79 32.01 96.2 31.77"/>
            <polygon class="cls-5" points="95.79 38.6 92.45 36.67 92.45 30.56 92.45 30.08 95.79 32.01 95.79 32.01 95.79 38.6"/>
            <polygon class="cls-3" points="96.2 31.77 92.86 29.84 92.45 30.08 95.79 32.01 96.2 31.77"/>
          </g>
          <g>
            <polygon class="cls-4" points="100.44 34.21 100.44 40.81 100.03 41.05 100.03 34.45 100.44 34.21"/>
            <polygon class="cls-5" points="100.03 41.05 96.69 39.12 96.69 33 96.69 32.52 100.03 34.45 100.03 34.45 100.03 41.05"/>
            <polygon class="cls-3" points="100.44 34.21 97.1 32.28 96.69 32.52 100.03 34.45 100.44 34.21"/>
          </g>
        </g>
        <g>
          <polygon class="cls-4" points="118.85 36.8 112.78 40.31 112.78 49.19 118.85 45.68 118.85 36.8"/>
          <polygon class="cls-2" points="103.67 35.05 112.78 40.31 112.78 49.19 103.67 43.93 103.67 35.05"/>
          <polygon class="cls-3" points="118.85 36.8 112.78 40.31 103.67 35.05 109.74 31.55 118.85 36.8"/>
          <g>
            <polygon class="cls-4" points="107.78 38.56 107.78 45.16 107.36 45.4 107.36 38.8 107.78 38.56"/>
            <polygon class="cls-5" points="107.36 45.4 104.02 43.47 104.02 37.35 104.02 36.87 107.36 38.8 107.36 38.8 107.36 45.4"/>
            <polygon class="cls-3" points="107.78 38.56 104.44 36.63 104.02 36.87 107.36 38.8 107.78 38.56"/>
          </g>
          <g>
            <polygon class="cls-4" points="112.01 41.01 112.01 47.6 111.6 47.84 111.6 41.25 112.01 41.01"/>
            <polygon class="cls-5" points="111.6 47.84 108.26 45.91 108.26 39.8 108.26 39.32 111.6 41.25 111.6 41.25 111.6 47.84"/>
            <polygon class="cls-3" points="112.01 41.01 108.67 39.08 108.26 39.32 111.6 41.25 112.01 41.01"/>
          </g>
        </g>
      </g>
      <g>
        <polygon class="cls-7" points="69.45 133.22 62.28 129.57 62.46 117.11 69.45 120.39 69.45 133.22"/>
        <polygon class="cls-4" points="69.9 119.87 69.9 133.38 69.01 133.9 69.01 120.39 69.9 119.87"/>
        <polygon class="cls-1" points="69.9 119.87 62.72 115.73 61.83 116.24 69.01 120.39 69.9 119.87"/>
        <path class="cls-3" d="M69,133.9V120.38l-7.18-4.14v13.51l.94.55h0l5.3,3.06.94.54Zm-6.24-4.69V117.87l5.3,3.06v11.34Z"/>
        <polygon class="cls-1" points="68.07 131.24 63.66 128.7 62.77 129.21 68.07 132.27 68.07 131.24"/>
        <polygon class="cls-4" points="63.66 118.38 63.66 128.7 62.77 129.21 62.77 117.87 63.66 118.38"/>
      </g>
      <g>
        <polygon class="cls-7" points="59.16 127.11 51.99 123.46 52.17 111.01 59.16 114.28 59.16 127.11"/>
        <polygon class="cls-4" points="59.61 113.77 59.61 127.28 58.72 127.79 58.72 114.28 59.61 113.77"/>
        <polygon class="cls-1" points="59.61 113.77 52.43 109.62 51.54 110.14 58.72 114.28 59.61 113.77"/>
        <path class="cls-3" d="M58.72,127.79V114.28l-7.18-4.14v13.51l.94.54h0l5.3,3.06.94.54Zm-6.24-4.68V111.76l5.3,3.06v11.34Z"/>
        <polygon class="cls-1" points="57.78 125.14 53.37 122.59 52.48 123.11 57.78 126.17 57.78 125.14"/>
        <polygon class="cls-4" points="53.37 112.28 53.37 122.59 52.48 123.11 52.48 111.76 53.37 112.28"/>
      </g>
      <g>
        <polygon class="cls-7" points="49.08 121.43 41.91 117.78 42.09 105.32 49.08 108.59 49.08 121.43"/>
        <polygon class="cls-4" points="49.53 108.08 49.53 121.59 48.64 122.11 48.64 108.59 49.53 108.08"/>
        <polygon class="cls-1" points="49.53 108.08 42.35 103.94 41.46 104.45 48.64 108.59 49.53 108.08"/>
        <path class="cls-3" d="M48.64,122.11V108.59l-7.18-4.14V118l.94.55h0l5.3,3,.94.55Zm-6.24-4.69V106.08l5.3,3.06v11.34Z"/>
        <polygon class="cls-1" points="47.7 119.45 43.29 116.91 42.4 117.42 47.7 120.48 47.7 119.45"/>
        <polygon class="cls-4" points="43.29 106.59 43.29 116.91 42.4 117.42 42.4 106.08 43.29 106.59"/>
      </g>
    </g>
  </g>
</svg>
