<?xml version="1.0" encoding="UTF-8" standalone="no"?>
<svg width="456px" height="440px" viewBox="0 0 456 440" version="1.1" xmlns="http://www.w3.org/2000/svg" xmlns:xlink="http://www.w3.org/1999/xlink">
    <!-- Generator: Sketch 50.2 (55047) - http://www.bohemiancoding.com/sketch -->
    <title>Schema_Secteurs_EN</title>
    <desc>Created with Sketch.</desc>
    <defs>
        <circle id="path-1" cx="220" cy="68" r="68"></circle>
        <filter x="-10.3%" y="-7.4%" width="120.6%" height="120.6%" filterUnits="objectBoundingBox" id="filter-2">
            <feOffset dx="0" dy="4" in="SourceAlpha" result="shadowOffsetOuter1"></feOffset>
            <feGaussianBlur stdDeviation="4" in="shadowOffsetOuter1" result="shadowBlurOuter1"></feGaussianBlur>
            <feColorMatrix values="0 0 0 0 0   0 0 0 0 0   0 0 0 0 0.4  0 0 0 0.1 0" type="matrix" in="shadowBlurOuter1"></feColorMatrix>
        </filter>
        <circle id="path-3" cx="68" cy="172" r="68"></circle>
        <filter x="-10.3%" y="-7.4%" width="120.6%" height="120.6%" filterUnits="objectBoundingBox" id="filter-4">
            <feOffset dx="0" dy="4" in="SourceAlpha" result="shadowOffsetOuter1"></feOffset>
            <feGaussianBlur stdDeviation="4" in="shadowOffsetOuter1" result="shadowBlurOuter1"></feGaussianBlur>
            <feColorMatrix values="0 0 0 0 0   0 0 0 0 0   0 0 0 0 0.4  0 0 0 0.1 0" type="matrix" in="shadowBlurOuter1"></feColorMatrix>
        </filter>
        <circle id="path-5" cx="372" cy="172" r="68"></circle>
        <filter x="-10.3%" y="-7.4%" width="120.6%" height="120.6%" filterUnits="objectBoundingBox" id="filter-6">
            <feOffset dx="0" dy="4" in="SourceAlpha" result="shadowOffsetOuter1"></feOffset>
            <feGaussianBlur stdDeviation="4" in="shadowOffsetOuter1" result="shadowBlurOuter1"></feGaussianBlur>
            <feColorMatrix values="0 0 0 0 0   0 0 0 0 0   0 0 0 0 0.4  0 0 0 0.1 0" type="matrix" in="shadowBlurOuter1"></feColorMatrix>
        </filter>
        <circle id="path-7" cx="317" cy="356" r="68"></circle>
        <filter x="-10.3%" y="-7.4%" width="120.6%" height="120.6%" filterUnits="objectBoundingBox" id="filter-8">
            <feOffset dx="0" dy="4" in="SourceAlpha" result="shadowOffsetOuter1"></feOffset>
            <feGaussianBlur stdDeviation="4" in="shadowOffsetOuter1" result="shadowBlurOuter1"></feGaussianBlur>
            <feColorMatrix values="0 0 0 0 0   0 0 0 0 0   0 0 0 0 0.4  0 0 0 0.1 0" type="matrix" in="shadowBlurOuter1"></feColorMatrix>
        </filter>
        <circle id="path-9" cx="124" cy="356" r="68"></circle>
        <filter x="-10.3%" y="-7.4%" width="120.6%" height="120.6%" filterUnits="objectBoundingBox" id="filter-10">
            <feOffset dx="0" dy="4" in="SourceAlpha" result="shadowOffsetOuter1"></feOffset>
            <feGaussianBlur stdDeviation="4" in="shadowOffsetOuter1" result="shadowBlurOuter1"></feGaussianBlur>
            <feColorMatrix values="0 0 0 0 0   0 0 0 0 0   0 0 0 0 0.4  0 0 0 0.1 0" type="matrix" in="shadowBlurOuter1"></feColorMatrix>
        </filter>
        <polygon id="path-11" points="0 33 43.591 33 43.591 0 0 0"></polygon>
        <polygon id="path-13" points="0 32.1706 60.018 32.1706 60.018 0.9996 0 0.9996"></polygon>
    </defs>
    <g id="Maquettes" stroke="none" stroke-width="1" fill="none" fill-rule="evenodd">
        <g id="VectorStuff" transform="translate(-2432.000000, -2750.000000)">
            <g id="Schema_Secteurs_EN" transform="translate(2440.000000, 2754.000000)">
                <g id="Fond">
                    <polygon id="Path-4" stroke-opacity="0.1" stroke="#000066" stroke-width="52" opacity="0.5" points="375.55 173.460649 220.702149 67.4774347 66.4568182 173.460649 124.298817 356.522565 317.10548 356.522565"></polygon>
                    <path d="M375.55,173.460649 L220.702149,67.4774347 L66.4568182,173.460649 L124.298817,356.522565 L317.10548,356.522565 L375.55,173.460649 Z" id="Path-4" stroke="#000066" stroke-width="2" opacity="0.2" stroke-linecap="round" stroke-dasharray="4,8"></path>
                    <g id="Oval-4">
                        <use fill="black" fill-opacity="1" filter="url(#filter-2)" xlink:href="#path-1"></use>
                        <use fill="#FFFFFF" fill-rule="evenodd" xlink:href="#path-1"></use>
                    </g>
                    <g id="Oval-4">
                        <use fill="black" fill-opacity="1" filter="url(#filter-4)" xlink:href="#path-3"></use>
                        <use fill="#FFFFFF" fill-rule="evenodd" xlink:href="#path-3"></use>
                    </g>
                    <g id="Oval-4">
                        <use fill="black" fill-opacity="1" filter="url(#filter-6)" xlink:href="#path-5"></use>
                        <use fill="#FFFFFF" fill-rule="evenodd" xlink:href="#path-5"></use>
                    </g>
                    <g id="Oval-4">
                        <use fill="black" fill-opacity="1" filter="url(#filter-8)" xlink:href="#path-7"></use>
                        <use fill="#FFFFFF" fill-rule="evenodd" xlink:href="#path-7"></use>
                    </g>
                    <g id="Oval-4">
                        <use fill="black" fill-opacity="1" filter="url(#filter-10)" xlink:href="#path-9"></use>
                        <use fill="#FFFFFF" fill-rule="evenodd" xlink:href="#path-9"></use>
                    </g>
                </g>
                <g id="Auto" transform="translate(38.000000, 140.000000)">
                    <path d="M55.9443394,22.1421455 L56.4576727,22.1370545 C57.3485818,22.1294182 58.1470061,21.5524485 58.3913697,20.6946303 C58.6314909,19.8495394 58.8113697,18.5751152 58.6730667,16.7322061 C58.3514909,12.4948727 55.1306424,9.10432727 55.1306424,9.10432727 C55.1306424,9.10432727 49.5374303,3.82081212 47.5171879,1.80990303 C46.9970667,1.29232727 46.3140364,0.981781818 45.5817939,0.930024242 C43.2917333,0.769660606 38.2296727,0.424327273 36.9730667,0.424327273 C36.2264,0.424327273 29.5827636,0.453175758 26.0250667,1.46032727 C23.1987636,2.26214545 13.1764606,8.67329697 12.9617939,8.80566061 C12.2380364,9.25535758 9.85209697,9.99778182 7.74870303,10.6511152 C5.1464,11.4597212 3.51985455,11.9798424 2.90046061,12.3854182 C1.68203636,13.1796 0.559490909,17.605297 0.427127273,20.0871152 C0.36009697,21.4769333 1.47670303,22.6376606 2.86821818,22.6240848 L6.64227879,22.5901455" id="Stroke-1" stroke="#000066"></path>
                    <path d="M17.7625212,22.4893455 L44.8962182,22.2424364" id="Stroke-3" stroke="#000066"></path>
                    <g id="Group-8" transform="translate(31.393939, 12.727273)">
                        <path d="M0.775430303,0.2464 L3.43033939,0.2464" id="Fill-5" fill="#FFFFFF"></path>
                        <path d="M0.775430303,0.2464 L3.43033939,0.2464" id="Stroke-7" stroke="#000066" stroke-width="0.5" stroke-linecap="round"></path>
                    </g>
                    <path d="M19.2949697,10.1141939 C18.2895152,10.1752848 17.8169091,8.89661818 18.6195758,8.28825455 C20.5405455,6.82716364 23.1241818,4.9868 24.8686667,4.22061818 C27.7798182,2.94364848 33.7022424,2.65686061 35.547697,2.65686061 C37.2455152,2.65686061 42.91,2.78073939 44.5730303,4.39116364 C45.2272121,5.02328485 46.0256364,5.9498303 46.6772727,6.7397697 C47.2067273,7.38207273 46.7935152,8.35189091 45.9628485,8.40534545 C40.6572727,8.75237576 25.887697,9.71116364 19.2949697,10.1141939" id="Fill-9" fill="#FFFFFF"></path>
                    <path d="M19.2949697,10.1141939 C18.2895152,10.1752848 17.8169091,8.89661818 18.6195758,8.28825455 C20.5405455,6.82716364 23.1241818,4.9868 24.8686667,4.22061818 C27.7798182,2.94364848 33.7022424,2.65686061 35.547697,2.65686061 C37.2455152,2.65686061 42.91,2.78073939 44.5730303,4.39116364 C45.2272121,5.02328485 46.0256364,5.9498303 46.6772727,6.7397697 C47.2067273,7.38207273 46.7935152,8.35189091 45.9628485,8.40534545 C40.6572727,8.75237576 25.887697,9.71116364 19.2949697,10.1141939 Z" id="Stroke-11" stroke="#000066" stroke-width="0.75" stroke-linecap="round"></path>
                    <path d="M35.1212485,2.65677576 L35.9077939,9.05859394" id="Stroke-13" stroke="#000066" stroke-width="0.5"></path>
                    <g id="Group-18" transform="translate(35.636364, 11.030303)">
                        <path d="M0.49950303,0.0260484848 L1.66192727,9.65041212" id="Fill-15" fill="#FFFFFF"></path>
                        <path d="M0.49950303,0.0260484848 L1.66192727,9.65041212" id="Stroke-17" stroke="#000066" stroke-width="0.5" stroke-linecap="round"></path>
                    </g>
                    <path d="M46.9134061,13.3763636 L57.1698909,12.6288485" id="Stroke-19" stroke="#000066" stroke-width="0.5" stroke-linecap="round"></path>
                    <path d="M11.4461455,16.9683394 L21.7026303,16.2208242" id="Stroke-21" stroke="#000066" stroke-width="0.5" stroke-linecap="round"></path>
                    <path d="M55.6634061,20.6804606 L58.2988,20.6804606" id="Stroke-23" stroke="#000066" stroke-width="0.5" stroke-linecap="round"></path>
                    <path d="M17.2566545,20.6804606 L45.3313212,20.6804606" id="Stroke-25" stroke="#000066" stroke-width="0.5" stroke-linecap="round"></path>
                    <path d="M0.424072727,20.6804606 L7.17461818,20.6804606" id="Stroke-27" stroke="#000066" stroke-width="0.5" stroke-linecap="round"></path>
                    <path d="M17.5052606,22.2854545 C17.5052606,19.3649697 15.1362909,16.996 12.2158061,16.996 C9.29362424,16.996 6.92550303,19.3649697 6.92550303,22.2854545 C6.92550303,25.2067879 9.29362424,27.5757576 12.2158061,27.5757576 C15.1362909,27.5757576 17.5052606,25.2067879 17.5052606,22.2854545 Z" id="Stroke-29" stroke="#000066"></path>
                    <path d="M14.3204727,22.2854545 C14.3204727,21.1230303 13.3778061,20.1812121 12.2153818,20.1812121 C11.0521091,20.1812121 10.1102909,21.1230303 10.1102909,22.2854545 C10.1102909,23.4487273 11.0521091,24.3905455 12.2153818,24.3905455 C13.3778061,24.3905455 14.3204727,23.4487273 14.3204727,22.2854545 Z" id="Stroke-31" stroke="#000066" stroke-width="0.5"></path>
                    <path d="M55.6634061,22.2854545 C55.6634061,19.3649697 53.2944364,16.996 50.373103,16.996 C47.4517697,16.996 45.0836485,19.3649697 45.0836485,22.2854545 C45.0836485,25.2067879 47.4517697,27.5757576 50.373103,27.5757576 C53.2944364,27.5757576 55.6634061,25.2067879 55.6634061,22.2854545 Z" id="Stroke-33" stroke="#000066"></path>
                    <path d="M52.478703,22.2854545 C52.478703,21.1230303 51.5360364,20.1812121 50.3736121,20.1812121 C49.2103394,20.1812121 48.2685212,21.1230303 48.2685212,22.2854545 C48.2685212,23.4487273 49.2103394,24.3905455 50.3736121,24.3905455 C51.5360364,24.3905455 52.478703,23.4487273 52.478703,22.2854545 Z" id="Stroke-35" stroke="#000066" stroke-width="0.5"></path>
                    <path d="M2.70853333,12.7773333 L6.62513939,12.7773333 C7.23095758,12.7773333 7.72562424,13.2728485 7.72562424,13.8786667 C7.72562424,14.4844848 7.23095758,14.98 6.62513939,14.98 L1.41968485,14.98" id="Stroke-37" stroke="#000066" stroke-width="0.5"></path>
                    <path d="M3.79815758,16.9957455 C3.79815758,16.6105333 3.48591515,16.2982909 3.09985455,16.2982909 C2.71464242,16.2982909 2.40155152,16.6105333 2.40155152,16.9957455 C2.40155152,17.3818061 2.71464242,17.6940485 3.09985455,17.6940485 C3.48591515,17.6940485 3.79815758,17.3818061 3.79815758,16.9957455 Z" id="Stroke-39" stroke="#000066" stroke-width="0.5"></path>
                </g>
                <path d="M198.424,94 L196.2,90.48 C195.943999,90.5013334 195.736001,90.512 195.576,90.512 L192.728,90.512 L192.728,94 L191.192,94 L191.192,82.8 L195.576,82.8 C196.994674,82.8 198.090663,83.1279967 198.864,83.784 C199.637337,84.4400033 200.024,85.3706606 200.024,86.576 C200.024,87.4826712 199.813335,88.2453302 199.392,88.864 C198.970665,89.4826698 198.365337,89.9306653 197.576,90.208 L200.184,94 L198.424,94 Z M195.576,89.12 C196.536005,89.12 197.271997,88.9093354 197.784,88.488 C198.296003,88.0666646 198.552,87.4453374 198.552,86.624 C198.552,85.823996 198.296003,85.2186687 197.784,84.808 C197.271997,84.3973313 196.536005,84.192 195.576,84.192 L192.728,84.192 L192.728,89.12 L195.576,89.12 Z M207.784,94 L207.784,92.816 C207.154664,93.6480042 206.168007,94.064 204.824,94.064 C204.23733,94.064 203.722669,93.9520011 203.28,93.728 C202.837331,93.5039989 202.496001,93.1946686 202.256,92.8 C202.015999,92.4053314 201.896,91.9626691 201.896,91.472 C201.896,90.7146629 202.175997,90.1146689 202.736,89.672 C203.296003,89.2293311 204.077328,89.0026667 205.08,88.992 L207.768,88.992 L207.768,88.592 C207.768,87.9946637 207.584002,87.533335 207.216,87.208 C206.847998,86.882665 206.312004,86.72 205.608,86.72 C204.754662,86.72 203.885338,87.023997 203,87.632 L202.376,86.608 C202.984003,86.2133314 203.546664,85.9280009 204.064,85.752 C204.581336,85.5759991 205.19733,85.488 205.912,85.488 C206.968005,85.488 207.783997,85.7466641 208.36,86.264 C208.936003,86.7813359 209.229333,87.5039954 209.24,88.432 L209.256,94 L207.784,94 Z M206.896,92.328 C207.381336,91.9919983 207.672,91.5466694 207.768,90.992 L207.768,90.144 L205.288,90.144 C204.615997,90.144 204.117335,90.2453323 203.792,90.448 C203.466665,90.6506677 203.304,90.9706645 203.304,91.408 C203.304,91.8453355 203.469332,92.1919987 203.8,92.448 C204.130668,92.7040013 204.573331,92.832 205.128,92.832 C205.821337,92.832 206.410664,92.6640017 206.896,92.328 Z M211.912,85.536 L213.4,85.536 L213.4,94 L211.912,94 L211.912,85.536 Z M213.312,82.432 C213.488001,82.6133342 213.576,82.8426653 213.576,83.12 C213.576,83.3973347 213.488001,83.6266658 213.312,83.808 C213.135999,83.9893342 212.914668,84.08 212.648,84.08 C212.381332,84.08 212.160001,83.9893342 211.984,83.808 C211.807999,83.6266658 211.72,83.3973347 211.72,83.12 C211.72,82.8426653 211.807999,82.6133342 211.984,82.432 C212.160001,82.2506658 212.381332,82.16 212.648,82.16 C212.914668,82.16 213.135999,82.2506658 213.312,82.432 Z M216.376,82.128 L217.864,82.128 L217.864,94 L216.376,94 L216.376,82.128 Z M219.448,85.536 L221,85.536 L223.368,92.528 L225.704,85.536 L227.256,85.536 L229.608,92.528 L231.944,85.536 L233.48,85.536 L230.36,94 L228.808,94 L226.472,87.344 L224.136,94 L222.584,94 L219.448,85.536 Z M239.816,94 L239.816,92.816 C239.186664,93.6480042 238.200007,94.064 236.856,94.064 C236.26933,94.064 235.754669,93.9520011 235.312,93.728 C234.869331,93.5039989 234.528001,93.1946686 234.288,92.8 C234.047999,92.4053314 233.928,91.9626691 233.928,91.472 C233.928,90.7146629 234.207997,90.1146689 234.768,89.672 C235.328003,89.2293311 236.109328,89.0026667 237.112,88.992 L239.8,88.992 L239.8,88.592 C239.8,87.9946637 239.616002,87.533335 239.248,87.208 C238.879998,86.882665 238.344004,86.72 237.64,86.72 C236.786662,86.72 235.917338,87.023997 235.032,87.632 L234.408,86.608 C235.016003,86.2133314 235.578664,85.9280009 236.096,85.752 C236.613336,85.5759991 237.22933,85.488 237.944,85.488 C239.000005,85.488 239.815997,85.7466641 240.392,86.264 C240.968003,86.7813359 241.261333,87.5039954 241.272,88.432 L241.288,94 L239.816,94 Z M238.928,92.328 C239.413336,91.9919983 239.704,91.5466694 239.8,90.992 L239.8,90.144 L237.32,90.144 C236.647997,90.144 236.149335,90.2453323 235.824,90.448 C235.498665,90.6506677 235.336,90.9706645 235.336,91.408 C235.336,91.8453355 235.501332,92.1919987 235.832,92.448 C236.162668,92.7040013 236.605331,92.832 237.16,92.832 C237.853337,92.832 238.442664,92.6640017 238.928,92.328 Z M245.536,96.672 C245.093331,97.0026683 244.573336,97.168 243.976,97.168 C243.613332,97.168 243.282668,97.1146672 242.984,97.008 C242.685332,96.9013328 242.397335,96.7360011 242.12,96.512 L242.76,95.344 C243.133335,95.610668 243.511998,95.744 243.896,95.744 C244.536003,95.744 245.015998,95.381337 245.336,94.656 L245.656,93.904 L242.152,85.536 L243.72,85.536 L246.408,92.32 L248.952,85.536 L250.472,85.536 L246.6,95.2 C246.333332,95.8506699 245.978669,96.3413317 245.536,96.672 Z" id="Railway" fill="#000066"></path>
                <path d="M359.824,186.8 L361.344,186.8 L361.344,198 L359.792,198 L353.392,189.328 L353.392,198 L351.856,198 L351.856,186.8 L353.408,186.8 L359.824,195.488 L359.824,186.8 Z M369.584,198 L369.584,196.816 C368.954664,197.648004 367.968007,198.064 366.624,198.064 C366.03733,198.064 365.522669,197.952001 365.08,197.728 C364.637331,197.503999 364.296001,197.194669 364.056,196.8 C363.815999,196.405331 363.696,195.962669 363.696,195.472 C363.696,194.714663 363.975997,194.114669 364.536,193.672 C365.096003,193.229331 365.877328,193.002667 366.88,192.992 L369.568,192.992 L369.568,192.592 C369.568,191.994664 369.384002,191.533335 369.016,191.208 C368.647998,190.882665 368.112004,190.72 367.408,190.72 C366.554662,190.72 365.685338,191.023997 364.8,191.632 L364.176,190.608 C364.784003,190.213331 365.346664,189.928001 365.864,189.752 C366.381336,189.575999 366.99733,189.488 367.712,189.488 C368.768005,189.488 369.583997,189.746664 370.16,190.264 C370.736003,190.781336 371.029333,191.503995 371.04,192.432 L371.056,198 L369.584,198 Z M368.696,196.328 C369.181336,195.991998 369.472,195.546669 369.568,194.992 L369.568,194.144 L367.088,194.144 C366.415997,194.144 365.917335,194.245332 365.592,194.448 C365.266665,194.650668 365.104,194.970664 365.104,195.408 C365.104,195.845336 365.269332,196.191999 365.6,196.448 C365.930668,196.704001 366.373331,196.832 366.928,196.832 C367.621337,196.832 368.210664,196.664002 368.696,196.328 Z M372,189.536 L373.584,189.536 L376.128,196.528 L378.656,189.536 L380.16,189.536 L376.864,198 L375.312,198 L372,189.536 Z M386.512,198 L386.512,196.816 C385.882664,197.648004 384.896007,198.064 383.552,198.064 C382.96533,198.064 382.450669,197.952001 382.008,197.728 C381.565331,197.503999 381.224001,197.194669 380.984,196.8 C380.743999,196.405331 380.624,195.962669 380.624,195.472 C380.624,194.714663 380.903997,194.114669 381.464,193.672 C382.024003,193.229331 382.805328,193.002667 383.808,192.992 L386.496,192.992 L386.496,192.592 C386.496,191.994664 386.312002,191.533335 385.944,191.208 C385.575998,190.882665 385.040004,190.72 384.336,190.72 C383.482662,190.72 382.613338,191.023997 381.728,191.632 L381.104,190.608 C381.712003,190.213331 382.274664,189.928001 382.792,189.752 C383.309336,189.575999 383.92533,189.488 384.64,189.488 C385.696005,189.488 386.511997,189.746664 387.088,190.264 C387.664003,190.781336 387.957333,191.503995 387.968,192.432 L387.984,198 L386.512,198 Z M385.624,196.328 C386.109336,195.991998 386.4,195.546669 386.496,194.992 L386.496,194.144 L384.016,194.144 C383.343997,194.144 382.845335,194.245332 382.52,194.448 C382.194665,194.650668 382.032,194.970664 382.032,195.408 C382.032,195.845336 382.197332,196.191999 382.528,196.448 C382.858668,196.704001 383.301331,196.832 383.856,196.832 C384.549337,196.832 385.138664,196.664002 385.624,196.328 Z M390.72,186.128 L392.208,186.128 L392.208,198 L390.72,198 L390.72,186.128 Z" id="Naval" fill="#000066"></path>
                <path d="M281.496,372.392 C280.935997,372.226666 280.421336,372.144 279.952,372.144 C279.30133,372.144 278.781335,372.269332 278.392,372.52 C278.002665,372.770668 277.808,373.114664 277.808,373.552 C277.808,373.946669 277.925332,374.269332 278.16,374.52 C278.394668,374.770668 278.682665,374.967999 279.024,375.112 C279.365335,375.256001 279.839997,375.423999 280.448,375.616 C281.205337,375.850668 281.818664,376.074666 282.288,376.288 C282.757336,376.501334 283.157332,376.818665 283.488,377.24 C283.818668,377.661335 283.984,378.218663 283.984,378.912 C283.984,379.552003 283.810668,380.111998 283.464,380.592 C283.117332,381.072002 282.632003,381.442665 282.008,381.704 C281.383997,381.965335 280.666671,382.096 279.856,382.096 C279.034663,382.096 278.234671,381.936002 277.456,381.616 C276.677329,381.295998 276.005336,380.869336 275.44,380.336 L276.128,379.008 C276.661336,379.530669 277.26133,379.933332 277.928,380.216 C278.59467,380.498668 279.242664,380.64 279.872,380.64 C280.61867,380.64 281.207998,380.493335 281.64,380.2 C282.072002,379.906665 282.288,379.509336 282.288,379.008 C282.288,378.613331 282.170668,378.288001 281.936,378.032 C281.701332,377.775999 281.405335,377.573334 281.048,377.424 C280.690665,377.274666 280.208003,377.109334 279.6,376.928 C278.85333,376.703999 278.245336,376.485334 277.776,376.272 C277.306664,376.058666 276.909335,375.744002 276.584,375.328 C276.258665,374.911998 276.096,374.36267 276.096,373.68 C276.096,373.082664 276.261332,372.554669 276.592,372.096 C276.922668,371.637331 277.386664,371.285335 277.984,371.04 C278.581336,370.794665 279.274663,370.672 280.064,370.672 C280.736003,370.672 281.394663,370.770666 282.04,370.968 C282.685337,371.165334 283.258664,371.429332 283.76,371.76 L283.12,373.136 C282.597331,372.805332 282.056003,372.557334 281.496,372.392 Z M290.832,381.44 C290.18133,381.856002 289.520003,382.064 288.848,382.064 C288.175997,382.064 287.632002,381.864002 287.216,381.464 C286.799998,381.063998 286.592,380.458671 286.592,379.648 L286.592,374.96 L285.392,374.96 L285.392,373.824 L286.592,373.824 L286.592,371.552 L288.096,371.552 L288.096,373.824 L290.688,373.824 L290.688,374.96 L288.096,374.96 L288.096,379.376 C288.096,379.845336 288.181332,380.181332 288.352,380.384 C288.522668,380.586668 288.778665,380.688 289.12,380.688 C289.525335,380.688 289.962664,380.554668 290.432,380.288 L290.832,381.44 Z M297.808,382 L297.808,380.816 C297.178664,381.648004 296.192007,382.064 294.848,382.064 C294.26133,382.064 293.746669,381.952001 293.304,381.728 C292.861331,381.503999 292.520001,381.194669 292.28,380.8 C292.039999,380.405331 291.92,379.962669 291.92,379.472 C291.92,378.714663 292.199997,378.114669 292.76,377.672 C293.320003,377.229331 294.101328,377.002667 295.104,376.992 L297.792,376.992 L297.792,376.592 C297.792,375.994664 297.608002,375.533335 297.24,375.208 C296.871998,374.882665 296.336004,374.72 295.632,374.72 C294.778662,374.72 293.909338,375.023997 293.024,375.632 L292.4,374.608 C293.008003,374.213331 293.570664,373.928001 294.088,373.752 C294.605336,373.575999 295.22133,373.488 295.936,373.488 C296.992005,373.488 297.807997,373.746664 298.384,374.264 C298.960003,374.781336 299.253333,375.503995 299.264,376.432 L299.28,382 L297.808,382 Z M296.92,380.328 C297.405336,379.991998 297.696,379.546669 297.792,378.992 L297.792,378.144 L295.312,378.144 C294.639997,378.144 294.141335,378.245332 293.816,378.448 C293.490665,378.650668 293.328,378.970664 293.328,379.408 C293.328,379.845336 293.493332,380.191999 293.824,380.448 C294.154668,380.704001 294.597331,380.832 295.152,380.832 C295.845337,380.832 296.434664,380.664002 296.92,380.328 Z M306.48,381.44 C305.82933,381.856002 305.168003,382.064 304.496,382.064 C303.823997,382.064 303.280002,381.864002 302.864,381.464 C302.447998,381.063998 302.24,380.458671 302.24,379.648 L302.24,374.96 L301.04,374.96 L301.04,373.824 L302.24,373.824 L302.24,371.552 L303.744,371.552 L303.744,373.824 L306.336,373.824 L306.336,374.96 L303.744,374.96 L303.744,379.376 C303.744,379.845336 303.829332,380.181332 304,380.384 C304.170668,380.586668 304.426665,380.688 304.768,380.688 C305.173335,380.688 305.610664,380.554668 306.08,380.288 L306.48,381.44 Z M308.288,373.536 L309.776,373.536 L309.776,382 L308.288,382 L308.288,373.536 Z M309.688,370.432 C309.864001,370.613334 309.952,370.842665 309.952,371.12 C309.952,371.397335 309.864001,371.626666 309.688,371.808 C309.511999,371.989334 309.290668,372.08 309.024,372.08 C308.757332,372.08 308.536001,371.989334 308.36,371.808 C308.183999,371.626666 308.096,371.397335 308.096,371.12 C308.096,370.842665 308.183999,370.613334 308.36,370.432 C308.536001,370.250666 308.757332,370.16 309.024,370.16 C309.290668,370.16 309.511999,370.250666 309.688,370.432 Z M318.44,374.032 C319.096003,374.394668 319.607998,374.898663 319.976,375.544 C320.344002,376.189337 320.528,376.927996 320.528,377.76 C320.528,378.592004 320.344002,379.33333 319.976,379.984 C319.607998,380.63467 319.096003,381.141332 318.44,381.504 C317.783997,381.866668 317.034671,382.048 316.192,382.048 C315.338662,382.048 314.584003,381.866668 313.928,381.504 C313.271997,381.141332 312.760002,380.637337 312.392,379.992 C312.023998,379.346663 311.84,378.602671 311.84,377.76 C311.84,376.927996 312.023998,376.189337 312.392,375.544 C312.760002,374.898663 313.271997,374.394668 313.928,374.032 C314.584003,373.669332 315.338662,373.488 316.192,373.488 C317.034671,373.488 317.783997,373.669332 318.44,374.032 Z M314.712,375.168 C314.279998,375.424001 313.944001,375.778664 313.704,376.232 C313.463999,376.685336 313.344,377.199997 313.344,377.776 C313.344,378.36267 313.463999,378.885331 313.704,379.344 C313.944001,379.802669 314.279998,380.157332 314.712,380.408 C315.144002,380.658668 315.637331,380.784 316.192,380.784 C316.736003,380.784 317.223998,380.658668 317.656,380.408 C318.088002,380.157332 318.423999,379.802669 318.664,379.344 C318.904001,378.885331 319.024,378.36267 319.024,377.776 C319.024,377.199997 318.904001,376.685336 318.664,376.232 C318.423999,375.778664 318.088002,375.424001 317.656,375.168 C317.223998,374.911999 316.736003,374.784 316.192,374.784 C315.637331,374.784 315.144002,374.911999 314.712,375.168 Z M329.648,374.36 C330.213336,374.941336 330.496,375.743995 330.496,376.768 L330.496,382 L329.008,382 L329.008,377.168 C329.008,376.45333 328.808002,375.896002 328.408,375.496 C328.007998,375.095998 327.456004,374.896 326.752,374.896 C325.994663,374.906667 325.378669,375.149331 324.904,375.624 C324.429331,376.098669 324.16,376.714663 324.096,377.472 L324.096,382 L322.608,382 L322.608,373.536 L324.096,373.536 L324.096,375.328 C324.661336,374.122661 325.733325,373.509333 327.312,373.488 C328.304005,373.488 329.082664,373.778664 329.648,374.36 Z M338.32,382 L338.32,380.816 C337.690664,381.648004 336.704007,382.064 335.36,382.064 C334.77333,382.064 334.258669,381.952001 333.816,381.728 C333.373331,381.503999 333.032001,381.194669 332.792,380.8 C332.551999,380.405331 332.432,379.962669 332.432,379.472 C332.432,378.714663 332.711997,378.114669 333.272,377.672 C333.832003,377.229331 334.613328,377.002667 335.616,376.992 L338.304,376.992 L338.304,376.592 C338.304,375.994664 338.120002,375.533335 337.752,375.208 C337.383998,374.882665 336.848004,374.72 336.144,374.72 C335.290662,374.72 334.421338,375.023997 333.536,375.632 L332.912,374.608 C333.520003,374.213331 334.082664,373.928001 334.6,373.752 C335.117336,373.575999 335.73333,373.488 336.448,373.488 C337.504005,373.488 338.319997,373.746664 338.896,374.264 C339.472003,374.781336 339.765333,375.503995 339.776,376.432 L339.792,382 L338.32,382 Z M337.432,380.328 C337.917336,379.991998 338.208,379.546669 338.304,378.992 L338.304,378.144 L335.824,378.144 C335.151997,378.144 334.653335,378.245332 334.328,378.448 C334.002665,378.650668 333.84,378.970664 333.84,379.408 C333.84,379.845336 334.005332,380.191999 334.336,380.448 C334.666668,380.704001 335.109331,380.832 335.664,380.832 C336.357337,380.832 336.946664,380.664002 337.432,380.328 Z M345.12,373.976 C345.632003,373.661332 346.239996,373.498667 346.944,373.488 L346.944,374.928 C346.079996,374.896 345.381336,375.119998 344.848,375.6 C344.314664,376.080002 344.010667,376.725329 343.936,377.536 L343.936,382 L342.448,382 L342.448,373.536 L343.936,373.536 L343.936,375.36 C344.213335,374.751997 344.607997,374.290668 345.12,373.976 Z M350.888,384.672 C350.445331,385.002668 349.925336,385.168 349.328,385.168 C348.965332,385.168 348.634668,385.114667 348.336,385.008 C348.037332,384.901333 347.749335,384.736001 347.472,384.512 L348.112,383.344 C348.485335,383.610668 348.863998,383.744 349.248,383.744 C349.888003,383.744 350.367998,383.381337 350.688,382.656 L351.008,381.904 L347.504,373.536 L349.072,373.536 L351.76,380.32 L354.304,373.536 L355.824,373.536 L351.952,383.2 C351.685332,383.85067 351.330669,384.341332 350.888,384.672 Z M358.024,380.592 C358.189334,380.752001 358.272,380.965332 358.272,381.232 C358.272,381.349334 358.248,381.471999 358.2,381.6 C358.152,381.728001 358.101334,381.850666 358.048,381.968 L357.184,383.792 L356.368,383.792 L357.008,381.984 C356.858666,381.909333 356.746667,381.805334 356.672,381.672 C356.597333,381.538666 356.56,381.392001 356.56,381.232 C356.56,380.975999 356.642666,380.765334 356.808,380.6 C356.973334,380.434666 357.178665,380.352 357.424,380.352 C357.658668,380.352 357.858666,380.431999 358.024,380.592 Z M292.712,387.544 C293.368003,388.040002 293.696,388.725329 293.696,389.6 C293.696,390.240003 293.514668,390.781331 293.152,391.224 C292.789332,391.666669 292.293336,391.962666 291.664,392.112 C292.442671,392.229334 293.053331,392.541331 293.496,393.048 C293.938669,393.554669 294.16,394.186663 294.16,394.944 C294.16,395.904005 293.800004,396.653331 293.08,397.192 C292.359996,397.730669 291.36534,398 290.096,398 L285.232,398 L285.232,386.8 L290.016,386.8 C291.157339,386.8 292.055997,387.047998 292.712,387.544 Z M291.544,391.112 C291.922669,390.818665 292.112,390.400003 292.112,389.856 C292.112,389.322664 291.922669,388.912001 291.544,388.624 C291.165331,388.335999 290.629337,388.197333 289.936,388.208 L286.768,388.208 L286.768,391.552 L289.936,391.552 C290.629337,391.552 291.165331,391.405335 291.544,391.112 Z M291.888,396.12 C292.357336,395.794665 292.592,395.33867 292.592,394.752 C292.592,394.186664 292.357336,393.744002 291.888,393.424 C291.418664,393.103998 290.768004,392.944 289.936,392.944 L286.768,392.944 L286.768,396.592 L289.936,396.592 C290.768004,396.602667 291.418664,396.445335 291.888,396.12 Z M303.968,389.536 L303.968,398 L302.464,398 L302.464,396.208 C301.909331,397.413339 300.864008,398.026667 299.328,398.048 C298.346662,398.048 297.578669,397.757336 297.024,397.176 C296.469331,396.594664 296.192,395.792005 296.192,394.768 L296.192,389.536 L297.696,389.536 L297.696,394.368 C297.696,395.08267 297.890665,395.639998 298.28,396.04 C298.669335,396.440002 299.20533,396.64 299.888,396.64 C300.677337,396.629333 301.303998,396.349336 301.768,395.8 C302.232002,395.250664 302.464,394.549338 302.464,393.696 L302.464,389.536 L303.968,389.536 Z M306.864,389.536 L308.352,389.536 L308.352,398 L306.864,398 L306.864,389.536 Z M308.264,386.432 C308.440001,386.613334 308.528,386.842665 308.528,387.12 C308.528,387.397335 308.440001,387.626666 308.264,387.808 C308.087999,387.989334 307.866668,388.08 307.6,388.08 C307.333332,388.08 307.112001,387.989334 306.936,387.808 C306.759999,387.626666 306.672,387.397335 306.672,387.12 C306.672,386.842665 306.759999,386.613334 306.936,386.432 C307.112001,386.250666 307.333332,386.16 307.6,386.16 C307.866668,386.16 308.087999,386.250666 308.264,386.432 Z M311.328,386.128 L312.816,386.128 L312.816,398 L311.328,398 L311.328,386.128 Z M323.696,386.128 L323.696,398 L322.208,398 L322.208,396.32 C321.887998,396.885336 321.458669,397.319998 320.92,397.624 C320.381331,397.928002 319.75467,398.08 319.04,398.08 C318.239996,398.08 317.533336,397.896002 316.92,397.528 C316.306664,397.159998 315.829335,396.648003 315.488,395.992 C315.146665,395.335997 314.976,394.586671 314.976,393.744 C314.976,392.911996 315.146665,392.173337 315.488,391.528 C315.829335,390.882663 316.306664,390.378668 316.92,390.016 C317.533336,389.653332 318.234663,389.472 319.024,389.472 C319.749337,389.472 320.383997,389.621332 320.928,389.92 C321.472003,390.218668 321.898665,390.650664 322.208,391.216 L322.208,386.128 L323.696,386.128 Z M320.824,396.416 C321.256002,396.159999 321.594665,395.802669 321.84,395.344 C322.085335,394.885331 322.208,394.368003 322.208,393.792 C322.208,393.20533 322.085335,392.682669 321.84,392.224 C321.594665,391.765331 321.256002,391.408001 320.824,391.152 C320.391998,390.895999 319.898669,390.768 319.344,390.768 C318.789331,390.768 318.296002,390.898665 317.864,391.16 C317.431998,391.421335 317.093335,391.781331 316.848,392.24 C316.602665,392.698669 316.48,393.215997 316.48,393.792 C316.48,394.368003 316.602665,394.885331 316.848,395.344 C317.093335,395.802669 317.431998,396.159999 317.864,396.416 C318.296002,396.672001 318.789331,396.8 319.344,396.8 C319.898669,396.8 320.391998,396.672001 320.824,396.416 Z M326.688,389.536 L328.176,389.536 L328.176,398 L326.688,398 L326.688,389.536 Z M328.088,386.432 C328.264001,386.613334 328.352,386.842665 328.352,387.12 C328.352,387.397335 328.264001,387.626666 328.088,387.808 C327.911999,387.989334 327.690668,388.08 327.424,388.08 C327.157332,388.08 326.936001,387.989334 326.76,387.808 C326.583999,387.626666 326.496,387.397335 326.496,387.12 C326.496,386.842665 326.583999,386.613334 326.76,386.432 C326.936001,386.250666 327.157332,386.16 327.424,386.16 C327.690668,386.16 327.911999,386.250666 328.088,386.432 Z M338.112,390.36 C338.677336,390.941336 338.96,391.743995 338.96,392.768 L338.96,398 L337.472,398 L337.472,393.168 C337.472,392.45333 337.272002,391.896002 336.872,391.496 C336.471998,391.095998 335.920004,390.896 335.216,390.896 C334.458663,390.906667 333.842669,391.149331 333.368,391.624 C332.893331,392.098669 332.624,392.714663 332.56,393.472 L332.56,398 L331.072,398 L331.072,389.536 L332.56,389.536 L332.56,391.328 C333.125336,390.122661 334.197325,389.509333 335.776,389.488 C336.768005,389.488 337.546664,389.778664 338.112,390.36 Z M349.104,389.536 L349.104,397.136 C349.104,397.946671 348.925335,398.655997 348.568,399.264 C348.210665,399.872003 347.70667,400.338665 347.056,400.664 C346.40533,400.989335 345.648004,401.152 344.784,401.152 C343.535994,401.152 342.373339,400.757337 341.296,399.968 L341.952,398.88 C342.368002,399.221335 342.799998,399.474666 343.248,399.64 C343.696002,399.805334 344.186664,399.888 344.72,399.888 C345.594671,399.888 346.293331,399.642669 346.816,399.152 C347.338669,398.661331 347.6,398.005337 347.6,397.184 L347.6,396 C347.301332,396.512003 346.896003,396.909332 346.384,397.192 C345.871997,397.474668 345.285337,397.616 344.624,397.616 C343.866663,397.616 343.197336,397.442668 342.616,397.096 C342.034664,396.749332 341.584002,396.26667 341.264,395.648 C340.943998,395.02933 340.784,394.320004 340.784,393.52 C340.784,392.730663 340.943998,392.032003 341.264,391.424 C341.584002,390.815997 342.034664,390.341335 342.616,390 C343.197336,389.658665 343.866663,389.488 344.624,389.488 C345.296003,389.488 345.885331,389.626665 346.392,389.904 C346.898669,390.181335 347.301332,390.575997 347.6,391.088 L347.6,389.536 L349.104,389.536 Z M346.304,396.048 C346.709335,395.802665 347.026666,395.464002 347.256,395.032 C347.485334,394.599998 347.6,394.112003 347.6,393.568 C347.6,393.013331 347.485334,392.520002 347.256,392.088 C347.026666,391.655998 346.709335,391.317335 346.304,391.072 C345.898665,390.826665 345.434669,390.704 344.912,390.704 C344.389331,390.704 343.922669,390.826665 343.512,391.072 C343.101331,391.317335 342.778668,391.655998 342.544,392.088 C342.309332,392.520002 342.192,393.013331 342.192,393.568 C342.202667,394.400004 342.458664,395.082664 342.96,395.616 C343.461336,396.149336 344.111996,396.416 344.912,396.416 C345.434669,396.416 345.898665,396.293335 346.304,396.048 Z" id="Stationary,-Building" fill="#000066"></path>
                <path d="M86.944,382 L85.76,379.28 L79.856,379.28 L78.688,382 L77.072,382 L82.048,370.8 L83.648,370.8 L88.608,382 L86.944,382 Z M80.464,377.888 L85.168,377.888 L82.8,372.448 L80.464,377.888 Z M96.032,374.648 C96.7040034,375.421337 97.04,376.495993 97.04,377.872 C97.04,378.085334 97.0346667,378.245333 97.024,378.352 L90.336,378.352 C90.4533339,379.109337 90.7706641,379.711998 91.288,380.16 C91.8053359,380.608002 92.4426629,380.832 93.2,380.832 C93.7013358,380.832 94.1679978,380.741334 94.6,380.56 C95.0320022,380.378666 95.4079984,380.122668 95.728,379.792 L96.544,380.64 C96.1279979,381.088002 95.6266696,381.434665 95.04,381.68 C94.4533304,381.925335 93.8026702,382.048 93.088,382.048 C92.2559958,382.048 91.5173366,381.869335 90.872,381.512 C90.2266634,381.154665 89.7253351,380.65067 89.368,380 C89.0106649,379.34933 88.832,378.608004 88.832,377.776 C88.832,376.943996 89.0106649,376.205337 89.368,375.56 C89.7253351,374.914663 90.2239968,374.408002 90.864,374.04 C91.5040032,373.671998 92.2346626,373.488 93.056,373.488 C94.3680066,373.488 95.3599966,373.874663 96.032,374.648 Z M95.696,377.2 C95.6533331,376.431996 95.3973357,375.826669 94.928,375.384 C94.4586643,374.941331 93.8400038,374.72 93.072,374.72 C92.3253296,374.72 91.7040025,374.943998 91.208,375.392 C90.7119975,375.840002 90.4160005,376.442663 90.32,377.2 L95.696,377.2 Z M101.744,373.976 C102.256003,373.661332 102.863996,373.498667 103.568,373.488 L103.568,374.928 C102.703996,374.896 102.005336,375.119998 101.472,375.6 C100.938664,376.080002 100.634667,376.725329 100.56,377.536 L100.56,382 L99.072,382 L99.072,373.536 L100.56,373.536 L100.56,375.36 C100.837335,374.751997 101.231997,374.290668 101.744,373.976 Z M110.952,374.032 C111.608003,374.394668 112.119998,374.898663 112.488,375.544 C112.856002,376.189337 113.04,376.927996 113.04,377.76 C113.04,378.592004 112.856002,379.33333 112.488,379.984 C112.119998,380.63467 111.608003,381.141332 110.952,381.504 C110.295997,381.866668 109.546671,382.048 108.704,382.048 C107.850662,382.048 107.096003,381.866668 106.44,381.504 C105.783997,381.141332 105.272002,380.637337 104.904,379.992 C104.535998,379.346663 104.352,378.602671 104.352,377.76 C104.352,376.927996 104.535998,376.189337 104.904,375.544 C105.272002,374.898663 105.783997,374.394668 106.44,374.032 C107.096003,373.669332 107.850662,373.488 108.704,373.488 C109.546671,373.488 110.295997,373.669332 110.952,374.032 Z M107.224,375.168 C106.791998,375.424001 106.456001,375.778664 106.216,376.232 C105.975999,376.685336 105.856,377.199997 105.856,377.776 C105.856,378.36267 105.975999,378.885331 106.216,379.344 C106.456001,379.802669 106.791998,380.157332 107.224,380.408 C107.656002,380.658668 108.149331,380.784 108.704,380.784 C109.248003,380.784 109.735998,380.658668 110.168,380.408 C110.600002,380.157332 110.935999,379.802669 111.176,379.344 C111.416001,378.885331 111.536,378.36267 111.536,377.776 C111.536,377.199997 111.416001,376.685336 111.176,376.232 C110.935999,375.778664 110.600002,375.424001 110.168,375.168 C109.735998,374.911999 109.248003,374.784 108.704,374.784 C108.149331,374.784 107.656002,374.911999 107.224,375.168 Z M122.16,374.36 C122.725336,374.941336 123.008,375.743995 123.008,376.768 L123.008,382 L121.52,382 L121.52,377.168 C121.52,376.45333 121.320002,375.896002 120.92,375.496 C120.519998,375.095998 119.968004,374.896 119.264,374.896 C118.506663,374.906667 117.890669,375.149331 117.416,375.624 C116.941331,376.098669 116.672,376.714663 116.608,377.472 L116.608,382 L115.12,382 L115.12,373.536 L116.608,373.536 L116.608,375.328 C117.173336,374.122661 118.245325,373.509333 119.824,373.488 C120.816005,373.488 121.594664,373.778664 122.16,374.36 Z M130.832,382 L130.832,380.816 C130.202664,381.648004 129.216007,382.064 127.872,382.064 C127.28533,382.064 126.770669,381.952001 126.328,381.728 C125.885331,381.503999 125.544001,381.194669 125.304,380.8 C125.063999,380.405331 124.944,379.962669 124.944,379.472 C124.944,378.714663 125.223997,378.114669 125.784,377.672 C126.344003,377.229331 127.125328,377.002667 128.128,376.992 L130.816,376.992 L130.816,376.592 C130.816,375.994664 130.632002,375.533335 130.264,375.208 C129.895998,374.882665 129.360004,374.72 128.656,374.72 C127.802662,374.72 126.933338,375.023997 126.048,375.632 L125.424,374.608 C126.032003,374.213331 126.594664,373.928001 127.112,373.752 C127.629336,373.575999 128.24533,373.488 128.96,373.488 C130.016005,373.488 130.831997,373.746664 131.408,374.264 C131.984003,374.781336 132.277333,375.503995 132.288,376.432 L132.304,382 L130.832,382 Z M129.944,380.328 C130.429336,379.991998 130.72,379.546669 130.816,378.992 L130.816,378.144 L128.336,378.144 C127.663997,378.144 127.165335,378.245332 126.84,378.448 C126.514665,378.650668 126.352,378.970664 126.352,379.408 C126.352,379.845336 126.517332,380.191999 126.848,380.448 C127.178668,380.704001 127.621331,380.832 128.176,380.832 C128.869337,380.832 129.458664,380.664002 129.944,380.328 Z M142.448,373.536 L142.448,382 L140.944,382 L140.944,380.208 C140.389331,381.413339 139.344008,382.026667 137.808,382.048 C136.826662,382.048 136.058669,381.757336 135.504,381.176 C134.949331,380.594664 134.672,379.792005 134.672,378.768 L134.672,373.536 L136.176,373.536 L136.176,378.368 C136.176,379.08267 136.370665,379.639998 136.76,380.04 C137.149335,380.440002 137.68533,380.64 138.368,380.64 C139.157337,380.629333 139.783998,380.349336 140.248,379.8 C140.712002,379.250664 140.944,378.549338 140.944,377.696 L140.944,373.536 L142.448,373.536 Z M149.888,381.44 C149.23733,381.856002 148.576003,382.064 147.904,382.064 C147.231997,382.064 146.688002,381.864002 146.272,381.464 C145.855998,381.063998 145.648,380.458671 145.648,379.648 L145.648,374.96 L144.448,374.96 L144.448,373.824 L145.648,373.824 L145.648,371.552 L147.152,371.552 L147.152,373.824 L149.744,373.824 L149.744,374.96 L147.152,374.96 L147.152,379.376 C147.152,379.845336 147.237332,380.181332 147.408,380.384 C147.578668,380.586668 147.834665,380.688 148.176,380.688 C148.581335,380.688 149.018664,380.554668 149.488,380.288 L149.888,381.44 Z M151.696,373.536 L153.184,373.536 L153.184,382 L151.696,382 L151.696,373.536 Z M153.096,370.432 C153.272001,370.613334 153.36,370.842665 153.36,371.12 C153.36,371.397335 153.272001,371.626666 153.096,371.808 C152.919999,371.989334 152.698668,372.08 152.432,372.08 C152.165332,372.08 151.944001,371.989334 151.768,371.808 C151.591999,371.626666 151.504,371.397335 151.504,371.12 C151.504,370.842665 151.591999,370.613334 151.768,370.432 C151.944001,370.250666 152.165332,370.16 152.432,370.16 C152.698668,370.16 152.919999,370.250666 153.096,370.432 Z M159.6,374.816 C159.045331,374.816 158.552002,374.938665 158.12,375.184 C157.687998,375.429335 157.349335,375.775998 157.104,376.224 C156.858665,376.672002 156.736,377.18933 156.736,377.776 C156.736,378.36267 156.855999,378.879998 157.096,379.328 C157.336001,379.776002 157.666665,380.125332 158.088,380.376 C158.509335,380.626668 158.991997,380.752 159.536,380.752 C160.080003,380.752 160.570664,380.661334 161.008,380.48 C161.445336,380.298666 161.807999,380.037335 162.096,379.696 L162.944,380.56 C162.559998,381.040002 162.072003,381.407999 161.48,381.664 C160.887997,381.920001 160.21867,382.048 159.472,382.048 C158.650663,382.048 157.920003,381.866668 157.28,381.504 C156.639997,381.141332 156.141335,380.637337 155.784,379.992 C155.426665,379.346663 155.248,378.608004 155.248,377.776 C155.248,376.943996 155.426665,376.20267 155.784,375.552 C156.141335,374.90133 156.639997,374.394668 157.28,374.032 C157.920003,373.669332 158.650663,373.488 159.472,373.488 C160.18667,373.488 160.82933,373.597332 161.4,373.816 C161.97067,374.034668 162.447998,374.351998 162.832,374.768 L162.016,375.792 C161.343997,375.14133 160.538671,374.816 159.6,374.816 Z M168.536,374.896 C168.114665,374.767999 167.712002,374.704 167.328,374.704 C166.879998,374.704 166.520001,374.786666 166.248,374.952 C165.975999,375.117334 165.84,375.370665 165.84,375.712 C165.84,376.053335 165.991998,376.311999 166.296,376.488 C166.600002,376.664001 167.06133,376.842666 167.68,377.024 C168.26667,377.194668 168.746665,377.365332 169.12,377.536 C169.493335,377.706668 169.810665,377.957332 170.072,378.288 C170.333335,378.618668 170.464,379.055997 170.464,379.6 C170.464,380.400004 170.16267,381.007998 169.56,381.424 C168.95733,381.840002 168.208004,382.048 167.312,382.048 C166.682664,382.048 166.072003,381.946668 165.48,381.744 C164.887997,381.541332 164.389335,381.253335 163.984,380.88 L164.544,379.792 C164.896002,380.112002 165.330664,380.367999 165.848,380.56 C166.365336,380.752001 166.869331,380.848 167.36,380.848 C167.850669,380.848 168.245332,380.757334 168.544,380.576 C168.842668,380.394666 168.992,380.117335 168.992,379.744 C168.992,379.359998 168.834668,379.072001 168.52,378.88 C168.205332,378.687999 167.728003,378.496001 167.088,378.304 C166.522664,378.143999 166.061335,377.981334 165.704,377.816 C165.346665,377.650666 165.042668,377.408002 164.792,377.088 C164.541332,376.767998 164.416,376.352003 164.416,375.84 C164.416,375.050663 164.703997,374.458669 165.28,374.064 C165.856003,373.669331 166.575996,373.472 167.44,373.472 C167.952003,373.472 168.455998,373.543999 168.952,373.688 C169.448002,373.832001 169.877332,374.026665 170.24,374.272 L169.696,375.408 C169.343998,375.194666 168.957335,375.024001 168.536,374.896 Z" id="Aeronautics" fill="#000066"></path>
                <path d="M22.2425,190 L20.1575,186.7 C19.9174988,186.72 19.7225008,186.73 19.5725,186.73 L16.9025,186.73 L16.9025,190 L15.4625,190 L15.4625,179.5 L19.5725,179.5 C20.9025067,179.5 21.9299964,179.807497 22.655,180.4225 C23.3800036,181.037503 23.7425,181.909994 23.7425,183.04 C23.7425,183.890004 23.545002,184.604997 23.15,185.185 C22.754998,185.765003 22.1875037,186.184999 21.4475,186.445 L23.8925,190 L22.2425,190 Z M19.5725,185.425 C20.4725045,185.425 21.1624976,185.227502 21.6425,184.8325 C22.1225024,184.437498 22.3625,183.855004 22.3625,183.085 C22.3625,182.334996 22.1225024,181.767502 21.6425,181.3825 C21.1624976,180.997498 20.4725045,180.805 19.5725,180.805 L16.9025,180.805 L16.9025,185.425 L19.5725,185.425 Z M31.18,182.53 C31.7950031,182.870002 32.2749983,183.342497 32.62,183.9475 C32.9650017,184.552503 33.1375,185.244996 33.1375,186.025 C33.1375,186.805004 32.9650017,187.499997 32.62,188.11 C32.2749983,188.720003 31.7950031,189.194998 31.18,189.535 C30.5649969,189.875002 29.862504,190.045 29.0725,190.045 C28.272496,190.045 27.5650031,189.875002 26.95,189.535 C26.3349969,189.194998 25.8550017,188.722503 25.51,188.1175 C25.1649983,187.512497 24.9925,186.815004 24.9925,186.025 C24.9925,185.244996 25.1649983,184.552503 25.51,183.9475 C25.8550017,183.342497 26.3349969,182.870002 26.95,182.53 C27.5650031,182.189998 28.272496,182.02 29.0725,182.02 C29.862504,182.02 30.5649969,182.189998 31.18,182.53 Z M27.685,183.595 C27.279998,183.835001 26.9650011,184.167498 26.74,184.5925 C26.5149989,185.017502 26.4025,185.499997 26.4025,186.04 C26.4025,186.590003 26.5149989,187.079998 26.74,187.51 C26.9650011,187.940002 27.279998,188.272499 27.685,188.5075 C28.090002,188.742501 28.5524974,188.86 29.0725,188.86 C29.5825026,188.86 30.039998,188.742501 30.445,188.5075 C30.850002,188.272499 31.1649989,187.940002 31.39,187.51 C31.6150011,187.079998 31.7275,186.590003 31.7275,186.04 C31.7275,185.499997 31.6150011,185.017502 31.39,184.5925 C31.1649989,184.167498 30.850002,183.835001 30.445,183.595 C30.039998,183.354999 29.5825026,183.235 29.0725,183.235 C28.5524974,183.235 28.090002,183.354999 27.685,183.595 Z M39.5325,190 L39.5325,188.89 C38.9424971,189.670004 38.0175063,190.06 36.7575,190.06 C36.2074973,190.06 35.7250021,189.955001 35.31,189.745 C34.8949979,189.534999 34.5750011,189.245002 34.35,188.875 C34.1249989,188.504998 34.0125,188.090002 34.0125,187.63 C34.0125,186.919996 34.2749974,186.357502 34.8,185.9425 C35.3250026,185.527498 36.0574953,185.315 36.9975,185.305 L39.5175,185.305 L39.5175,184.93 C39.5175,184.369997 39.3450017,183.937502 39,183.6325 C38.6549983,183.327498 38.1525033,183.175 37.4925,183.175 C36.692496,183.175 35.8775042,183.459997 35.0475,184.03 L34.4625,183.07 C35.0325029,182.699998 35.5599976,182.432501 36.045,182.2675 C36.5300024,182.102499 37.1074967,182.02 37.7775,182.02 C38.767505,182.02 39.5324973,182.262498 40.0725,182.7475 C40.6125027,183.232502 40.8875,183.909996 40.8975,184.78 L40.9125,190 L39.5325,190 Z M38.7,188.4325 C39.1550023,188.117498 39.4274996,187.700003 39.5175,187.18 L39.5175,186.385 L37.1925,186.385 C36.5624969,186.385 36.0950015,186.479999 35.79,186.67 C35.4849985,186.860001 35.3325,187.159998 35.3325,187.57 C35.3325,187.980002 35.4874985,188.304999 35.7975,188.545 C36.1075016,188.785001 36.5224974,188.905 37.0425,188.905 C37.6925033,188.905 38.2449977,188.747502 38.7,188.4325 Z M50.3975,178.87 L50.3975,190 L49.0025,190 L49.0025,188.425 C48.7024985,188.955003 48.3000025,189.362499 47.795,189.6475 C47.2899975,189.932501 46.7025034,190.075 46.0325,190.075 C45.2824963,190.075 44.6200029,189.902502 44.045,189.5575 C43.4699971,189.212498 43.0225016,188.732503 42.7025,188.1175 C42.3824984,187.502497 42.2225,186.800004 42.2225,186.01 C42.2225,185.229996 42.3824984,184.537503 42.7025,183.9325 C43.0225016,183.327497 43.4699971,182.855002 44.045,182.515 C44.6200029,182.174998 45.2774963,182.005 46.0175,182.005 C46.6975034,182.005 47.2924975,182.144999 47.8025,182.425 C48.3125026,182.705001 48.7124986,183.109997 49.0025,183.64 L49.0025,178.87 L50.3975,178.87 Z M47.705,188.515 C48.110002,188.274999 48.4274989,187.940002 48.6575,187.51 C48.8875012,187.079998 49.0025,186.595003 49.0025,186.055 C49.0025,185.504997 48.8875012,185.015002 48.6575,184.585 C48.4274989,184.154998 48.110002,183.820001 47.705,183.58 C47.299998,183.339999 46.8375026,183.22 46.3175,183.22 C45.7974974,183.22 45.335002,183.342499 44.93,183.5875 C44.524998,183.832501 44.2075012,184.169998 43.9775,184.6 C43.7474989,185.030002 43.6325,185.514997 43.6325,186.055 C43.6325,186.595003 43.7474989,187.079998 43.9775,187.51 C44.2075012,187.940002 44.524998,188.274999 44.93,188.515 C45.335002,188.755001 45.7974974,188.875 46.3175,188.875 C46.8375026,188.875 47.299998,188.755001 47.705,188.515 Z M60.5925,189.475 C59.982497,189.865002 59.3625032,190.06 58.7325,190.06 C58.1024969,190.06 57.592502,189.872502 57.2025,189.4975 C56.8124981,189.122498 56.6175,188.555004 56.6175,187.795 L56.6175,183.4 L55.4925,183.4 L55.4925,182.335 L56.6175,182.335 L56.6175,180.205 L58.0275,180.205 L58.0275,182.335 L60.4575,182.335 L60.4575,183.4 L58.0275,183.4 L58.0275,187.54 C58.0275,187.980002 58.1074992,188.294999 58.2675,188.485 C58.4275008,188.675001 58.6674984,188.77 58.9875,188.77 C59.3675019,188.77 59.7774978,188.645001 60.2175,188.395 L60.5925,189.475 Z M64.3925,182.4775 C64.8725024,182.182499 65.4424967,182.03 66.1025,182.02 L66.1025,183.37 C65.292496,183.34 64.6375025,183.549998 64.1375,184 C63.6374975,184.450002 63.3525004,185.054996 63.2825,185.815 L63.2825,190 L61.8875,190 L61.8875,182.065 L63.2825,182.065 L63.2825,183.775 C63.5425013,183.204997 63.9124976,182.772501 64.3925,182.4775 Z M71.7175,190 L71.7175,188.89 C71.1274971,189.670004 70.2025063,190.06 68.9425,190.06 C68.3924973,190.06 67.9100021,189.955001 67.495,189.745 C67.0799979,189.534999 66.7600011,189.245002 66.535,188.875 C66.3099989,188.504998 66.1975,188.090002 66.1975,187.63 C66.1975,186.919996 66.4599974,186.357502 66.985,185.9425 C67.5100026,185.527498 68.2424953,185.315 69.1825,185.305 L71.7025,185.305 L71.7025,184.93 C71.7025,184.369997 71.5300017,183.937502 71.185,183.6325 C70.8399983,183.327498 70.3375033,183.175 69.6775,183.175 C68.877496,183.175 68.0625042,183.459997 67.2325,184.03 L66.6475,183.07 C67.2175029,182.699998 67.7449976,182.432501 68.23,182.2675 C68.7150024,182.102499 69.2924967,182.02 69.9625,182.02 C70.952505,182.02 71.7174973,182.262498 72.2575,182.7475 C72.7975027,183.232502 73.0725,183.909996 73.0825,184.78 L73.0975,190 L71.7175,190 Z M70.885,188.4325 C71.3400023,188.117498 71.6124996,187.700003 71.7025,187.18 L71.7025,186.385 L69.3775,186.385 C68.7474969,186.385 68.2800015,186.479999 67.975,186.67 C67.6699985,186.860001 67.5175,187.159998 67.5175,187.57 C67.5175,187.980002 67.6724985,188.304999 67.9825,188.545 C68.2925016,188.785001 68.7074974,188.905 69.2275,188.905 C69.8775033,188.905 70.4299977,188.747502 70.885,188.4325 Z M81.7875,182.8375 C82.3175027,183.382503 82.5825,184.134995 82.5825,185.095 L82.5825,190 L81.1875,190 L81.1875,185.47 C81.1875,184.799997 81.0000019,184.277502 80.625,183.9025 C80.2499981,183.527498 79.7325033,183.34 79.0725,183.34 C78.3624965,183.35 77.7850022,183.577498 77.34,184.0225 C76.8949978,184.467502 76.6425003,185.044996 76.5825,185.755 L76.5825,190 L75.1875,190 L75.1875,182.065 L76.5825,182.065 L76.5825,183.745 C77.1125027,182.614994 78.1174926,182.04 79.5975,182.02 C80.5275047,182.02 81.2574974,182.292497 81.7875,182.8375 Z M87.92,183.34 C87.524998,183.219999 87.1475018,183.16 86.7875,183.16 C86.3674979,183.16 86.0300013,183.237499 85.775,183.3925 C85.5199987,183.547501 85.3925,183.784998 85.3925,184.105 C85.3925,184.425002 85.5349986,184.667499 85.82,184.8325 C86.1050014,184.997501 86.5374971,185.164999 87.1175,185.335 C87.6675028,185.495001 88.1174983,185.654999 88.4675,185.815 C88.8175018,185.975001 89.1149988,186.209998 89.36,186.52 C89.6050012,186.830002 89.7275,187.239997 89.7275,187.75 C89.7275,188.500004 89.4450028,189.069998 88.88,189.46 C88.3149972,189.850002 87.6125042,190.045 86.7725,190.045 C86.1824971,190.045 85.6100028,189.950001 85.055,189.76 C84.4999972,189.569999 84.0325019,189.300002 83.6525,188.95 L84.1775,187.93 C84.5075017,188.230002 84.9149976,188.469999 85.4,188.65 C85.8850024,188.830001 86.3574977,188.92 86.8175,188.92 C87.2775023,188.92 87.6474986,188.835001 87.9275,188.665 C88.2075014,188.494999 88.3475,188.235002 88.3475,187.885 C88.3475,187.524998 88.2000015,187.255001 87.905,187.075 C87.6099985,186.894999 87.162503,186.715001 86.5625,186.535 C86.0324974,186.384999 85.6000017,186.232501 85.265,186.0775 C84.9299983,185.922499 84.6450012,185.695001 84.41,185.395 C84.1749988,185.094999 84.0575,184.705002 84.0575,184.225 C84.0575,183.484996 84.3274973,182.930002 84.8675,182.56 C85.4075027,182.189998 86.082496,182.005 86.8925,182.005 C87.3725024,182.005 87.8449977,182.072499 88.31,182.2075 C88.7750023,182.342501 89.1774983,182.524999 89.5175,182.755 L89.0075,183.82 C88.6774984,183.619999 88.315002,183.460001 87.92,183.34 Z M97.5625,182.53 C98.1425029,182.870002 98.5924984,183.344997 98.9125,183.955 C99.2325016,184.565003 99.3925,185.264996 99.3925,186.055 C99.3925,186.835004 99.2350016,187.527497 98.92,188.1325 C98.6049984,188.737503 98.1600029,189.207498 97.585,189.5425 C97.0099971,189.877502 96.3525037,190.045 95.6125,190.045 C94.9424967,190.045 94.3525026,189.905001 93.8425,189.625 C93.3324975,189.344999 92.9325015,188.945003 92.6425,188.425 L92.6425,192.91 L91.2475,192.91 L91.2475,182.065 L92.6425,182.065 L92.6425,183.64 C92.9325015,183.119997 93.3299975,182.720001 93.835,182.44 C94.3400025,182.159999 94.9224967,182.02 95.5825,182.02 C96.3225037,182.02 96.9824971,182.189998 97.5625,182.53 Z M96.685,188.47 C97.090002,188.229999 97.4049989,187.895002 97.63,187.465 C97.8550011,187.034998 97.9675,186.550003 97.9675,186.01 C97.9675,185.479997 97.8525012,185.000002 97.6225,184.57 C97.3924989,184.139998 97.077502,183.805001 96.6775,183.565 C96.277498,183.324999 95.8225026,183.205 95.3125,183.205 C94.8024975,183.205 94.345002,183.324999 93.94,183.565 C93.534998,183.805001 93.2175012,184.139998 92.9875,184.57 C92.7574989,185.000002 92.6425,185.479997 92.6425,186.01 C92.6425,186.560003 92.7574989,187.047498 92.9875,187.4725 C93.2175012,187.897502 93.534998,188.229999 93.94,188.47 C94.345002,188.710001 94.8024975,188.83 95.3125,188.83 C95.8225026,188.83 96.279998,188.710001 96.685,188.47 Z M106.35,182.53 C106.965003,182.870002 107.444998,183.342497 107.79,183.9475 C108.135002,184.552503 108.3075,185.244996 108.3075,186.025 C108.3075,186.805004 108.135002,187.499997 107.79,188.11 C107.444998,188.720003 106.965003,189.194998 106.35,189.535 C105.734997,189.875002 105.032504,190.045 104.2425,190.045 C103.442496,190.045 102.735003,189.875002 102.12,189.535 C101.504997,189.194998 101.025002,188.722503 100.68,188.1175 C100.334998,187.512497 100.1625,186.815004 100.1625,186.025 C100.1625,185.244996 100.334998,184.552503 100.68,183.9475 C101.025002,183.342497 101.504997,182.870002 102.12,182.53 C102.735003,182.189998 103.442496,182.02 104.2425,182.02 C105.032504,182.02 105.734997,182.189998 106.35,182.53 Z M102.855,183.595 C102.449998,183.835001 102.135001,184.167498 101.91,184.5925 C101.684999,185.017502 101.5725,185.499997 101.5725,186.04 C101.5725,186.590003 101.684999,187.079998 101.91,187.51 C102.135001,187.940002 102.449998,188.272499 102.855,188.5075 C103.260002,188.742501 103.722497,188.86 104.2425,188.86 C104.752503,188.86 105.209998,188.742501 105.615,188.5075 C106.020002,188.272499 106.334999,187.940002 106.56,187.51 C106.785001,187.079998 106.8975,186.590003 106.8975,186.04 C106.8975,185.499997 106.785001,185.017502 106.56,184.5925 C106.334999,184.167498 106.020002,183.835001 105.615,183.595 C105.209998,183.354999 104.752503,183.235 104.2425,183.235 C103.722497,183.235 103.260002,183.354999 102.855,183.595 Z M112.3625,182.4775 C112.842502,182.182499 113.412497,182.03 114.0725,182.02 L114.0725,183.37 C113.262496,183.34 112.607503,183.549998 112.1075,184 C111.607498,184.450002 111.3225,185.054996 111.2525,185.815 L111.2525,190 L109.8575,190 L109.8575,182.065 L111.2525,182.065 L111.2525,183.775 C111.512501,183.204997 111.882498,182.772501 112.3625,182.4775 Z M119.4475,189.475 C118.837497,189.865002 118.217503,190.06 117.5875,190.06 C116.957497,190.06 116.447502,189.872502 116.0575,189.4975 C115.667498,189.122498 115.4725,188.555004 115.4725,187.795 L115.4725,183.4 L114.3475,183.4 L114.3475,182.335 L115.4725,182.335 L115.4725,180.205 L116.8825,180.205 L116.8825,182.335 L119.3125,182.335 L119.3125,183.4 L116.8825,183.4 L116.8825,187.54 C116.8825,187.980002 116.962499,188.294999 117.1225,188.485 C117.282501,188.675001 117.522498,188.77 117.8425,188.77 C118.222502,188.77 118.632498,188.645001 119.0725,188.395 L119.4475,189.475 Z M121.5,188.68 C121.655001,188.830001 121.7325,189.029999 121.7325,189.28 C121.7325,189.390001 121.71,189.504999 121.665,189.625 C121.62,189.745001 121.5725,189.859999 121.5225,189.97 L120.7125,191.68 L119.9475,191.68 L120.5475,189.985 C120.407499,189.915 120.3025,189.817501 120.2325,189.6925 C120.1625,189.567499 120.1275,189.430001 120.1275,189.28 C120.1275,189.039999 120.204999,188.842501 120.36,188.6875 C120.515001,188.532499 120.707499,188.455 120.9375,188.455 C121.157501,188.455 121.344999,188.529999 121.5,188.68 Z M31.72,206 L30.536,203.28 L24.632,203.28 L23.464,206 L21.848,206 L26.824,194.8 L28.424,194.8 L33.384,206 L31.72,206 Z M25.24,201.888 L29.944,201.888 L27.576,196.448 L25.24,201.888 Z M41.928,197.536 L41.928,206 L40.424,206 L40.424,204.208 C39.8693306,205.413339 38.8240077,206.026667 37.288,206.048 C36.3066618,206.048 35.5386694,205.757336 34.984,205.176 C34.4293306,204.594664 34.152,203.792005 34.152,202.768 L34.152,197.536 L35.656,197.536 L35.656,202.368 C35.656,203.08267 35.8506647,203.639998 36.24,204.04 C36.6293353,204.440002 37.1653299,204.64 37.848,204.64 C38.6373373,204.629333 39.2639977,204.349336 39.728,203.8 C40.1920023,203.250664 40.424,202.549338 40.424,201.696 L40.424,197.536 L41.928,197.536 Z M49.368,205.44 C48.7173301,205.856002 48.0560034,206.064 47.384,206.064 C46.7119966,206.064 46.1680021,205.864002 45.752,205.464 C45.3359979,205.063998 45.128,204.458671 45.128,203.648 L45.128,198.96 L43.928,198.96 L43.928,197.824 L45.128,197.824 L45.128,195.552 L46.632,195.552 L46.632,197.824 L49.224,197.824 L49.224,198.96 L46.632,198.96 L46.632,203.376 C46.632,203.845336 46.7173325,204.181332 46.888,204.384 C47.0586675,204.586668 47.314665,204.688 47.656,204.688 C48.0613354,204.688 48.4986643,204.554668 48.968,204.288 L49.368,205.44 Z M56.832,198.032 C57.4880033,198.394668 57.9999982,198.898663 58.368,199.544 C58.7360018,200.189337 58.92,200.927996 58.92,201.76 C58.92,202.592004 58.7360018,203.33333 58.368,203.984 C57.9999982,204.63467 57.4880033,205.141332 56.832,205.504 C56.1759967,205.866668 55.4266709,206.048 54.584,206.048 C53.7306624,206.048 52.9760033,205.866668 52.32,205.504 C51.6639967,205.141332 51.1520018,204.637337 50.784,203.992 C50.4159982,203.346663 50.232,202.602671 50.232,201.76 C50.232,200.927996 50.4159982,200.189337 50.784,199.544 C51.1520018,198.898663 51.6639967,198.394668 52.32,198.032 C52.9760033,197.669332 53.7306624,197.488 54.584,197.488 C55.4266709,197.488 56.1759967,197.669332 56.832,198.032 Z M53.104,199.168 C52.6719978,199.424001 52.3360012,199.778664 52.096,200.232 C51.8559988,200.685336 51.736,201.199997 51.736,201.776 C51.736,202.36267 51.8559988,202.885331 52.096,203.344 C52.3360012,203.802669 52.6719978,204.157332 53.104,204.408 C53.5360022,204.658668 54.0293306,204.784 54.584,204.784 C55.1280027,204.784 55.6159978,204.658668 56.048,204.408 C56.4800022,204.157332 56.8159988,203.802669 57.056,203.344 C57.2960012,202.885331 57.416,202.36267 57.416,201.776 C57.416,201.199997 57.2960012,200.685336 57.056,200.232 C56.8159988,199.778664 56.4800022,199.424001 56.048,199.168 C55.6159978,198.911999 55.1280027,198.784 54.584,198.784 C54.0293306,198.784 53.5360022,198.911999 53.104,199.168 Z M74.216,198.368 C74.7706694,198.95467 75.048,199.754662 75.048,200.768 L75.048,206 L73.544,206 L73.544,201.168 C73.544,200.45333 73.3493353,199.893335 72.96,199.488 C72.5706647,199.082665 72.0346701,198.88 71.352,198.88 C70.551996,198.901333 69.922669,199.183997 69.464,199.728 C69.005331,200.272003 68.776,200.970662 68.776,201.824 L68.776,206 L67.272,206 L67.272,201.168 C67.272,200.45333 67.0800019,199.893335 66.696,199.488 C66.3119981,199.082665 65.7733368,198.88 65.08,198.88 C64.279996,198.901333 63.6480023,199.183997 63.184,199.728 C62.7199977,200.272003 62.488,200.970662 62.488,201.824 L62.488,206 L61,206 L61,197.536 L62.488,197.536 L62.488,199.312 C63.0426694,198.117327 64.0933256,197.509333 65.64,197.488 C66.4186706,197.488 67.0666641,197.674665 67.584,198.048 C68.1013359,198.421335 68.4506658,198.943997 68.632,199.616 C69.1546693,198.21866 70.253325,197.509333 71.928,197.488 C72.8986715,197.488 73.6613306,197.78133 74.216,198.368 Z M83.472,198.032 C84.1280033,198.394668 84.6399982,198.898663 85.008,199.544 C85.3760018,200.189337 85.56,200.927996 85.56,201.76 C85.56,202.592004 85.3760018,203.33333 85.008,203.984 C84.6399982,204.63467 84.1280033,205.141332 83.472,205.504 C82.8159967,205.866668 82.0666709,206.048 81.224,206.048 C80.3706624,206.048 79.6160033,205.866668 78.96,205.504 C78.3039967,205.141332 77.7920018,204.637337 77.424,203.992 C77.0559982,203.346663 76.872,202.602671 76.872,201.76 C76.872,200.927996 77.0559982,200.189337 77.424,199.544 C77.7920018,198.898663 78.3039967,198.394668 78.96,198.032 C79.6160033,197.669332 80.3706624,197.488 81.224,197.488 C82.0666709,197.488 82.8159967,197.669332 83.472,198.032 Z M79.744,199.168 C79.3119978,199.424001 78.9760012,199.778664 78.736,200.232 C78.4959988,200.685336 78.376,201.199997 78.376,201.776 C78.376,202.36267 78.4959988,202.885331 78.736,203.344 C78.9760012,203.802669 79.3119978,204.157332 79.744,204.408 C80.1760022,204.658668 80.6693306,204.784 81.224,204.784 C81.7680027,204.784 82.2559978,204.658668 82.688,204.408 C83.1200022,204.157332 83.4559988,203.802669 83.696,203.344 C83.9360012,202.885331 84.056,202.36267 84.056,201.776 C84.056,201.199997 83.9360012,200.685336 83.696,200.232 C83.4559988,199.778664 83.1200022,199.424001 82.688,199.168 C82.2559978,198.911999 81.7680027,198.784 81.224,198.784 C80.6693306,198.784 80.1760022,198.911999 79.744,199.168 Z M92.184,205.44 C91.5333301,205.856002 90.8720034,206.064 90.2,206.064 C89.5279966,206.064 88.9840021,205.864002 88.568,205.464 C88.1519979,205.063998 87.944,204.458671 87.944,203.648 L87.944,198.96 L86.744,198.96 L86.744,197.824 L87.944,197.824 L87.944,195.552 L89.448,195.552 L89.448,197.824 L92.04,197.824 L92.04,198.96 L89.448,198.96 L89.448,203.376 C89.448,203.845336 89.5333325,204.181332 89.704,204.384 C89.8746675,204.586668 90.130665,204.688 90.472,204.688 C90.8773354,204.688 91.3146643,204.554668 91.784,204.288 L92.184,205.44 Z M93.992,197.536 L95.48,197.536 L95.48,206 L93.992,206 L93.992,197.536 Z M95.392,194.432 C95.5680009,194.613334 95.656,194.842665 95.656,195.12 C95.656,195.397335 95.5680009,195.626666 95.392,195.808 C95.2159991,195.989334 94.994668,196.08 94.728,196.08 C94.461332,196.08 94.2400009,195.989334 94.064,195.808 C93.8879991,195.626666 93.8,195.397335 93.8,195.12 C93.8,194.842665 93.8879991,194.613334 94.064,194.432 C94.2400009,194.250666 94.461332,194.16 94.728,194.16 C94.994668,194.16 95.2159991,194.250666 95.392,194.432 Z M96.968,197.536 L98.552,197.536 L101.096,204.528 L103.624,197.536 L105.128,197.536 L101.832,206 L100.28,206 L96.968,197.536 Z M112.616,198.648 C113.288003,199.421337 113.624,200.495993 113.624,201.872 C113.624,202.085334 113.618667,202.245333 113.608,202.352 L106.92,202.352 C107.037334,203.109337 107.354664,203.711998 107.872,204.16 C108.389336,204.608002 109.026663,204.832 109.784,204.832 C110.285336,204.832 110.751998,204.741334 111.184,204.56 C111.616002,204.378666 111.991998,204.122668 112.312,203.792 L113.128,204.64 C112.711998,205.088002 112.21067,205.434665 111.624,205.68 C111.03733,205.925335 110.38667,206.048 109.672,206.048 C108.839996,206.048 108.101337,205.869335 107.456,205.512 C106.810663,205.154665 106.309335,204.65067 105.952,204 C105.594665,203.34933 105.416,202.608004 105.416,201.776 C105.416,200.943996 105.594665,200.205337 105.952,199.56 C106.309335,198.914663 106.807997,198.408002 107.448,198.04 C108.088003,197.671998 108.818663,197.488 109.64,197.488 C110.952007,197.488 111.943997,197.874663 112.616,198.648 Z M112.28,201.2 C112.237333,200.431996 111.981336,199.826669 111.512,199.384 C111.042664,198.941331 110.424004,198.72 109.656,198.72 C108.90933,198.72 108.288002,198.943998 107.792,199.392 C107.295998,199.840002 107,200.442663 106.904,201.2 L112.28,201.2 Z" id="Road-transport,-Auto" fill="#000066"></path>
                <path d="M176.76,197.4 L185.508,197.4 L185.508,198.966 L178.488,198.966 L178.488,202.854 L184.77,202.854 L184.77,204.42 L178.488,204.42 L178.488,208.434 L185.724,208.434 L185.724,210 L176.76,210 L176.76,197.4 Z M187.272,200.478 L189.216,200.478 L191.574,203.97 L193.968,200.478 L195.822,200.478 L192.69,205.122 L196.056,210 L194.094,210 L191.574,206.256 L188.928,210 L187.038,210 L190.458,205.122 L187.272,200.478 Z M205.74,201.036 C206.436003,201.444002 206.975998,202.013996 207.36,202.746 C207.744002,203.478004 207.936,204.317995 207.936,205.266 C207.936,206.202005 207.747002,207.032996 207.369,207.759 C206.990998,208.485004 206.457003,209.048998 205.767,209.451 C205.076997,209.853002 204.288004,210.054 203.4,210.054 C202.595996,210.054 201.888003,209.886002 201.276,209.55 C200.663997,209.213998 200.184002,208.734003 199.836,208.11 L199.836,213.492 L198.162,213.492 L198.162,200.478 L199.836,200.478 L199.836,202.368 C200.184002,201.743997 200.660997,201.264002 201.267,200.928 C201.873003,200.591998 202.571996,200.424 203.364,200.424 C204.252004,200.424 205.043997,200.627998 205.74,201.036 Z M204.687,208.164 C205.173002,207.875999 205.550999,207.474003 205.821,206.958 C206.091001,206.441997 206.226,205.860003 206.226,205.212 C206.226,204.575997 206.088001,204.000003 205.812,203.484 C205.535999,202.967997 205.158002,202.566001 204.678,202.278 C204.197998,201.989999 203.652003,201.846 203.04,201.846 C202.427997,201.846 201.879002,201.989999 201.393,202.278 C200.906998,202.566001 200.526001,202.967997 200.25,203.484 C199.973999,204.000003 199.836,204.575997 199.836,205.212 C199.836,205.872003 199.973999,206.456997 200.25,206.967 C200.526001,207.477003 200.906998,207.875999 201.393,208.164 C201.879002,208.452001 202.427997,208.596 203.04,208.596 C203.652003,208.596 204.200998,208.452001 204.687,208.164 Z M217.44,201.729 C218.196004,202.599004 218.574,203.807992 218.574,205.356 C218.574,205.596001 218.568,205.775999 218.556,205.896 L211.032,205.896 C211.164001,206.748004 211.520997,207.425997 212.103,207.93 C212.685003,208.434003 213.401996,208.686 214.254,208.686 C214.818003,208.686 215.342998,208.584001 215.829,208.38 C216.315002,208.175999 216.737998,207.888002 217.098,207.516 L218.016,208.47 C217.547998,208.974003 216.984003,209.363999 216.324,209.64 C215.663997,209.916001 214.932004,210.054 214.128,210.054 C213.191995,210.054 212.361004,209.853002 211.635,209.451 C210.908996,209.048998 210.345002,208.482004 209.943,207.75 C209.540998,207.017996 209.34,206.184005 209.34,205.248 C209.34,204.311995 209.540998,203.481004 209.943,202.755 C210.345002,202.028996 210.905996,201.459002 211.626,201.045 C212.346004,200.630998 213.167995,200.424 214.092,200.424 C215.568007,200.424 216.683996,200.858996 217.44,201.729 Z M217.062,204.6 C217.014,203.735996 216.726003,203.055002 216.198,202.557 C215.669997,202.058998 214.974004,201.81 214.11,201.81 C213.269996,201.81 212.571003,202.061997 212.013,202.566 C211.454997,203.070003 211.122001,203.747996 211.014,204.6 L217.062,204.6 Z M223.866,200.973 C224.442003,200.618998 225.125996,200.436 225.918,200.424 L225.918,202.044 C224.945995,202.008 224.160003,202.259997 223.56,202.8 C222.959997,203.340003 222.618,204.065995 222.534,204.978 L222.534,210 L220.86,210 L220.86,200.478 L222.534,200.478 L222.534,202.53 C222.846002,201.845997 223.289997,201.327002 223.866,200.973 Z M232.848,209.37 C232.115996,209.838002 231.372004,210.072 230.616,210.072 C229.859996,210.072 229.248002,209.847002 228.78,209.397 C228.311998,208.946998 228.078,208.266005 228.078,207.354 L228.078,202.08 L226.728,202.08 L226.728,200.802 L228.078,200.802 L228.078,198.246 L229.77,198.246 L229.77,200.802 L232.686,200.802 L232.686,202.08 L229.77,202.08 L229.77,207.048 C229.77,207.576003 229.865999,207.953999 230.058,208.182 C230.250001,208.410001 230.537998,208.524 230.922,208.524 C231.378002,208.524 231.869997,208.374001 232.398,208.074 L232.848,209.37 Z M234.882,200.478 L236.556,200.478 L236.556,210 L234.882,210 L234.882,200.478 Z M236.457,196.986 C236.655001,197.190001 236.754,197.447998 236.754,197.76 C236.754,198.072002 236.655001,198.329999 236.457,198.534 C236.258999,198.738001 236.010001,198.84 235.71,198.84 C235.409999,198.84 235.161001,198.738001 234.963,198.534 C234.764999,198.329999 234.666,198.072002 234.666,197.76 C234.666,197.447998 234.764999,197.190001 234.963,196.986 C235.161001,196.781999 235.409999,196.68 235.71,196.68 C236.010001,196.68 236.258999,196.781999 236.457,196.986 Z M243.711,202.008 C243.236998,201.863999 242.784002,201.792 242.352,201.792 C241.847997,201.792 241.443002,201.884999 241.137,202.071 C240.830998,202.257001 240.678,202.541998 240.678,202.926 C240.678,203.310002 240.848998,203.600999 241.191,203.799 C241.533002,203.997001 242.051997,204.197999 242.748,204.402 C243.408003,204.594001 243.947998,204.785999 244.368,204.978 C244.788002,205.170001 245.144999,205.451998 245.439,205.824 C245.733001,206.196002 245.88,206.687997 245.88,207.3 C245.88,208.200005 245.541003,208.883998 244.863,209.352 C244.184997,209.820002 243.342005,210.054 242.334,210.054 C241.625996,210.054 240.939003,209.940001 240.273,209.712 C239.606997,209.483999 239.046002,209.160002 238.59,208.74 L239.22,207.516 C239.616002,207.876002 240.104997,208.163999 240.687,208.38 C241.269003,208.596001 241.835997,208.704 242.388,208.704 C242.940003,208.704 243.383998,208.602001 243.72,208.398 C244.056002,208.193999 244.224,207.882002 244.224,207.462 C244.224,207.029998 244.047002,206.706001 243.693,206.49 C243.338998,206.273999 242.802004,206.058001 242.082,205.842 C241.445997,205.661999 240.927002,205.479001 240.525,205.293 C240.122998,205.106999 239.781001,204.834002 239.499,204.474 C239.216999,204.113998 239.076,203.646003 239.076,203.07 C239.076,202.181996 239.399997,201.516002 240.048,201.072 C240.696003,200.627998 241.505995,200.406 242.478,200.406 C243.054003,200.406 243.620997,200.486999 244.179,200.649 C244.737003,200.811001 245.219998,201.029999 245.628,201.306 L245.016,202.584 C244.619998,202.343999 244.185002,202.152001 243.711,202.008 Z M255.258,201.729 C256.014004,202.599004 256.392,203.807992 256.392,205.356 C256.392,205.596001 256.386,205.775999 256.374,205.896 L248.85,205.896 C248.982001,206.748004 249.338997,207.425997 249.921,207.93 C250.503003,208.434003 251.219996,208.686 252.072,208.686 C252.636003,208.686 253.160998,208.584001 253.647,208.38 C254.133002,208.175999 254.555998,207.888002 254.916,207.516 L255.834,208.47 C255.365998,208.974003 254.802003,209.363999 254.142,209.64 C253.481997,209.916001 252.750004,210.054 251.946,210.054 C251.009995,210.054 250.179004,209.853002 249.453,209.451 C248.726996,209.048998 248.163002,208.482004 247.761,207.75 C247.358998,207.017996 247.158,206.184005 247.158,205.248 C247.158,204.311995 247.358998,203.481004 247.761,202.755 C248.163002,202.028996 248.723996,201.459002 249.444,201.045 C250.164004,200.630998 250.985995,200.424 251.91,200.424 C253.386007,200.424 254.501996,200.858996 255.258,201.729 Z M254.88,204.6 C254.832,203.735996 254.544003,203.055002 254.016,202.557 C253.487997,202.058998 252.792004,201.81 251.928,201.81 C251.087996,201.81 250.389003,202.061997 249.831,202.566 C249.272997,203.070003 248.940001,203.747996 248.832,204.6 L254.88,204.6 Z M167.724,234 L167.724,232.668 C167.015996,233.604005 165.906008,234.072 164.394,234.072 C163.733997,234.072 163.155002,233.946001 162.657,233.694 C162.158998,233.441999 161.775001,233.094002 161.505,232.65 C161.234999,232.205998 161.1,231.708003 161.1,231.156 C161.1,230.303996 161.414997,229.629002 162.045,229.131 C162.675003,228.632998 163.553994,228.378 164.682,228.366 L167.706,228.366 L167.706,227.916 C167.706,227.243997 167.499002,226.725002 167.085,226.359 C166.670998,225.992998 166.068004,225.81 165.276,225.81 C164.315995,225.81 163.338005,226.151997 162.342,226.836 L161.64,225.684 C162.324003,225.239998 162.956997,224.919001 163.539,224.721 C164.121003,224.522999 164.813996,224.424 165.618,224.424 C166.806006,224.424 167.723997,224.714997 168.372,225.297 C169.020003,225.879003 169.35,226.691995 169.362,227.736 L169.38,234 L167.724,234 Z M166.725,232.119 C167.271003,231.740998 167.597999,231.240003 167.706,230.616 L167.706,229.662 L164.916,229.662 C164.159996,229.662 163.599002,229.775999 163.233,230.004 C162.866998,230.232001 162.684,230.591998 162.684,231.084 C162.684,231.576002 162.869998,231.965999 163.242,232.254 C163.614002,232.542001 164.111997,232.686 164.736,232.686 C165.516004,232.686 166.178997,232.497002 166.725,232.119 Z M180.288,225.405 C180.924003,226.059003 181.242,226.961994 181.242,228.114 L181.242,234 L179.568,234 L179.568,228.564 C179.568,227.759996 179.343002,227.133002 178.893,226.683 C178.442998,226.232998 177.822004,226.008 177.03,226.008 C176.177996,226.02 175.485003,226.292997 174.951,226.827 C174.416997,227.361003 174.114,228.053996 174.042,228.906 L174.042,234 L172.368,234 L172.368,224.478 L174.042,224.478 L174.042,226.494 C174.678003,225.137993 175.883991,224.448 177.66,224.424 C178.776006,224.424 179.651997,224.750997 180.288,225.405 Z M193.104,220.644 L193.104,234 L191.43,234 L191.43,232.11 C191.069998,232.746003 190.587003,233.234998 189.981,233.577 C189.374997,233.919002 188.670004,234.09 187.866,234.09 C186.965996,234.09 186.171003,233.883002 185.481,233.469 C184.790997,233.054998 184.254002,232.479004 183.87,231.741 C183.485998,231.002996 183.294,230.160005 183.294,229.212 C183.294,228.275995 183.485998,227.445004 183.87,226.719 C184.254002,225.992996 184.790997,225.426002 185.481,225.018 C186.171003,224.609998 186.959996,224.406 187.848,224.406 C188.664004,224.406 189.377997,224.573998 189.99,224.91 C190.602003,225.246002 191.081998,225.731997 191.43,226.368 L191.43,220.644 L193.104,220.644 Z M189.873,232.218 C190.359002,231.929999 190.739999,231.528003 191.016,231.012 C191.292001,230.495997 191.43,229.914003 191.43,229.266 C191.43,228.605997 191.292001,228.018003 191.016,227.502 C190.739999,226.985997 190.359002,226.584001 189.873,226.296 C189.386998,226.007999 188.832003,225.864 188.208,225.864 C187.583997,225.864 187.029002,226.010999 186.543,226.305 C186.056998,226.599001 185.676001,227.003997 185.4,227.52 C185.123999,228.036003 184.986,228.617997 184.986,229.266 C184.986,229.914003 185.123999,230.495997 185.4,231.012 C185.676001,231.528003 186.056998,231.929999 186.543,232.218 C187.029002,232.506001 187.583997,232.65 188.208,232.65 C188.832003,232.65 189.386998,232.506001 189.873,232.218 Z M216.054,225.414 C216.678003,226.074003 216.99,226.973994 216.99,228.114 L216.99,234 L215.298,234 L215.298,228.564 C215.298,227.759996 215.079002,227.130002 214.641,226.674 C214.202998,226.217998 213.600004,225.99 212.832,225.99 C211.931995,226.014 211.224003,226.331997 210.708,226.944 C210.191997,227.556003 209.934,228.341995 209.934,229.302 L209.934,234 L208.242,234 L208.242,228.564 C208.242,227.759996 208.026002,227.130002 207.594,226.674 C207.161998,226.217998 206.556004,225.99 205.776,225.99 C204.875995,226.014 204.165003,226.331997 203.643,226.944 C203.120997,227.556003 202.86,228.341995 202.86,229.302 L202.86,234 L201.186,234 L201.186,224.478 L202.86,224.478 L202.86,226.476 C203.484003,225.131993 204.665991,224.448 206.406,224.424 C207.282004,224.424 208.010997,224.633998 208.593,225.054 C209.175003,225.474002 209.567999,226.061996 209.772,226.818 C210.360003,225.245992 211.595991,224.448 213.48,224.424 C214.572005,224.424 215.429997,224.753997 216.054,225.414 Z M225.792,234 L225.792,232.668 C225.083996,233.604005 223.974008,234.072 222.462,234.072 C221.801997,234.072 221.223002,233.946001 220.725,233.694 C220.226998,233.441999 219.843001,233.094002 219.573,232.65 C219.302999,232.205998 219.168,231.708003 219.168,231.156 C219.168,230.303996 219.482997,229.629002 220.113,229.131 C220.743003,228.632998 221.621994,228.378 222.75,228.366 L225.774,228.366 L225.774,227.916 C225.774,227.243997 225.567002,226.725002 225.153,226.359 C224.738998,225.992998 224.136004,225.81 223.344,225.81 C222.383995,225.81 221.406005,226.151997 220.41,226.836 L219.708,225.684 C220.392003,225.239998 221.024997,224.919001 221.607,224.721 C222.189003,224.522999 222.881996,224.424 223.686,224.424 C224.874006,224.424 225.791997,224.714997 226.44,225.297 C227.088003,225.879003 227.418,226.691995 227.43,227.736 L227.448,234 L225.792,234 Z M224.793,232.119 C225.339003,231.740998 225.665999,231.240003 225.774,230.616 L225.774,229.662 L222.984,229.662 C222.227996,229.662 221.667002,229.775999 221.301,230.004 C220.934998,230.232001 220.752,230.591998 220.752,231.084 C220.752,231.576002 220.937998,231.965999 221.31,232.254 C221.682002,232.542001 222.179997,232.686 222.804,232.686 C223.584004,232.686 224.246997,232.497002 224.793,232.119 Z M233.442,224.973 C234.018003,224.618998 234.701996,224.436 235.494,224.424 L235.494,226.044 C234.521995,226.008 233.736003,226.259997 233.136,226.8 C232.535997,227.340003 232.194,228.065995 232.11,228.978 L232.11,234 L230.436,234 L230.436,224.478 L232.11,224.478 L232.11,226.53 C232.422002,225.845997 232.865997,225.327002 233.442,224.973 Z M243.972,234 L240.93,229.374 L239.076,231.3 L239.076,234 L237.402,234 L237.402,220.644 L239.076,220.644 L239.076,229.158 L243.684,224.478 L245.646,224.478 L242.1,228.168 L245.988,234 L243.972,234 Z M254.52,225.729 C255.276004,226.599004 255.654,227.807992 255.654,229.356 C255.654,229.596001 255.648,229.775999 255.636,229.896 L248.112,229.896 C248.244001,230.748004 248.600997,231.425997 249.183,231.93 C249.765003,232.434003 250.481996,232.686 251.334,232.686 C251.898003,232.686 252.422998,232.584001 252.909,232.38 C253.395002,232.175999 253.817998,231.888002 254.178,231.516 L255.096,232.47 C254.627998,232.974003 254.064003,233.363999 253.404,233.64 C252.743997,233.916001 252.012004,234.054 251.208,234.054 C250.271995,234.054 249.441004,233.853002 248.715,233.451 C247.988996,233.048998 247.425002,232.482004 247.023,231.75 C246.620998,231.017996 246.42,230.184005 246.42,229.248 C246.42,228.311995 246.620998,227.481004 247.023,226.755 C247.425002,226.028996 247.985996,225.459002 248.706,225.045 C249.426004,224.630998 250.247995,224.424 251.172,224.424 C252.648007,224.424 253.763996,224.858996 254.52,225.729 Z M254.142,228.6 C254.094,227.735996 253.806003,227.055002 253.278,226.557 C252.749997,226.058998 252.054004,225.81 251.19,225.81 C250.349996,225.81 249.651003,226.061997 249.093,226.566 C248.534997,227.070003 248.202001,227.747996 248.094,228.6 L254.142,228.6 Z M263.052,233.37 C262.319996,233.838002 261.576004,234.072 260.82,234.072 C260.063996,234.072 259.452002,233.847002 258.984,233.397 C258.515998,232.946998 258.282,232.266005 258.282,231.354 L258.282,226.08 L256.932,226.08 L256.932,224.802 L258.282,224.802 L258.282,222.246 L259.974,222.246 L259.974,224.802 L262.89,224.802 L262.89,226.08 L259.974,226.08 L259.974,231.048 C259.974,231.576003 260.069999,231.953999 260.262,232.182 C260.454001,232.410001 260.741998,232.524 261.126,232.524 C261.582002,232.524 262.073997,232.374001 262.602,232.074 L263.052,233.37 Z M268.983,226.008 C268.508998,225.863999 268.056002,225.792 267.624,225.792 C267.119997,225.792 266.715002,225.884999 266.409,226.071 C266.102998,226.257001 265.95,226.541998 265.95,226.926 C265.95,227.310002 266.120998,227.600999 266.463,227.799 C266.805002,227.997001 267.323997,228.197999 268.02,228.402 C268.680003,228.594001 269.219998,228.785999 269.64,228.978 C270.060002,229.170001 270.416999,229.451998 270.711,229.824 C271.005001,230.196002 271.152,230.687997 271.152,231.3 C271.152,232.200005 270.813003,232.883998 270.135,233.352 C269.456997,233.820002 268.614005,234.054 267.606,234.054 C266.897996,234.054 266.211003,233.940001 265.545,233.712 C264.878997,233.483999 264.318002,233.160002 263.862,232.74 L264.492,231.516 C264.888002,231.876002 265.376997,232.163999 265.959,232.38 C266.541003,232.596001 267.107997,232.704 267.66,232.704 C268.212003,232.704 268.655998,232.602001 268.992,232.398 C269.328002,232.193999 269.496,231.882002 269.496,231.462 C269.496,231.029998 269.319002,230.706001 268.965,230.49 C268.610998,230.273999 268.074004,230.058001 267.354,229.842 C266.717997,229.661999 266.199002,229.479001 265.797,229.293 C265.394998,229.106999 265.053001,228.834002 264.771,228.474 C264.488999,228.113998 264.348,227.646003 264.348,227.07 C264.348,226.181996 264.671997,225.516002 265.32,225.072 C265.968003,224.627998 266.777995,224.406 267.75,224.406 C268.326003,224.406 268.892997,224.486999 269.451,224.649 C270.009003,224.811001 270.491998,225.029999 270.9,225.306 L270.288,226.584 C269.891998,226.343999 269.457002,226.152001 268.983,226.008 Z" id="Expertise-and-market" fill="#000066"></path>
                <g id="Ferroviaire" transform="translate(198.000000, 40.000000)">
                    <path d="M43.0912,29.5307 L9.9032,29.5307 C3.5182,29.5307 -1.1958,23.1747 1.0822,17.2097 C1.0892,17.1907 1.1122,17.1377 1.1502,17.0547 C3.2562,12.3987 6.6932,8.4707 11.0082,5.7327 L12.7932,4.5997 C17.0132,1.9227 21.9072,0.5007 26.9052,0.5007 L43.0912,0.5007 L43.0912,29.5307 Z" id="Stroke-1" stroke="#000066"></path>
                    <path d="M38.2601,19.9135 L38.2601,16.1645" id="Stroke-3" stroke="#000066" stroke-width="0.5" stroke-linecap="round"></path>
                    <path d="M19.5116,16.1644 L12.0116,16.1644" id="Stroke-5" stroke="#000066" stroke-width="0.5" stroke-linecap="round"></path>
                    <path d="M10.1371,16.1644 L8.2621,16.1644" id="Stroke-7" stroke="#000066" stroke-width="0.5" stroke-linecap="round"></path>
                    <path d="M14.6815,3.5092 L43.0915,3.5092" id="Stroke-9" stroke="#000066"></path>
                    <path d="M27.2269,13.2006 L27.2269,17.3356 C27.2269,19.9246 25.1289,22.0226 22.5399,22.0226 L0.7469,22.0226" id="Stroke-11" stroke="#000066" stroke-width="0.5" stroke-linecap="round"></path>
                    <path d="M9.1996,7.0775 L18.7496,7.0775 C21.3376,7.0775 23.4366,9.1765 23.4366,11.7645 L23.4366,14.4085 C23.4366,16.9975 21.3376,19.0965 18.7496,19.0965 L0.7476,19.0965" id="Stroke-13" stroke="#000066"></path>
                    <path d="M43.5502,7.0775 L35.7922,7.0775 C33.2032,7.0775 31.1052,9.1765 31.1052,11.7645 L31.1052,29.5305" id="Stroke-15" stroke="#000066"></path>
                    <path d="M40.7792,7.0775 L40.7792,29.5305" id="Stroke-17" stroke="#000066"></path>
                    <mask id="mask-12" fill="white">
                        <use xlink:href="#path-11"></use>
                    </mask>
                    <g id="Clip-20"></g>
                    <polygon id="Stroke-19" stroke="#000066" mask="url(#mask-12)" points="0.907 32.5 43.091 32.5 43.091 29.687 0.907 29.687"></polygon>
                </g>
                <g id="Naval" transform="translate(342.000000, 143.000000)">
                    <path d="M46.9166,25.7468 C52.3876,23.0878 58.9606,15.0698 58.9606,15.0698 L4.0556,15.0698 L10.1236,27.4038" id="Stroke-1" stroke="#000066"></path>
                    <path d="M9.3262,15.0701 L11.1742,5.8721 L31.4372,5.8721 C34.0662,5.8721 36.5282,7.1641 38.0212,9.3291 L41.9832,15.0701" id="Stroke-3" stroke="#000066"></path>
                    <g id="Group-7" transform="translate(15.000000, 0.170600)" stroke="#000066">
                        <path d="M0.8092,5.5948 L0.8092,0.8288" id="Stroke-5"></path>
                    </g>
                    <path d="M18.46,5.7654 L18.46,2.7774" id="Stroke-8" stroke="#000066"></path>
                    <polyline id="Stroke-10" stroke="#000066" points="37.17 8.3122 28.461 8.3122 28.461 12.2152 39.734 12.2152"></polyline>
                    <mask id="mask-14" fill="white">
                        <use xlink:href="#path-13"></use>
                    </mask>
                    <g id="Clip-13"></g>
                    <polygon id="Stroke-12" stroke="#000066" mask="url(#mask-14)" points="22.289 12.2156 25.953 12.2156 25.953 8.3126 22.289 8.3126"></polygon>
                    <path d="M55.522,19.4167 L36.051,19.4167" id="Stroke-14" stroke="#000066" stroke-width="0.5" mask="url(#mask-14)"></path>
                    <path d="M33.8468,19.4167 L30.3488,19.4167" id="Stroke-15" stroke="#000066" stroke-width="0.5" mask="url(#mask-14)"></path>
                    <path d="M49.587,23.7624 L8.698,23.7624" id="Stroke-16" stroke="#000066" stroke-width="0.5" mask="url(#mask-14)"></path>
                    <path d="M0.5001,26.3367 C1.6301,24.8027 3.8841,24.6967 5.1531,26.1177 L6.0021,27.0677 C7.2661,28.4827 9.5081,28.3857 10.6441,26.8657 L11.0521,26.3187 C12.1911,24.7937 14.4451,24.7017 15.7051,26.1297 L16.5231,27.0567 C17.7781,28.4787 20.0201,28.3947 21.1641,26.8827 L21.6041,26.3027 C22.7521,24.7847 25.0051,24.7067 26.2561,26.1417 L27.0441,27.0447 C28.2901,28.4727 30.5311,28.4017 31.6851,26.8987 L32.1551,26.2857 C33.3131,24.7767 35.5651,24.7127 36.8071,26.1527 L37.5651,27.0317 C38.8021,28.4667 41.0421,28.4097 42.2051,26.9147 L42.7071,26.2707 C43.8751,24.7687 46.1261,24.7187 47.3591,26.1657 L48.0851,27.0197 C49.3131,28.4607 51.5541,28.4177 52.7261,26.9307 L53.2591,26.2547 C54.4361,24.7617 56.6871,24.7247 57.9111,26.1797 L58.6061,27.0067" id="Stroke-17" stroke="#000066" stroke-linecap="round" mask="url(#mask-14)"></path>
                    <path d="M10.6436,30.4626 L11.0516,29.9166 C12.1906,28.3916 14.4446,28.2986 15.7046,29.7266 L16.5226,30.6536 C17.7776,32.0746 20.0196,31.9906 21.1646,30.4796 L21.6036,29.8996 C22.7516,28.3826 25.0046,28.3046 26.2556,29.7376 L27.0436,30.6426 C28.2896,32.0696 30.5306,31.9996 31.6846,30.4956 L32.1556,29.8836 C33.3136,28.3736 35.5656,28.3106 36.8076,29.7506 L37.5646,30.6296 C38.8016,32.0646 41.0426,32.0076 42.2056,30.5126 L42.7066,29.8666 C43.8746,28.3656 46.1256,28.3166 47.3586,29.7636 L48.0856,30.6166" id="Stroke-18" stroke="#000066" stroke-linecap="round" mask="url(#mask-14)"></path>
                </g>
                <g id="Aeronautique" transform="translate(104.000000, 320.000000)">
                    <path d="M11.1989091,7.95030303 L9.38436364,6.1369697 L11.7625455,3.27878788 C11.9831515,3.01333333 12.2340606,2.77454545 12.5092121,2.56969697 L13.2195152,2.04 L15.2134545,4.03515152 L14.6013333,4.84848485 C14.4195152,5.08969697 14.2134545,5.31030303 13.9867879,5.50909091 L11.1989091,7.95030303 Z" id="Stroke-1" stroke="#000066" stroke-width="0.5" stroke-linecap="round" stroke-linejoin="round"></path>
                    <path d="M12.1996364,2.98581818 L14.3087273,5.09490909" id="Stroke-3" stroke="#000066" stroke-width="0.5" stroke-linecap="round" stroke-linejoin="round"></path>
                    <path d="M18.5035152,9.23454545 L16.6889697,7.42 L19.0671515,4.56181818 C19.2877576,4.29757576 19.5386667,4.05878788 19.8138182,3.85393939 L20.5241212,3.3230303 L22.5180606,5.31939394 L21.9059394,6.13151515 C21.7241212,6.37393939 21.5180606,6.59454545 21.2913939,6.79333333 L18.5035152,9.23454545 Z" id="Stroke-5" stroke="#000066" stroke-width="0.5" stroke-linecap="round" stroke-linejoin="round"></path>
                    <path d="M19.5043636,4.27006061 L21.6134545,6.37793939" id="Stroke-7" stroke="#000066" stroke-width="0.5" stroke-linecap="round" stroke-linejoin="round"></path>
                    <g id="Group-12" transform="translate(2.424242, 3.636364)">
                        <polyline id="Fill-9" fill="#FFFFFF" points="25.2093333 3.67939394 2.26751515 0.367878788 0.468727273 2.16545455 14.0214545 9.82363636 16.1244848 12.0309091"></polyline>
                        <polyline id="Stroke-11" stroke="#000066" stroke-linecap="round" stroke-linejoin="round" points="25.2093333 3.67939394 2.26751515 0.367878788 0.468727273 2.16545455 14.0214545 9.82363636 16.1244848 12.0309091"></polyline>
                    </g>
                    <g id="Group-16" transform="translate(15.757576, 10.909091)">
                        <path d="M2.32339394,0.954545455 L0.688242424,2.58969697" id="Fill-13" fill="#FFFFFF"></path>
                        <path d="M2.32339394,0.954545455 L0.688242424,2.58969697" id="Stroke-15" stroke="#000066" stroke-width="0.5" stroke-linecap="round" stroke-linejoin="round"></path>
                    </g>
                    <g id="Group-20" transform="translate(12.121212, 8.484848)">
                        <path d="M1.97187879,1.02557576 L0.336727273,2.66072727" id="Fill-17" fill="#FFFFFF"></path>
                        <path d="M1.97187879,1.02557576 L0.336727273,2.66072727" id="Stroke-19" stroke="#000066" stroke-width="0.5" stroke-linecap="round" stroke-linejoin="round"></path>
                    </g>
                    <g id="Group-24" transform="translate(7.272727, 6.060606)">
                        <path d="M2.73175758,1.19721212 L1.09660606,2.83236364" id="Fill-21" fill="#FFFFFF"></path>
                        <path d="M2.73175758,1.19721212 L1.09660606,2.83236364" id="Stroke-23" stroke="#000066" stroke-width="0.5" stroke-linecap="round" stroke-linejoin="round"></path>
                    </g>
                    <path d="M31.6889697,28.4403636 L33.5035152,30.253697 L36.3604848,27.8767273 C36.6259394,27.6573333 36.8635152,27.4052121 37.0695758,27.1300606 L37.5992727,26.4209697 L35.6041212,24.4246061 L34.7907879,25.0379394 C34.5495758,25.2197576 34.3277576,25.4258182 34.1289697,25.6524848 L31.6889697,28.4403636 Z" id="Stroke-25" stroke="#000066" stroke-width="0.5" stroke-linecap="round" stroke-linejoin="round"></path>
                    <path d="M36.6534545,27.4389091 L34.5443636,25.3310303" id="Stroke-27" stroke="#000066" stroke-width="0.5" stroke-linecap="round" stroke-linejoin="round"></path>
                    <path d="M30.4052121,21.1356364 L32.2197576,22.9489697 L35.0767273,20.572 C35.3421818,20.3526061 35.5797576,20.1004848 35.7858182,19.8253333 L36.3155152,19.1162424 L34.3203636,17.1198788 L33.5070303,17.7332121 C33.2658182,17.9150303 33.044,18.1210909 32.8452121,18.3477576 L30.4052121,21.1356364 Z" id="Stroke-29" stroke="#000066" stroke-width="0.5" stroke-linecap="round" stroke-linejoin="round"></path>
                    <path d="M35.369697,20.1341818 L33.2606061,18.026303" id="Stroke-31" stroke="#000066" stroke-width="0.5" stroke-linecap="round" stroke-linejoin="round"></path>
                    <g id="Group-36" transform="translate(23.030303, 10.909091)">
                        <polyline id="Fill-33" fill="#FFFFFF" points="9.29369697 1.09660606 12.6052121 24.0396364 10.8076364 25.836 3.14824242 12.2844848 0.940969697 10.1814545"></polyline>
                        <polyline id="Stroke-35" stroke="#000066" stroke-linecap="round" stroke-linejoin="round" points="9.29369697 1.09660606 12.6052121 24.0396364 10.8076364 25.836 3.14824242 12.2844848 0.940969697 10.1814545"></polyline>
                    </g>
                    <g id="Group-40" transform="translate(25.454545, 20.606061)">
                        <path d="M2.3209697,0.952121212 L0.687030303,2.58727273" id="Fill-37" fill="#FFFFFF"></path>
                        <path d="M2.3209697,0.952121212 L0.687030303,2.58727273" id="Stroke-39" stroke="#000066" stroke-width="0.5" stroke-linecap="round" stroke-linejoin="round"></path>
                    </g>
                    <g id="Group-44" transform="translate(27.878788, 25.454545)">
                        <path d="M2.24993939,0.0916363636 L0.616,1.72678788" id="Fill-41" fill="#FFFFFF"></path>
                        <path d="M2.24993939,0.0916363636 L0.616,1.72678788" id="Stroke-43" stroke="#000066" stroke-width="0.5" stroke-linecap="round" stroke-linejoin="round"></path>
                    </g>
                    <g id="Group-48" transform="translate(30.303030, 29.090909)">
                        <path d="M2.07830303,0.543757576 L0.443151515,2.17890909" id="Fill-45" fill="#FFFFFF"></path>
                        <path d="M2.07830303,0.543757576 L0.443151515,2.17890909" id="Stroke-47" stroke="#000066" stroke-width="0.5" stroke-linecap="round" stroke-linejoin="round"></path>
                    </g>
                    <path d="M17.1647273,26.7973333 C17.8532121,26.3524848 18.4932121,25.8361212 19.0726061,25.2567273 L35.4932121,8.83733333 C36.6241212,7.69672727 37.6326061,6.12218182 38.2883636,4.72460606 C39.0907879,3.00581818 39.1574545,1.74036364 38.4774545,1.06521212 C37.7962424,0.390060606 36.5368485,0.460363636 34.8301818,1.27006061 C33.4398788,1.93187879 31.9283636,3.01309091 30.7865455,4.16218182 L14.4168485,20.5318788 C13.8010909,21.1488485 13.2556364,21.8324848 12.7926061,22.5730909 L7.27624242,31.3864242 C7.08109091,31.6991515 7.12715152,32.1052121 7.3889697,32.3646061 C7.65078788,32.6264242 8.06048485,32.6688485 8.37321212,32.4688485 L17.1647273,26.7973333 Z" id="Stroke-49" stroke="#000066" stroke-linecap="round"></path>
                    <polyline id="Stroke-51" stroke="#000066" stroke-linecap="round" stroke-linejoin="round" points="11.3042424 24.9105455 2.24848485 23.0269091 0.606060606 24.6705455 8.26545455 29.1250909"></polyline>
                    <path d="M6.95345455,25.7888485 L5.31830303,27.424" id="Stroke-53" stroke="#000066" stroke-width="0.5" stroke-linecap="round" stroke-linejoin="round"></path>
                    <polyline id="Stroke-55" stroke="#000066" stroke-linecap="round" stroke-linejoin="round" points="15.0890909 28.696 16.9727273 37.7517576 15.330303 39.3941818 10.8757576 31.7347879"></polyline>
                    <path d="M14.2113939,33.0461818 L12.5762424,34.6813333" id="Stroke-57" stroke="#000066" stroke-width="0.5" stroke-linecap="round" stroke-linejoin="round"></path>
                    <path d="M35.5573333,0.962787879 L38.6482424,4.05369697" id="Stroke-59" stroke="#000066" stroke-width="0.5" stroke-linecap="round" stroke-linejoin="round"></path>
                    <path d="M16.3344242,20.1850909 L19.4253333,23.276" id="Stroke-61" stroke="#000066" stroke-width="0.5" stroke-linecap="round" stroke-linejoin="round"></path>
                    <path d="M14.3421818,20.5544242 L19.0573333,25.2695758" id="Stroke-63" stroke="#000066" stroke-width="0.5" stroke-linecap="round" stroke-linejoin="round"></path>
                    <path d="M16.8930909,18.0035152 L21.6082424,22.7186667" id="Stroke-65" stroke="#000066" stroke-width="0.5" stroke-linecap="round" stroke-linejoin="round"></path>
                </g>
                <g id="Stationnaire" transform="translate(298.000000, 313.000000)">
                    <path d="M30.9203,35.6393 C34.1613,33.9403 36.8443,31.3213 38.6223,28.1293" id="Stroke-1" stroke="#000066" stroke-width="0.5" stroke-linecap="round" stroke-linejoin="round"></path>
                    <path d="M2.4579,18.0124 C2.4579,22.0564 3.7369,25.8004 5.9129,28.8644" id="Stroke-3" stroke="#000066" stroke-width="0.5" stroke-linecap="round" stroke-linejoin="round"></path>
                    <path d="M32.4086,3.2546 C29.4746,1.3546 25.9766,0.2496 22.2206,0.2496" id="Stroke-5" stroke="#000066" stroke-width="0.5" stroke-linecap="round" stroke-linejoin="round"></path>
                    <path d="M31.0136,33.362 C31.4026,33.131 31.7816,32.883 32.1486,32.622 C33.2876,31.812 34.3186,30.864 35.2196,29.802" id="Stroke-7" stroke="#000066" stroke-width="0.5" stroke-linecap="round" stroke-linejoin="round"></path>
                    <path d="M4.3627,18.447 C4.4097,20.128 4.7037,21.743 5.2077,23.26" id="Stroke-9" stroke="#000066" stroke-width="0.5" stroke-linecap="round" stroke-linejoin="round"></path>
                    <path d="M30.3642,4.5573 C29.1572,3.8273 27.8512,3.2453 26.4732,2.8363" id="Stroke-11" stroke="#000066" stroke-width="0.5" stroke-linecap="round" stroke-linejoin="round"></path>
                    <g id="Group-15" transform="translate(16.000000, 44.145100)" stroke="#000066" stroke-linecap="round" stroke-linejoin="round">
                        <path d="M0.4843,0.5001 L12.4193,0.5001" id="Stroke-13"></path>
                    </g>
                    <polyline id="Stroke-16" stroke="#000066" stroke-linecap="round" stroke-linejoin="round" points="21.2045 21.2878 19.3815 44.6448 25.0465 44.6448 23.2325 21.3928"></polyline>
                    <path d="M38.3012,4.736 L28.6942,14.235 L24.8052,18.125 L23.4062,16.725 L26.3082,11.849 L36.7942,3.229 C37.2692,2.815 37.9412,2.8 38.3352,3.195 C38.7302,3.59 38.7152,4.261 38.3012,4.736" id="Fill-18" fill="#FFFFFF"></path>
                    <path d="M38.3012,4.736 L28.6942,14.235 L24.8052,18.125 L23.4062,16.725 L26.3082,11.849 L36.7942,3.229 C37.2692,2.815 37.9412,2.8 38.3352,3.195 C38.7302,3.59 38.7152,4.261 38.3012,4.736 Z" id="Stroke-20" stroke="#000066" stroke-linecap="round" stroke-linejoin="round"></path>
                    <path d="M1.8847,12.5368 L14.9147,16.1068 L20.2267,17.5308 L19.7157,19.4418 L14.0417,19.3658 L1.3327,14.5958 C0.7367,14.3908 0.3877,13.8168 0.5327,13.2778 C0.6767,12.7378 1.2657,12.4158 1.8847,12.5368" id="Fill-22" fill="#FFFFFF"></path>
                    <path d="M1.8847,12.5368 L14.9147,16.1068 L20.2267,17.5308 L19.7157,19.4418 L14.0417,19.3658 L1.3327,14.5958 C0.7367,14.3908 0.3877,13.8168 0.5327,13.2778 C0.6767,12.7378 1.2657,12.4158 1.8847,12.5368 Z" id="Stroke-24" stroke="#000066" stroke-linecap="round" stroke-linejoin="round"></path>
                    <g id="Group-29" transform="translate(22.000000, 20.145100)">
                        <path d="M2.3622,0.7081 L5.1332,5.6601 L7.3562,19.0511 C7.4772,19.6691 7.1542,20.2591 6.6152,20.4031 C6.0762,20.5471 5.5022,20.1981 5.2982,19.6031 L1.8752,6.5331 L0.4512,1.2211" id="Fill-26" fill="#FFFFFF"></path>
                        <path d="M2.3622,0.7081 L5.1332,5.6601 L7.3562,19.0511 C7.4772,19.6691 7.1542,20.2591 6.6152,20.4031 C6.0762,20.5471 5.5022,20.1981 5.2982,19.6031 L1.8752,6.5331 L0.4512,1.2211" id="Stroke-28" stroke="#000066" stroke-linecap="round" stroke-linejoin="round"></path>
                    </g>
                    <path d="M23.9062,17.3259 C22.9752,16.3949 21.4652,16.3949 20.5342,17.3259 C19.6032,18.2579 19.6032,19.7669 20.5342,20.6979 C21.4652,21.6299 22.9752,21.6299 23.9062,20.6979 C24.8372,19.7669 24.8372,18.2579 23.9062,17.3259" id="Fill-30" fill="#FFFFFF"></path>
                    <path d="M23.9062,17.3259 C22.9752,16.3949 21.4652,16.3949 20.5342,17.3259 C19.6032,18.2579 19.6032,19.7669 20.5342,20.6979 C21.4652,21.6299 22.9752,21.6299 23.9062,20.6979 C24.8372,19.7669 24.8372,18.2579 23.9062,17.3259 Z" id="Stroke-32" stroke="#000066" stroke-linecap="round" stroke-linejoin="round"></path>
                    <path d="M23.1454,19.0124 C23.1454,18.5004 22.7314,18.0864 22.2204,18.0864 C21.7084,18.0864 21.2944,18.5004 21.2944,19.0124 C21.2944,19.5234 21.7084,19.9374 22.2204,19.9374 C22.7314,19.9374 23.1454,19.5234 23.1454,19.0124 Z" id="Stroke-34" stroke="#000066" stroke-width="0.5" stroke-linecap="round" stroke-linejoin="round"></path>
                </g>
            </g>
        </g>
    </g>
</svg>