<?xml version="1.0" encoding="UTF-8" standalone="no"?>
<svg width="456px" height="440px" viewBox="0 0 456 440" version="1.1" xmlns="http://www.w3.org/2000/svg" xmlns:xlink="http://www.w3.org/1999/xlink">
    <!-- Generator: Sketch 49.1 (51147) - http://www.bohemiancoding.com/sketch -->
    <title>Societe_Secteurs</title>
    <desc>Created with Sketch.</desc>
    <defs>
        <circle id="path-1" cx="220" cy="68" r="68"></circle>
        <filter x="-10.3%" y="-7.4%" width="120.6%" height="120.6%" filterUnits="objectBoundingBox" id="filter-2">
            <feOffset dx="0" dy="4" in="SourceAlpha" result="shadowOffsetOuter1"></feOffset>
            <feGaussianBlur stdDeviation="4" in="shadowOffsetOuter1" result="shadowBlurOuter1"></feGaussianBlur>
            <feColorMatrix values="0 0 0 0 0   0 0 0 0 0   0 0 0 0 0.4  0 0 0 0.1 0" type="matrix" in="shadowBlurOuter1"></feColorMatrix>
        </filter>
        <circle id="path-3" cx="68" cy="172" r="68"></circle>
        <filter x="-10.3%" y="-7.4%" width="120.6%" height="120.6%" filterUnits="objectBoundingBox" id="filter-4">
            <feOffset dx="0" dy="4" in="SourceAlpha" result="shadowOffsetOuter1"></feOffset>
            <feGaussianBlur stdDeviation="4" in="shadowOffsetOuter1" result="shadowBlurOuter1"></feGaussianBlur>
            <feColorMatrix values="0 0 0 0 0   0 0 0 0 0   0 0 0 0 0.4  0 0 0 0.1 0" type="matrix" in="shadowBlurOuter1"></feColorMatrix>
        </filter>
        <circle id="path-5" cx="372" cy="172" r="68"></circle>
        <filter x="-10.3%" y="-7.4%" width="120.6%" height="120.6%" filterUnits="objectBoundingBox" id="filter-6">
            <feOffset dx="0" dy="4" in="SourceAlpha" result="shadowOffsetOuter1"></feOffset>
            <feGaussianBlur stdDeviation="4" in="shadowOffsetOuter1" result="shadowBlurOuter1"></feGaussianBlur>
            <feColorMatrix values="0 0 0 0 0   0 0 0 0 0   0 0 0 0 0.4  0 0 0 0.1 0" type="matrix" in="shadowBlurOuter1"></feColorMatrix>
        </filter>
        <circle id="path-7" cx="317" cy="356" r="68"></circle>
        <filter x="-10.3%" y="-7.4%" width="120.6%" height="120.6%" filterUnits="objectBoundingBox" id="filter-8">
            <feOffset dx="0" dy="4" in="SourceAlpha" result="shadowOffsetOuter1"></feOffset>
            <feGaussianBlur stdDeviation="4" in="shadowOffsetOuter1" result="shadowBlurOuter1"></feGaussianBlur>
            <feColorMatrix values="0 0 0 0 0   0 0 0 0 0   0 0 0 0 0.4  0 0 0 0.1 0" type="matrix" in="shadowBlurOuter1"></feColorMatrix>
        </filter>
        <circle id="path-9" cx="124" cy="356" r="68"></circle>
        <filter x="-10.3%" y="-7.4%" width="120.6%" height="120.6%" filterUnits="objectBoundingBox" id="filter-10">
            <feOffset dx="0" dy="4" in="SourceAlpha" result="shadowOffsetOuter1"></feOffset>
            <feGaussianBlur stdDeviation="4" in="shadowOffsetOuter1" result="shadowBlurOuter1"></feGaussianBlur>
            <feColorMatrix values="0 0 0 0 0   0 0 0 0 0   0 0 0 0 0.4  0 0 0 0.1 0" type="matrix" in="shadowBlurOuter1"></feColorMatrix>
        </filter>
        <polygon id="path-11" points="0 33 43.591 33 43.591 0 0 0"></polygon>
        <polygon id="path-13" points="0 32.1706 60.018 32.1706 60.018 0.9996 0 0.9996"></polygon>
    </defs>
    <g id="Maquettes" stroke="none" stroke-width="1" fill="none" fill-rule="evenodd">
        <g id="VectorStuff" transform="translate(-494.000000, -2110.000000)">
            <g id="Societe_Secteurs" transform="translate(502.000000, 2114.000000)">
                <g id="Fond">
                    <polygon id="Path-4" stroke-opacity="0.1" stroke="#000066" stroke-width="52" opacity="0.5" points="375.55 173.460649 220.702149 67.4774347 66.4568182 173.460649 124.298817 356.522565 317.10548 356.522565"></polygon>
                    <path d="M375.55,173.460649 L220.702149,67.4774347 L66.4568182,173.460649 L124.298817,356.522565 L317.10548,356.522565 L375.55,173.460649 Z" id="Path-4" stroke="#000066" stroke-width="2" opacity="0.2" stroke-linecap="round" stroke-dasharray="4,8"></path>
                    <g id="Oval-4">
                        <use fill="black" fill-opacity="1" filter="url(#filter-2)" xlink:href="#path-1"></use>
                        <use fill="#FFFFFF" fill-rule="evenodd" xlink:href="#path-1"></use>
                    </g>
                    <g id="Oval-4">
                        <use fill="black" fill-opacity="1" filter="url(#filter-4)" xlink:href="#path-3"></use>
                        <use fill="#FFFFFF" fill-rule="evenodd" xlink:href="#path-3"></use>
                    </g>
                    <g id="Oval-4">
                        <use fill="black" fill-opacity="1" filter="url(#filter-6)" xlink:href="#path-5"></use>
                        <use fill="#FFFFFF" fill-rule="evenodd" xlink:href="#path-5"></use>
                    </g>
                    <g id="Oval-4">
                        <use fill="black" fill-opacity="1" filter="url(#filter-8)" xlink:href="#path-7"></use>
                        <use fill="#FFFFFF" fill-rule="evenodd" xlink:href="#path-7"></use>
                    </g>
                    <g id="Oval-4">
                        <use fill="black" fill-opacity="1" filter="url(#filter-10)" xlink:href="#path-9"></use>
                        <use fill="#FFFFFF" fill-rule="evenodd" xlink:href="#path-9"></use>
                    </g>
                </g>
                <g id="Auto" transform="translate(38.000000, 140.000000)">
                    <path d="M55.9443394,22.1421455 L56.4576727,22.1370545 C57.3485818,22.1294182 58.1470061,21.5524485 58.3913697,20.6946303 C58.6314909,19.8495394 58.8113697,18.5751152 58.6730667,16.7322061 C58.3514909,12.4948727 55.1306424,9.10432727 55.1306424,9.10432727 C55.1306424,9.10432727 49.5374303,3.82081212 47.5171879,1.80990303 C46.9970667,1.29232727 46.3140364,0.981781818 45.5817939,0.930024242 C43.2917333,0.769660606 38.2296727,0.424327273 36.9730667,0.424327273 C36.2264,0.424327273 29.5827636,0.453175758 26.0250667,1.46032727 C23.1987636,2.26214545 13.1764606,8.67329697 12.9617939,8.80566061 C12.2380364,9.25535758 9.85209697,9.99778182 7.74870303,10.6511152 C5.1464,11.4597212 3.51985455,11.9798424 2.90046061,12.3854182 C1.68203636,13.1796 0.559490909,17.605297 0.427127273,20.0871152 C0.36009697,21.4769333 1.47670303,22.6376606 2.86821818,22.6240848 L6.64227879,22.5901455" id="Stroke-1" stroke="#000066"></path>
                    <path d="M17.7625212,22.4893455 L44.8962182,22.2424364" id="Stroke-3" stroke="#000066"></path>
                    <g id="Group-8" transform="translate(31.393939, 12.727273)">
                        <path d="M0.775430303,0.2464 L3.43033939,0.2464" id="Fill-5" fill="#FFFFFF"></path>
                        <path d="M0.775430303,0.2464 L3.43033939,0.2464" id="Stroke-7" stroke="#000066" stroke-width="0.5" stroke-linecap="round"></path>
                    </g>
                    <path d="M19.2949697,10.1141939 C18.2895152,10.1752848 17.8169091,8.89661818 18.6195758,8.28825455 C20.5405455,6.82716364 23.1241818,4.9868 24.8686667,4.22061818 C27.7798182,2.94364848 33.7022424,2.65686061 35.547697,2.65686061 C37.2455152,2.65686061 42.91,2.78073939 44.5730303,4.39116364 C45.2272121,5.02328485 46.0256364,5.9498303 46.6772727,6.7397697 C47.2067273,7.38207273 46.7935152,8.35189091 45.9628485,8.40534545 C40.6572727,8.75237576 25.887697,9.71116364 19.2949697,10.1141939" id="Fill-9" fill="#FFFFFF"></path>
                    <path d="M19.2949697,10.1141939 C18.2895152,10.1752848 17.8169091,8.89661818 18.6195758,8.28825455 C20.5405455,6.82716364 23.1241818,4.9868 24.8686667,4.22061818 C27.7798182,2.94364848 33.7022424,2.65686061 35.547697,2.65686061 C37.2455152,2.65686061 42.91,2.78073939 44.5730303,4.39116364 C45.2272121,5.02328485 46.0256364,5.9498303 46.6772727,6.7397697 C47.2067273,7.38207273 46.7935152,8.35189091 45.9628485,8.40534545 C40.6572727,8.75237576 25.887697,9.71116364 19.2949697,10.1141939 Z" id="Stroke-11" stroke="#000066" stroke-width="0.75" stroke-linecap="round"></path>
                    <path d="M35.1212485,2.65677576 L35.9077939,9.05859394" id="Stroke-13" stroke="#000066" stroke-width="0.5"></path>
                    <g id="Group-18" transform="translate(35.636364, 11.030303)">
                        <path d="M0.49950303,0.0260484848 L1.66192727,9.65041212" id="Fill-15" fill="#FFFFFF"></path>
                        <path d="M0.49950303,0.0260484848 L1.66192727,9.65041212" id="Stroke-17" stroke="#000066" stroke-width="0.5" stroke-linecap="round"></path>
                    </g>
                    <path d="M46.9134061,13.3763636 L57.1698909,12.6288485" id="Stroke-19" stroke="#000066" stroke-width="0.5" stroke-linecap="round"></path>
                    <path d="M11.4461455,16.9683394 L21.7026303,16.2208242" id="Stroke-21" stroke="#000066" stroke-width="0.5" stroke-linecap="round"></path>
                    <path d="M55.6634061,20.6804606 L58.2988,20.6804606" id="Stroke-23" stroke="#000066" stroke-width="0.5" stroke-linecap="round"></path>
                    <path d="M17.2566545,20.6804606 L45.3313212,20.6804606" id="Stroke-25" stroke="#000066" stroke-width="0.5" stroke-linecap="round"></path>
                    <path d="M0.424072727,20.6804606 L7.17461818,20.6804606" id="Stroke-27" stroke="#000066" stroke-width="0.5" stroke-linecap="round"></path>
                    <path d="M17.5052606,22.2854545 C17.5052606,19.3649697 15.1362909,16.996 12.2158061,16.996 C9.29362424,16.996 6.92550303,19.3649697 6.92550303,22.2854545 C6.92550303,25.2067879 9.29362424,27.5757576 12.2158061,27.5757576 C15.1362909,27.5757576 17.5052606,25.2067879 17.5052606,22.2854545 Z" id="Stroke-29" stroke="#000066"></path>
                    <path d="M14.3204727,22.2854545 C14.3204727,21.1230303 13.3778061,20.1812121 12.2153818,20.1812121 C11.0521091,20.1812121 10.1102909,21.1230303 10.1102909,22.2854545 C10.1102909,23.4487273 11.0521091,24.3905455 12.2153818,24.3905455 C13.3778061,24.3905455 14.3204727,23.4487273 14.3204727,22.2854545 Z" id="Stroke-31" stroke="#000066" stroke-width="0.5"></path>
                    <path d="M55.6634061,22.2854545 C55.6634061,19.3649697 53.2944364,16.996 50.373103,16.996 C47.4517697,16.996 45.0836485,19.3649697 45.0836485,22.2854545 C45.0836485,25.2067879 47.4517697,27.5757576 50.373103,27.5757576 C53.2944364,27.5757576 55.6634061,25.2067879 55.6634061,22.2854545 Z" id="Stroke-33" stroke="#000066"></path>
                    <path d="M52.478703,22.2854545 C52.478703,21.1230303 51.5360364,20.1812121 50.3736121,20.1812121 C49.2103394,20.1812121 48.2685212,21.1230303 48.2685212,22.2854545 C48.2685212,23.4487273 49.2103394,24.3905455 50.3736121,24.3905455 C51.5360364,24.3905455 52.478703,23.4487273 52.478703,22.2854545 Z" id="Stroke-35" stroke="#000066" stroke-width="0.5"></path>
                    <path d="M2.70853333,12.7773333 L6.62513939,12.7773333 C7.23095758,12.7773333 7.72562424,13.2728485 7.72562424,13.8786667 C7.72562424,14.4844848 7.23095758,14.98 6.62513939,14.98 L1.41968485,14.98" id="Stroke-37" stroke="#000066" stroke-width="0.5"></path>
                    <path d="M3.79815758,16.9957455 C3.79815758,16.6105333 3.48591515,16.2982909 3.09985455,16.2982909 C2.71464242,16.2982909 2.40155152,16.6105333 2.40155152,16.9957455 C2.40155152,17.3818061 2.71464242,17.6940485 3.09985455,17.6940485 C3.48591515,17.6940485 3.79815758,17.3818061 3.79815758,16.9957455 Z" id="Stroke-39" stroke="#000066" stroke-width="0.5"></path>
                </g>
                <path d="M180.544,82.8 L187.84,82.8 L187.824,84.192 L182.08,84.192 L182.08,87.872 L187.248,87.872 L187.248,89.264 L182.08,89.264 L182.08,94 L180.544,94 L180.544,82.8 Z M195.856,86.648 C196.528003,87.4213372 196.864,88.4959931 196.864,89.872 C196.864,90.0853344 196.858667,90.2453328 196.848,90.352 L190.16,90.352 C190.277334,91.1093371 190.594664,91.7119978 191.112,92.16 C191.629336,92.6080022 192.266663,92.832 193.024,92.832 C193.525336,92.832 193.991998,92.7413342 194.424,92.56 C194.856002,92.3786658 195.231998,92.1226683 195.552,91.792 L196.368,92.64 C195.951998,93.0880022 195.45067,93.4346654 194.864,93.68 C194.27733,93.9253346 193.62667,94.048 192.912,94.048 C192.079996,94.048 191.341337,93.8693351 190.696,93.512 C190.050663,93.1546649 189.549335,92.6506699 189.192,92 C188.834665,91.3493301 188.656,90.6080042 188.656,89.776 C188.656,88.9439958 188.834665,88.2053366 189.192,87.56 C189.549335,86.9146634 190.047997,86.4080018 190.688,86.04 C191.328003,85.6719982 192.058663,85.488 192.88,85.488 C194.192007,85.488 195.183997,85.8746628 195.856,86.648 Z M195.52,89.2 C195.477333,88.4319962 195.221336,87.8266689 194.752,87.384 C194.282664,86.9413311 193.664004,86.72 192.896,86.72 C192.14933,86.72 191.528002,86.9439978 191.032,87.392 C190.535998,87.8400022 190.24,88.4426629 190.144,89.2 L195.52,89.2 Z M201.568,85.976 C202.080003,85.6613318 202.687996,85.4986667 203.392,85.488 L203.392,86.928 C202.527996,86.8959998 201.829336,87.1199976 201.296,87.6 C200.762664,88.0800024 200.458667,88.7253293 200.384,89.536 L200.384,94 L198.896,94 L198.896,85.536 L200.384,85.536 L200.384,87.36 C200.661335,86.751997 201.055997,86.2906682 201.568,85.976 Z M207.68,85.976 C208.192003,85.6613318 208.799996,85.4986667 209.504,85.488 L209.504,86.928 C208.639996,86.8959998 207.941336,87.1199976 207.408,87.6 C206.874664,88.0800024 206.570667,88.7253293 206.496,89.536 L206.496,94 L205.008,94 L205.008,85.536 L206.496,85.536 L206.496,87.36 C206.773335,86.751997 207.167997,86.2906682 207.68,85.976 Z M216.888,86.032 C217.544003,86.3946685 218.055998,86.8986634 218.424,87.544 C218.792002,88.1893366 218.976,88.9279958 218.976,89.76 C218.976,90.5920042 218.792002,91.3333301 218.424,91.984 C218.055998,92.6346699 217.544003,93.1413315 216.888,93.504 C216.231997,93.8666685 215.482671,94.048 214.64,94.048 C213.786662,94.048 213.032003,93.8666685 212.376,93.504 C211.719997,93.1413315 211.208002,92.6373366 210.84,91.992 C210.471998,91.3466634 210.288,90.6026709 210.288,89.76 C210.288,88.9279958 210.471998,88.1893366 210.84,87.544 C211.208002,86.8986634 211.719997,86.3946685 212.376,86.032 C213.032003,85.6693315 213.786662,85.488 214.64,85.488 C215.482671,85.488 216.231997,85.6693315 216.888,86.032 Z M213.16,87.168 C212.727998,87.4240013 212.392001,87.7786644 212.152,88.232 C211.911999,88.6853356 211.792,89.1999971 211.792,89.776 C211.792,90.3626696 211.911999,90.885331 212.152,91.344 C212.392001,91.802669 212.727998,92.1573321 213.16,92.408 C213.592002,92.6586679 214.085331,92.784 214.64,92.784 C215.184003,92.784 215.671998,92.6586679 216.104,92.408 C216.536002,92.1573321 216.871999,91.802669 217.112,91.344 C217.352001,90.885331 217.472,90.3626696 217.472,89.776 C217.472,89.1999971 217.352001,88.6853356 217.112,88.232 C216.871999,87.7786644 216.536002,87.4240013 216.104,87.168 C215.671998,86.9119987 215.184003,86.784 214.64,86.784 C214.085331,86.784 213.592002,86.9119987 213.16,87.168 Z M219.36,85.536 L220.944,85.536 L223.488,92.528 L226.016,85.536 L227.52,85.536 L224.224,94 L222.672,94 L219.36,85.536 Z M228.928,85.536 L230.416,85.536 L230.416,94 L228.928,94 L228.928,85.536 Z M230.328,82.432 C230.504001,82.6133342 230.592,82.8426653 230.592,83.12 C230.592,83.3973347 230.504001,83.6266658 230.328,83.808 C230.151999,83.9893342 229.930668,84.08 229.664,84.08 C229.397332,84.08 229.176001,83.9893342 229,83.808 C228.823999,83.6266658 228.736,83.3973347 228.736,83.12 C228.736,82.8426653 228.823999,82.6133342 229,82.432 C229.176001,82.2506658 229.397332,82.16 229.664,82.16 C229.930668,82.16 230.151999,82.2506658 230.328,82.432 Z M238.48,94 L238.48,92.816 C237.850664,93.6480042 236.864007,94.064 235.52,94.064 C234.93333,94.064 234.418669,93.9520011 233.976,93.728 C233.533331,93.5039989 233.192001,93.1946686 232.952,92.8 C232.711999,92.4053314 232.592,91.9626691 232.592,91.472 C232.592,90.7146629 232.871997,90.1146689 233.432,89.672 C233.992003,89.2293311 234.773328,89.0026667 235.776,88.992 L238.464,88.992 L238.464,88.592 C238.464,87.9946637 238.280002,87.533335 237.912,87.208 C237.543998,86.882665 237.008004,86.72 236.304,86.72 C235.450662,86.72 234.581338,87.023997 233.696,87.632 L233.072,86.608 C233.680003,86.2133314 234.242664,85.9280009 234.76,85.752 C235.277336,85.5759991 235.89333,85.488 236.608,85.488 C237.664005,85.488 238.479997,85.7466641 239.056,86.264 C239.632003,86.7813359 239.925333,87.5039954 239.936,88.432 L239.952,94 L238.48,94 Z M237.592,92.328 C238.077336,91.9919983 238.368,91.5466694 238.464,90.992 L238.464,90.144 L235.984,90.144 C235.311997,90.144 234.813335,90.2453323 234.488,90.448 C234.162665,90.6506677 234,90.9706645 234,91.408 C234,91.8453355 234.165332,92.1919987 234.496,92.448 C234.826668,92.7040013 235.269331,92.832 235.824,92.832 C236.517337,92.832 237.106664,92.6640017 237.592,92.328 Z M242.608,85.536 L244.096,85.536 L244.096,94 L242.608,94 L242.608,85.536 Z M244.008,82.432 C244.184001,82.6133342 244.272,82.8426653 244.272,83.12 C244.272,83.3973347 244.184001,83.6266658 244.008,83.808 C243.831999,83.9893342 243.610668,84.08 243.344,84.08 C243.077332,84.08 242.856001,83.9893342 242.68,83.808 C242.503999,83.6266658 242.416,83.3973347 242.416,83.12 C242.416,82.8426653 242.503999,82.6133342 242.68,82.432 C242.856001,82.2506658 243.077332,82.16 243.344,82.16 C243.610668,82.16 243.831999,82.2506658 244.008,82.432 Z M249.664,85.976 C250.176003,85.6613318 250.783996,85.4986667 251.488,85.488 L251.488,86.928 C250.623996,86.8959998 249.925336,87.1199976 249.392,87.6 C248.858664,88.0800024 248.554667,88.7253293 248.48,89.536 L248.48,94 L246.992,94 L246.992,85.536 L248.48,85.536 L248.48,87.36 C248.757335,86.751997 249.151997,86.2906682 249.664,85.976 Z M259.472,86.648 C260.144003,87.4213372 260.48,88.4959931 260.48,89.872 C260.48,90.0853344 260.474667,90.2453328 260.464,90.352 L253.776,90.352 C253.893334,91.1093371 254.210664,91.7119978 254.728,92.16 C255.245336,92.6080022 255.882663,92.832 256.64,92.832 C257.141336,92.832 257.607998,92.7413342 258.04,92.56 C258.472002,92.3786658 258.847998,92.1226683 259.168,91.792 L259.984,92.64 C259.567998,93.0880022 259.06667,93.4346654 258.48,93.68 C257.89333,93.9253346 257.24267,94.048 256.528,94.048 C255.695996,94.048 254.957337,93.8693351 254.312,93.512 C253.666663,93.1546649 253.165335,92.6506699 252.808,92 C252.450665,91.3493301 252.272,90.6080042 252.272,89.776 C252.272,88.9439958 252.450665,88.2053366 252.808,87.56 C253.165335,86.9146634 253.663997,86.4080018 254.304,86.04 C254.944003,85.6719982 255.674663,85.488 256.496,85.488 C257.808007,85.488 258.799997,85.8746628 259.472,86.648 Z M259.136,89.2 C259.093333,88.4319962 258.837336,87.8266689 258.368,87.384 C257.898664,86.9413311 257.280004,86.72 256.512,86.72 C255.76533,86.72 255.144002,86.9439978 254.648,87.392 C254.151998,87.8400022 253.856,88.4426629 253.76,89.2 L259.136,89.2 Z" id="Ferroviaire" fill="#000066"></path>
                <path d="M359.824,186.8 L361.344,186.8 L361.344,198 L359.792,198 L353.392,189.328 L353.392,198 L351.856,198 L351.856,186.8 L353.408,186.8 L359.824,195.488 L359.824,186.8 Z M369.584,198 L369.584,196.816 C368.954664,197.648004 367.968007,198.064 366.624,198.064 C366.03733,198.064 365.522669,197.952001 365.08,197.728 C364.637331,197.503999 364.296001,197.194669 364.056,196.8 C363.815999,196.405331 363.696,195.962669 363.696,195.472 C363.696,194.714663 363.975997,194.114669 364.536,193.672 C365.096003,193.229331 365.877328,193.002667 366.88,192.992 L369.568,192.992 L369.568,192.592 C369.568,191.994664 369.384002,191.533335 369.016,191.208 C368.647998,190.882665 368.112004,190.72 367.408,190.72 C366.554662,190.72 365.685338,191.023997 364.8,191.632 L364.176,190.608 C364.784003,190.213331 365.346664,189.928001 365.864,189.752 C366.381336,189.575999 366.99733,189.488 367.712,189.488 C368.768005,189.488 369.583997,189.746664 370.16,190.264 C370.736003,190.781336 371.029333,191.503995 371.04,192.432 L371.056,198 L369.584,198 Z M368.696,196.328 C369.181336,195.991998 369.472,195.546669 369.568,194.992 L369.568,194.144 L367.088,194.144 C366.415997,194.144 365.917335,194.245332 365.592,194.448 C365.266665,194.650668 365.104,194.970664 365.104,195.408 C365.104,195.845336 365.269332,196.191999 365.6,196.448 C365.930668,196.704001 366.373331,196.832 366.928,196.832 C367.621337,196.832 368.210664,196.664002 368.696,196.328 Z M372,189.536 L373.584,189.536 L376.128,196.528 L378.656,189.536 L380.16,189.536 L376.864,198 L375.312,198 L372,189.536 Z M386.512,198 L386.512,196.816 C385.882664,197.648004 384.896007,198.064 383.552,198.064 C382.96533,198.064 382.450669,197.952001 382.008,197.728 C381.565331,197.503999 381.224001,197.194669 380.984,196.8 C380.743999,196.405331 380.624,195.962669 380.624,195.472 C380.624,194.714663 380.903997,194.114669 381.464,193.672 C382.024003,193.229331 382.805328,193.002667 383.808,192.992 L386.496,192.992 L386.496,192.592 C386.496,191.994664 386.312002,191.533335 385.944,191.208 C385.575998,190.882665 385.040004,190.72 384.336,190.72 C383.482662,190.72 382.613338,191.023997 381.728,191.632 L381.104,190.608 C381.712003,190.213331 382.274664,189.928001 382.792,189.752 C383.309336,189.575999 383.92533,189.488 384.64,189.488 C385.696005,189.488 386.511997,189.746664 387.088,190.264 C387.664003,190.781336 387.957333,191.503995 387.968,192.432 L387.984,198 L386.512,198 Z M385.624,196.328 C386.109336,195.991998 386.4,195.546669 386.496,194.992 L386.496,194.144 L384.016,194.144 C383.343997,194.144 382.845335,194.245332 382.52,194.448 C382.194665,194.650668 382.032,194.970664 382.032,195.408 C382.032,195.845336 382.197332,196.191999 382.528,196.448 C382.858668,196.704001 383.301331,196.832 383.856,196.832 C384.549337,196.832 385.138664,196.664002 385.624,196.328 Z M390.72,186.128 L392.208,186.128 L392.208,198 L390.72,198 L390.72,186.128 Z" id="Naval" fill="#000066"></path>
                <path d="M275.288,372.392 C274.727997,372.226666 274.213336,372.144 273.744,372.144 C273.09333,372.144 272.573335,372.269332 272.184,372.52 C271.794665,372.770668 271.6,373.114664 271.6,373.552 C271.6,373.946669 271.717332,374.269332 271.952,374.52 C272.186668,374.770668 272.474665,374.967999 272.816,375.112 C273.157335,375.256001 273.631997,375.423999 274.24,375.616 C274.997337,375.850668 275.610664,376.074666 276.08,376.288 C276.549336,376.501334 276.949332,376.818665 277.28,377.24 C277.610668,377.661335 277.776,378.218663 277.776,378.912 C277.776,379.552003 277.602668,380.111998 277.256,380.592 C276.909332,381.072002 276.424003,381.442665 275.8,381.704 C275.175997,381.965335 274.458671,382.096 273.648,382.096 C272.826663,382.096 272.026671,381.936002 271.248,381.616 C270.469329,381.295998 269.797336,380.869336 269.232,380.336 L269.92,379.008 C270.453336,379.530669 271.05333,379.933332 271.72,380.216 C272.38667,380.498668 273.034664,380.64 273.664,380.64 C274.41067,380.64 274.999998,380.493335 275.432,380.2 C275.864002,379.906665 276.08,379.509336 276.08,379.008 C276.08,378.613331 275.962668,378.288001 275.728,378.032 C275.493332,377.775999 275.197335,377.573334 274.84,377.424 C274.482665,377.274666 274.000003,377.109334 273.392,376.928 C272.64533,376.703999 272.037336,376.485334 271.568,376.272 C271.098664,376.058666 270.701335,375.744002 270.376,375.328 C270.050665,374.911998 269.888,374.36267 269.888,373.68 C269.888,373.082664 270.053332,372.554669 270.384,372.096 C270.714668,371.637331 271.178664,371.285335 271.776,371.04 C272.373336,370.794665 273.066663,370.672 273.856,370.672 C274.528003,370.672 275.186663,370.770666 275.832,370.968 C276.477337,371.165334 277.050664,371.429332 277.552,371.76 L276.912,373.136 C276.389331,372.805332 275.848003,372.557334 275.288,372.392 Z M284.624,381.44 C283.97333,381.856002 283.312003,382.064 282.64,382.064 C281.967997,382.064 281.424002,381.864002 281.008,381.464 C280.591998,381.063998 280.384,380.458671 280.384,379.648 L280.384,374.96 L279.184,374.96 L279.184,373.824 L280.384,373.824 L280.384,371.552 L281.888,371.552 L281.888,373.824 L284.48,373.824 L284.48,374.96 L281.888,374.96 L281.888,379.376 C281.888,379.845336 281.973332,380.181332 282.144,380.384 C282.314668,380.586668 282.570665,380.688 282.912,380.688 C283.317335,380.688 283.754664,380.554668 284.224,380.288 L284.624,381.44 Z M291.6,382 L291.6,380.816 C290.970664,381.648004 289.984007,382.064 288.64,382.064 C288.05333,382.064 287.538669,381.952001 287.096,381.728 C286.653331,381.503999 286.312001,381.194669 286.072,380.8 C285.831999,380.405331 285.712,379.962669 285.712,379.472 C285.712,378.714663 285.991997,378.114669 286.552,377.672 C287.112003,377.229331 287.893328,377.002667 288.896,376.992 L291.584,376.992 L291.584,376.592 C291.584,375.994664 291.400002,375.533335 291.032,375.208 C290.663998,374.882665 290.128004,374.72 289.424,374.72 C288.570662,374.72 287.701338,375.023997 286.816,375.632 L286.192,374.608 C286.800003,374.213331 287.362664,373.928001 287.88,373.752 C288.397336,373.575999 289.01333,373.488 289.728,373.488 C290.784005,373.488 291.599997,373.746664 292.176,374.264 C292.752003,374.781336 293.045333,375.503995 293.056,376.432 L293.072,382 L291.6,382 Z M290.712,380.328 C291.197336,379.991998 291.488,379.546669 291.584,378.992 L291.584,378.144 L289.104,378.144 C288.431997,378.144 287.933335,378.245332 287.608,378.448 C287.282665,378.650668 287.12,378.970664 287.12,379.408 C287.12,379.845336 287.285332,380.191999 287.616,380.448 C287.946668,380.704001 288.389331,380.832 288.944,380.832 C289.637337,380.832 290.226664,380.664002 290.712,380.328 Z M300.272,381.44 C299.62133,381.856002 298.960003,382.064 298.288,382.064 C297.615997,382.064 297.072002,381.864002 296.656,381.464 C296.239998,381.063998 296.032,380.458671 296.032,379.648 L296.032,374.96 L294.832,374.96 L294.832,373.824 L296.032,373.824 L296.032,371.552 L297.536,371.552 L297.536,373.824 L300.128,373.824 L300.128,374.96 L297.536,374.96 L297.536,379.376 C297.536,379.845336 297.621332,380.181332 297.792,380.384 C297.962668,380.586668 298.218665,380.688 298.56,380.688 C298.965335,380.688 299.402664,380.554668 299.872,380.288 L300.272,381.44 Z M302.08,373.536 L303.568,373.536 L303.568,382 L302.08,382 L302.08,373.536 Z M303.48,370.432 C303.656001,370.613334 303.744,370.842665 303.744,371.12 C303.744,371.397335 303.656001,371.626666 303.48,371.808 C303.303999,371.989334 303.082668,372.08 302.816,372.08 C302.549332,372.08 302.328001,371.989334 302.152,371.808 C301.975999,371.626666 301.888,371.397335 301.888,371.12 C301.888,370.842665 301.975999,370.613334 302.152,370.432 C302.328001,370.250666 302.549332,370.16 302.816,370.16 C303.082668,370.16 303.303999,370.250666 303.48,370.432 Z M312.232,374.032 C312.888003,374.394668 313.399998,374.898663 313.768,375.544 C314.136002,376.189337 314.32,376.927996 314.32,377.76 C314.32,378.592004 314.136002,379.33333 313.768,379.984 C313.399998,380.63467 312.888003,381.141332 312.232,381.504 C311.575997,381.866668 310.826671,382.048 309.984,382.048 C309.130662,382.048 308.376003,381.866668 307.72,381.504 C307.063997,381.141332 306.552002,380.637337 306.184,379.992 C305.815998,379.346663 305.632,378.602671 305.632,377.76 C305.632,376.927996 305.815998,376.189337 306.184,375.544 C306.552002,374.898663 307.063997,374.394668 307.72,374.032 C308.376003,373.669332 309.130662,373.488 309.984,373.488 C310.826671,373.488 311.575997,373.669332 312.232,374.032 Z M308.504,375.168 C308.071998,375.424001 307.736001,375.778664 307.496,376.232 C307.255999,376.685336 307.136,377.199997 307.136,377.776 C307.136,378.36267 307.255999,378.885331 307.496,379.344 C307.736001,379.802669 308.071998,380.157332 308.504,380.408 C308.936002,380.658668 309.429331,380.784 309.984,380.784 C310.528003,380.784 311.015998,380.658668 311.448,380.408 C311.880002,380.157332 312.215999,379.802669 312.456,379.344 C312.696001,378.885331 312.816,378.36267 312.816,377.776 C312.816,377.199997 312.696001,376.685336 312.456,376.232 C312.215999,375.778664 311.880002,375.424001 311.448,375.168 C311.015998,374.911999 310.528003,374.784 309.984,374.784 C309.429331,374.784 308.936002,374.911999 308.504,375.168 Z M323.44,374.36 C324.005336,374.941336 324.288,375.743995 324.288,376.768 L324.288,382 L322.8,382 L322.8,377.168 C322.8,376.45333 322.600002,375.896002 322.2,375.496 C321.799998,375.095998 321.248004,374.896 320.544,374.896 C319.786663,374.906667 319.170669,375.149331 318.696,375.624 C318.221331,376.098669 317.952,376.714663 317.888,377.472 L317.888,382 L316.4,382 L316.4,373.536 L317.888,373.536 L317.888,375.328 C318.453336,374.122661 319.525325,373.509333 321.104,373.488 C322.096005,373.488 322.874664,373.778664 323.44,374.36 Z M333.984,374.36 C334.549336,374.941336 334.832,375.743995 334.832,376.768 L334.832,382 L333.344,382 L333.344,377.168 C333.344,376.45333 333.144002,375.896002 332.744,375.496 C332.343998,375.095998 331.792004,374.896 331.088,374.896 C330.330663,374.906667 329.714669,375.149331 329.24,375.624 C328.765331,376.098669 328.496,376.714663 328.432,377.472 L328.432,382 L326.944,382 L326.944,373.536 L328.432,373.536 L328.432,375.328 C328.997336,374.122661 330.069325,373.509333 331.648,373.488 C332.640005,373.488 333.418664,373.778664 333.984,374.36 Z M342.656,382 L342.656,380.816 C342.026664,381.648004 341.040007,382.064 339.696,382.064 C339.10933,382.064 338.594669,381.952001 338.152,381.728 C337.709331,381.503999 337.368001,381.194669 337.128,380.8 C336.887999,380.405331 336.768,379.962669 336.768,379.472 C336.768,378.714663 337.047997,378.114669 337.608,377.672 C338.168003,377.229331 338.949328,377.002667 339.952,376.992 L342.64,376.992 L342.64,376.592 C342.64,375.994664 342.456002,375.533335 342.088,375.208 C341.719998,374.882665 341.184004,374.72 340.48,374.72 C339.626662,374.72 338.757338,375.023997 337.872,375.632 L337.248,374.608 C337.856003,374.213331 338.418664,373.928001 338.936,373.752 C339.453336,373.575999 340.06933,373.488 340.784,373.488 C341.840005,373.488 342.655997,373.746664 343.232,374.264 C343.808003,374.781336 344.101333,375.503995 344.112,376.432 L344.128,382 L342.656,382 Z M341.768,380.328 C342.253336,379.991998 342.544,379.546669 342.64,378.992 L342.64,378.144 L340.16,378.144 C339.487997,378.144 338.989335,378.245332 338.664,378.448 C338.338665,378.650668 338.176,378.970664 338.176,379.408 C338.176,379.845336 338.341332,380.191999 338.672,380.448 C339.002668,380.704001 339.445331,380.832 340,380.832 C340.693337,380.832 341.282664,380.664002 341.768,380.328 Z M346.784,373.536 L348.272,373.536 L348.272,382 L346.784,382 L346.784,373.536 Z M348.184,370.432 C348.360001,370.613334 348.448,370.842665 348.448,371.12 C348.448,371.397335 348.360001,371.626666 348.184,371.808 C348.007999,371.989334 347.786668,372.08 347.52,372.08 C347.253332,372.08 347.032001,371.989334 346.856,371.808 C346.679999,371.626666 346.592,371.397335 346.592,371.12 C346.592,370.842665 346.679999,370.613334 346.856,370.432 C347.032001,370.250666 347.253332,370.16 347.52,370.16 C347.786668,370.16 348.007999,370.250666 348.184,370.432 Z M353.84,373.976 C354.352003,373.661332 354.959996,373.498667 355.664,373.488 L355.664,374.928 C354.799996,374.896 354.101336,375.119998 353.568,375.6 C353.034664,376.080002 352.730667,376.725329 352.656,377.536 L352.656,382 L351.168,382 L351.168,373.536 L352.656,373.536 L352.656,375.36 C352.933335,374.751997 353.327997,374.290668 353.84,373.976 Z M363.648,374.648 C364.320003,375.421337 364.656,376.495993 364.656,377.872 C364.656,378.085334 364.650667,378.245333 364.64,378.352 L357.952,378.352 C358.069334,379.109337 358.386664,379.711998 358.904,380.16 C359.421336,380.608002 360.058663,380.832 360.816,380.832 C361.317336,380.832 361.783998,380.741334 362.216,380.56 C362.648002,380.378666 363.023998,380.122668 363.344,379.792 L364.16,380.64 C363.743998,381.088002 363.24267,381.434665 362.656,381.68 C362.06933,381.925335 361.41867,382.048 360.704,382.048 C359.871996,382.048 359.133337,381.869335 358.488,381.512 C357.842663,381.154665 357.341335,380.65067 356.984,380 C356.626665,379.34933 356.448,378.608004 356.448,377.776 C356.448,376.943996 356.626665,376.205337 356.984,375.56 C357.341335,374.914663 357.839997,374.408002 358.48,374.04 C359.120003,373.671998 359.850663,373.488 360.672,373.488 C361.984007,373.488 362.975997,373.874663 363.648,374.648 Z M363.312,377.2 C363.269333,376.431996 363.013336,375.826669 362.544,375.384 C362.074664,374.941331 361.456004,374.72 360.688,374.72 C359.94133,374.72 359.320002,374.943998 358.824,375.392 C358.327998,375.840002 358.032,376.442663 357.936,377.2 L363.312,377.2 Z" id="Stationnaire" fill="#000066"></path>
                <path d="M79.784,382 L78.6,379.28 L72.696,379.28 L71.528,382 L69.912,382 L74.888,370.8 L76.488,370.8 L81.448,382 L79.784,382 Z M73.304,377.888 L78.008,377.888 L75.64,372.448 L73.304,377.888 Z M88.872,374.648 C89.5440034,375.421337 89.88,376.495993 89.88,377.872 C89.88,378.085334 89.8746667,378.245333 89.864,378.352 L83.176,378.352 C83.2933339,379.109337 83.6106641,379.711998 84.128,380.16 C84.6453359,380.608002 85.2826629,380.832 86.04,380.832 C86.5413358,380.832 87.0079978,380.741334 87.44,380.56 C87.8720022,380.378666 88.2479984,380.122668 88.568,379.792 L89.384,380.64 C88.9679979,381.088002 88.4666696,381.434665 87.88,381.68 C87.2933304,381.925335 86.6426702,382.048 85.928,382.048 C85.0959958,382.048 84.3573366,381.869335 83.712,381.512 C83.0666634,381.154665 82.5653351,380.65067 82.208,380 C81.8506649,379.34933 81.672,378.608004 81.672,377.776 C81.672,376.943996 81.8506649,376.205337 82.208,375.56 C82.5653351,374.914663 83.0639968,374.408002 83.704,374.04 C84.3440032,373.671998 85.0746626,373.488 85.896,373.488 C87.2080066,373.488 88.1999966,373.874663 88.872,374.648 Z M88.536,377.2 C88.4933331,376.431996 88.2373357,375.826669 87.768,375.384 C87.2986643,374.941331 86.6800038,374.72 85.912,374.72 C85.1653296,374.72 84.5440025,374.943998 84.048,375.392 C83.5519975,375.840002 83.2560005,376.442663 83.16,377.2 L88.536,377.2 Z M86.696,369.968 L88.232,370.64 L86.248,372.208 L84.984,372.048 L86.696,369.968 Z M94.584,373.976 C95.0960026,373.661332 95.7039965,373.498667 96.408,373.488 L96.408,374.928 C95.5439957,374.896 94.845336,375.119998 94.312,375.6 C93.778664,376.080002 93.474667,376.725329 93.4,377.536 L93.4,382 L91.912,382 L91.912,373.536 L93.4,373.536 L93.4,375.36 C93.6773347,374.751997 94.0719974,374.290668 94.584,373.976 Z M103.792,374.032 C104.448003,374.394668 104.959998,374.898663 105.328,375.544 C105.696002,376.189337 105.88,376.927996 105.88,377.76 C105.88,378.592004 105.696002,379.33333 105.328,379.984 C104.959998,380.63467 104.448003,381.141332 103.792,381.504 C103.135997,381.866668 102.386671,382.048 101.544,382.048 C100.690662,382.048 99.9360033,381.866668 99.28,381.504 C98.6239967,381.141332 98.1120018,380.637337 97.744,379.992 C97.3759982,379.346663 97.192,378.602671 97.192,377.76 C97.192,376.927996 97.3759982,376.189337 97.744,375.544 C98.1120018,374.898663 98.6239967,374.394668 99.28,374.032 C99.9360033,373.669332 100.690662,373.488 101.544,373.488 C102.386671,373.488 103.135997,373.669332 103.792,374.032 Z M100.064,375.168 C99.6319978,375.424001 99.2960012,375.778664 99.056,376.232 C98.8159988,376.685336 98.696,377.199997 98.696,377.776 C98.696,378.36267 98.8159988,378.885331 99.056,379.344 C99.2960012,379.802669 99.6319978,380.157332 100.064,380.408 C100.496002,380.658668 100.989331,380.784 101.544,380.784 C102.088003,380.784 102.575998,380.658668 103.008,380.408 C103.440002,380.157332 103.775999,379.802669 104.016,379.344 C104.256001,378.885331 104.376,378.36267 104.376,377.776 C104.376,377.199997 104.256001,376.685336 104.016,376.232 C103.775999,375.778664 103.440002,375.424001 103.008,375.168 C102.575998,374.911999 102.088003,374.784 101.544,374.784 C100.989331,374.784 100.496002,374.911999 100.064,375.168 Z M115,374.36 C115.565336,374.941336 115.848,375.743995 115.848,376.768 L115.848,382 L114.36,382 L114.36,377.168 C114.36,376.45333 114.160002,375.896002 113.76,375.496 C113.359998,375.095998 112.808004,374.896 112.104,374.896 C111.346663,374.906667 110.730669,375.149331 110.256,375.624 C109.781331,376.098669 109.512,376.714663 109.448,377.472 L109.448,382 L107.96,382 L107.96,373.536 L109.448,373.536 L109.448,375.328 C110.013336,374.122661 111.085325,373.509333 112.664,373.488 C113.656005,373.488 114.434664,373.778664 115,374.36 Z M123.672,382 L123.672,380.816 C123.042664,381.648004 122.056007,382.064 120.712,382.064 C120.12533,382.064 119.610669,381.952001 119.168,381.728 C118.725331,381.503999 118.384001,381.194669 118.144,380.8 C117.903999,380.405331 117.784,379.962669 117.784,379.472 C117.784,378.714663 118.063997,378.114669 118.624,377.672 C119.184003,377.229331 119.965328,377.002667 120.968,376.992 L123.656,376.992 L123.656,376.592 C123.656,375.994664 123.472002,375.533335 123.104,375.208 C122.735998,374.882665 122.200004,374.72 121.496,374.72 C120.642662,374.72 119.773338,375.023997 118.888,375.632 L118.264,374.608 C118.872003,374.213331 119.434664,373.928001 119.952,373.752 C120.469336,373.575999 121.08533,373.488 121.8,373.488 C122.856005,373.488 123.671997,373.746664 124.248,374.264 C124.824003,374.781336 125.117333,375.503995 125.128,376.432 L125.144,382 L123.672,382 Z M122.784,380.328 C123.269336,379.991998 123.56,379.546669 123.656,378.992 L123.656,378.144 L121.176,378.144 C120.503997,378.144 120.005335,378.245332 119.68,378.448 C119.354665,378.650668 119.192,378.970664 119.192,379.408 C119.192,379.845336 119.357332,380.191999 119.688,380.448 C120.018668,380.704001 120.461331,380.832 121.016,380.832 C121.709337,380.832 122.298664,380.664002 122.784,380.328 Z M135.288,373.536 L135.288,382 L133.784,382 L133.784,380.208 C133.229331,381.413339 132.184008,382.026667 130.648,382.048 C129.666662,382.048 128.898669,381.757336 128.344,381.176 C127.789331,380.594664 127.512,379.792005 127.512,378.768 L127.512,373.536 L129.016,373.536 L129.016,378.368 C129.016,379.08267 129.210665,379.639998 129.6,380.04 C129.989335,380.440002 130.52533,380.64 131.208,380.64 C131.997337,380.629333 132.623998,380.349336 133.088,379.8 C133.552002,379.250664 133.784,378.549338 133.784,377.696 L133.784,373.536 L135.288,373.536 Z M142.728,381.44 C142.07733,381.856002 141.416003,382.064 140.744,382.064 C140.071997,382.064 139.528002,381.864002 139.112,381.464 C138.695998,381.063998 138.488,380.458671 138.488,379.648 L138.488,374.96 L137.288,374.96 L137.288,373.824 L138.488,373.824 L138.488,371.552 L139.992,371.552 L139.992,373.824 L142.584,373.824 L142.584,374.96 L139.992,374.96 L139.992,379.376 C139.992,379.845336 140.077332,380.181332 140.248,380.384 C140.418668,380.586668 140.674665,380.688 141.016,380.688 C141.421335,380.688 141.858664,380.554668 142.328,380.288 L142.728,381.44 Z M144.536,373.536 L146.024,373.536 L146.024,382 L144.536,382 L144.536,373.536 Z M145.936,370.432 C146.112001,370.613334 146.2,370.842665 146.2,371.12 C146.2,371.397335 146.112001,371.626666 145.936,371.808 C145.759999,371.989334 145.538668,372.08 145.272,372.08 C145.005332,372.08 144.784001,371.989334 144.608,371.808 C144.431999,371.626666 144.344,371.397335 144.344,371.12 C144.344,370.842665 144.431999,370.613334 144.608,370.432 C144.784001,370.250666 145.005332,370.16 145.272,370.16 C145.538668,370.16 145.759999,370.250666 145.936,370.432 Z M156.808,373.536 L156.808,385.104 L155.32,385.104 L155.32,380.32 C154.999998,380.885336 154.570669,381.319998 154.032,381.624 C153.493331,381.928002 152.86667,382.08 152.152,382.08 C151.351996,382.08 150.645336,381.896002 150.032,381.528 C149.418664,381.159998 148.941335,380.648003 148.6,379.992 C148.258665,379.335997 148.088,378.586671 148.088,377.744 C148.088,376.911996 148.258665,376.173337 148.6,375.528 C148.941335,374.882663 149.418664,374.378668 150.032,374.016 C150.645336,373.653332 151.346663,373.472 152.136,373.472 C152.861337,373.472 153.495997,373.621332 154.04,373.92 C154.584003,374.218668 155.010665,374.650664 155.32,375.216 L155.32,373.536 L156.808,373.536 Z M153.936,380.416 C154.368002,380.159999 154.706665,379.802669 154.952,379.344 C155.197335,378.885331 155.32,378.368003 155.32,377.792 C155.32,377.20533 155.197335,376.682669 154.952,376.224 C154.706665,375.765331 154.368002,375.408001 153.936,375.152 C153.503998,374.895999 153.010669,374.768 152.456,374.768 C151.901331,374.768 151.408002,374.898665 150.976,375.16 C150.543998,375.421335 150.205335,375.781331 149.96,376.24 C149.714665,376.698669 149.592,377.215997 149.592,377.792 C149.592,378.368003 149.714665,378.885331 149.96,379.344 C150.205335,379.802669 150.543998,380.159999 150.976,380.416 C151.408002,380.672001 151.901331,380.8 152.456,380.8 C153.010669,380.8 153.503998,380.672001 153.936,380.416 Z M167.288,373.536 L167.288,382 L165.784,382 L165.784,380.208 C165.229331,381.413339 164.184008,382.026667 162.648,382.048 C161.666662,382.048 160.898669,381.757336 160.344,381.176 C159.789331,380.594664 159.512,379.792005 159.512,378.768 L159.512,373.536 L161.016,373.536 L161.016,378.368 C161.016,379.08267 161.210665,379.639998 161.6,380.04 C161.989335,380.440002 162.52533,380.64 163.208,380.64 C163.997337,380.629333 164.623998,380.349336 165.088,379.8 C165.552002,379.250664 165.784,378.549338 165.784,377.696 L165.784,373.536 L167.288,373.536 Z M176.552,374.648 C177.224003,375.421337 177.56,376.495993 177.56,377.872 C177.56,378.085334 177.554667,378.245333 177.544,378.352 L170.856,378.352 C170.973334,379.109337 171.290664,379.711998 171.808,380.16 C172.325336,380.608002 172.962663,380.832 173.72,380.832 C174.221336,380.832 174.687998,380.741334 175.12,380.56 C175.552002,380.378666 175.927998,380.122668 176.248,379.792 L177.064,380.64 C176.647998,381.088002 176.14667,381.434665 175.56,381.68 C174.97333,381.925335 174.32267,382.048 173.608,382.048 C172.775996,382.048 172.037337,381.869335 171.392,381.512 C170.746663,381.154665 170.245335,380.65067 169.888,380 C169.530665,379.34933 169.352,378.608004 169.352,377.776 C169.352,376.943996 169.530665,376.205337 169.888,375.56 C170.245335,374.914663 170.743997,374.408002 171.384,374.04 C172.024003,373.671998 172.754663,373.488 173.576,373.488 C174.888007,373.488 175.879997,373.874663 176.552,374.648 Z M176.216,377.2 C176.173333,376.431996 175.917336,375.826669 175.448,375.384 C174.978664,374.941331 174.360004,374.72 173.592,374.72 C172.84533,374.72 172.224002,374.943998 171.728,375.392 C171.231998,375.840002 170.936,376.442663 170.84,377.2 L176.216,377.2 Z" id="Aéronautique" fill="#000066"></path>
                <path d="M31.128,190 L29.944,187.28 L24.04,187.28 L22.872,190 L21.256,190 L26.232,178.8 L27.832,178.8 L32.792,190 L31.128,190 Z M24.648,185.888 L29.352,185.888 L26.984,180.448 L24.648,185.888 Z M41.336,181.536 L41.336,190 L39.832,190 L39.832,188.208 C39.2773306,189.413339 38.2320077,190.026667 36.696,190.048 C35.7146618,190.048 34.9466694,189.757336 34.392,189.176 C33.8373306,188.594664 33.56,187.792005 33.56,186.768 L33.56,181.536 L35.064,181.536 L35.064,186.368 C35.064,187.08267 35.2586647,187.639998 35.648,188.04 C36.0373353,188.440002 36.5733299,188.64 37.256,188.64 C38.0453373,188.629333 38.6719977,188.349336 39.136,187.8 C39.6000023,187.250664 39.832,186.549338 39.832,185.696 L39.832,181.536 L41.336,181.536 Z M48.776,189.44 C48.1253301,189.856002 47.4640034,190.064 46.792,190.064 C46.1199966,190.064 45.5760021,189.864002 45.16,189.464 C44.7439979,189.063998 44.536,188.458671 44.536,187.648 L44.536,182.96 L43.336,182.96 L43.336,181.824 L44.536,181.824 L44.536,179.552 L46.04,179.552 L46.04,181.824 L48.632,181.824 L48.632,182.96 L46.04,182.96 L46.04,187.376 C46.04,187.845336 46.1253325,188.181332 46.296,188.384 C46.4666675,188.586668 46.722665,188.688 47.064,188.688 C47.4693354,188.688 47.9066643,188.554668 48.376,188.288 L48.776,189.44 Z M56.24,182.032 C56.8960033,182.394668 57.4079982,182.898663 57.776,183.544 C58.1440018,184.189337 58.328,184.927996 58.328,185.76 C58.328,186.592004 58.1440018,187.33333 57.776,187.984 C57.4079982,188.63467 56.8960033,189.141332 56.24,189.504 C55.5839967,189.866668 54.8346709,190.048 53.992,190.048 C53.1386624,190.048 52.3840033,189.866668 51.728,189.504 C51.0719967,189.141332 50.5600018,188.637337 50.192,187.992 C49.8239982,187.346663 49.64,186.602671 49.64,185.76 C49.64,184.927996 49.8239982,184.189337 50.192,183.544 C50.5600018,182.898663 51.0719967,182.394668 51.728,182.032 C52.3840033,181.669332 53.1386624,181.488 53.992,181.488 C54.8346709,181.488 55.5839967,181.669332 56.24,182.032 Z M52.512,183.168 C52.0799978,183.424001 51.7440012,183.778664 51.504,184.232 C51.2639988,184.685336 51.144,185.199997 51.144,185.776 C51.144,186.36267 51.2639988,186.885331 51.504,187.344 C51.7440012,187.802669 52.0799978,188.157332 52.512,188.408 C52.9440022,188.658668 53.4373306,188.784 53.992,188.784 C54.5360027,188.784 55.0239978,188.658668 55.456,188.408 C55.8880022,188.157332 56.2239988,187.802669 56.464,187.344 C56.7040012,186.885331 56.824,186.36267 56.824,185.776 C56.824,185.199997 56.7040012,184.685336 56.464,184.232 C56.2239988,183.778664 55.8880022,183.424001 55.456,183.168 C55.0239978,182.911999 54.5360027,182.784 53.992,182.784 C53.4373306,182.784 52.9440022,182.911999 52.512,183.168 Z M73.624,182.368 C74.1786694,182.95467 74.456,183.754662 74.456,184.768 L74.456,190 L72.952,190 L72.952,185.168 C72.952,184.45333 72.7573353,183.893335 72.368,183.488 C71.9786647,183.082665 71.4426701,182.88 70.76,182.88 C69.959996,182.901333 69.330669,183.183997 68.872,183.728 C68.413331,184.272003 68.184,184.970662 68.184,185.824 L68.184,190 L66.68,190 L66.68,185.168 C66.68,184.45333 66.4880019,183.893335 66.104,183.488 C65.7199981,183.082665 65.1813368,182.88 64.488,182.88 C63.687996,182.901333 63.0560023,183.183997 62.592,183.728 C62.1279977,184.272003 61.896,184.970662 61.896,185.824 L61.896,190 L60.408,190 L60.408,181.536 L61.896,181.536 L61.896,183.312 C62.4506694,182.117327 63.5013256,181.509333 65.048,181.488 C65.8266706,181.488 66.4746641,181.674665 66.992,182.048 C67.5093359,182.421335 67.8586658,182.943997 68.04,183.616 C68.5626693,182.21866 69.661325,181.509333 71.336,181.488 C72.3066715,181.488 73.0693306,181.78133 73.624,182.368 Z M82.88,182.032 C83.5360033,182.394668 84.0479982,182.898663 84.416,183.544 C84.7840018,184.189337 84.968,184.927996 84.968,185.76 C84.968,186.592004 84.7840018,187.33333 84.416,187.984 C84.0479982,188.63467 83.5360033,189.141332 82.88,189.504 C82.2239967,189.866668 81.4746709,190.048 80.632,190.048 C79.7786624,190.048 79.0240033,189.866668 78.368,189.504 C77.7119967,189.141332 77.2000018,188.637337 76.832,187.992 C76.4639982,187.346663 76.28,186.602671 76.28,185.76 C76.28,184.927996 76.4639982,184.189337 76.832,183.544 C77.2000018,182.898663 77.7119967,182.394668 78.368,182.032 C79.0240033,181.669332 79.7786624,181.488 80.632,181.488 C81.4746709,181.488 82.2239967,181.669332 82.88,182.032 Z M79.152,183.168 C78.7199978,183.424001 78.3840012,183.778664 78.144,184.232 C77.9039988,184.685336 77.784,185.199997 77.784,185.776 C77.784,186.36267 77.9039988,186.885331 78.144,187.344 C78.3840012,187.802669 78.7199978,188.157332 79.152,188.408 C79.5840022,188.658668 80.0773306,188.784 80.632,188.784 C81.1760027,188.784 81.6639978,188.658668 82.096,188.408 C82.5280022,188.157332 82.8639988,187.802669 83.104,187.344 C83.3440012,186.885331 83.464,186.36267 83.464,185.776 C83.464,185.199997 83.3440012,184.685336 83.104,184.232 C82.8639988,183.778664 82.5280022,183.424001 82.096,183.168 C81.6639978,182.911999 81.1760027,182.784 80.632,182.784 C80.0773306,182.784 79.5840022,182.911999 79.152,183.168 Z M93.864,182.032 C94.4826698,182.394668 94.962665,182.90133 95.304,183.552 C95.645335,184.20267 95.816,184.949329 95.816,185.792 C95.816,186.624004 95.6480017,187.362663 95.312,188.008 C94.9759983,188.653337 94.5013364,189.154665 93.888,189.512 C93.2746636,189.869335 92.5733373,190.048 91.784,190.048 C91.0693298,190.048 90.4400027,189.898668 89.896,189.6 C89.3519973,189.301332 88.9253349,188.874669 88.616,188.32 L88.616,190 L87.128,190 L87.128,178.128 L88.616,178.128 L88.616,183.216 C88.9253349,182.661331 89.3493306,182.234668 89.888,181.936 C90.4266694,181.637332 91.0479965,181.488 91.752,181.488 C92.5413373,181.488 93.2453302,181.669332 93.864,182.032 Z M92.928,188.368 C93.3600022,188.111999 93.6959988,187.754669 93.936,187.296 C94.1760012,186.837331 94.296,186.320003 94.296,185.744 C94.296,185.178664 94.1733346,184.666669 93.928,184.208 C93.6826654,183.749331 93.3466688,183.392001 92.92,183.136 C92.4933312,182.879999 92.0080027,182.752 91.464,182.752 C90.9199973,182.752 90.4320022,182.879999 90,183.136 C89.5679978,183.392001 89.2293346,183.749331 88.984,184.208 C88.7386654,184.666669 88.616,185.178664 88.616,185.744 C88.616,186.33067 88.7386654,186.850664 88.984,187.304 C89.2293346,187.757336 89.5679978,188.111999 90,188.368 C90.4320022,188.624001 90.9199973,188.752 91.464,188.752 C92.0080027,188.752 92.4959978,188.624001 92.928,188.368 Z M97.896,181.536 L99.384,181.536 L99.384,190 L97.896,190 L97.896,181.536 Z M99.296,178.432 C99.4720009,178.613334 99.56,178.842665 99.56,179.12 C99.56,179.397335 99.4720009,179.626666 99.296,179.808 C99.1199991,179.989334 98.898668,180.08 98.632,180.08 C98.365332,180.08 98.1440009,179.989334 97.968,179.808 C97.7919991,179.626666 97.704,179.397335 97.704,179.12 C97.704,178.842665 97.7919991,178.613334 97.968,178.432 C98.1440009,178.250666 98.365332,178.16 98.632,178.16 C98.898668,178.16 99.1199991,178.250666 99.296,178.432 Z M102.36,178.128 L103.848,178.128 L103.848,190 L102.36,190 L102.36,178.128 Z M113.208,182.648 C113.880003,183.421337 114.216,184.495993 114.216,185.872 C114.216,186.085334 114.210667,186.245333 114.2,186.352 L107.512,186.352 C107.629334,187.109337 107.946664,187.711998 108.464,188.16 C108.981336,188.608002 109.618663,188.832 110.376,188.832 C110.877336,188.832 111.343998,188.741334 111.776,188.56 C112.208002,188.378666 112.583998,188.122668 112.904,187.792 L113.72,188.64 C113.303998,189.088002 112.80267,189.434665 112.216,189.68 C111.62933,189.925335 110.97867,190.048 110.264,190.048 C109.431996,190.048 108.693337,189.869335 108.048,189.512 C107.402663,189.154665 106.901335,188.65067 106.544,188 C106.186665,187.34933 106.008,186.608004 106.008,185.776 C106.008,184.943996 106.186665,184.205337 106.544,183.56 C106.901335,182.914663 107.399997,182.408002 108.04,182.04 C108.680003,181.671998 109.410663,181.488 110.232,181.488 C111.544007,181.488 112.535997,181.874663 113.208,182.648 Z M112.872,185.2 C112.829333,184.431996 112.573336,183.826669 112.104,183.384 C111.634664,182.941331 111.016004,182.72 110.248,182.72 C109.50133,182.72 108.880002,182.943998 108.384,183.392 C107.887998,183.840002 107.592,184.442663 107.496,185.2 L112.872,185.2 Z" id="Automobile" fill="#000066"></path>
                <path d="M170.82,197.4 L172.53,197.4 L172.53,210 L170.784,210 L163.584,200.244 L163.584,210 L161.856,210 L161.856,197.4 L163.602,197.4 L170.82,207.174 L170.82,197.4 Z M182.475,201.036 C183.213004,201.444002 183.788998,202.010996 184.203,202.737 C184.617002,203.463004 184.824,204.293995 184.824,205.23 C184.824,206.166005 184.617002,206.999996 184.203,207.732 C183.788998,208.464004 183.213004,209.033998 182.475,209.442 C181.736996,209.850002 180.894005,210.054 179.946,210.054 C178.985995,210.054 178.137004,209.850002 177.399,209.442 C176.660996,209.033998 176.085002,208.467004 175.671,207.741 C175.256998,207.014996 175.05,206.178005 175.05,205.23 C175.05,204.293995 175.256998,203.463004 175.671,202.737 C176.085002,202.010996 176.660996,201.444002 177.399,201.036 C178.137004,200.627998 178.985995,200.424 179.946,200.424 C180.894005,200.424 181.736996,200.627998 182.475,201.036 Z M178.281,202.314 C177.794998,202.602001 177.417001,203.000997 177.147,203.511 C176.876999,204.021003 176.742,204.599997 176.742,205.248 C176.742,205.908003 176.876999,206.495997 177.147,207.012 C177.417001,207.528003 177.794998,207.926999 178.281,208.209 C178.767002,208.491001 179.321997,208.632 179.946,208.632 C180.558003,208.632 181.106998,208.491001 181.593,208.209 C182.079002,207.926999 182.456999,207.528003 182.727,207.012 C182.997001,206.495997 183.132,205.908003 183.132,205.248 C183.132,204.599997 182.997001,204.021003 182.727,203.511 C182.456999,203.000997 182.079002,202.602001 181.593,202.314 C181.106998,202.025999 180.558003,201.882 179.946,201.882 C179.321997,201.882 178.767002,202.025999 178.281,202.314 Z M191.061,202.008 C190.586998,201.863999 190.134002,201.792 189.702,201.792 C189.197997,201.792 188.793002,201.884999 188.487,202.071 C188.180998,202.257001 188.028,202.541998 188.028,202.926 C188.028,203.310002 188.198998,203.600999 188.541,203.799 C188.883002,203.997001 189.401997,204.197999 190.098,204.402 C190.758003,204.594001 191.297998,204.785999 191.718,204.978 C192.138002,205.170001 192.494999,205.451998 192.789,205.824 C193.083001,206.196002 193.23,206.687997 193.23,207.3 C193.23,208.200005 192.891003,208.883998 192.213,209.352 C191.534997,209.820002 190.692005,210.054 189.684,210.054 C188.975996,210.054 188.289003,209.940001 187.623,209.712 C186.956997,209.483999 186.396002,209.160002 185.94,208.74 L186.57,207.516 C186.966002,207.876002 187.454997,208.163999 188.037,208.38 C188.619003,208.596001 189.185997,208.704 189.738,208.704 C190.290003,208.704 190.733998,208.602001 191.07,208.398 C191.406002,208.193999 191.574,207.882002 191.574,207.462 C191.574,207.029998 191.397002,206.706001 191.043,206.49 C190.688998,206.273999 190.152004,206.058001 189.432,205.842 C188.795997,205.661999 188.277002,205.479001 187.875,205.293 C187.472998,205.106999 187.131001,204.834002 186.849,204.474 C186.566999,204.113998 186.426,203.646003 186.426,203.07 C186.426,202.181996 186.749997,201.516002 187.398,201.072 C188.046003,200.627998 188.855995,200.406 189.828,200.406 C190.404003,200.406 190.970997,200.486999 191.529,200.649 C192.087003,200.811001 192.569998,201.029999 192.978,201.306 L192.366,202.584 C191.969998,202.343999 191.535002,202.152001 191.061,202.008 Z M204.057,202.008 C203.582998,201.863999 203.130002,201.792 202.698,201.792 C202.193997,201.792 201.789002,201.884999 201.483,202.071 C201.176998,202.257001 201.024,202.541998 201.024,202.926 C201.024,203.310002 201.194998,203.600999 201.537,203.799 C201.879002,203.997001 202.397997,204.197999 203.094,204.402 C203.754003,204.594001 204.293998,204.785999 204.714,204.978 C205.134002,205.170001 205.490999,205.451998 205.785,205.824 C206.079001,206.196002 206.226,206.687997 206.226,207.3 C206.226,208.200005 205.887003,208.883998 205.209,209.352 C204.530997,209.820002 203.688005,210.054 202.68,210.054 C201.971996,210.054 201.285003,209.940001 200.619,209.712 C199.952997,209.483999 199.392002,209.160002 198.936,208.74 L199.566,207.516 C199.962002,207.876002 200.450997,208.163999 201.033,208.38 C201.615003,208.596001 202.181997,208.704 202.734,208.704 C203.286003,208.704 203.729998,208.602001 204.066,208.398 C204.402002,208.193999 204.57,207.882002 204.57,207.462 C204.57,207.029998 204.393002,206.706001 204.039,206.49 C203.684998,206.273999 203.148004,206.058001 202.428,205.842 C201.791997,205.661999 201.273002,205.479001 200.871,205.293 C200.468998,205.106999 200.127001,204.834002 199.845,204.474 C199.562999,204.113998 199.422,203.646003 199.422,203.07 C199.422,202.181996 199.745997,201.516002 200.394,201.072 C201.042003,200.627998 201.851995,200.406 202.824,200.406 C203.400003,200.406 203.966997,200.486999 204.525,200.649 C205.083003,200.811001 205.565998,201.029999 205.974,201.306 L205.362,202.584 C204.965998,202.343999 204.531002,202.152001 204.057,202.008 Z M215.604,201.729 C216.360004,202.599004 216.738,203.807992 216.738,205.356 C216.738,205.596001 216.732,205.775999 216.72,205.896 L209.196,205.896 C209.328001,206.748004 209.684997,207.425997 210.267,207.93 C210.849003,208.434003 211.565996,208.686 212.418,208.686 C212.982003,208.686 213.506998,208.584001 213.993,208.38 C214.479002,208.175999 214.901998,207.888002 215.262,207.516 L216.18,208.47 C215.711998,208.974003 215.148003,209.363999 214.488,209.64 C213.827997,209.916001 213.096004,210.054 212.292,210.054 C211.355995,210.054 210.525004,209.853002 209.799,209.451 C209.072996,209.048998 208.509002,208.482004 208.107,207.75 C207.704998,207.017996 207.504,206.184005 207.504,205.248 C207.504,204.311995 207.704998,203.481004 208.107,202.755 C208.509002,202.028996 209.069996,201.459002 209.79,201.045 C210.510004,200.630998 211.331995,200.424 212.256,200.424 C213.732007,200.424 214.847996,200.858996 215.604,201.729 Z M215.226,204.6 C215.178,203.735996 214.890003,203.055002 214.362,202.557 C213.833997,202.058998 213.138004,201.81 212.274,201.81 C211.433996,201.81 210.735003,202.061997 210.177,202.566 C209.618997,203.070003 209.286001,203.747996 209.178,204.6 L215.226,204.6 Z M222.984,201.918 C222.359997,201.918 221.805002,202.055999 221.319,202.332 C220.832998,202.608001 220.452001,202.997997 220.176,203.502 C219.899999,204.006003 219.762,204.587997 219.762,205.248 C219.762,205.908003 219.896999,206.489997 220.167,206.994 C220.437001,207.498003 220.808998,207.890999 221.283,208.173 C221.757002,208.455001 222.299997,208.596 222.912,208.596 C223.524003,208.596 224.075998,208.494001 224.568,208.29 C225.060002,208.085999 225.467998,207.792002 225.792,207.408 L226.746,208.38 C226.313998,208.920003 225.765003,209.333999 225.099,209.622 C224.432997,209.910001 223.680004,210.054 222.84,210.054 C221.915995,210.054 221.094004,209.850002 220.374,209.442 C219.653996,209.033998 219.093002,208.467004 218.691,207.741 C218.288998,207.014996 218.088,206.184005 218.088,205.248 C218.088,204.311995 218.288998,203.478004 218.691,202.746 C219.093002,202.013996 219.653996,201.444002 220.374,201.036 C221.094004,200.627998 221.915995,200.424 222.84,200.424 C223.644004,200.424 224.366997,200.546999 225.009,200.793 C225.651003,201.039001 226.187998,201.395998 226.62,201.864 L225.702,203.016 C224.945996,202.283996 224.040005,201.918 222.984,201.918 Z M234.252,209.37 C233.519996,209.838002 232.776004,210.072 232.02,210.072 C231.263996,210.072 230.652002,209.847002 230.184,209.397 C229.715998,208.946998 229.482,208.266005 229.482,207.354 L229.482,202.08 L228.132,202.08 L228.132,200.802 L229.482,200.802 L229.482,198.246 L231.174,198.246 L231.174,200.802 L234.09,200.802 L234.09,202.08 L231.174,202.08 L231.174,207.048 C231.174,207.576003 231.269999,207.953999 231.462,208.182 C231.654001,208.410001 231.941998,208.524 232.326,208.524 C232.782002,208.524 233.273997,208.374001 233.802,208.074 L234.252,209.37 Z M243.324,201.729 C244.080004,202.599004 244.458,203.807992 244.458,205.356 C244.458,205.596001 244.452,205.775999 244.44,205.896 L236.916,205.896 C237.048001,206.748004 237.404997,207.425997 237.987,207.93 C238.569003,208.434003 239.285996,208.686 240.138,208.686 C240.702003,208.686 241.226998,208.584001 241.713,208.38 C242.199002,208.175999 242.621998,207.888002 242.982,207.516 L243.9,208.47 C243.431998,208.974003 242.868003,209.363999 242.208,209.64 C241.547997,209.916001 240.816004,210.054 240.012,210.054 C239.075995,210.054 238.245004,209.853002 237.519,209.451 C236.792996,209.048998 236.229002,208.482004 235.827,207.75 C235.424998,207.017996 235.224,206.184005 235.224,205.248 C235.224,204.311995 235.424998,203.481004 235.827,202.755 C236.229002,202.028996 236.789996,201.459002 237.51,201.045 C238.230004,200.630998 239.051995,200.424 239.976,200.424 C241.452007,200.424 242.567996,200.858996 243.324,201.729 Z M242.946,204.6 C242.898,203.735996 242.610003,203.055002 242.082,202.557 C241.553997,202.058998 240.858004,201.81 239.994,201.81 C239.153996,201.81 238.455003,202.061997 237.897,202.566 C237.338997,203.070003 237.006001,203.747996 236.898,204.6 L242.946,204.6 Z M255.168,200.478 L255.168,210 L253.476,210 L253.476,207.984 C252.851997,209.340007 251.676009,210.03 249.948,210.054 C248.843994,210.054 247.980003,209.727003 247.356,209.073 C246.731997,208.418997 246.42,207.516006 246.42,206.364 L246.42,200.478 L248.112,200.478 L248.112,205.914 C248.112,206.718004 248.330998,207.344998 248.769,207.795 C249.207002,208.245002 249.809996,208.47 250.578,208.47 C251.466004,208.458 252.170997,208.143003 252.693,207.525 C253.215003,206.906997 253.476,206.118005 253.476,205.158 L253.476,200.478 L255.168,200.478 Z M261.432,200.973 C262.008003,200.618998 262.691996,200.436 263.484,200.424 L263.484,202.044 C262.511995,202.008 261.726003,202.259997 261.126,202.8 C260.525997,203.340003 260.184,204.065995 260.1,204.978 L260.1,210 L258.426,210 L258.426,200.478 L260.1,200.478 L260.1,202.53 C260.412002,201.845997 260.855997,201.327002 261.432,200.973 Z M269.199,202.008 C268.724998,201.863999 268.272002,201.792 267.84,201.792 C267.335997,201.792 266.931002,201.884999 266.625,202.071 C266.318998,202.257001 266.166,202.541998 266.166,202.926 C266.166,203.310002 266.336998,203.600999 266.679,203.799 C267.021002,203.997001 267.539997,204.197999 268.236,204.402 C268.896003,204.594001 269.435998,204.785999 269.856,204.978 C270.276002,205.170001 270.632999,205.451998 270.927,205.824 C271.221001,206.196002 271.368,206.687997 271.368,207.3 C271.368,208.200005 271.029003,208.883998 270.351,209.352 C269.672997,209.820002 268.830005,210.054 267.822,210.054 C267.113996,210.054 266.427003,209.940001 265.761,209.712 C265.094997,209.483999 264.534002,209.160002 264.078,208.74 L264.708,207.516 C265.104002,207.876002 265.592997,208.163999 266.175,208.38 C266.757003,208.596001 267.323997,208.704 267.876,208.704 C268.428003,208.704 268.871998,208.602001 269.208,208.398 C269.544002,208.193999 269.712,207.882002 269.712,207.462 C269.712,207.029998 269.535002,206.706001 269.181,206.49 C268.826998,206.273999 268.290004,206.058001 267.57,205.842 C266.933997,205.661999 266.415002,205.479001 266.013,205.293 C265.610998,205.106999 265.269001,204.834002 264.987,204.474 C264.704999,204.113998 264.564,203.646003 264.564,203.07 C264.564,202.181996 264.887997,201.516002 265.536,201.072 C266.184003,200.627998 266.993995,200.406 267.966,200.406 C268.542003,200.406 269.108997,200.486999 269.667,200.649 C270.225003,200.811001 270.707998,201.029999 271.116,201.306 L270.504,202.584 C270.107998,202.343999 269.673002,202.152001 269.199,202.008 Z M186.372,220.644 L186.372,234 L184.698,234 L184.698,232.11 C184.337998,232.746003 183.855003,233.234998 183.249,233.577 C182.642997,233.919002 181.938004,234.09 181.134,234.09 C180.233995,234.09 179.439003,233.883002 178.749,233.469 C178.058997,233.054998 177.522002,232.479004 177.138,231.741 C176.753998,231.002996 176.562,230.160005 176.562,229.212 C176.562,228.275995 176.753998,227.445004 177.138,226.719 C177.522002,225.992996 178.058997,225.426002 178.749,225.018 C179.439003,224.609998 180.227996,224.406 181.116,224.406 C181.932004,224.406 182.645997,224.573998 183.258,224.91 C183.870003,225.246002 184.349998,225.731997 184.698,226.368 L184.698,220.644 L186.372,220.644 Z M183.141,232.218 C183.627002,231.929999 184.007999,231.528003 184.284,231.012 C184.560001,230.495997 184.698,229.914003 184.698,229.266 C184.698,228.605997 184.560001,228.018003 184.284,227.502 C184.007999,226.985997 183.627002,226.584001 183.141,226.296 C182.654998,226.007999 182.100003,225.864 181.476,225.864 C180.851997,225.864 180.297002,226.010999 179.811,226.305 C179.324998,226.599001 178.944001,227.003997 178.668,227.52 C178.391999,228.036003 178.254,228.617997 178.254,229.266 C178.254,229.914003 178.391999,230.495997 178.668,231.012 C178.944001,231.528003 179.324998,231.929999 179.811,232.218 C180.297002,232.506001 180.851997,232.65 181.476,232.65 C182.100003,232.65 182.654998,232.506001 183.141,232.218 Z M190.647,220.914 C190.833001,221.094001 190.926,221.333999 190.926,221.634 C190.926,221.766001 190.899,221.903999 190.845,222.048 C190.791,222.192001 190.734,222.329999 190.674,222.462 L189.702,224.514 L188.784,224.514 L189.504,222.48 C189.335999,222.396 189.21,222.279001 189.126,222.129 C189.042,221.978999 189,221.814001 189,221.634 C189,221.345999 189.092999,221.109001 189.279,220.923 C189.465001,220.736999 189.695999,220.644 189.972,220.644 C190.236001,220.644 190.460999,220.733999 190.647,220.914 Z M199.224,234 L199.224,232.668 C198.515996,233.604005 197.406008,234.072 195.894,234.072 C195.233997,234.072 194.655002,233.946001 194.157,233.694 C193.658998,233.441999 193.275001,233.094002 193.005,232.65 C192.734999,232.205998 192.6,231.708003 192.6,231.156 C192.6,230.303996 192.914997,229.629002 193.545,229.131 C194.175003,228.632998 195.053994,228.378 196.182,228.366 L199.206,228.366 L199.206,227.916 C199.206,227.243997 198.999002,226.725002 198.585,226.359 C198.170998,225.992998 197.568004,225.81 196.776,225.81 C195.815995,225.81 194.838005,226.151997 193.842,226.836 L193.14,225.684 C193.824003,225.239998 194.456997,224.919001 195.039,224.721 C195.621003,224.522999 196.313996,224.424 197.118,224.424 C198.306006,224.424 199.223997,224.714997 199.872,225.297 C200.520003,225.879003 200.85,226.691995 200.862,227.736 L200.88,234 L199.224,234 Z M198.225,232.119 C198.771003,231.740998 199.097999,231.240003 199.206,230.616 L199.206,229.662 L196.416,229.662 C195.659996,229.662 195.099002,229.775999 194.733,230.004 C194.366998,230.232001 194.184,230.591998 194.184,231.084 C194.184,231.576002 194.369998,231.965999 194.742,232.254 C195.114002,232.542001 195.611997,232.686 196.236,232.686 C197.016004,232.686 197.678997,232.497002 198.225,232.119 Z M207.828,225.918 C207.203997,225.918 206.649002,226.055999 206.163,226.332 C205.676998,226.608001 205.296001,226.997997 205.02,227.502 C204.743999,228.006003 204.606,228.587997 204.606,229.248 C204.606,229.908003 204.740999,230.489997 205.011,230.994 C205.281001,231.498003 205.652998,231.890999 206.127,232.173 C206.601002,232.455001 207.143997,232.596 207.756,232.596 C208.368003,232.596 208.919998,232.494001 209.412,232.29 C209.904002,232.085999 210.311998,231.792002 210.636,231.408 L211.59,232.38 C211.157998,232.920003 210.609003,233.333999 209.943,233.622 C209.276997,233.910001 208.524004,234.054 207.684,234.054 C206.759995,234.054 205.938004,233.850002 205.218,233.442 C204.497996,233.033998 203.937002,232.467004 203.535,231.741 C203.132998,231.014996 202.932,230.184005 202.932,229.248 C202.932,228.311995 203.132998,227.478004 203.535,226.746 C203.937002,226.013996 204.497996,225.444002 205.218,225.036 C205.938004,224.627998 206.759995,224.424 207.684,224.424 C208.488004,224.424 209.210997,224.546999 209.853,224.793 C210.495003,225.039001 211.031998,225.395998 211.464,225.864 L210.546,227.016 C209.789996,226.283996 208.884005,225.918 207.828,225.918 Z M219.096,233.37 C218.363996,233.838002 217.620004,234.072 216.864,234.072 C216.107996,234.072 215.496002,233.847002 215.028,233.397 C214.559998,232.946998 214.326,232.266005 214.326,231.354 L214.326,226.08 L212.976,226.08 L212.976,224.802 L214.326,224.802 L214.326,222.246 L216.018,222.246 L216.018,224.802 L218.934,224.802 L218.934,226.08 L216.018,226.08 L216.018,231.048 C216.018,231.576003 216.113999,231.953999 216.306,232.182 C216.498001,232.410001 216.785998,232.524 217.17,232.524 C217.626002,232.524 218.117997,232.374001 218.646,232.074 L219.096,233.37 Z M221.13,224.478 L222.804,224.478 L222.804,234 L221.13,234 L221.13,224.478 Z M222.705,220.986 C222.903001,221.190001 223.002,221.447998 223.002,221.76 C223.002,222.072002 222.903001,222.329999 222.705,222.534 C222.506999,222.738001 222.258002,222.84 221.958,222.84 C221.657999,222.84 221.409001,222.738001 221.211,222.534 C221.012999,222.329999 220.914,222.072002 220.914,221.76 C220.914,221.447998 221.012999,221.190001 221.211,220.986 C221.409001,220.781999 221.657999,220.68 221.958,220.68 C222.258002,220.68 222.506999,220.781999 222.705,220.986 Z M224.478,224.478 L226.26,224.478 L229.122,232.344 L231.966,224.478 L233.658,224.478 L229.95,234 L228.204,234 L224.478,224.478 Z M235.242,224.478 L236.916,224.478 L236.916,234 L235.242,234 L235.242,224.478 Z M236.817,220.986 C237.015001,221.190001 237.114,221.447998 237.114,221.76 C237.114,222.072002 237.015001,222.329999 236.817,222.534 C236.618999,222.738001 236.370002,222.84 236.07,222.84 C235.769999,222.84 235.521001,222.738001 235.323,222.534 C235.124999,222.329999 235.026,222.072002 235.026,221.76 C235.026,221.447998 235.124999,221.190001 235.323,220.986 C235.521001,220.781999 235.769999,220.68 236.07,220.68 C236.370002,220.68 236.618999,220.781999 236.817,220.986 Z M245.286,233.37 C244.553996,233.838002 243.810004,234.072 243.054,234.072 C242.297996,234.072 241.686002,233.847002 241.218,233.397 C240.749998,232.946998 240.516,232.266005 240.516,231.354 L240.516,226.08 L239.166,226.08 L239.166,224.802 L240.516,224.802 L240.516,222.246 L242.208,222.246 L242.208,224.802 L245.124,224.802 L245.124,226.08 L242.208,226.08 L242.208,231.048 C242.208,231.576003 242.303999,231.953999 242.496,232.182 C242.688001,232.410001 242.975998,232.524 243.36,232.524 C243.816002,232.524 244.307997,232.374001 244.836,232.074 L245.286,233.37 Z M254.358,225.729 C255.114004,226.599004 255.492,227.807992 255.492,229.356 C255.492,229.596001 255.486,229.775999 255.474,229.896 L247.95,229.896 C248.082001,230.748004 248.438997,231.425997 249.021,231.93 C249.603003,232.434003 250.319996,232.686 251.172,232.686 C251.736003,232.686 252.260998,232.584001 252.747,232.38 C253.233002,232.175999 253.655998,231.888002 254.016,231.516 L254.934,232.47 C254.465998,232.974003 253.902003,233.363999 253.242,233.64 C252.581997,233.916001 251.850004,234.054 251.046,234.054 C250.109995,234.054 249.279004,233.853002 248.553,233.451 C247.826996,233.048998 247.263002,232.482004 246.861,231.75 C246.458998,231.017996 246.258,230.184005 246.258,229.248 C246.258,228.311995 246.458998,227.481004 246.861,226.755 C247.263002,226.028996 247.823996,225.459002 248.544,225.045 C249.264004,224.630998 250.085995,224.424 251.01,224.424 C252.486007,224.424 253.601996,224.858996 254.358,225.729 Z M253.98,228.6 C253.932,227.735996 253.644003,227.055002 253.116,226.557 C252.587997,226.058998 251.892004,225.81 251.028,225.81 C250.187996,225.81 249.489003,226.061997 248.931,226.566 C248.372997,227.070003 248.040001,227.747996 247.932,228.6 L253.98,228.6 Z M251.91,220.464 L253.638,221.22 L251.406,222.984 L249.984,222.804 L251.91,220.464 Z" id="Nos-secteurs-d’activ" fill="#000066"></path>
                <g id="Ferroviaire" transform="translate(198.000000, 40.000000)">
                    <path d="M43.0912,29.5307 L9.9032,29.5307 C3.5182,29.5307 -1.1958,23.1747 1.0822,17.2097 C1.0892,17.1907 1.1122,17.1377 1.1502,17.0547 C3.2562,12.3987 6.6932,8.4707 11.0082,5.7327 L12.7932,4.5997 C17.0132,1.9227 21.9072,0.5007 26.9052,0.5007 L43.0912,0.5007 L43.0912,29.5307 Z" id="Stroke-1" stroke="#000066"></path>
                    <path d="M38.2601,19.9135 L38.2601,16.1645" id="Stroke-3" stroke="#000066" stroke-width="0.5" stroke-linecap="round"></path>
                    <path d="M19.5116,16.1644 L12.0116,16.1644" id="Stroke-5" stroke="#000066" stroke-width="0.5" stroke-linecap="round"></path>
                    <path d="M10.1371,16.1644 L8.2621,16.1644" id="Stroke-7" stroke="#000066" stroke-width="0.5" stroke-linecap="round"></path>
                    <path d="M14.6815,3.5092 L43.0915,3.5092" id="Stroke-9" stroke="#000066"></path>
                    <path d="M27.2269,13.2006 L27.2269,17.3356 C27.2269,19.9246 25.1289,22.0226 22.5399,22.0226 L0.7469,22.0226" id="Stroke-11" stroke="#000066" stroke-width="0.5" stroke-linecap="round"></path>
                    <path d="M9.1996,7.0775 L18.7496,7.0775 C21.3376,7.0775 23.4366,9.1765 23.4366,11.7645 L23.4366,14.4085 C23.4366,16.9975 21.3376,19.0965 18.7496,19.0965 L0.7476,19.0965" id="Stroke-13" stroke="#000066"></path>
                    <path d="M43.5502,7.0775 L35.7922,7.0775 C33.2032,7.0775 31.1052,9.1765 31.1052,11.7645 L31.1052,29.5305" id="Stroke-15" stroke="#000066"></path>
                    <path d="M40.7792,7.0775 L40.7792,29.5305" id="Stroke-17" stroke="#000066"></path>
                    <mask id="mask-12" fill="white">
                        <use xlink:href="#path-11"></use>
                    </mask>
                    <g id="Clip-20"></g>
                    <polygon id="Stroke-19" stroke="#000066" mask="url(#mask-12)" points="0.907 32.5 43.091 32.5 43.091 29.687 0.907 29.687"></polygon>
                </g>
                <g id="Naval" transform="translate(342.000000, 143.000000)">
                    <path d="M46.9166,25.7468 C52.3876,23.0878 58.9606,15.0698 58.9606,15.0698 L4.0556,15.0698 L10.1236,27.4038" id="Stroke-1" stroke="#000066"></path>
                    <path d="M9.3262,15.0701 L11.1742,5.8721 L31.4372,5.8721 C34.0662,5.8721 36.5282,7.1641 38.0212,9.3291 L41.9832,15.0701" id="Stroke-3" stroke="#000066"></path>
                    <g id="Group-7" transform="translate(15.000000, 0.170600)" stroke="#000066">
                        <path d="M0.8092,5.5948 L0.8092,0.8288" id="Stroke-5"></path>
                    </g>
                    <path d="M18.46,5.7654 L18.46,2.7774" id="Stroke-8" stroke="#000066"></path>
                    <polyline id="Stroke-10" stroke="#000066" points="37.17 8.3122 28.461 8.3122 28.461 12.2152 39.734 12.2152"></polyline>
                    <mask id="mask-14" fill="white">
                        <use xlink:href="#path-13"></use>
                    </mask>
                    <g id="Clip-13"></g>
                    <polygon id="Stroke-12" stroke="#000066" mask="url(#mask-14)" points="22.289 12.2156 25.953 12.2156 25.953 8.3126 22.289 8.3126"></polygon>
                    <path d="M55.522,19.4167 L36.051,19.4167" id="Stroke-14" stroke="#000066" stroke-width="0.5" mask="url(#mask-14)"></path>
                    <path d="M33.8468,19.4167 L30.3488,19.4167" id="Stroke-15" stroke="#000066" stroke-width="0.5" mask="url(#mask-14)"></path>
                    <path d="M49.587,23.7624 L8.698,23.7624" id="Stroke-16" stroke="#000066" stroke-width="0.5" mask="url(#mask-14)"></path>
                    <path d="M0.5001,26.3367 C1.6301,24.8027 3.8841,24.6967 5.1531,26.1177 L6.0021,27.0677 C7.2661,28.4827 9.5081,28.3857 10.6441,26.8657 L11.0521,26.3187 C12.1911,24.7937 14.4451,24.7017 15.7051,26.1297 L16.5231,27.0567 C17.7781,28.4787 20.0201,28.3947 21.1641,26.8827 L21.6041,26.3027 C22.7521,24.7847 25.0051,24.7067 26.2561,26.1417 L27.0441,27.0447 C28.2901,28.4727 30.5311,28.4017 31.6851,26.8987 L32.1551,26.2857 C33.3131,24.7767 35.5651,24.7127 36.8071,26.1527 L37.5651,27.0317 C38.8021,28.4667 41.0421,28.4097 42.2051,26.9147 L42.7071,26.2707 C43.8751,24.7687 46.1261,24.7187 47.3591,26.1657 L48.0851,27.0197 C49.3131,28.4607 51.5541,28.4177 52.7261,26.9307 L53.2591,26.2547 C54.4361,24.7617 56.6871,24.7247 57.9111,26.1797 L58.6061,27.0067" id="Stroke-17" stroke="#000066" stroke-linecap="round" mask="url(#mask-14)"></path>
                    <path d="M10.6436,30.4626 L11.0516,29.9166 C12.1906,28.3916 14.4446,28.2986 15.7046,29.7266 L16.5226,30.6536 C17.7776,32.0746 20.0196,31.9906 21.1646,30.4796 L21.6036,29.8996 C22.7516,28.3826 25.0046,28.3046 26.2556,29.7376 L27.0436,30.6426 C28.2896,32.0696 30.5306,31.9996 31.6846,30.4956 L32.1556,29.8836 C33.3136,28.3736 35.5656,28.3106 36.8076,29.7506 L37.5646,30.6296 C38.8016,32.0646 41.0426,32.0076 42.2056,30.5126 L42.7066,29.8666 C43.8746,28.3656 46.1256,28.3166 47.3586,29.7636 L48.0856,30.6166" id="Stroke-18" stroke="#000066" stroke-linecap="round" mask="url(#mask-14)"></path>
                </g>
                <g id="Aeronautique" transform="translate(104.000000, 320.000000)">
                    <path d="M11.1989091,7.95030303 L9.38436364,6.1369697 L11.7625455,3.27878788 C11.9831515,3.01333333 12.2340606,2.77454545 12.5092121,2.56969697 L13.2195152,2.04 L15.2134545,4.03515152 L14.6013333,4.84848485 C14.4195152,5.08969697 14.2134545,5.31030303 13.9867879,5.50909091 L11.1989091,7.95030303 Z" id="Stroke-1" stroke="#000066" stroke-width="0.5" stroke-linecap="round" stroke-linejoin="round"></path>
                    <path d="M12.1996364,2.98581818 L14.3087273,5.09490909" id="Stroke-3" stroke="#000066" stroke-width="0.5" stroke-linecap="round" stroke-linejoin="round"></path>
                    <path d="M18.5035152,9.23454545 L16.6889697,7.42 L19.0671515,4.56181818 C19.2877576,4.29757576 19.5386667,4.05878788 19.8138182,3.85393939 L20.5241212,3.3230303 L22.5180606,5.31939394 L21.9059394,6.13151515 C21.7241212,6.37393939 21.5180606,6.59454545 21.2913939,6.79333333 L18.5035152,9.23454545 Z" id="Stroke-5" stroke="#000066" stroke-width="0.5" stroke-linecap="round" stroke-linejoin="round"></path>
                    <path d="M19.5043636,4.27006061 L21.6134545,6.37793939" id="Stroke-7" stroke="#000066" stroke-width="0.5" stroke-linecap="round" stroke-linejoin="round"></path>
                    <g id="Group-12" transform="translate(2.424242, 3.636364)">
                        <polyline id="Fill-9" fill="#FFFFFF" points="25.2093333 3.67939394 2.26751515 0.367878788 0.468727273 2.16545455 14.0214545 9.82363636 16.1244848 12.0309091"></polyline>
                        <polyline id="Stroke-11" stroke="#000066" stroke-linecap="round" stroke-linejoin="round" points="25.2093333 3.67939394 2.26751515 0.367878788 0.468727273 2.16545455 14.0214545 9.82363636 16.1244848 12.0309091"></polyline>
                    </g>
                    <g id="Group-16" transform="translate(15.757576, 10.909091)">
                        <path d="M2.32339394,0.954545455 L0.688242424,2.58969697" id="Fill-13" fill="#FFFFFF"></path>
                        <path d="M2.32339394,0.954545455 L0.688242424,2.58969697" id="Stroke-15" stroke="#000066" stroke-width="0.5" stroke-linecap="round" stroke-linejoin="round"></path>
                    </g>
                    <g id="Group-20" transform="translate(12.121212, 8.484848)">
                        <path d="M1.97187879,1.02557576 L0.336727273,2.66072727" id="Fill-17" fill="#FFFFFF"></path>
                        <path d="M1.97187879,1.02557576 L0.336727273,2.66072727" id="Stroke-19" stroke="#000066" stroke-width="0.5" stroke-linecap="round" stroke-linejoin="round"></path>
                    </g>
                    <g id="Group-24" transform="translate(7.272727, 6.060606)">
                        <path d="M2.73175758,1.19721212 L1.09660606,2.83236364" id="Fill-21" fill="#FFFFFF"></path>
                        <path d="M2.73175758,1.19721212 L1.09660606,2.83236364" id="Stroke-23" stroke="#000066" stroke-width="0.5" stroke-linecap="round" stroke-linejoin="round"></path>
                    </g>
                    <path d="M31.6889697,28.4403636 L33.5035152,30.253697 L36.3604848,27.8767273 C36.6259394,27.6573333 36.8635152,27.4052121 37.0695758,27.1300606 L37.5992727,26.4209697 L35.6041212,24.4246061 L34.7907879,25.0379394 C34.5495758,25.2197576 34.3277576,25.4258182 34.1289697,25.6524848 L31.6889697,28.4403636 Z" id="Stroke-25" stroke="#000066" stroke-width="0.5" stroke-linecap="round" stroke-linejoin="round"></path>
                    <path d="M36.6534545,27.4389091 L34.5443636,25.3310303" id="Stroke-27" stroke="#000066" stroke-width="0.5" stroke-linecap="round" stroke-linejoin="round"></path>
                    <path d="M30.4052121,21.1356364 L32.2197576,22.9489697 L35.0767273,20.572 C35.3421818,20.3526061 35.5797576,20.1004848 35.7858182,19.8253333 L36.3155152,19.1162424 L34.3203636,17.1198788 L33.5070303,17.7332121 C33.2658182,17.9150303 33.044,18.1210909 32.8452121,18.3477576 L30.4052121,21.1356364 Z" id="Stroke-29" stroke="#000066" stroke-width="0.5" stroke-linecap="round" stroke-linejoin="round"></path>
                    <path d="M35.369697,20.1341818 L33.2606061,18.026303" id="Stroke-31" stroke="#000066" stroke-width="0.5" stroke-linecap="round" stroke-linejoin="round"></path>
                    <g id="Group-36" transform="translate(23.030303, 10.909091)">
                        <polyline id="Fill-33" fill="#FFFFFF" points="9.29369697 1.09660606 12.6052121 24.0396364 10.8076364 25.836 3.14824242 12.2844848 0.940969697 10.1814545"></polyline>
                        <polyline id="Stroke-35" stroke="#000066" stroke-linecap="round" stroke-linejoin="round" points="9.29369697 1.09660606 12.6052121 24.0396364 10.8076364 25.836 3.14824242 12.2844848 0.940969697 10.1814545"></polyline>
                    </g>
                    <g id="Group-40" transform="translate(25.454545, 20.606061)">
                        <path d="M2.3209697,0.952121212 L0.687030303,2.58727273" id="Fill-37" fill="#FFFFFF"></path>
                        <path d="M2.3209697,0.952121212 L0.687030303,2.58727273" id="Stroke-39" stroke="#000066" stroke-width="0.5" stroke-linecap="round" stroke-linejoin="round"></path>
                    </g>
                    <g id="Group-44" transform="translate(27.878788, 25.454545)">
                        <path d="M2.24993939,0.0916363636 L0.616,1.72678788" id="Fill-41" fill="#FFFFFF"></path>
                        <path d="M2.24993939,0.0916363636 L0.616,1.72678788" id="Stroke-43" stroke="#000066" stroke-width="0.5" stroke-linecap="round" stroke-linejoin="round"></path>
                    </g>
                    <g id="Group-48" transform="translate(30.303030, 29.090909)">
                        <path d="M2.07830303,0.543757576 L0.443151515,2.17890909" id="Fill-45" fill="#FFFFFF"></path>
                        <path d="M2.07830303,0.543757576 L0.443151515,2.17890909" id="Stroke-47" stroke="#000066" stroke-width="0.5" stroke-linecap="round" stroke-linejoin="round"></path>
                    </g>
                    <path d="M17.1647273,26.7973333 C17.8532121,26.3524848 18.4932121,25.8361212 19.0726061,25.2567273 L35.4932121,8.83733333 C36.6241212,7.69672727 37.6326061,6.12218182 38.2883636,4.72460606 C39.0907879,3.00581818 39.1574545,1.74036364 38.4774545,1.06521212 C37.7962424,0.390060606 36.5368485,0.460363636 34.8301818,1.27006061 C33.4398788,1.93187879 31.9283636,3.01309091 30.7865455,4.16218182 L14.4168485,20.5318788 C13.8010909,21.1488485 13.2556364,21.8324848 12.7926061,22.5730909 L7.27624242,31.3864242 C7.08109091,31.6991515 7.12715152,32.1052121 7.3889697,32.3646061 C7.65078788,32.6264242 8.06048485,32.6688485 8.37321212,32.4688485 L17.1647273,26.7973333 Z" id="Stroke-49" stroke="#000066" stroke-linecap="round"></path>
                    <polyline id="Stroke-51" stroke="#000066" stroke-linecap="round" stroke-linejoin="round" points="11.3042424 24.9105455 2.24848485 23.0269091 0.606060606 24.6705455 8.26545455 29.1250909"></polyline>
                    <path d="M6.95345455,25.7888485 L5.31830303,27.424" id="Stroke-53" stroke="#000066" stroke-width="0.5" stroke-linecap="round" stroke-linejoin="round"></path>
                    <polyline id="Stroke-55" stroke="#000066" stroke-linecap="round" stroke-linejoin="round" points="15.0890909 28.696 16.9727273 37.7517576 15.330303 39.3941818 10.8757576 31.7347879"></polyline>
                    <path d="M14.2113939,33.0461818 L12.5762424,34.6813333" id="Stroke-57" stroke="#000066" stroke-width="0.5" stroke-linecap="round" stroke-linejoin="round"></path>
                    <path d="M35.5573333,0.962787879 L38.6482424,4.05369697" id="Stroke-59" stroke="#000066" stroke-width="0.5" stroke-linecap="round" stroke-linejoin="round"></path>
                    <path d="M16.3344242,20.1850909 L19.4253333,23.276" id="Stroke-61" stroke="#000066" stroke-width="0.5" stroke-linecap="round" stroke-linejoin="round"></path>
                    <path d="M14.3421818,20.5544242 L19.0573333,25.2695758" id="Stroke-63" stroke="#000066" stroke-width="0.5" stroke-linecap="round" stroke-linejoin="round"></path>
                    <path d="M16.8930909,18.0035152 L21.6082424,22.7186667" id="Stroke-65" stroke="#000066" stroke-width="0.5" stroke-linecap="round" stroke-linejoin="round"></path>
                </g>
                <g id="Stationnaire" transform="translate(298.000000, 313.000000)">
                    <path d="M30.9203,35.6393 C34.1613,33.9403 36.8443,31.3213 38.6223,28.1293" id="Stroke-1" stroke="#000066" stroke-width="0.5" stroke-linecap="round" stroke-linejoin="round"></path>
                    <path d="M2.4579,18.0124 C2.4579,22.0564 3.7369,25.8004 5.9129,28.8644" id="Stroke-3" stroke="#000066" stroke-width="0.5" stroke-linecap="round" stroke-linejoin="round"></path>
                    <path d="M32.4086,3.2546 C29.4746,1.3546 25.9766,0.2496 22.2206,0.2496" id="Stroke-5" stroke="#000066" stroke-width="0.5" stroke-linecap="round" stroke-linejoin="round"></path>
                    <path d="M31.0136,33.362 C31.4026,33.131 31.7816,32.883 32.1486,32.622 C33.2876,31.812 34.3186,30.864 35.2196,29.802" id="Stroke-7" stroke="#000066" stroke-width="0.5" stroke-linecap="round" stroke-linejoin="round"></path>
                    <path d="M4.3627,18.447 C4.4097,20.128 4.7037,21.743 5.2077,23.26" id="Stroke-9" stroke="#000066" stroke-width="0.5" stroke-linecap="round" stroke-linejoin="round"></path>
                    <path d="M30.3642,4.5573 C29.1572,3.8273 27.8512,3.2453 26.4732,2.8363" id="Stroke-11" stroke="#000066" stroke-width="0.5" stroke-linecap="round" stroke-linejoin="round"></path>
                    <g id="Group-15" transform="translate(16.000000, 44.145100)" stroke="#000066" stroke-linecap="round" stroke-linejoin="round">
                        <path d="M0.4843,0.5001 L12.4193,0.5001" id="Stroke-13"></path>
                    </g>
                    <polyline id="Stroke-16" stroke="#000066" stroke-linecap="round" stroke-linejoin="round" points="21.2045 21.2878 19.3815 44.6448 25.0465 44.6448 23.2325 21.3928"></polyline>
                    <path d="M38.3012,4.736 L28.6942,14.235 L24.8052,18.125 L23.4062,16.725 L26.3082,11.849 L36.7942,3.229 C37.2692,2.815 37.9412,2.8 38.3352,3.195 C38.7302,3.59 38.7152,4.261 38.3012,4.736" id="Fill-18" fill="#FFFFFF"></path>
                    <path d="M38.3012,4.736 L28.6942,14.235 L24.8052,18.125 L23.4062,16.725 L26.3082,11.849 L36.7942,3.229 C37.2692,2.815 37.9412,2.8 38.3352,3.195 C38.7302,3.59 38.7152,4.261 38.3012,4.736 Z" id="Stroke-20" stroke="#000066" stroke-linecap="round" stroke-linejoin="round"></path>
                    <path d="M1.8847,12.5368 L14.9147,16.1068 L20.2267,17.5308 L19.7157,19.4418 L14.0417,19.3658 L1.3327,14.5958 C0.7367,14.3908 0.3877,13.8168 0.5327,13.2778 C0.6767,12.7378 1.2657,12.4158 1.8847,12.5368" id="Fill-22" fill="#FFFFFF"></path>
                    <path d="M1.8847,12.5368 L14.9147,16.1068 L20.2267,17.5308 L19.7157,19.4418 L14.0417,19.3658 L1.3327,14.5958 C0.7367,14.3908 0.3877,13.8168 0.5327,13.2778 C0.6767,12.7378 1.2657,12.4158 1.8847,12.5368 Z" id="Stroke-24" stroke="#000066" stroke-linecap="round" stroke-linejoin="round"></path>
                    <g id="Group-29" transform="translate(22.000000, 20.145100)">
                        <path d="M2.3622,0.7081 L5.1332,5.6601 L7.3562,19.0511 C7.4772,19.6691 7.1542,20.2591 6.6152,20.4031 C6.0762,20.5471 5.5022,20.1981 5.2982,19.6031 L1.8752,6.5331 L0.4512,1.2211" id="Fill-26" fill="#FFFFFF"></path>
                        <path d="M2.3622,0.7081 L5.1332,5.6601 L7.3562,19.0511 C7.4772,19.6691 7.1542,20.2591 6.6152,20.4031 C6.0762,20.5471 5.5022,20.1981 5.2982,19.6031 L1.8752,6.5331 L0.4512,1.2211" id="Stroke-28" stroke="#000066" stroke-linecap="round" stroke-linejoin="round"></path>
                    </g>
                    <path d="M23.9062,17.3259 C22.9752,16.3949 21.4652,16.3949 20.5342,17.3259 C19.6032,18.2579 19.6032,19.7669 20.5342,20.6979 C21.4652,21.6299 22.9752,21.6299 23.9062,20.6979 C24.8372,19.7669 24.8372,18.2579 23.9062,17.3259" id="Fill-30" fill="#FFFFFF"></path>
                    <path d="M23.9062,17.3259 C22.9752,16.3949 21.4652,16.3949 20.5342,17.3259 C19.6032,18.2579 19.6032,19.7669 20.5342,20.6979 C21.4652,21.6299 22.9752,21.6299 23.9062,20.6979 C24.8372,19.7669 24.8372,18.2579 23.9062,17.3259 Z" id="Stroke-32" stroke="#000066" stroke-linecap="round" stroke-linejoin="round"></path>
                    <path d="M23.1454,19.0124 C23.1454,18.5004 22.7314,18.0864 22.2204,18.0864 C21.7084,18.0864 21.2944,18.5004 21.2944,19.0124 C21.2944,19.5234 21.7084,19.9374 22.2204,19.9374 C22.7314,19.9374 23.1454,19.5234 23.1454,19.0124 Z" id="Stroke-34" stroke="#000066" stroke-width="0.5" stroke-linecap="round" stroke-linejoin="round"></path>
                </g>
            </g>
        </g>
    </g>
</svg>