<?xml version="1.0" encoding="UTF-8" standalone="no"?>
<svg width="708px" height="452px" viewBox="0 0 708 452" version="1.1" xmlns="http://www.w3.org/2000/svg" xmlns:xlink="http://www.w3.org/1999/xlink">
    <!-- Generator: Sketch 49.2 (51160) - http://www.bohemiancoding.com/sketch -->
    <title>SSE_GraphResultat</title>
    <desc>Created with Sketch.</desc>
    <defs>
        <rect id="path-1" x="76" y="104" width="32" height="272"></rect>
        <rect id="path-2" x="162" y="128" width="32" height="248"></rect>
        <rect id="path-3" x="247" y="144" width="32" height="232"></rect>
        <rect id="path-4" x="333" y="160" width="32" height="216"></rect>
        <rect id="path-5" x="419" y="168" width="32" height="208"></rect>
        <rect id="path-6" x="505" y="216" width="32" height="160"></rect>
        <rect id="path-7" x="590" y="224" width="32" height="152"></rect>
        <rect id="path-8" x="676" y="296" width="32" height="80"></rect>
        <rect id="path-9" x="564" y="0" width="32" height="16"></rect>
    </defs>
    <g id="Maquettes" stroke="none" stroke-width="1" fill="none" fill-rule="evenodd">
        <g id="VectorStuff" transform="translate(-388.000000, -961.000000)">
            <g id="SSE_GraphResultat" transform="translate(388.000000, 961.000000)">
                <g transform="translate(0.000000, 39.000000)">
                    <path d="M5.322,372.974 C4.99799838,372.882 4.67200164,372.836 4.344,372.836 C3.59199624,372.836 3.0260019,373.087997 2.646,373.592 C2.2659981,374.096003 2.08799988,374.783996 2.112,375.656 C2.32800108,375.287998 2.62199814,375.010001 2.994,374.822 C3.36600186,374.633999 3.80799744,374.54 4.32,374.54 C5.15200416,374.54 5.81199756,374.783998 6.3,375.272 C6.78800244,375.760002 7.032,376.411996 7.032,377.228 C7.032,377.804003 6.90800124,378.305998 6.66,378.734 C6.41199876,379.162002 6.06200226,379.491999 5.61,379.724 C5.15799774,379.956001 4.632003,380.072 4.032,380.072 C3.31999644,380.072 2.7040026,379.908002 2.184,379.58 C1.6639974,379.251998 1.26600138,378.780003 0.99,378.164 C0.71399862,377.547997 0.576,376.812004 0.576,375.956 C0.576,375.067996 0.7259985,374.290003 1.026,373.622 C1.3260015,372.953997 1.75199724,372.438002 2.304,372.074 C2.85600276,371.709998 3.50399628,371.528 4.248,371.528 C4.68000216,371.528 5.1259977,371.585999 5.586,371.702 C6.0460023,371.818001 6.44799828,371.975999 6.792,372.176 L6.18,373.376 C5.93199876,373.199999 5.64600162,373.066 5.322,372.974 Z M2.784,376.208 C2.47999848,376.496001 2.33199996,376.851998 2.34,377.276 C2.33199996,377.516001 2.3879994,377.745999 2.508,377.966 C2.6280006,378.186001 2.80999878,378.365999 3.054,378.506 C3.29800122,378.646001 3.5999982,378.716 3.96,378.716 C4.4400024,378.716 4.82399856,378.584001 5.112,378.32 C5.40000144,378.055999 5.544,377.688002 5.544,377.216 C5.544,376.775998 5.40600138,376.426001 5.13,376.166 C4.85399862,375.905999 4.48000236,375.776 4.008,375.776 C3.49599744,375.776 3.08800152,375.919999 2.784,376.208 Z M14.52,372.632 C15.1440031,373.368004 15.456,374.423993 15.456,375.8 C15.456,377.168007 15.1440031,378.219996 14.52,378.956 C13.8959969,379.692004 13.0040058,380.06 11.844,380.06 C10.6839942,380.06 9.79200312,379.692004 9.168,378.956 C8.54399688,378.219996 8.232,377.168007 8.232,375.8 C8.232,374.423993 8.54399688,373.368004 9.168,372.632 C9.79200312,371.895996 10.6839942,371.528 11.844,371.528 C13.0040058,371.528 13.8959969,371.895996 14.52,372.632 Z M10.368,373.526 C10.0479984,374.010002 9.888,374.767995 9.888,375.8 C9.888,376.824005 10.0479984,377.579998 10.368,378.068 C10.6880016,378.556002 11.1799967,378.8 11.844,378.8 C12.5080033,378.8 12.9999984,378.556002 13.32,378.068 C13.6400016,377.579998 13.8,376.824005 13.8,375.8 C13.8,374.767995 13.6400016,374.010002 13.32,373.526 C12.9999984,373.041998 12.5080033,372.8 11.844,372.8 C11.1799967,372.8 10.6880016,373.041998 10.368,373.526 Z M20.364,372.242 C20.764002,372.686002 20.964,373.299996 20.964,374.084 C20.964,374.868004 20.764002,375.485998 20.364,375.938 C19.963998,376.390002 19.4120035,376.616 18.708,376.616 C18.0119965,376.616 17.464002,376.390002 17.064,375.938 C16.663998,375.485998 16.464,374.868004 16.464,374.084 C16.464,373.307996 16.663998,372.696002 17.064,372.248 C17.464002,371.799998 18.0119965,371.576 18.708,371.576 C19.4120035,371.576 19.963998,371.797998 20.364,372.242 Z M17.814,372.908 C17.6019989,373.188001 17.496,373.579997 17.496,374.084 C17.496,374.596003 17.6019989,374.993999 17.814,375.278 C18.0260011,375.562001 18.3239981,375.704 18.708,375.704 C19.100002,375.704 19.4039989,375.562001 19.62,375.278 C19.8360011,374.993999 19.944,374.596003 19.944,374.084 C19.944,373.579997 19.8360011,373.188001 19.62,372.908 C19.4039989,372.627999 19.100002,372.488 18.708,372.488 C18.3239981,372.488 18.0260011,372.627999 17.814,372.908 Z M24.324,371.6 L25.512,371.6 L19.392,380 L18.192,380 L24.324,371.6 Z M26.736,375.662 C27.136002,376.106002 27.336,376.719996 27.336,377.504 C27.336,378.288004 27.136002,378.905998 26.736,379.358 C26.335998,379.810002 25.7840035,380.036 25.08,380.036 C24.3839965,380.036 23.836002,379.810002 23.436,379.358 C23.035998,378.905998 22.836,378.288004 22.836,377.504 C22.836,376.727996 23.035998,376.116002 23.436,375.668 C23.836002,375.219998 24.3839965,374.996 25.08,374.996 C25.7840035,374.996 26.335998,375.217998 26.736,375.662 Z M24.186,376.328 C23.9739989,376.608001 23.868,376.999997 23.868,377.504 C23.868,378.016003 23.9739989,378.413999 24.186,378.698 C24.3980011,378.982001 24.6959981,379.124 25.08,379.124 C25.472002,379.124 25.7759989,378.982001 25.992,378.698 C26.2080011,378.413999 26.316,378.016003 26.316,377.504 C26.316,376.999997 26.2080011,376.608001 25.992,376.328 C25.7759989,376.047999 25.472002,375.908 25.08,375.908 C24.6959981,375.908 24.3980011,376.047999 24.186,376.328 Z" id="60%" fill="#575757" opacity="0.699999988"></path>
                    <path d="M82.288,412 L80.836,409.516 C80.7719997,409.524 80.6720007,409.528 80.536,409.528 L78.64,409.528 L78.64,412 L77.032,412 L77.032,403.6 L80.536,403.6 C81.6240054,403.6 82.463997,403.851997 83.056,404.356 C83.648003,404.860003 83.944,405.571995 83.944,406.492 C83.944,407.148003 83.8020014,407.707998 83.518,408.172 C83.2339986,408.636002 82.8200027,408.983999 82.276,409.216 L84.124,412 L82.288,412 Z M78.64,408.112 L80.536,408.112 C81.144003,408.112 81.6079984,407.980001 81.928,407.716 C82.2480016,407.451999 82.408,407.060003 82.408,406.54 C82.408,406.027997 82.2480016,405.644001 81.928,405.388 C81.6079984,405.131999 81.144003,405.004 80.536,405.004 L78.64,405.004 L78.64,408.112 Z M90.634,406.408 C91.1500026,406.992003 91.408,407.811995 91.408,408.868 C91.408,409.076001 91.404,409.231999 91.396,409.336 L86.656,409.336 C86.7600005,409.792002 86.9739984,410.149999 87.298,410.41 C87.6220016,410.670001 88.0199976,410.8 88.492,410.8 C88.8200016,410.8 89.1339985,410.738001 89.434,410.614 C89.7340015,410.489999 89.9959989,410.312001 90.22,410.08 L91.06,410.956 C90.7399984,411.308002 90.3500023,411.579999 89.89,411.772 C89.4299977,411.964001 88.9200028,412.06 88.36,412.06 C87.7039967,412.06 87.1260025,411.924001 86.626,411.652 C86.1259975,411.379999 85.7400014,410.998002 85.468,410.506 C85.1959986,410.013998 85.06,409.448003 85.06,408.808 C85.06,408.167997 85.1979986,407.600002 85.474,407.104 C85.7500014,406.607998 86.1359975,406.222001 86.632,405.946 C87.1280025,405.669999 87.6919968,405.532 88.324,405.532 C89.3480051,405.532 90.1179974,405.823997 90.634,406.408 Z M89.98,408.292 C89.9639999,407.819998 89.8080015,407.444001 89.512,407.164 C89.2159985,406.883999 88.8240024,406.744 88.336,406.744 C87.8799977,406.744 87.4980015,406.881999 87.19,407.158 C86.8819985,407.434001 86.6920004,407.811998 86.62,408.292 L89.98,408.292 Z M94.762,404.572 C94.6059992,404.708001 94.528,404.911999 94.528,405.184 L94.528,405.844 L96.136,405.844 L96.136,406.984 L94.528,406.984 L94.528,412 L92.968,412 L92.968,406.984 L92.128,406.984 L92.128,405.844 L92.968,405.844 L92.968,405.232 C92.968,404.759998 93.071999,404.358002 93.28,404.026 C93.488001,403.693998 93.7659983,403.444001 94.114,403.276 C94.4620017,403.107999 94.839998,403.024 95.248,403.024 C95.648002,403.024 96.0399981,403.115999 96.424,403.3 L96.148,404.56 C95.8279984,404.431999 95.564001,404.368 95.356,404.368 C95.1159988,404.368 94.9180008,404.435999 94.762,404.572 Z M98.134,410.62 C98.2900008,410.780001 98.368,410.983999 98.368,411.232 C98.368,411.488001 98.2900008,411.697999 98.134,411.862 C97.9779992,412.026001 97.7800012,412.108 97.54,412.108 C97.3079988,412.108 97.1140008,412.024001 96.958,411.856 C96.8019992,411.687999 96.724,411.480001 96.724,411.232 C96.724,410.983999 96.8019992,410.780001 96.958,410.62 C97.1140008,410.459999 97.3079988,410.38 97.54,410.38 C97.7800012,410.38 97.9779992,410.459999 98.134,410.62 Z M101.848,403.6 L105.22,403.6 L105.22,412 L103.612,412 L103.612,405.016 L101.848,405.016 L101.848,403.6 Z" id="Ref.-1" fill="#575757" opacity="0.699999988"></path>
                    <path d="M165.288,412 L163.836,409.516 C163.772,409.524 163.672001,409.528 163.536,409.528 L161.64,409.528 L161.64,412 L160.032,412 L160.032,403.6 L163.536,403.6 C164.624005,403.6 165.463997,403.851997 166.056,404.356 C166.648003,404.860003 166.944,405.571995 166.944,406.492 C166.944,407.148003 166.802001,407.707998 166.518,408.172 C166.233999,408.636002 165.820003,408.983999 165.276,409.216 L167.124,412 L165.288,412 Z M161.64,408.112 L163.536,408.112 C164.144003,408.112 164.607998,407.980001 164.928,407.716 C165.248002,407.451999 165.408,407.060003 165.408,406.54 C165.408,406.027997 165.248002,405.644001 164.928,405.388 C164.607998,405.131999 164.144003,405.004 163.536,405.004 L161.64,405.004 L161.64,408.112 Z M173.634,406.408 C174.150003,406.992003 174.408,407.811995 174.408,408.868 C174.408,409.076001 174.404,409.231999 174.396,409.336 L169.656,409.336 C169.760001,409.792002 169.973998,410.149999 170.298,410.41 C170.622002,410.670001 171.019998,410.8 171.492,410.8 C171.820002,410.8 172.133998,410.738001 172.434,410.614 C172.734002,410.489999 172.995999,410.312001 173.22,410.08 L174.06,410.956 C173.739998,411.308002 173.350002,411.579999 172.89,411.772 C172.429998,411.964001 171.920003,412.06 171.36,412.06 C170.703997,412.06 170.126002,411.924001 169.626,411.652 C169.125998,411.379999 168.740001,410.998002 168.468,410.506 C168.195999,410.013998 168.06,409.448003 168.06,408.808 C168.06,408.167997 168.197999,407.600002 168.474,407.104 C168.750001,406.607998 169.135998,406.222001 169.632,405.946 C170.128002,405.669999 170.691997,405.532 171.324,405.532 C172.348005,405.532 173.117997,405.823997 173.634,406.408 Z M172.98,408.292 C172.964,407.819998 172.808001,407.444001 172.512,407.164 C172.215999,406.883999 171.824002,406.744 171.336,406.744 C170.879998,406.744 170.498002,406.881999 170.19,407.158 C169.881998,407.434001 169.692,407.811998 169.62,408.292 L172.98,408.292 Z M177.762,404.572 C177.605999,404.708001 177.528,404.911999 177.528,405.184 L177.528,405.844 L179.136,405.844 L179.136,406.984 L177.528,406.984 L177.528,412 L175.968,412 L175.968,406.984 L175.128,406.984 L175.128,405.844 L175.968,405.844 L175.968,405.232 C175.968,404.759998 176.071999,404.358002 176.28,404.026 C176.488001,403.693998 176.765998,403.444001 177.114,403.276 C177.462002,403.107999 177.839998,403.024 178.248,403.024 C178.648002,403.024 179.039998,403.115999 179.424,403.3 L179.148,404.56 C178.827998,404.431999 178.564001,404.368 178.356,404.368 C178.115999,404.368 177.918001,404.435999 177.762,404.572 Z M181.134,410.62 C181.290001,410.780001 181.368,410.983999 181.368,411.232 C181.368,411.488001 181.290001,411.697999 181.134,411.862 C180.977999,412.026001 180.780001,412.108 180.54,412.108 C180.307999,412.108 180.114001,412.024001 179.958,411.856 C179.801999,411.687999 179.724,411.480001 179.724,411.232 C179.724,410.983999 179.801999,410.780001 179.958,410.62 C180.114001,410.459999 180.307999,410.38 180.54,410.38 C180.780001,410.38 180.977999,410.459999 181.134,410.62 Z M191.508,410.596 L191.508,412 L185.292,412 L185.292,410.836 L188.46,407.572 C188.764002,407.267998 189.007999,406.968001 189.192,406.672 C189.376001,406.375999 189.468,406.120001 189.468,405.904 C189.468,405.599998 189.348001,405.362001 189.108,405.19 C188.867999,405.017999 188.536002,404.932 188.112,404.932 C187.743998,404.932 187.352002,405.023999 186.936,405.208 C186.519998,405.392001 186.128002,405.647998 185.76,405.976 L185.124,404.74 C185.620002,404.355998 186.141997,404.058001 186.69,403.846 C187.238003,403.633999 187.787997,403.528 188.34,403.528 C188.892003,403.528 189.379998,403.615999 189.804,403.792 C190.228002,403.968001 190.557999,404.217998 190.794,404.542 C191.030001,404.866002 191.148,405.239998 191.148,405.664 C191.148,406.072002 191.008001,406.503998 190.728,406.96 C190.447999,407.416002 190.056003,407.907997 189.552,408.436 L187.416,410.596 L191.508,410.596 Z" id="Ref.-2" fill="#575757" opacity="0.699999988"></path>
                    <path d="M251.288,412 L249.836,409.516 C249.772,409.524 249.672001,409.528 249.536,409.528 L247.64,409.528 L247.64,412 L246.032,412 L246.032,403.6 L249.536,403.6 C250.624005,403.6 251.463997,403.851997 252.056,404.356 C252.648003,404.860003 252.944,405.571995 252.944,406.492 C252.944,407.148003 252.802001,407.707998 252.518,408.172 C252.233999,408.636002 251.820003,408.983999 251.276,409.216 L253.124,412 L251.288,412 Z M247.64,408.112 L249.536,408.112 C250.144003,408.112 250.607998,407.980001 250.928,407.716 C251.248002,407.451999 251.408,407.060003 251.408,406.54 C251.408,406.027997 251.248002,405.644001 250.928,405.388 C250.607998,405.131999 250.144003,405.004 249.536,405.004 L247.64,405.004 L247.64,408.112 Z M259.634,406.408 C260.150003,406.992003 260.408,407.811995 260.408,408.868 C260.408,409.076001 260.404,409.231999 260.396,409.336 L255.656,409.336 C255.760001,409.792002 255.973998,410.149999 256.298,410.41 C256.622002,410.670001 257.019998,410.8 257.492,410.8 C257.820002,410.8 258.133999,410.738001 258.434,410.614 C258.734001,410.489999 258.995999,410.312001 259.22,410.08 L260.06,410.956 C259.739998,411.308002 259.350002,411.579999 258.89,411.772 C258.429998,411.964001 257.920003,412.06 257.36,412.06 C256.703997,412.06 256.126003,411.924001 255.626,411.652 C255.125998,411.379999 254.740001,410.998002 254.468,410.506 C254.195999,410.013998 254.06,409.448003 254.06,408.808 C254.06,408.167997 254.197999,407.600002 254.474,407.104 C254.750001,406.607998 255.135998,406.222001 255.632,405.946 C256.128002,405.669999 256.691997,405.532 257.324,405.532 C258.348005,405.532 259.117997,405.823997 259.634,406.408 Z M258.98,408.292 C258.964,407.819998 258.808001,407.444001 258.512,407.164 C258.215999,406.883999 257.824002,406.744 257.336,406.744 C256.879998,406.744 256.498002,406.881999 256.19,407.158 C255.881998,407.434001 255.692,407.811998 255.62,408.292 L258.98,408.292 Z M263.762,404.572 C263.605999,404.708001 263.528,404.911999 263.528,405.184 L263.528,405.844 L265.136,405.844 L265.136,406.984 L263.528,406.984 L263.528,412 L261.968,412 L261.968,406.984 L261.128,406.984 L261.128,405.844 L261.968,405.844 L261.968,405.232 C261.968,404.759998 262.071999,404.358002 262.28,404.026 C262.488001,403.693998 262.765998,403.444001 263.114,403.276 C263.462002,403.107999 263.839998,403.024 264.248,403.024 C264.648002,403.024 265.039998,403.115999 265.424,403.3 L265.148,404.56 C264.827998,404.431999 264.564001,404.368 264.356,404.368 C264.115999,404.368 263.918001,404.435999 263.762,404.572 Z M267.134,410.62 C267.290001,410.780001 267.368,410.983999 267.368,411.232 C267.368,411.488001 267.290001,411.697999 267.134,411.862 C266.977999,412.026001 266.780001,412.108 266.54,412.108 C266.307999,412.108 266.114001,412.024001 265.958,411.856 C265.801999,411.687999 265.724,411.480001 265.724,411.232 C265.724,410.983999 265.801999,410.780001 265.958,410.62 C266.114001,410.459999 266.307999,410.38 266.54,410.38 C266.780001,410.38 266.977999,410.459999 267.134,410.62 Z M276.722,407.812 C277.182002,408.212002 277.412,408.735997 277.412,409.384 C277.412,409.912003 277.276001,410.377998 277.004,410.782 C276.731999,411.186002 276.344003,411.501999 275.84,411.73 C275.335997,411.958001 274.748003,412.072 274.076,412.072 C273.507997,412.072 272.946003,411.986001 272.39,411.814 C271.833997,411.641999 271.360002,411.412001 270.968,411.124 L271.604,409.876 C271.940002,410.156001 272.311998,410.369999 272.72,410.518 C273.128002,410.666001 273.543998,410.74 273.968,410.74 C274.552003,410.74 275.009998,410.620001 275.342,410.38 C275.674002,410.139999 275.84,409.816002 275.84,409.408 C275.84,408.991998 275.676002,408.674001 275.348,408.454 C275.019998,408.233999 274.552003,408.124 273.944,408.124 L272.672,408.124 L272.672,407.152 L274.928,404.968 L271.388,404.968 L271.376,403.6 L276.992,403.6 L276.992,404.596 L274.424,407.056 L274.868,407.104 C275.644004,407.176 276.261998,407.411998 276.722,407.812 Z" id="Ref.-3" fill="#575757" opacity="0.699999988"></path>
                    <path d="M336.288,412 L334.836,409.516 C334.772,409.524 334.672001,409.528 334.536,409.528 L332.64,409.528 L332.64,412 L331.032,412 L331.032,403.6 L334.536,403.6 C335.624005,403.6 336.463997,403.851997 337.056,404.356 C337.648003,404.860003 337.944,405.571995 337.944,406.492 C337.944,407.148003 337.802001,407.707998 337.518,408.172 C337.233999,408.636002 336.820003,408.983999 336.276,409.216 L338.124,412 L336.288,412 Z M332.64,408.112 L334.536,408.112 C335.144003,408.112 335.607998,407.980001 335.928,407.716 C336.248002,407.451999 336.408,407.060003 336.408,406.54 C336.408,406.027997 336.248002,405.644001 335.928,405.388 C335.607998,405.131999 335.144003,405.004 334.536,405.004 L332.64,405.004 L332.64,408.112 Z M344.634,406.408 C345.150003,406.992003 345.408,407.811995 345.408,408.868 C345.408,409.076001 345.404,409.231999 345.396,409.336 L340.656,409.336 C340.760001,409.792002 340.973998,410.149999 341.298,410.41 C341.622002,410.670001 342.019998,410.8 342.492,410.8 C342.820002,410.8 343.133999,410.738001 343.434,410.614 C343.734001,410.489999 343.995999,410.312001 344.22,410.08 L345.06,410.956 C344.739998,411.308002 344.350002,411.579999 343.89,411.772 C343.429998,411.964001 342.920003,412.06 342.36,412.06 C341.703997,412.06 341.126003,411.924001 340.626,411.652 C340.125997,411.379999 339.740001,410.998002 339.468,410.506 C339.195999,410.013998 339.06,409.448003 339.06,408.808 C339.06,408.167997 339.197999,407.600002 339.474,407.104 C339.750001,406.607998 340.135998,406.222001 340.632,405.946 C341.128002,405.669999 341.691997,405.532 342.324,405.532 C343.348005,405.532 344.117997,405.823997 344.634,406.408 Z M343.98,408.292 C343.964,407.819998 343.808001,407.444001 343.512,407.164 C343.215999,406.883999 342.824002,406.744 342.336,406.744 C341.879998,406.744 341.498002,406.881999 341.19,407.158 C340.881998,407.434001 340.692,407.811998 340.62,408.292 L343.98,408.292 Z M348.762,404.572 C348.605999,404.708001 348.528,404.911999 348.528,405.184 L348.528,405.844 L350.136,405.844 L350.136,406.984 L348.528,406.984 L348.528,412 L346.968,412 L346.968,406.984 L346.128,406.984 L346.128,405.844 L346.968,405.844 L346.968,405.232 C346.968,404.759998 347.071999,404.358002 347.28,404.026 C347.488001,403.693998 347.765998,403.444001 348.114,403.276 C348.462002,403.107999 348.839998,403.024 349.248,403.024 C349.648002,403.024 350.039998,403.115999 350.424,403.3 L350.148,404.56 C349.827998,404.431999 349.564001,404.368 349.356,404.368 C349.115999,404.368 348.918001,404.435999 348.762,404.572 Z M352.134,410.62 C352.290001,410.780001 352.368,410.983999 352.368,411.232 C352.368,411.488001 352.290001,411.697999 352.134,411.862 C351.977999,412.026001 351.780001,412.108 351.54,412.108 C351.307999,412.108 351.114001,412.024001 350.958,411.856 C350.801999,411.687999 350.724,411.480001 350.724,411.232 C350.724,410.983999 350.801999,410.780001 350.958,410.62 C351.114001,410.459999 351.307999,410.38 351.54,410.38 C351.780001,410.38 351.977999,410.459999 352.134,410.62 Z M362.652,408.64 L362.652,410.02 L361.44,410.02 L361.44,412 L359.952,412 L359.952,410.02 L355.932,410.02 L355.932,408.832 L358.668,403.6 L360.216,403.6 L357.648,408.64 L359.952,408.64 L359.952,406.696 L361.44,406.696 L361.44,408.64 L362.652,408.64 Z" id="Ref.-4" fill="#575757" opacity="0.699999988"></path>
                    <path d="M422.288,412 L420.836,409.516 C420.772,409.524 420.672001,409.528 420.536,409.528 L418.64,409.528 L418.64,412 L417.032,412 L417.032,403.6 L420.536,403.6 C421.624005,403.6 422.463997,403.851997 423.056,404.356 C423.648003,404.860003 423.944,405.571995 423.944,406.492 C423.944,407.148003 423.802001,407.707998 423.518,408.172 C423.233999,408.636002 422.820003,408.983999 422.276,409.216 L424.124,412 L422.288,412 Z M418.64,408.112 L420.536,408.112 C421.144003,408.112 421.607998,407.980001 421.928,407.716 C422.248002,407.451999 422.408,407.060003 422.408,406.54 C422.408,406.027997 422.248002,405.644001 421.928,405.388 C421.607998,405.131999 421.144003,405.004 420.536,405.004 L418.64,405.004 L418.64,408.112 Z M430.634,406.408 C431.150003,406.992003 431.408,407.811995 431.408,408.868 C431.408,409.076001 431.404,409.231999 431.396,409.336 L426.656,409.336 C426.760001,409.792002 426.973998,410.149999 427.298,410.41 C427.622002,410.670001 428.019998,410.8 428.492,410.8 C428.820002,410.8 429.133999,410.738001 429.434,410.614 C429.734001,410.489999 429.995999,410.312001 430.22,410.08 L431.06,410.956 C430.739998,411.308002 430.350002,411.579999 429.89,411.772 C429.429998,411.964001 428.920003,412.06 428.36,412.06 C427.703997,412.06 427.126003,411.924001 426.626,411.652 C426.125997,411.379999 425.740001,410.998002 425.468,410.506 C425.195999,410.013998 425.06,409.448003 425.06,408.808 C425.06,408.167997 425.197999,407.600002 425.474,407.104 C425.750001,406.607998 426.135998,406.222001 426.632,405.946 C427.128002,405.669999 427.691997,405.532 428.324,405.532 C429.348005,405.532 430.117997,405.823997 430.634,406.408 Z M429.98,408.292 C429.964,407.819998 429.808001,407.444001 429.512,407.164 C429.215999,406.883999 428.824002,406.744 428.336,406.744 C427.879998,406.744 427.498002,406.881999 427.19,407.158 C426.881998,407.434001 426.692,407.811998 426.62,408.292 L429.98,408.292 Z M434.762,404.572 C434.605999,404.708001 434.528,404.911999 434.528,405.184 L434.528,405.844 L436.136,405.844 L436.136,406.984 L434.528,406.984 L434.528,412 L432.968,412 L432.968,406.984 L432.128,406.984 L432.128,405.844 L432.968,405.844 L432.968,405.232 C432.968,404.759998 433.071999,404.358002 433.28,404.026 C433.488001,403.693998 433.765998,403.444001 434.114,403.276 C434.462002,403.107999 434.839998,403.024 435.248,403.024 C435.648002,403.024 436.039998,403.115999 436.424,403.3 L436.148,404.56 C435.827998,404.431999 435.564001,404.368 435.356,404.368 C435.115999,404.368 434.918001,404.435999 434.762,404.572 Z M438.134,410.62 C438.290001,410.780001 438.368,410.983999 438.368,411.232 C438.368,411.488001 438.290001,411.697999 438.134,411.862 C437.977999,412.026001 437.780001,412.108 437.54,412.108 C437.307999,412.108 437.114001,412.024001 436.958,411.856 C436.801999,411.687999 436.724,411.480001 436.724,411.232 C436.724,410.983999 436.801999,410.780001 436.958,410.62 C437.114001,410.459999 437.307999,410.38 437.54,410.38 C437.780001,410.38 437.977999,410.459999 438.134,410.62 Z M447.296,406.996 C447.776002,407.212001 448.145999,407.513998 448.406,407.902 C448.666001,408.290002 448.796,408.727998 448.796,409.216 C448.796,409.784003 448.660001,410.283998 448.388,410.716 C448.115999,411.148002 447.732002,411.481999 447.236,411.718 C446.739998,411.954001 446.164003,412.072 445.508,412.072 C444.979997,412.072 444.430003,411.982001 443.858,411.802 C443.285997,411.621999 442.780002,411.380002 442.34,411.076 L442.976,409.816 C443.336002,410.096001 443.719998,410.313999 444.128,410.47 C444.536002,410.626001 444.943998,410.704 445.352,410.704 C445.880003,410.704 446.297998,410.582001 446.606,410.338 C446.914002,410.093999 447.068,409.760002 447.068,409.336 C447.068,408.927998 446.916002,408.612001 446.612,408.388 C446.307998,408.163999 445.856003,408.052 445.256,408.052 C444.967999,408.052 444.588002,408.062 444.116,408.082 C443.643998,408.102 443.280001,408.124 443.024,408.148 L443.024,403.6 L448.424,403.6 L448.424,405.004 L444.512,405.004 L444.512,406.672 L445.628,406.672 C446.260003,406.672 446.815998,406.779999 447.296,406.996 Z" id="Ref.-5" fill="#575757" opacity="0.699999988"></path>
                    <path d="M508.288,412 L506.836,409.516 C506.772,409.524 506.672001,409.528 506.536,409.528 L504.64,409.528 L504.64,412 L503.032,412 L503.032,403.6 L506.536,403.6 C507.624005,403.6 508.463997,403.851997 509.056,404.356 C509.648003,404.860003 509.944,405.571995 509.944,406.492 C509.944,407.148003 509.802001,407.707998 509.518,408.172 C509.233999,408.636002 508.820003,408.983999 508.276,409.216 L510.124,412 L508.288,412 Z M504.64,408.112 L506.536,408.112 C507.144003,408.112 507.607998,407.980001 507.928,407.716 C508.248002,407.451999 508.408,407.060003 508.408,406.54 C508.408,406.027997 508.248002,405.644001 507.928,405.388 C507.607998,405.131999 507.144003,405.004 506.536,405.004 L504.64,405.004 L504.64,408.112 Z M516.634,406.408 C517.150003,406.992003 517.408,407.811995 517.408,408.868 C517.408,409.076001 517.404,409.231999 517.396,409.336 L512.656,409.336 C512.760001,409.792002 512.973998,410.149999 513.298,410.41 C513.622002,410.670001 514.019998,410.8 514.492,410.8 C514.820002,410.8 515.133998,410.738001 515.434,410.614 C515.734001,410.489999 515.995999,410.312001 516.22,410.08 L517.06,410.956 C516.739998,411.308002 516.350002,411.579999 515.89,411.772 C515.429998,411.964001 514.920003,412.06 514.36,412.06 C513.703997,412.06 513.126003,411.924001 512.626,411.652 C512.125998,411.379999 511.740001,410.998002 511.468,410.506 C511.195999,410.013998 511.06,409.448003 511.06,408.808 C511.06,408.167997 511.197999,407.600002 511.474,407.104 C511.750001,406.607998 512.135998,406.222001 512.632,405.946 C513.128002,405.669999 513.691997,405.532 514.324,405.532 C515.348005,405.532 516.117997,405.823997 516.634,406.408 Z M515.98,408.292 C515.964,407.819998 515.808001,407.444001 515.512,407.164 C515.215999,406.883999 514.824002,406.744 514.336,406.744 C513.879998,406.744 513.498002,406.881999 513.19,407.158 C512.881998,407.434001 512.692,407.811998 512.62,408.292 L515.98,408.292 Z M520.762,404.572 C520.605999,404.708001 520.528,404.911999 520.528,405.184 L520.528,405.844 L522.136,405.844 L522.136,406.984 L520.528,406.984 L520.528,412 L518.968,412 L518.968,406.984 L518.128,406.984 L518.128,405.844 L518.968,405.844 L518.968,405.232 C518.968,404.759998 519.071999,404.358002 519.28,404.026 C519.488001,403.693998 519.765998,403.444001 520.114,403.276 C520.462002,403.107999 520.839998,403.024 521.248,403.024 C521.648002,403.024 522.039998,403.115999 522.424,403.3 L522.148,404.56 C521.827998,404.431999 521.564001,404.368 521.356,404.368 C521.115999,404.368 520.918001,404.435999 520.762,404.572 Z M524.134,410.62 C524.290001,410.780001 524.368,410.983999 524.368,411.232 C524.368,411.488001 524.290001,411.697999 524.134,411.862 C523.977999,412.026001 523.780001,412.108 523.54,412.108 C523.307999,412.108 523.114001,412.024001 522.958,411.856 C522.801999,411.687999 522.724,411.480001 522.724,411.232 C522.724,410.983999 522.801999,410.780001 522.958,410.62 C523.114001,410.459999 523.307999,410.38 523.54,410.38 C523.780001,410.38 523.977999,410.459999 524.134,410.62 Z M533.158,404.974 C532.833998,404.882 532.508002,404.836 532.18,404.836 C531.427996,404.836 530.862002,405.087997 530.482,405.592 C530.101998,406.096003 529.924,406.783996 529.948,407.656 C530.164001,407.287998 530.457998,407.010001 530.83,406.822 C531.202002,406.633999 531.643997,406.54 532.156,406.54 C532.988004,406.54 533.647998,406.783998 534.136,407.272 C534.624002,407.760002 534.868,408.411996 534.868,409.228 C534.868,409.804003 534.744001,410.305998 534.496,410.734 C534.247999,411.162002 533.898002,411.491999 533.446,411.724 C532.993998,411.956001 532.468003,412.072 531.868,412.072 C531.155996,412.072 530.540003,411.908002 530.02,411.58 C529.499997,411.251998 529.102001,410.780003 528.826,410.164 C528.549999,409.547997 528.412,408.812004 528.412,407.956 C528.412,407.067996 528.561998,406.290003 528.862,405.622 C529.162001,404.953997 529.587997,404.438002 530.14,404.074 C530.692003,403.709998 531.339996,403.528 532.084,403.528 C532.516002,403.528 532.961998,403.585999 533.422,403.702 C533.882002,403.818001 534.283998,403.975999 534.628,404.176 L534.016,405.376 C533.767999,405.199999 533.482002,405.066 533.158,404.974 Z M530.62,408.208 C530.315998,408.496001 530.168,408.851998 530.176,409.276 C530.168,409.516001 530.223999,409.745999 530.344,409.966 C530.464001,410.186001 530.645999,410.365999 530.89,410.506 C531.134001,410.646001 531.435998,410.716 531.796,410.716 C532.276002,410.716 532.659999,410.584001 532.948,410.32 C533.236001,410.055999 533.38,409.688002 533.38,409.216 C533.38,408.775998 533.242001,408.426001 532.966,408.166 C532.689999,407.905999 532.316002,407.776 531.844,407.776 C531.331997,407.776 530.924002,407.919999 530.62,408.208 Z" id="Ref.-6" fill="#575757" opacity="0.699999988"></path>
                    <path d="M595.288,412 L593.836,409.516 C593.772,409.524 593.672001,409.528 593.536,409.528 L591.64,409.528 L591.64,412 L590.032,412 L590.032,403.6 L593.536,403.6 C594.624005,403.6 595.463997,403.851997 596.056,404.356 C596.648003,404.860003 596.944,405.571995 596.944,406.492 C596.944,407.148003 596.802001,407.707998 596.518,408.172 C596.233999,408.636002 595.820003,408.983999 595.276,409.216 L597.124,412 L595.288,412 Z M591.64,408.112 L593.536,408.112 C594.144003,408.112 594.607998,407.980001 594.928,407.716 C595.248002,407.451999 595.408,407.060003 595.408,406.54 C595.408,406.027997 595.248002,405.644001 594.928,405.388 C594.607998,405.131999 594.144003,405.004 593.536,405.004 L591.64,405.004 L591.64,408.112 Z M603.634,406.408 C604.150003,406.992003 604.408,407.811995 604.408,408.868 C604.408,409.076001 604.404,409.231999 604.396,409.336 L599.656,409.336 C599.760001,409.792002 599.973998,410.149999 600.298,410.41 C600.622002,410.670001 601.019998,410.8 601.492,410.8 C601.820002,410.8 602.133998,410.738001 602.434,410.614 C602.734001,410.489999 602.995999,410.312001 603.22,410.08 L604.06,410.956 C603.739998,411.308002 603.350002,411.579999 602.89,411.772 C602.429998,411.964001 601.920003,412.06 601.36,412.06 C600.703997,412.06 600.126003,411.924001 599.626,411.652 C599.125998,411.379999 598.740001,410.998002 598.468,410.506 C598.195999,410.013998 598.06,409.448003 598.06,408.808 C598.06,408.167997 598.197999,407.600002 598.474,407.104 C598.750001,406.607998 599.135998,406.222001 599.632,405.946 C600.128002,405.669999 600.691997,405.532 601.324,405.532 C602.348005,405.532 603.117997,405.823997 603.634,406.408 Z M602.98,408.292 C602.964,407.819998 602.808001,407.444001 602.512,407.164 C602.215999,406.883999 601.824002,406.744 601.336,406.744 C600.879998,406.744 600.498002,406.881999 600.19,407.158 C599.881998,407.434001 599.692,407.811998 599.62,408.292 L602.98,408.292 Z M607.762,404.572 C607.605999,404.708001 607.528,404.911999 607.528,405.184 L607.528,405.844 L609.136,405.844 L609.136,406.984 L607.528,406.984 L607.528,412 L605.968,412 L605.968,406.984 L605.128,406.984 L605.128,405.844 L605.968,405.844 L605.968,405.232 C605.968,404.759998 606.071999,404.358002 606.28,404.026 C606.488001,403.693998 606.765998,403.444001 607.114,403.276 C607.462002,403.107999 607.839998,403.024 608.248,403.024 C608.648002,403.024 609.039998,403.115999 609.424,403.3 L609.148,404.56 C608.827998,404.431999 608.564001,404.368 608.356,404.368 C608.115999,404.368 607.918001,404.435999 607.762,404.572 Z M611.134,410.62 C611.290001,410.780001 611.368,410.983999 611.368,411.232 C611.368,411.488001 611.290001,411.697999 611.134,411.862 C610.977999,412.026001 610.780001,412.108 610.54,412.108 C610.307999,412.108 610.114001,412.024001 609.958,411.856 C609.801999,411.687999 609.724,411.480001 609.724,411.232 C609.724,410.983999 609.801999,410.780001 609.958,410.62 C610.114001,410.459999 610.307999,410.38 610.54,410.38 C610.780001,410.38 610.977999,410.459999 611.134,410.62 Z M614.944,403.6 L621.424,403.6 L621.424,404.8 L617.968,412 L616.264,412 L619.612,405.004 L616.384,405.004 L616.372,406.192 L614.944,406.192 L614.944,403.6 Z" id="Ref.-7" fill="#575757" opacity="0.699999988"></path>
                    <path d="M680.288,412 L678.836,409.516 C678.772,409.524 678.672001,409.528 678.536,409.528 L676.64,409.528 L676.64,412 L675.032,412 L675.032,403.6 L678.536,403.6 C679.624005,403.6 680.463997,403.851997 681.056,404.356 C681.648003,404.860003 681.944,405.571995 681.944,406.492 C681.944,407.148003 681.802001,407.707998 681.518,408.172 C681.233999,408.636002 680.820003,408.983999 680.276,409.216 L682.124,412 L680.288,412 Z M676.64,408.112 L678.536,408.112 C679.144003,408.112 679.607998,407.980001 679.928,407.716 C680.248002,407.451999 680.408,407.060003 680.408,406.54 C680.408,406.027997 680.248002,405.644001 679.928,405.388 C679.607998,405.131999 679.144003,405.004 678.536,405.004 L676.64,405.004 L676.64,408.112 Z M688.634,406.408 C689.150003,406.992003 689.408,407.811995 689.408,408.868 C689.408,409.076001 689.404,409.231999 689.396,409.336 L684.656,409.336 C684.760001,409.792002 684.973998,410.149999 685.298,410.41 C685.622002,410.670001 686.019998,410.8 686.492,410.8 C686.820002,410.8 687.133998,410.738001 687.434,410.614 C687.734001,410.489999 687.995999,410.312001 688.22,410.08 L689.06,410.956 C688.739998,411.308002 688.350002,411.579999 687.89,411.772 C687.429998,411.964001 686.920003,412.06 686.36,412.06 C685.703997,412.06 685.126003,411.924001 684.626,411.652 C684.125998,411.379999 683.740001,410.998002 683.468,410.506 C683.195999,410.013998 683.06,409.448003 683.06,408.808 C683.06,408.167997 683.197999,407.600002 683.474,407.104 C683.750001,406.607998 684.135998,406.222001 684.632,405.946 C685.128002,405.669999 685.691997,405.532 686.324,405.532 C687.348005,405.532 688.117997,405.823997 688.634,406.408 Z M687.98,408.292 C687.964,407.819998 687.808001,407.444001 687.512,407.164 C687.215999,406.883999 686.824002,406.744 686.336,406.744 C685.879998,406.744 685.498002,406.881999 685.19,407.158 C684.881998,407.434001 684.692,407.811998 684.62,408.292 L687.98,408.292 Z M692.762,404.572 C692.605999,404.708001 692.528,404.911999 692.528,405.184 L692.528,405.844 L694.136,405.844 L694.136,406.984 L692.528,406.984 L692.528,412 L690.968,412 L690.968,406.984 L690.128,406.984 L690.128,405.844 L690.968,405.844 L690.968,405.232 C690.968,404.759998 691.071999,404.358002 691.28,404.026 C691.488001,403.693998 691.765998,403.444001 692.114,403.276 C692.462002,403.107999 692.839998,403.024 693.248,403.024 C693.648002,403.024 694.039998,403.115999 694.424,403.3 L694.148,404.56 C693.827998,404.431999 693.564001,404.368 693.356,404.368 C693.115999,404.368 692.918001,404.435999 692.762,404.572 Z M696.134,410.62 C696.290001,410.780001 696.368,410.983999 696.368,411.232 C696.368,411.488001 696.290001,411.697999 696.134,411.862 C695.977999,412.026001 695.780001,412.108 695.54,412.108 C695.307999,412.108 695.114001,412.024001 694.958,411.856 C694.801999,411.687999 694.724,411.480001 694.724,411.232 C694.724,410.983999 694.801999,410.780001 694.958,410.62 C695.114001,410.459999 695.307999,410.38 695.54,410.38 C695.780001,410.38 695.977999,410.459999 696.134,410.62 Z M705.686,404.122 C706.194003,404.518002 706.448,405.055997 706.448,405.736 C706.448,406.120002 706.344001,406.467998 706.136,406.78 C705.927999,407.092002 705.640002,407.335999 705.272,407.512 C705.768002,407.696001 706.157999,407.975998 706.442,408.352 C706.726001,408.728002 706.868,409.159998 706.868,409.648 C706.868,410.136002 706.736001,410.563998 706.472,410.932 C706.207999,411.300002 705.830002,411.581999 705.338,411.778 C704.845998,411.974001 704.272003,412.072 703.616,412.072 C702.959997,412.072 702.386002,411.974001 701.894,411.778 C701.401998,411.581999 701.024001,411.304002 700.76,410.944 C700.495999,410.583998 700.364,410.160002 700.364,409.672 C700.364,409.175998 700.511999,408.738002 700.808,408.358 C701.104001,407.977998 701.511997,407.696001 702.032,407.512 C701.639998,407.319999 701.334001,407.064002 701.114,406.744 C700.893999,406.423998 700.784,406.068002 700.784,405.676 C700.784,405.019997 701.037997,404.498002 701.546,404.11 C702.054003,403.721998 702.739996,403.528 703.604,403.528 C704.484004,403.528 705.177997,403.725998 705.686,404.122 Z M702.53,404.98 C702.269999,405.180001 702.14,405.459998 702.14,405.82 C702.14,406.180002 702.269999,406.459999 702.53,406.66 C702.790001,406.860001 703.151998,406.96 703.616,406.96 C704.080002,406.96 704.439999,406.860001 704.696,406.66 C704.952001,406.459999 705.08,406.180002 705.08,405.82 C705.08,405.459998 704.952001,405.180001 704.696,404.98 C704.439999,404.779999 704.080002,404.68 703.616,404.68 C703.151998,404.68 702.790001,404.779999 702.53,404.98 Z M702.332,408.544 C702.027998,408.768001 701.876,409.083998 701.876,409.492 C701.876,409.908002 702.027998,410.231999 702.332,410.464 C702.636002,410.696001 703.063997,410.812 703.616,410.812 C704.160003,410.812 704.585998,410.698001 704.894,410.47 C705.202002,410.241999 705.356,409.920002 705.356,409.504 C705.356,409.095998 705.202002,408.778001 704.894,408.55 C704.585998,408.321999 704.156003,408.208 703.604,408.208 C703.059997,408.208 702.636002,408.319999 702.332,408.544 Z" id="Ref.-8" fill="#575757" opacity="0.699999988"></path>
                    <path d="M5.85,274.122 C6.35800254,274.518002 6.612,275.055997 6.612,275.736 C6.612,276.120002 6.50800104,276.467998 6.3,276.78 C6.09199896,277.092002 5.80400184,277.335999 5.436,277.512 C5.93200248,277.696001 6.32199858,277.975998 6.606,278.352 C6.89000142,278.728002 7.032,279.159998 7.032,279.648 C7.032,280.136002 6.90000132,280.563998 6.636,280.932 C6.37199868,281.300002 5.99400246,281.581999 5.502,281.778 C5.00999754,281.974001 4.43600328,282.072 3.78,282.072 C3.12399672,282.072 2.55000246,281.974001 2.058,281.778 C1.56599754,281.581999 1.18800132,281.304002 0.924,280.944 C0.65999868,280.583998 0.528,280.160002 0.528,279.672 C0.528,279.175998 0.67599852,278.738002 0.972,278.358 C1.26800148,277.977998 1.6759974,277.696001 2.196,277.512 C1.80399804,277.319999 1.4980011,277.064002 1.278,276.744 C1.0579989,276.423998 0.948,276.068002 0.948,275.676 C0.948,275.019997 1.20199746,274.498002 1.71,274.11 C2.21800254,273.721998 2.90399568,273.528 3.768,273.528 C4.6480044,273.528 5.34199746,273.725998 5.85,274.122 Z M2.694,274.98 C2.4339987,275.180001 2.304,275.459998 2.304,275.82 C2.304,276.180002 2.4339987,276.459999 2.694,276.66 C2.9540013,276.860001 3.31599768,276.96 3.78,276.96 C4.24400232,276.96 4.60399872,276.860001 4.86,276.66 C5.11600128,276.459999 5.244,276.180002 5.244,275.82 C5.244,275.459998 5.11600128,275.180001 4.86,274.98 C4.60399872,274.779999 4.24400232,274.68 3.78,274.68 C3.31599768,274.68 2.9540013,274.779999 2.694,274.98 Z M2.496,278.544 C2.19199848,278.768001 2.04,279.083998 2.04,279.492 C2.04,279.908002 2.19199848,280.231999 2.496,280.464 C2.80000152,280.696001 3.22799724,280.812 3.78,280.812 C4.32400272,280.812 4.74999846,280.698001 5.058,280.47 C5.36600154,280.241999 5.52,279.920002 5.52,279.504 C5.52,279.095998 5.36600154,278.778001 5.058,278.55 C4.74999846,278.321999 4.32000276,278.208 3.768,278.208 C3.22399728,278.208 2.80000152,278.319999 2.496,278.544 Z M14.508,274.632 C15.1320031,275.368004 15.444,276.423993 15.444,277.8 C15.444,279.168007 15.1320031,280.219996 14.508,280.956 C13.8839969,281.692004 12.9920058,282.06 11.832,282.06 C10.6719942,282.06 9.78000312,281.692004 9.156,280.956 C8.53199688,280.219996 8.22,279.168007 8.22,277.8 C8.22,276.423993 8.53199688,275.368004 9.156,274.632 C9.78000312,273.895996 10.6719942,273.528 11.832,273.528 C12.9920058,273.528 13.8839969,273.895996 14.508,274.632 Z M10.356,275.526 C10.0359984,276.010002 9.876,276.767995 9.876,277.8 C9.876,278.824005 10.0359984,279.579998 10.356,280.068 C10.6760016,280.556002 11.1679967,280.8 11.832,280.8 C12.4960033,280.8 12.9879984,280.556002 13.308,280.068 C13.6280016,279.579998 13.788,278.824005 13.788,277.8 C13.788,276.767995 13.6280016,276.010002 13.308,275.526 C12.9879984,275.041998 12.4960033,274.8 11.832,274.8 C11.1679967,274.8 10.6760016,275.041998 10.356,275.526 Z M20.352,274.242 C20.752002,274.686002 20.952,275.299996 20.952,276.084 C20.952,276.868004 20.752002,277.485998 20.352,277.938 C19.951998,278.390002 19.4000035,278.616 18.696,278.616 C17.9999965,278.616 17.452002,278.390002 17.052,277.938 C16.651998,277.485998 16.452,276.868004 16.452,276.084 C16.452,275.307996 16.651998,274.696002 17.052,274.248 C17.452002,273.799998 17.9999965,273.576 18.696,273.576 C19.4000035,273.576 19.951998,273.797998 20.352,274.242 Z M17.802,274.908 C17.5899989,275.188001 17.484,275.579997 17.484,276.084 C17.484,276.596003 17.5899989,276.993999 17.802,277.278 C18.0140011,277.562001 18.3119981,277.704 18.696,277.704 C19.088002,277.704 19.3919989,277.562001 19.608,277.278 C19.8240011,276.993999 19.932,276.596003 19.932,276.084 C19.932,275.579997 19.8240011,275.188001 19.608,274.908 C19.3919989,274.627999 19.088002,274.488 18.696,274.488 C18.3119981,274.488 18.0140011,274.627999 17.802,274.908 Z M24.312,273.6 L25.5,273.6 L19.38,282 L18.18,282 L24.312,273.6 Z M26.724,277.662 C27.124002,278.106002 27.324,278.719996 27.324,279.504 C27.324,280.288004 27.124002,280.905998 26.724,281.358 C26.323998,281.810002 25.7720035,282.036 25.068,282.036 C24.3719965,282.036 23.824002,281.810002 23.424,281.358 C23.023998,280.905998 22.824,280.288004 22.824,279.504 C22.824,278.727996 23.023998,278.116002 23.424,277.668 C23.824002,277.219998 24.3719965,276.996 25.068,276.996 C25.7720035,276.996 26.323998,277.217998 26.724,277.662 Z M24.174,278.328 C23.9619989,278.608001 23.856,278.999997 23.856,279.504 C23.856,280.016003 23.9619989,280.413999 24.174,280.698 C24.3860011,280.982001 24.6839981,281.124 25.068,281.124 C25.460002,281.124 25.7639989,280.982001 25.98,280.698 C26.1960011,280.413999 26.304,280.016003 26.304,279.504 C26.304,278.999997 26.1960011,278.608001 25.98,278.328 C25.7639989,278.047999 25.460002,277.908 25.068,277.908 C24.6839981,277.908 24.3860011,278.047999 24.174,278.328 Z" id="80%" fill="#575757" opacity="0.699999988"></path>
                    <path d="M0.012,174.6 L3.384,174.6 L3.384,183 L1.776,183 L1.776,176.016 L0.012,176.016 L0.012,174.6 Z M11.508,175.632 C12.1320031,176.368004 12.444,177.423993 12.444,178.8 C12.444,180.168007 12.1320031,181.219996 11.508,181.956 C10.8839969,182.692004 9.9920058,183.06 8.832,183.06 C7.6719942,183.06 6.78000312,182.692004 6.156,181.956 C5.53199688,181.219996 5.22,180.168007 5.22,178.8 C5.22,177.423993 5.53199688,176.368004 6.156,175.632 C6.78000312,174.895996 7.6719942,174.528 8.832,174.528 C9.9920058,174.528 10.8839969,174.895996 11.508,175.632 Z M7.356,176.526 C7.0359984,177.010002 6.876,177.767995 6.876,178.8 C6.876,179.824005 7.0359984,180.579998 7.356,181.068 C7.6760016,181.556002 8.16799668,181.8 8.832,181.8 C9.49600332,181.8 9.9879984,181.556002 10.308,181.068 C10.6280016,180.579998 10.788,179.824005 10.788,178.8 C10.788,177.767995 10.6280016,177.010002 10.308,176.526 C9.9879984,176.041998 9.49600332,175.8 8.832,175.8 C8.16799668,175.8 7.6760016,176.041998 7.356,176.526 Z M19.98,175.632 C20.6040031,176.368004 20.916,177.423993 20.916,178.8 C20.916,180.168007 20.6040031,181.219996 19.98,181.956 C19.3559969,182.692004 18.4640058,183.06 17.304,183.06 C16.1439942,183.06 15.2520031,182.692004 14.628,181.956 C14.0039969,181.219996 13.692,180.168007 13.692,178.8 C13.692,177.423993 14.0039969,176.368004 14.628,175.632 C15.2520031,174.895996 16.1439942,174.528 17.304,174.528 C18.4640058,174.528 19.3559969,174.895996 19.98,175.632 Z M15.828,176.526 C15.5079984,177.010002 15.348,177.767995 15.348,178.8 C15.348,179.824005 15.5079984,180.579998 15.828,181.068 C16.1480016,181.556002 16.6399967,181.8 17.304,181.8 C17.9680033,181.8 18.4599984,181.556002 18.78,181.068 C19.1000016,180.579998 19.26,179.824005 19.26,178.8 C19.26,177.767995 19.1000016,177.010002 18.78,176.526 C18.4599984,176.041998 17.9680033,175.8 17.304,175.8 C16.6399967,175.8 16.1480016,176.041998 15.828,176.526 Z M25.824,175.242 C26.224002,175.686002 26.424,176.299996 26.424,177.084 C26.424,177.868004 26.224002,178.485998 25.824,178.938 C25.423998,179.390002 24.8720035,179.616 24.168,179.616 C23.4719965,179.616 22.924002,179.390002 22.524,178.938 C22.123998,178.485998 21.924,177.868004 21.924,177.084 C21.924,176.307996 22.123998,175.696002 22.524,175.248 C22.924002,174.799998 23.4719965,174.576 24.168,174.576 C24.8720035,174.576 25.423998,174.797998 25.824,175.242 Z M23.274,175.908 C23.0619989,176.188001 22.956,176.579997 22.956,177.084 C22.956,177.596003 23.0619989,177.993999 23.274,178.278 C23.4860011,178.562001 23.7839981,178.704 24.168,178.704 C24.560002,178.704 24.8639989,178.562001 25.08,178.278 C25.2960011,177.993999 25.404,177.596003 25.404,177.084 C25.404,176.579997 25.2960011,176.188001 25.08,175.908 C24.8639989,175.627999 24.560002,175.488 24.168,175.488 C23.7839981,175.488 23.4860011,175.627999 23.274,175.908 Z M29.784,174.6 L30.972,174.6 L24.852,183 L23.652,183 L29.784,174.6 Z M32.196,178.662 C32.596002,179.106002 32.796,179.719996 32.796,180.504 C32.796,181.288004 32.596002,181.905998 32.196,182.358 C31.795998,182.810002 31.2440035,183.036 30.54,183.036 C29.8439965,183.036 29.296002,182.810002 28.896,182.358 C28.495998,181.905998 28.296,181.288004 28.296,180.504 C28.296,179.727996 28.495998,179.116002 28.896,178.668 C29.296002,178.219998 29.8439965,177.996 30.54,177.996 C31.2440035,177.996 31.795998,178.217998 32.196,178.662 Z M29.646,179.328 C29.4339989,179.608001 29.328,179.999997 29.328,180.504 C29.328,181.016003 29.4339989,181.413999 29.646,181.698 C29.8580011,181.982001 30.1559981,182.124 30.54,182.124 C30.932002,182.124 31.2359989,181.982001 31.452,181.698 C31.6680011,181.413999 31.776,181.016003 31.776,180.504 C31.776,179.999997 31.6680011,179.608001 31.452,179.328 C31.2359989,179.047999 30.932002,178.908 30.54,178.908 C30.1559981,178.908 29.8580011,179.047999 29.646,179.328 Z" id="100%" fill="#575757" opacity="0.699999988"></path>
                    <path d="M0.012,76.6 L3.384,76.6 L3.384,85 L1.776,85 L1.776,78.016 L0.012,78.016 L0.012,76.6 Z M11.256,83.596 L11.256,85 L5.04,85 L5.04,83.836 L8.208,80.572 C8.51200152,80.2679985 8.75599908,79.9680015 8.94,79.672 C9.12400092,79.3759985 9.216,79.1200011 9.216,78.904 C9.216,78.5999985 9.0960012,78.3620009 8.856,78.19 C8.6159988,78.0179991 8.28400212,77.932 7.86,77.932 C7.49199816,77.932 7.10000208,78.0239991 6.684,78.208 C6.26799792,78.3920009 5.87600184,78.6479984 5.508,78.976 L4.872,77.74 C5.36800248,77.3559981 5.88999726,77.0580011 6.438,76.846 C6.98600274,76.6339989 7.53599724,76.528 8.088,76.528 C8.64000276,76.528 9.12799788,76.6159991 9.552,76.792 C9.97600212,76.9680009 10.3059988,77.2179984 10.542,77.542 C10.7780012,77.8660016 10.896,78.2399979 10.896,78.664 C10.896,79.072002 10.7560014,79.5039977 10.476,79.96 C10.1959986,80.4160023 9.80400252,80.9079974 9.3,81.436 L7.164,83.596 L11.256,83.596 Z M18.588,77.632 C19.2120031,78.3680037 19.524,79.4239931 19.524,80.8 C19.524,82.1680068 19.2120031,83.2199963 18.588,83.956 C17.9639969,84.6920037 17.0720058,85.06 15.912,85.06 C14.7519942,85.06 13.8600031,84.6920037 13.236,83.956 C12.6119969,83.2199963 12.3,82.1680068 12.3,80.8 C12.3,79.4239931 12.6119969,78.3680037 13.236,77.632 C13.8600031,76.8959963 14.7519942,76.528 15.912,76.528 C17.0720058,76.528 17.9639969,76.8959963 18.588,77.632 Z M14.436,78.526 C14.1159984,79.0100024 13.956,79.7679948 13.956,80.8 C13.956,81.8240051 14.1159984,82.5799976 14.436,83.068 C14.7560016,83.5560024 15.2479967,83.8 15.912,83.8 C16.5760033,83.8 17.0679984,83.5560024 17.388,83.068 C17.7080016,82.5799976 17.868,81.8240051 17.868,80.8 C17.868,79.7679948 17.7080016,79.0100024 17.388,78.526 C17.0679984,78.0419976 16.5760033,77.8 15.912,77.8 C15.2479967,77.8 14.7560016,78.0419976 14.436,78.526 Z M24.432,77.242 C24.832002,77.6860022 25.032,78.2999961 25.032,79.084 C25.032,79.8680039 24.832002,80.4859977 24.432,80.938 C24.031998,81.3900023 23.4800035,81.616 22.776,81.616 C22.0799965,81.616 21.532002,81.3900023 21.132,80.938 C20.731998,80.4859977 20.532,79.8680039 20.532,79.084 C20.532,78.3079961 20.731998,77.6960022 21.132,77.248 C21.532002,76.7999978 22.0799965,76.576 22.776,76.576 C23.4800035,76.576 24.031998,76.7979978 24.432,77.242 Z M21.882,77.908 C21.6699989,78.1880014 21.564,78.5799975 21.564,79.084 C21.564,79.5960026 21.6699989,79.9939986 21.882,80.278 C22.0940011,80.5620014 22.3919981,80.704 22.776,80.704 C23.168002,80.704 23.4719989,80.5620014 23.688,80.278 C23.9040011,79.9939986 24.012,79.5960026 24.012,79.084 C24.012,78.5799975 23.9040011,78.1880014 23.688,77.908 C23.4719989,77.6279986 23.168002,77.488 22.776,77.488 C22.3919981,77.488 22.0940011,77.6279986 21.882,77.908 Z M28.392,76.6 L29.58,76.6 L23.46,85 L22.26,85 L28.392,76.6 Z M30.804,80.662 C31.204002,81.1060022 31.404,81.7199961 31.404,82.504 C31.404,83.2880039 31.204002,83.9059977 30.804,84.358 C30.403998,84.8100023 29.8520035,85.036 29.148,85.036 C28.4519965,85.036 27.904002,84.8100023 27.504,84.358 C27.103998,83.9059977 26.904,83.2880039 26.904,82.504 C26.904,81.7279961 27.103998,81.1160022 27.504,80.668 C27.904002,80.2199978 28.4519965,79.996 29.148,79.996 C29.8520035,79.996 30.403998,80.2179978 30.804,80.662 Z M28.254,81.328 C28.0419989,81.6080014 27.936,81.9999975 27.936,82.504 C27.936,83.0160026 28.0419989,83.4139986 28.254,83.698 C28.4660011,83.9820014 28.7639981,84.124 29.148,84.124 C29.540002,84.124 29.8439989,83.9820014 30.06,83.698 C30.2760011,83.4139986 30.384,83.0160026 30.384,82.504 C30.384,81.9999975 30.2760011,81.6080014 30.06,81.328 C29.8439989,81.0479986 29.540002,80.908 29.148,80.908 C28.7639981,80.908 28.4660011,81.0479986 28.254,81.328 Z" id="120%" fill="#575757" opacity="0.699999988"></path>
                    <path d="M0.108,322.6 L6.588,322.6 L6.588,323.8 L3.132,331 L1.428,331 L4.776,324.004 L1.548,324.004 L1.536,325.192 L0.108,325.192 L0.108,322.6 Z M13.824,323.632 C14.4480031,324.368004 14.76,325.423993 14.76,326.8 C14.76,328.168007 14.4480031,329.219996 13.824,329.956 C13.1999969,330.692004 12.3080058,331.06 11.148,331.06 C9.9879942,331.06 9.09600312,330.692004 8.472,329.956 C7.84799688,329.219996 7.536,328.168007 7.536,326.8 C7.536,325.423993 7.84799688,324.368004 8.472,323.632 C9.09600312,322.895996 9.9879942,322.528 11.148,322.528 C12.3080058,322.528 13.1999969,322.895996 13.824,323.632 Z M9.672,324.526 C9.3519984,325.010002 9.192,325.767995 9.192,326.8 C9.192,327.824005 9.3519984,328.579998 9.672,329.068 C9.9920016,329.556002 10.4839967,329.8 11.148,329.8 C11.8120033,329.8 12.3039984,329.556002 12.624,329.068 C12.9440016,328.579998 13.104,327.824005 13.104,326.8 C13.104,325.767995 12.9440016,325.010002 12.624,324.526 C12.3039984,324.041998 11.8120033,323.8 11.148,323.8 C10.4839967,323.8 9.9920016,324.041998 9.672,324.526 Z M19.668,323.242 C20.068002,323.686002 20.268,324.299996 20.268,325.084 C20.268,325.868004 20.068002,326.485998 19.668,326.938 C19.267998,327.390002 18.7160035,327.616 18.012,327.616 C17.3159965,327.616 16.768002,327.390002 16.368,326.938 C15.967998,326.485998 15.768,325.868004 15.768,325.084 C15.768,324.307996 15.967998,323.696002 16.368,323.248 C16.768002,322.799998 17.3159965,322.576 18.012,322.576 C18.7160035,322.576 19.267998,322.797998 19.668,323.242 Z M17.118,323.908 C16.9059989,324.188001 16.8,324.579997 16.8,325.084 C16.8,325.596003 16.9059989,325.993999 17.118,326.278 C17.3300011,326.562001 17.6279981,326.704 18.012,326.704 C18.404002,326.704 18.7079989,326.562001 18.924,326.278 C19.1400011,325.993999 19.248,325.596003 19.248,325.084 C19.248,324.579997 19.1400011,324.188001 18.924,323.908 C18.7079989,323.627999 18.404002,323.488 18.012,323.488 C17.6279981,323.488 17.3300011,323.627999 17.118,323.908 Z M23.628,322.6 L24.816,322.6 L18.696,331 L17.496,331 L23.628,322.6 Z M26.04,326.662 C26.440002,327.106002 26.64,327.719996 26.64,328.504 C26.64,329.288004 26.440002,329.905998 26.04,330.358 C25.639998,330.810002 25.0880035,331.036 24.384,331.036 C23.6879965,331.036 23.140002,330.810002 22.74,330.358 C22.339998,329.905998 22.14,329.288004 22.14,328.504 C22.14,327.727996 22.339998,327.116002 22.74,326.668 C23.140002,326.219998 23.6879965,325.996 24.384,325.996 C25.0880035,325.996 25.639998,326.217998 26.04,326.662 Z M23.49,327.328 C23.2779989,327.608001 23.172,327.999997 23.172,328.504 C23.172,329.016003 23.2779989,329.413999 23.49,329.698 C23.7020011,329.982001 23.9999981,330.124 24.384,330.124 C24.776002,330.124 25.0799989,329.982001 25.296,329.698 C25.5120011,329.413999 25.62,329.016003 25.62,328.504 C25.62,327.999997 25.5120011,327.608001 25.296,327.328 C25.0799989,327.047999 24.776002,326.908 24.384,326.908 C23.9999981,326.908 23.7020011,327.047999 23.49,327.328 Z" id="70%" fill="#575757" opacity="0.699999988"></path>
                    <path d="M2.208,231.614 C2.5280016,231.706 2.8479984,231.752 3.168,231.752 C3.92000376,231.752 4.48399812,231.502003 4.86,231.002 C5.23600188,230.501997 5.41600008,229.816004 5.4,228.944 C5.18399892,229.304002 4.88800188,229.579999 4.512,229.772 C4.13599812,229.964001 3.69600252,230.06 3.192,230.06 C2.36799588,230.06 1.7160024,229.816002 1.236,229.328 C0.7559976,228.839998 0.516,228.184004 0.516,227.36 C0.516,226.783997 0.63799878,226.284002 0.882,225.86 C1.12600122,225.435998 1.47199776,225.108001 1.92,224.876 C2.36800224,224.643999 2.891997,224.528 3.492,224.528 C4.20400356,224.528 4.81799742,224.691998 5.334,225.02 C5.85000258,225.348002 6.24599862,225.819997 6.522,226.436 C6.79800138,227.052003 6.936,227.783996 6.936,228.632 C6.936,229.520004 6.7860015,230.299997 6.486,230.972 C6.1859985,231.644003 5.76000276,232.161998 5.208,232.526 C4.65599724,232.890002 4.01200368,233.072 3.276,233.072 C2.85199788,233.072 2.4100023,233.012001 1.95,232.892 C1.4899977,232.771999 1.08400176,232.612001 0.732,232.412 L1.356,231.224 C1.60400124,231.392001 1.8879984,231.522 2.208,231.614 Z M2.424,226.28 C2.13599856,226.544001 1.992,226.907998 1.992,227.372 C1.992,227.820002 2.12799864,228.171999 2.4,228.428 C2.67200136,228.684001 3.04399764,228.812 3.516,228.812 C4.02800256,228.812 4.43199852,228.670001 4.728,228.386 C5.02400148,228.101999 5.16800004,227.748002 5.16,227.324 C5.16800004,226.939998 5.03400138,226.604001 4.758,226.316 C4.48199862,226.027999 4.0840026,225.884 3.564,225.884 C3.09199764,225.884 2.71200144,226.015999 2.424,226.28 Z M14.496,225.632 C15.1200031,226.368004 15.432,227.423993 15.432,228.8 C15.432,230.168007 15.1200031,231.219996 14.496,231.956 C13.8719969,232.692004 12.9800058,233.06 11.82,233.06 C10.6599942,233.06 9.76800312,232.692004 9.144,231.956 C8.51999688,231.219996 8.208,230.168007 8.208,228.8 C8.208,227.423993 8.51999688,226.368004 9.144,225.632 C9.76800312,224.895996 10.6599942,224.528 11.82,224.528 C12.9800058,224.528 13.8719969,224.895996 14.496,225.632 Z M10.344,226.526 C10.0239984,227.010002 9.864,227.767995 9.864,228.8 C9.864,229.824005 10.0239984,230.579998 10.344,231.068 C10.6640016,231.556002 11.1559967,231.8 11.82,231.8 C12.4840033,231.8 12.9759984,231.556002 13.296,231.068 C13.6160016,230.579998 13.776,229.824005 13.776,228.8 C13.776,227.767995 13.6160016,227.010002 13.296,226.526 C12.9759984,226.041998 12.4840033,225.8 11.82,225.8 C11.1559967,225.8 10.6640016,226.041998 10.344,226.526 Z M20.34,225.242 C20.740002,225.686002 20.94,226.299996 20.94,227.084 C20.94,227.868004 20.740002,228.485998 20.34,228.938 C19.939998,229.390002 19.3880035,229.616 18.684,229.616 C17.9879965,229.616 17.440002,229.390002 17.04,228.938 C16.639998,228.485998 16.44,227.868004 16.44,227.084 C16.44,226.307996 16.639998,225.696002 17.04,225.248 C17.440002,224.799998 17.9879965,224.576 18.684,224.576 C19.3880035,224.576 19.939998,224.797998 20.34,225.242 Z M17.79,225.908 C17.5779989,226.188001 17.472,226.579997 17.472,227.084 C17.472,227.596003 17.5779989,227.993999 17.79,228.278 C18.0020011,228.562001 18.2999981,228.704 18.684,228.704 C19.076002,228.704 19.3799989,228.562001 19.596,228.278 C19.8120011,227.993999 19.92,227.596003 19.92,227.084 C19.92,226.579997 19.8120011,226.188001 19.596,225.908 C19.3799989,225.627999 19.076002,225.488 18.684,225.488 C18.2999981,225.488 18.0020011,225.627999 17.79,225.908 Z M24.3,224.6 L25.488,224.6 L19.368,233 L18.168,233 L24.3,224.6 Z M26.712,228.662 C27.112002,229.106002 27.312,229.719996 27.312,230.504 C27.312,231.288004 27.112002,231.905998 26.712,232.358 C26.311998,232.810002 25.7600035,233.036 25.056,233.036 C24.3599965,233.036 23.812002,232.810002 23.412,232.358 C23.011998,231.905998 22.812,231.288004 22.812,230.504 C22.812,229.727996 23.011998,229.116002 23.412,228.668 C23.812002,228.219998 24.3599965,227.996 25.056,227.996 C25.7600035,227.996 26.311998,228.217998 26.712,228.662 Z M24.162,229.328 C23.9499989,229.608001 23.844,229.999997 23.844,230.504 C23.844,231.016003 23.9499989,231.413999 24.162,231.698 C24.3740011,231.982001 24.6719981,232.124 25.056,232.124 C25.448002,232.124 25.7519989,231.982001 25.968,231.698 C26.1840011,231.413999 26.292,231.016003 26.292,230.504 C26.292,229.999997 26.1840011,229.608001 25.968,229.328 C25.7519989,229.047999 25.448002,228.908 25.056,228.908 C24.6719981,228.908 24.3740011,229.047999 24.162,229.328 Z" id="90%" fill="#575757" opacity="0.699999988"></path>
                    <path d="M0.012,125.6 L3.384,125.6 L3.384,134 L1.776,134 L1.776,127.016 L0.012,127.016 L0.012,125.6 Z M4.596,125.6 L7.968,125.6 L7.968,134 L6.36,134 L6.36,127.016 L4.596,127.016 L4.596,125.6 Z M16.092,126.632 C16.7160031,127.368004 17.028,128.423993 17.028,129.8 C17.028,131.168007 16.7160031,132.219996 16.092,132.956 C15.4679969,133.692004 14.5760058,134.06 13.416,134.06 C12.2559942,134.06 11.3640031,133.692004 10.74,132.956 C10.1159969,132.219996 9.804,131.168007 9.804,129.8 C9.804,128.423993 10.1159969,127.368004 10.74,126.632 C11.3640031,125.895996 12.2559942,125.528 13.416,125.528 C14.5760058,125.528 15.4679969,125.895996 16.092,126.632 Z M11.94,127.526 C11.6199984,128.010002 11.46,128.767995 11.46,129.8 C11.46,130.824005 11.6199984,131.579998 11.94,132.068 C12.2600016,132.556002 12.7519967,132.8 13.416,132.8 C14.0800033,132.8 14.5719984,132.556002 14.892,132.068 C15.2120016,131.579998 15.372,130.824005 15.372,129.8 C15.372,128.767995 15.2120016,128.010002 14.892,127.526 C14.5719984,127.041998 14.0800033,126.8 13.416,126.8 C12.7519967,126.8 12.2600016,127.041998 11.94,127.526 Z M21.936,126.242 C22.336002,126.686002 22.536,127.299996 22.536,128.084 C22.536,128.868004 22.336002,129.485998 21.936,129.938 C21.535998,130.390002 20.9840035,130.616 20.28,130.616 C19.5839965,130.616 19.036002,130.390002 18.636,129.938 C18.235998,129.485998 18.036,128.868004 18.036,128.084 C18.036,127.307996 18.235998,126.696002 18.636,126.248 C19.036002,125.799998 19.5839965,125.576 20.28,125.576 C20.9840035,125.576 21.535998,125.797998 21.936,126.242 Z M19.386,126.908 C19.1739989,127.188001 19.068,127.579997 19.068,128.084 C19.068,128.596003 19.1739989,128.993999 19.386,129.278 C19.5980011,129.562001 19.8959981,129.704 20.28,129.704 C20.672002,129.704 20.9759989,129.562001 21.192,129.278 C21.4080011,128.993999 21.516,128.596003 21.516,128.084 C21.516,127.579997 21.4080011,127.188001 21.192,126.908 C20.9759989,126.627999 20.672002,126.488 20.28,126.488 C19.8959981,126.488 19.5980011,126.627999 19.386,126.908 Z M25.896,125.6 L27.084,125.6 L20.964,134 L19.764,134 L25.896,125.6 Z M28.308,129.662 C28.708002,130.106002 28.908,130.719996 28.908,131.504 C28.908,132.288004 28.708002,132.905998 28.308,133.358 C27.907998,133.810002 27.3560035,134.036 26.652,134.036 C25.9559965,134.036 25.408002,133.810002 25.008,133.358 C24.607998,132.905998 24.408,132.288004 24.408,131.504 C24.408,130.727996 24.607998,130.116002 25.008,129.668 C25.408002,129.219998 25.9559965,128.996 26.652,128.996 C27.3560035,128.996 27.907998,129.217998 28.308,129.662 Z M25.758,130.328 C25.5459989,130.608001 25.44,130.999997 25.44,131.504 C25.44,132.016003 25.5459989,132.413999 25.758,132.698 C25.9700011,132.982001 26.2679981,133.124 26.652,133.124 C27.044002,133.124 27.3479989,132.982001 27.564,132.698 C27.7800011,132.413999 27.888,132.016003 27.888,131.504 C27.888,130.999997 27.7800011,130.608001 27.564,130.328 C27.3479989,130.047999 27.044002,129.908 26.652,129.908 C26.2679981,129.908 25.9700011,130.047999 25.758,130.328 Z" id="110%" fill="#575757" opacity="0.699999988"></path>
                    <path d="M0.012,27.6 L3.384,27.6 L3.384,36 L1.776,36 L1.776,29.016 L0.012,29.016 L0.012,27.6 Z M10.47,31.812 C10.9300023,32.212002 11.16,32.7359968 11.16,33.384 C11.16,33.9120026 11.0240014,34.377998 10.752,34.782 C10.4799986,35.186002 10.0920025,35.5019989 9.588,35.73 C9.08399748,35.9580011 8.49600336,36.072 7.824,36.072 C7.25599716,36.072 6.69400278,35.9860009 6.138,35.814 C5.58199722,35.6419991 5.10800196,35.4120014 4.716,35.124 L5.352,33.876 C5.68800168,34.1560014 6.05999796,34.3699993 6.468,34.518 C6.87600204,34.6660007 7.29199788,34.74 7.716,34.74 C8.30000292,34.74 8.75799834,34.6200012 9.09,34.38 C9.42200166,34.1399988 9.588,33.816002 9.588,33.408 C9.588,32.9919979 9.42400164,32.6740011 9.096,32.454 C8.76799836,32.2339989 8.30000304,32.124 7.692,32.124 L6.42,32.124 L6.42,31.152 L8.676,28.968 L5.136,28.968 L5.124,27.6 L10.74,27.6 L10.74,28.596 L8.172,31.056 L8.616,31.104 C9.39200388,31.1760004 10.0099977,31.411998 10.47,31.812 Z M18.624,28.632 C19.2480031,29.3680037 19.56,30.4239931 19.56,31.8 C19.56,33.1680068 19.2480031,34.2199963 18.624,34.956 C17.9999969,35.6920037 17.1080058,36.06 15.948,36.06 C14.7879942,36.06 13.8960031,35.6920037 13.272,34.956 C12.6479969,34.2199963 12.336,33.1680068 12.336,31.8 C12.336,30.4239931 12.6479969,29.3680037 13.272,28.632 C13.8960031,27.8959963 14.7879942,27.528 15.948,27.528 C17.1080058,27.528 17.9999969,27.8959963 18.624,28.632 Z M14.472,29.526 C14.1519984,30.0100024 13.992,30.7679948 13.992,31.8 C13.992,32.8240051 14.1519984,33.5799976 14.472,34.068 C14.7920016,34.5560024 15.2839967,34.8 15.948,34.8 C16.6120033,34.8 17.1039984,34.5560024 17.424,34.068 C17.7440016,33.5799976 17.904,32.8240051 17.904,31.8 C17.904,30.7679948 17.7440016,30.0100024 17.424,29.526 C17.1039984,29.0419976 16.6120033,28.8 15.948,28.8 C15.2839967,28.8 14.7920016,29.0419976 14.472,29.526 Z M24.468,28.242 C24.868002,28.6860022 25.068,29.2999961 25.068,30.084 C25.068,30.8680039 24.868002,31.4859977 24.468,31.938 C24.067998,32.3900023 23.5160035,32.616 22.812,32.616 C22.1159965,32.616 21.568002,32.3900023 21.168,31.938 C20.767998,31.4859977 20.568,30.8680039 20.568,30.084 C20.568,29.3079961 20.767998,28.6960022 21.168,28.248 C21.568002,27.7999978 22.1159965,27.576 22.812,27.576 C23.5160035,27.576 24.067998,27.7979978 24.468,28.242 Z M21.918,28.908 C21.7059989,29.1880014 21.6,29.5799975 21.6,30.084 C21.6,30.5960026 21.7059989,30.9939986 21.918,31.278 C22.1300011,31.5620014 22.4279981,31.704 22.812,31.704 C23.204002,31.704 23.5079989,31.5620014 23.724,31.278 C23.9400011,30.9939986 24.048,30.5960026 24.048,30.084 C24.048,29.5799975 23.9400011,29.1880014 23.724,28.908 C23.5079989,28.6279986 23.204002,28.488 22.812,28.488 C22.4279981,28.488 22.1300011,28.6279986 21.918,28.908 Z M28.428,27.6 L29.616,27.6 L23.496,36 L22.296,36 L28.428,27.6 Z M30.84,31.662 C31.240002,32.1060022 31.44,32.7199961 31.44,33.504 C31.44,34.2880039 31.240002,34.9059977 30.84,35.358 C30.439998,35.8100023 29.8880035,36.036 29.184,36.036 C28.4879965,36.036 27.940002,35.8100023 27.54,35.358 C27.139998,34.9059977 26.94,34.2880039 26.94,33.504 C26.94,32.7279961 27.139998,32.1160022 27.54,31.668 C27.940002,31.2199978 28.4879965,30.996 29.184,30.996 C29.8880035,30.996 30.439998,31.2179978 30.84,31.662 Z M28.29,32.328 C28.0779989,32.6080014 27.972,32.9999975 27.972,33.504 C27.972,34.0160026 28.0779989,34.4139986 28.29,34.698 C28.5020011,34.9820014 28.7999981,35.124 29.184,35.124 C29.576002,35.124 29.8799989,34.9820014 30.096,34.698 C30.3120011,34.4139986 30.42,34.0160026 30.42,33.504 C30.42,32.9999975 30.3120011,32.6080014 30.096,32.328 C29.8799989,32.0479986 29.576002,31.908 29.184,31.908 C28.7999981,31.908 28.5020011,32.0479986 28.29,32.328 Z" id="130%" fill="#575757" opacity="0.699999988"></path>
                    <g id="Rectangle-2" opacity="0.5">
                        <use fill-opacity="0.300000012" fill="#000066" fill-rule="evenodd" xlink:href="#path-1"></use>
                        <rect stroke="#000066" stroke-width="1" x="76.5" y="104.5" width="31" height="271"></rect>
                    </g>
                    <g id="Rectangle-2" opacity="0.5">
                        <use fill-opacity="0.300000012" fill="#000066" fill-rule="evenodd" xlink:href="#path-2"></use>
                        <rect stroke="#000066" stroke-width="1" x="162.5" y="128.5" width="31" height="247"></rect>
                    </g>
                    <g id="Rectangle-2" opacity="0.5">
                        <use fill-opacity="0.300000012" fill="#000066" fill-rule="evenodd" xlink:href="#path-3"></use>
                        <rect stroke="#000066" stroke-width="1" x="247.5" y="144.5" width="31" height="231"></rect>
                    </g>
                    <g id="Rectangle-2" opacity="0.5">
                        <use fill-opacity="0.300000012" fill="#000066" fill-rule="evenodd" xlink:href="#path-4"></use>
                        <rect stroke="#000066" stroke-width="1" x="333.5" y="160.5" width="31" height="215"></rect>
                    </g>
                    <g id="Rectangle-2" opacity="0.5">
                        <use fill-opacity="0.300000012" fill="#000066" fill-rule="evenodd" xlink:href="#path-5"></use>
                        <rect stroke="#000066" stroke-width="1" x="419.5" y="168.5" width="31" height="207"></rect>
                    </g>
                    <g id="Rectangle-2" opacity="0.5">
                        <use fill-opacity="0.300000012" fill="#000066" fill-rule="evenodd" xlink:href="#path-6"></use>
                        <rect stroke="#000066" stroke-width="1" x="505.5" y="216.5" width="31" height="159"></rect>
                    </g>
                    <g id="Rectangle-2" opacity="0.5">
                        <use fill-opacity="0.300000012" fill="#000066" fill-rule="evenodd" xlink:href="#path-7"></use>
                        <rect stroke="#000066" stroke-width="1" x="590.5" y="224.5" width="31" height="151"></rect>
                    </g>
                    <g id="Rectangle-2" opacity="0.5">
                        <use fill-opacity="0.300000012" fill="#000066" fill-rule="evenodd" xlink:href="#path-8"></use>
                        <rect stroke="#000066" stroke-width="1" x="676.5" y="296.5" width="31" height="79"></rect>
                    </g>
                    <g id="Rectangle-2" opacity="0.5">
                        <use fill-opacity="0.300000012" fill="#000066" fill-rule="evenodd" xlink:href="#path-9"></use>
                        <rect stroke="#000066" stroke-width="1" x="564.5" y="0.5" width="31" height="15"></rect>
                    </g>
                    <polyline id="Path-7" stroke="#CCCCCC" points="52 32 52 392 694 391.001332"></polyline>
                    <path d="M92,190.519437 L175.943447,43.9982251 C176.492536,43.0398024 177.714617,42.7079725 178.67304,43.2570623 C179.064378,43.4812639 179.368448,43.8311552 179.535888,44.2499343 L262.383682,251.458542 C262.741028,252.352292 263.684319,252.864728 264.628589,252.67807 L348.62894,236.073349 C348.87414,236.024879 349.108082,235.930878 349.318648,235.796214 L434.312031,181.43998 C434.753005,181.157962 435.286968,181.060063 435.799309,181.167297 L520.574872,198.91102 C520.855026,198.969657 521.11933,199.087742 521.349927,199.257299 L604.073529,260.083477 C604.963427,260.737814 606.215276,260.546854 606.869612,259.656956 C606.939839,259.561448 607.001434,259.459885 607.053672,259.353467 L627.300198,218.107391 L692,77.5" id="Path-6" stroke="#F97876" stroke-linecap="round" stroke-dasharray="4,4"></path>
                    <circle id="Oval-6" stroke="#CCCCCC" fill="#FFFFFF" cx="52" cy="32" r="4"></circle>
                    <circle id="Oval-6" stroke="#F97876" fill="#FFFFFF" cx="92" cy="190" r="4"></circle>
                    <circle id="Oval-6" stroke="#F97876" fill="#FFFFFF" cx="178" cy="41" r="4"></circle>
                    <circle id="Oval-6" stroke="#F97876" fill="#FFFFFF" cx="263" cy="253" r="4"></circle>
                    <circle id="Oval-6" stroke="#F97876" fill="#FFFFFF" cx="349" cy="235" r="4"></circle>
                    <circle id="Oval-6" stroke="#F97876" fill="#FFFFFF" cx="435" cy="181" r="4"></circle>
                    <circle id="Oval-6" stroke="#F97876" fill="#FFFFFF" cx="606" cy="261" r="4"></circle>
                    <circle id="Oval-6" stroke="#F97876" fill="#FFFFFF" cx="521" cy="199" r="4"></circle>
                    <circle id="Oval-6" stroke="#F97876" fill="#FFFFFF" cx="692" cy="77" r="4"></circle>
                    <circle id="Oval-6" stroke="#CCCCCC" fill="#FFFFFF" cx="52" cy="392" r="4"></circle>
                    <circle id="Oval-6" stroke="#CCCCCC" fill="#FFFFFF" cx="692" cy="391" r="4"></circle>
                    <path d="M605.952,3.186 L613.694,3.186 L613.694,5.23 L608.514,5.23 L608.514,7.064 L613.19,7.064 L613.19,9.094 L608.514,9.108 L608.514,10.956 L613.834,10.956 L613.834,13 L605.952,13 L605.952,3.186 Z M622.395,6.112 C622.894336,6.63466928 623.144,7.3393289 623.144,8.226 L623.144,13 L620.666,13 L620.666,8.94 C620.666,8.51066452 620.549334,8.17233457 620.316,7.925 C620.082665,7.67766543 619.770002,7.554 619.378,7.554 C618.967331,7.56333338 618.629001,7.69866536 618.363,7.96 C618.096999,8.22133464 617.940667,8.56666452 617.894,8.996 L617.894,13 L615.402,13 L615.402,5.426 L617.894,5.426 L617.894,6.658 C618.164668,6.21933114 618.512331,5.88800112 618.937,5.664 C619.361669,5.43999888 619.849331,5.328 620.4,5.328 C621.230671,5.328 621.895664,5.58933072 622.395,6.112 Z M631.012,6.434 C631.67467,7.16200364 632.006,8.16066032 632.006,9.43 C632.006,9.62600098 632.001333,9.77533282 631.992,9.878 L626.728,9.878 C626.849334,10.3073355 627.059332,10.6363322 627.358,10.865 C627.656668,11.0936678 628.020665,11.208 628.45,11.208 C628.776668,11.208 629.091665,11.1426673 629.395,11.012 C629.698335,10.8813327 629.975999,10.6900013 630.228,10.438 L631.53,11.74 C631.137998,12.1786689 630.664336,12.5123322 630.109,12.741 C629.553664,12.9696678 628.926003,13.084 628.226,13.084 C627.413996,13.084 626.70467,12.9253349 626.098,12.608 C625.49133,12.2906651 625.027002,11.8426696 624.705,11.264 C624.382998,10.6853304 624.222,10.0133372 624.222,9.248 C624.222,8.47332946 624.385332,7.78966963 624.712,7.197 C625.038668,6.60433037 625.500664,6.14700161 626.098,5.825 C626.695336,5.50299839 627.385996,5.342 628.17,5.342 C629.402006,5.342 630.34933,5.70599636 631.012,6.434 Z M629.584,8.548 C629.584,8.10933114 629.455668,7.75700133 629.199,7.491 C628.942332,7.22499867 628.604002,7.092 628.184,7.092 C627.791998,7.092 627.463001,7.22266536 627.197,7.484 C626.930999,7.74533464 626.756,8.09999776 626.672,8.548 L629.584,8.548 Z M636.787,5.678 C637.202335,5.4446655 637.675997,5.328 638.208,5.328 L638.208,7.61 C638.124,7.60066662 637.998001,7.596 637.83,7.596 C637.241997,7.596 636.766002,7.73366529 636.402,8.009 C636.037998,8.28433471 635.828,8.65999762 635.772,9.136 L635.772,13 L633.28,13 L633.28,5.426 L635.772,5.426 L635.772,6.686 C636.033335,6.24733114 636.371665,5.9113345 636.787,5.678 Z M646.552,5.426 L646.552,12.328 C646.552,13.0280035 646.379335,13.641664 646.034,14.169 C645.688665,14.696336 645.20567,15.1023319 644.585,15.387 C643.96433,15.6716681 643.248004,15.814 642.436,15.814 C641.80133,15.814 641.190003,15.7253342 640.602,15.548 C640.013997,15.3706658 639.496002,15.1326682 639.048,14.834 L639.916,13.112 C640.261335,13.3453345 640.634665,13.5273327 641.036,13.658 C641.437335,13.7886673 641.843331,13.854 642.254,13.854 C642.814003,13.854 643.257332,13.7233346 643.584,13.462 C643.910668,13.2006654 644.074,12.8460022 644.074,12.398 L644.074,11.586 C643.569997,12.24867 642.851338,12.58 641.918,12.58 C641.292664,12.58 640.735002,12.4283348 640.245,12.125 C639.754998,11.8216651 639.372335,11.3923361 639.097,10.837 C638.821665,10.2816639 638.684,9.64467026 638.684,8.926 C638.684,8.21666312 638.816999,7.59133604 639.083,7.05 C639.349001,6.50866396 639.724664,6.08866816 640.21,5.79 C640.695336,5.49133184 641.245997,5.342 641.862,5.342 C642.328669,5.342 642.750998,5.42833247 643.129,5.601 C643.507002,5.77366753 643.821999,6.0233317 644.074,6.35 L644.074,5.426 L646.552,5.426 Z M643.654,10.27 C643.934001,9.9433317 644.074,9.51866928 644.074,8.996 C644.074,8.46399734 643.934001,8.0346683 643.654,7.708 C643.373999,7.3813317 643.005336,7.218 642.548,7.218 C642.090664,7.218 641.719668,7.38366501 641.435,7.715 C641.150332,8.04633499 641.008,8.47333072 641.008,8.996 C641.008,9.51866928 641.150332,9.9433317 641.435,10.27 C641.719668,10.5966683 642.090664,10.76 642.548,10.76 C643.005336,10.76 643.373999,10.5966683 643.654,10.27 Z M651.298,15.317 C650.812664,15.6576684 650.21067,15.828 649.492,15.828 C649.071998,15.828 648.680002,15.7650006 648.316,15.639 C647.951998,15.5129994 647.597335,15.314668 647.252,15.044 L648.288,13.322 C648.465334,13.4713341 648.633333,13.5786663 648.792,13.644 C648.950667,13.7093337 649.118666,13.742 649.296,13.742 C649.706669,13.742 650.009999,13.5506686 650.206,13.168 L650.388,12.818 L647.252,5.426 L649.814,5.426 L651.62,10.354 L653.23,5.426 L655.708,5.426 L652.46,13.742 C652.170665,14.4513369 651.783336,14.9763316 651.298,15.317 Z" id="Energy" fill="#575757"></path>
                    <path d="M605.952,35.186 L608.738,35.186 L611.58,40.926 L614.408,35.186 L617.194,35.186 L617.194,45 L614.926,45 L614.912,38.784 L612.406,44.02 L610.754,44.02 L608.234,38.784 L608.234,45 L605.952,45 L605.952,35.186 Z M624.95,38.049 C625.52867,38.5296691 625.822667,39.2039957 625.832,40.072 L625.832,45 L623.382,45 L623.382,44.146 C622.877997,44.7900032 622.117338,45.112 621.1,45.112 C620.297329,45.112 619.665002,44.8950022 619.203,44.461 C618.740998,44.0269978 618.51,43.4553369 618.51,42.746 C618.51,42.0273297 618.759664,41.4673353 619.259,41.066 C619.758336,40.6646647 620.474662,40.4593334 621.408,40.45 L623.382,40.45 L623.382,40.366 C623.382,40.0019982 623.258335,39.722001 623.011,39.526 C622.763665,39.329999 622.406669,39.232 621.94,39.232 C621.622665,39.232 621.265669,39.2833328 620.869,39.386 C620.472331,39.4886672 620.073335,39.637999 619.672,39.834 L618.986,38.154 C619.602003,37.8739986 620.192331,37.666334 620.757,37.531 C621.321669,37.395666 621.90733,37.328 622.514,37.328 C623.559339,37.328 624.37133,37.5683309 624.95,38.049 Z M622.85,43.145 C623.130001,42.9629991 623.307333,42.7273348 623.382,42.438 L623.382,41.78 L621.898,41.78 C621.197997,41.78 620.848,42.0413307 620.848,42.564 C620.848,42.8253346 620.938999,43.0329992 621.121,43.187 C621.303001,43.3410008 621.552665,43.418 621.87,43.418 C622.243335,43.418 622.569999,43.3270009 622.85,43.145 Z M626.77,37.426 L629.626,37.426 L630.844,39.554 L632.16,37.426 L634.89,37.426 L632.496,41.122 L635.058,45 L632.188,45 L630.844,42.69 L629.346,45 L626.602,45 L629.178,41.122 L626.77,37.426 Z M646.398,36.089 C647.08867,36.691003 647.434,37.5379945 647.434,38.63 C647.434,39.7873391 647.08867,40.6856635 646.398,41.325 C645.70733,41.9643365 644.736673,42.284 643.486,42.284 L641.736,42.284 L641.736,45 L639.174,45 L639.174,35.186 L643.486,35.186 C644.736673,35.186 645.70733,35.486997 646.398,36.089 Z M644.571,39.848 C644.855668,39.5866654 644.998,39.2086691 644.998,38.714 C644.998,38.2379976 644.855668,37.871668 644.571,37.615 C644.286332,37.3583321 643.882669,37.23 643.36,37.23 L641.736,37.23 L641.736,40.24 L643.36,40.24 C643.882669,40.24 644.286332,40.1093346 644.571,39.848 Z M654.378,37.825 C655.003336,38.1470016 655.488665,38.5996637 655.834,39.183 C656.179335,39.7663363 656.352,40.4406628 656.352,41.206 C656.352,41.9806705 656.179335,42.6596637 655.834,43.243 C655.488665,43.8263362 655.003336,44.2789984 654.378,44.601 C653.752664,44.9230016 653.029337,45.084 652.208,45.084 C651.386663,45.084 650.663336,44.9230016 650.038,44.601 C649.412664,44.2789984 648.929668,43.8263362 648.589,43.243 C648.248332,42.6596637 648.078,41.9806705 648.078,41.206 C648.078,40.4406628 648.248332,39.7663363 648.589,39.183 C648.929668,38.5996637 649.412664,38.1470016 650.038,37.825 C650.663336,37.5029984 651.386663,37.342 652.208,37.342 C653.029337,37.342 653.752664,37.5029984 654.378,37.825 Z M651.032,39.876 C650.733332,40.2213351 650.584,40.6739972 650.584,41.234 C650.584,41.8033362 650.733332,42.2606649 651.032,42.606 C651.330668,42.9513351 651.722664,43.124 652.208,43.124 C652.702669,43.124 653.099332,42.9513351 653.398,42.606 C653.696668,42.2606649 653.846,41.8033362 653.846,41.234 C653.846,40.6739972 653.694335,40.2213351 653.391,39.876 C653.087665,39.5306649 652.693336,39.358 652.208,39.358 C651.722664,39.358 651.330668,39.5306649 651.032,39.876 Z M656.366,37.426 L658.9,37.426 L660.412,42.55 L661.896,37.426 L664.276,37.426 L665.774,42.55 L667.286,37.426 L669.722,37.426 L666.95,45 L664.486,45 L663.044,40.324 L661.588,45 L659.124,45 L656.366,37.426 Z M676.498,38.434 C677.16067,39.1620036 677.492,40.1606603 677.492,41.43 C677.492,41.626001 677.487333,41.7753328 677.478,41.878 L672.214,41.878 C672.335334,42.3073355 672.545332,42.6363322 672.844,42.865 C673.142668,43.0936678 673.506665,43.208 673.936,43.208 C674.262668,43.208 674.577665,43.1426673 674.881,43.012 C675.184335,42.8813327 675.461999,42.6900013 675.714,42.438 L677.016,43.74 C676.623998,44.1786689 676.150336,44.5123322 675.595,44.741 C675.039664,44.9696678 674.412003,45.084 673.712,45.084 C672.899996,45.084 672.19067,44.9253349 671.584,44.608 C670.97733,44.2906651 670.513002,43.8426696 670.191,43.264 C669.868998,42.6853304 669.708,42.0133372 669.708,41.248 C669.708,40.4733295 669.871332,39.7896696 670.198,39.197 C670.524668,38.6043304 670.986664,38.1470016 671.584,37.825 C672.181336,37.5029984 672.871996,37.342 673.656,37.342 C674.888006,37.342 675.83533,37.7059964 676.498,38.434 Z M675.07,40.548 C675.07,40.1093311 674.941668,39.7570013 674.685,39.491 C674.428332,39.2249987 674.090002,39.092 673.67,39.092 C673.277998,39.092 672.949001,39.2226654 672.683,39.484 C672.416999,39.7453346 672.242,40.0999978 672.158,40.548 L675.07,40.548 Z M682.273,37.678 C682.688335,37.4446655 683.161997,37.328 683.694,37.328 L683.694,39.61 C683.61,39.6006666 683.484001,39.596 683.316,39.596 C682.727997,39.596 682.252002,39.7336653 681.888,40.009 C681.523998,40.2843347 681.314,40.6599976 681.258,41.136 L681.258,45 L678.766,45 L678.766,37.426 L681.258,37.426 L681.258,38.686 C681.519335,38.2473311 681.857665,37.9113345 682.273,37.678 Z" id="Max-Power" fill="#575757"></path>
                    <path d="M596.5,39.5 L564.719503,39.5" id="Line-10" stroke="#F97876" stroke-linecap="round" stroke-dasharray="4"></path>
                </g>
                <path d="M240.348,2.186 L242.91,2.186 L242.91,9.816 L247.068,9.816 L247.068,12 L240.348,12 L240.348,2.186 Z M248.23,4.426 L250.708,4.426 L250.708,12 L248.23,12 L248.23,4.426 Z M250.393,1.311 C250.640335,1.55833457 250.764,1.87799804 250.764,2.27 C250.764,2.65266858 250.640335,2.96999874 250.393,3.222 C250.145665,3.47400126 249.830669,3.6 249.448,3.6 C249.065331,3.6 248.750335,3.47400126 248.503,3.222 C248.255665,2.96999874 248.132,2.65266858 248.132,2.27 C248.132,1.87799804 248.255665,1.55833457 248.503,1.311 C248.750335,1.06366543 249.065331,0.94 249.448,0.94 C249.830669,0.94 250.145665,1.06366543 250.393,1.311 Z M252.43,6.904 L256.14,6.904 L256.14,8.5 L252.43,8.5 L252.43,6.904 Z M257.862,4.426 L260.34,4.426 L260.34,12 L257.862,12 L257.862,4.426 Z M260.025,1.311 C260.272335,1.55833457 260.396,1.87799804 260.396,2.27 C260.396,2.65266858 260.272335,2.96999874 260.025,3.222 C259.777665,3.47400126 259.462669,3.6 259.08,3.6 C258.697331,3.6 258.382335,3.47400126 258.135,3.222 C257.887665,2.96999874 257.764,2.65266858 257.764,2.27 C257.764,1.87799804 257.887665,1.55833457 258.135,1.311 C258.382335,1.06366543 258.697331,0.94 259.08,0.94 C259.462669,0.94 259.777665,1.06366543 260.025,1.311 Z M267.928,4.825 C268.553336,5.14700161 269.038665,5.59966375 269.384,6.183 C269.729335,6.76633625 269.902,7.44066284 269.902,8.206 C269.902,8.98067054 269.729335,9.65966375 269.384,10.243 C269.038665,10.8263363 268.553336,11.2789984 267.928,11.601 C267.302664,11.9230016 266.579337,12.084 265.758,12.084 C264.936663,12.084 264.213336,11.9230016 263.588,11.601 C262.962664,11.2789984 262.479668,10.8263363 262.139,10.243 C261.798332,9.65966375 261.628,8.98067054 261.628,8.206 C261.628,7.44066284 261.798332,6.76633625 262.139,6.183 C262.479668,5.59966375 262.962664,5.14700161 263.588,4.825 C264.213336,4.50299839 264.936663,4.342 265.758,4.342 C266.579337,4.342 267.302664,4.50299839 267.928,4.825 Z M264.582,6.876 C264.283332,7.22133506 264.134,7.6739972 264.134,8.234 C264.134,8.80333618 264.283332,9.26066494 264.582,9.606 C264.880668,9.95133506 265.272664,10.124 265.758,10.124 C266.252669,10.124 266.649332,9.95133506 266.948,9.606 C267.246668,9.26066494 267.396,8.80333618 267.396,8.234 C267.396,7.6739972 267.244335,7.22133506 266.941,6.876 C266.637665,6.53066494 266.243336,6.358 265.758,6.358 C265.272664,6.358 264.880668,6.53066494 264.582,6.876 Z M278.169,5.112 C278.668336,5.63466928 278.918,6.3393289 278.918,7.226 L278.918,12 L276.44,12 L276.44,7.94 C276.44,7.51066452 276.323335,7.17233457 276.09,6.925 C275.856666,6.67766543 275.544002,6.554 275.152,6.554 C274.741331,6.56333338 274.403001,6.69866536 274.137,6.96 C273.870999,7.22133464 273.714667,7.56666452 273.668,7.996 L273.668,12 L271.176,12 L271.176,4.426 L273.668,4.426 L273.668,5.658 C273.938668,5.21933114 274.286331,4.88800112 274.711,4.664 C275.135669,4.43999888 275.623331,4.328 276.174,4.328 C277.004671,4.328 277.669664,4.58933072 278.169,5.112 Z M287.122,6.4 C286.673998,6.4 286.310001,6.57033163 286.03,6.911 C285.749999,7.25166837 285.61,7.69266396 285.61,8.234 C285.61,8.78466942 285.749999,9.22799832 286.03,9.564 C286.310001,9.90000168 286.673998,10.068 287.122,10.068 C287.81267,10.068 288.307332,9.78333618 288.606,9.214 L290.44,10.264 C290.141332,10.8426696 289.693336,11.2906651 289.096,11.608 C288.498664,11.9253349 287.798671,12.084 286.996,12.084 C286.221329,12.084 285.540003,11.9253349 284.952,11.608 C284.363997,11.2906651 283.909002,10.8426696 283.587,10.264 C283.264998,9.68533044 283.104,9.01333716 283.104,8.248 C283.104,7.47332946 283.267332,6.78966963 283.594,6.197 C283.920668,5.60433037 284.38033,5.14700161 284.973,4.825 C285.56567,4.50299839 286.249329,4.342 287.024,4.342 C287.780004,4.342 288.451997,4.49833177 289.04,4.811 C289.628003,5.12366823 290.085332,5.56466382 290.412,6.134 L288.606,7.184 C288.251332,6.66133072 287.75667,6.4 287.122,6.4 Z M297.552,5.434 C298.21467,6.16200364 298.546,7.16066032 298.546,8.43 C298.546,8.62600098 298.541333,8.77533282 298.532,8.878 L293.268,8.878 C293.389334,9.30733548 293.599332,9.63633219 293.898,9.865 C294.196668,10.0936678 294.560665,10.208 294.99,10.208 C295.316668,10.208 295.631665,10.1426673 295.935,10.012 C296.238335,9.88133268 296.515999,9.69000126 296.768,9.438 L298.07,10.74 C297.677998,11.1786689 297.204336,11.5123322 296.649,11.741 C296.093664,11.9696678 295.466003,12.084 294.766,12.084 C293.953996,12.084 293.24467,11.9253349 292.638,11.608 C292.03133,11.2906651 291.567002,10.8426696 291.245,10.264 C290.922998,9.68533044 290.762,9.01333716 290.762,8.248 C290.762,7.47332946 290.925332,6.78966963 291.252,6.197 C291.578668,5.60433037 292.040664,5.14700161 292.638,4.825 C293.235336,4.50299839 293.925996,4.342 294.71,4.342 C295.942006,4.342 296.88933,4.70599636 297.552,5.434 Z M296.124,7.548 C296.124,7.10933114 295.995668,6.75700133 295.739,6.491 C295.482332,6.22499867 295.144002,6.092 294.724,6.092 C294.331998,6.092 294.003001,6.22266536 293.737,6.484 C293.470999,6.74533464 293.296,7.09999776 293.212,7.548 L296.124,7.548 Z M299.89,1.612 L302.382,1.612 L302.382,12 L299.89,12 L299.89,1.612 Z M304.426,1.612 L306.918,1.612 L306.918,12 L304.426,12 L304.426,1.612 Z M318.636,4.825 C319.168003,5.14700161 319.580999,5.60433037 319.875,6.197 C320.169001,6.78966963 320.316,7.47332946 320.316,8.248 C320.316,9.01333716 320.173668,9.68533044 319.889,10.264 C319.604332,10.8426696 319.198336,11.2906651 318.671,11.608 C318.143664,11.9253349 317.53467,12.084 316.844,12.084 C316.367998,12.084 315.936335,11.9930009 315.549,11.811 C315.161665,11.6289991 314.832668,11.3653351 314.562,11.02 L314.562,12 L312.07,12 L312.07,1.612 L314.562,1.612 L314.562,5.406 C315.112669,4.69666312 315.854662,4.342 316.788,4.342 C317.488004,4.342 318.103997,4.50299839 318.636,4.825 Z M317.355,9.55 C317.658335,9.20466494 317.81,8.7520028 317.81,8.192 C317.81,7.6319972 317.658335,7.17700175 317.355,6.827 C317.051665,6.47699825 316.657336,6.302 316.172,6.302 C315.695998,6.302 315.308668,6.47699825 315.01,6.827 C314.711332,7.17700175 314.562,7.6319972 314.562,8.192 C314.562,8.7520028 314.711332,9.20466494 315.01,9.55 C315.308668,9.89533506 315.695998,10.068 316.172,10.068 C316.657336,10.068 317.051665,9.89533506 317.355,9.55 Z M327.778,5.434 C328.44067,6.16200364 328.772,7.16066032 328.772,8.43 C328.772,8.62600098 328.767333,8.77533282 328.758,8.878 L323.494,8.878 C323.615334,9.30733548 323.825332,9.63633219 324.124,9.865 C324.422668,10.0936678 324.786665,10.208 325.216,10.208 C325.542668,10.208 325.857665,10.1426673 326.161,10.012 C326.464335,9.88133268 326.741999,9.69000126 326.994,9.438 L328.296,10.74 C327.903998,11.1786689 327.430336,11.5123322 326.875,11.741 C326.319664,11.9696678 325.692004,12.084 324.992,12.084 C324.179996,12.084 323.47067,11.9253349 322.864,11.608 C322.25733,11.2906651 321.793002,10.8426696 321.471,10.264 C321.148998,9.68533044 320.988,9.01333716 320.988,8.248 C320.988,7.47332946 321.151332,6.78966963 321.478,6.197 C321.804668,5.60433037 322.266664,5.14700161 322.864,4.825 C323.461336,4.50299839 324.151996,4.342 324.936,4.342 C326.168006,4.342 327.11533,4.70599636 327.778,5.434 Z M326.35,7.548 C326.35,7.10933114 326.221668,6.75700133 325.965,6.491 C325.708332,6.22499867 325.370002,6.092 324.95,6.092 C324.557998,6.092 324.229001,6.22266536 323.963,6.484 C323.696999,6.74533464 323.522,7.09999776 323.438,7.548 L326.35,7.548 Z M337.039,5.112 C337.538336,5.63466928 337.788,6.3393289 337.788,7.226 L337.788,12 L335.31,12 L335.31,7.94 C335.31,7.51066452 335.193334,7.17233457 334.96,6.925 C334.726666,6.67766543 334.414002,6.554 334.022,6.554 C333.611331,6.56333338 333.273001,6.69866536 333.007,6.96 C332.740999,7.22133464 332.584667,7.56666452 332.538,7.996 L332.538,12 L330.046,12 L330.046,4.426 L332.538,4.426 L332.538,5.658 C332.808668,5.21933114 333.156331,4.88800112 333.581,4.664 C334.005669,4.43999888 334.493331,4.328 335.044,4.328 C335.874671,4.328 336.539664,4.58933072 337.039,5.112 Z M342.884,6.4 C342.435998,6.4 342.072001,6.57033163 341.792,6.911 C341.511999,7.25166837 341.372,7.69266396 341.372,8.234 C341.372,8.78466942 341.511999,9.22799832 341.792,9.564 C342.072001,9.90000168 342.435998,10.068 342.884,10.068 C343.57467,10.068 344.069332,9.78333618 344.368,9.214 L346.202,10.264 C345.903332,10.8426696 345.455336,11.2906651 344.858,11.608 C344.260664,11.9253349 343.560671,12.084 342.758,12.084 C341.983329,12.084 341.302003,11.9253349 340.714,11.608 C340.125997,11.2906651 339.671002,10.8426696 339.349,10.264 C339.026998,9.68533044 338.866,9.01333716 338.866,8.248 C338.866,7.47332946 339.029332,6.78966963 339.356,6.197 C339.682668,5.60433037 340.14233,5.14700161 340.735,4.825 C341.32767,4.50299839 342.011329,4.342 342.786,4.342 C343.542004,4.342 344.213997,4.49833177 344.802,4.811 C345.390003,5.12366823 345.847332,5.56466382 346.174,6.134 L344.368,7.184 C344.013332,6.66133072 343.51867,6.4 342.884,6.4 Z M354.427,5.112 C354.926336,5.63466928 355.176,6.3393289 355.176,7.226 L355.176,12 L352.684,12 L352.684,7.94 C352.684,7.51066452 352.569668,7.17233457 352.341,6.925 C352.112332,6.67766543 351.797335,6.554 351.396,6.554 C350.938664,6.56333338 350.577001,6.72433177 350.311,7.037 C350.044999,7.34966823 349.912,7.75799748 349.912,8.262 L349.912,12 L347.42,12 L347.42,1.612 L349.912,1.612 L349.912,5.658 C350.182668,5.21933114 350.530331,4.88800112 350.955,4.664 C351.379669,4.43999888 351.867331,4.328 352.418,4.328 C353.258004,4.328 353.927664,4.58933072 354.427,5.112 Z M368.938,5.112 C369.432669,5.63466928 369.68,6.3393289 369.68,7.226 L369.68,12 L367.188,12 L367.188,7.94 C367.188,7.51066452 367.076001,7.17233457 366.852,6.925 C366.627999,6.67766543 366.324669,6.554 365.942,6.554 C365.503331,6.56333338 365.155668,6.72433177 364.899,7.037 C364.642332,7.34966823 364.514,7.75799748 364.514,8.262 L364.514,12 L362.022,12 L362.022,7.94 C362.022,7.51066452 361.910001,7.17233457 361.686,6.925 C361.461999,6.67766543 361.158669,6.554 360.776,6.554 C360.337331,6.56333338 359.987335,6.72433177 359.726,7.037 C359.464665,7.34966823 359.334,7.75799748 359.334,8.262 L359.334,12 L356.856,12 L356.856,4.426 L359.334,4.426 L359.334,5.672 C359.595335,5.23333114 359.933665,4.89966781 360.349,4.671 C360.764335,4.44233219 361.247331,4.328 361.798,4.328 C362.414003,4.328 362.941331,4.47733184 363.38,4.776 C363.818669,5.07466816 364.131332,5.48999734 364.318,6.022 C364.560668,5.4619972 364.908331,5.03966809 365.361,4.755 C365.813669,4.47033191 366.347997,4.328 366.964,4.328 C367.785337,4.328 368.443331,4.58933072 368.938,5.112 Z M377.226,5.049 C377.80467,5.52966907 378.098667,6.20399566 378.108,7.072 L378.108,12 L375.658,12 L375.658,11.146 C375.153997,11.7900032 374.393338,12.112 373.376,12.112 C372.573329,12.112 371.941002,11.8950022 371.479,11.461 C371.016998,11.0269978 370.786,10.4553369 370.786,9.746 C370.786,9.02732974 371.035664,8.46733534 371.535,8.066 C372.034336,7.66466466 372.750662,7.45933338 373.684,7.45 L375.658,7.45 L375.658,7.366 C375.658,7.00199818 375.534335,6.72200098 375.287,6.526 C375.039665,6.32999902 374.682669,6.232 374.216,6.232 C373.898665,6.232 373.541669,6.28333282 373.145,6.386 C372.748331,6.48866718 372.349335,6.63799902 371.948,6.834 L371.262,5.154 C371.878003,4.8739986 372.468331,4.66633401 373.033,4.531 C373.597669,4.39566599 374.18333,4.328 374.79,4.328 C375.835339,4.328 376.64733,4.56833093 377.226,5.049 Z M375.126,10.145 C375.406001,9.96299909 375.583333,9.72733478 375.658,9.438 L375.658,8.78 L374.174,8.78 C373.473996,8.78 373.124,9.04133072 373.124,9.564 C373.124,9.82533464 373.214999,10.0329992 373.397,10.187 C373.579001,10.3410008 373.828665,10.418 374.146,10.418 C374.519335,10.418 374.845999,10.3270009 375.126,10.145 Z M383.295,4.678 C383.710335,4.4446655 384.183997,4.328 384.716,4.328 L384.716,6.61 C384.632,6.60066662 384.506001,6.596 384.338,6.596 C383.749997,6.596 383.274002,6.73366529 382.91,7.009 C382.545998,7.28433471 382.336,7.65999762 382.28,8.136 L382.28,12 L379.788,12 L379.788,4.426 L382.28,4.426 L382.28,5.686 C382.541335,5.24733114 382.879665,4.9113345 383.295,4.678 Z M390.736,12 L389.14,9.144 L388.37,9.942 L388.37,12 L385.878,12 L385.878,1.612 L388.37,1.612 L388.37,6.988 L390.792,4.426 L393.62,4.426 L390.848,7.352 L393.676,12 L390.736,12 Z M394.67,4.426 L397.148,4.426 L397.148,12 L394.67,12 L394.67,4.426 Z M396.833,1.311 C397.080335,1.55833457 397.204,1.87799804 397.204,2.27 C397.204,2.65266858 397.080335,2.96999874 396.833,3.222 C396.585665,3.47400126 396.270669,3.6 395.888,3.6 C395.505331,3.6 395.190335,3.47400126 394.943,3.222 C394.695665,2.96999874 394.572,2.65266858 394.572,2.27 C394.572,1.87799804 394.695665,1.55833457 394.943,1.311 C395.190335,1.06366543 395.505331,0.94 395.888,0.94 C396.270669,0.94 396.585665,1.06366543 396.833,1.311 Z M406.045,5.112 C406.544336,5.63466928 406.794,6.3393289 406.794,7.226 L406.794,12 L404.316,12 L404.316,7.94 C404.316,7.51066452 404.199334,7.17233457 403.966,6.925 C403.732666,6.67766543 403.420002,6.554 403.028,6.554 C402.617331,6.56333338 402.279001,6.69866536 402.013,6.96 C401.746999,7.22133464 401.590667,7.56666452 401.544,7.996 L401.544,12 L399.052,12 L399.052,4.426 L401.544,4.426 L401.544,5.658 C401.814668,5.21933114 402.162331,4.88800112 402.587,4.664 C403.011669,4.43999888 403.499331,4.328 404.05,4.328 C404.880671,4.328 405.545664,4.58933072 406.045,5.112 Z M415.74,4.426 L415.74,11.328 C415.74,12.0280035 415.567335,12.641664 415.222,13.169 C414.876665,13.696336 414.39367,14.1023319 413.773,14.387 C413.15233,14.6716681 412.436004,14.814 411.624,14.814 C410.98933,14.814 410.378003,14.7253342 409.79,14.548 C409.201997,14.3706658 408.684002,14.1326682 408.236,13.834 L409.104,12.112 C409.449335,12.3453345 409.822665,12.5273327 410.224,12.658 C410.625335,12.7886673 411.031331,12.854 411.442,12.854 C412.002003,12.854 412.445332,12.7233346 412.772,12.462 C413.098668,12.2006654 413.262,11.8460022 413.262,11.398 L413.262,10.586 C412.757997,11.24867 412.039338,11.58 411.106,11.58 C410.480664,11.58 409.923002,11.4283349 409.433,11.125 C408.942998,10.8216652 408.560335,10.3923361 408.285,9.837 C408.009665,9.28166389 407.872,8.64467026 407.872,7.926 C407.872,7.21666312 408.004999,6.59133604 408.271,6.05 C408.537001,5.50866396 408.912664,5.08866816 409.398,4.79 C409.883336,4.49133184 410.433997,4.342 411.05,4.342 C411.516669,4.342 411.938998,4.42833247 412.317,4.601 C412.695002,4.77366753 413.009999,5.0233317 413.262,5.35 L413.262,4.426 L415.74,4.426 Z M412.842,9.27 C413.122001,8.9433317 413.262,8.51866928 413.262,7.996 C413.262,7.46399734 413.122001,7.0346683 412.842,6.708 C412.561999,6.3813317 412.193336,6.218 411.736,6.218 C411.278664,6.218 410.907668,6.38366501 410.623,6.715 C410.338332,7.04633499 410.196,7.47333072 410.196,7.996 C410.196,8.51866928 410.338332,8.9433317 410.623,9.27 C410.907668,9.5966683 411.278664,9.76 411.736,9.76 C412.193336,9.76 412.561999,9.5966683 412.842,9.27 Z M424.175,4.678 C424.590335,4.4446655 425.063997,4.328 425.596,4.328 L425.596,6.61 C425.512,6.60066662 425.386001,6.596 425.218,6.596 C424.629997,6.596 424.154002,6.73366529 423.79,7.009 C423.425998,7.28433471 423.216,7.65999762 423.16,8.136 L423.16,12 L420.668,12 L420.668,4.426 L423.16,4.426 L423.16,5.686 C423.421335,5.24733114 423.759665,4.9113345 424.175,4.678 Z M432.862,5.434 C433.52467,6.16200364 433.856,7.16066032 433.856,8.43 C433.856,8.62600098 433.851333,8.77533282 433.842,8.878 L428.578,8.878 C428.699334,9.30733548 428.909332,9.63633219 429.208,9.865 C429.506668,10.0936678 429.870665,10.208 430.3,10.208 C430.626668,10.208 430.941665,10.1426673 431.245,10.012 C431.548335,9.88133268 431.825999,9.69000126 432.078,9.438 L433.38,10.74 C432.987998,11.1786689 432.514336,11.5123322 431.959,11.741 C431.403664,11.9696678 430.776004,12.084 430.076,12.084 C429.263996,12.084 428.55467,11.9253349 427.948,11.608 C427.34133,11.2906651 426.877002,10.8426696 426.555,10.264 C426.232998,9.68533044 426.072,9.01333716 426.072,8.248 C426.072,7.47332946 426.235332,6.78966963 426.562,6.197 C426.888668,5.60433037 427.350664,5.14700161 427.948,4.825 C428.545336,4.50299839 429.235996,4.342 430.02,4.342 C431.252006,4.342 432.19933,4.70599636 432.862,5.434 Z M431.434,7.548 C431.434,7.10933114 431.305668,6.75700133 431.049,6.491 C430.792332,6.22499867 430.454002,6.092 430.034,6.092 C429.641998,6.092 429.313001,6.22266536 429.047,6.484 C428.780999,6.74533464 428.606,7.09999776 428.522,7.548 L431.434,7.548 Z M437.776,6.05 C437.561332,6.05 437.388667,6.08966627 437.258,6.169 C437.127333,6.24833373 437.062,6.36733254 437.062,6.526 C437.062,6.69400084 437.164666,6.82933282 437.37,6.932 C437.575334,7.03466718 437.901998,7.14666606 438.35,7.268 C438.891336,7.42666746 439.341665,7.58299923 439.701,7.737 C440.060335,7.89100077 440.370665,8.12433177 440.632,8.437 C440.893335,8.74966823 441.024,9.15799748 441.024,9.662 C441.024,10.4273372 440.72767,11.0269978 440.135,11.461 C439.54233,11.8950022 438.770005,12.112 437.818,12.112 C437.173997,12.112 436.558003,12.0210009 435.97,11.839 C435.381997,11.6569991 434.859336,11.3886684 434.402,11.034 L435.186,9.424 C435.615335,9.72266816 436.065664,9.95366585 436.537,10.117 C437.008336,10.2803342 437.453998,10.362 437.874,10.362 C438.116668,10.362 438.310333,10.3223337 438.455,10.243 C438.599667,10.1636663 438.672,10.0493341 438.672,9.9 C438.672,9.7133324 438.567001,9.56866718 438.357,9.466 C438.146999,9.36333282 437.818002,9.25133394 437.37,9.13 C436.837997,8.97133254 436.399335,8.81500077 436.054,8.661 C435.708665,8.50699923 435.407668,8.27600154 435.151,7.968 C434.894332,7.65999846 434.766,7.25866914 434.766,6.764 C434.766,5.99866284 435.05533,5.39900217 435.634,4.965 C436.21267,4.53099783 436.959329,4.314 437.874,4.314 C438.424669,4.314 438.968331,4.38866592 439.505,4.538 C440.041669,4.68733408 440.547998,4.90666522 441.024,5.196 L440.184,6.82 C439.203995,6.3066641 438.401336,6.05 437.776,6.05 Z M449.76,4.426 L449.76,12 L447.268,12 L447.268,10.768 C446.754664,11.6453377 445.947339,12.0933332 444.846,12.112 C444.024663,12.112 443.369002,11.848336 442.879,11.321 C442.388998,10.793664 442.144,10.0913377 442.144,9.214 L442.144,4.426 L444.636,4.426 L444.636,8.5 C444.636,8.92933548 444.745666,9.26533212 444.965,9.508 C445.184334,9.75066788 445.480665,9.872 445.854,9.872 C446.292669,9.86266662 446.637999,9.70166823 446.89,9.389 C447.142001,9.07633177 447.268,8.66800252 447.268,8.164 L447.268,4.426 L449.76,4.426 Z M451.734,1.612 L454.226,1.612 L454.226,12 L451.734,12 L451.734,1.612 Z M461.128,11.608 C460.847999,11.7666675 460.526002,11.8903329 460.162,11.979 C459.797998,12.0676671 459.429335,12.112 459.056,12.112 C458.30933,12.112 457.705002,11.8973355 457.243,11.468 C456.780998,11.0386645 456.55,10.4460038 456.55,9.69 L456.55,6.442 L455.5,6.442 L455.5,4.79 L456.55,4.79 L456.55,2.69 L459.028,2.69 L459.028,4.79 L460.988,4.79 L460.988,6.442 L459.028,6.442 L459.028,9.298 C459.028,9.83000266 459.247331,10.096 459.686,10.096 C459.956668,10.096 460.278665,10.0120008 460.652,9.844 L461.128,11.608 Z M464.964,6.05 C464.749332,6.05 464.576667,6.08966627 464.446,6.169 C464.315333,6.24833373 464.25,6.36733254 464.25,6.526 C464.25,6.69400084 464.352666,6.82933282 464.558,6.932 C464.763334,7.03466718 465.089998,7.14666606 465.538,7.268 C466.079336,7.42666746 466.529665,7.58299923 466.889,7.737 C467.248335,7.89100077 467.558665,8.12433177 467.82,8.437 C468.081335,8.74966823 468.212,9.15799748 468.212,9.662 C468.212,10.4273372 467.91567,11.0269978 467.323,11.461 C466.73033,11.8950022 465.958005,12.112 465.006,12.112 C464.361997,12.112 463.746003,12.0210009 463.158,11.839 C462.569997,11.6569991 462.047336,11.3886684 461.59,11.034 L462.374,9.424 C462.803335,9.72266816 463.253664,9.95366585 463.725,10.117 C464.196336,10.2803342 464.641998,10.362 465.062,10.362 C465.304668,10.362 465.498333,10.3223337 465.643,10.243 C465.787667,10.1636663 465.86,10.0493341 465.86,9.9 C465.86,9.7133324 465.755001,9.56866718 465.545,9.466 C465.334999,9.36333282 465.006002,9.25133394 464.558,9.13 C464.025997,8.97133254 463.587335,8.81500077 463.242,8.661 C462.896665,8.50699923 462.595668,8.27600154 462.339,7.968 C462.082332,7.65999846 461.954,7.25866914 461.954,6.764 C461.954,5.99866284 462.24333,5.39900217 462.822,4.965 C463.40067,4.53099783 464.147329,4.314 465.062,4.314 C465.612669,4.314 466.156331,4.38866592 466.693,4.538 C467.229669,4.68733408 467.735998,4.90666522 468.212,5.196 L467.372,6.82 C466.391995,6.3066641 465.589336,6.05 464.964,6.05 Z" id="Li-ion-cell-benchmar" fill="#575757"></path>
            </g>
        </g>
    </g>
</svg>